<svg id="_26" data-name="26" xmlns="http://www.w3.org/2000/svg" xmlns:xlink="http://www.w3.org/1999/xlink" width="99" height="99" viewBox="0 0 99 99">
  <defs>
    <clipPath id="clip-path">
      <rect id="Rectangle_47352" data-name="Rectangle 47352" width="76.974" height="76.999" fill="none"/>
    </clipPath>
  </defs>
  <rect id="Rectangle_46153" data-name="Rectangle 46153" width="99" height="99" rx="13" fill="#fc5f65"/>
  <g id="Group_176342" data-name="Group 176342" transform="translate(11 11)">
    <g id="Group_176341" data-name="Group 176341" clip-path="url(#clip-path)">
      <path id="Path_188981" data-name="Path 188981" d="M76.974,41.475a14.727,14.727,0,0,0-.422,2.691c-2.724,15.2-11.3,25.707-25.839,30.728A38.066,38.066,0,0,1,3.867,55.2a38.447,38.447,0,0,1,24.248-53.8,35.983,35.983,0,0,1,7-1.261c.138-.011.31.043.382-.148h3.757a3.751,3.751,0,0,0,1.653,0h.451c.835.136,1.687.071,2.52.184A37.853,37.853,0,0,1,61.413,7.321c1.108.814,1.242,1.29.779,2.333a1.413,1.413,0,0,1-2.084-.008,35.536,35.536,0,0,0-6.357-3.823,34.791,34.791,0,0,0-10.7-3.076,35.75,35.75,0,0,0-18.718,2.6,36.032,36.032,0,0,0-12.488,8.911,31.434,31.434,0,0,0-4.193,5.656A34.361,34.361,0,0,0,3.44,30.226a35.1,35.1,0,0,0-.932,9.76,36.319,36.319,0,0,0,2.851,12.6,35.618,35.618,0,0,0,8.964,12.555,35.2,35.2,0,0,0,19.823,9.064,35.805,35.805,0,0,0,21.292-3.932,15.74,15.74,0,0,0,1.618-.947A35.789,35.789,0,0,0,71,54.012a35.312,35.312,0,0,0,3.4-12.755,35.732,35.732,0,0,0-1.41-13.194A34.965,34.965,0,0,0,65.914,15.12c-.737-.855-1.552-1.63-2.31-2.461a1.437,1.437,0,0,1-.1-2.081c.772-.486,1.088-.511,1.747.062A29.793,29.793,0,0,1,70.041,16.1a38.115,38.115,0,0,1,6.725,16.849c.122.886.05,1.786.208,2.669Z" transform="translate(0)"/>
      <path id="Path_188982" data-name="Path 188982" d="M81.8,0a1.991,1.991,0,0,1-1.653,0Z" transform="translate(-40.89)" fill="#434343"/>
      <path id="Path_188983" data-name="Path 188983" d="M66.195,11.948c.651.158.892.9,1.534,1.075-.522.829-.477,1.206.283,1.956A34.535,34.535,0,0,1,77.856,32.42c2.875,13.222-.481,24.724-10,34.376a29.1,29.1,0,0,1-6.522,5A31.693,31.693,0,0,1,48.6,75.244a36.931,36.931,0,0,1-18.575-3.3A37.488,37.488,0,0,1,9.882,49.253,37.285,37.285,0,0,1,8.227,35.021a31.518,31.518,0,0,1,3.448-12.888,34.174,34.174,0,0,1,8.276-9.518A34.912,34.912,0,0,1,37.535,4.977,35.663,35.663,0,0,1,63.82,11.442c.184.131.376.252.544.4a1.313,1.313,0,0,0,1.831.106" transform="translate(-4.149 -2.354)" fill="#c0e3f9"/>
      <path id="Path_188984" data-name="Path 188984" d="M9.849,40.382c-.408,1.094-.824,2.185-1.224,3.282A37.886,37.886,0,0,0,6.84,51.045,40.365,40.365,0,0,0,6.6,58.819a32.747,32.747,0,0,0,1.521,8.194A37.493,37.493,0,0,0,37.156,92.825a38.8,38.8,0,0,0,10.207.384,34.9,34.9,0,0,0,8.164-1.683c1.111-.365,2.192-.825,3.285-1.246.23-.089.43-.265.7-.23a32.132,32.132,0,0,1-9.379,4.027A36.151,36.151,0,0,1,6.209,69.665a35.523,35.523,0,0,1,3.412-29,2.389,2.389,0,0,1,.228-.288" transform="translate(-2.323 -20.603)" fill="#90b4f8"/>
      <path id="Path_188985" data-name="Path 188985" d="M33.755,19.33c-.162-.981.083-1.364,1.036-1.651a8.342,8.342,0,0,1,3.192-.313,1.049,1.049,0,0,0,.922-.326,9.154,9.154,0,0,1,11.188-1.375,1,1,0,0,0,.9.078A9.163,9.163,0,0,1,61.61,19.366a1.128,1.128,0,0,0,.83.526,9.172,9.172,0,0,1,7.957,8,.84.84,0,0,0,.374.672c3.81,2.445,5.006,7.069,3.391,11.476a1.673,1.673,0,0,0-.021,1.333,4.441,4.441,0,0,1,.255,2.794c-.108.426.068.549.406.7a5.394,5.394,0,0,1,.038,9.912c-.367.173-.521.29-.438.752a5.251,5.251,0,0,1-5.547,6.187c-.588-.037-.882.065-1.107.636a4.444,4.444,0,0,1-1.723,2.031c-.29.2-.383.333-.236.7a5.126,5.126,0,0,1-1.143,5.879,5.18,5.18,0,0,1-5.877,1.192c-.326-.121-.485-.118-.718.189a5.28,5.28,0,0,1-8.161.759c-.208-.193-.337-.285-.624-.114a5.073,5.073,0,0,1-3.819.647c-.487-.109-.456.264-.565.5a5.4,5.4,0,0,1-7.514,2.586,5.165,5.165,0,0,1-2.411-2.675c-.144-.362-.286-.448-.7-.372a5.307,5.307,0,0,1-5.727-2.915,1.1,1.1,0,0,0-.861-.674,8.161,8.161,0,0,1-5.149-3.721,14.338,14.338,0,0,1-1.754-4.036,1.238,1.238,0,0,1,.7-1.487,1.075,1.075,0,0,1,1.525.566,10.949,10.949,0,0,1,.517,1.408,9.055,9.055,0,0,0,1.816,3.168,5.581,5.581,0,0,0,8.319-.01,9.435,9.435,0,0,0,1.944-3.608,23.976,23.976,0,0,1,2.883-6.007,33.663,33.663,0,0,0,2.59-5.079,16.991,16.991,0,0,0,.867-3.413,1.2,1.2,0,0,0-.254-.984,5.842,5.842,0,0,1-1.055-4.972,1.452,1.452,0,0,0-.335-1.179,12.189,12.189,0,0,0-6.271-4.681,13.831,13.831,0,0,0-9.984.369,11.554,11.554,0,0,0-4.733,3.6,10.16,10.16,0,0,0-2.068,8.519,23.824,23.824,0,0,0,3.136,7.495c.27.478.568.944.808,1.437a1.115,1.115,0,0,1-.6,1.692,1.148,1.148,0,0,1-1.464-.412c-1.683-2.836-3.378-5.671-4.126-8.94A13.034,13.034,0,0,1,21.639,34.9a.936.936,0,0,0,.579-1.085,9.147,9.147,0,0,1,5.765-9.626.968.968,0,0,0,.621-.66,8.727,8.727,0,0,1,1.7-2.975c.648-.756,1.07-.819,1.946-.3a1.014,1.014,0,0,1,.2,1.49c-.317.563-.828.992-1.1,1.584a6.362,6.362,0,0,0-.583,1.539,1.9,1.9,0,0,1-1.451,1.45,6.641,6.641,0,0,0-4.319,4.176,5.981,5.981,0,0,0-.342,2.284c.01.446.178.588.6.459.287-.087.579-.158.873-.222a16.284,16.284,0,0,1,13.222,2.94,12.415,12.415,0,0,1,2.551,2.53c.348.46.653.6,1.177.244a5.111,5.111,0,0,1,3.45-.769.883.883,0,0,0,1.007-.544,5.621,5.621,0,0,1,10-.053.96.96,0,0,0,1.063.587,5.3,5.3,0,0,1,4.932,2.148c.386.5.628.411.973,0a6.394,6.394,0,0,1,4.22-2.357,4.706,4.706,0,0,1,2.694.454c.493.237.744.151.826-.406.437-2.966-.154-5.619-3.251-7.43A1.751,1.751,0,0,1,68,28.8a6.832,6.832,0,0,0-6.587-6.544,1.685,1.685,0,0,1-1.495-.955,6.726,6.726,0,0,0-8.573-3.069,2.223,2.223,0,0,1-2.246-.277,6.773,6.773,0,0,0-8.853,1.215,1.92,1.92,0,0,1-1.777.733,8.973,8.973,0,0,0-3.134.151c-.906.226-1.36-.017-1.584-.722" transform="translate(-7.446 -7.328)"/>
      <path id="Path_188986" data-name="Path 188986" d="M42.97,25.589a3.335,3.335,0,0,1,.811-1.238A1.334,1.334,0,0,0,44,22.587a4.775,4.775,0,0,1,1.5-.918,1.29,1.29,0,0,0,1.63.522,6.388,6.388,0,0,1,3.12-.17,1.492,1.492,0,0,0,1.523-.539,6.9,6.9,0,0,1,9.449-1.19,1.56,1.56,0,0,0,1.612.174,6.9,6.9,0,0,1,9.005,3.09,1.508,1.508,0,0,0,1.377.848,6.918,6.918,0,0,1,6.713,6.671,1.666,1.666,0,0,0,1.014,1.513,6.9,6.9,0,0,1,2.966,8.5c-3.408-1.84-5.981-.508-8.218,2.249a5.553,5.553,0,0,0-3.583-2.757,5.015,5.015,0,0,0-2.16-.057c-.437.089-.536-.065-.692-.4a5.4,5.4,0,0,0-9.942.037c-.139.306-.233.442-.64.372a5.24,5.24,0,0,0-4.185.98c-.224.169-.357.275-.59-.026-4.062-5.267-9.469-6.973-15.891-5.967a.7.7,0,0,1-.149-.009,2.041,2.041,0,0,1-.154-1.6,6.573,6.573,0,0,1,4.084-5.272,1.1,1.1,0,0,0,.834-1.22,5.765,5.765,0,0,1,.342-1.827" transform="translate(-19.195 -9.666)" fill="#feefae"/>
      <path id="Path_188987" data-name="Path 188987" d="M22.89,85.753c.716-.675.767-1.023.264-1.9a32.179,32.179,0,0,1-3.507-7.352,10.746,10.746,0,0,1,1.321-9.393c.153-.224.348-.421.523-.63.212.186.13.417.08.629-.84,3.572-.02,6.892,1.524,10.1.771,1.6,1.691,3.122,2.582,4.659a19.6,19.6,0,0,1,1.851,4.172,9.6,9.6,0,0,0,3.258,5.181,5.823,5.823,0,0,0,3.762,1.264,2.259,2.259,0,0,1,1.527.182,5.711,5.711,0,0,1-8.271.371,10.083,10.083,0,0,1-2.5-4.53c-.28-.9-.561-1.091-1.522-1.071l-.89-1.686" transform="translate(-9.762 -33.919)" fill="#b0705b"/>
      <path id="Path_188988" data-name="Path 188988" d="M38.044,87.705a11.3,11.3,0,0,1-3.557-.271,6.973,6.973,0,0,1-4.475-4.526c-1.242-3.984-3.591-7.385-5.365-11.082a15.6,15.6,0,0,1-1.6-8.193,19.449,19.449,0,0,1,.41-2.116A11.711,11.711,0,0,1,30.5,57.146a13.443,13.443,0,0,1,13.144,3.741,8.566,8.566,0,0,1,.723.861,2.475,2.475,0,0,1,.65,2.356,4.837,4.837,0,0,0,1.095,4.283,1.457,1.457,0,0,1,.288,1.236,19.66,19.66,0,0,1-2.582,6.9c-.563,1-1.143,1.994-1.73,2.982a19.458,19.458,0,0,0-2.013,4.5,8.359,8.359,0,0,1-2.035,3.7" transform="translate(-11.732 -28.954)" fill="#c28678"/>
      <path id="Path_188989" data-name="Path 188989" d="M103.077,80.269a12.717,12.717,0,0,1,3.774-5.058,6.877,6.877,0,0,0,2.741-4.486.611.611,0,0,1,.156-.328c.791-.836,1.543-1.716,2.4-2.482a3.028,3.028,0,0,1,4.044-.28,3.16,3.16,0,0,1,.766,4.054c-.485,1.007-.079,1.754,1.009,1.857A3.151,3.151,0,0,1,121,76.66a3.189,3.189,0,0,1-2.986,3.178c-1.2.129-1.553.8-1,1.931a3.157,3.157,0,0,1-.726,3.887,3.052,3.052,0,0,1-3.879.015,8.419,8.419,0,0,1-1.383-1.371,17.054,17.054,0,0,0-4.307-3.585,1.27,1.27,0,0,0-1.808.2,1.624,1.624,0,0,1-1.825-.644" transform="translate(-52.59 -34.177)" fill="#97c990"/>
      <path id="Path_188990" data-name="Path 188990" d="M85.486,75.286a26.605,26.605,0,0,0-1,2.944,2.426,2.426,0,0,1-1.1,1.525,3.909,3.909,0,0,0-1.216,1.377c-.8.347-1.3.249-1.683-.33a1.3,1.3,0,0,0-.35-1.5,2.428,2.428,0,0,1-.672-1.235,15.783,15.783,0,0,0-5.36-8.3,5.525,5.525,0,0,1-1.4-1.645,2.913,2.913,0,0,1,.427-3.474,3.169,3.169,0,0,1,3.517-.754c.092.039.18.087.27.131,1.164.572,1.835.206,1.944-1.062a3.145,3.145,0,0,1,5.756-1.52,3.376,3.376,0,0,1,.543,1.616c.1,1.119.818,1.521,1.822,1.033a3.142,3.142,0,0,1,4.059.742,3.1,3.1,0,0,1-.254,4.054c-.143.173-.307.329-.456.5-.381.427-.646.588-1.08-.048a3.2,3.2,0,0,0-3.609-1.163,3.387,3.387,0,0,0-2.4,3.037c-.014.2-.015.4-.023.6a4.952,4.952,0,0,0-.094.964A2.019,2.019,0,0,0,84.822,74.9c.251.053.635-.072.664.384" transform="translate(-36.895 -30.629)" fill="#c1e3a0"/>
      <path id="Path_188991" data-name="Path 188991" d="M94.313,101.046a2.6,2.6,0,0,1-1.288.71,1.132,1.132,0,0,0-.54,1.944,3.129,3.129,0,0,1-.043,4.4,3.16,3.16,0,0,1-4.4.065c-.885-.694-1.633-.427-2.025.723a3.117,3.117,0,0,1-4.659,1.759c-.552-.368-.865-.711-.507-1.51a5.647,5.647,0,0,0-1.963-6.553,1.222,1.222,0,0,0-1.581.136c-.449-.259-.915-.5-.935-1.119a1.363,1.363,0,0,0-.131-1.774,11.6,11.6,0,0,1-2.144-4.4,4.934,4.934,0,0,0-1.668-2.768.49.49,0,0,1-.162-.7c.258-.566.471-1.152.7-1.729.375-.043.508.265.69.488a13.207,13.207,0,0,1,2.459,4.835,3.886,3.886,0,0,0,4.6,3.077c.494-.055.879-.017.97.615.261,1.816.79,2.243,2.607,2.167a.939.939,0,0,0,.51-.061c2.015-.077,3.228-.92,3.668-2.563a3.536,3.536,0,0,0-.526-2.853c.28-.247.286-.257.612-.079a9.615,9.615,0,0,1,2,1.453,19.31,19.31,0,0,1,2.337,2.432c.392.528,1.075.734,1.423,1.306" transform="translate(-36.831 -46.033)" fill="#97c990"/>
      <path id="Path_188992" data-name="Path 188992" d="M64,106.028l.935,1.119a1.311,1.311,0,0,0,.346,1.8,4.481,4.481,0,0,1,.774.912,3,3,0,0,1-.191,3.746,3.158,3.158,0,0,1-3.773.7c-.09-.043-.174-.1-.265-.14a1.122,1.122,0,0,0-1.726.959,3.154,3.154,0,0,1-6.308.029c-.105-1.03-.867-1.418-1.841-.938a3.123,3.123,0,0,1-3.854-.535.359.359,0,0,1-.15-.371,8.605,8.605,0,0,0,5.7-4.086,7.872,7.872,0,0,0,2.285-.031c2.378-.139,3.808-1.523,3.719-3.6-.068-1.569-1.1-2.691-3.009-3.221l2.014-3.463a2.452,2.452,0,0,1,.872,1.517,14.538,14.538,0,0,0,2.5,5.153c.664.872.994.949,1.964.45" transform="translate(-24.458 -50.463)" fill="#c1e3a0"/>
      <path id="Path_188993" data-name="Path 188993" d="M85.617,99.035a2.157,2.157,0,0,1-3.3-1.846c.048-.619-.172-.807-.769-.7a4.034,4.034,0,0,1-4.728-2.91,13.728,13.728,0,0,0-2.706-5.361,2.722,2.722,0,0,0-.328-.3l.629-2.224c.278-.033.383.206.522.359a12.566,12.566,0,0,1,3.034,5.5,5.162,5.162,0,0,0,1.183,2.3c.732.8,1.294.81,2.077.042a2.426,2.426,0,0,0,1.683.33,3.461,3.461,0,0,0,2.7,4.815" transform="translate(-37.646 -43.718)" fill="#68b080"/>
      <path id="Path_188994" data-name="Path 188994" d="M109.294,103.026a6.481,6.481,0,0,1-1.762-1.44,16.716,16.716,0,0,0-4.232-3.7c-.15-.085-.261-.134-.374.03-.177-.171-.324-.416-.536-.5-1.174-.477-.869-1.3-.541-2.139.152-.389.3-.779.451-1.169a4.013,4.013,0,0,0,1.825.644,1.17,1.17,0,0,0,.515,1.656,15.7,15.7,0,0,1,4.354,3.719,8.161,8.161,0,0,0,.621.648c.807.77.823,1.062.072,1.919a3.546,3.546,0,0,1-.391.337" transform="translate(-51.812 -48.012)" fill="#68b080"/>
      <path id="Path_188995" data-name="Path 188995" d="M41.4,32.508c.047.849-.242,1.676-.158,2.529.03.3-.176.414-.443.506a6.461,6.461,0,0,0-4.435,5.091,11.393,11.393,0,0,0-.071,1.789c-1.786.6-1.92.534-1.643-1.325a6.715,6.715,0,0,1,4.762-5.7,1.75,1.75,0,0,0,1.361-1.392,3.429,3.429,0,0,1,.627-1.5" transform="translate(-17.619 -16.586)" fill="#fedf7c"/>
      <path id="Path_188996" data-name="Path 188996" d="M97.577,103.7a1.125,1.125,0,0,1,0,2.251,1.125,1.125,0,1,1,0-2.251" transform="translate(-49.209 -52.911)" fill="#fbbf4f"/>
      <path id="Path_188997" data-name="Path 188997" d="M100.361,83.2A1.157,1.157,0,0,1,99.2,82.067a1.113,1.113,0,0,1,1.1-1.1A1.089,1.089,0,0,1,101.442,82a1.131,1.131,0,0,1-1.08,1.2" transform="translate(-50.614 -41.309)" fill="#fbbf4f"/>
      <path id="Path_188998" data-name="Path 188998" d="M64.923,111.819a1.128,1.128,0,0,1-1.1,1.1,1.149,1.149,0,0,1-1.143-1.144,1.115,1.115,0,0,1,1.183-1.085,1.092,1.092,0,0,1,1.06,1.125" transform="translate(-31.979 -56.476)" fill="#fcc04f"/>
      <path id="Path_188999" data-name="Path 188999" d="M96.492,87.547c-.178-.251-.446-.156-.683-.176a2.2,2.2,0,0,1-1.594-3.306,3.672,3.672,0,0,0,2.324,2.805c.528.2,0,.449-.046.676" transform="translate(-47.901 -42.891)" fill="#97c890"/>
      <path id="Path_189000" data-name="Path 189000" d="M61.887,119.227a2.117,2.117,0,0,1-2.285.031c.185-.721.523-.888,1.176-.419a4.119,4.119,0,0,0,1.109.388" transform="translate(-30.409 -60.498)" fill="#95c68e"/>
      <path id="Path_189001" data-name="Path 189001" d="M70.907,52.255a3.332,3.332,0,0,1-3.359-3.392,3.372,3.372,0,0,1,3.34-3.355A3.41,3.41,0,0,1,74.3,48.882a3.374,3.374,0,0,1-3.4,3.373" transform="translate(-34.464 -23.218)"/>
      <path id="Path_189002" data-name="Path 189002" d="M114.615,51.051a3.329,3.329,0,0,1-3.365,3.384,3.371,3.371,0,1,1,3.365-3.384" transform="translate(-55.034 -24.333)"/>
      <path id="Path_189003" data-name="Path 189003" d="M35.888,87.308q-3.682,0-7.363,0c-.945,0-1.465-.412-1.455-1.125s.531-1.126,1.476-1.126q7.363-.006,14.726,0c1.107,0,1.732.74,1.358,1.584a1.176,1.176,0,0,1-1.229.671c-2.5-.009-5.009,0-7.513,0" transform="translate(-13.811 -43.394)"/>
      <path id="Path_189004" data-name="Path 189004" d="M36.894,71.4q-3.189,0-6.379,0a1.1,1.1,0,0,1-1.184-.834,1.052,1.052,0,0,1,.5-1.225,1.35,1.35,0,0,1,.791-.191c4.2,0,8.4-.009,12.607,0,.9,0,1.371.436,1.365,1.148s-.471,1.094-1.392,1.1c-2.1.007-4.2,0-6.3,0" transform="translate(-14.94 -35.278)" fill="#010000"/>
      <path id="Path_189005" data-name="Path 189005" d="M41.041,101.806c1.1,0,2.2-.008,3.3,0,.85.008,1.3.406,1.3,1.113,0,.689-.475,1.128-1.3,1.133q-3.34.021-6.68,0a1.182,1.182,0,0,1-1.318-1.139c0-.66.513-1.1,1.324-1.107,1.126-.009,2.252,0,3.377,0" transform="translate(-18.541 -51.94)"/>
      <path id="Path_189006" data-name="Path 189006" d="M73.285,52.35a1.085,1.085,0,0,1-1.13-1.051,1.124,1.124,0,0,1,1.094-1.18A1.155,1.155,0,0,1,74.4,51.264a1.121,1.121,0,0,1-1.111,1.086" transform="translate(-36.813 -25.571)" fill="#fcbf4f"/>
      <path id="Path_189007" data-name="Path 189007" d="M113.627,54.527a1.111,1.111,0,0,1-1.148-1.118,1.13,1.13,0,0,1,1.1-1.105,1.1,1.1,0,0,1,1.13,1.13,1.074,1.074,0,0,1-1.082,1.093" transform="translate(-57.388 -26.685)" fill="#fcc04f"/>
    </g>
  </g>
</svg>
