<svg id="_27" data-name="27" xmlns="http://www.w3.org/2000/svg" xmlns:xlink="http://www.w3.org/1999/xlink" width="66.516" height="66.268" viewBox="0 0 66.516 66.268">
  <defs>
    <clipPath id="clip-path">
      <rect id="Rectangle_47353" data-name="Rectangle 47353" width="66.516" height="66.268" fill="none"/>
    </clipPath>
  </defs>
  <g id="Group_176344" data-name="Group 176344" clip-path="url(#clip-path)">
    <path id="Path_189008" data-name="Path 189008" d="M66.515,24.726V65.481c-.149.654-.59.788-1.208.787q-31.987-.017-63.973-.01C.263,66.258,0,66,0,64.917q0-10.835,0-21.67Q0,34.325,0,25.4c0-1.612.56-2.176,2.193-2.18,3.482-.008,6.964,0,10.446,0,.944,0,.968-.031.974-.992,0-.195-.011-.39,0-.584a.774.774,0,0,0-.633-.9,1.985,1.985,0,0,1-1.5-1.842,22.677,22.677,0,0,1,0-4.532,1.968,1.968,0,0,1,2.193-1.914c2.1-.02,4.2,0,6.293-.007.217,0,.433,0,.649-.009a.464.464,0,0,0,.516-.521c0-.194.007-.389.007-.584q0-4.379,0-8.759c0-.26-.007-.519.015-.778A1.817,1.817,0,0,1,23.068.006c2.66-.011,5.32,0,7.981,0q6.1,0,12.2,0c1.495,0,2.179.669,2.186,2.18.015,3.071,0,6.142.006,9.213,0,1.032.018,1.05,1.051,1.051,2.076,0,4.153-.006,6.229,0a2.126,2.126,0,0,1,2.425,2.257,35.954,35.954,0,0,1,0,3.826A2.213,2.213,0,0,1,53.461,20.8a.541.541,0,0,0-.465.476,8.655,8.655,0,0,0,0,1.554.375.375,0,0,0,.378.367,6.157,6.157,0,0,0,.713.023h9.8c.238,0,.476,0,.713,0,1.19.03,1.641.383,1.921,1.5" transform="translate(0 0)"/>
    <path id="Path_189009" data-name="Path 189009" d="M62.763,83.516c-1.08.011-2.16.005-3.239.041-.4.013-.511-.115-.505-.512.022-1.643.009-3.286.009-4.929q0-4.606,0-9.211a1.921,1.921,0,0,0-2.189-2.186q-8.983-.009-17.967,0a1.935,1.935,0,0,0-2.227,2.213c0,4.649-.01,9.3.012,13.946,0,.53-.118.7-.666.684-1.686-.037-3.373-.034-5.059,0-.493.01-.606-.128-.6-.611.019-4.691,0-9.383.021-14.075A1.149,1.149,0,0,0,29.4,67.55a3.581,3.581,0,0,1,0-2.581c.725-.147.94-.615.939-1.32-.014-7.65,0-15.3-.024-22.951,0-.614.179-.735.753-.732,4.884.022,9.768.009,14.652.018.606,0,1.123-.092,1.359-.739a2.076,2.076,0,0,1,2.669,0c.224.609.7.739,1.293.738q5.5-.015,11.009,0c.236,0,.472.025.707.038a1.642,1.642,0,0,1,.21,1.123q.006,7.265,0,14.53,0,13.33,0,26.66a1.691,1.691,0,0,1-.21,1.185" transform="translate(-14.547 -19.333)" fill="#ecf3fe"/>
    <path id="Path_189010" data-name="Path 189010" d="M13.6,95.1q-4.635.017-9.269.037c-.246,0-.364-.067-.337-.327a3.727,3.727,0,0,0,0-.389Q4,78.565,3.98,62.71c0-.6.157-.733.736-.726,2.961.038,5.921.029,8.882.037a.864.864,0,0,1,.2.661c.012,1.162.015,2.325,0,3.487a.786.786,0,0,1-.218.651,34.532,34.532,0,0,0-5.8-.208,1.975,1.975,0,0,0-.831.1.725.725,0,0,0-.51.806.681.681,0,0,0,.644.62,3.927,3.927,0,0,0,.711.032c1.918-.033,3.838.093,5.753-.107a.767.767,0,0,1,.251.7q.023,1.868,0,3.736a.815.815,0,0,1-.235.706c-1.934-.183-3.874-.067-5.812-.1a2.943,2.943,0,0,0-.773.051.634.634,0,0,0-.547.559.71.71,0,0,0,.374.761,1.613,1.613,0,0,0,.813.18c1.533.009,3.065,0,4.6.008.465,0,.859-.3,1.325-.241a.613.613,0,0,1,.248.562c.024,1.412.033,2.825-.005,4.237a.781.781,0,0,1-.106.366.23.23,0,0,1-.281.088c-2.047-.455-4.12-.126-6.18-.192a.681.681,0,0,0-.782.684c-.023.5.3.727.748.817a3.259,3.259,0,0,0,.645.035q1.52,0,3.04,0a8.481,8.481,0,0,0,2.685-.223.766.766,0,0,1,.245.7c.015,1.273.013,2.545,0,3.818a.854.854,0,0,1-.221.716,34.292,34.292,0,0,0-5.8-.209,1.822,1.822,0,0,0-.891.125.714.714,0,0,0-.443.786.674.674,0,0,0,.59.6,2.475,2.475,0,0,0,.516.04c1.6,0,3.2-.007,4.8.008.412,0,.8-.212,1.216-.106a.97.97,0,0,1,.241.836q.014,3.1,0,6.195a1.1,1.1,0,0,1-.207.791" transform="translate(-1.985 -30.917)" fill="#c2dcfe"/>
    <path id="Path_189011" data-name="Path 189011" d="M114.572,95.1c-3.005.011-6.011.018-9.016.038-.3,0-.379-.118-.352-.383a3.178,3.178,0,0,0,0-.324q0-15.866-.012-31.731c0-.537.082-.727.684-.717,2.9.046,5.8.033,8.693.041a.935.935,0,0,1,.2.721c.01,1.028.012,2.056,0,3.084a.9.9,0,0,1-.241.767,5.55,5.55,0,0,1-1.541.009c-1.381.026-2.764,0-4.145.013-.813.01-1.273.325-1.252.823.02.482.419.726,1.251.724,1.748-.005,3.5.035,5.246-.023.192-.007.392-.044.547.122a1.632,1.632,0,0,1,.14.885c0,.994.012,1.989,0,2.984-.005.338.034.711-.364.9a10,10,0,0,1-2,.067c-1.293.017-2.587-.012-3.88.014-.577.012-.96.286-.944.677.022.524.406.721.856.821a2.97,2.97,0,0,0,.709.046c1.659-.03,3.32.072,4.978-.063a.717.717,0,0,1,.379.063.77.77,0,0,1,.261.7q.024,1.716,0,3.432a.773.773,0,0,1-.229.648c-.9.1-1.807,0-2.712.024-.993.022-1.988,0-2.982.006a2.284,2.284,0,0,0-.707.071.7.7,0,0,0-.542.654.73.73,0,0,0,.516.744,2.178,2.178,0,0,0,.834.085c1.749-.022,3.5.056,5.249-.045a.684.684,0,0,1,.317.054.776.776,0,0,1,.257.7c.017,1.123.015,2.246,0,3.369a.834.834,0,0,1-.239.71,4.45,4.45,0,0,1-1.412.011c-1.426.022-2.853,0-4.279.013-.813.009-1.272.329-1.246.829.025.482.421.721,1.258.718,1.75-.006,3.5.036,5.251-.023.192-.007.393-.042.542.135a1.421,1.421,0,0,1,.134.754q.008,3,0,6a1.178,1.178,0,0,1-.209.856" transform="translate(-52.469 -30.914)" fill="#c2dcfe"/>
    <path id="Path_189012" data-name="Path 189012" d="M58.38,22c-.119-.113-.207-.256-.412-.252q-.922.017-1.843,0c-.206,0-.294.139-.414.251-.034-.938-.307-1.208-1.274-1.21-2.462-.006-4.925-.018-7.387.012-.5.006-.594-.147-.593-.616q.026-7.712.007-15.424c0-.353-.014-.578.485-.576,5.465.022,10.93.014,16.4.016a2.122,2.122,0,0,1,.256.03,1.187,1.187,0,0,1,.209.861q.006,7.393,0,14.786c0,.866-.054.892-.925.9-1.274.015-2.549-.047-3.822.034A1.052,1.052,0,0,0,58.38,22" transform="translate(-23.172 -2.086)" fill="#f9f4db"/>
    <path id="Path_189013" data-name="Path 189013" d="M56.229,105.825c0,2.313-.01,4.626.009,6.939,0,.415-.1.548-.532.544q-3.631-.032-7.263,0c-.409,0-.5-.115-.5-.507q.02-6.938,0-13.877c0-.453.157-.522.554-.519q3.631.024,7.263,0c.369,0,.493.046.486.481-.035,2.312-.017,4.625-.017,6.938Z" transform="translate(-23.914 -49.083)" fill="#f8f6f7"/>
    <path id="Path_189014" data-name="Path 189014" d="M68.33,105.759c0-2.334.011-4.668-.013-7,0-.327.11-.347.358-.347,2.507,0,5.014.016,7.521-.009.517-.005.41.3.411.586q0,5.446,0,10.893c0,.994-.013,1.989.007,2.983.007.333-.078.443-.428.441-2.464-.015-4.928-.021-7.392,0-.463.005-.463-.21-.461-.547.008-2.334,0-4.668,0-7h-.01" transform="translate(-34.076 -49.081)" fill="#f8f6f7"/>
    <path id="Path_189015" data-name="Path 189015" d="M96.2,84.727q0-21.749,0-43.5c.734-.013,1.468-.02,2.2-.042.277-.009.4.095.373.376-.013.129,0,.26,0,.389q0,21.024.016,42.048c0,.629-.148.836-.776.769-.6-.064-1.207-.033-1.812-.044" transform="translate(-47.983 -20.544)" fill="#dae9fe"/>
    <path id="Path_189016" data-name="Path 189016" d="M123.505,85.772c.039-.05.112-.1.113-.149.041-1.48.076-2.96-.016-4.44,0-.034-.053-.064-.081-.1a2.25,2.25,0,0,0,.023-1.69,3.055,3.055,0,0,0,.1-1.389c.026-.881.013-1.763,0-2.644,0-.226.082-.482-.158-.654a1.613,1.613,0,0,0-.093-1.8c.315-.053.253-.3.253-.506q0-2.1-.01-4.2a2.578,2.578,0,0,0-.137-1.643c.229-.18.143-.436.145-.661.007-1.291,0-2.582,0-3.874.691-.008,1.382,0,2.073-.029.308-.012.442.082.4.4a2.325,2.325,0,0,0,0,.324q0,15.85.015,31.7c0,.592-.145.788-.735.729s-1.163-.033-1.746-.044q-.006-3.846-.013-7.692a2.577,2.577,0,0,0-.134-1.642" transform="translate(-61.549 -30.924)" fill="#a3cbfe"/>
    <path id="Path_189017" data-name="Path 189017" d="M23.032,95.1c0-2.354,0-4.709,0-7.063,0-.246.1-.524-.136-.732.025-.43.019-.861.04-1.29a1.668,1.668,0,0,0,.094-1.008,35.832,35.832,0,0,0-.081-4.183,2.481,2.481,0,0,1,.069-1.121q.01-2.41.019-4.821a.487.487,0,0,0-.115-.417,9.473,9.473,0,0,0-.015-1.3c.043-.094.122-.188.123-.282q.011-2.256,0-4.513c0-.092-.085-.184-.131-.277.022-.43.02-.86.037-1.29a2.659,2.659,0,0,0,.1-1.257c.018-1.175.006-2.351.005-3.527.56-.008,1.123.015,1.68-.033.463-.039.564.125.562.57-.02,3.213-.011,6.426-.011,9.638,0,1.013,0,2.027,0,3.04,0,.851.2,1.1,1.015,1.315q0,1.291,0,2.581c-.846.255-1.013.478-1.013,1.391,0,4.658-.008,9.317.011,13.975,0,.492-.1.7-.628.641s-1.075-.031-1.613-.042" transform="translate(-11.418 -30.917)" fill="#a3cbfe"/>
    <path id="Path_189018" data-name="Path 189018" d="M71.6,20.82a6.141,6.141,0,0,1,1.915-.1,17.555,17.555,0,0,1,1.942,0c.533.035.7-.133.7-.681-.022-4.1-.012-8.2-.012-12.307v-3.5c.841-.011,1.682-.015,2.523-.036.248-.006.363.069.334.328a2.905,2.905,0,0,0,0,.324c0,5.1-.01,10.192.014,15.287,0,.544-.136.675-.674.669-2.245-.025-4.49,0-6.735.012" transform="translate(-35.715 -2.096)" fill="#f4eacc"/>
    <path id="Path_189019" data-name="Path 189019" d="M4.025,54.249c-.007-1.081,0-2.162-.028-3.242-.007-.31.084-.4.4-.4,3.071.019,6.141.022,9.212.03a.586.586,0,0,1,.183.4,26.5,26.5,0,0,1,0,2.779.462.462,0,0,1-.531.5c-3.019-.011-6.038,0-9.056-.008a.447.447,0,0,1-.18-.062" transform="translate(-1.994 -25.242)" fill="#dfdee0"/>
    <path id="Path_189020" data-name="Path 189020" d="M105.238,54.253c-.01-1.1-.01-2.2-.035-3.3-.007-.307.127-.347.384-.346q4.494.021,8.987.028a.643.643,0,0,1,.192.468q.053,1.326,0,2.654c-.014.333-.125.563-.541.561-2.936-.012-5.872,0-8.807-.008a.458.458,0,0,1-.181-.061" transform="translate(-52.474 -25.244)" fill="#dfdee0"/>
    <path id="Path_189021" data-name="Path 189021" d="M30.989,33.192c-1.123,0-2.246-.012-3.368.007-.361.006-.493-.1-.486-.474q.032-1.619,0-3.239c-.007-.356.132-.432.456-.43q3.433.016,6.866,0c.34,0,.44.093.434.434-.021,1.079-.023,2.159,0,3.238.008.368-.1.48-.47.473-1.144-.022-2.289-.008-3.433-.008" transform="translate(-13.534 -14.492)" fill="#dfdee0"/>
    <path id="Path_189022" data-name="Path 189022" d="M94.048,29.1c1.188-.011,2.376-.015,3.564-.037.306-.006.418.094.414.407-.015,1.1-.013,2.205,0,3.308,0,.3-.079.427-.4.426-2.378-.008-4.756,0-7.135,0-.054,0-.108-.052-.162-.08.245-.24.559-.19.855-.2.6-.012,1.206,0,1.809-.005.811-.007.846-.039.853-.829.007-.732,0-1.465,0-2.2a1.115,1.115,0,0,1,.2-.794" transform="translate(-45.054 -14.495)" fill="#d1cdd0"/>
    <path id="Path_189023" data-name="Path 189023" d="M94,29.1V32.26c0,.849,0,.848-.819.85l-2.9.01c-.014-1.247-.022-2.494-.047-3.741-.005-.272.114-.319.348-.316,1.14.018,2.281.025,3.421.036" transform="translate(-45.007 -14.496)" fill="#dfdee0"/>
    <path id="Path_189024" data-name="Path 189024" d="M105.273,54.25c2.894,0,5.787-.01,8.681.01.492,0,.692-.109.669-.645-.043-.991-.013-1.986-.014-2.98.691-.008,1.383,0,2.074-.03.311-.012.407.086.4.4-.018.994-.012,1.989,0,2.984,0,.249-.025.394-.34.393q-5.643-.013-11.286,0c-.093,0-.166-.023-.182-.129" transform="translate(-52.509 -25.241)" fill="#d2ced1"/>
    <path id="Path_189025" data-name="Path 189025" d="M4.053,54.25c2.977,0,5.954-.009,8.931.012.5,0,.686-.122.664-.649-.041-.99-.013-1.984-.013-2.976.625-.008,1.251,0,1.875-.028.291-.012.364.1.36.374-.013,1.014-.009,2.028,0,3.042,0,.226-.032.358-.312.357q-5.7-.012-11.393-.013c-.037,0-.074-.078-.11-.119" transform="translate(-2.022 -25.242)" fill="#d2ced1"/>
    <path id="Path_189026" data-name="Path 189026" d="M80.9,67.425c.713,0,1.426-.009,2.14,0a1.379,1.379,0,0,1,1.495,1.494c.015,1.3.017,2.594,0,3.89a1.366,1.366,0,0,1-1.4,1.463q-2.235.053-4.473,0a1.345,1.345,0,0,1-1.385-1.47c-.012-1.318-.015-2.637,0-3.955a1.349,1.349,0,0,1,1.425-1.423c.043,0,.086,0,.13,0H80.9" transform="translate(-38.536 -33.629)"/>
    <path id="Path_189027" data-name="Path 189027" d="M44.666,56.464c-.714,0-1.427.011-2.141,0A1.386,1.386,0,0,1,41.052,55q-.029-1.978,0-3.957A1.382,1.382,0,0,1,42.535,49.6q2.14-.021,4.281,0a1.372,1.372,0,0,1,1.5,1.49q.018,1.946,0,3.892a1.377,1.377,0,0,1-1.508,1.482c-.714.011-1.427,0-2.141,0" transform="translate(-20.469 -24.734)"/>
    <path id="Path_189028" data-name="Path 189028" d="M62.779,56.465c-.692,0-1.384.007-2.076,0a1.4,1.4,0,0,1-1.54-1.519q-.014-1.913,0-3.827A1.391,1.391,0,0,1,60.7,49.6q2.108-.015,4.216,0a1.383,1.383,0,0,1,1.509,1.486q.02,1.946,0,3.892a1.388,1.388,0,0,1-1.508,1.487c-.714.011-1.427,0-2.141,0" transform="translate(-29.507 -24.735)"/>
    <path id="Path_189029" data-name="Path 189029" d="M44.686,74.285c-.692,0-1.383.013-2.075,0A1.425,1.425,0,0,1,41.052,72.7c-.009-1.254-.012-2.507,0-3.761a1.383,1.383,0,0,1,1.536-1.517q2.107-.013,4.215,0a1.365,1.365,0,0,1,1.516,1.527q.015,1.88,0,3.761a1.411,1.411,0,0,1-1.559,1.568c-.692.015-1.383,0-2.075,0" transform="translate(-20.473 -33.628)"/>
    <path id="Path_189030" data-name="Path 189030" d="M80.912,49.6c.713,0,1.427-.012,2.14,0a1.39,1.39,0,0,1,1.481,1.453q.03,1.978,0,3.957a1.385,1.385,0,0,1-1.478,1.454q-2.14.021-4.281,0a1.371,1.371,0,0,1-1.5-1.485q-.02-1.946,0-3.891a1.376,1.376,0,0,1,1.5-1.489c.713-.012,1.427,0,2.14,0" transform="translate(-38.537 -24.736)"/>
    <path id="Path_189031" data-name="Path 189031" d="M62.775,74.284c-.67,0-1.34.009-2.01,0a1.428,1.428,0,0,1-1.6-1.595c-.006-1.254-.008-2.507,0-3.761a1.36,1.36,0,0,1,1.48-1.5q2.172-.017,4.344,0a1.345,1.345,0,0,1,1.437,1.411q.029,2.01,0,4.02a1.394,1.394,0,0,1-1.446,1.425c-.043,0-.087,0-.13,0H62.775" transform="translate(-29.507 -33.626)"/>
    <path id="Path_189032" data-name="Path 189032" d="M15.745,96.887a1.215,1.215,0,0,1-.069,1.121,1.354,1.354,0,0,1-1.057.389c-1.687-.013-3.374,0-5.06-.006-.805,0-1.248-.364-1.237-1,.01-.611.43-.947,1.208-.949,1.687,0,3.374.011,5.061-.009a1.4,1.4,0,0,1,1.155.449" transform="translate(-4.151 -48.103)"/>
    <path id="Path_189033" data-name="Path 189033" d="M15.663,71.235a1.122,1.122,0,0,1-.037,1.291,1.446,1.446,0,0,1-.962.3c-1.728-.012-3.455,0-5.183-.007-.739,0-1.139-.332-1.157-.926-.019-.618.406-1.01,1.152-1.015,1.727-.011,3.455,0,5.183-.008a1.428,1.428,0,0,1,1,.37" transform="translate(-4.152 -35.347)" fill="#000101"/>
    <path id="Path_189034" data-name="Path 189034" d="M15.636,84a1.124,1.124,0,0,1,.015,1.3,1.41,1.41,0,0,1-.946.347c-1.748-.006-3.5.006-5.245-.007-.722-.005-1.127-.371-1.136-.965a.9.9,0,0,1,.917-.963c1.9-.021,3.8-.006,5.7-.008a1.229,1.229,0,0,1,.7.3" transform="translate(-4.152 -41.746)" fill="#010101"/>
    <path id="Path_189035" data-name="Path 189035" d="M15.665,109.559a1.123,1.123,0,0,1-.04,1.29,1.478,1.478,0,0,1-.963.3c-1.728-.011-3.455,0-5.183-.007-.737,0-1.139-.338-1.155-.931-.018-.618.41-1.007,1.155-1.01,1.728-.009,3.455,0,5.183-.008a1.412,1.412,0,0,1,1,.37" transform="translate(-4.152 -54.462)" fill="#000101"/>
    <path id="Path_189036" data-name="Path 189036" d="M116.6,96.58c.566.662.561,1.041-.022,1.69a2.5,2.5,0,0,1-.758.132c-1.708-.008-3.415,0-5.123-.006-.753,0-1.209-.366-1.223-.957-.016-.613.45-.986,1.248-.987,1.686,0,3.372,0,5.058,0a2.088,2.088,0,0,1,.821.132" transform="translate(-54.602 -48.107)"/>
    <path id="Path_189037" data-name="Path 189037" d="M116.557,70.987a1.067,1.067,0,0,1,.137,1.643,1.853,1.853,0,0,1-.87.19c-1.724-.009-3.448,0-5.171-.006-.741,0-1.2-.389-1.181-.979a1.024,1.024,0,0,1,1.154-.962q2.618-.016,5.236,0a4.465,4.465,0,0,1,.7.112" transform="translate(-54.603 -35.347)" fill="#000101"/>
    <path id="Path_189038" data-name="Path 189038" d="M116.451,83.736c.734.618.759,1.1.093,1.8a6.473,6.473,0,0,1-1.8.1q-2.007.013-4.016,0c-.789,0-1.264-.389-1.255-.994.008-.587.457-.95,1.217-.948,1.921.007,3.842.027,5.762.042" transform="translate(-54.603 -41.746)" fill="#010101"/>
    <path id="Path_189039" data-name="Path 189039" d="M116.559,109.312a1.067,1.067,0,0,1,.134,1.642,1.854,1.854,0,0,1-.87.192c-1.725-.008-3.449,0-5.173-.006-.74,0-1.2-.393-1.179-.983.016-.571.458-.954,1.155-.958q2.619-.014,5.238,0a4.456,4.456,0,0,1,.7.111" transform="translate(-54.603 -54.464)" fill="#000101"/>
    <path id="Path_189040" data-name="Path 189040" d="M60.1,8.139c.238,0,.475,0,.713,0a2.212,2.212,0,0,1,2.4,2.362c.009.85.009.85.845.861a2.222,2.222,0,0,1,2.386,2.383q.008.713,0,1.426a2.189,2.189,0,0,1-2.385,2.375c-.713-.021-.891.161-.866.87a2.156,2.156,0,0,1-2.314,2.364q-.777.014-1.555,0a2.156,2.156,0,0,1-2.315-2.362c.025-.7-.144-.894-.862-.872a2.185,2.185,0,0,1-2.384-2.373c-.006-.5-.008-.994,0-1.491a2.209,2.209,0,0,1,2.318-2.319c.9-.017.9-.017.909-.86a2.21,2.21,0,0,1,2.4-2.364c.238,0,.475,0,.713,0" transform="translate(-26.814 -4.059)"/>
    <path id="Path_189041" data-name="Path 189041" d="M57.773,112.385c0,.432.016.864,0,1.294a.962.962,0,0,1-1.924.051c-.038-.9-.038-1.813,0-2.717a.964.964,0,0,1,1.927.078c.016.431,0,.863,0,1.294" transform="translate(-27.841 -54.912)" fill="#010101"/>
    <path id="Path_189042" data-name="Path 189042" d="M73.108,112.277c0-.432-.011-.864,0-1.3a.959.959,0,0,1,1.913-.091,27.934,27.934,0,0,1,0,2.846.959.959,0,0,1-1.912-.1c-.014-.453,0-.907,0-1.36" transform="translate(-36.463 -54.881)" fill="#010101"/>
    <path id="Path_189043" data-name="Path 189043" d="M82.784,71.233c.534.024,1.236-.148,1.558.126.342.291.095,1.014.1,1.547.016,1.319.005,1.323-1.355,1.317-.645,0-1.5.222-1.877-.1-.43-.373-.12-1.255-.136-1.915-.024-.949-.006-.949.93-.949h.778v-.024" transform="translate(-40.393 -35.515)" fill="#f7f5f6"/>
    <path id="Path_189044" data-name="Path 189044" d="M46.595,56.408c-.556,0-1.284.214-1.62-.058-.357-.289-.1-1.048-.108-1.6-.017-1.272-.006-1.272,1.256-1.272.56,0,1.121.016,1.681-.006.319-.013.46.057.446.418-.029.732-.019,1.466,0,2.2.006.272-.065.387-.358.372-.43-.022-.862-.006-1.293-.006v-.046" transform="translate(-22.338 -26.67)" fill="#f8f6f7"/>
    <path id="Path_189045" data-name="Path 189045" d="M64.645,56.412c-.534,0-1.257.211-1.555-.055-.354-.316-.1-1.052-.11-1.6-.017-1.276-.006-1.276,1.249-1.276.561,0,1.122.016,1.682-.006.316-.013.464.047.449.413-.03.711-.024,1.423,0,2.135.01.323-.059.47-.42.442-.429-.032-.862-.008-1.294-.008v-.042" transform="translate(-31.374 -26.67)" fill="#f8f6f7"/>
    <path id="Path_189046" data-name="Path 189046" d="M46.654,71.233c.534.026,1.237-.144,1.555.131.336.291.092,1.014.1,1.548.015,1.316.005,1.316-1.292,1.316-.562,0-1.124-.015-1.685.006-.314.012-.411-.1-.4-.408q.028-1.1,0-2.2c-.007-.283.082-.38.366-.368.453.02.907.005,1.361.005v-.025" transform="translate(-22.409 -35.516)" fill="#f7f5f6"/>
    <path id="Path_189047" data-name="Path 189047" d="M82.638,56.372c-.433-.056-1.136.237-1.445-.113-.261-.294-.087-.981-.089-1.495-.006-1.369,0-1.381,1.353-1.364.66.009,1.54-.285,1.916.123.327.355.1,1.224.107,1.867.007.981,0,.981-.968.981h-.874" transform="translate(-40.427 -26.589)" fill="#f8f6f7"/>
    <path id="Path_189048" data-name="Path 189048" d="M64.871,71.246c.434.051,1.161-.238,1.445.107.269.326.1,1.026.1,1.562.006,1.3,0,1.3-1.309,1.3-.54,0-1.082-.017-1.621.007-.326.014-.466-.064-.452-.424.027-.712.028-1.427,0-2.14-.015-.359.12-.438.445-.419.431.025.864.006,1.395.006" transform="translate(-31.439 -35.505)" fill="#f8f6f7"/>
    <path id="Path_189049" data-name="Path 189049" d="M62.013,20.767c-1.329-.008-1.133.111-1.138-1.138-.009-2.069,0-2.069-2.045-2.07-1.351,0-1.182.083-1.182-1.178,0-1.279-.14-1.132,1.145-1.136,2.032-.005,2.075-.049,2.083-2.048.006-1.339-.176-1.174,1.161-1.174s1.162-.169,1.167,1.17c.008,2.008.044,2.046,2.076,2.051,1.292,0,1.148-.142,1.157,1.127a3.691,3.691,0,0,0,0,.453c.075.563-.151.791-.726.742a12.3,12.3,0,0,0-1.359,0c-.811.021-1.134.346-1.146,1.146A11.041,11.041,0,0,0,63.214,20c.061.589-.136.858-.748.767a3.176,3.176,0,0,0-.453,0" transform="translate(-28.75 -5.994)" fill="#f27b7b"/>
  </g>
</svg>
