<svg xmlns="http://www.w3.org/2000/svg" xmlns:xlink="http://www.w3.org/1999/xlink" width="99" height="99" viewBox="0 0 99 99">
  <defs>
    <clipPath id="clip-path">
      <rect id="Rectangle_47354" data-name="Rectangle 47354" width="70.339" height="62.689" fill="none"/>
    </clipPath>
  </defs>
  <g id="_28" data-name="28" transform="translate(6691 6517)">
    <rect id="Rectangle_46153" data-name="Rectangle 46153" width="99" height="99" rx="13" transform="translate(-6691 -6517)" fill="#fc5f65"/>
    <g id="Group_176347" data-name="Group 176347" transform="translate(-6677 -6498)">
      <g id="Group_176346" data-name="Group 176346" clip-path="url(#clip-path)">
        <path id="Path_189050" data-name="Path 189050" d="M19.956,71.767a1.056,1.056,0,0,1-1.276.67c-4.4-.935-8.671-.265-12.894,1.026-.588.18-1.181.355-1.783.478A3.255,3.255,0,0,1,.253,72C.191,71.862.2,71.667,0,71.626V70.114c.3-2.3,1.154-4.462,1.58-6.729a20.072,20.072,0,0,0,.131-7.5,27.93,27.93,0,0,1,0-10.429,21.483,21.483,0,0,0-.669-9.772A32.272,32.272,0,0,1,0,31.223V29.986a1.51,1.51,0,0,0,.121-.233,3.262,3.262,0,0,1,4.072-2.291C6.383,28,8.527,28.72,10.76,29.086a20.874,20.874,0,0,0,4.575.225,1.215,1.215,0,0,1,1.439.949c.144.718-.251,1.237-1.089,1.272a28.658,28.658,0,0,1-3.908-.037,42.006,42.006,0,0,1-6.829-1.5,10.555,10.555,0,0,0-1.336-.312c-.954-.125-1.464.392-1.274,1.331.159.784.4,1.552.618,2.321a31.3,31.3,0,0,1,1.5,9.311,33.88,33.88,0,0,1-.506,4.426,21.551,21.551,0,0,0,.027,7.438,24.347,24.347,0,0,1-.26,10.613c-.475,1.7-.921,3.4-1.366,5.109-.274,1.049.324,1.687,1.385,1.444,1.384-.316,2.746-.719,4.118-1.086a25.009,25.009,0,0,1,10.485-.5,3.525,3.525,0,0,1,1.061.271,1.008,1.008,0,0,1,.551,1.406" transform="translate(0 -15.821)"/>
        <path id="Path_189051" data-name="Path 189051" d="M6.424,66.941c.223-1.328.5-2.645.608-3.993A22.944,22.944,0,0,0,6.746,57,24.267,24.267,0,0,1,6.727,48.2a25.022,25.022,0,0,0-.74-11.665c-.333-1.163-.631-2.336-.938-3.507-.344-1.315.4-2.029,1.73-1.686,1.968.5,3.91,1.112,5.907,1.5a24.793,24.793,0,0,0,5.877.356c.7-.032,1-.465,1.084-1.1l2.634-.419a2.617,2.617,0,0,0,2.456.218A55.069,55.069,0,0,1,33.9,30.627c1.945-.115,3.885-.125,5.826-.1a52.5,52.5,0,0,1,11.624,1.361,49.3,49.3,0,0,0,6.2,1.158,6.241,6.241,0,0,0,1.758.093c.529.008.777.231.654.755a10.985,10.985,0,0,1-.5,2.444,1.25,1.25,0,0,1-.912.2c-.663.018-1.329-.037-1.991.03-.6.062-.993.4-.931.807.08.536.5.66.96.7.205.019.412.011.618.011.8,0,1.6-.007,2.4,0,.29,0,.668-.086.818.209s-.151.55-.335.765c-1.117,1.3-2.214,2.623-3.327,3.928a18.332,18.332,0,0,0-1.262,1.538c-.522.766-.278,1.381.628,1.565a19.079,19.079,0,0,0,3.013.1c.335.014.7-.07.978.2a9.188,9.188,0,0,1,.063,3c-.089,1.095-.342,2.168-.475,3.258A24.367,24.367,0,0,0,60.623,62.7c.36,1.205.7,2.417.959,3.65A2.369,2.369,0,0,1,59,69.4a4.29,4.29,0,0,1-1.014-.162c-1.146-.317-2.291-.641-3.444-.935-.32-.081-.7-.114-.787-.547.028-.42.342-.688.552-1.008a7.6,7.6,0,0,0,1.422-4.438,3.935,3.935,0,0,0-1.372-3.03,1.526,1.526,0,0,1-.557-1.262c.008-1.878,0-3.755,0-5.633A11.354,11.354,0,0,0,42.372,40.944H33.854a11.427,11.427,0,0,0-11.364,9.691,6.084,6.084,0,0,0-.051.959c0,2.084-.005,4.167,0,6.251a1.485,1.485,0,0,1-.525,1.279,4.119,4.119,0,0,0-1.484,4.186c.4,2.322,1.4,4.313,3.689,5.371a.708.708,0,0,1,.457.883c-.168.418-.529.376-.87.355a60.127,60.127,0,0,1-11.7-1.781,20.906,20.906,0,0,0-4.878-.671c-.317-.007-.821.114-.71-.525" transform="translate(-2.873 -17.655)" fill="#e4ebf0"/>
        <path id="Path_189052" data-name="Path 189052" d="M78.437,30.664a50.524,50.524,0,0,1-7.673-1.427,62.473,62.473,0,0,0-15.17-1.005,50.818,50.818,0,0,0-10.915,1.553,1.174,1.174,0,0,1-1.528-.664c.021-.858.25-1.151,1.056-1.35a64.606,64.606,0,0,1,20.385-1.446,58.739,58.739,0,0,1,9.928,1.667,22.444,22.444,0,0,0,11.931-.323c1.183-.347,2.374-.672,3.573-.957a3.248,3.248,0,0,1,3.963,3.937c-.51,2.155-1.168,4.276-1.634,6.44a21.141,21.141,0,0,0-.067,8.32,23.842,23.842,0,0,1,.032,8.808,23.985,23.985,0,0,0,.743,11.523q.5,1.673.9,3.374a3.268,3.268,0,0,1-4.123,4.043c-2.1-.528-4.166-1.221-6.312-1.575a22.811,22.811,0,0,0-9.326.41c-1.418.354-2.85.648-4.282.945a1.1,1.1,0,0,0-.64.337,13.955,13.955,0,0,1-21.637-1.33.535.535,0,0,0-.1-.086,8.976,8.976,0,0,1-2.208-4.972c.054-.332-.117-.463-.412-.59a7.13,7.13,0,0,1-3.759-7.473,3.734,3.734,0,0,1,1.448-2.331,1.036,1.036,0,0,0,.459-.972c-.006-2.2-.07-4.4.047-6.59a11.5,11.5,0,0,1,11.251-10.72q4.6-.043,9.2,0a11.557,11.557,0,0,1,11.3,11.268c.03,2.06.005,4.12.013,6.18,0,.238-.078.493.181.687,1.838,1.385,2,3.255,1.508,5.3a8.461,8.461,0,0,1-1.846,3.472,1.842,1.842,0,0,1-1.059,1.021,1.7,1.7,0,0,0-.953,1.251,14.138,14.138,0,0,1-1.023,2.81,1.681,1.681,0,0,0,.839-.119A28.032,28.032,0,0,1,80.6,69.045a26.9,26.9,0,0,1,6.621,1.081c.948.266,1.9.51,2.853.762,1.4.37,1.964-.227,1.614-1.621-.606-2.418-1.4-4.79-1.765-7.27a23.817,23.817,0,0,1,.163-7.99A23.469,23.469,0,0,0,90,45.341a24.274,24.274,0,0,1,.659-10.868c.368-1.347.729-2.7,1.076-4.049.274-1.071-.271-1.657-1.372-1.442-1.259.246-2.489.617-3.723.962a22.48,22.48,0,0,1-4.654.847c-1.176.073-2.364-.1-3.548-.126" transform="translate(-23.742 -15.101)"/>
        <path id="Path_189053" data-name="Path 189053" d="M24.449,119.438a17.034,17.034,0,0,0,2.208,4.972l-3.842-.81c.039-.936-.188-1.2-1.118-1.387a26.091,26.091,0,0,0-12.8.891c-.764.233-1.537.44-2.314.623a1.232,1.232,0,0,1-1.576-1.643c.457-1.717.932-3.429,1.4-5.143.035.3.245.339.5.335a28.753,28.753,0,0,1,7.055,1.11,56.088,56.088,0,0,0,7.057,1.12,16.474,16.474,0,0,1,2.718.221c.242.067.623.165.712-.29" transform="translate(-2.859 -67.654)" fill="#d5e3e9"/>
        <path id="Path_189054" data-name="Path 189054" d="M136.187,15.176c1.079,0,1.986.005,2.893,0,.507,0,.945.095.955.711s-.4.752-.92.751c-1.487,0-2.973,0-4.46,0-.376,0-.757-.028-.933-.429a.981.981,0,0,1,.282-1.12c1.115-1.206,2.227-2.414,3.441-3.731-.9,0-1.687-.011-2.471,0-.536.009-1-.1-1.012-.736s.474-.755,1-.754q1.99,0,3.979,0c.407,0,.783.04.966.481a.938.938,0,0,1-.287,1.053c-1.106,1.217-2.214,2.434-3.436,3.777" transform="translate(-77.317 -5.707)"/>
        <path id="Path_189055" data-name="Path 189055" d="M119.035,1.1h-1.928c-.394,0-.691-.145-.673-.587.016-.407.313-.514.672-.513q1.509,0,3.018,0c.3,0,.6-.016.749.335a.7.7,0,0,1-.214.8c-.81.9-1.627,1.789-2.568,2.822.788,0,1.429,0,2.07,0,.37,0,.784-.026.805.5.022.558-.392.593-.8.6-1.052,0-2.1,0-3.156,0-.305,0-.6-.021-.752-.351a.741.741,0,0,1,.242-.86l2.536-2.75" transform="translate(-67.223 0)" fill="#010101"/>
        <path id="Path_189056" data-name="Path 189056" d="M119.925,34.241c4.027.283,7.84-.78,11.655-1.841,1.491-.415,2.194.305,1.8,1.812-.552,2.121-1.219,4.214-1.622,6.371a23.189,23.189,0,0,0-.039,8.53,23.733,23.733,0,0,1,.012,8.737,24.968,24.968,0,0,0,.765,11.73c.325,1.118.608,2.248.9,3.375.366,1.4-.367,2.1-1.787,1.733-1.878-.487-3.732-1.073-5.639-1.446a25.372,25.372,0,0,0-11.879.607c-.411.115-.834.191-1.345.306a14.437,14.437,0,0,0,1.423-3.934.477.477,0,0,1,.343-.388,5.91,5.91,0,0,0,1.69-1.141c.014.321.3.327.5.382,1.361.375,2.722.753,4.093,1.089a2.26,2.26,0,0,0,3.035-1.828,2.648,2.648,0,0,0-.156-1.195c-.486-2.155-1.213-4.249-1.624-6.422a22.068,22.068,0,0,1-.222-6.6,35.884,35.884,0,0,0,.57-6.726c.3-.244.655-.151.99-.167a6.731,6.731,0,0,0,1.638-.1c.4-.119.742-.314.692-.8s-.413-.628-.836-.638c-1.121-.028-2.243,0-3.364-.017-.373-.008-.873.157-1.063-.26-.175-.386.27-.639.494-.907,1.362-1.635,2.74-3.256,4.106-4.888.088-.105.184-.2.263-.317.268-.381.535-.773.287-1.261-.239-.468-.694-.464-1.135-.468-.664,0-1.328.006-1.991-.005-.268,0-.558.045-.77-.194.138-.847.26-1.7.421-2.541.082-.426-.091-.47-.458-.477a4.41,4.41,0,0,1-1.747-.108" transform="translate(-65.23 -18.677)" fill="#d5e3e9"/>
        <path id="Path_189057" data-name="Path 189057" d="M128.031,44.345q1.406.014,2.812.028c.507,0,1.048-.031,1.294.543a1.369,1.369,0,0,1-.365,1.506q-2.287,2.694-4.554,5.407c-.138.165-.353.291-.364.6h3.557c.274,0,.55-.007.824.011.677.044,1.058.381,1.063.922s-.359.9-1.044.947c-.593.04-1.189.011-1.784.021-.25,0-.5.026-.75.04-1.14-.014-2.281-.02-3.421-.046-.562-.012-1.2.078-1.5-.564-.312-.66.034-1.171.456-1.666,1.615-1.89,3.216-3.792,4.925-5.811-1.248,0-2.372,0-3.5,0a3.886,3.886,0,0,1-.818-.038.9.9,0,0,1-.8-.885.873.873,0,0,1,.761-.914,10.28,10.28,0,0,1,1.979-.072c.41-.018.82-.02,1.231-.03" transform="translate(-71.552 -25.655)"/>
        <path id="Path_189058" data-name="Path 189058" d="M68.06,77.292a1.107,1.107,0,0,0,.848.988c1.287.139,1.523.343,1.558,1.691.06,2.311.024,4.625.013,6.937a.9.9,0,0,1-.25.754,2,2,0,0,0-1.444,1.013,1.276,1.276,0,0,1-2.147.072,4.766,4.766,0,0,0-.493-.657.719.719,0,0,0-.816-.188.8.8,0,0,0-.5.687,1.565,1.565,0,0,0,.33,1.092,3.05,3.05,0,0,0,4.14.872,2.988,2.988,0,0,1,.88-.518c.27.109.254.357.268.58a13.328,13.328,0,0,1-8.987,13.834,4.7,4.7,0,0,1-2.611.341,11.522,11.522,0,0,1-7.3-5.485,10.884,10.884,0,0,1-1.491-4.232,1.135,1.135,0,0,0-1.151-1.126A2,2,0,0,1,47.6,93.28a5.5,5.5,0,0,1-1.638-3.389c-.195-1.8.667-2.8,2.5-2.96,1.3-.116,1.468-.3,1.468-1.594,0-1.167,0-2.334,0-3.5a3.271,3.271,0,0,1,3.595-3.563q5.148-.008,10.3,0c.643,0,1.128-.164,1.257-.873.052-.075.105-.177.187-.191a4.939,4.939,0,0,1,2.8.08" transform="translate(-26.574 -44.576)" fill="#fecabd"/>
        <path id="Path_189059" data-name="Path 189059" d="M70.812,67.249a12.034,12.034,0,0,0-2.984.113c-.056-.851-.386-1.186-1.242-1.188-3.568-.006-7.137-.056-10.7.02a5.143,5.143,0,0,0-4.9,3.36c-.079.183-.072.41-.256.545a9.546,9.546,0,0,1,7.825-10.272,12.2,12.2,0,0,1,2.185-.135q4.288.016,8.575.024a7.613,7.613,0,0,1,2.841,1.97A10.379,10.379,0,0,1,74.6,65.6c.146.44.143.441-.079.705a13.341,13.341,0,0,0-2.46-.133c-.784.029-1.078.287-1.249,1.077" transform="translate(-29.327 -34.532)" fill="#a54c31"/>
        <path id="Path_189060" data-name="Path 189060" d="M76.585,106.451a11.761,11.761,0,0,0,6.853-2.952,13.309,13.309,0,0,0,4.467-11.764c-.145-.2.039-.332.118-.478.5-.92.476-1.087-.247-1.8a.183.183,0,0,1-.048-.184c.329-.054.278-.309.278-.532,0-2.378.008-4.757-.009-7.135a5.8,5.8,0,0,0-.2-1,.579.579,0,0,0-.713-.549.464.464,0,0,1-.447-.111,10.874,10.874,0,0,1,2.191.07,3.14,3.14,0,0,1,2.644,3.061c.042,1.373.011,2.748.018,4.122.005,1.028.255,1.3,1.259,1.4,2.031.194,2.9,1.405,2.458,3.413a5.793,5.793,0,0,1-1.505,2.878,1.97,1.97,0,0,1-1.157.693c-.82.084-1.095.575-1.226,1.315a11.6,11.6,0,0,1-6.978,8.976,10.924,10.924,0,0,1-7.759.586" transform="translate(-44.307 -46.237)" fill="#fcac9c"/>
        <path id="Path_189061" data-name="Path 189061" d="M100.087,66.338a4.565,4.565,0,0,0-.791-2.251,10.325,10.325,0,0,0-4.231-4.141c-.075-.038-.123-.13-.183-.2a9.212,9.212,0,0,1,7.826,4.776A8.485,8.485,0,0,1,103.9,69.9a5.58,5.58,0,0,0-3.815-3.559" transform="translate(-54.892 -34.567)" fill="#893e25"/>
        <path id="Path_189062" data-name="Path 189062" d="M77.953,119.254a5.488,5.488,0,0,1,3.484,1.218,1.014,1.014,0,0,1,.3,1.492,1.049,1.049,0,0,1-1.521.148,3.767,3.767,0,0,0-4.692-.012A1.049,1.049,0,0,1,74,121.979a1.012,1.012,0,0,1,.269-1.5,5.51,5.51,0,0,1,3.688-1.226" transform="translate(-42.679 -68.992)"/>
        <path id="Path_189063" data-name="Path 189063" d="M95.608,102.1c.873.484,1.019.944.565,1.83-.113.22-.257.424-.387.636a3.247,3.247,0,0,1-5.034-.126,2.539,2.539,0,0,1-.514-1.034.963.963,0,0,1,.628-1.213.939.939,0,0,1,1.26.513,1.611,1.611,0,0,0,.675.826,1.132,1.132,0,0,0,1.578-.639,1.207,1.207,0,0,1,1.229-.794" transform="translate(-52.188 -59.068)"/>
        <path id="Path_189064" data-name="Path 189064" d="M65.559,105.7a3.2,3.2,0,0,1-2.962-1.948,1.072,1.072,0,0,1,.435-1.522c.563-.269,1.082-.044,1.418.649a1.179,1.179,0,0,0,2.208,0c.333-.693.86-.915,1.422-.644a1.074,1.074,0,0,1,.443,1.52,3.2,3.2,0,0,1-2.965,1.948" transform="translate(-36.135 -59.082)"/>
      </g>
    </g>
  </g>
</svg>
