<svg xmlns="http://www.w3.org/2000/svg" xmlns:xlink="http://www.w3.org/1999/xlink" width="99" height="99" viewBox="0 0 99 99">
  <defs>
    <clipPath id="clip-path">
      <rect id="Rectangle_47355" data-name="Rectangle 47355" width="73.443" height="73.374" fill="none"/>
    </clipPath>
  </defs>
  <g id="_30" data-name="30" transform="translate(7969 6619)">
    <rect id="Rectangle_46156" data-name="Rectangle 46156" width="99" height="99" rx="13" transform="translate(-7969 -6619)" fill="#fc5f65"/>
    <g id="Group_176350" data-name="Group 176350" transform="translate(-7956 -6606)">
      <g id="Group_176349" data-name="Group 176349" transform="translate(0 0)" clip-path="url(#clip-path)">
        <path id="Path_189065" data-name="Path 189065" d="M0,69.283V4.008A4.587,4.587,0,0,1,4.007,0H53.672c2.871.5,4.358,2.278,4.359,5.24q0,9.7,0,19.4a2.066,2.066,0,0,0,.057.771c.322-.058.453-.307.631-.482,1.844-1.834,3.674-3.681,5.52-5.512A5.4,5.4,0,0,1,72.49,26.3a9.636,9.636,0,0,1-1.213,1.407q-6.227,6.221-12.458,12.438a2.526,2.526,0,0,0-.8,1.958q.031,13.061.014,26.123a5.125,5.125,0,0,1-2.32,4.43,4.385,4.385,0,0,1-2.645.7q-13.095-.005-26.19,0c-7.371,0-14.741-.019-22.111.014A4.833,4.833,0,0,1,.532,71.036,4.954,4.954,0,0,1,0,69.283" transform="translate(0 0)"/>
        <path id="Path_189066" data-name="Path 189066" d="M27.811,69.3c-.239-1.084-.662-1.428-1.783-1.428-4.531,0-9.063-.012-13.594.014-.572,0-.686-.159-.686-.7q.022-27.369,0-54.74c0-.545.115-.711.688-.7,2.289.036,4.579.024,6.868.007.42,0,.6.052.634.555a4.359,4.359,0,0,0,4.208,4.013q7.94.064,15.882,0A4.367,4.367,0,0,0,44.234,12.3c.034-.423.119-.558.564-.554q3.541.036,7.083,0c.463-.006.536.14.536.561q-.019,12.523,0,25.045a1.006,1.006,0,0,1-.386.861,8.227,8.227,0,0,0-2.321,3.361c-1.08,2.563-2.236,5.093-3.378,7.629a1.556,1.556,0,0,0,.153,1.915,1.523,1.523,0,0,0,1.908.174c1.307-.607,2.634-1.173,4.016-1.784v1.507c0,5.414-.007,10.829.012,16.243,0,.492-.105.63-.616.628-4.555-.023-9.109-.014-13.665-.012-1.123,0-1.547.346-1.782,1.428a5.224,5.224,0,0,1-2.677.149c-.31-.107-.362-.411-.488-.655a1.22,1.22,0,0,0-2.2-.018c-.128.244-.178.548-.484.666a5.151,5.151,0,0,1-2.693-.142" transform="translate(-3.173 -3.173)" fill="#fefefe"/>
        <path id="Path_189067" data-name="Path 189067" d="M31.423,67.186h2.82a1.51,1.51,0,0,0,1.782,1.433q7.656,0,15.312,0c1.322,0,1.819-.493,1.819-1.807,0-6.655.009-13.311-.013-19.965a.908.908,0,0,1,.681-1.046c.731-.256,1.422-.623,2.2-.972V45.6q0,11.7,0,23.4c0,1.753-.723,2.484-2.461,2.484H6.406c-1.754,0-2.485-.723-2.485-2.46q0-31.308,0-62.616c0-1.758.72-2.488,2.455-2.488,3.577,0,7.155.014,10.733-.015.58-.005.746.167.687.715-.075.7.3,1.647-.154,2.048-.391.348-1.314.111-2,.113-2.361.005-4.723,0-7.084,0-1.279,0-1.772.5-1.772,1.78q0,29.126,0,58.251c0,1.314.5,1.807,1.819,1.807q7.656,0,15.312,0A1.51,1.51,0,0,0,25.7,67.186h2.82c.206.116.245.342.34.527a1.233,1.233,0,0,0,2.225,0c.095-.186.135-.412.34-.528" transform="translate(-1.059 -1.054)" fill="#79b1fe"/>
        <path id="Path_189068" data-name="Path 189068" d="M36.158,3.919c2.884,0,5.767.012,8.65-.011.5,0,.7.07.682.642-.045,1.667-.009,3.336-.018,5a1.618,1.618,0,0,1-1.811,1.807q-7.506.008-15.013,0a1.617,1.617,0,0,1-1.807-1.81c-.009-1.692.02-3.385-.016-5.076-.01-.508.183-.566.612-.563,2.907.015,5.814.008,8.722.008" transform="translate(-7.245 -1.055)" fill="#bcd8fe"/>
        <path id="Path_189069" data-name="Path 189069" d="M67.3,32.89V8.935c0-1.785-.361-2.153-2.117-2.153-2.766,0-5.532-.009-8.3.01-.453,0-.637-.1-.6-.584a16.607,16.607,0,0,0,0-1.788c-.012-.341.045-.511.455-.509,3.815.016,7.63,0,11.446.02a1.972,1.972,0,0,1,1.969,1.956c.01.191.005.382.005.572q0,11.411.012,22.823a1.541,1.541,0,0,1-.526,1.239C68.887,31.24,68.171,32,67.3,32.89" transform="translate(-15.2 -1.056)" fill="#79b1fe"/>
        <path id="Path_189070" data-name="Path 189070" d="M85.624,36.792c-.112.12-.206.226-.306.326Q79.2,43.234,73.094,49.356c-.268.269-.422.266-.681,0-.878-.907-1.776-1.8-2.677-2.68-.215-.212-.307-.335-.033-.607q6.156-6.125,12.289-12.274c.161-.161.289-.394.568-.109.95.97,1.919,1.923,2.879,2.884.063.063.114.139.185.226" transform="translate(-18.78 -9.061)" fill="#fec05a"/>
        <path id="Path_189071" data-name="Path 189071" d="M94.7,30.516a3.3,3.3,0,0,1-1.358,2.751c-.192.183-.3,0-.407-.109q-1.419-1.408-2.829-2.825c-.095-.095-.2-.164-.118-.354a2.707,2.707,0,0,1,3.471-1.122A2.212,2.212,0,0,1,94.7,30.516" transform="translate(-24.296 -7.726)" fill="#fe6876"/>
        <path id="Path_189072" data-name="Path 189072" d="M64.6,58.888c.635-1.425,1.208-2.7,1.764-3.973.141-.323.276-.246.461-.058.605.609,1.209,1.22,1.823,1.82.208.2.226.328-.067.456-1.277.556-2.549,1.123-3.982,1.755" transform="translate(-17.448 -14.772)" fill="#97a0b2"/>
        <path id="Path_189073" data-name="Path 189073" d="M23.3,23.533c1.43,0,2.86,0,4.29,0,1.136,0,1.684.533,1.686,1.646q.01,4.362,0,8.724c0,1.119-.545,1.649-1.682,1.651q-4.325.009-8.651,0c-1.164,0-1.685-.534-1.686-1.718q-.007-4.29,0-8.581c0-1.217.516-1.72,1.753-1.723,1.43,0,2.86,0,4.29,0" transform="translate(-4.66 -6.356)"/>
        <path id="Path_189074" data-name="Path 189074" d="M29.277,51.152c0,1.43.005,2.861,0,4.29-.005,1.136-.535,1.683-1.647,1.685q-4.362.01-8.722,0c-1.116,0-1.647-.548-1.65-1.683q-.008-4.326,0-8.652c0-1.164.533-1.683,1.718-1.685q4.29-.005,8.579,0c1.217,0,1.719.517,1.723,1.755,0,1.43,0,2.861,0,4.29" transform="translate(-4.66 -12.182)"/>
        <path id="Path_189075" data-name="Path 189075" d="M17.255,72.617c0-1.43-.007-2.861,0-4.29a1.449,1.449,0,0,1,1.614-1.645q4.4-.012,8.794,0a1.447,1.447,0,0,1,1.61,1.648q.01,4.362,0,8.724c0,1.115-.548,1.645-1.685,1.647q-4.326.008-8.651,0c-1.161,0-1.679-.536-1.683-1.722-.005-1.454,0-2.908,0-4.362" transform="translate(-4.66 -18.008)"/>
        <path id="Path_189076" data-name="Path 189076" d="M44.5,68.537a1.609,1.609,0,0,1,1.136.553c.583.6,1.187,1.172,1.761,1.776.236.249.39.249.628,0,.572-.607,1.166-1.192,1.764-1.773A1.441,1.441,0,1,1,51.82,71.1c-.545.566-1.093,1.131-1.671,1.664-.326.3-.4.5-.02.834.605.536,1.163,1.127,1.723,1.712a1.433,1.433,0,0,1,.112,2.1,1.45,1.45,0,0,1-2.154-.1c-.582-.563-1.168-1.126-1.712-1.725-.307-.339-.489-.307-.782.013-.547.6-1.131,1.16-1.715,1.72A1.436,1.436,0,1,1,43.577,75.3c.563-.583,1.119-1.176,1.726-1.709.393-.345.273-.542-.036-.834-.623-.588-1.227-1.2-1.817-1.82a1.36,1.36,0,0,1-.252-1.589,1.385,1.385,0,0,1,1.305-.815" transform="translate(-11.627 -18.511)"/>
        <path id="Path_189077" data-name="Path 189077" d="M53.381,26.811a1.741,1.741,0,0,1-.542,1.138c-2.077,2.072-4.143,4.153-6.226,6.219a1.442,1.442,0,0,1-2.257,0q-1.482-1.452-2.936-2.932a1.441,1.441,0,1,1,2.023-2.022c.566.547,1.141,1.088,1.663,1.675.314.353.483.274.773-.02,1.639-1.666,3.3-3.309,4.95-4.966a1.446,1.446,0,0,1,1.693-.388,1.427,1.427,0,0,1,.861,1.293" transform="translate(-11.037 -6.858)"/>
        <path id="Path_189078" data-name="Path 189078" d="M53.381,48.379a1.7,1.7,0,0,1-.5,1.1c-2.109,2.107-4.209,4.223-6.329,6.318a1.412,1.412,0,0,1-2.154-.011q-1.537-1.5-3.036-3.035a1.433,1.433,0,1,1,2.036-2c.553.527,1.107,1.055,1.614,1.623.341.383.539.423.929.02,1.607-1.663,3.261-3.282,4.893-4.92a1.455,1.455,0,0,1,1.562-.427,1.382,1.382,0,0,1,.943,1.074c.022.092.031.188.042.259" transform="translate(-11.036 -12.686)"/>
        <path id="Path_189079" data-name="Path 189079" d="M40.524,90.075c-.215.968-.716,1.45-1.488,1.43-.747-.02-1.208-.485-1.417-1.43.207-.938.672-1.407,1.417-1.426.774-.02,1.273.458,1.488,1.426" transform="translate(-10.16 -23.943)" fill="#010101"/>
        <path id="Path_189080" data-name="Path 189080" d="M24.324,33.753c-.9,0-1.809-.014-2.713.007-.342.007-.447-.1-.444-.442q.023-2.714,0-5.428c0-.341.1-.446.442-.443q2.713.022,5.427,0c.341,0,.446.1.443.441q-.023,2.714,0,5.428c0,.341-.1.452-.442.444-.9-.021-1.809-.007-2.713-.007" transform="translate(-5.717 -7.413)" fill="#cae458"/>
        <path id="Path_189081" data-name="Path 189081" d="M24.251,55.325c-.881,0-1.762-.015-2.642.007-.343.008-.444-.1-.442-.443q.023-2.714,0-5.428c0-.343.1-.445.443-.442q2.713.022,5.427,0c.343,0,.445.1.442.442q-.022,2.714,0,5.428c0,.343-.1.449-.443.442-.928-.021-1.856-.007-2.785-.007" transform="translate(-5.717 -13.24)" fill="#cae458"/>
        <path id="Path_189082" data-name="Path 189082" d="M27.472,73.762c0,.88-.012,1.761.007,2.642.007.343-.05.508-.457.5-1.808-.021-3.616-.018-5.425,0-.36,0-.431-.134-.428-.458.012-1.809.015-3.617,0-5.425,0-.361.134-.431.458-.428q2.712.019,5.425,0c.361,0,.435.133.428.457-.018.9-.006,1.809-.006,2.713" transform="translate(-5.717 -19.066)" fill="#fe6977"/>
      </g>
    </g>
  </g>
</svg>
