<svg id="_33" data-name="33" xmlns="http://www.w3.org/2000/svg" xmlns:xlink="http://www.w3.org/1999/xlink" width="295" height="240.367" viewBox="0 0 295 240.367">
  <defs>
    <clipPath id="clip-path">
      <rect id="Rectangle_47358" data-name="Rectangle 47358" width="295" height="240.367" fill="none"/>
    </clipPath>
    <clipPath id="clip-path-2">
      <path id="Path_189155" data-name="Path 189155" d="M96.231,176.2l1.653,6.2s33.713-13.833,40.269-20.42c3.233-3.249,2.2-4.207,2.2-4.207Z" transform="translate(-96.231 -157.778)" fill="none"/>
    </clipPath>
    <clipPath id="clip-path-4">
      <path id="Path_189158" data-name="Path 189158" d="M100.717,173.489l3.728,3s28.214-11.317,35.3-18.037c3.494-3.313,2.42-4.263,2.42-4.263Z" transform="translate(-100.717 -154.186)" fill="none"/>
    </clipPath>
    <clipPath id="clip-path-6">
      <path id="Path_189163" data-name="Path 189163" d="M134.058,147.473,90.707,170.284l3.114,4.123s34.821-15.012,41.908-21.732c3.494-3.313,2.42-4.263,2.42-4.263a3.2,3.2,0,0,0-2.617-1.294,3.162,3.162,0,0,0-1.474.355" transform="translate(-90.707 -147.118)" fill="none"/>
    </clipPath>
    <clipPath id="clip-path-7">
      <path id="Path_189166" data-name="Path 189166" d="M139.61,149.791,96.26,172.6l3.114,4.123s34.82-15.012,41.906-21.732c3.494-3.313,2.421-4.263,2.421-4.263a3.2,3.2,0,0,0-2.617-1.294,3.158,3.158,0,0,0-1.473.355" transform="translate(-96.26 -149.436)" fill="none"/>
    </clipPath>
    <clipPath id="clip-path-8">
      <path id="Path_189168" data-name="Path 189168" d="M101.653,176.41l-3.707,6s33.713-13.833,40.269-20.42c3.233-3.249,2.2-4.207,2.2-4.207Z" transform="translate(-97.946 -157.778)" fill="none"/>
    </clipPath>
    <clipPath id="clip-path-10">
      <path id="Path_189189" data-name="Path 189189" d="M118.964,33.378s-.233,13.81,14.8,10.5c0,0,.252-11.016-10.445-11.017a20.309,20.309,0,0,0-4.356.517" transform="translate(-118.964 -32.861)" fill="none"/>
    </clipPath>
    <clipPath id="clip-path-11">
      <path id="Path_189191" data-name="Path 189191" d="M146.466,44.012c10.828,7.932,16.153-5.44,16.153-5.44A11.318,11.318,0,0,0,156.5,36.55c-6.548,0-10.035,7.462-10.035,7.462" transform="translate(-146.466 -36.55)" fill="none"/>
    </clipPath>
  </defs>
  <g id="Group_176355" data-name="Group 176355">
    <g id="Group_176354" data-name="Group 176354" clip-path="url(#clip-path)">
      <path id="Path_189124" data-name="Path 189124" d="M16.643,4.414H281.668a9.637,9.637,0,0,1,9.637,9.637V230.89a9.637,9.637,0,0,1-9.637,9.637H16.643a9.637,9.637,0,0,1-9.637-9.637V14.051a9.637,9.637,0,0,1,9.637-9.637" transform="translate(-0.254 -0.16)" fill="#a6bbff"/>
      <path id="Path_189125" data-name="Path 189125" d="M113.6,50.925s-8.692-.6-8.692-16.644,6.273-6.579,6.273-6.579Z" transform="translate(-3.805 -0.904)"/>
      <path id="Path_189126" data-name="Path 189126" d="M171.448,44.184c.667-4.536-1.933-8.776-5.806-9.469s-7.554,2.423-8.221,6.959,1.933,8.776,5.806,9.469,7.554-2.423,8.221-6.959" transform="translate(-5.706 -1.256)" fill="#f4947a"/>
      <path id="Path_189127" data-name="Path 189127" d="M159.793,44.825a1.027,1.027,0,0,1-.608-1.856l6.994-5.138a1.028,1.028,0,0,1,1.215,1.658L160.4,44.627a1.024,1.024,0,0,1-.608.2" transform="translate(-5.759 -1.365)"/>
      <path id="Path_189128" data-name="Path 189128" d="M163.808,47.934a1.03,1.03,0,0,1-.879-.493l-2.186-3.6a1.029,1.029,0,0,1,1.759-1.068l2.185,3.6a1.027,1.027,0,0,1-.879,1.561" transform="translate(-5.825 -1.534)"/>
      <rect id="Rectangle_47357" data-name="Rectangle 47357" width="23.474" height="32.863" transform="translate(112.024 52.13)" fill="#f4947a"/>
      <path id="Path_189129" data-name="Path 189129" d="M139.714,70.9c-10.337,3.343-19.069-4.229-23.474-9.215V54.092h23.474Z" transform="translate(-4.216 -1.962)"/>
      <path id="Path_189130" data-name="Path 189130" d="M127.252.81c-7.133-.694-13.35,3.213-13.886,8.727s4.812,10.544,11.944,11.238,13.349-3.212,13.885-8.726S134.385,1.5,127.252.81" transform="translate(-4.111 -0.026)"/>
      <path id="Path_189131" data-name="Path 189131" d="M140.242,243.18V115.92a12.455,12.455,0,0,0-12.456-12.455H43.007A12.455,12.455,0,0,0,30.552,115.92V243.18Z" transform="translate(-1.108 -3.753)" fill="#fff"/>
      <path id="Path_189132" data-name="Path 189132" d="M31.355,243.148V115.889a11.634,11.634,0,0,1,11.621-11.622h84.778a11.634,11.634,0,0,1,11.621,11.622V243.148h1.67V115.889A13.306,13.306,0,0,0,127.754,102.6H42.976a13.306,13.306,0,0,0-13.29,13.291V243.148Z" transform="translate(-1.077 -3.721)" fill="#5774cd"/>
      <path id="Path_189133" data-name="Path 189133" d="M71.752,108.926a.835.835,0,0,1-.817-.669L66.494,86.338a.835.835,0,1,1,1.636-.332l4.442,21.919a.834.834,0,0,1-.82,1" transform="translate(-2.411 -3.095)"/>
      <path id="Path_189134" data-name="Path 189134" d="M64.122,201.384a.835.835,0,0,1-.378-1.579l32.832-16.7-9.711-23.335-59.85,21.647a.834.834,0,1,1-.568-1.568l60.6-21.92a.835.835,0,0,1,1.054.464l10.315,24.784a.833.833,0,0,1-.393,1.065L64.5,201.292a.825.825,0,0,1-.379.092" transform="translate(-0.939 -5.727)"/>
      <path id="Path_189135" data-name="Path 189135" d="M3.475,174.816,58.051,86a17.013,17.013,0,0,1,13.909-8.1l33.628-1.158,22.269-.112,17.227,3.546,34.048,7.382a18.508,18.508,0,0,1,12.8,10.151l44.305,84.1A18.854,18.854,0,1,1,202.674,199l-30.635-61.595-4.082,65.467L63.631,215.1l-.447-17.177-2.3.85L31.968,209.453A23.742,23.742,0,0,1,3.475,174.816m60.71-11.168,3.354-26.573L42.123,170.668Z" transform="translate(0 -2.78)" fill="#fea41a"/>
      <path id="Path_189136" data-name="Path 189136" d="M161.412,39.6c1.448-14.9-8.695-28.083-22.653-29.439s-26.45,9.627-27.9,24.53,8.695,28.083,22.654,29.438,26.449-9.626,27.9-24.529" transform="translate(-4.016 -0.364)" fill="#f4947a"/>
      <path id="Path_189137" data-name="Path 189137" d="M36.908,174.756a.841.841,0,0,1-.328-.066l-6.733-2.867a.835.835,0,1,1,.655-1.535l6.732,2.866a.835.835,0,0,1-.327,1.6" transform="translate(-1.064 -6.174)"/>
      <path id="Path_189138" data-name="Path 189138" d="M133.766,43.878s.317-13.829-14.8-10.5c0,0-.233,13.809,14.8,10.5" transform="translate(-4.315 -1.192)" fill="#fff"/>
      <path id="Path_189139" data-name="Path 189139" d="M146.466,44.012s5.68-12.154,16.152-5.44c0,0-5.324,13.373-16.152,5.44" transform="translate(-5.313 -1.326)" fill="#fff"/>
      <path id="Path_189140" data-name="Path 189140" d="M144,49.4a1.026,1.026,0,0,1-.971-.692l-.651-1.889-1.065,1.613A1.027,1.027,0,1,1,139.6,47.3l2.215-3.353a1.014,1.014,0,0,1,.986-.454,1.027,1.027,0,0,1,.842.684l1.329,3.859a1.029,1.029,0,0,1-.636,1.307A1.055,1.055,0,0,1,144,49.4" transform="translate(-5.057 -1.577)"/>
      <path id="Path_189141" data-name="Path 189141" d="M140.924,59.171a6.884,6.884,0,0,1-1.993-.291,8.856,8.856,0,0,1-5.023-4.483,1.027,1.027,0,0,1,1.867-.859,6.866,6.866,0,0,0,3.759,3.378c1.639.492,3.518.074,5.581-1.222a1.026,1.026,0,1,1,1.091,1.738,9.991,9.991,0,0,1-5.281,1.74" transform="translate(-4.854 -1.92)"/>
      <path id="Path_189142" data-name="Path 189142" d="M136.22,32.969a1.031,1.031,0,0,1-.69-.265,8.96,8.96,0,0,0-8.591-2.2,1.027,1.027,0,0,1-.675-1.94A11.026,11.026,0,0,1,136.91,31.18a1.027,1.027,0,0,1-.69,1.79" transform="translate(-4.555 -1.021)"/>
      <path id="Path_189143" data-name="Path 189143" d="M157.715,33.03a1.034,1.034,0,0,1-.439-.1c-4.461-2.112-7.744-.469-7.877-.4a1.037,1.037,0,0,1-1.384-.436,1.024,1.024,0,0,1,.425-1.383c.173-.094,4.287-2.209,9.714.358a1.027,1.027,0,0,1-.439,1.956" transform="translate(-5.365 -1.081)"/>
      <path id="Path_189144" data-name="Path 189144" d="M126.247,13.485c-3.31-4.185-10.264-4.2-15.531-.038s-6.854,10.935-3.545,15.122,10.264,4.2,15.531.037,6.855-10.935,3.545-15.121" transform="translate(-3.825 -0.375)"/>
      <path id="Path_189145" data-name="Path 189145" d="M144.537,10.662c-4.445-5.621-11.571-7.393-15.915-3.957s-4.264,10.777.181,16.4,11.57,7.393,15.915,3.957,4.264-10.777-.181-16.4" transform="translate(-4.549 -0.18)"/>
      <path id="Path_189146" data-name="Path 189146" d="M157.545,13.218c-6.642-1.551-12.852.727-13.871,5.088s3.541,9.153,10.183,10.705,12.853-.728,13.872-5.088-3.542-9.154-10.184-10.705" transform="translate(-5.206 -0.462)"/>
      <path id="Path_189147" data-name="Path 189147" d="M139.943,14.789c2.431,6.373,7.8,10.244,11.979,8.648s5.605-8.057,3.173-14.43S147.3-1.237,143.116.359s-5.6,8.057-3.173,14.43" transform="translate(-5.033 0)"/>
      <path id="Path_189148" data-name="Path 189148" d="M249.056,201.6V166.032a2.4,2.4,0,0,0-2.4-2.4H219a2.4,2.4,0,0,0-2.4,2.4V201.6a2.4,2.4,0,0,0,2.4,2.4H246.66a2.4,2.4,0,0,0,2.4-2.4" transform="translate(-7.857 -5.935)" fill="#fd521b"/>
      <path id="Path_189149" data-name="Path 189149" d="M123.435,176.864l-.075,0a.836.836,0,0,1-.758-.9l8.87-99.423a.854.854,0,0,1,.9-.757.835.835,0,0,1,.758.9l-8.87,99.422a.834.834,0,0,1-.83.761" transform="translate(-4.447 -2.748)"/>
      <path id="Path_189150" data-name="Path 189150" d="M106.286,162.847s2.2-8.064,8.716-11.773a30.26,30.26,0,0,1,13.433-3.71l-8.067,12.092Z" transform="translate(-3.855 -5.345)" fill="#f4947a"/>
      <path id="Path_189151" data-name="Path 189151" d="M147.869,185.51H111.836c-1.934,0-3.318-1.633-2.753-3.249l21.12-60.478A2.86,2.86,0,0,1,132.956,120h36.034c1.933,0,3.317,1.633,2.753,3.249l-21.12,60.478a2.861,2.861,0,0,1-2.753,1.781" transform="translate(-3.952 -4.353)" fill="#fff"/>
      <path id="Path_189152" data-name="Path 189152" d="M147.845,186.145H111.81a3.636,3.636,0,0,1-2.985-1.469,2.89,2.89,0,0,1-.389-2.657l21.12-60.478a3.5,3.5,0,0,1,3.374-2.221h36.035a3.634,3.634,0,0,1,2.985,1.468,2.888,2.888,0,0,1,.389,2.656L151.22,183.923a3.5,3.5,0,0,1-3.375,2.222M132.93,120.636a2.219,2.219,0,0,0-2.132,1.34l-21.12,60.478a1.57,1.57,0,0,0,.221,1.46,2.323,2.323,0,0,0,1.911.914h36.035a2.221,2.221,0,0,0,2.133-1.34L171.1,123.009a1.568,1.568,0,0,0-.221-1.458,2.319,2.319,0,0,0-1.911-.915Z" transform="translate(-3.927 -4.328)"/>
      <path id="Path_189153" data-name="Path 189153" d="M97.884,182.405s33.713-13.832,40.269-20.42c3.233-3.248,2.2-4.208,2.2-4.208L96.231,176.2Z" transform="translate(-3.49 -5.723)" fill="#f4947a"/>
    </g>
  </g>
  <g id="Group_176357" data-name="Group 176357" transform="translate(92.741 152.055)">
    <g id="Group_176356" data-name="Group 176356" clip-path="url(#clip-path-2)">
      <path id="Path_189154" data-name="Path 189154" d="M141.27,160.449a2.1,2.1,0,0,0,.388-.143,3.518,3.518,0,0,0,1.184-.977,3.056,3.056,0,0,0,.644-1.315.973.973,0,0,0-.377-1.069,1.305,1.305,0,0,0-1.265.046,3.507,3.507,0,0,0-1.184.977c-.775.971-.89,2-.268,2.384a1.118,1.118,0,0,0,.878.1m1.151-3.091a.473.473,0,0,1,.35.013c.117.072.161.28.116.544a2.607,2.607,0,0,1-.546,1.1,2.992,2.992,0,0,1-.99.825.74.74,0,0,1-.618.087c-.24-.149-.191-.864.431-1.644a2.989,2.989,0,0,1,.989-.825,1.473,1.473,0,0,1,.269-.1" transform="translate(-97.818 -157.743)"/>
    </g>
  </g>
  <g id="Group_176359" data-name="Group 176359">
    <g id="Group_176358" data-name="Group 176358" clip-path="url(#clip-path)">
      <path id="Path_189156" data-name="Path 189156" d="M104.445,176.486s28.214-11.318,35.3-18.037c3.494-3.314,2.421-4.263,2.421-4.263l-41.448,19.3Z" transform="translate(-3.653 -5.593)" fill="#f4947a"/>
    </g>
  </g>
  <g id="Group_176361" data-name="Group 176361" transform="translate(97.064 148.593)">
    <g id="Group_176360" data-name="Group 176360" clip-path="url(#clip-path-4)">
      <path id="Path_189157" data-name="Path 189157" d="M142.1,158.161a3.909,3.909,0,0,0,1.513-.791c1.086-.9,1.43-2.065.783-2.657s-2-.351-3.091.548-1.429,2.065-.783,2.657a1.706,1.706,0,0,0,1.578.243m.909-3.183a1.086,1.086,0,0,1,.956.092c.343.314.108,1.176-.779,1.91s-1.889.9-2.232.582-.109-1.176.779-1.91a3.323,3.323,0,0,1,1.276-.674m-2.271,2.762h0Z" transform="translate(-102.149 -154.193)"/>
    </g>
  </g>
  <g id="Group_176363" data-name="Group 176363">
    <g id="Group_176362" data-name="Group 176362" clip-path="url(#clip-path)">
      <path id="Path_189159" data-name="Path 189159" d="M99.374,176.725s34.819-15.012,41.907-21.732c3.494-3.313,2.419-4.263,2.419-4.263a3.268,3.268,0,0,0-4.089-.94L96.259,172.6Z" transform="translate(-3.492 -5.42)" fill="#f4947a"/>
      <path id="Path_189160" data-name="Path 189160" d="M93.821,174.407s34.821-15.012,41.907-21.732c3.494-3.313,2.42-4.263,2.42-4.263a3.268,3.268,0,0,0-4.089-.94L90.707,170.284Z" transform="translate(-3.29 -5.336)" fill="#f4947a"/>
      <path id="Path_189161" data-name="Path 189161" d="M124.895,165.807a.351.351,0,0,0,.065-.024c9.223-4.62,15.134-8.135,17.572-10.446.377-.358.719-.705,1.018-1.034a.245.245,0,0,0-.057-.372.331.331,0,0,0-.425.034c-.29.319-.623.657-.991,1.006-2.4,2.273-8.264,5.756-17.436,10.35a.241.241,0,0,0-.1.36.337.337,0,0,0,.354.125" transform="translate(-4.516 -5.581)"/>
    </g>
  </g>
  <g id="Group_176365" data-name="Group 176365" transform="translate(87.417 141.782)">
    <g id="Group_176364" data-name="Group 176364" clip-path="url(#clip-path-6)">
      <path id="Path_189162" data-name="Path 189162" d="M138.222,151.724a3.723,3.723,0,0,0,1.35-.662c1.124-.864,1.457-2.075.759-2.756s-2.123-.54-3.246.324-1.457,2.074-.759,2.756a1.82,1.82,0,0,0,1.533.407,2.882,2.882,0,0,0,.362-.068m.411-3.25a1.345,1.345,0,0,1,1.254.174c.45.44.119,1.361-.726,2.01a2.994,2.994,0,0,1-1.412.61,1.174,1.174,0,0,1-.977-.226c-.45-.44-.119-1.361.726-2.01a3.162,3.162,0,0,1,1.135-.558m-2.084,2.74h0Z" transform="translate(-92.349 -147.145)"/>
    </g>
  </g>
  <g id="Group_176367" data-name="Group 176367" transform="translate(92.768 144.016)">
    <g id="Group_176366" data-name="Group 176366" clip-path="url(#clip-path-7)">
      <path id="Path_189164" data-name="Path 189164" d="M143.5,154.411a3.726,3.726,0,0,0,1.351-.662c1.123-.864,1.456-2.075.759-2.756a1.816,1.816,0,0,0-1.533-.407,3.618,3.618,0,0,0-1.714.73c-1.123.864-1.456,2.074-.759,2.756a1.822,1.822,0,0,0,1.533.407,3,3,0,0,0,.362-.068m.4-3.248a2.335,2.335,0,0,1,.286-.054,1.171,1.171,0,0,1,.977.226c.451.44.119,1.361-.726,2.009a2.986,2.986,0,0,1-1.412.611,1.172,1.172,0,0,1-.976-.226c-.451-.44-.119-1.362.725-2.01a3.12,3.12,0,0,1,1.126-.556" transform="translate(-97.892 -149.477)"/>
      <path id="Path_189165" data-name="Path 189165" d="M121.851,162.145a.335.335,0,0,0,.067-.025c6.542-3.354,12.949-6.791,15.511-9.222,3.508-3.327,2.618-4.438,2.4-4.627l-.423.363a.079.079,0,0,1-.014-.013c.008.009.734.916-2.423,3.91-2.511,2.382-8.876,5.8-15.38,9.129a.239.239,0,0,0-.094.36.334.334,0,0,0,.351.123" transform="translate(-97.174 -149.394)"/>
    </g>
  </g>
  <g id="Group_176369" data-name="Group 176369" transform="translate(94.393 152.055)">
    <g id="Group_176368" data-name="Group 176368" clip-path="url(#clip-path-8)">
      <path id="Path_189167" data-name="Path 189167" d="M126.424,167.5a.357.357,0,0,0,.064-.023c5.713-2.83,12.969-7.093,15.784-9.764a.241.241,0,0,0-.026-.374.334.334,0,0,0-.428.008c-2.1,1.993-8.15,5.953-15.646,9.667a.241.241,0,0,0-.1.359.336.336,0,0,0,.354.126" transform="translate(-98.965 -157.759)"/>
    </g>
  </g>
  <g id="Group_176371" data-name="Group 176371">
    <g id="Group_176370" data-name="Group 176370" clip-path="url(#clip-path)">
      <path id="Path_189169" data-name="Path 189169" d="M243.867,172.009l10.963.362a3.764,3.764,0,0,1-.534,7.47l-10.9-1.248a3.166,3.166,0,0,1-2.52-3.67,3.1,3.1,0,0,1,2.99-2.914" transform="translate(-8.736 -6.239)" fill="#f4947a"/>
      <path id="Path_189170" data-name="Path 189170" d="M242.05,185.7l13.057,1.289a3.141,3.141,0,0,0,3.194-2.473l.092-.325c.607-2.158-.666-4.359-2.6-4.5l-13.148-.964a3.252,3.252,0,0,0-3.243,3.027,3.33,3.33,0,0,0,2.653,3.947" transform="translate(-8.682 -6.483)" fill="#f4947a"/>
      <path id="Path_189171" data-name="Path 189171" d="M242.071,188.654h0a2.783,2.783,0,0,1,2.814-2.46l8.715.493a2.977,2.977,0,0,1,2.66,2.89l.05.781a2.85,2.85,0,0,1-3.071,3.206l-8.765-1.273a3.091,3.091,0,0,1-2.4-3.637" transform="translate(-8.779 -6.753)" fill="#f4947a"/>
      <path id="Path_189172" data-name="Path 189172" d="M243.615,194.536h0a2.369,2.369,0,0,1,2.307-1.791l7.185.565A2.29,2.29,0,0,1,254.97,196l-.088.883a2.443,2.443,0,0,1-2.658,2.4l-7.1-1.448a2.471,2.471,0,0,1-1.512-3.3" transform="translate(-8.831 -6.991)" fill="#f4947a"/>
      <path id="Path_189173" data-name="Path 189173" d="M244.3,178.678c-.112,0-.224-.006-.336-.016a3.316,3.316,0,0,1-3.023-3.429,2.994,2.994,0,0,1,1.059-2.1,3.235,3.235,0,0,1,2.416-.74,3.315,3.315,0,0,1,3.023,3.429,2.989,2.989,0,0,1-1.058,2.1,3.183,3.183,0,0,1-2.081.757m-.218-4.907a1.8,1.8,0,0,0-1.18.424,1.608,1.608,0,0,0-.57,1.128,1.908,1.908,0,0,0,1.767,1.95,1.821,1.821,0,0,0,1.378-.413,1.6,1.6,0,0,0,.569-1.128,1.907,1.907,0,0,0-1.767-1.95,1.939,1.939,0,0,0-.2-.011" transform="translate(-8.739 -6.252)"/>
      <path id="Path_189174" data-name="Path 189174" d="M243.088,185.388c-.112,0-.224-.006-.336-.016a3.315,3.315,0,0,1-3.023-3.429,2.991,2.991,0,0,1,1.058-2.1,3.222,3.222,0,0,1,2.418-.74,3.315,3.315,0,0,1,3.023,3.429,2.989,2.989,0,0,1-1.058,2.1,3.191,3.191,0,0,1-2.082.757m-.217-4.907a1.809,1.809,0,0,0-1.182.425,1.6,1.6,0,0,0-.569,1.127,1.908,1.908,0,0,0,1.767,1.95,1.837,1.837,0,0,0,1.379-.414,1.6,1.6,0,0,0,.569-1.127,1.908,1.908,0,0,0-1.767-1.95,1.934,1.934,0,0,0-.2-.011" transform="translate(-8.695 -6.496)"/>
      <path id="Path_189175" data-name="Path 189175" d="M245.126,191.877c-.106,0-.213-.006-.319-.015a2.914,2.914,0,0,1-2.75-2.918,2.455,2.455,0,0,1,.876-1.715,3.047,3.047,0,0,1,2.267-.673,2.913,2.913,0,0,1,2.75,2.918,2.453,2.453,0,0,1-.876,1.715,3.016,3.016,0,0,1-1.947.688m-.249-3.942a1.6,1.6,0,0,0-1.041.356,1.061,1.061,0,0,0-.386.742,1.535,1.535,0,0,0,1.493,1.439,1.621,1.621,0,0,0,1.226-.346,1.068,1.068,0,0,0,.388-.742,1.538,1.538,0,0,0-1.5-1.439,1.679,1.679,0,0,0-.184-.01" transform="translate(-8.78 -6.766)"/>
      <path id="Path_189176" data-name="Path 189176" d="M245.794,197.818c-.078,0-.155,0-.234-.011a2.414,2.414,0,0,1-2.166-2.529,2.256,2.256,0,0,1,.794-1.585,2.293,2.293,0,0,1,1.719-.533,2.412,2.412,0,0,1,2.166,2.528,2.259,2.259,0,0,1-.793,1.586,2.287,2.287,0,0,1-1.486.544m-.119-3.274a.893.893,0,0,0-.584.211.871.871,0,0,0-.306.613,1,1,0,0,0,.91,1.05.882.882,0,0,0,.681-.206.867.867,0,0,0,.3-.613,1,1,0,0,0-.91-1.049.634.634,0,0,0-.1-.006" transform="translate(-8.828 -7.006)"/>
      <path id="Path_189177" data-name="Path 189177" d="M242.766,179.25a.384.384,0,0,1-.33-.384.34.34,0,0,1,.387-.312l11.548,1.175a4.213,4.213,0,0,0,1.8-.236.394.394,0,0,1,.5.162.328.328,0,0,1-.141.469,4.889,4.889,0,0,1-2.207.3l-11.544-1.175-.023,0" transform="translate(-8.794 -6.476)"/>
      <path id="Path_189178" data-name="Path 189178" d="M244.388,186.709a.382.382,0,0,1-.329-.39.34.34,0,0,1,.393-.3l6.889.821c.508.06,3.276.245,3.985.237a.39.39,0,0,1,.4.347.334.334,0,0,1-.342.356c-.752.008-3.553-.179-4.086-.242l-6.889-.822-.016,0" transform="translate(-8.852 -6.747)"/>
      <path id="Path_189179" data-name="Path 189179" d="M245.823,193.218a.382.382,0,0,1-.329-.394.342.342,0,0,1,.4-.3c.091.013,2.248.293,2.91.408.7.121,4.9.656,5.6.649a.39.39,0,0,1,.4.348.334.334,0,0,1-.343.355c-.774.009-5.075-.545-5.74-.659-.642-.113-2.855-.4-2.877-.4l-.012,0" transform="translate(-8.905 -6.983)"/>
      <path id="Path_189180" data-name="Path 189180" d="M131.625,76.336,118.6,92.815,103.9,76.448l10.911-8.128Z" transform="translate(-3.769 -2.478)" fill="#fea41a"/>
      <path id="Path_189181" data-name="Path 189181" d="M142.582,70.442l-9.914,5.971,10.8,17.369,9.576-13.224Z" transform="translate(-4.812 -2.555)" fill="#fea41a"/>
      <path id="Path_189182" data-name="Path 189182" d="M98.589,38.289c-.693-4.684,2.008-9.06,6.034-9.775s7.851,2.5,8.543,7.185-2.009,9.06-6.034,9.775-7.851-2.5-8.543-7.185" transform="translate(-3.572 -1.031)" fill="#f4947a"/>
      <path id="Path_189183" data-name="Path 189183" d="M110.906,38.92a1.027,1.027,0,0,1-.606-.2l-7.268-5.3a1.029,1.029,0,0,1,1.212-1.662l7.268,5.3a1.027,1.027,0,0,1-.606,1.857" transform="translate(-3.722 -1.145)"/>
      <path id="Path_189184" data-name="Path 189184" d="M106.921,42.129a1.019,1.019,0,0,1-.536-.15,1.029,1.029,0,0,1-.341-1.413l2.271-3.716a1.027,1.027,0,0,1,1.754,1.071L107.8,41.637a1.028,1.028,0,0,1-.877.492" transform="translate(-3.841 -1.319)"/>
      <path id="Path_189185" data-name="Path 189185" d="M76.673,162.569l11.223,28.9,16.827-7.174L92.784,156.508Z" transform="translate(-2.781 -5.677)" fill="#fea41a"/>
      <path id="Path_189186" data-name="Path 189186" d="M142.393,94.81h-.03a.836.836,0,0,1-.679-.394L131.512,78.057,119.221,93.6a.836.836,0,0,1-1.277.04l-14.7-16.368a.835.835,0,0,1,1.243-1.115l14.034,15.631,12.413-15.7a.836.836,0,0,1,1.365.079l10.142,16.312,8.847-12.216a.835.835,0,0,1,1.354.978l-9.577,13.223a.833.833,0,0,1-.677.346" transform="translate(-3.737 -2.748)"/>
      <path id="Path_189187" data-name="Path 189187" d="M64.323,201.625a.835.835,0,0,1-.328-1.6l37.986-16.2L90.691,157.539l-58.16,21.876a.834.834,0,1,1-.587-1.562l58.9-22.156a.832.832,0,0,1,1.06.452l11.937,27.789a.835.835,0,0,1-.439,1.1L64.651,201.559a.844.844,0,0,1-.328.066" transform="translate(-1.139 -5.645)"/>
    </g>
  </g>
  <g id="Group_176373" data-name="Group 176373" transform="translate(114.649 31.669)">
    <g id="Group_176372" data-name="Group 176372" clip-path="url(#clip-path-10)">
      <path id="Path_189188" data-name="Path 189188" d="M133.224,40.7a6.708,6.708,0,1,1-6.709-6.709,6.708,6.708,0,0,1,6.709,6.709" transform="translate(-118.994 -32.902)"/>
    </g>
  </g>
  <g id="Group_176375" data-name="Group 176375" transform="translate(141.153 35.224)">
    <g id="Group_176374" data-name="Group 176374" clip-path="url(#clip-path-11)">
      <path id="Path_189190" data-name="Path 189190" d="M160.515,43.094a6.421,6.421,0,1,1-6.416-6.709,6.567,6.567,0,0,1,6.416,6.709" transform="translate(-146.51 -36.544)"/>
    </g>
  </g>
  <g id="Group_176377" data-name="Group 176377">
    <g id="Group_176376" data-name="Group 176376" clip-path="url(#clip-path)">
      <path id="Path_189192" data-name="Path 189192" d="M72.891,116.926a.837.837,0,0,1-.827-.729l-3.9-30.473a.835.835,0,1,1,1.657-.212l3.9,30.473a.836.836,0,0,1-.722.934.811.811,0,0,1-.108.007" transform="translate(-2.472 -3.075)"/>
      <path id="Path_189193" data-name="Path 189193" d="M270.267,247.355A31.3,31.3,0,0,0,239.2,218.846l-82.837-.274h-9.508l-.971,28.783Z" transform="translate(-5.292 -7.928)"/>
      <path id="Path_189194" data-name="Path 189194" d="M215.7,247.355a31.3,31.3,0,0,0-31.062-28.509l-82.837-.274H65.911v17.192a31.409,31.409,0,0,0,2.21,11.591Z" transform="translate(-2.391 -7.928)"/>
      <path id="Path_189195" data-name="Path 189195" d="M189.085,219.458a30.654,30.654,0,0,1,30.428,27.884h1.26a31.914,31.914,0,0,0-31.684-29.135h0a.626.626,0,0,0,0,1.252" transform="translate(-6.836 -7.915)" fill="#fff"/>
      <rect id="Rectangle_47362" data-name="Rectangle 47362" width="35.241" height="141.884" transform="translate(255.369 57.169)" fill="#d7e5ff"/>
      <rect id="Rectangle_47363" data-name="Rectangle 47363" width="4.39" height="89.084" transform="translate(290.61 109.97)" fill="#fd521b"/>
      <path id="Path_189196" data-name="Path 189196" d="M304.568,199.783H281.822a.626.626,0,1,1,0-1.252h22.746a.626.626,0,1,1,0,1.252" transform="translate(-10.2 -7.201)" fill="#fff"/>
      <path id="Path_189197" data-name="Path 189197" d="M304.568,194.189H281.822a.626.626,0,1,1,0-1.252h22.746a.626.626,0,1,1,0,1.252" transform="translate(-10.2 -6.998)" fill="#fff"/>
      <path id="Path_189198" data-name="Path 189198" d="M295.305,189.219H272.559a.626.626,0,1,1,0-1.252h22.746a.626.626,0,1,1,0,1.252" transform="translate(-9.864 -6.818)" fill="#fff"/>
      <path id="Path_189199" data-name="Path 189199" d="M295.305,183.625H272.559a.626.626,0,1,1,0-1.252h22.746a.626.626,0,1,1,0,1.252" transform="translate(-9.864 -6.615)" fill="#fff"/>
      <rect id="Rectangle_47364" data-name="Rectangle 47364" width="13.758" height="28.189" transform="translate(55.643 210.564)" fill="#fff"/>
      <path id="Path_189200" data-name="Path 189200" d="M58.541,247.823V219.291H70.63v28.524l1.669.006V218.457a.834.834,0,0,0-.835-.835H57.707a.834.834,0,0,0-.835.835v29.371l1.669,0" transform="translate(-2.063 -7.894)"/>
      <path id="Path_189201" data-name="Path 189201" d="M70.551,226.9l-13.316,9.94V218.489H70.551Z" transform="translate(-2.076 -7.925)"/>
      <rect id="Rectangle_47365" data-name="Rectangle 47365" width="292.131" height="12.874" transform="translate(2.869 197.69)" fill="#fff"/>
      <path id="Path_189202" data-name="Path 189202" d="M295.077,217.139H3.78V205.934h291.3v-1.669H2.946a.834.834,0,0,0-.835.835v12.874a.834.834,0,0,0,.835.835H295.077Z" transform="translate(-0.077 -7.409)"/>
    </g>
  </g>
</svg>
