<svg xmlns="http://www.w3.org/2000/svg" width="295" height="380" viewBox="0 0 295 380">
  <g id="_35" data-name="35" transform="translate(-180 -6756)">
    <rect id="Rectangle_46160" data-name="Rectangle 46160" width="295" height="380" rx="10" transform="translate(180 6756)" fill="#a6bbff"/>
    <g id="Group_176389" data-name="Group 176389" transform="translate(179.999 6770.001)">
      <g id="Group_176390" data-name="Group 176390">
        <path id="Path_189281" data-name="Path 189281" d="M173.751,58.654a367.718,367.718,0,0,0-4.932-39.717,4.728,4.728,0,0,0-.669-1.971,1.751,1.751,0,0,0-1.948-.558c-.166,4.329-.427,8.97-.593,13.3q-1.4-7.246-2.805-14.494a4.577,4.577,0,0,0-.932-2.344,1.863,1.863,0,0,0-2.493.092c.239,5.655.294,11.425.535,17.081l-3.665-15.451a6.011,6.011,0,0,0-1.107-2.654,1.966,1.966,0,0,0-2.558-.38q.957,9.6,1.915,19.194l-3.431-12.462a7.348,7.348,0,0,0-1.051-2.528A2.255,2.255,0,0,0,147.668,15c.517,8.365.941,16.777,1.458,25.143-1.893-1.915-4.145-3.661-6.038-5.576a6.735,6.735,0,0,0-2.47-1.827,2.305,2.305,0,0,0-2.738.81c1.975,4.742,3.921,9.356,5.9,14.1,2.2,5.273,5.216,10.213,9.777,13.651Z" transform="translate(103.982 36.597)" fill="#c14f4f"/>
        <path id="Path_189282" data-name="Path 189282" d="M149.2,40.564a11.054,11.054,0,0,1,12.109,7.443" transform="translate(103.999 36.639)" fill="none" stroke="#000" stroke-linecap="round" stroke-linejoin="round" stroke-width="1"/>
        <path id="Path_189283" data-name="Path 189283" d="M155.089,39.094l9.419.488" transform="translate(104.007 36.637)" fill="none" stroke="#000" stroke-linecap="round" stroke-linejoin="round" stroke-width="1"/>
        <path id="Path_189284" data-name="Path 189284" d="M3.807,139.081S31.162,92.526,47.57,74.5,77.088,54.771,93.106,52.43s53.264,0,53.264,0,17.494,3.11,35.93,6.874,32.345,7.848,52.853,38.349L236.474,62.7l47.36-3.4s5.817,27.259,8.709,67.715c3.75,52.442-53.2,72.053-86.63,36.876l-2.275,13.356-145.116-.942Z" transform="translate(2.28 30.779)" fill="#fff"/>
        <path id="Path_189285" data-name="Path 189285" d="M71.317,55.283a30.293,30.293,0,0,0,54.452.321" transform="translate(42.714 33.111)" fill="none" stroke="#000" stroke-linecap="round" stroke-linejoin="round" stroke-width="1"/>
        <path id="Path_189286" data-name="Path 189286" d="M130.172,142.041l5.248-51.959" transform="translate(77.964 53.953)" fill="none" stroke="#000" stroke-linecap="round" stroke-linejoin="round" stroke-width="1"/>
        <path id="Path_189287" data-name="Path 189287" d="M132.678,98.463q1.832-2.113,3.663-4.224" transform="translate(79.465 56.443)" fill="none" stroke="#000" stroke-linecap="round" stroke-linejoin="round" stroke-width="1"/>
        <path id="Path_189288" data-name="Path 189288" d="M158.925,99.961,148.295,79.5c.448,4.394.293,9.173.739,13.569" transform="translate(88.819 47.615)" fill="none" stroke="#000" stroke-linecap="round" stroke-linejoin="round" stroke-width="1"/>
        <path id="Path_189289" data-name="Path 189289" d="M149.441,65.69l48.521-1.818" transform="translate(89.505 38.255)" fill="none" stroke="#000" stroke-linecap="round" stroke-linejoin="round" stroke-width="1"/>
        <path id="Path_189290" data-name="Path 189290" d="M188.048,170.637l-14.934-.337c-2.6-19.851-5.088-39.521-7.782-59.546l-3.035-.075.913-53.836L150.81,55.2l-.748,55.174q-28.69-.7-57.381-1.409L84.849,51.7h-12.8l8.362,56.972q-11.666-.285-23.335-.572c-2.774,19.76-5.731,39.593-8.6,59.389l-9.229-.208c-1.871,20.191,1.871,140.769,0,160.96l166.678,6.025Z" transform="translate(20.146 30.962)" fill="#7e5eff"/>
        <path id="Path_189291" data-name="Path 189291" d="M106.421,88.23a7.014,7.014,0,0,0,12.732.273" transform="translate(63.739 52.844)" fill="none" stroke="#000" stroke-linecap="round" stroke-linejoin="round" stroke-width="1"/>
        <path id="Path_189292" data-name="Path 189292" d="M121.727,105.192,71.207,103.6c-1.006,5.977,2.17,12.456,6.864,16.293,4.819,3.938,12.125,5.117,18.3,5.889s12.759-.029,17.945-3.473S122.961,111.292,121.727,105.192Z" transform="translate(42.537 62.048)" fill="none" stroke="#000" stroke-linecap="round" stroke-linejoin="round" stroke-width="1"/>
        <path id="Path_189293" data-name="Path 189293" d="M50.849,124.982q56.151.444,112.3.889" transform="translate(30.455 74.856)" fill="none" stroke="#000" stroke-linecap="round" stroke-linejoin="round" stroke-width="1"/>
        <path id="Path_189294" data-name="Path 189294" d="M37.262,133.537l151.525,1.8" transform="translate(22.317 79.98)" fill="none" stroke="#000" stroke-linecap="round" stroke-linejoin="round" stroke-width="1"/>
        <path id="Path_189295" data-name="Path 189295" d="M97.42,134.364c-.571,8.175-1.156,15.65-1.727,23.826a41.685,41.685,0,0,0-9.889.173q-.979-12.146-1.955-24.291" transform="translate(50.219 80.3)" fill="none" stroke="#000" stroke-linecap="round" stroke-linejoin="round" stroke-width="1"/>
        <path id="Path_189296" data-name="Path 189296" d="M100.873,16.58a10.685,10.685,0,0,1,13.615,3.179" transform="translate(60.416 9.199)" fill="none" stroke="#000" stroke-linecap="round" stroke-linejoin="round" stroke-width="1"/>
        <path id="Path_189297" data-name="Path 189297" d="M108.662,25.346a6.521,6.521,0,0,1,5.625,6.245c0,2.24-1.151,4.619-.133,6.615a3.5,3.5,0,0,0,5,1.153" transform="translate(65.081 15.181)" fill="none" stroke="#000" stroke-linecap="round" stroke-linejoin="round" stroke-width="1"/>
        <path id="Path_189298" data-name="Path 189298" d="M87.261,15.4a16.115,16.115,0,0,1,11.931-3.255,15.507,15.507,0,0,1,10.523,6.18,9.185,9.185,0,0,1,8.562,2.067,7.95,7.95,0,0,1,1.909,8.169,3.868,3.868,0,0,1,2.312,4.886c3.217,1.364,5.222,5.192,4.325,8.383-.438,1.557-1.452,3.041-1.258,4.642.3,2.478,3.23,3.831,4.634,5.953a5.42,5.42,0,0,1,.476,5.061,6.044,6.044,0,0,1-4.066,3.375,6.8,6.8,0,0,1-2.442,6.421,7.307,7.307,0,0,1-6.867,1.036,13.135,13.135,0,0,1-10.908,4.148,12.839,12.839,0,0,1-9.744-6.292Z" transform="translate(52.264 7.195)"/>
        <path id="Path_189299" data-name="Path 189299" d="M102.553,26.032a6.02,6.02,0,0,0,8.254,2.9,8.783,8.783,0,0,0,13.078-.217c1.191,2.31,1.273,4.9,1.207,7.5a46.68,46.68,0,0,1-1.062,7.716c-.852,4.375-1.73,8.826-3.833,12.756s-5.655,7.334-10.04,8.143c-.184,1.752-.318,3.678-.5,5.432,3.465.911,6.906,1.8,10.371,2.713-5.085,9.061-16.965,13.671-27.211,11.946A26.1,26.1,0,0,1,72.021,64.342c9.685-12.771,20.847-25.54,30.532-38.31" transform="translate(43.136 15.591)" fill="#c14f4f"/>
        <path id="Path_189300" data-name="Path 189300" d="M91.174,30.309l4.938-.141" transform="translate(54.607 18.069)" fill="none" stroke="#000" stroke-linecap="round" stroke-linejoin="round" stroke-width="1"/>
        <path id="Path_189301" data-name="Path 189301" d="M98.177,37.485a2.984,2.984,0,0,1,5.091.779" transform="translate(58.801 21.791)" fill="none" stroke="#000" stroke-linecap="round" stroke-linejoin="round" stroke-width="1"/>
        <path id="Path_189302" data-name="Path 189302" d="M98.307,33.077a4.756,4.756,0,0,1,7.253-.013" transform="translate(58.879 18.802)" fill="none" stroke="#000" stroke-linecap="round" stroke-linejoin="round" stroke-width="1"/>
        <path id="Path_189303" data-name="Path 189303" d="M95.928,36.077q-.055,3.166-.112,6.332l-2-.246" transform="translate(56.191 21.608)" fill="none" stroke="#000" stroke-linecap="round" stroke-linejoin="round" stroke-width="1"/>
        <path id="Path_189304" data-name="Path 189304" d="M90.6,40.045a3.119,3.119,0,0,0,4.052,2.915" transform="translate(54.263 23.984)" fill="none" stroke="#fff" stroke-linecap="round" stroke-linejoin="round" stroke-width="1"/>
        <path id="Path_189305" data-name="Path 189305" d="M87.87,49.922a19.508,19.508,0,0,0,14.162.831" transform="translate(52.628 29.9)" fill="none" stroke="#000" stroke-linecap="round" stroke-linejoin="round" stroke-width="1"/>
        <path id="Path_189306" data-name="Path 189306" d="M75.11,112.231a2.28,2.28,0,0,1-2.254-1.954L61.2,29.448a2.279,2.279,0,0,1,4.511-.651l11.654,80.829a2.283,2.283,0,0,1-2.257,2.6" transform="translate(30.786 47.882)"/>
        <path id="Path_189307" data-name="Path 189307" d="M126.573,46.119A46.119,46.119,0,1,0,80.455,92.237a46.12,46.12,0,0,0,46.118-46.118" transform="translate(20.564 -0.001)" fill="#ffbe00"/>
        <path id="Path_189308" data-name="Path 189308" d="M56.991,37.813a8.451,8.451,0,1,0-8.452,8.452,8.453,8.453,0,0,0,8.452-8.452" transform="translate(24.011 17.585)" fill="#ff8200"/>
        <path id="Path_189309" data-name="Path 189309" d="M93.817,32.8a8.451,8.451,0,1,0-8.452,8.452A8.453,8.453,0,0,0,93.817,32.8" transform="translate(46.067 14.583)" fill="#ff8200"/>
        <path id="Path_189310" data-name="Path 189310" d="M54.574,27.995a3.2,3.2,0,1,0-3.2,3.2,3.2,3.2,0,0,0,3.2-3.2" transform="translate(28.855 14.852)"/>
        <path id="Path_189311" data-name="Path 189311" d="M79.542,24.783a3.2,3.2,0,1,0-3.2,3.2,3.2,3.2,0,0,0,3.2-3.2" transform="translate(43.81 12.928)"/>
        <path id="Path_189312" data-name="Path 189312" d="M59,27.1a6.471,6.471,0,0,0,12.387-.819" transform="translate(35.339 15.743)" fill="none" stroke="#000" stroke-linecap="round" stroke-linejoin="round" stroke-width="1"/>
        <path id="Path_189313" data-name="Path 189313" d="M45.042,19.3a7.026,7.026,0,0,1,10.711-1.724" transform="translate(26.977 9.476)" fill="none" stroke="#000" stroke-linecap="round" stroke-linejoin="round" stroke-width="1"/>
        <path id="Path_189314" data-name="Path 189314" d="M70.474,15.221a6,6,0,0,1,10.033-.091" transform="translate(42.209 7.468)" fill="none" stroke="#000" stroke-linecap="round" stroke-linejoin="round" stroke-width="1"/>
        <path id="Path_189315" data-name="Path 189315" d="M47.822,172.294c26.1-13.255,38.8-39.61,52.086-65.7C89.957,97.679,89.42,92.757,79.47,83.838L26.99,101.529c-8.836,2.979-16.151,10.1-20.9,18.118A43.983,43.983,0,0,0,.241,146.511a34.106,34.106,0,0,0,4.451,14,30.539,30.539,0,0,0,18.848,13.545c7.715,1.882,17.2,1.837,24.281-1.759" transform="translate(0 50.213)" fill="#fff"/>
        <path id="Path_189316" data-name="Path 189316" d="M74.2,83.817l-46,13.662c-6.674,1.982-13.523,4.47-18.121,9.049" transform="translate(6.034 52.86)" fill="none" stroke="#000" stroke-linecap="round" stroke-linejoin="round" stroke-width="1"/>
        <path id="Path_189317" data-name="Path 189317" d="M13.969,94.216l4.514,1.132" transform="translate(8.366 56.429)" fill="none" stroke="#000" stroke-linecap="round" stroke-linejoin="round" stroke-width="1"/>
        <path id="Path_189318" data-name="Path 189318" d="M42.133,86.163c-1.711,7.817.284,16.76,4.966,22.253s11.833,7.286,17.794,4.459" transform="translate(31.024 52.867)" fill="none" stroke="#000" stroke-linecap="round" stroke-linejoin="round" stroke-width="1"/>
        <path id="Path_189319" data-name="Path 189319" d="M83.935,85.989a3.012,3.012,0,0,0-1.554-2.624,2.993,2.993,0,0,0,.121-4.773,2.969,2.969,0,0,0,1.267-2.261,2.474,2.474,0,0,0-1.037-2.324Q81.366,73.235,80,72.464a6.248,6.248,0,0,0,.473-1.972,2.373,2.373,0,0,0-3.641-2.361,7.066,7.066,0,0,0-1.857,1.494L70.857,67.3c-5.47.392-10.564,3.472-14.37,7.421s-6.519,8.81-8.963,13.72c-2.607,5.239.428,12.445,5,16.1a15.555,15.555,0,0,0,16.8,1.188c1.953-3.48,3.816-7.074,5.769-10.554l4.732-2.082a6.048,6.048,0,0,0,2.517-1.661c.615-.81.8-2.268.021-2.921a2.87,2.87,0,0,0,1.571-2.52" transform="translate(28.749 53.52)" fill="#c14f4f"/>
        <path id="Path_189320" data-name="Path 189320" d="M71.468,69.053l5.464,3.174.077-.042" transform="translate(32.22 53.764)" fill="none" stroke="#000" stroke-linecap="round" stroke-linejoin="round" stroke-width="1"/>
        <path id="Path_189321" data-name="Path 189321" d="M67.5,73.378,79.823,77.77" transform="translate(31.667 54.367)" fill="none" stroke="#000" stroke-linecap="round" stroke-linejoin="round" stroke-width="1"/>
        <path id="Path_189322" data-name="Path 189322" d="M67.146,79.8l12.674,1.62" transform="translate(31.617 55.262)" fill="none" stroke="#000" stroke-linecap="round" stroke-linejoin="round" stroke-width="1"/>
        <path id="Path_189323" data-name="Path 189323" d="M67.731,85.805l11.929.375" transform="translate(31.699 56.1)" fill="none" stroke="#000" stroke-linecap="round" stroke-linejoin="round" stroke-width="1"/>
        <path id="Path_189324" data-name="Path 189324" d="M72.149,91.739l-2.949.6" transform="translate(31.904 56.926)" fill="none" stroke="#000" stroke-linecap="round" stroke-linejoin="round" stroke-width="1"/>
        <line id="Line_1471" data-name="Line 1471" y2="122" transform="translate(142.5 243.5)" fill="none" stroke="#000" stroke-width="1"/>
      </g>
    </g>
  </g>
</svg>
