<svg id="_40" data-name="40" xmlns="http://www.w3.org/2000/svg" xmlns:xlink="http://www.w3.org/1999/xlink" width="560" height="281" viewBox="0 0 560 281">
  <defs>
    <clipPath id="clip-path">
      <rect id="Rectangle_47386" data-name="Rectangle 47386" width="560" height="281" rx="10" fill="#a6bbff"/>
    </clipPath>
    <clipPath id="clip-path-2">
      <rect id="Rectangle_47381" data-name="Rectangle 47381" width="383.122" height="809.263" fill="none"/>
    </clipPath>
    <clipPath id="clip-path-3">
      <path id="Path_189453" data-name="Path 189453" d="M104,28.207c-16.657,13.434-27.56-6.029-27.56-6.029,5.01-3.088,9.243-4.245,12.771-4.245C99.732,17.933,104,28.207,104,28.207" transform="translate(-76.443 -17.933)" fill="none"/>
    </clipPath>
    <clipPath id="clip-path-4">
      <path id="Path_189455" data-name="Path 189455" d="M82.225,19.757s-3.584,18.016-18.386,9.164c0,0,3.1-11.077,11.731-11.077a14.031,14.031,0,0,1,6.655,1.913" transform="translate(-63.839 -17.844)" fill="none"/>
    </clipPath>
    <clipPath id="clip-path-6">
      <path id="Path_189458" data-name="Path 189458" d="M83.508,31.2c6.583,2.925,5.506,6.779-.47,7.63-3.463.5-14.063-3.251-12.124-7,.486-.942,2.751-2.113,6.013-2.113a16.226,16.226,0,0,1,6.581,1.48" transform="translate(-70.679 -29.715)" fill="none"/>
    </clipPath>
    <clipPath id="clip-path-8">
      <rect id="Rectangle_47383" data-name="Rectangle 47383" width="55.501" height="63.364" fill="none"/>
    </clipPath>
  </defs>
  <path id="Path_189481" data-name="Path 189481" d="M550,0H10A10,10,0,0,0,0,10V271a10,10,0,0,0,10,10H550a10,10,0,0,0,10-10V10A10,10,0,0,0,550,0Z" fill="#fff7da"/>
  <g id="Mask_Group_336" data-name="Mask Group 336" clip-path="url(#clip-path)">
    <path id="Union_19" data-name="Union 19" d="M237.019,91.986A133.642,133.642,0,0,0,133.864,43.5C59.933,43.5,0,103.355,0,177.194s59.933,133.7,133.864,133.7A133.707,133.707,0,0,0,241.182,257.12a171.169,171.169,0,0,0,282,19.29,133.871,133.871,0,0,0,120.508,75.418c73.93,0,133.863-59.854,133.863-133.693s-59.933-133.7-133.863-133.7A133.473,133.473,0,0,0,552.247,120.5,171.154,171.154,0,0,0,237.019,91.986Z" transform="matrix(-0.966, -0.259, 0.259, -0.966, 588.999, 545.181)" fill="#6b8dfc"/>
    <g id="Group_176416" data-name="Group 176416" transform="translate(104.62 5.625)">
      <g id="Group_176417" data-name="Group 176417">
        <g id="Group_176401" data-name="Group 176401">
          <g id="Group_176400" data-name="Group 176400" clip-path="url(#clip-path-2)">
            <path id="Path_189402" data-name="Path 189402" d="M7.76,208.758,18.716,352.6l-2.085,20.867,44.922,47.342a20.533,20.533,0,0,0,25.109,3.681,18.771,18.771,0,0,0,6.618-26.177L64.941,352.611,60.275,218.648Z" transform="translate(268.964 277.037)" fill="#ed8c6b"/>
            <path id="Path_189403" data-name="Path 189403" d="M72.324,229.351l.847,24.3-48.35,10.96-2.6-34.1Z" transform="translate(258.24 304.366)"/>
            <path id="Path_189404" data-name="Path 189404" d="M57.608,271.693l6.581,10.614c-8.222-1.387-25.3-.724-38.618,23.434l-7.879-6.821c.845-2.462,12.187-29.882,39.916-27.227" transform="translate(277.763 360.317)" fill="#d7e5ff"/>
            <path id="Path_189405" data-name="Path 189405" d="M7.76,299.758a37.228,37.228,0,0,1,12.845-11.822c12.9-7.335,23.58-6.49,30.752-4.089l10.6,17.092a18.772,18.772,0,0,1-6.621,26.177,20.531,20.531,0,0,1-25.107-3.681Z" transform="translate(300.289 374.414)" fill="#d7e5ff"/>
            <path id="Path_189406" data-name="Path 189406" d="M14.929,276,78.8,337.374a20.526,20.526,0,0,1-19.775-5.8L14.108,284.23Z" transform="translate(271.489 366.275)" fill="#d7e5ff"/>
            <path id="Path_189407" data-name="Path 189407" d="M22.7,375.535c45.706-5.329,130.412-15.992,130.412-15.992s-27.767-118.995-50.076-180.79C89.375,140.91,44.754,126.217,7.262,140.82,7.213,197.561,23.13,374.372,22.7,375.535" transform="translate(213.112 179.502)" fill="#ffc849"/>
            <path id="Path_189408" data-name="Path 189408" d="M67.159,195.355H270.99a2.326,2.326,0,0,0,2.327-2.327V167.137a2.326,2.326,0,0,0-2.327-2.327H67.159a2.325,2.325,0,0,0-2.327,2.327v25.891a2.325,2.325,0,0,0,2.327,2.327m201.5-4.654H69.486V169.464H268.663Z" transform="translate(-41.063 218.715)"/>
            <path id="Path_189409" data-name="Path 189409" d="M110.955,572.092a2.325,2.325,0,0,0,2.327-2.327v-391.5a2.327,2.327,0,1,0-4.654,0v391.5a2.325,2.325,0,0,0,2.327,2.327" transform="translate(17.055 233.48)"/>
            <path id="Path_189410" data-name="Path 189410" d="M83.342,351.741H214.949a3.491,3.491,0,0,0,0-6.981H83.342a3.491,3.491,0,0,0,0,6.981" transform="translate(-21.137 457.522)"/>
            <path id="Path_189411" data-name="Path 189411" d="M154.666,352.993a2.343,2.343,0,0,0,1.506-.549l76.649-64.876a2.329,2.329,0,0,0-1.506-4.1H78.014a2.329,2.329,0,0,0-1.5,4.1l76.651,64.876a2.328,2.328,0,0,0,1.5.549m70.3-64.876-70.3,59.5-70.3-59.5Z" transform="translate(-26.656 376.175)"/>
            <path id="Path_189412" data-name="Path 189412" d="M92.084,32.653S105.055,4.618,66.044.958Z" transform="translate(135.281 1.271)" fill="#fd521b"/>
            <path id="Path_189413" data-name="Path 189413" d="M182.155,47.315l-15.892-1.222c-24.169,10.867-61.621,86-61.621,86L140,156.4,188,86.94Z" transform="translate(-48.383 61.169)" fill="#ed8c6b"/>
            <path id="Path_189414" data-name="Path 189414" d="M88.3,76.972a22.7,22.7,0,1,0-22.7-22.7,22.725,22.725,0,0,0,22.7,22.7m0-42.278a19.58,19.58,0,1,1-19.58,19.58A19.6,19.6,0,0,1,88.3,34.693" transform="translate(119.45 41.902)" fill="#ffc849"/>
            <path id="Path_189415" data-name="Path 189415" d="M70.218,52.645S100,57.364,109.79,80.007s32.951,84.235,32.951,84.235L200.6,116.893l19.1,21.183s-41.55,55.356-56.162,68.262-30.652,23.694-52.769,2.308S69.8,121.99,69.8,121.99l-43.63,5.31L17.933,47Z" transform="translate(121.691 62.366)" fill="#ed8c6b"/>
            <path id="Path_189416" data-name="Path 189416" d="M16.212,112.5s21.625-17.674,22.917-32.77C39.9,70.71,40.581,64.655,41,61.244c.244-1.971,2.15-3.56,4.542-3.793,2.071-.2,3.907.987,4.14,2.678A66.559,66.559,0,0,1,47.19,89.192c-4.463,13.574-24.357,33.14-24.357,33.14Z" transform="translate(295.109 76.212)" fill="#ed8c6b"/>
            <path id="Path_189417" data-name="Path 189417" d="M11.877,105.9S30.1,90.966,31.4,75.87c.831-9.713,1.554-15.987,1.964-19.226a3.77,3.77,0,0,1,3.565-2.969c2.578-.249,4.861,1.24,5.124,3.349a66.512,66.512,0,0,1-2.595,28.309C34.992,98.9,15.1,118.472,15.1,118.472Z" transform="translate(312.932 71.194)" fill="#ed8c6b"/>
            <path id="Path_189418" data-name="Path 189418" d="M8.429,104.068S26.655,89.138,27.949,74.042c.831-9.718,1.554-15.994,1.964-19.231a3.761,3.761,0,0,1,3.558-2.962c2.581-.251,4.868,1.24,5.134,3.353a66.529,66.529,0,0,1-2.6,28.3c-4.463,13.571-24.357,33.14-24.357,33.14Z" transform="translate(324.4 68.77)" fill="#ed8c6b"/>
            <path id="Path_189419" data-name="Path 189419" d="M4.155,123.939s44.878-32.172,48.7-46.151c2.457-9,3.6-17.7,4.54-20.688a3.928,3.928,0,0,1,3.889-2.392c2.513.04,4.489,1.629,4.515,3.642.084,6.365-.54,20.043-6.56,31.239-6.574,12.219-44.484,43.789-44.484,43.789Z" transform="translate(307.652 72.601)" fill="#ed8c6b"/>
            <path id="Path_189420" data-name="Path 189420" d="M43.47,76.286l14.661-7.651c2.983-1.557,6.87-.814,8.578,1.641a4.046,4.046,0,0,1-1.324,5.753c-3.658,2.53-40.838,35.921-40.838,35.921L0,123.691l23.82-42.057Z" transform="translate(315.706 90.002)" fill="#ed8c6b"/>
            <path id="Path_189421" data-name="Path 189421" d="M16.587,86.132a.766.766,0,0,1-.326.016c-.319-.056-.5-.307-.41-.558a62.181,62.181,0,0,0,3.4-26.922c-.033-.254.207-.5.535-.538a.545.545,0,0,1,.654.386A62.985,62.985,0,0,1,17,85.79a.581.581,0,0,1-.412.342" transform="translate(325.546 77.135)"/>
            <path id="Path_189422" data-name="Path 189422" d="M12.338,92.952a.752.752,0,0,1-.447-.019.467.467,0,0,1-.293-.677,38.03,38.03,0,0,0,3.249-6.963,69.315,69.315,0,0,0,2.811-28.7,3.834,3.834,0,0,0-1.345-2.127.452.452,0,0,1,.026-.726.716.716,0,0,1,.88,0A4.786,4.786,0,0,1,18.9,56.454a70.286,70.286,0,0,1-2.848,29.077,39.112,39.112,0,0,1-3.328,7.142.638.638,0,0,1-.386.279" transform="translate(336.938 71.113)"/>
            <path id="Path_189423" data-name="Path 189423" d="M9.1,84.752a.6.6,0,0,1-.41-.04.464.464,0,0,1-.228-.649,41.548,41.548,0,0,0,4.366-9.629,62.213,62.213,0,0,0,1.941-13.9.5.5,0,0,1,.554-.444.515.515,0,0,1,.512.507,63.214,63.214,0,0,1-1.971,14.09,42.435,42.435,0,0,1-4.454,9.839.51.51,0,0,1-.31.226" transform="translate(347.717 79.742)"/>
            <path id="Path_189424" data-name="Path 189424" d="M6.821,79.506a.737.737,0,0,1-.517-.049.453.453,0,0,1-.184-.7c1.184-1.538,5.369-10.127,5.41-10.214a.693.693,0,0,1,.812-.3.478.478,0,0,1,.344.661c-.175.356-4.27,8.766-5.52,10.388a.646.646,0,0,1-.347.221" transform="translate(356.382 90.512)"/>
            <path id="Path_189425" data-name="Path 189425" d="M141.258,191.174,65.884,374.045,146.1,458.42l11.1-7.905a23.992,23.992,0,0,0,6.248-32.525l-32.5-50.477,56.213-140.639Z" transform="translate(42.653 253.702)" fill="#ed8c6b"/>
            <path id="Path_189426" data-name="Path 189426" d="M87.145,226.886l60.3,2.262L124.05,287.673l-49.636-29.9Z" transform="translate(62.514 301.094)"/>
            <path id="Path_189427" data-name="Path 189427" d="M124.57,392.768c45.045,11.6,90.09,23.206,136.546,34.236l50.537-193.049a52.222,52.222,0,0,0-12.845-48.692c-12.24-12.573-85.085-22.554-103.632-25.789,9.567-17.474-2.395-40.561-20.12-49.65S59.675,105.11,59.675,105.11s-32.2,62.51-19.869,94.128,44.449,54.488,78.364,55.806l75.728,2.944s-46.22,89.281-69.328,134.782" transform="translate(-16.205 138.093)" fill="#ffc849"/>
            <path id="Path_189428" data-name="Path 189428" d="M136.738,55.459c1.482-2.25-9.429,33.4-9.429,33.4l-42.83-4.85L102.93,29.2Z" transform="translate(49.659 38.745)" fill="#ed8c6b"/>
            <path id="Path_189429" data-name="Path 189429" d="M86.553,30.249l30.652,23.813c.705-1.068-1.394,6.439-3.788,14.6L84.479,39.527Z" transform="translate(69.189 40.143)"/>
            <path id="Path_189430" data-name="Path 189430" d="M123.253,2.787s28.979,14.6,26.356,49.313S138.33,97.076,103.7,93.641,64.588,64,64.588,64l6.681-33.887L113.78,2.3Z" transform="translate(83.044 3.054)" fill="#ed8c6b"/>
            <path id="Path_189431" data-name="Path 189431" d="M212.538,56.282c12.978,46.306,1.108,99.292-25.474,138.959-36.507-12.033-71.869-14.519-108.637-7.489q8.562-31.269,17.125-62.54a63.692,63.692,0,0,0,36.933-32.065c7.381-15.031,8.028-29.917,6.73-47.044a25.516,25.516,0,0,1,13.157,1.65S171.805,96.7,178.645,124.74q13.914-35.2,27.825-70.4s5.69.586,6.069,1.941" transform="translate(-17.202 60.825)" fill="#3c3fa7"/>
            <path id="Path_189432" data-name="Path 189432" d="M88.393,143.62a1.184,1.184,0,0,0,.5-.112c.337-.161,34.8-16.085,89.818-13.665a1.109,1.109,0,0,0,1.215-1.108,1.16,1.16,0,0,0-1.11-1.215c-55.645-2.49-90.57,13.72-90.919,13.883a1.164,1.164,0,0,0,.5,2.215" transform="translate(0.208 168.885)"/>
            <path id="Path_189433" data-name="Path 189433" d="M115.811,157.956a1.164,1.164,0,0,0,1.038-.638c13.053-25.854-19.7-50.493-20.043-50.721a1.164,1.164,0,0,0-1.292,1.936c.326.216,31.45,23.587,19.259,47.733a1.165,1.165,0,0,0,.512,1.564,1.188,1.188,0,0,0,.526.126" transform="translate(42.14 141.204)"/>
            <path id="Path_189434" data-name="Path 189434" d="M232.125,46.093s-42.183.74-59.585,34.059-63.175,112.87-58.412,140.306,44.4,33.833,60.471-3.33,18.535-93.844,18.535-93.844Z" transform="translate(-113.784 61.169)" fill="#ed8c6b"/>
            <path id="Path_189435" data-name="Path 189435" d="M183.767,81.533,138.655,191.989l-19.538-73.773,32.956-53.181Z" transform="translate(-77.838 86.307)" fill="#ed8c6b"/>
            <path id="Path_189436" data-name="Path 189436" d="M46.4,128.449a1.167,1.167,0,0,0,.922-.256l22.847-19.075a1.163,1.163,0,1,0-1.492-1.785L45.832,126.4a1.165,1.165,0,0,0,.57,2.045" transform="translate(206.851 142.08)"/>
            <path id="Path_189437" data-name="Path 189437" d="M131.4,162.217a1.151,1.151,0,0,0,.491-.109c10.148-4.712,16.8-14.747,19.226-29.016a75.293,75.293,0,0,0,.626-20.164,1.164,1.164,0,0,0-2.308.3c.047.361,4.352,36.151-18.526,46.774a1.163,1.163,0,0,0,.491,2.218" transform="translate(-72.079 148.517)"/>
            <path id="Path_189438" data-name="Path 189438" d="M104,28.207S96.384,9.884,76.443,22.178c0,0,10.9,19.461,27.557,6.029" transform="translate(101.234 23.798)" fill="#fff"/>
            <path id="Path_189439" data-name="Path 189439" d="M63.839,28.923s4.64-16.594,18.386-9.164c0,0-3.584,18.014-18.386,9.164" transform="translate(152.339 23.681)" fill="#fff"/>
            <path id="Path_189440" data-name="Path 189440" d="M72.2,34.457a1.553,1.553,0,0,0,1.233-.605l7.53-9.716a1.56,1.56,0,0,0-1.233-2.516H70.019a1.559,1.559,0,0,0,0,3.118h6.534l-5.583,7.2A1.56,1.56,0,0,0,72.2,34.457" transform="translate(142.518 28.693)"/>
            <path id="Path_189441" data-name="Path 189441" d="M78.236,16.072a1.6,1.6,0,0,0,.584-.109c8.522-3.439,14.537-1.568,14.6-1.545a1.559,1.559,0,0,0,.977-2.96c-.286-.1-7.1-2.276-16.741,1.61a1.558,1.558,0,0,0,.582,3" transform="translate(109.236 14.282)"/>
            <path id="Path_189442" data-name="Path 189442" d="M68.474,15.389a1.555,1.555,0,0,0,1.005-.368c.161-.135,4-3.316,8.236-1.568A1.559,1.559,0,1,0,78.9,10.569c-6.018-2.476-11.23,1.892-11.447,2.078a1.558,1.558,0,0,0,1.017,2.741" transform="translate(147.541 13.02)"/>
            <path id="Path_189443" data-name="Path 189443" d="M119.639,30.626s37.6-5.808,28.914-27.957c0,0-24.925-8.042-47.3,3.8S62.586,51.036,95.13,79.406l2.946-19.089s24,.866,21.563-29.691" transform="translate(54.587 0.001)" fill="#fd521b"/>
            <path id="Path_189444" data-name="Path 189444" d="M90.422,295.583l-3.688-10.2c13.09-13.09,29.719-16.687,36.849-17.658l6.532,10.141c-15.929-2.306-39.693,17.716-39.693,17.716" transform="translate(51.171 355.292)" fill="#d7e5ff"/>
            <path id="Path_189445" data-name="Path 189445" d="M160.008,361.129,79.792,276.751l5.054-12.264L168.7,354.939Z" transform="translate(28.746 350.995)" fill="#d7e5ff"/>
            <path id="Path_189446" data-name="Path 189446" d="M74.429,306.168A14.5,14.5,0,0,1,78,296.845c12.35-15.179,26.082-16.476,33.859-15.659l11.333,17.6a23.99,23.99,0,0,1-6.248,32.525L106.1,339.037c-.3-.168-.6-.335-.9-.507Z" transform="translate(82.906 372.907)" fill="#d7e5ff"/>
            <path id="Path_189447" data-name="Path 189447" d="M115.824,26.379C110.491,20.269,102,19.338,96.863,24.3s-4.98,13.939.354,20.05,13.825,7.039,18.963,2.078,4.978-13.939-.356-20.05" transform="translate(46.515 28.016)" fill="#ed8c6b"/>
            <path id="Path_189448" data-name="Path 189448" d="M109.817,33.406a1.558,1.558,0,0,0,.628-2.986L98.1,24.989a1.558,1.558,0,1,0-1.254,2.853l12.343,5.431a1.529,1.529,0,0,0,.626.133" transform="translate(48.543 32.99)"/>
            <path id="Path_189449" data-name="Path 189449" d="M99.249,35.864a1.557,1.557,0,0,0,1.4-.88l2.869-5.927a1.56,1.56,0,0,0-2.809-1.359l-2.867,5.927a1.559,1.559,0,0,0,1.4,2.239" transform="translate(52.113 35.593)"/>
            <path id="Path_189450" data-name="Path 189450" d="M37.655,370.844a1.157,1.157,0,0,0,1.124-.868L86.26,188.6a53.354,53.354,0,0,0-13.139-49.8,1.163,1.163,0,1,0-1.669,1.622A50.989,50.989,0,0,1,84.01,188.015L36.531,369.385a1.16,1.16,0,0,0,.828,1.42,1.087,1.087,0,0,0,.3.04" transform="translate(210.311 183.74)"/>
            <path id="Path_189451" data-name="Path 189451" d="M111.818,76.972a22.7,22.7,0,1,0-22.7-22.7,22.725,22.725,0,0,0,22.7,22.7m0-42.278a19.58,19.58,0,1,1-19.58,19.58,19.6,19.6,0,0,1,19.58-19.58" transform="translate(41.217 41.902)" fill="#ffc849"/>
          </g>
        </g>
        <g id="Group_176403" data-name="Group 176403" transform="translate(177.674 41.731)">
          <g id="Group_176402" data-name="Group 176402" clip-path="url(#clip-path-3)">
            <path id="Path_189452" data-name="Path 189452" d="M75.36,27.36a9.928,9.928,0,1,0,9.927-9.927A9.927,9.927,0,0,0,75.36,27.36" transform="translate(-65.137 -18.597)"/>
          </g>
        </g>
        <g id="Group_176405" data-name="Group 176405" transform="translate(216.178 41.524)">
          <g id="Group_176404" data-name="Group 176404" clip-path="url(#clip-path-4)">
            <path id="Path_189454" data-name="Path 189454" d="M62.13,26.989c0,5.483,3.828,9.927,8.55,9.927s8.55-4.445,8.55-9.927-3.828-9.927-8.55-9.927-8.55,4.445-8.55,9.927" transform="translate(-56.866 -18.882)"/>
          </g>
        </g>
        <g id="Group_176407" data-name="Group 176407">
          <g id="Group_176406" data-name="Group 176406" clip-path="url(#clip-path-2)">
            <path id="Path_189456" data-name="Path 189456" d="M70.914,31.826c.773-1.492,6.006-3.558,12.594-.631s5.506,6.779-.468,7.633c-3.467.493-14.065-3.256-12.126-7" transform="translate(130.646 39.434)"/>
          </g>
        </g>
        <g id="Group_176409" data-name="Group 176409" transform="translate(201.325 69.149)">
          <g id="Group_176408" data-name="Group 176408" clip-path="url(#clip-path-6)">
            <path id="Path_189457" data-name="Path 189457" d="M93.278,34.941S83.2,30.08,73,30.7s1.675,11.5,1.675,11.5l15.624,4.042Z" transform="translate(-71.716 -28.484)" fill="#fd521b"/>
          </g>
        </g>
        <g id="Group_176414" data-name="Group 176414">
          <g id="Group_176413" data-name="Group 176413" clip-path="url(#clip-path-2)">
            <path id="Path_189459" data-name="Path 189459" d="M83.325,186.263a1.164,1.164,0,0,0,1.031-.624l13.071-24.958a1.165,1.165,0,0,0-2.064-1.082L82.295,184.56a1.164,1.164,0,0,0,.491,1.571,1.186,1.186,0,0,0,.54.133" transform="translate(94.368 210.977)"/>
            <path id="Path_189460" data-name="Path 189460" d="M148.5,82.284h0a27.166,27.166,0,0,0,28.064-26.233l.77-22.889L146.178,51.807l-23.9-2.222-.014,4.636A27.165,27.165,0,0,0,148.5,82.284" transform="translate(-78.695 44.008)" fill="#fd521b"/>
            <path id="Path_189461" data-name="Path 189461" d="M122.367,52.136S177,76.021,176.667,35.6c-.065-7.768-4.2-5.548-29.372,10.144-13.513,8.422-24.928,6.395-24.928,6.395" transform="translate(-78.304 41.475)" fill="#ffb6c8"/>
            <path id="Path_189462" data-name="Path 189462" d="M135.969,104a2.327,2.327,0,0,0,2.322-2.25l1.552-46.071a2.324,2.324,0,0,0-2.248-2.4c-.023,0-.051,0-.079,0a2.327,2.327,0,0,0-2.322,2.25L133.642,101.6a2.325,2.325,0,0,0,2.248,2.4c.026,0,.051,0,.079,0" transform="translate(-67.713 70.695)" fill="#5774cd"/>
            <path id="Path_189463" data-name="Path 189463" d="M159.73,78.5a2.327,2.327,0,0,0,.074-4.652l-29.412-.991c-.026,0-.054,0-.081,0a2.327,2.327,0,0,0-.074,4.652l29.414.991c.026,0,.051,0,.079,0" transform="translate(-76.768 96.687)" fill="#5774cd"/>
            <path id="Path_189464" data-name="Path 189464" d="M149.91,92.242a28.367,28.367,0,0,0,28.3-27.373L179.4,29.583a1.166,1.166,0,0,0-1.126-1.2l-54.3-1.831a1.1,1.1,0,0,0-.833.314,1.165,1.165,0,0,0-.368.81L121.585,62.96a28.363,28.363,0,0,0,27.362,29.265c.319.012.645.016.963.016m-.926-1.18h0Zm28.051-60.395-1.15,34.122a26,26,0,1,1-51.973-1.752l1.147-34.12Z" transform="translate(-79.179 35.231)" fill="#5774cd"/>
            <g id="Group_176412" data-name="Group 176412" transform="translate(43.556 62.945)" opacity="0.49">
              <g id="Group_176411" data-name="Group 176411">
                <g id="Group_176410" data-name="Group 176410" clip-path="url(#clip-path-8)">
                  <path id="Path_189465" data-name="Path 189465" d="M148.321,90.4h0a27.166,27.166,0,0,0,28.064-26.233l1.187-35.285-54.3-1.829-1.189,35.283A27.165,27.165,0,0,0,148.321,90.4" transform="translate(-122.072 -27.049)" fill="#d7e5ff"/>
                </g>
              </g>
            </g>
            <path id="Path_189466" data-name="Path 189466" d="M162.238,57.97,136.778,56.5a7.457,7.457,0,0,0-7.8,7.547,8,8,0,0,0,7.917,8.194l25.447-.4a6.614,6.614,0,0,0,6.388-7.167,7.065,7.065,0,0,0-6.495-6.709" transform="translate(-85.773 74.966)"/>
            <path id="Path_189467" data-name="Path 189467" d="M165.834,78.142l-30.447.042a7.371,7.371,0,0,1-7.035-5.822l-.163-.7c-1.084-4.638,2.2-8.987,6.709-8.889l30.61.654a7.451,7.451,0,0,1,7.063,6.993,6.946,6.946,0,0,1-6.737,7.721" transform="translate(-87.293 83.304)"/>
            <path id="Path_189468" data-name="Path 189468" d="M164.285,75.478h0a6.426,6.426,0,0,0-6.153-5.72l-20.269-.74a6.426,6.426,0,0,0-6.595,5.508l-.235,1.624a6.425,6.425,0,0,0,6.639,7.333l20.5-.882a6.427,6.427,0,0,0,6.111-7.123" transform="translate(-85.969 91.587)"/>
            <path id="Path_189469" data-name="Path 189469" d="M159.272,79.3h0a5.568,5.568,0,0,0-5.078-4.217l-16.734-.277a4.8,4.8,0,0,0-4.719,5.248l.072,1.866c.123,3.242,2.839,5.846,5.8,5.564L155.276,85.9c3-.284,4.882-3.393,4-6.6" transform="translate(-85.257 99.274)"/>
            <path id="Path_189470" data-name="Path 189470" d="M127.531,62.932l.016-.03a.618.618,0,0,1,.835-.254,11.1,11.1,0,0,0,4.3.9l26.945-.112c.212.009,4.473.247,6.865,3.044a6.929,6.929,0,0,1,1.5,5.464c-.866,8.1-12.359,7.5-13.076,7.451l-16.059.321c-1.208.021-7.777-.161-9.46-.323a.617.617,0,1,1,.121-1.229c1.652.161,8.124.337,9.315.316l16.085-.321.061,0c.109.009,11.023.782,11.784-6.351a5.741,5.741,0,0,0-1.21-4.528c-2.052-2.4-5.915-2.611-5.955-2.613l-26.9.114a12.227,12.227,0,0,1-4.9-1.047.617.617,0,0,1-.268-.805" transform="translate(-81.564 83.043)"/>
            <path id="Path_189471" data-name="Path 189471" d="M130.433,82.927a.618.618,0,0,1,.619-.354c1.634.161,11.489-.1,13.132-.219,1.538-.1,6.574-.254,6.788-.261.093,0,9.46-.393,9.29-6.458-.061-2.132-1.271-3.635-3.6-4.468a11.988,11.988,0,0,0-3.726-.64.618.618,0,0,1-.019-1.236c2.9-.049,8.433,1.208,8.578,6.309.163,5.836-6.788,7.607-10.488,7.728-.054,0-5.227.154-6.742.258-1.545.1-11.554.389-13.334.214a.616.616,0,0,1-.556-.673.653.653,0,0,1,.056-.2" transform="translate(-81.766 91.955)"/>
            <path id="Path_189472" data-name="Path 189472" d="M128.434,56.429a.62.62,0,0,1,.582-.356c.163,0,16.373.561,22.966.849,6.951.3,11.021,3.467,11.168,8.673.175,6.232-6.12,7.677-6.185,7.691a.617.617,0,0,1-.263-1.205c.221-.051,5.357-1.252,5.213-6.451-.128-4.542-3.672-7.2-9.986-7.472-6.588-.291-22.794-.845-22.957-.852a.617.617,0,0,1-.6-.638.587.587,0,0,1,.058-.24" transform="translate(-78.77 74.413)"/>
            <path id="Path_189473" data-name="Path 189473" d="M161.986,57.124l-25.461-1.468a7.457,7.457,0,0,0-7.8,7.544h0a8,8,0,0,0,7.917,8.2l25.447-.4a6.614,6.614,0,0,0,6.388-7.167,7.061,7.061,0,0,0-6.495-6.707" transform="translate(-84.93 73.843)" fill="#ed8c6b"/>
            <path id="Path_189474" data-name="Path 189474" d="M165.58,77.295l-30.447.044a7.369,7.369,0,0,1-7.032-5.825l-.165-.7c-1.084-4.638,2.2-8.987,6.709-8.889l30.61.654a7.451,7.451,0,0,1,7.063,6.993,6.945,6.945,0,0,1-6.737,7.721" transform="translate(-86.448 82.179)" fill="#ed8c6b"/>
            <path id="Path_189475" data-name="Path 189475" d="M164.029,74.632h0a6.423,6.423,0,0,0-6.153-5.72l-20.266-.74a6.425,6.425,0,0,0-6.595,5.508L130.78,75.3a6.425,6.425,0,0,0,6.639,7.333l20.5-.884a6.422,6.422,0,0,0,6.109-7.121" transform="translate(-85.125 90.464)" fill="#ed8c6b"/>
            <path id="Path_189476" data-name="Path 189476" d="M159.019,78.455h0a5.568,5.568,0,0,0-5.078-4.217l-16.734-.277a4.8,4.8,0,0,0-4.719,5.248l.072,1.866c.123,3.242,2.839,5.846,5.8,5.564l16.662-1.587c3-.284,4.882-3.393,4-6.6" transform="translate(-84.415 98.151)" fill="#ed8c6b"/>
            <path id="Path_189477" data-name="Path 189477" d="M127.278,62.086l.016-.03a.618.618,0,0,1,.835-.254,11.1,11.1,0,0,0,4.3.9l26.945-.112c.212.009,4.473.247,6.865,3.044a6.929,6.929,0,0,1,1.5,5.464c-.866,8.1-12.359,7.5-13.076,7.451l-16.059.319c-1.208.023-7.777-.158-9.46-.321a.617.617,0,1,1,.121-1.229c1.652.161,8.124.337,9.315.316l16.085-.321.06,0c.109.009,11.023.782,11.784-6.351a5.74,5.74,0,0,0-1.21-4.528c-2.052-2.4-5.915-2.611-5.955-2.613l-26.9.114a12.219,12.219,0,0,1-4.9-1.047.617.617,0,0,1-.268-.805" transform="translate(-80.722 81.92)"/>
            <path id="Path_189478" data-name="Path 189478" d="M130.178,82.08a.618.618,0,0,1,.619-.354c1.634.161,11.489-.1,13.132-.219,1.538-.1,6.574-.254,6.788-.261.093,0,9.46-.393,9.29-6.458-.061-2.132-1.271-3.635-3.6-4.468a11.988,11.988,0,0,0-3.726-.64.618.618,0,0,1-.019-1.236c2.9-.049,8.433,1.208,8.578,6.311.163,5.834-6.788,7.6-10.488,7.726-.054,0-5.227.154-6.741.258-1.545.1-11.554.389-13.334.214a.616.616,0,0,1-.556-.673.653.653,0,0,1,.056-.2" transform="translate(-80.921 90.831)"/>
            <path id="Path_189479" data-name="Path 189479" d="M128.181,55.583a.62.62,0,0,1,.582-.356c.163,0,16.373.561,22.966.849,6.951.3,11.021,3.467,11.168,8.673.175,6.232-6.12,7.677-6.183,7.691a.617.617,0,1,1-.265-1.205c.221-.051,5.357-1.252,5.213-6.451-.126-4.542-3.672-7.2-9.985-7.472-6.588-.291-22.794-.845-22.957-.849a.619.619,0,0,1-.6-.64.626.626,0,0,1,.058-.24" transform="translate(-77.928 73.29)"/>
            <path id="Path_189480" data-name="Path 189480" d="M133.4,147.7a1.16,1.16,0,0,0,1.152-1.026l8.038-67.934a1.162,1.162,0,1,0-2.308-.272L132.246,146.4a1.164,1.164,0,0,0,1.017,1.294q.07.007.14.007" transform="translate(-67.204 102.764)"/>
          </g>
        </g>
      </g>
    </g>
  </g>
</svg>
