<svg xmlns="http://www.w3.org/2000/svg" xmlns:xlink="http://www.w3.org/1999/xlink" width="148" height="110" viewBox="0 0 148 110">
  <defs>
    <clipPath id="clip-path">
      <rect id="Rectangle_47388" data-name="Rectangle 47388" width="74.197" height="91.939" fill="none"/>
    </clipPath>
  </defs>
  <g id="_41" data-name="41" transform="translate(-769 -10066)">
    <rect id="Rectangle_46171" data-name="Rectangle 46171" width="148" height="110" rx="12" transform="translate(769 10066)" fill="#fc5f65"/>
    <g id="Group_176424" data-name="Group 176424" transform="translate(806 10075)">
      <g id="Group_176423" data-name="Group 176423" clip-path="url(#clip-path)">
        <path id="Path_189506" data-name="Path 189506" d="M66.59,38.011c-1.052-.259-1.355-.6-1.364-1.668-.016-1.826-.036-3.652.013-5.477a1.07,1.07,0,0,0-.721-1.155c-1.08-.506-2.132-1.071-3.191-1.619a3.724,3.724,0,0,1-1.93-5.087,3.773,3.773,0,0,1,5.214-1.578c.108.049.219.09.473.194,0-.724-.007-1.391,0-2.058A4.586,4.586,0,0,1,69.991,14.7a7.762,7.762,0,0,1,2.228.182,4.663,4.663,0,0,1,3.438,4.691c.016,4.25.005,8.5.006,12.751q0,11.583,0,23.168c0,2.978-1.071,4.249-3.968,4.787-4.142.77-8.28,1.561-12.422,2.332-.575.107-.888.225-.791.989.733,5.815,1.4,11.638,2.089,17.459.418,3.534.827,7.069,1.271,10.6a1.846,1.846,0,0,1-.811,1.65H59.951a1.632,1.632,0,0,1-.906-.937c-.059-.23-.141-.454-.191-.687-1.022-8.58-2.014-17.162-3.06-25.738-.109-.89-.223-1.78-.3-2.674a3.077,3.077,0,0,1,2.424-3.391c.784-.194,1.581-.329,2.377-.464,1.245-.21,1.289-.282,1.114-1.6-.177-1.153-.4-2.3-.557-3.455-.1-.687-.412-.931-1.081-.835-3.643.521-7.3.945-10.945,1.431a1.728,1.728,0,0,0-1.3.972A8.917,8.917,0,0,1,41,60.508a8.615,8.615,0,0,1-8.728-3.749,2.149,2.149,0,0,0-1.927-1.167,3.118,3.118,0,0,1-2.039-.831c-1.971-1.654-3.859-3.4-5.789-5.1-.724-.638-.764-.652-1.415.078-.717.8-1.535,1.511-2.194,2.37-.563.734-.589.815.128,1.446.987.87,1.983,1.73,2.963,2.609a6.656,6.656,0,0,1,2.216,4.472c.46,4.612,1,9.216,1.5,13.824.446,4.131.918,8.26,1.362,12.392.182,1.693.426,3.382.5,5.086a1.446,1.446,0,0,1-1.04,1.369h-.9a1.852,1.852,0,0,1-1.023-1.659q-.733-6.917-1.493-13.83Q22.2,69.3,21.272,60.775A4,4,0,0,0,19.8,58.11C15.21,54.079,10.669,50,6.064,45.987a7.082,7.082,0,0,1-2.216-8.372c2.6-7.625,5.1-15.281,7.63-22.93.289-.875.7-1.52,1.74-1.466A1.334,1.334,0,0,1,14.468,14.9a6.113,6.113,0,0,1-.283.945c-2.5,7.527-5,15.057-7.53,22.573a4.486,4.486,0,0,0,1.361,5.4c2.462,2.045,4.787,4.248,7.216,6.331.469.4.786.408,1.185-.079.759-.925,1.674-1.707,2.43-2.641.357-.44.418-.707-.047-1.1-1.735-1.468-3.409-3.007-5.131-4.49-1.891-1.629-2.259-2.954-1.468-5.339,1.893-5.71,3.83-11.407,5.693-17.127a3.43,3.43,0,0,1,3.181-2.691c1.129-.1,2.24-.389,3.369-.526a2.178,2.178,0,0,0,.439-.094c.4-.137.706-.373.635-.846a.762.762,0,0,0-.9-.68c-.566.045-1.122.181-1.684.259-1.973.276-3.1-1.061-2.507-2.958.315-1,.689-1.98.97-2.989A1.725,1.725,0,0,0,20.2,6.443a6.469,6.469,0,0,0-.938-.306A1.713,1.713,0,0,0,17.048,7.3c-.241.613-.383,1.264-.67,1.857a1.34,1.34,0,0,1-1.873.786c-.95-.681-1.073-1.034-.725-2.112.184-.568.356-1.14.566-1.7a4.584,4.584,0,0,1,5.66-2.848c.487.139.971.295,1.444.474A4.561,4.561,0,0,1,24.27,9.5c-.213.709-.449,1.41-.7,2.186a7.052,7.052,0,0,1,2.019-.019,3.69,3.69,0,0,1,2.963,3.75,3.638,3.638,0,0,1-3.1,3.527c-1.353.246-2.709.481-4.07.677a.7.7,0,0,0-.662.575Q17.8,29.028,14.836,37.851a1.187,1.187,0,0,0,.382,1.428q7.367,6.513,14.715,13.045a2.07,2.07,0,0,0,1.6.341c2.265.015,2.233.006,2.282-2.221a1.516,1.516,0,0,0-.933-1.667,8.372,8.372,0,0,1-3.788-3.941.856.856,0,0,0-.948-.574c-.776.04-1.557.024-2.334,0A3.065,3.065,0,0,1,22.7,41.5a9.852,9.852,0,0,1,.056-4.192c.821-2.356.494-4.72.533-7.078A15.1,15.1,0,0,1,37.637,15.541c3.054-.1,6.13-.181,9,1.12A14.872,14.872,0,0,1,55.95,30.3c.061,1.134.01,2.275.016,3.413a11.471,11.471,0,0,0,.41,3.052,11.963,11.963,0,0,1,.051,5.25,2.948,2.948,0,0,1-2.9,2.248q-1.256.041-2.514,0a.753.753,0,0,0-.822.494A9.105,9.105,0,0,1,45.9,49.055a.744.744,0,0,0-.481.829,11.315,11.315,0,0,1,0,1.616c-.073.73.186.948.913.846,2.458-.348,4.921-.648,7.383-.97,3.5-.458,6.995-.941,10.5-1.363.753-.09,1.072-.28,1.038-1.124-.076-1.853-.03-3.712-.021-5.568.006-1.127.268-1.451,1.37-1.772.931-.06,1.449.4,1.5,1.421.059,1.1.017,2.212.02,3.319,0,1.136.015,2.273,0,3.409a2.882,2.882,0,0,1-2.473,3.051c-1.747.414-1.745.414-1.463,2.164.123.767.293,1.527.37,2.3.32,1.308.324,1.33,1.6,1.086,1.674-.32,3.355-.606,5.023-.956,1.264-.265,1.434-.45,1.437-1.734q.015-7.627,0-15.252,0-10.094,0-20.186c0-2.089-.9-2.837-2.99-2.512-1.229.406-1.492.745-1.51,1.994-.015.988.035,1.977-.018,2.963-.117,2.181-1.677,3.059-3.622,2.05a6.872,6.872,0,0,0-1.285-.632c-.445-.124-.858-.094-1.056.391a.75.75,0,0,0,.424.972c.8.475,1.651.845,2.476,1.27a15.706,15.706,0,0,1,1.809.99,2.668,2.668,0,0,1,1.26,2.256c.018,2.215.037,4.43-.008,6.644-.023,1.144-.534,1.6-1.5,1.452" transform="translate(-1.468 -1.367)"/>
        <path id="Path_189507" data-name="Path 189507" d="M16.619,12.082a1.517,1.517,0,0,0,1.835-1.288,12.578,12.578,0,0,1,.468-1.352,3.277,3.277,0,0,1,.338-.724c.677-.966,1.8-1.035,3.5-.238a1.824,1.824,0,0,1,1.055,2.29c-.33,1.146-.74,2.268-1.1,3.406a1.844,1.844,0,0,0,2.122,2.563c.593-.072,1.176-.22,1.768-.3.666-.088,1.222.1,1.341.844.11.693-.293,1.058-.948,1.167-1.326.219-2.65.465-3.982.635a2.963,2.963,0,0,0-2.7,2.233q-2.874,8.806-5.862,17.574a3.972,3.972,0,0,0,1.283,4.73c2.043,1.752,4.037,3.562,6.089,5.379-1.2,1.3-2.38,2.556-3.536,3.844-.287.32-.46.225-.719-.006C14.852,50.411,12.1,48.013,9.4,45.56a4.064,4.064,0,0,1-.962-4.691q3.9-11.627,7.76-23.266c.411-1.235.234-1.682-.864-2.244.715-.98.776-2.217,1.287-3.277" transform="translate(-3.582 -3.507)" fill="#fecdbe"/>
        <path id="Path_189508" data-name="Path 189508" d="M110.558,68.544c-.211-1.294-.4-2.592-.644-3.88-.083-.439.017-.6.455-.619,3.148-.134,3.952-1.4,3.808-4.437-.077-1.638-.041-3.283,0-4.924a1.534,1.534,0,0,0-1.331-1.8q0-1.768,0-3.537a1.411,1.411,0,0,0,1.328-1.6q-.018-3.138,0-6.276a2.57,2.57,0,0,0-1.5-2.452c-1.27-.659-2.548-1.3-3.819-1.959-.81-.418-1.114-.984-.773-1.544.44-.721,1.054-.646,1.708-.281.468.262.946.506,1.429.737a1.837,1.837,0,0,0,2.8-1.708c.037-1.194-.015-2.391.024-3.586a1.747,1.747,0,0,1,1.643-1.876c.788-.238,1.175.176,1.4.858a4.427,4.427,0,0,1,.175,1.419q0,16.977,0,33.953c0,2.028-.608,2.741-2.575,3.151-1.025.214-2.053.423-3.084.606-.369.066-.784.208-1.039-.25" transform="translate(-47.717 -12.704)" fill="#fecdbe"/>
        <path id="Path_189509" data-name="Path 189509" d="M98.135,2.892c0,2.806.012,5.519,0,8.232a4.4,4.4,0,0,1-7.759,2.963A4.379,4.379,0,0,1,94.4,6.925c.32.052.637.128,1.045.211,0-1.637-.007-3.24,0-4.843C95.452.508,96.506-.3,98.256.1a6.231,6.231,0,0,1,4.29,3.366,1.385,1.385,0,0,1-.42,2.022,1.359,1.359,0,0,1-1.925-.729,3.762,3.762,0,0,0-2.066-1.871" transform="translate(-39.491 0)"/>
        <path id="Path_189510" data-name="Path 189510" d="M8.773,115.411c0,1.376.069,2.756-.017,4.126a4.212,4.212,0,0,1-3.074,3.787,4.339,4.339,0,0,1-4.622-1.364,4.253,4.253,0,0,1-.578-4.785,4.309,4.309,0,0,1,5.046-2.286c.541.12.6,0,.593-.469-.018-1.376-.015-2.752,0-4.129.015-1.946,1.077-2.775,2.973-2.284A6.229,6.229,0,0,1,13.26,111.4a1.361,1.361,0,0,1-.509,1.99,1.322,1.322,0,0,1-1.851-.727,4.278,4.278,0,0,0-1.488-1.635c-.446-.282-.619-.216-.61.343.022,1.346.007,2.693.007,4.039H8.773" transform="translate(0 -47.687)"/>
        <path id="Path_189511" data-name="Path 189511" d="M70.85,128.629c-.273-.447-.719-.347-1.127-.347q-14.728-.006-29.455-.008c-.419,0-.837-.018-1.256-.028-1.105-10.1-2.277-20.2-3.272-30.313A8.289,8.289,0,0,0,32.412,91.6c-.885-.658-1.655-1.468-2.5-2.183-.32-.27-.36-.432-.044-.759,1.039-1.075,2.059-2.17,3.043-3.3.365-.418.578-.418.985-.048,1.9,1.728,3.859,3.4,5.758,5.136a3.759,3.759,0,0,0,3,1.135c.535-.052.767.2,1.022.624a8.729,8.729,0,0,0,15.4-.442,1.218,1.218,0,0,1,1.039-.774q5.826-.738,11.643-1.538c.67-.093.874.1.94.76.123,1.246.35,2.481.534,3.721-.01.655-.561.622-.964.707-1.784.378-3.574.725-5.362,1.086-1.543.311-1.854.745-1.65,2.375.357,2.847.717,5.693,1.063,8.541.8,6.615,1.639,13.226,2.451,19.84.145,1.175.145,1.177,1.374,1.367a1.238,1.238,0,0,1,.574.233.687.687,0,0,1,.134.541" transform="translate(-13.108 -37.595)" fill="#d7ebfd"/>
        <path id="Path_189512" data-name="Path 189512" d="M52.532,56.7c0-1.824.018-3.648-.01-5.472-.009-.6.073-.789.724-.514a39.77,39.77,0,0,0,10.473,2.948,21.928,21.928,0,0,0,5.81.134c.558-.077.706.056.7.628-.035,2.481.012,4.964-.029,7.445A6.6,6.6,0,0,1,63.854,68.3a28.309,28.309,0,0,1-5.993-.138A6.49,6.49,0,0,1,52.566,62c-.071-1.761-.013-3.527-.013-5.291h-.022" transform="translate(-23.218 -22.366)" fill="#fecdbe"/>
        <path id="Path_189513" data-name="Path 189513" d="M43.937,43.425a12.2,12.2,0,0,1,3.736-9.753,11.585,11.585,0,0,1,7.506-3.438c2.739-.179,5.5-.281,8.147.776A12.4,12.4,0,0,1,71.2,42.233c.028,1.167-.022,2.337.022,3.5.023.595-.168.825-.759.749a3.828,3.828,0,0,0-.807,0c-.426.037-.581-.131-.569-.562.025-.868.02-1.737,0-2.6-.021-1.049-.567-1.638-1.573-1.472-6.834,1.125-13.078-.834-19.179-3.582a1.616,1.616,0,0,0-1.774-.025,1.5,1.5,0,0,0-.533,1.357c.006,2.006-.052,4.014.024,6.017.037.961-.484.876-1.107.878-.594,0-1.143.08-1.031-.832a20.449,20.449,0,0,0,.015-2.229" transform="translate(-19.41 -13.316)" fill="#7ca0b0"/>
        <path id="Path_189514" data-name="Path 189514" d="M112.634,68.513c1.089.188,2.077-.339,3.127-.443.44-.044.869-.195,1.307-.276a2.051,2.051,0,0,0,1.981-2.318q.012-17.47,0-34.94c0-1.183-.365-1.638-1.29-1.761a4.434,4.434,0,0,1,1.949.005,1.877,1.877,0,0,1,1.562,1.727,7.946,7.946,0,0,1,.021.807q0,17.694,0,35.388c0,1.761-.119,1.92-1.831,2.252-1.848.358-3.716.628-5.546,1.059-.9.213-1.213-.01-1.188-.885a3.515,3.515,0,0,0-.09-.616" transform="translate(-49.792 -12.673)" fill="#feaf9d"/>
        <path id="Path_189515" data-name="Path 189515" d="M98.672,135.136c-1.871.04-1.924.048-2.2-1.8-.344-2.316-.586-4.646-.882-6.97-.334-2.617-.688-5.232-1.015-7.85-.273-2.178-.513-4.36-.78-6.538s-.534-4.356-.833-6.529a6.513,6.513,0,0,1-.042-1.605,1.358,1.358,0,0,1,1.239-1.22c2.126-.411,4.249-.845,6.377-1.248a.776.776,0,0,0,.648-.4c.2.29.088.65.2.95.221.582,0,.787-.572.871-1,.147-2,.358-2.993.543a2.7,2.7,0,0,0-2.44,3.319q1.512,12.855,3.04,25.708c.108.917.168,1.84.251,2.76" transform="translate(-41.064 -44.643)" fill="#b2d9fd"/>
        <path id="Path_189516" data-name="Path 189516" d="M68.393,91.3a4.409,4.409,0,0,0,1.192.768,5.993,5.993,0,0,1-9.658.666c-.152-.2-.4-.379,0-.617a3.247,3.247,0,0,0,1.5-3.224c-.036-1.7-.006-1.7,1.717-1.7,1.076,0,2.152.019,3.228.029a1.519,1.519,0,0,1,.24,1.282A2.324,2.324,0,0,0,68.393,91.3" transform="translate(-26.396 -38.547)" fill="#fecdbe"/>
        <path id="Path_189517" data-name="Path 189517" d="M45.526,66.5a2.738,2.738,0,0,1,0,.358c-.075.554.3,1.424-.1,1.6a5.385,5.385,0,0,1-2.2.09c-.375-.013-.448-.347-.45-.663-.006-.986,0-1.973,0-2.959,0-.471.2-.681.7-.718,2.063-.157,2.062-.17,2.063,2.294" transform="translate(-18.905 -28.357)" fill="#fcae9c"/>
        <path id="Path_189518" data-name="Path 189518" d="M89.061,66.368V66.1c0-1.938,0-1.92,1.932-1.865.565.016.817.2.8.782-.026.955-.021,1.91,0,2.865.01.545-.235.711-.759.73-1.972.074-1.971.09-1.971-1.886v-.358" transform="translate(-39.371 -28.389)" fill="#feaf9d"/>
        <path id="Path_189519" data-name="Path 189519" d="M73.671,91.272a1.786,1.786,0,0,1-2.014-1.935c-.013-.712-.005-1.425-.007-2.138a4.627,4.627,0,0,0,.624-.04c.6-.118.7.179.669.694a4.766,4.766,0,0,0,.728,3.419" transform="translate(-31.674 -38.519)" fill="#feb09e"/>
        <path id="Path_189520" data-name="Path 189520" d="M94.189,18.813a1.694,1.694,0,0,1,1.7-1.7,1.754,1.754,0,0,1,1.686,1.746A1.7,1.7,0,0,1,95.9,20.488a1.648,1.648,0,0,1-1.708-1.675" transform="translate(-41.638 -7.563)" fill="#8278bf"/>
        <path id="Path_189521" data-name="Path 189521" d="M6.568,125.011a1.676,1.676,0,0,1,1.686,1.711,1.642,1.642,0,0,1-1.63,1.662,1.643,1.643,0,0,1-1.73-1.65,1.675,1.675,0,0,1,1.674-1.723" transform="translate(-2.163 -55.264)" fill="#fc75a7"/>
      </g>
    </g>
  </g>
</svg>
