<svg xmlns="http://www.w3.org/2000/svg" xmlns:xlink="http://www.w3.org/1999/xlink" width="176" height="110" viewBox="0 0 176 110">
  <defs>
    <clipPath id="clip-path">
      <rect id="Rectangle_47387" data-name="Rectangle 47387" width="91.392" height="99.615" fill="none"/>
    </clipPath>
  </defs>
  <g id="_42" data-name="42" transform="translate(-965 -10064)">
    <rect id="Rectangle_46172" data-name="Rectangle 46172" width="176" height="110" rx="12" transform="translate(965 10064)" fill="#fc5f65"/>
    <g id="Group_176425" data-name="Group 176425" transform="translate(1007 10069)">
      <g id="Group_176421" data-name="Group 176421" clip-path="url(#clip-path)">
        <path id="Path_189482" data-name="Path 189482" d="M59.9,118.807a1.829,1.829,0,0,1,.925,1.6,43.3,43.3,0,0,1-1.608,16.9,5.641,5.641,0,0,1-4.363,3.892H10.307A11.438,11.438,0,0,1,6.5,139.623a8.819,8.819,0,0,1-3.748-7.779c.015-.619-.006-1.008-.793-1.243A2.708,2.708,0,0,1,.03,127.86c-.037-1.521-.042-3.043,0-4.564a2.891,2.891,0,0,1,2.437-2.853c.5-.093.7-.257.78-.735a43.164,43.164,0,0,1,4.264-11.993,1.74,1.74,0,0,1,2.167-1.12,1.505,1.505,0,0,1,.894,2.119c-.309.818-.764,1.572-1.14,2.362a41.288,41.288,0,0,0-2.772,7.766c-.289,1.155-.2,1.253.946,1.254q5.442.008,10.885,0c1.15,0,1.217-.041,1.472-1.219a41.974,41.974,0,0,1,3.325-9.516,3.913,3.913,0,0,1,.549-.915,1.713,1.713,0,0,1,2.042-.382,1.547,1.547,0,0,1,.84,1.869,18.879,18.879,0,0,1-1,2.422,39.6,39.6,0,0,0-2.244,6.719,1.309,1.309,0,0,0,.59,1.644,3.27,3.27,0,0,1,1.495,2.9q.013,1.992,0,3.984a3.333,3.333,0,0,1-1.96,3.209,1.174,1.174,0,0,0-.758,1.212,9.3,9.3,0,0,1-1.454,5.262c-.353.569-.169.744.429.713.226-.012.454,0,.68,0q14.724,0,29.449,0c.519.016,1.038,0,1.557,0a2.482,2.482,0,0,0,2.736-1.992,37.888,37.888,0,0,0,1.444-7.726,27.9,27.9,0,0,0,.009-6.4,8.258,8.258,0,0,1-.012-1.166c.021-1.814.431-2.164,2.216-1.9" transform="translate(0 -41.577)"/>
        <path id="Path_189483" data-name="Path 189483" d="M115.237,127.526a2.227,2.227,0,0,1-.966-2.149c.021-11.407.007-22.813.03-34.22a1.233,1.233,0,0,0-.783-1.349,4.857,4.857,0,0,1-.762-.424,6.774,6.774,0,0,0-4.724-1.263,8.092,8.092,0,0,1-8.556-6.963,8.333,8.333,0,0,1,16.112-4.017,2.116,2.116,0,0,0,1.055,1.271q3.838,2.174,7.644,4.406a5.65,5.65,0,0,1,2.912,6.052.6.6,0,0,0,.351.758c.626.337,1.243.693,1.839,1.079a1.429,1.429,0,0,1,.6,2,1.364,1.364,0,0,1-2.007.5,3.158,3.158,0,0,0-4.218-.151c-1.486.993-3.3.674-4.919-.171-.508-.266-1-.556-1.525-.847a2.105,2.105,0,0,0-.109,1.1q-.009,16.186.01,32.372a2.013,2.013,0,0,1-1.008,2.019Z" transform="translate(-38.794 -27.911)"/>
        <path id="Path_189484" data-name="Path 189484" d="M55.823,130.858q-7.094.016-14.188.029-8.6.007-17.2,0c-.133-.3.134-.413.251-.571a9.037,9.037,0,0,0,1.747-5.928c-.026-.6.052-.941.771-1.159a2.711,2.711,0,0,0,1.947-2.73c.04-1.522.037-3.045,0-4.567a2.763,2.763,0,0,0-1.773-2.663c-.562-.228-.535-.474-.438-.943a39.5,39.5,0,0,1,2.919-8.606c.135-.293.293-.577.412-.877a1.469,1.469,0,0,0-.626-2,1.443,1.443,0,0,0-2.013.776,44.846,44.846,0,0,0-2.36,5.727,37.33,37.33,0,0,0-1.315,5.062c-.065.347-.088.594-.553.593-4.467-.015-8.934-.009-13.444-.009A40.465,40.465,0,0,1,14,101.651c.6-1.174.521-1.569-.439-2.441a17.369,17.369,0,0,0,2-3.364A2.749,2.749,0,0,0,18.313,94.3a37.741,37.741,0,0,1,5.394-6.232c.727-.683.977-.637,1.459.232a26.327,26.327,0,0,0,9.821,9.725,16.313,16.313,0,0,0,5.175,2.154,3.166,3.166,0,0,0,3.395-1.333c1.468-1.933,1.869-4.237,2.283-6.535.075-.414.116-.833.225-1.241.151-.564.453-.582.822-.2.316.324.612.671.9,1.017a19.759,19.759,0,0,0,5.367,4.568,1.251,1.251,0,0,1,.412.409,47.47,47.47,0,0,1,4.57,14.155,41.319,41.319,0,0,1-.919,17.3c-.252.938-.347,2.016-1.394,2.541" transform="translate(-3.887 -34.191)" fill="#dcdaed"/>
        <path id="Path_189485" data-name="Path 189485" d="M54.858,62.64A24.611,24.611,0,0,1,47.893,56.4a32.968,32.968,0,0,1-1,5.14,9.945,9.945,0,0,1-1.718,3.445,3.319,3.319,0,0,1-3.444,1.254,20.525,20.525,0,0,1-8.08-4.043,23.416,23.416,0,0,1-7.319-8.291c-.329-.656-.521-.3-.8-.028a52.192,52.192,0,0,0-6.015,7.1c-.747,1.045-1.208,1.161-2.388.668a1.707,1.707,0,0,1,.007-2.364,53.4,53.4,0,0,1,7.4-8.471,1.208,1.208,0,0,0,.473-1.244,5.023,5.023,0,0,1-.034-2.025,7.762,7.762,0,0,0-.241-4.077c-.191-.7-.355-.924-1.135-.769a8.113,8.113,0,0,1-9.466-6.066,7.1,7.1,0,0,1,2.236-6.967,2.456,2.456,0,0,0,.764-1.492c.249-1.465.571-2.919.883-4.372.1-.463.2-.808-.429-1.036a1.955,1.955,0,0,1-1.236-2.024,10.623,10.623,0,0,1,2.63-6.92,1.77,1.77,0,0,1,.769-.571,2.758,2.758,0,0,0,1.989-2.533c.067-.41.267-.8.357-1.206.856-3.879,3.4-6.209,6.982-7.545a29.963,29.963,0,0,1,21.261-.046,11.012,11.012,0,0,1,7.4,8.72c.257,1.224.66,2.22,2.008,2.625a3.028,3.028,0,0,1,1.5,1.471,12.006,12.006,0,0,1,1.808,4.767c.346,2.433-.29,3.275-2.722,3.54A50.783,50.783,0,0,1,63.3,33.877a31.218,31.218,0,0,1-.089,12.255,10.246,10.246,0,0,1-3.1,5.487.8.8,0,0,0-.263.921,12.469,12.469,0,0,1,.047,6.34c-.137.483.134.8.331,1.163A54.4,54.4,0,0,1,64.8,71.127a1.69,1.69,0,0,1-.82,2.206c-.936.39-1.669.07-2.092-1.01-.507-1.293-.827-2.65-1.332-3.947-.646-1.657-1.344-3.29-2.071-4.912-.279-.623-.6-.908-1.342-.558a2.055,2.055,0,0,1-2.28-.268" transform="translate(-5.447 0)"/>
        <path id="Path_189486" data-name="Path 189486" d="M126.026,30.52V21.81c-3.054.633-6.059,1.255-9.064,1.881a16.328,16.328,0,0,1-2.181.453c-.777.052-.843.431-.84,1.071.023,4.311.014,8.621.01,12.932a5.381,5.381,0,0,1-2.6,4.906,5.315,5.315,0,0,1-6.53-.73A5.373,5.373,0,0,1,103.9,35.8a5.234,5.234,0,0,1,6.082-2.458c.966.307,1.082.08,1.068-.818-.048-3.014-.023-6.029-.015-9.043,0-1.221.319-1.591,1.525-1.844q7.169-1.5,14.34-3c1.329-.279,2.071.3,2.073,1.659q.011,7.487,0,14.975a5.367,5.367,0,1,1-3.5-4.96c.15.051.3.113.548.209" transform="translate(-40.277 -7.248)"/>
        <path id="Path_189487" data-name="Path 189487" d="M81.043,102.469a2.925,2.925,0,0,0,2.848-.29c.469-.385.523.161.639.387a48.057,48.057,0,0,1,3.59,9.056c.373,1.332.729,1.582,2.041,1.541.159,1.015.351,2.025.466,3.045.066.588.568.605.9.851-1.624-.136-2.118.345-1.963,2a40.386,40.386,0,0,1-1.3,14.873c-.585,2.071-1.229,2.592-3.344,2.59-.452,0-.9-.019-1.355-.029,1.146-1.539,1.338-3.4,1.729-5.188a37.7,37.7,0,0,0,.77-10.395,44.585,44.585,0,0,0-1.872-10.429,61.969,61.969,0,0,0-3.152-8.016" transform="translate(-31.631 -39.829)" fill="#bec4ea"/>
        <path id="Path_189488" data-name="Path 189488" d="M14.556,134.023c2.947,0,5.893.023,8.839-.017.7-.01.883.193.846.865-.057,1.033-.03,2.072-.008,3.108.01.461-.068.7-.622.7q-9.081-.026-18.164,0c-.527,0-.664-.187-.651-.678.027-1.068.051-2.139-.007-3.2-.037-.677.229-.791.832-.785,2.978.028,5.957.013,8.936.013" transform="translate(-1.867 -52.303)" fill="#5fa6ed"/>
        <path id="Path_189489" data-name="Path 189489" d="M16.218,146.412c2.075,0,4.15.017,6.224-.012.563-.008.772.1.783.735.079,4.243-2.285,6.7-6.506,6.7a16.167,16.167,0,0,1-2.523-.073,6.038,6.038,0,0,1-4.973-6.9c.083-.593.455-.439.769-.441,2.075-.012,4.15-.006,6.224-.006" transform="translate(-3.576 -57.141)" fill="#dfada1"/>
        <path id="Path_189490" data-name="Path 189490" d="M114.959,81.7a5.375,5.375,0,0,1-5.407,5.447,5.429,5.429,0,1,1,5.407-5.447" transform="translate(-40.635 -29.777)" fill="#6a61b1"/>
        <path id="Path_189491" data-name="Path 189491" d="M121.924,92.613a8.532,8.532,0,0,0,2.675-4.326c.093-.366.163-.521.557-.29,2.285,1.345,4.613,2.622,6.858,4.029a2.644,2.644,0,0,1,.785,3.616,2.815,2.815,0,0,1-3.625,1.14,5.381,5.381,0,0,1-.516-.269c-2.21-1.279-4.418-2.56-6.733-3.9" transform="translate(-47.588 -34.303)" fill="#76d0b2"/>
        <path id="Path_189492" data-name="Path 189492" d="M62.794,55.156a21.086,21.086,0,0,1-.562,5.065,8.1,8.1,0,0,1-4.208,5.423,22.018,22.018,0,0,1-9.008,2.469,29.307,29.307,0,0,1-11.877-1.35,10.737,10.737,0,0,1-7.416-8.138c-.253-1.036-.471-2.081-.684-3.126-.339-1.668-1.057-2.06-2.605-1.388a5.747,5.747,0,0,1-3.889.305,4.806,4.806,0,0,1-3.751-4.99,4.973,4.973,0,0,1,4.316-4.344,6.019,6.019,0,0,1,3.146.351c1.531.617,2.305.1,2.483-1.569a39.327,39.327,0,0,1,.989-5.438.836.836,0,0,1,.963-.766q13.806.037,27.613,0c.609,0,.814.244,1.028.745a45.342,45.342,0,0,1,3.462,16.753" transform="translate(-7.331 -14.698)" fill="#dfada1"/>
        <path id="Path_189493" data-name="Path 189493" d="M61.053,28.146c-1.652.01-3.3.03-4.954.03q-16.084,0-32.168,0H22.868a5.147,5.147,0,0,1,3.278-4.948,36.052,36.052,0,0,1,10.607-2.16,68.54,68.54,0,0,1,19.811,1.069,13.554,13.554,0,0,1,3.15.921,10.2,10.2,0,0,1,1.555,4.284.859.859,0,0,1-.217.8" transform="translate(-8.925 -8.118)" fill="#5391f8"/>
        <path id="Path_189494" data-name="Path 189494" d="M58.762,12.658a81.627,81.627,0,0,0-15.794-.829,56.667,56.667,0,0,0-10.586,1.314c-.276.063-.559.093-.866.143.526-2.877,1.768-5.094,4.553-6.33a26.229,26.229,0,0,1,12.9-2.024,19.629,19.629,0,0,1,7.487,1.81c1.808,1.263,2.079,3.326,2.685,5.207.086.267.134.682-.38.708" transform="translate(-12.301 -1.887)" fill="#9dc7fb"/>
        <path id="Path_189495" data-name="Path 189495" d="M37.995,84.433a17.822,17.822,0,0,0,7.5,3.886,29.45,29.45,0,0,0,7.958,1.059c.694-.005.859.141.738.863a17.31,17.31,0,0,1-1.5,5.288,1.214,1.214,0,0,1-1.728.691,23.687,23.687,0,0,1-12.788-10.88,3.7,3.7,0,0,1-.24-.632c-.016-.051.022-.119.057-.276" transform="translate(-14.806 -32.955)" fill="#62a3fa"/>
        <path id="Path_189496" data-name="Path 189496" d="M75.028,90.171a26.085,26.085,0,0,0,5.918-2.03,7.881,7.881,0,0,1-.505,5.523c-.3.558-.616.712-1.213.314a23.067,23.067,0,0,1-4.2-3.807" transform="translate(-29.284 -34.402)" fill="#5ea6ed"/>
        <path id="Path_189497" data-name="Path 189497" d="M27.242,37.679c1.8,0,1.794,0,1.385,1.8-.171.754-.308,1.517-.428,2.281-.063.4-.187.489-.627.448a14.794,14.794,0,0,0-2.71-.007c-.505.048-.662,0-.543-.515q.392-1.7.756-3.4a.674.674,0,0,1,.808-.619c.451.037.906.008,1.359.008" transform="translate(-9.477 -14.701)" fill="#774132"/>
        <path id="Path_189498" data-name="Path 189498" d="M74.729,13.88c.51-.526.077-1.065-.076-1.516a11.1,11.1,0,0,0-2.229-4.4c3.182,1,4.681,3.342,5.233,6.571l-2.928-.655" transform="translate(-28.267 -3.108)" fill="#61a3f9"/>
        <path id="Path_189499" data-name="Path 189499" d="M84.64,29.593a11.959,11.959,0,0,0-1.123-4.356c-.093-.235-.145-.487-.215-.73a5,5,0,0,1,3.909,4.649c.045.433-.1.485-.452.473-.706-.024-1.413-.026-2.119-.036" transform="translate(-32.513 -9.565)" fill="#4880f6"/>
        <path id="Path_189500" data-name="Path 189500" d="M137.571,44.58a2.474,2.474,0,0,1-2.514,2.406,2.448,2.448,0,0,1-2.362-2.547,2.392,2.392,0,0,1,2.455-2.333,2.42,2.42,0,0,1,2.422,2.474" transform="translate(-51.791 -16.434)" fill="#e074a4"/>
        <path id="Path_189501" data-name="Path 189501" d="M110.448,52.11A2.445,2.445,0,0,1,108,49.65a2.419,2.419,0,0,1,2.386-2.416,2.439,2.439,0,1,1,.065,4.876" transform="translate(-42.151 -18.435)" fill="#e074a4"/>
        <path id="Path_189502" data-name="Path 189502" d="M64.494,64.09a27.349,27.349,0,0,0,7.157-.006c2.572-.215,3.879,1.158,3.77,3.723a7.59,7.59,0,0,1-15.18-.014c-.076-2.67,1.154-3.858,4.253-3.7" transform="translate(-23.511 -25.004)"/>
        <path id="Path_189503" data-name="Path 189503" d="M53.766,46.136a3.133,3.133,0,0,1,2.183.91,8.38,8.38,0,0,1,1.864,2.813A1.456,1.456,0,1,1,55.2,51.142c-.328-.556-.633-1.125-.977-1.672-.252-.4-.56-.412-.818,0-.325.519-.634,1.05-.939,1.582a1.5,1.5,0,0,1-2.014.8,1.476,1.476,0,0,1-.6-2.084,8.247,8.247,0,0,1,1.9-2.791,3.083,3.083,0,0,1,2.014-.843" transform="translate(-19.384 -18.007)"/>
        <path id="Path_189504" data-name="Path 189504" d="M79.333,46.137a3.066,3.066,0,0,1,2.013.854,8.3,8.3,0,0,1,1.967,2.973,1.44,1.44,0,0,1-.7,1.894,1.424,1.424,0,0,1-1.909-.654c-.252-.413-.446-.862-.7-1.273-.642-1.028-.824-1.022-1.482.037-.221.356-.393.742-.6,1.107a1.467,1.467,0,1,1-2.6-1.323,8.456,8.456,0,0,1,1.836-2.718,3.15,3.15,0,0,1,2.186-.9" transform="translate(-29.318 -18.008)"/>
        <path id="Path_189505" data-name="Path 189505" d="M66.674,68.915a22.658,22.658,0,0,0,6.771-.071c.622-.076.968.045.91.8a5.13,5.13,0,0,1-4.511,4.6,5.006,5.006,0,0,1-4.79-4.042c-.243-1.3-.132-1.419,1.621-1.289" transform="translate(-25.353 -26.863)" fill="#e074a4"/>
      </g>
    </g>
  </g>
</svg>
