<svg xmlns="http://www.w3.org/2000/svg" xmlns:xlink="http://www.w3.org/1999/xlink" width="214" height="141" viewBox="0 0 214 141">
  <defs>
    <clipPath id="clip-path">
      <rect id="Rectangle_47390" data-name="Rectangle 47390" width="98.177" height="98.145" fill="none"/>
    </clipPath>
  </defs>
  <g id="_44" data-name="44" transform="translate(-749 -10737)">
    <rect id="Rectangle_47336" data-name="Rectangle 47336" width="214" height="141" rx="12" transform="translate(749 10737)" fill="#fc5f65"/>
    <g id="Group_176433" data-name="Group 176433" transform="translate(806.847 10758.844)">
      <g id="Group_176432" data-name="Group 176432" transform="translate(0 0)" clip-path="url(#clip-path)">
        <path id="Path_189570" data-name="Path 189570" d="M63.1,98.145H1.378a2.584,2.584,0,0,1-1.36-2.589q.036-46.495,0-92.99A2.6,2.6,0,0,1,1.38,0H63.1c.226.378.631.182.943.269a9.617,9.617,0,0,1,7.3,9.578q.015,16.424,0,32.851a1.212,1.212,0,0,0,.74,1.308,5.45,5.45,0,0,1,3.095,5.021q.065,3.878,0,7.758a5.458,5.458,0,0,1-3.084,5.023,1.216,1.216,0,0,0-.746,1.307q.026,12.641,0,25.285a9.634,9.634,0,0,1-6.65,9.3c-.535.172-1.125.1-1.6.446M13.466,55.757c1.451.321,1.9.887,1.905,2.4V93.421c0,.555-.039.907.755.907q22.807-.041,45.616-.028a5.7,5.7,0,0,0,5.768-5.625c0-.055,0-.109,0-.163.022-8.433,0-16.873.022-25.3,0-.588-.137-.748-.726-.741-2.81.034-5.624,0-8.433.025a2.661,2.661,0,0,1-2.054-.825c-2.382-2.406-4.792-4.786-7.175-7.19a1.941,1.941,0,0,1,0-3.159c2.383-2.4,4.793-4.786,7.175-7.191a2.66,2.66,0,0,1,2.054-.824c2.747.03,5.5-.02,8.241.03.758.015.929-.2.927-.938q-.036-16.2-.018-32.393a5.767,5.767,0,0,0-6.155-6.169q-22.519,0-45.044-.023c-.834,0-.959.248-.956,1.007q.041,17.585.018,35.171c0,1.512-.455,2.074-1.9,2.4a2.016,2.016,0,0,1-1.961-2.07,2.071,2.071,0,0,1,.032-.305q0-17.582.021-35.166c0-.867-.233-1.061-1.057-1.033-1.814.066-3.642.08-5.459,0C4.1,3.772,3.86,4.032,3.86,5q.045,44.087.023,88.152a3.445,3.445,0,0,1,0,.479c-.078.544.16.7.7.693,1.948-.029,3.9-.064,5.845.012.908.034,1.155-.192,1.152-1.134q-.056-17.532-.022-35.07a2.015,2.015,0,0,1,1.613-2.348,1.992,1.992,0,0,1,.3-.032m50.836,2.9c1.632,0,3.257.011,4.884,0a1.935,1.935,0,0,0,2.152-2.125q.026-3.592,0-7.184a1.949,1.949,0,0,0-1.689-2.177,1.973,1.973,0,0,0-.488,0c-3.257-.011-6.515,0-9.772-.013a1.387,1.387,0,0,0-1.089.434c-1.587,1.62-3.182,3.233-4.809,4.808-.447.432-.381.662.023,1.059q2.4,2.338,4.742,4.741a1.462,1.462,0,0,0,1.172.479c1.614-.04,3.241-.024,4.873-.024Z" transform="translate(0 0)" fill="#010101"/>
        <path id="Path_189571" data-name="Path 189571" d="M87.181,0h1.15a3.358,3.358,0,0,1,1.494,1.873q1.909,4.888,3.884,9.746c1.208,2.967,2.28,5.988,3.629,8.89V90.284c-.328.139-.262.483-.334.726a9.618,9.618,0,0,1-6.421,6.713c-.49.181-1.052.064-1.486.411h-3.07c-.077-.3-.363-.223-.545-.279A9.58,9.58,0,0,1,78.177,88.1V21.619a4.6,4.6,0,0,1,.345-1.762q3.628-9.028,7.221-18.079A3.282,3.282,0,0,1,87.181,0M85.839,50.9V46.874c0-6.483-.012-12.967.02-19.45,0-.77-.182-.927-.89-.7a3.231,3.231,0,0,1-2,.018c-.961-.333-.986.109-.985.872q.026,22.316.02,44.643c0,.944-.413,2.206.182,2.742.519.464,1.763.074,2.675.161.81.079.987-.181.983-.981C85.826,66.417,85.839,58.657,85.839,50.9Zm3.834,0V72.359c0,.888-.312,2.077.134,2.591.519.6,1.744.078,2.649.2s1.07-.238,1.068-1.089Q93.483,50.842,93.5,27.6a3.158,3.158,0,0,1,0-.479c.076-.523-.182-.587-.6-.464a3.96,3.96,0,0,1-2.271.073c-.826-.253-.987-.043-.983.788.037,7.8.025,15.591.025,23.379ZM87.753,86.639H84.124c-2.209,0-2.209,0-2.106,2.209A5.747,5.747,0,0,0,92.283,92.1a7.012,7.012,0,0,0,1.244-4.788c-.012-.544-.181-.691-.7-.682-1.693.034-3.38.015-5.071.015Zm.267-71.3c-1.123,0-2.051.023-2.976-.011a.726.726,0,0,0-.824.577c-.626,1.633-1.271,3.266-1.961,4.872a1.384,1.384,0,0,0,.583,1.869l.013.007c1.271.9,2.763.074,2.989-1.633a1.91,1.91,0,0,1,3.817-.032,2.429,2.429,0,0,0,.363,1.168,1.878,1.878,0,0,0,2.455.617c.9-.477,1.089-1.143.664-2.23-.294-.74-.582-1.482-.883-2.219-.394-.97-.545-2.255-1.271-2.814-.774-.591-2.09-.1-2.972-.173Zm-.312,67.473c1.723,0,3.447-.018,5.173.012.5,0,.662-.126.638-.635-.039-.89-.03-1.789,0-2.681.015-.42-.116-.544-.544-.544q-5.222.023-10.443,0c-.413,0-.554.108-.545.533.031.895.04,1.789,0,2.682-.021.5.132.648.638.639,1.7-.023,3.39-.007,5.081-.007Zm1.814-71.33L87.76,7.1l-1.751,4.382Z" transform="translate(0.84 0)" fill="#010101"/>
        <path id="Path_189572" data-name="Path 189572" d="M13.324,42.348c1.451-.324,1.9-.886,1.905-2.4q0-17.585-.018-35.171c0-.759.121-1.008.956-1.008q22.522.045,45.043.024a5.764,5.764,0,0,1,6.155,6.169q0,16.2.018,32.393c0,.739-.167.953-.927.938-2.747-.051-5.5,0-8.241-.03a2.662,2.662,0,0,0-2.054.824c-2.382,2.406-4.791,4.788-7.175,7.191a1.941,1.941,0,0,0,0,3.159c2.384,2.4,4.793,4.784,7.175,7.19a2.661,2.661,0,0,0,2.054.825c2.812-.028,5.625,0,8.433-.025.6,0,.737.153.726.74-.021,8.434,0,16.873-.021,25.3a5.7,5.7,0,0,1-5.606,5.787h-.163q-22.807.023-45.616.028c-.792,0-.756-.363-.755-.907q.014-17.631,0-35.268c0-1.511-.457-2.077-1.9-2.4V50.977c1.288-.283,1.926-.954,1.9-2-.026-1-.65-1.624-1.9-1.9ZM41.292,11.463H26.543c-1.849,0-2.492.635-2.492,2.454V28.093c0,1.914.617,2.54,2.5,2.54h29.5c1.851,0,2.492-.635,2.5-2.454V13.908c0-1.783-.651-2.442-2.412-2.442q-7.427-.009-14.85-.005Zm0,58.656H52.5c1.406,0,2.812.031,4.212-.018a1.883,1.883,0,0,0,1.839-1.926v-.012a1.921,1.921,0,0,0-1.814-1.869c-.256-.02-.51,0-.768,0h-29.3a7.436,7.436,0,0,0-.862.014,1.918,1.918,0,0,0-1.736,2.036,1.963,1.963,0,0,0,2.123,1.79l.077-.008H41.291Zm0,3.834H27.31c-.477,0-.959-.021-1.434.011a1.908,1.908,0,0,0,.012,3.814c.223.02.447,0,.67,0H56.052a5.33,5.33,0,0,0,.861-.029,1.909,1.909,0,0,0-.01-3.779,6.714,6.714,0,0,0-.956-.025Zm-5.747,9.555a1.913,1.913,0,0,0-3.827.035v.026a1.913,1.913,0,0,0,3.827-.044v-.017Zm5.765,1.947a1.915,1.915,0,0,0-.005-3.831h-.018a1.914,1.914,0,0,0,0,3.829h.018Zm9.571-1.9a1.915,1.915,0,0,0-3.83-.05v.015a1.915,1.915,0,0,0,3.83.048v-.013Z" transform="translate(0.143 0.041)" fill="#d9a171"/>
        <path id="Path_189573" data-name="Path 189573" d="M13.42,50.979v4.739a2.013,2.013,0,0,0-1.959,2.067,1.956,1.956,0,0,0,.032.307q0,17.537.021,35.07c0,.942-.241,1.168-1.152,1.134-1.947-.076-3.9-.041-5.845-.012-.544,0-.773-.142-.694-.693a3.789,3.789,0,0,0,0-.479q0-44.073-.024-88.152c0-.972.237-1.232,1.2-1.189,1.814.086,3.643.07,5.459,0,.824-.028,1.059.166,1.057,1.033q-.049,17.582-.021,35.166a2.014,2.014,0,0,0,1.623,2.343,2.071,2.071,0,0,0,.305.032v4.738c-1.271.24-1.926.9-1.926,1.942s.637,1.687,1.926,1.954" transform="translate(0.041 0.041)" fill="#908686"/>
        <path id="Path_189574" data-name="Path 189574" d="M63.738,58.156c-1.633,0-3.266-.018-4.886.011a1.463,1.463,0,0,1-1.172-.479q-2.344-2.4-4.742-4.74c-.4-.4-.47-.628-.023-1.06,1.632-1.577,3.224-3.189,4.809-4.807a1.389,1.389,0,0,1,1.089-.434c3.257.018,6.515,0,9.772.012a1.948,1.948,0,0,1,2.177,1.689,1.972,1.972,0,0,1,0,.488q.02,3.59,0,7.184a1.933,1.933,0,0,1-2.152,2.125c-1.616.022-3.243.011-4.871.011m-2.585-7.663a1.914,1.914,0,0,0,.065,3.827h.019a1.934,1.934,0,0,0,1.872-1.994v-.011A1.934,1.934,0,0,0,61.153,50.493Z" transform="translate(0.565 0.501)" fill="#fd9155"/>
        <path id="Path_189575" data-name="Path 189575" d="M85.8,50.615c0,7.759-.013,15.519.02,23.28,0,.793-.182,1.06-.983.981-.908-.087-2.157.3-2.676-.161-.6-.545-.181-1.8-.181-2.742q-.017-22.314-.02-44.643c0-.762.023-1.2.985-.872a3.228,3.228,0,0,0,2-.018c.708-.221.9-.068.891.7-.033,6.483-.02,12.967-.02,19.45Z" transform="translate(0.879 0.283)" fill="#fed98e"/>
        <path id="Path_189576" data-name="Path 189576" d="M89.553,50.616c0-7.791.013-15.583-.018-23.373,0-.833.158-1.041.983-.789a3.969,3.969,0,0,0,2.271-.072c.425-.124.679-.059.6.464a3.158,3.158,0,0,0,0,.479q0,23.231.02,46.462c0,.845-.171,1.2-1.068,1.089s-2.131.392-2.649-.2c-.447-.515-.132-1.7-.134-2.591q-.009-10.736-.007-21.465" transform="translate(0.961 0.283)" fill="#fed98e"/>
        <path id="Path_189577" data-name="Path 189577" d="M87.712,85.721c1.689,0,3.378.02,5.067-.011.529,0,.691.133.7.682a7.007,7.007,0,0,1-1.245,4.788,5.747,5.747,0,0,1-10.265-3.249c-.105-2.21-.105-2.21,2.106-2.21Z" transform="translate(0.88 0.921)" fill="#a66d58"/>
        <path id="Path_189578" data-name="Path 189578" d="M87.978,15.172c.878.073,2.2-.42,2.969.182.726.558.876,1.843,1.27,2.814.3.736.588,1.478.883,2.219.431,1.089.23,1.753-.664,2.23A1.876,1.876,0,0,1,89.981,22a2.414,2.414,0,0,1-.363-1.168,1.911,1.911,0,0,0-3.818.032c-.225,1.7-1.72,2.524-2.988,1.632a1.383,1.383,0,0,1-.6-1.862l.007-.014c.7-1.6,1.335-3.234,1.961-4.871A.727.727,0,0,1,85,15.172c.926.025,1.855,0,2.978,0" transform="translate(0.882 0.162)" fill="#f8e4cd"/>
        <path id="Path_189579" data-name="Path 189579" d="M87.667,81.97c-1.691,0-3.385-.018-5.08.013-.5,0-.659-.134-.637-.639.041-.891.032-1.787,0-2.682-.013-.425.127-.545.544-.534q5.221.024,10.443,0c.421,0,.545.118.545.544-.029.891-.036,1.789,0,2.682.023.508-.139.643-.639.636-1.725-.038-3.453-.02-5.176-.02" transform="translate(0.88 0.84)" fill="#edf9fe"/>
        <path id="Path_189580" data-name="Path 189580" d="M89.431,11.405h-3.51l1.751-4.382Z" transform="translate(0.923 0.076)" fill="#908686"/>
        <path id="Path_189581" data-name="Path 189581" d="M41.177,11.38H56.025c1.76,0,2.41.659,2.412,2.442V28.093c0,1.814-.646,2.455-2.5,2.455h-29.5c-1.887,0-2.5-.626-2.5-2.54V13.831c0-1.814.646-2.453,2.492-2.455Zm0,15.336c4.218,0,8.433-.013,12.65.014.627,0,.789-.16.782-.783q-.049-4.982,0-9.966c0-.628-.163-.782-.783-.78q-12.649.029-25.3,0c-.626,0-.789.16-.781.784q.045,4.982,0,9.966c0,.629.165.787.787.781,4.218-.03,8.435-.016,12.65-.016Z" transform="translate(0.257 0.123)"/>
        <path id="Path_189582" data-name="Path 189582" d="M41.177,69.455H26.142a1.964,1.964,0,0,1-2.191-1.705c0-.025-.005-.051-.008-.077a1.919,1.919,0,0,1,1.736-2.036,7.667,7.667,0,0,1,.862-.014h29.3c.258,0,.511-.011.767,0a1.922,1.922,0,0,1,1.814,1.869A1.883,1.883,0,0,1,56.6,69.431h-.012c-1.4.046-2.807.018-4.213.018Z" transform="translate(0.257 0.705)" fill="#000101"/>
        <path id="Path_189583" data-name="Path 189583" d="M41.178,73.207H55.83a6.705,6.705,0,0,1,.956.025,1.909,1.909,0,0,1,.011,3.779,5.458,5.458,0,0,1-.862.029H26.441c-.222,0-.446.011-.669,0a1.908,1.908,0,0,1-.013-3.814c.476-.033.956-.011,1.435-.011Z" transform="translate(0.257 0.787)" fill="#000101"/>
        <path id="Path_189584" data-name="Path 189584" d="M35.35,82.677a1.93,1.93,0,0,1-1.914,1.947h-.019a1.915,1.915,0,0,1,.01-3.83h.025a1.93,1.93,0,0,1,1.9,1.883" transform="translate(0.339 0.868)" fill="#050707"/>
        <path id="Path_189585" data-name="Path 189585" d="M41.032,84.624A1.927,1.927,0,0,1,39.107,82.7v-.022a1.914,1.914,0,0,1,3.828.051v.019a1.936,1.936,0,0,1-1.9,1.881" transform="translate(0.42 0.868)" fill="#050707"/>
        <path id="Path_189586" data-name="Path 189586" d="M50.523,82.727a1.935,1.935,0,0,1-1.969,1.9h-.012a1.916,1.916,0,0,1,.115-3.831h.015a1.933,1.933,0,0,1,1.851,1.933" transform="translate(0.502 0.868)" fill="#050707"/>
        <path id="Path_189587" data-name="Path 189587" d="M13.344,50.516c-1.3-.267-1.928-.907-1.926-1.947s.653-1.7,1.926-1.942c1.253.273,1.876.895,1.9,1.9.023,1.038-.619,1.709-1.9,1.992" transform="translate(0.123 0.501)" fill="#050707"/>
        <path id="Path_189588" data-name="Path 189588" d="M61.082,50.452a1.91,1.91,0,1,1,.1,3.819h-.011a1.928,1.928,0,0,1-1.956-1.9v-.019a1.928,1.928,0,0,1,1.872-1.9" transform="translate(0.636 0.542)" fill="#070402"/>
        <path id="Path_189589" data-name="Path 189589" d="M41.144,26.673c-4.215,0-8.433-.012-12.647.015-.621,0-.791-.152-.787-.781q.053-4.982,0-9.966c0-.627.156-.784.782-.784q12.649.033,25.3,0c.621,0,.791.153.784.78q-.05,4.982,0,9.966c0,.626-.157.789-.782.783-4.215-.025-8.43-.013-12.647-.013" transform="translate(0.298 0.163)" fill="#edf9fe"/>
      </g>
    </g>
  </g>
</svg>
