<svg id="_46" data-name="46" xmlns="http://www.w3.org/2000/svg" xmlns:xlink="http://www.w3.org/1999/xlink" width="71" height="63.463" viewBox="0 0 71 63.463">
  <defs>
    <clipPath id="clip-path">
      <rect id="Rectangle_47391" data-name="Rectangle 47391" width="71" height="63.463" fill="none"/>
    </clipPath>
  </defs>
  <g id="Group_176435" data-name="Group 176435" clip-path="url(#clip-path)">
    <path id="Path_189591" data-name="Path 189591" d="M17.666,59.133c-.232,1-.843,1.273-1.793.787A36.743,36.743,0,0,1,1.958,47.143c-.51-.767-1-1.551-1.456-2.35a3.571,3.571,0,0,1,.44-4.241q3.808-4.313,7.935-8.323c.7-.679,1.22-.642,1.847.109.408.288.264.645.1.984a2.9,2.9,0,0,1-.666.792C8,36.232,5.919,38.423,3.811,40.764c1.651-.36,3.195-.686,4.735-1.027,4.489-.993,8.962-2.063,13.473-2.951a74.863,74.863,0,0,1,8.37-1.113c1.613-.131,3.234-.163,4.839-.187,1.763-.026,3.547.065,5.322.189a70.722,70.722,0,0,1,10.208,1.464q7.719,1.689,15.428,3.424a5.274,5.274,0,0,0,.989.167c-.773-.806-1.429-1.531-2.1-2.225a115.857,115.857,0,0,0-10.365-9.7c-.378-.3-.787-.57-1.154-.887a.875.875,0,0,0-1.241,0c-1.211.887-2.431,1.763-3.651,2.64-.206.149-.415.293-.623.44a2.434,2.434,0,0,1-2.683.218,2.492,2.492,0,0,1-1.29-2.3c-.036-1.131-.008-2.265-.01-3.4a5.651,5.651,0,0,0-.017-.693.851.851,0,0,0-1.152-.833,9.429,9.429,0,0,0-5.562,3.271A2.642,2.642,0,0,1,35.9,28.4a2.112,2.112,0,0,1-2.249-.866A8.7,8.7,0,0,0,30.662,25a9.251,9.251,0,0,0-9.615.311,55.041,55.041,0,0,0-6.3,4.637,3.279,3.279,0,0,1-.781.57c-.374.16-.755.253-1.065-.138-.665-.618-.748-1.183-.155-1.7a39.872,39.872,0,0,1,8.5-6.02,11.612,11.612,0,0,1,13.795,2.964c.277.331.4.409.674.013a6.069,6.069,0,0,1,1.254-1.286c.448-.355.912-.69,1.369-1.034-.092-.183-.3-.192-.458-.277a4.594,4.594,0,0,1-2.587-4.19c-.038-1.708-.017-3.417-.006-5.126,0-.823.23-1.081,1.047-1.292.713-.1,1.118.25,1.157,1.06.046.945.011,1.892.016,2.839,0,.716-.022,1.432.009,2.147A2.6,2.6,0,0,0,40.4,21.278c.808,0,1.616-.006,2.424,0a3.618,3.618,0,0,1,3.685,3.683c.011,1.039,0,2.078.006,3.116,0,.246-.1.579.131.712s.452-.151.649-.292c2.911-2.08,5.8-4.191,8.7-6.287a4.707,4.707,0,0,1,2.964-.948c2.354.046,4.708.016,7.063.013a2.472,2.472,0,0,0,2.245-1.121,3.151,3.151,0,0,0,.436-1.722c0-4.457.005-8.913-.005-13.37A2.522,2.522,0,0,0,66.02,2.286C65.512,2.265,65,2.279,64.5,2.279q-11.881,0-23.761,0a3.948,3.948,0,0,0-2.129.486A2.618,2.618,0,0,0,37.524,5.1c-.049,1.129.011,2.26-.022,3.39-.029.99-.46,1.305-1.429,1.094a1.051,1.051,0,0,1-.786-1.093c0-1.34-.057-2.683.026-4.019A4.636,4.636,0,0,1,40.177.008Q51.37,0,62.564,0c1.247,0,2.5-.015,3.742,0A4.683,4.683,0,0,1,70.86,3.571c.03.107.012.234.141.293V19.669a4.654,4.654,0,0,1-4.947,4.058c-2.287.007-4.574.017-6.861-.008a2.936,2.936,0,0,0-1.935.6c-.565.437-1.135.874-1.736,1.264-.355.231-.424.443-.044.734A111.164,111.164,0,0,1,66.715,36.7c1.216,1.233,2.359,2.534,3.523,3.816a2.486,2.486,0,0,1,.691,1.9,8.727,8.727,0,0,1-.038,1.282,2.057,2.057,0,0,1-.317.977C66.762,51.2,61.782,56.55,54.958,60.02a32.532,32.532,0,0,1-13,3.431,18.973,18.973,0,0,1-4.566-.681,9.376,9.376,0,0,0-4.458.146,16.971,16.971,0,0,1-7.813.093,29.865,29.865,0,0,1-3.568-.819c-1.063-.31-1.3-.9-.764-1.864.328-.577.847-.479,1.338-.337a32.213,32.213,0,0,0,5.085,1.023,12.1,12.1,0,0,0,4.93-.251,10.546,10.546,0,0,1,5.821-.163,18.161,18.161,0,0,0,9.227-.175A30.367,30.367,0,0,0,60.676,53.4a39.723,39.723,0,0,0,6.977-8.286,1.413,1.413,0,0,1,.289-.341c-1.7.7-3.338,1.319-4.986,1.9a75.685,75.685,0,0,1-7.5,2.212,2.926,2.926,0,0,1-.547.081c-.922.04-1.334-.34-1.4-1.293.111-.751.68-1,1.305-1.157,1.789-.456,3.582-.9,5.335-1.486.241-.08.48-.166.719-.251,1.62-.516,3.225-1.073,4.906-1.795-4.974-1.093-9.825-2.18-14.686-3.23a76.045,76.045,0,0,0-10.6-1.6c-1.682-.141-3.373-.184-5.044-.186a55.112,55.112,0,0,0-5.528.217,77.634,77.634,0,0,0-9.974,1.567c-4.855,1.051-9.707,2.123-14.712,3.24,1.746.7,3.36,1.3,5.006,1.8A79.088,79.088,0,0,0,25.267,48.16c2.631.331,5.274.48,7.927.586A81.664,81.664,0,0,0,48.83,47.719a7.105,7.105,0,0,1,.962-.1,1.135,1.135,0,0,1,1.186.66c.226,1.078-.089,1.6-1.149,1.78a81.052,81.052,0,0,1-8.523,1.02c-1.935.125-3.875.252-5.806.236a85.525,85.525,0,0,1-24.307-3.6c-2.677-.815-5.3-1.758-7.906-2.837-.089.156.061.238.119.328a36.6,36.6,0,0,0,9.669,10.377c1.25.881,2.588,1.61,3.9,2.389.426.254.939.494.694,1.165" transform="translate(0 0)" fill="#060102"/>
    <path id="Path_189592" data-name="Path 189592" d="M157.687,93.99a.8.8,0,0,1,.121.022V95.4l-.11.036q-.006-.722-.011-1.444" transform="translate(-86.808 -51.742)" fill="#515151"/>
    <path id="Path_189593" data-name="Path 189593" d="M57.041,102.175c.156.986.618,1.259,1.686,1A85.481,85.481,0,0,0,71,99.16l.643-.262c-.191.336-.308.564-.445.779A35.184,35.184,0,0,1,57.122,112.75a30.352,30.352,0,0,1-11.9,3.064,9.35,9.35,0,0,1-2.934-.413,11.513,11.513,0,0,0-6.227-.1,17.046,17.046,0,0,1-8.072-.075A25.14,25.14,0,0,1,25.5,114.6a1.483,1.483,0,0,0-1.316.166l-3.122-1.192c-.039-.592-.446-.854-.919-1.1A35.363,35.363,0,0,1,6.358,99.285c-.049-.078-.084-.164-.18-.355,1.037.4,1.983.779,2.934,1.143A82.842,82.842,0,0,0,28.8,104.922a85.556,85.556,0,0,0,16.8.36c2.554-.191,5.091-.535,7.618-.954.9-.149,1.171-.529,1.075-1.5.014-.044.025-.106.059-.12a5.41,5.41,0,0,1,2.692-.532" transform="translate(-3.401 -54.444)" fill="#d72f3c"/>
    <path id="Path_189594" data-name="Path 189594" d="M16.983,59.226c.636.3,1.1-.019,1.555-.415a46.5,46.5,0,0,1,5.453-4.147,15.085,15.085,0,0,1,4.555-2.126,8.764,8.764,0,0,1,4.243.356A8.931,8.931,0,0,1,38,56.406a1.778,1.778,0,0,0,3-.073A9.522,9.522,0,0,1,46.9,52.654c.9-.2,1.408.185,1.427,1.126.025,1.27.021,2.541,0,3.811a2.317,2.317,0,0,0,3.859,1.989c1.412-1.041,2.857-2.039,4.253-3.1a.807.807,0,0,1,1.18.027A106.615,106.615,0,0,1,69.671,67.644c.638.667,1.258,1.353,1.883,2.032.026.028.022.085.05.206-1.6-.354-3.159-.712-4.726-1.044-5.184-1.1-10.322-2.424-15.546-3.33a71.049,71.049,0,0,0-16.558-.824,107.538,107.538,0,0,0-16.75,2.876Q12.93,68.694,7.836,69.829c-.088.019-.181.018-.419.041.541-.6,1-1.121,1.468-1.629q2.685-2.9,5.516-5.653a1.151,1.151,0,0,0,.406-1.406l2.176-1.956" transform="translate(-4.083 -28.844)" fill="#db4955"/>
    <path id="Path_189595" data-name="Path 189595" d="M80.251,12.828c.966,0,1.279-.3,1.287-1.275.01-1.153,0-2.307.007-3.461A2.478,2.478,0,0,1,82.6,5.89c.283.312.194.7.194,1.059q.01,7.071,0,14.142c0,.277-.009.555.01.832A1.388,1.388,0,0,0,84.35,23.4a26.194,26.194,0,0,1,3.114.088A4.754,4.754,0,0,1,91.8,28.33c.015.323,0,.647.013.97.01.2-.036.458.175.564s.394-.067.559-.188c1.135-.836,2.306-1.622,3.433-2.469,1.219-.917,2.479-1.777,3.7-2.7a5.764,5.764,0,0,1,3.514-1.1c2.842-.028,5.684-.011,8.526-.005.294,0,.609-.046.846.206a2.476,2.476,0,0,1-2.249,1.095c-2.423,0-4.846.024-7.269-.01a4.385,4.385,0,0,0-2.759.906q-4.494,3.288-9.024,6.528c-.19.137-.366.449-.639.294-.22-.125-.1-.422-.1-.641-.009-1.154,0-2.308-.006-3.462a3.437,3.437,0,0,0-3.6-3.613c-.877,0-1.754.006-2.631,0a2.606,2.606,0,0,1-2.738-2.744c-.022-1.661,0-3.323-.009-4.985,0-.852-.2-1.08-1.028-1.3,0-.735,0-1.471.012-2.206a.656.656,0,0,0-.27-.646" transform="translate(-44.179 -3.242)" fill="#94cbd3"/>
    <path id="Path_189596" data-name="Path 189596" d="M115.437,22.927c-3.187,0-6.375-.034-9.561.007a5.638,5.638,0,0,0-3.391,1.177c-2.368,1.782-4.783,3.5-7.184,5.241-.179.129-.386.3-.632.151s-.188-.4-.187-.626a7.411,7.411,0,0,0-.42-3.189,4.643,4.643,0,0,0-4.475-2.765c-.807-.026-1.616,0-2.425,0a1.513,1.513,0,0,1-1.692-1.711q-.009-4.781,0-9.562,0-3.222,0-6.443a2.339,2.339,0,0,1,1.663-.556q13.057-.006,26.115,0a2.593,2.593,0,0,1,2.719,2.762q.008,6.927,0,13.854a2.319,2.319,0,0,1-.533,1.663" transform="translate(-47.05 -2.556)" fill="#a9d7dd"/>
    <path id="Path_189597" data-name="Path 189597" d="M15.98,92.159A32.972,32.972,0,0,1,10.7,90.127q2.495-.559,4.989-1.118,4.781-1.063,9.564-2.117a3.459,3.459,0,0,1,.411-.042A63.209,63.209,0,0,1,33.211,86c1.127-.062,2.252-.183,3.382-.181,2.788,0,5.576-.041,8.364,0a87.729,87.729,0,0,1,11.218.855c.314.045.625.129.942.176,2.45.524,4.9,1.039,7.349,1.574,2.537.554,5.071,1.128,7.8,1.735a42.569,42.569,0,0,1-5.447,2c-1.594.358-3.169.788-4.777,1.093-3.336.633-6.7,1.081-10.072,1.417a107.327,107.327,0,0,1-14.721.423A108.836,108.836,0,0,1,18.994,92.9c-1.014-.213-1.994-.556-3.014-.74" transform="translate(-5.893 -47.236)" fill="#f9f7f7"/>
    <path id="Path_189598" data-name="Path 189598" d="M22.442,99.923a18.7,18.7,0,0,1,3.377.616c2.413.436,4.83.841,7.26,1.183,2.614.368,5.241.606,7.868.793,3.707.264,7.427.212,11.141.142,2.041-.039,4.084-.2,6.115-.412s4.052-.451,6.071-.75q4.257-.629,8.451-1.57a2.566,2.566,0,0,1,.552,0,51.472,51.472,0,0,1-6.139,1.787c-.575.143-1.047.361-1.143,1.021l-2.751.652c-.373-.66-.963-.661-1.606-.547a78.65,78.65,0,0,1-8.312.987,80.945,80.945,0,0,1-13.558-.206,80.235,80.235,0,0,1-16.891-3.506c-.149-.049-.29-.124-.435-.187" transform="translate(-12.354 -55)" fill="#efe8e5"/>
    <path id="Path_189599" data-name="Path 189599" d="M75.444,85.858c-1.187-.1-2.382-.137-3.556-.314-.729-.11-1.464-.133-2.188-.19-3.049-.238-6.105-.373-9.168-.316-2.064.038-4.134-.08-6.193.032-2.239.122-4.481.251-6.718.481a23.428,23.428,0,0,1-3.627.3,47.364,47.364,0,0,1,6.234-1.2,67.712,67.712,0,0,1,12.849-.578,70.671,70.671,0,0,1,12.254,1.7c.041.009.076.049.113.075" transform="translate(-24.219 -46.242)" fill="#efe8e5"/>
    <path id="Path_189600" data-name="Path 189600" d="M108.879,24.058a4.727,4.727,0,0,1-3.124.565,4.321,4.321,0,0,1-3.569-3.254,4.229,4.229,0,0,1,1.379-4.567,4.337,4.337,0,0,1,4.781-.718c.312.127.573.4.7-.23a.874.874,0,0,1,1.043-.608.938.938,0,0,1,.873.764,2.742,2.742,0,0,1,.06.616c0,2.377,0,4.753,0,7.13a1.421,1.421,0,0,1-.324,1.094c-.641.644-1.495.285-1.828-.792" transform="translate(-56.152 -8.389)"/>
    <path id="Path_189601" data-name="Path 189601" d="M94.381,10.083c.3,0,.6-.012.9,0a1.012,1.012,0,0,1,1.068,1.022.947.947,0,0,1-.987,1.021c-.931-.107-.906.384-.9,1.041q.032,4.4,0,8.79c0,.479.123.635.614.619.842-.026,1.277.35,1.281,1,0,.679-.459,1.054-1.326,1.064-.484.005-.97.014-1.453,0-.765-.027-1.175-.4-1.178-1.152q-.022-6.125,0-12.25c0-.811.389-1.139,1.223-1.159.254-.006.507,0,.761,0Z" transform="translate(-50.859 -5.548)"/>
    <path id="Path_189602" data-name="Path 189602" d="M139.15,17.375c0,1.963,0,3.926,0,5.89,0,1.013-.365,1.371-1.38,1.38-.508,0-1.017.022-1.524-.007a1.065,1.065,0,0,1-1.082-1.108,1,1,0,0,1,1.138-.948c.656.049.79-.186.783-.8-.032-3-.024-6,0-9.007,0-.466-.093-.641-.6-.627-.841.024-1.34-.426-1.312-1.077.026-.624.5-.981,1.328-.988.462,0,.924-.006,1.386,0,.894.014,1.26.369,1.264,1.266.009,2.009,0,4.019,0,6.028" transform="translate(-74.407 -5.547)"/>
    <path id="Path_189603" data-name="Path 189603" d="M127.288,9.892a1.044,1.044,0,0,1,.983,1.356c-.3.944-.627,1.879-.983,2.8a1.011,1.011,0,0,1-1.35.628,1.046,1.046,0,0,1-.575-1.375c.287-.875.6-1.742.9-2.612a1.111,1.111,0,0,1,1.022-.8" transform="translate(-68.975 -5.446)" fill="#000101"/>
    <path id="Path_189604" data-name="Path 189604" d="M109.11,20.9a2.418,2.418,0,0,1,2.405,2.435,2.466,2.466,0,0,1-2.455,2.407,2.424,2.424,0,0,1-2.385-2.457A2.376,2.376,0,0,1,109.11,20.9" transform="translate(-58.725 -11.505)" fill="#a9d7dd"/>
  </g>
</svg>
