<svg xmlns="http://www.w3.org/2000/svg" xmlns:xlink="http://www.w3.org/1999/xlink" width="400" height="310" viewBox="0 0 400 310">
  <defs>
    <clipPath id="clip-path">
      <rect id="Rectangle_47394" data-name="Rectangle 47394" width="367" height="310" rx="10" transform="translate(1036 11964)" fill="#a6bbff"/>
    </clipPath>
    <clipPath id="clip-path-2">
      <rect id="Rectangle_47392" data-name="Rectangle 47392" width="400" height="299.555" fill="none"/>
    </clipPath>
  </defs>
  <g id="_47" data-name="47" transform="translate(-1020 -11964)">
    <rect id="Rectangle_47393" data-name="Rectangle 47393" width="367" height="310" rx="10" transform="translate(1037 11964)" fill="#a6bbff"/>
    <g id="Mask_Group_337" data-name="Mask Group 337" transform="translate(1)" clip-path="url(#clip-path)">
      <path id="Union_20" data-name="Union 20" d="M5795.9,11935.6a121.215,121.215,0,1,1,3.774-149.726,155.2,155.2,0,0,1,255.687-17.49,121.273,121.273,0,1,1,26.354,141.367A155.184,155.184,0,0,1,5795.9,11935.6Z" transform="matrix(0.809, -0.588, 0.588, 0.809, -10714.578, 5991.318)" fill="#3c3fa7"/>
    </g>
    <g id="Group_176438" data-name="Group 176438" transform="translate(1020 11974)">
      <g id="Group_176437" data-name="Group 176437" clip-path="url(#clip-path-2)">
        <path id="Path_189605" data-name="Path 189605" d="M128.2,25.3H78.283a.874.874,0,0,1-.853-1.064L82.593,1.06a.874.874,0,0,1,.852-.684h48.526a.874.874,0,0,1,.863,1.014l-3.77,23.174a.873.873,0,0,1-.862.733" transform="translate(19.568 0.095)" fill="#ffb6c8"/>
        <path id="Path_189606" data-name="Path 189606" d="M68.212,120.825l31.181,7.815L89.617,137.4,68.212,135.7Z" transform="translate(17.243 30.544)" fill="#fea41a"/>
        <path id="Path_189607" data-name="Path 189607" d="M89.352,29.017s-6.959-4.295-6.572-12.028c.262-5.254,4.7-7.434,5.369-1.86s3.489,2.989,5.164,7.822.3,8.023.3,8.023Z" transform="translate(20.922 2.998)" fill="#cd7c54"/>
        <path id="Path_189608" data-name="Path 189608" d="M131.34,26.951H81.386a.874.874,0,0,1-.872-.923L81.914,1.2a.874.874,0,0,1,.872-.824H131.34a.873.873,0,0,1,.873.873V26.078a.873.873,0,0,1-.873.873" transform="translate(20.353 0.095)" fill="#d7e5ff"/>
        <path id="Path_189609" data-name="Path 189609" d="M90.346,16.157s-.371,9.306,3.058,13.037,2.959-11.984,2.959-11.984Z" transform="translate(22.836 4.084)" fill="#cd7c54"/>
        <path id="Path_189610" data-name="Path 189610" d="M136.629,21.394H86.736a.874.874,0,0,1-.857-.7l-3.8-19.272A.874.874,0,0,1,82.934.376h48.521a.874.874,0,0,1,.843.646l5.177,19.272a.874.874,0,0,1-.844,1.1" transform="translate(20.744 0.095)" fill="#ffb6c8"/>
        <path id="Path_189611" data-name="Path 189611" d="M101.443,25.881,103.1,114.7l-20.323-.6,6.057-90.862Z" transform="translate(20.925 5.873)" fill="#cd7c54"/>
        <path id="Path_189612" data-name="Path 189612" d="M128.538,21.959H86.15a.47.47,0,0,1-.461-.378L81.542.561A.47.47,0,0,1,81.913.01a.466.466,0,0,1,.552.37l4.072,20.64h42a.47.47,0,1,1,0,.94" transform="translate(20.611 0)"/>
        <path id="Path_189613" data-name="Path 189613" d="M99.489,86.515H81.347L77.264,129,94.2,132.325Z" transform="translate(19.532 21.87)" fill="#5774cd"/>
        <path id="Path_189614" data-name="Path 189614" d="M90.038,116.625,74.7,116.142l-2.759,13.986,17.568-.436Z" transform="translate(18.185 29.36)" fill="#cd7c54"/>
        <path id="Path_189615" data-name="Path 189615" d="M74.487,116.142l-1.725,8.744,1.52.061c-.69.485,6.357-.831,7.944-8.562Z" transform="translate(18.394 29.36)"/>
        <path id="Path_189616" data-name="Path 189616" d="M277.155,142.774l29.084-.169a5.8,5.8,0,0,0,5.747-6.337c-.806-8.588-2.582-23.66-5.557-30.271-4.212-9.362-11.8-13.984-15.174-15.145a2.833,2.833,0,0,0-3.267,4.278c2.172,3.133,6.493,9.93,7.2,15.382a76.9,76.9,0,0,1,.137,13.758,4.564,4.564,0,0,1-4.361,4.251l-12.37.544Z" transform="translate(70.062 22.927)" fill="#fd521b"/>
        <path id="Path_189617" data-name="Path 189617" d="M149.7,123.5l43.339-57.492a14.021,14.021,0,0,1,22.674.387l42.171,60.11L227.014,127.6,205.3,94.542l-21.447,31.143Z" transform="translate(37.843 15.275)" fill="#fff"/>
        <path id="Path_189618" data-name="Path 189618" d="M227.108,128.161a.471.471,0,0,1-.393-.212L205.381,95.477l-21.051,30.569a.444.444,0,0,1-.417.2l-34.149-2.186a.47.47,0,0,1-.346-.75L192.758,65.82a14.491,14.491,0,0,1,23.435.4l42.17,60.11a.47.47,0,0,1-.367.739l-30.87,1.092Zm-21.718-34h.005a.468.468,0,0,1,.387.212l21.573,32.836,29.741-1.052-41.672-59.4a13.552,13.552,0,0,0-21.915-.375l-42.815,56.8,33.014,2.112L205,94.368a.472.472,0,0,1,.387-.2" transform="translate(37.748 15.181)"/>
        <path id="Path_189619" data-name="Path 189619" d="M314.123,115.48l-1.448,22.749-164.236,1.363L147.4,108.36Z" transform="translate(37.263 27.392)" fill="#fff"/>
        <path id="Path_189620" data-name="Path 189620" d="M148.535,140.158a.47.47,0,0,1-.47-.455l-1.035-31.232a.476.476,0,0,1,.14-.351.429.429,0,0,1,.35-.135l166.718,7.121a.476.476,0,0,1,.331.157.465.465,0,0,1,.118.343l-1.448,22.751a.467.467,0,0,1-.465.438L148.54,140.158Zm-.547-31.212,1,30.269,163.339-1.356,1.391-21.835Z" transform="translate(37.168 27.297)"/>
        <path id="Path_189621" data-name="Path 189621" d="M106.6,104.457l58.811,1.059-8.164,28.725-57.3-4.687Z" transform="translate(25.267 26.406)" fill="#5774cd"/>
        <path id="Path_189622" data-name="Path 189622" d="M107.223,25.347l1.656,88.815-20.323-.6L94.427,25.5Z" transform="translate(22.386 6.407)" fill="#cd7c54"/>
        <path id="Path_189623" data-name="Path 189623" d="M193.877,90.561a.467.467,0,0,1-.288-.1.472.472,0,0,1-.083-.66l7.786-9.971a.47.47,0,0,1,.742.578l-7.786,9.972a.469.469,0,0,1-.371.18" transform="translate(48.892 20.135)"/>
        <path id="Path_189624" data-name="Path 189624" d="M50.564,126.646c-3.468-8.292.747-17.951,9.411-21.574s18.5.162,21.968,8.454S81.2,131.477,72.532,135.1s-18.5-.162-21.968-8.454" transform="translate(12.475 26.214)" fill="#cd7c54"/>
        <path id="Path_189625" data-name="Path 189625" d="M61.272,99.675l.049,6.141,5.02.2Z" transform="translate(15.489 25.197)" fill="#cd7c54"/>
        <path id="Path_189626" data-name="Path 189626" d="M67.9,111.213a.47.47,0,0,1-.333-.8c1.716-1.716.366-4.447.353-4.475a.47.47,0,0,1,.837-.427c.069.137,1.676,3.364-.524,5.566a.474.474,0,0,1-.333.138" transform="translate(17.046 26.607)"/>
        <path id="Path_189627" data-name="Path 189627" d="M60.746,105.994s-8.3,3.618-2.623,10.8c0,0,7.893-3.175,2.623-10.8" transform="translate(14.191 26.794)" fill="#fff"/>
        <path id="Path_189628" data-name="Path 189628" d="M53.934,115.174a.47.47,0,0,1-.437-.3c-1.433-3.641.135-5.967.2-6.065a.47.47,0,0,1,.773.535c-.06.089-1.34,2.042-.1,5.187a.469.469,0,0,1-.437.641" transform="translate(13.371 27.456)"/>
        <path id="Path_189629" data-name="Path 189629" d="M101.047,16.949H89.2a1.315,1.315,0,0,1-1.284-1.014L84.9,3.248a1.322,1.322,0,0,1,1.285-1.626h11.85a1.315,1.315,0,0,1,1.284,1.014l3.017,12.688a1.322,1.322,0,0,1-1.287,1.625M86.183,2.562a.374.374,0,0,0-.3.144.382.382,0,0,0-.073.326l3.014,12.685a.38.38,0,0,0,.371.293h11.85a.38.38,0,0,0,.3-.144.369.369,0,0,0,.071-.323L98.4,2.855a.378.378,0,0,0-.371-.293Z" transform="translate(21.452 0.41)" fill="#fff"/>
        <path id="Path_189630" data-name="Path 189630" d="M69.574,125.837S75,120.22,84.833,127.47c7.529,5.547,14.433,9.465,18.279,9.418,8.459-.1,11.1,1.71,11.1,1.71s-25.542.239-31.806.239-34.695-.246-34.695-.246c.689-5,5.836-5.329,3.527-9.431C48.333,124,50,115.119,50,115.119Z" transform="translate(12.061 29.101)" fill="#fea41a"/>
        <path id="Path_189631" data-name="Path 189631" d="M103.4,15.914a.47.47,0,0,1-.457-.361L99.93,2.889a.471.471,0,0,1,.916-.218l3.009,12.664a.469.469,0,0,1-.457.579" transform="translate(25.258 0.584)" fill="#fff"/>
        <path id="Path_189632" data-name="Path 189632" d="M106.237,15.914a.47.47,0,0,1-.457-.361L102.77,2.888a.471.471,0,0,1,.916-.217l3.008,12.666a.469.469,0,0,1-.457.578" transform="translate(25.976 0.584)" fill="#fff"/>
        <path id="Path_189633" data-name="Path 189633" d="M106.482,31.007s2.245-9.641,2.357-12.736-2.578-9.4-7.157-9.916L93.15,7.992A1.9,1.9,0,0,0,91.2,10.214c.334,1.907,1.706,6.924,1.9,9.663.333,4.767.6,12.183.6,12.183Z" transform="translate(23.046 2.02)" fill="#cd7c54"/>
        <path id="Path_189634" data-name="Path 189634" d="M97.27,17.085a.469.469,0,0,1-.467-.425c-.6-6.184-3.643-7.992-3.674-8.009a.472.472,0,0,1-.175-.64.465.465,0,0,1,.635-.179c.143.079,3.5,2.022,4.149,8.738a.469.469,0,0,1-.422.512l-.045,0" transform="translate(23.482 1.965)"/>
        <path id="Path_189635" data-name="Path 189635" d="M103,17.085a.47.47,0,0,1-.467-.425c-.6-6.184-3.644-7.992-3.676-8.009a.47.47,0,0,1-.175-.639.465.465,0,0,1,.636-.18c.142.079,3.5,2.022,4.149,8.738a.469.469,0,0,1-.422.512l-.045,0" transform="translate(24.931 1.965)"/>
        <path id="Path_189636" data-name="Path 189636" d="M100.393,17.085a.469.469,0,0,1-.467-.425c-.6-6.184-3.644-7.992-3.676-8.009a.47.47,0,0,1-.175-.639.466.466,0,0,1,.636-.18c.142.079,3.5,2.022,4.149,8.738a.469.469,0,0,1-.422.512l-.045,0" transform="translate(24.271 1.965)"/>
        <path id="Path_189637" data-name="Path 189637" d="M66.032,126.848s-.262-3.405-5.308-3.405c0,0-2.916-12.364-8.966-11.339a9.418,9.418,0,0,0-.552-.884,16.562,16.562,0,0,0-1.617,4.848v.01l-.006.028a15.639,15.639,0,0,0,.981,8.639c3.466,8.292,13.3,12.078,21.968,8.455a17.552,17.552,0,0,0,6.137-4.306Z" transform="translate(12.478 28.115)" fill="#fea41a"/>
        <path id="Path_189638" data-name="Path 189638" d="M113.129,123.531l3.087-32.346-28.847-1.6-3.884,41.961A12.7,12.7,0,0,0,95.72,144.965l73.023-.621.847-35.068Z" transform="translate(21.093 22.646)" fill="#5774cd"/>
        <path id="Path_189639" data-name="Path 189639" d="M63.819,130.337a5.359,5.359,0,0,1-6.853-4.021,6.354,6.354,0,0,1,4.865-7,5.36,5.36,0,0,1,6.853,4.02,6.354,6.354,0,0,1-4.865,7" transform="translate(14.379 30.111)" fill="#cd7c54"/>
        <path id="Path_189640" data-name="Path 189640" d="M58.938,126.588a.626.626,0,0,1-.412-1.1l5.183-4.526a.626.626,0,1,1,.824.943l-5.183,4.526a.623.623,0,0,1-.412.154" transform="translate(14.74 30.54)"/>
        <path id="Path_189641" data-name="Path 189641" d="M64.13,126.116a.621.621,0,0,1-.5-.248l-2.21-2.924a.627.627,0,0,1,1-.755l2.209,2.925a.624.624,0,0,1-.5,1" transform="translate(15.495 30.825)"/>
        <path id="Path_189642" data-name="Path 189642" d="M64.653,109.889a4.485,4.485,0,1,1-4.485-4.485,4.485,4.485,0,0,1,4.485,4.485" transform="translate(14.076 26.645)"/>
        <path id="Path_189643" data-name="Path 189643" d="M84.184,141.335h-.043a.469.469,0,0,1-.425-.512l3.156-34.1a.454.454,0,0,1,.489-.426l2.648.117,5.155-79.278c-.714-.474-2.494-2.067-3.612-6.664a.469.469,0,1,1,.912-.222c1.264,5.2,3.352,6.184,3.374,6.194a.477.477,0,0,1,.282.461l-5.2,80.028a.435.435,0,0,1-.49.438l-2.661-.118-3.116,33.654a.469.469,0,0,1-.467.426" transform="translate(21.162 5.029)"/>
        <path id="Path_189644" data-name="Path 189644" d="M39.474,240V214.909a7,7,0,0,1,7-7H383.024a7,7,0,0,1,7,7V240a7,7,0,0,1-7,7H46.47a7,7,0,0,1-7-7" transform="translate(9.979 52.559)" fill="#fea41a"/>
        <path id="Path_189645" data-name="Path 189645" d="M0,209.213V182.088a7,7,0,0,1,7-7H343.55a7,7,0,0,1,7,7v27.125a7,7,0,0,1-7,7H7a7,7,0,0,1-7-7" transform="translate(0 44.262)" fill="#5774cd"/>
        <path id="Path_189646" data-name="Path 189646" d="M27.425,179.383v-39.8a7,7,0,0,1,7-7h342.1a7,7,0,0,1,7,7v39.8a7,7,0,0,1-7,7H34.421a7,7,0,0,1-7-7" transform="translate(6.933 33.517)" fill="#ffb6c8"/>
        <path id="Path_189647" data-name="Path 189647" d="M259.316,176.393H41.5a3.083,3.083,0,0,1-3.078-3.079V142.3A3.082,3.082,0,0,1,41.5,139.22H259.316A3.082,3.082,0,0,1,262.4,142.3v31.015a3.083,3.083,0,0,1-3.079,3.079M41.5,141.726a.573.573,0,0,0-.573.573v31.015a.573.573,0,0,0,.573.574H259.316a.574.574,0,0,0,.574-.574V142.3a.573.573,0,0,0-.574-.573Z" transform="translate(9.714 35.194)" fill="#fff"/>
        <path id="Path_189648" data-name="Path 189648" d="M241.116,151.185H49.786a1.253,1.253,0,0,1,0-2.506h191.33a1.253,1.253,0,1,1,0,2.506" transform="translate(12.269 37.585)" fill="#fff"/>
        <path id="Path_189649" data-name="Path 189649" d="M241.116,159.938H49.786a1.253,1.253,0,1,1,0-2.506h191.33a1.253,1.253,0,1,1,0,2.506" transform="translate(12.269 39.797)" fill="#fff"/>
        <path id="Path_189650" data-name="Path 189650" d="M320.152,193.008H80.91a1.253,1.253,0,0,1,0-2.506H320.152a1.253,1.253,0,0,1,0,2.506" transform="translate(20.137 48.157)" fill="#d7e5ff"/>
        <path id="Path_189651" data-name="Path 189651" d="M303.711,185.019H145.948a1.253,1.253,0,0,1,0-2.506H303.711a1.253,1.253,0,0,1,0,2.506" transform="translate(36.578 46.138)" fill="#d7e5ff"/>
        <path id="Path_189652" data-name="Path 189652" d="M320.152,201.761H80.91a1.253,1.253,0,1,1,0-2.506H320.152a1.253,1.253,0,0,1,0,2.506" transform="translate(20.137 50.37)" fill="#d7e5ff"/>
        <path id="Path_189653" data-name="Path 189653" d="M98.658,241.4H57.626a2.532,2.532,0,0,1-2.529-2.528V214.768a2.533,2.533,0,0,1,2.529-2.531H98.658a2.533,2.533,0,0,1,2.529,2.531v24.109a2.532,2.532,0,0,1-2.529,2.528M57.626,214.743,57.6,238.876l.024.023H98.658l.024-24.131Z" transform="translate(13.928 53.652)" fill="#fd521b"/>
        <path id="Path_189654" data-name="Path 189654" d="M99.83,242.855a1.252,1.252,0,0,1-1.253-1.253V212.529a1.253,1.253,0,1,1,2.506,0V241.6a1.252,1.252,0,0,1-1.253,1.253" transform="translate(24.919 53.409)" fill="#fd521b"/>
        <path id="Path_189655" data-name="Path 189655" d="M108.112,242.855a1.252,1.252,0,0,1-1.253-1.253V212.529a1.253,1.253,0,1,1,2.506,0V241.6a1.252,1.252,0,0,1-1.253,1.253" transform="translate(27.013 53.409)" fill="#fd521b"/>
        <path id="Path_189656" data-name="Path 189656" d="M116.394,242.855a1.252,1.252,0,0,1-1.253-1.253V212.529a1.253,1.253,0,1,1,2.506,0V241.6a1.252,1.252,0,0,1-1.253,1.253" transform="translate(29.107 53.409)" fill="#fd521b"/>
      </g>
    </g>
  </g>
</svg>
