<svg xmlns="http://www.w3.org/2000/svg" xmlns:xlink="http://www.w3.org/1999/xlink" width="294" height="564" viewBox="0 0 294 564">
  <defs>
    <clipPath id="clip-path">
      <rect id="Rectangle_45174" data-name="Rectangle 45174" width="294" height="564" transform="translate(1105.687 800.602)" fill="#fff" stroke="#707070" stroke-width="1"/>
    </clipPath>
    <clipPath id="clip-path-2">
      <rect id="Rectangle_45317" data-name="Rectangle 45317" width="265.497" height="557.537" fill="none"/>
    </clipPath>
    <clipPath id="clip-path-3">
      <rect id="Rectangle_45308" data-name="Rectangle 45308" width="265.497" height="557.538" fill="none"/>
    </clipPath>
    <clipPath id="clip-path-4">
      <rect id="Rectangle_45307" data-name="Rectangle 45307" width="5.758" height="6.391" fill="none"/>
    </clipPath>
    <clipPath id="clip-path-5">
      <rect id="Rectangle_45315" data-name="Rectangle 45315" width="58.744" height="38.079" rx="7.867" fill="none"/>
    </clipPath>
  </defs>
  <g id="_5" data-name="5" transform="translate(-1105.687 -800.602)" clip-path="url(#clip-path)">
    <g id="Group_174772" data-name="Group 174772" transform="translate(1104.998 932.27)">
      <g id="Group_174759" data-name="Group 174759" transform="translate(0 31.743)">
        <rect id="Rectangle_45169" data-name="Rectangle 45169" width="223.192" height="400.537" transform="translate(90.078)" fill="#6b8dfc"/>
        <path id="Rectangle_45170" data-name="Rectangle 45170" d="M139,0H313.27a0,0,0,0,1,0,0V315.11a0,0,0,0,1,0,0H0a0,0,0,0,1,0,0V139A139,139,0,0,1,139,0Z" transform="translate(0 85.428)" fill="#3c3fa7"/>
      </g>
      <g id="Group_175091" data-name="Group 175091" transform="translate(29.191 -125.257)">
        <g id="Group_175090" data-name="Group 175090" clip-path="url(#clip-path-2)">
          <rect id="Rectangle_45305" data-name="Rectangle 45305" width="61.603" height="43.384" transform="translate(95.209 30.499)" fill="#5774cd"/>
          <path id="Path_183841" data-name="Path 183841" d="M96.447,585.808l-39.382,140.5,12.959,9.038,52.857-135.594Z" transform="translate(-45.236 -464.371)" fill="#ea8271"/>
          <rect id="Rectangle_45306" data-name="Rectangle 45306" width="24.068" height="42.459" transform="translate(114.913 49.613)" fill="#ea8271"/>
          <path id="Path_183842" data-name="Path 183842" d="M180,774.992l25.667,15.548,2.4-6.167L182.742,765.2Z" transform="translate(-142.683 -606.572)"/>
          <g id="Group_175085" data-name="Group 175085" transform="translate(0 -0.001)">
            <g id="Group_175084" data-name="Group 175084" clip-path="url(#clip-path-3)">
              <path id="Path_183843" data-name="Path 183843" d="M901.793,533.243l57.511,69.3a14.225,14.225,0,0,1-19.877,20.169l-60.034-49.077Z" transform="translate(-697.096 -422.702)" fill="#ea8271"/>
              <path id="Path_183844" data-name="Path 183844" d="M970.574,669.017l6.592,5.389,19.6-31.342-1.844-4.763-3.5-4.223Z" transform="translate(-769.375 -502.634)"/>
              <path id="Path_183845" data-name="Path 183845" d="M336.378,2365.783l-3.354,46.875-24.317-15.339,3.644-36.687Z" transform="translate(-244.712 -1871.275)" fill="#ea8271"/>
              <path id="Path_183846" data-name="Path 183846" d="M899.747,2384.708l6.3,44.465,25.538-10.4-7.227-35.345Z" transform="translate(-713.231 -1889.348)" fill="#ea8271"/>
              <path id="Path_183847" data-name="Path 183847" d="M240.154,387.725s33.084,4.782,51,9.256a34.554,34.554,0,0,1,17.743,10.9l25.572,29.511-24.809,43.75-17.974-10.829s2.007,24.248-4.991,30.5-91.884.487-91.884.487-11.96-4.617-13.328-28.432l-8.446,16.733L138,464.225,168.25,409a32.708,32.708,0,0,1,21.633-13.406Z" transform="translate(-109.39 -307.349)" fill="#ffd4de"/>
              <path id="Path_183848" data-name="Path 183848" d="M245.934,1349.165l23.653-265.878,102.882-15.932,56.871,286.2-58.476,5.428-44.753-233.068-4.316.391L304.1,1352Z" transform="translate(-194.952 -846.092)" fill="#fff"/>
              <path id="Path_183849" data-name="Path 183849" d="M368.882,1357.514a.518.518,0,0,1-.509-.421l-44.664-232.608-3.413.309-17.664,225.262a.515.515,0,0,1-.542.477l-58.163-2.834a.519.519,0,0,1-.491-.564l23.653-265.878a.519.519,0,0,1,.437-.466l102.882-15.932a.518.518,0,0,1,.588.411l56.871,286.2a.519.519,0,0,1-.46.617l-58.476,5.428-.048,0m-44.752-234.1a.518.518,0,0,1,.509.42L369.3,1356.437l57.435-5.332L370.075,1065.96l-101.991,15.795-23.569,264.936,57.122,2.782,17.659-225.2a.518.518,0,0,1,.47-.476l4.316-.391.047,0" transform="translate(-192.97 -844.11)"/>
              <path id="Path_183850" data-name="Path 183850" d="M441.693,950.317l15.22,74.861L335.5,997.122l15.067-48.352Z" transform="translate(-265.951 -752.09)" fill="#ffd4de"/>
              <path id="Path_183851" data-name="Path 183851" d="M558.894,386.878s-3.172,6.882-16.5,8.172-22.6-7.149-22.6-7.149l20.176-4.4Z" transform="translate(-412.044 -303.998)" fill="#ea8271"/>
              <path id="Path_183852" data-name="Path 183852" d="M515.246,414.193a33.347,33.347,0,0,1-18.08-4.92,24.063,24.063,0,0,1-6.936-6.329.622.622,0,0,1,1.04-.682,23.345,23.345,0,0,0,6.617,6c4.152,2.616,11.271,5.515,21.6,4.474,8.2-.827,13.3-3.91,16.13-6.352a17.146,17.146,0,0,0,4.232-5.153.622.622,0,0,1,1.134.512,17.96,17.96,0,0,1-4.5,5.534c-2.973,2.579-8.314,5.834-16.875,6.7a43.443,43.443,0,0,1-4.362.224" transform="translate(-388.525 -317.762)"/>
              <path id="Path_183853" data-name="Path 183853" d="M853.957,502.175a.6.6,0,0,1-.09-.007.621.621,0,0,1-.526-.7,82.14,82.14,0,0,1,10.3-30.276A45.568,45.568,0,0,1,871,461.471a.622.622,0,0,1,.839.918,45.392,45.392,0,0,0-7.161,9.489,80.936,80.936,0,0,0-10.1,29.765.622.622,0,0,1-.615.533" transform="translate(-676.44 -365.678)"/>
              <path id="Path_183854" data-name="Path 183854" d="M300.647,563.683a.622.622,0,0,1-.6-.466l-11.7-45.236a.622.622,0,1,1,1.2-.311l11.7,45.236a.622.622,0,0,1-.6.778" transform="translate(-228.554 -409.987)"/>
              <path id="Path_183855" data-name="Path 183855" d="M578.4,266.068l-24.068-.867v14.156a37.757,37.757,0,0,0,8.408.369,46.371,46.371,0,0,0,15.66-3.708Z" transform="translate(-439.421 -210.224)"/>
              <path id="Path_183856" data-name="Path 183856" d="M394.25,923.384l.293,13.592,18,.1,32.116,23.193a19.006,19.006,0,0,0,10.408,2.019l38.893-3.552a12.628,12.628,0,0,0,8.589-11.954c-.008-6.915-1.792-16.238-9.844-22.963Z" transform="translate(-312.523 -731.967)" fill="#fc5f65"/>
              <path id="Path_183857" data-name="Path 183857" d="M586.61,959.039h0l-81.623-.578a.622.622,0,0,1,0-1.244h0l81.623.578a.622.622,0,0,1,0,1.244" transform="translate(-399.812 -758.786)"/>
              <path id="Path_183858" data-name="Path 183858" d="M496.142,955.687l-1.7,10.5a1.77,1.77,0,0,0,1.619,2.047l5.831.424a1.77,1.77,0,0,0,1.784-2.392l-4.135-10.92a1.77,1.77,0,0,0-3.4.344" transform="translate(-391.93 -756.394)"/>
              <path id="Path_183859" data-name="Path 183859" d="M741.489,143.555s7.5-7.377,11.142-.227c4.3,8.441-8.075,15.924-11.887,8.432s.745-8.2.745-8.2" transform="translate(-585.983 -111.142)" fill="#ea8271"/>
              <path id="Path_183860" data-name="Path 183860" d="M459.064,32.181c0-17.776,13.834-32.186,30.9-32.186s30.9,14.41,30.9,32.186-13.834,32.186-30.9,32.186-30.9-14.41-30.9-32.186" transform="translate(-363.901 0.005)" fill="#ea8271"/>
              <path id="Path_183861" data-name="Path 183861" d="M520.487,27.062C518.524,10,503.688,0,489.977,0c-13.506,0-31.883,9.656-30.853,30.427.619-12.819,16.332-29.2,30.593-19.1,0,0,15.456-14.4,30.769,15.739" transform="translate(-363.916 0.005)" fill="#5774cd"/>
              <path id="Path_183862" data-name="Path 183862" d="M432.017,158.605s-7.5-7.377-11.142-.227c-4.3,8.441,8.075,15.924,11.887,8.432s-.745-8.2-.745-8.2" transform="translate(-332.919 -123.072)" fill="#ea8271"/>
              <path id="Path_183863" data-name="Path 183863" d="M595.195,167.054a.3.3,0,0,1-.234-.489l2.551-3.167a.3.3,0,0,1,.4-.065l4.267,2.727a.3.3,0,0,1-.323.506l-4.04-2.582-2.382,2.957a.3.3,0,0,1-.234.112" transform="translate(-471.574 -129.436)"/>
              <path id="Path_183864" data-name="Path 183864" d="M594.328,166.413a.527.527,0,0,1-.411-.858l2.552-3.167a.527.527,0,0,1,.695-.114L601.43,165a.527.527,0,1,1-.568.889l-3.868-2.473-2.255,2.8a.525.525,0,0,1-.411.2m2.552-3.768a.074.074,0,0,0-.057.027l-2.551,3.167a.074.074,0,0,0,.011.1.073.073,0,0,0,.046.016.074.074,0,0,0,.057-.027l2.383-2.958a.227.227,0,0,1,.3-.049l4.04,2.582a.073.073,0,0,0,.1-.022.073.073,0,0,0-.022-.1l-4.267-2.727a.073.073,0,0,0-.04-.012" transform="translate(-470.707 -128.568)"/>
              <path id="Path_183865" data-name="Path 183865" d="M644.144,86.355a.247.247,0,0,1-.129-.112.448.448,0,0,1,.1-.521,9.731,9.731,0,0,1,3.322-1.846,13.43,13.43,0,0,1,9.085.319.392.392,0,0,1-.26.713,12.949,12.949,0,0,0-8.712-.334,9.262,9.262,0,0,0-3.113,1.705.285.285,0,0,1-.291.077" transform="translate(-510.475 -65.981)"/>
              <path id="Path_183866" data-name="Path 183866" d="M643.36,85.728a.462.462,0,0,1-.159-.028h0a.472.472,0,0,1-.248-.212.679.679,0,0,1,.139-.8,10,10,0,0,1,3.4-1.9,13.651,13.651,0,0,1,9.236.32.491.491,0,0,1,.3.32.665.665,0,0,1-.014.428.569.569,0,0,1-.7.391,12.729,12.729,0,0,0-8.561-.332,9.119,9.119,0,0,0-3.03,1.656.537.537,0,0,1-.364.153m7.149-3.132a11.92,11.92,0,0,0-3.866.626,9.516,9.516,0,0,0-3.24,1.8.226.226,0,0,0-.057.243l-.068.226.078-.213a.085.085,0,0,0,.058-.029,9.474,9.474,0,0,1,3.2-1.754,13.175,13.175,0,0,1,8.862.335c.016.005.082-.029.115-.12a.216.216,0,0,0,.008-.134.056.056,0,0,0-.019-.032,14.726,14.726,0,0,0-5.067-.943" transform="translate(-509.61 -65.113)"/>
              <path id="Path_183867" data-name="Path 183867" d="M514.088,93.908a.248.248,0,0,0,.129-.112.449.449,0,0,0-.1-.522,9.726,9.726,0,0,0-3.322-1.845,13.428,13.428,0,0,0-9.085.318.392.392,0,0,0,.26.713,12.95,12.95,0,0,1,8.712-.334,9.267,9.267,0,0,1,3.113,1.7.285.285,0,0,0,.291.077" transform="translate(-397.57 -71.969)"/>
              <path id="Path_183868" data-name="Path 183868" d="M513.138,93.281a.536.536,0,0,1-.364-.153,9.119,9.119,0,0,0-3.03-1.656,12.729,12.729,0,0,0-8.561.332.569.569,0,0,1-.7-.391.666.666,0,0,1-.014-.428.492.492,0,0,1,.3-.32,13.652,13.652,0,0,1,9.236-.32,9.959,9.959,0,0,1,3.4,1.9.678.678,0,0,1,.139.8.472.472,0,0,1-.248.212h0a.468.468,0,0,1-.16.028m.082-.242h0Zm-7.131-2.6a11.853,11.853,0,0,1,3.8.607,9.484,9.484,0,0,1,3.2,1.754c.029.027.05.031.058.029a.033.033,0,0,0,.01-.012.225.225,0,0,0-.057-.243,9.456,9.456,0,0,0-3.24-1.8,13.2,13.2,0,0,0-8.933.317.057.057,0,0,0-.018.031.214.214,0,0,0,.008.134c.034.091.1.125.115.12a14.713,14.713,0,0,1,5.063-.943" transform="translate(-396.702 -71.1)"/>
              <path id="Path_183869" data-name="Path 183869" d="M753.808,163.736a.3.3,0,0,1-.263-.445,10.12,10.12,0,0,1,4.958-4.714,6.683,6.683,0,0,1,2.713-.557.3.3,0,0,1-.037.6,6.238,6.238,0,0,0-2.479.526,9.547,9.547,0,0,0-4.629,4.435.3.3,0,0,1-.263.155" transform="translate(-597.307 -125.259)"/>
              <path id="Path_183870" data-name="Path 183870" d="M752.941,163.1a.527.527,0,0,1-.462-.782,10.344,10.344,0,0,1,5.071-4.814,6.91,6.91,0,0,1,2.813-.573.528.528,0,0,1,.314.924.519.519,0,0,1-.381.129,6.088,6.088,0,0,0-2.376.509,9.323,9.323,0,0,0-4.517,4.335.528.528,0,0,1-.462.273m7.283-5.719a6.847,6.847,0,0,0-2.5.543,9.9,9.9,0,0,0-4.845,4.613.074.074,0,0,0,.029.1.07.07,0,0,0,.1-.029,9.77,9.77,0,0,1,4.741-4.535,6.388,6.388,0,0,1,2.578-.543.072.072,0,0,0,.079-.068.073.073,0,0,0-.068-.078s-.041,0-.111,0" transform="translate(-596.439 -124.392)"/>
              <path id="Path_183871" data-name="Path 183871" d="M762.448,179.935a.3.3,0,0,1-.251-.135l-2.984-4.511a.3.3,0,1,1,.5-.331l2.984,4.511a.3.3,0,0,1-.25.466" transform="translate(-601.79 -138.581)"/>
              <path id="Path_183872" data-name="Path 183872" d="M761.579,179.293a.527.527,0,0,1-.44-.237l-2.984-4.511a.527.527,0,0,1,.88-.582l2.984,4.511a.528.528,0,0,1-.44.819m-2.984-5.112a.073.073,0,0,0-.061.114l2.984,4.511a.064.064,0,0,0,.1.021.074.074,0,0,0,.02-.1l-2.984-4.511a.073.073,0,0,0-.047-.032h-.015" transform="translate(-600.921 -137.712)"/>
              <path id="Path_183873" data-name="Path 183873" d="M443.835,178.786a.3.3,0,0,0,.263-.445,10.119,10.119,0,0,0-4.958-4.714,6.679,6.679,0,0,0-2.713-.557.3.3,0,0,0,.037.6,6.238,6.238,0,0,1,2.478.526,9.547,9.547,0,0,1,4.629,4.435.3.3,0,0,0,.263.155" transform="translate(-345.734 -137.19)"/>
              <path id="Path_183874" data-name="Path 183874" d="M442.966,178.146a.527.527,0,0,1-.462-.273,9.321,9.321,0,0,0-4.517-4.335,6.077,6.077,0,0,0-2.379-.509.519.519,0,0,1-.378-.129.528.528,0,0,1,.314-.924,6.912,6.912,0,0,1,2.813.573,10.342,10.342,0,0,1,5.071,4.814.527.527,0,0,1-.462.782m-7.276-5.572a6.68,6.68,0,0,1,2.471.545,9.767,9.767,0,0,1,4.741,4.535.07.07,0,0,0,.1.029.072.072,0,0,0,.035-.044.073.073,0,0,0-.006-.056,9.9,9.9,0,0,0-4.845-4.613,6.53,6.53,0,0,0-2.612-.54.074.074,0,0,0-.069.078.076.076,0,0,0,.025.051.074.074,0,0,0,.051.017c.008,0,.046,0,.11,0" transform="translate(-344.865 -136.323)"/>
              <path id="Path_183875" data-name="Path 183875" d="M452.04,194.986a.3.3,0,0,0,.251-.135l2.984-4.511a.3.3,0,0,0-.5-.332l-2.984,4.512a.3.3,0,0,0,.25.466" transform="translate(-358.095 -150.512)"/>
              <path id="Path_183876" data-name="Path 183876" d="M451.172,194.344a.528.528,0,0,1-.44-.819l2.984-4.511a.527.527,0,1,1,.88.582l-2.984,4.512a.527.527,0,0,1-.44.237m2.984-5.112h-.015a.073.073,0,0,0-.046.032l-2.984,4.511a.074.074,0,0,0,.021.1.075.075,0,0,0,.1-.021l2.984-4.511a.074.074,0,0,0,.011-.055.074.074,0,0,0-.072-.059" transform="translate(-357.227 -149.643)"/>
              <path id="Path_183877" data-name="Path 183877" d="M648.754,124.82s-.048-18.4,17.287-7.83c0,0-3.686,12.639-17.287,7.83" transform="translate(-514.268 -90.141)" fill="#fff"/>
              <path id="Path_183878" data-name="Path 183878" d="M662.9,114.611c-8.447-3.117-11.189,2.589-12.08,6.652a7.222,7.222,0,0,0,2.887,4.432,11.414,11.414,0,0,0,11.055-3.644,7.217,7.217,0,0,0-1.861-7.44" transform="translate(-515.907 -90.142)"/>
              <path id="Path_183879" data-name="Path 183879" d="M497.84,133.232s-2.086-18.281-18.078-5.772c0,0,5.127,12.126,18.078,5.772" transform="translate(-380.308 -97.567)" fill="#fff"/>
              <path id="Path_183880" data-name="Path 183880" d="M495.024,124.544c8.028-4.075,11.414,1.274,12.77,5.206a7.222,7.222,0,0,1-2.354,4.736,11.414,11.414,0,0,1-11.4-2.337,7.219,7.219,0,0,1,.986-7.605" transform="translate(-391.101 -97.568)"/>
              <path id="Path_183881" data-name="Path 183881" d="M1085.314,561.984l-34.98-85.372-15.09,3.644,23.188,92.516Z" transform="translate(-820.64 -377.81)" fill="#ea8271"/>
              <path id="Path_183882" data-name="Path 183882" d="M1018.271,398.177l-3.725-11.765a9.912,9.912,0,0,0,1.765-6.164c-.275-3.47-2.395-17.424-2.395-17.424L990.1,367.15s5.267,19.021,7.766,22.91,4.553,11.537,4.553,11.537Z" transform="translate(-784.852 -287.61)" fill="#ea8271"/>
              <path id="Path_183883" data-name="Path 183883" d="M944.835,404.811s-11.927-4.414-16.023-9.7c-3.493-4.51-5.563-8.41-7.314-10.688a1.536,1.536,0,0,1,.223-2.075,3.285,3.285,0,0,1,4.145-.314,25.4,25.4,0,0,1,5.381,5.21c1.424,2.034,8.266,2.723,8.266,2.723Z" transform="translate(-730.231 -302.366)" fill="#ea8271"/>
              <path id="Path_183884" data-name="Path 183884" d="M963.844,294l-7.109-21.17a2.8,2.8,0,0,1,2.011-3.495,2.841,2.841,0,0,1,3.568,1.572l7.7,21.271Z" transform="translate(-758.297 -213.392)" fill="#ea8271"/>
              <path id="Path_183885" data-name="Path 183885" d="M1001.762,278.662l-5.125-23.211a2.981,2.981,0,0,1,2.35-3.516,2.842,2.842,0,0,1,3.381,2.108l5.484,23.746Z" transform="translate(-789.983 -199.659)" fill="#ea8271"/>
              <path id="Path_183886" data-name="Path 183886" d="M1046.376,284.409l-.925-20.887a2.9,2.9,0,0,1,2.917-2.773,2.615,2.615,0,0,1,2.935,2.261l1.181,21.4Z" transform="translate(-828.729 -206.691)" fill="#ea8271"/>
              <path id="Path_183887" data-name="Path 183887" d="M1081.239,303.256l1.47-15.957a2.321,2.321,0,0,1,2.578-1.841,2,2,0,0,1,2.063,1.986l-1.323,16.369Z" transform="translate(-857.1 -226.277)" fill="#ea8271"/>
              <path id="Path_183888" data-name="Path 183888" d="M1003.644,369.155a.468.468,0,0,1-.165-.907,55.507,55.507,0,0,1,18.49-2.748.468.468,0,0,1-.009.937h-.009a54.438,54.438,0,0,0-18.144,2.688.467.467,0,0,1-.164.03" transform="translate(-795.218 -289.724)"/>
              <path id="Path_183889" data-name="Path 183889" d="M597.242,211.491s-11.369-3.225-16.557,3.174c0,0,7.35,6.9,16.557-3.174" transform="translate(-460.31 -167.004)"/>
              <path id="Path_183890" data-name="Path 183890" d="M584.66,215.512a9.848,9.848,0,0,0-3.976,2.895S586.87,224.2,595,217.387c-.049-.044-2.9-2.542-10.338-1.876" transform="translate(-460.309 -170.746)" fill="#fe3a01"/>
              <path id="Path_183891" data-name="Path 183891" d="M42.861,1255.443s-6.977,13.4-6.465,27.524c.387,10.66,5.4,14.731,7.832,16.088a1.621,1.621,0,0,0,2.091-.457,2.882,2.882,0,0,0,.085-3.294,23.17,23.17,0,0,1-2.638-5.79c-1.608-5.158,6.532-12.386,9.633-19.637,4.946-11.563-4.485-9.894-4.485-9.894Z" transform="translate(-28.83 -995.19)" fill="#ea8271"/>
              <path id="Path_183892" data-name="Path 183892" d="M35.217,1273.316s-6.977,13.4-6.465,27.523c.36,9.942,4.742,14.153,7.307,15.776a2.187,2.187,0,0,0,2.922-.559,2.142,2.142,0,0,0,.035-2.5,22.5,22.5,0,0,1-2.895-6.169c-1.608-5.158.463-14.406.463-14.406l4.685-15.126Z" transform="translate(-22.771 -1009.359)" fill="#ea8271"/>
              <path id="Path_183893" data-name="Path 183893" d="M26.388,1270.072s-11.224,12.672-13.109,28.356c-1.474,12.262,4.6,18.209,7.314,20.221a1.926,1.926,0,0,0,2.341-.042,2.95,2.95,0,0,0,.8-3.643,26.407,26.407,0,0,1-2.309-7.166c-1.109-6.145,3.168-15.7,3.168-15.7l8.636-15.25Z" transform="translate(-10.346 -1006.787)" fill="#ea8271"/>
              <path id="Path_183894" data-name="Path 183894" d="M13.775,1257.929S2.113,1271.119.228,1286.8c-1.479,12.3,4.635,18.249,7.341,20.241A1.885,1.885,0,0,0,9.857,1307h0a2.993,2.993,0,0,0,.809-3.693,26.438,26.438,0,0,1-2.294-7.136c-1.109-6.145,3.169-15.7,3.169-15.7l8.636-15.25Z" transform="translate(0 -997.162)" fill="#ea8271"/>
              <path id="Path_183895" data-name="Path 183895" d="M49.33,1277.8s-7.066,12.109-9.945,18.842-4.9,6.408-6.985,5.39c-3.306-1.615-.737-8.131.988-12.163s.12-5.25.12-5.25l12.09-13.093Z" transform="translate(-24.415 -1007.937)" fill="#ea8271"/>
              <path id="Path_183896" data-name="Path 183896" d="M32.031,1325.456a4.838,4.838,0,0,1-2.1-.6c-3.391-1.656-1.779-7.093-.484-11.461.086-.292.171-.577.252-.855a21.038,21.038,0,0,0,1.117-5.438.4.4,0,0,1,.8-.038c0,.062.061,1.559-1.148,5.7-.081.279-.166.566-.253.858-1.146,3.864-2.714,9.157.07,10.517a3.049,3.049,0,0,0,2.475.385c1.267-.471,2.565-2.294,3.967-5.573,2.857-6.679,9.9-18.764,9.968-18.885a.4.4,0,1,1,.69.4c-.07.121-7.086,12.164-9.923,18.8-1.514,3.54-2.919,5.449-4.423,6.008a2.857,2.857,0,0,1-1.007.182" transform="translate(-22.125 -1030.407)"/>
              <path id="Path_183897" data-name="Path 183897" d="M36.1,1433.912a2.279,2.279,0,0,1-1.353-.443.4.4,0,0,1,.473-.643,1.489,1.489,0,0,0,1.8-.033,2.607,2.607,0,0,0,.7-3.2,26.914,26.914,0,0,1-2.33-7.244,16.442,16.442,0,0,1,0-4.992.4.4,0,0,1,.791.1,15.663,15.663,0,0,0-.006,4.745,26.132,26.132,0,0,0,2.259,7.029,3.409,3.409,0,0,1-.918,4.185,2.282,2.282,0,0,1-1.42.493" transform="translate(-27.414 -1123.265)"/>
              <path id="Path_183898" data-name="Path 183898" d="M53.135,1433.059a.4.4,0,0,1-.357-.22c-.123-.245-.265-.511-.417-.8a20.97,20.97,0,0,1-2.692-13.116.4.4,0,1,1,.787.136,21.179,21.179,0,0,0,.25,6.4,20.652,20.652,0,0,0,2.361,6.206c.156.293.3.564.425.814a.4.4,0,0,1-.177.536.4.4,0,0,1-.179.043" transform="translate(-39.235 -1124.52)"/>
              <path id="Path_183899" data-name="Path 183899" d="M65.374,1420.773a.4.4,0,0,1-.306-.143,25.149,25.149,0,0,1-3.334-5.348c-1.243-2.854-.665-7.179-.64-7.361a.4.4,0,1,1,.791.109c-.006.042-.572,4.287.581,6.934a24.769,24.769,0,0,0,3.214,5.154.4.4,0,0,1-.306.656" transform="translate(-48.306 -1115.786)"/>
              <g id="Group_175083" data-name="Group 175083" transform="translate(6.948 287.505)" style="mix-blend-mode: overlay;isolation: isolate">
                <g id="Group_175082" data-name="Group 175082">
                  <g id="Group_175081" data-name="Group 175081" clip-path="url(#clip-path-4)">
                    <path id="Path_183900" data-name="Path 183900" d="M36.084,1393.3a2.465,2.465,0,0,1-.973-.2,3.3,3.3,0,0,1,2.564-5.994,2.606,2.606,0,0,1,1.458,1.69,3.656,3.656,0,0,1-1.793,4.192,2.778,2.778,0,0,1-1.257.312m.619-5.593a2.483,2.483,0,0,0-2.153,1.608,2.271,2.271,0,0,0,.875,3.051,1.821,1.821,0,0,0,1.555-.091,2.86,2.86,0,0,0,1.389-3.247,1.82,1.82,0,0,0-1.008-1.187,1.665,1.665,0,0,0-.658-.133" transform="translate(-33.515 -1386.913)"/>
                  </g>
                </g>
              </g>
            </g>
          </g>
          <g id="Group_175087" data-name="Group 175087" transform="translate(100.25 134.034)">
            <g id="Group_175086" data-name="Group 175086" clip-path="url(#clip-path-5)">
              <rect id="Rectangle_45309" data-name="Rectangle 45309" width="69.072" height="6.417" transform="translate(-5.164 0.433)" fill="#fe3a01"/>
              <rect id="Rectangle_45310" data-name="Rectangle 45310" width="69.072" height="6.417" transform="translate(-5.164 6.679)" fill="#ff8400"/>
              <rect id="Rectangle_45311" data-name="Rectangle 45311" width="69.072" height="6.417" transform="translate(-5.164 12.924)" fill="#ffc849"/>
              <rect id="Rectangle_45312" data-name="Rectangle 45312" width="69.072" height="6.417" transform="translate(-5.164 19.17)" fill="#51af55"/>
              <rect id="Rectangle_45313" data-name="Rectangle 45313" width="69.072" height="6.417" transform="translate(-5.164 25.416)" fill="#3b82ff"/>
              <rect id="Rectangle_45314" data-name="Rectangle 45314" width="69.072" height="6.417" transform="translate(-5.164 31.662)" fill="#b034c1"/>
            </g>
          </g>
          <g id="Group_175089" data-name="Group 175089" transform="translate(0 -0.001)">
            <g id="Group_175088" data-name="Group 175088" clip-path="url(#clip-path-3)">
              <path id="Path_183901" data-name="Path 183901" d="M933.974,656.789a.622.622,0,0,1-.543-.924l23.747-42.784a.622.622,0,1,1,1.088.6l-23.747,42.785a.622.622,0,0,1-.544.32" transform="translate(-739.87 -485.735)"/>
              <path id="Path_183902" data-name="Path 183902" d="M188.286,747.635a.619.619,0,0,1-.359-.115l-35.011-24.87a.622.622,0,0,1,.72-1.014l35.011,24.87a.622.622,0,0,1-.361,1.129" transform="translate(-121.009 -571.95)"/>
              <path id="Path_183903" data-name="Path 183903" d="M1060.839,586.875a.623.623,0,0,1-.571-.476l-16.414-68.3a.622.622,0,1,1,1.209-.291l16.415,68.305a.623.623,0,0,1-.638.766" transform="translate(-827.451 -410.085)"/>
              <path id="Path_183904" data-name="Path 183904" d="M872.049,739.931a.622.622,0,0,1-.612-.514l-2.81-15.979a.622.622,0,0,1,1.225-.215l2.81,15.979a.622.622,0,0,1-.613.729" transform="translate(-688.555 -572.891)"/>
              <path id="Path_183905" data-name="Path 183905" d="M58.3,1201.414l-2.9,10.217a1.111,1.111,0,0,0,.607,1.314l14.124,6.468a1.111,1.111,0,0,0,1.493-.593l4.087-10.093a1.112,1.112,0,0,0-.591-1.438L59.812,1200.7a1.111,1.111,0,0,0-1.509.718" transform="translate(-43.887 -951.72)" fill="#fd521b"/>
              <path id="Path_183906" data-name="Path 183906" d="M220.913,2519.612l8.408,32.537-63.815.123s-1.132-14.349,4.765-17.622,17.238-6.736,17.238-6.736l8.024-10.9,8.421-.1,13.176,10.9Z" transform="translate(-131.128 -1995.162)" fill="#5774cd"/>
              <path id="Path_183907" data-name="Path 183907" d="M265.21,2503.146s1.193-9.487,6.865-9.72,8.086,2.183,6.318,6.987-13.536,14.024-13.536,14.024l-6.815-3.819Z" transform="translate(-204.55 -1976.529)" fill="#fd521b"/>
              <path id="Path_183908" data-name="Path 183908" d="M229.322,2596.08l-1.962-7.591H198.944c-.376-3.613-1.362-7.474-3.477-10.305-3.2-4.281-6.846-5.566-9.513-5.847-3.31,1.068-11.123,3.712-15.683,6.244-2.916,1.619-4.113,5.948-4.578,9.909h-.042c-.048.51-.084,1.051-.112,1.6a44.63,44.63,0,0,0-.034,6.113h33.411c0-.02,0-.042.007-.064Z" transform="translate(-131.128 -2039.094)" fill="#3d518f"/>
              <path id="Path_183909" data-name="Path 183909" d="M278.139,2533.639H262.983a.391.391,0,1,1,0-.781h12.879l-12.674-4.479a.39.39,0,0,1,.13-.758h18.821l-14.947-3.824a.391.391,0,1,1,.193-.757l17.953,4.593a.391.391,0,0,1-.1.769H265.595l12.674,4.479a.391.391,0,0,1-.13.759" transform="translate(-208.157 -2000.006)" fill="#fff"/>
              <path id="Path_183910" data-name="Path 183910" d="M888.231,2521.683l-8.4,32.537,63.728.123s1.13-14.349-4.758-17.623-17.215-6.736-17.215-6.736l-8.013-10.9-8.409-.1-13.158,10.9Z" transform="translate(-697.446 -1996.803)" fill="#5774cd"/>
              <path id="Path_183911" data-name="Path 183911" d="M1008.131,2505.217s-1.192-9.487-6.855-9.72-8.075,2.183-6.309,6.987,13.517,14.024,13.517,14.024l6.806-3.819Z" transform="translate(-788.26 -1978.171)" fill="#fd521b"/>
              <path id="Path_183912" data-name="Path 183912" d="M943.562,2660.043l-63.728-.123,1.959-7.591h61.624a73.862,73.862,0,0,1,.145,7.714" transform="translate(-697.446 -2102.504)" fill="#3d518f"/>
              <path id="Path_183913" data-name="Path 183913" d="M1028.905,2580.255c3.193-4.281,6.836-5.566,9.5-5.847,3.305,1.069,11.108,3.713,15.661,6.245,5.889,3.274,4.758,17.623,4.758,17.623h-33.365c-.514-4.263-.407-12.855,3.446-18.02" transform="translate(-812.709 -2040.736)" fill="#3d518f"/>
              <path id="Path_183914" data-name="Path 183914" d="M1002.264,2535.71H987.129a.391.391,0,0,1-.13-.759l12.657-4.479H980.036a.39.39,0,0,1-.1-.768l17.928-4.594a.391.391,0,0,1,.193.757l-14.927,3.823h18.795a.39.39,0,0,1,.13.759l-12.656,4.48h12.861a.39.39,0,0,1,0,.781" transform="translate(-776.567 -2001.649)" fill="#fff"/>
            </g>
          </g>
        </g>
      </g>
    </g>
  </g>
</svg>
