<svg xmlns="http://www.w3.org/2000/svg" width="1328.359" height="686" viewBox="0 0 1328.359 686">
  <g id="bg-t1-1" transform="translate(-136 -790)">
    <g id="Group_176133" data-name="Group 176133">
      <rect id="Rectangle_45997" data-name="Rectangle 45997" width="1328" height="686" transform="translate(136 790)" fill="#fff7da"/>
      <g id="Group_175493" data-name="Group 175493" transform="translate(-694.641 10405.148)" opacity="0.254">
        <path id="Path_178656" data-name="Path 178656" d="M1124.182,2255.332c50.505-39.053,91.908-89.736,146.189-123.346,74.556-46.166,165.617-55.543,253.216-59.538s177.468-4.164,259.475-35.221c65.54-24.821,125.945-74.847,150.577-138.594H1765.392c-37.491,58.353-94.111,104.614-160.114,126.221-131.768,43.134-285-6.029-409.141,55.722-87.938,43.743-147.364,137.559-241.514,165.531-68.12,20.237-143.079,1.1-204.068-35.37-26.642-15.933-51.105-34.9-74.275-55.53v136.908C816.186,2364.306,998.853,2352.249,1124.182,2255.332Z" transform="translate(154.361 -11513.78)" fill="#edc00f"/>
        <path id="Path_178657" data-name="Path 178657" d="M1030.536,2284.067c94.15-27.972,153.576-121.788,241.514-165.531,124.139-61.75,277.374-12.589,409.141-55.722,66-21.607,122.623-67.867,160.114-126.22H752.194v256.574c23.169,20.625,47.633,39.6,74.275,55.53C887.457,2285.17,962.416,2304.3,1030.536,2284.067Z" transform="translate(78.447 -11551.741)" fill="#fed947" opacity="0.614"/>
      </g>
      <g id="Group_176132" data-name="Group 176132" transform="translate(207 1036)" opacity="0.254">
        <path id="Path_178656-2" data-name="Path 178656" d="M1485.737,1981.761c-50.505,39.053-91.908,89.736-146.189,123.346-74.556,46.166-165.617,55.543-253.216,59.538s-177.468,4.164-259.475,35.221c-65.54,24.821-125.945,74.847-150.577,138.594H844.528c37.491-58.353,94.111-104.614,160.114-126.221,131.768-43.134,285,6.029,409.141-55.722,87.938-43.743,147.364-137.559,241.514-165.531,68.12-20.237,143.079-1.1,204.068,35.37,26.642,15.933,51.105,34.9,74.275,55.53V1944.979C1793.733,1872.788,1611.066,1884.844,1485.737,1981.761Z" transform="translate(-676.28 -1898.632)" fill="#edc00f"/>
        <path id="Path_178657-2" data-name="Path 178657" d="M1562.963,1944.816c-94.15,27.972-153.576,121.788-241.514,165.531-124.139,61.75-277.374,12.589-409.141,55.722-66,21.607-122.623,67.867-160.114,126.22H1841.306V2035.716c-23.169-20.625-47.633-39.6-74.275-55.53C1706.043,1943.712,1631.083,1924.579,1562.963,1944.816Z" transform="translate(-583.947 -1852.461)" fill="#fed947" opacity="0.614"/>
      </g>
    </g>
  </g>
</svg>
