<svg xmlns="http://www.w3.org/2000/svg" width="782.334" height="450.757" viewBox="0 0 782.334 450.757">
  <g id="sintesis" transform="translate(-409.333 -613)">
    <path id="Path_190868" data-name="Path 190868" d="M11,0H179a11,11,0,0,1,11,11V39.757a11,11,0,0,1-11,11H11a11,11,0,0,1-11-11V11A11,11,0,0,1,11,0Z" transform="translate(409.333 773.622)" fill="#3c3fa7"/>
    <path id="Path_190869" data-name="Path 190869" d="M-73.23-5.106l-1.687,1.564L-75.533,0h-2.575l2.224-12.8h2.575l-.984,5.643,1.31-1.477,3.85-4.166h3.357l-5.528,5.818L-68.01,0h-2.936Zm10.055-4.412-.211,1.125a3.422,3.422,0,0,1,2.769-1.292,2.281,2.281,0,0,1,1.986.984,3.966,3.966,0,0,1,.466,2.654l-1,6.047h-2.479l1.02-6.073a2.844,2.844,0,0,0,.018-.624,1.007,1.007,0,0,0-1.125-.923,2.133,2.133,0,0,0-1.749.905L-64.67,0h-2.479L-65.5-9.51Zm11.391-.167a3.814,3.814,0,0,1,2.167.646,3.638,3.638,0,0,1,1.336,1.731,5.357,5.357,0,0,1,.3,2.448,5.786,5.786,0,0,1-1.578,3.669,4.455,4.455,0,0,1-3.4,1.367A3.8,3.8,0,0,1-55.1-.461,3.624,3.624,0,0,1-56.435-2.18a5.239,5.239,0,0,1-.308-2.426,5.957,5.957,0,0,1,1.6-3.744A4.363,4.363,0,0,1-51.785-9.686Zm-2.5,5.979a2.194,2.194,0,0,0,.4,1.33,1.314,1.314,0,0,0,1.063.5,1.926,1.926,0,0,0,1.793-1.049,5.227,5.227,0,0,0,.606-2.848,2.387,2.387,0,0,0-.409-1.347,1.293,1.293,0,0,0-1.068-.522A1.929,1.929,0,0,0-53.679-6.6,5.173,5.173,0,0,0-54.29-3.706Zm15.609.243,2.259-6.047h2.47l-4,9.51h-2.074l-.7-5.95L-43.506,0H-45.58l-.7-9.51h2.32l.149,5.985L-41.1-9.51H-39.3ZM-31.729,0h-2.5l1.652-9.51h2.5Zm-.554-11.927A1.238,1.238,0,0,1-31.9-12.9a1.36,1.36,0,0,1,.976-.387,1.367,1.367,0,0,1,.976.343,1.233,1.233,0,0,1,.431.932,1.273,1.273,0,0,1-.365.949,1.367,1.367,0,0,1-1,.422,1.39,1.39,0,0,1-.971-.334A1.227,1.227,0,0,1-32.282-11.927Zm6.574,2.408-.211,1.125A3.422,3.422,0,0,1-23.15-9.686a2.281,2.281,0,0,1,1.986.984A3.966,3.966,0,0,1-20.7-6.047L-21.7,0h-2.479l1.02-6.073a2.844,2.844,0,0,0,.018-.624,1.007,1.007,0,0,0-1.125-.923,2.133,2.133,0,0,0-1.749.905L-27.2,0h-2.479l1.652-9.51Zm6.425,4.755a6.58,6.58,0,0,1,1.437-3.582,3.647,3.647,0,0,1,2.958-1.349,2.667,2.667,0,0,1,2.268,1.1l.325-.923,2.276.009L-11.575-.325a4.481,4.481,0,0,1-1.617,3.006,5.03,5.03,0,0,1-3.375,1.072,4.689,4.689,0,0,1-1.881-.426,4.022,4.022,0,0,1-1.477-1.121l1.23-1.512A2.642,2.642,0,0,0-16.62,1.775a2.436,2.436,0,0,0,1.652-.505,2.7,2.7,0,0,0,.932-1.525l.141-.571a3.092,3.092,0,0,1-2.329,1A2.732,2.732,0,0,1-18.431-.857a4.44,4.44,0,0,1-.9-2.641A8.876,8.876,0,0,1-19.283-4.764Zm2.435,1.043A2.273,2.273,0,0,0-16.5-2.4a1.215,1.215,0,0,0,1.006.524A2.219,2.219,0,0,0-13.7-2.735l.738-4.031a1.458,1.458,0,0,0-1.4-.863,1.944,1.944,0,0,0-1.608.766,4.006,4.006,0,0,0-.826,2.1A9.241,9.241,0,0,0-16.849-3.721ZM-.237-11.848-.65-9.51H.932L.606-7.646H-.976l-.809,4.764a1.211,1.211,0,0,0,.07.686q.123.237.6.255.141.009.756-.044L-.536-.044a4.169,4.169,0,0,1-1.424.2A2.234,2.234,0,0,1-3.779-.606a2.763,2.763,0,0,1-.492-2.021l.817-5.019H-4.8l.325-1.863h1.345l.4-2.338ZM4.5-8.455a3.314,3.314,0,0,1,2.575-1.23A2.411,2.411,0,0,1,9.154-8.67a3.991,3.991,0,0,1,.5,2.676L8.648,0H6.17L7.181-6.028A2.921,2.921,0,0,0,7.2-6.661a1,1,0,0,0-1.107-.977,2.141,2.141,0,0,0-1.758.862L3.138,0H.659L3-13.5H5.484ZM15.1.176a4.137,4.137,0,0,1-2.21-.611,3.7,3.7,0,0,1-1.437-1.652A4.605,4.605,0,0,1,11.083-4.4l.026-.352A6.148,6.148,0,0,1,11.918-7.3a4.884,4.884,0,0,1,1.74-1.789,4.306,4.306,0,0,1,2.355-.593A3.29,3.29,0,0,1,18.8-8.334,4.631,4.631,0,0,1,19.512-5L19.371-3.92H13.544a2.041,2.041,0,0,0,.448,1.477,1.711,1.711,0,0,0,1.318.571,3.041,3.041,0,0,0,2.373-1.055l1.134,1.406A3.527,3.527,0,0,1,17.271-.259,5.059,5.059,0,0,1,15.1.176Zm.791-7.813a1.761,1.761,0,0,0-1.217.431,3.784,3.784,0,0,0-.954,1.556h3.41l.053-.229a2.33,2.33,0,0,0,.009-.668,1.276,1.276,0,0,0-.431-.8A1.35,1.35,0,0,0,15.891-7.638ZM27.167,0h-2.5l2.347-13.5H29.5Zm4.72,0h-2.5l1.652-9.51h2.5Zm-.554-11.927a1.238,1.238,0,0,1,.387-.976,1.36,1.36,0,0,1,.976-.387,1.367,1.367,0,0,1,.976.343,1.233,1.233,0,0,1,.431.932,1.273,1.273,0,0,1-.365.949,1.367,1.367,0,0,1-1,.422,1.39,1.39,0,0,1-.971-.334A1.227,1.227,0,0,1,31.333-11.927Zm6.574,2.408L37.7-8.394a3.422,3.422,0,0,1,2.769-1.292,2.281,2.281,0,0,1,1.986.984,3.966,3.966,0,0,1,.466,2.654L41.915,0H39.437l1.02-6.073a2.844,2.844,0,0,0,.018-.624,1.007,1.007,0,0,0-1.125-.923,2.133,2.133,0,0,0-1.749.905L36.413,0H33.935l1.652-9.51Zm10.063,5.73-1.151,1L46.336,0H43.857L46.2-13.5h2.487L47.4-6.17l.483-.519L50.7-9.51h3.182L49.729-5.423,52.374,0H49.658ZM57.788.176a4.137,4.137,0,0,1-2.21-.611,3.7,3.7,0,0,1-1.437-1.652A4.605,4.605,0,0,1,53.771-4.4l.026-.352A6.148,6.148,0,0,1,54.606-7.3a4.884,4.884,0,0,1,1.74-1.789A4.306,4.306,0,0,1,58.7-9.686a3.29,3.29,0,0,1,2.782,1.351A4.631,4.631,0,0,1,62.2-5L62.06-3.92H56.232a2.041,2.041,0,0,0,.448,1.477A1.711,1.711,0,0,0,58-1.872a3.041,3.041,0,0,0,2.373-1.055l1.134,1.406A3.527,3.527,0,0,1,59.959-.259,5.059,5.059,0,0,1,57.788.176Zm.791-7.813a1.761,1.761,0,0,0-1.217.431,3.784,3.784,0,0,0-.954,1.556h3.41l.053-.229a2.33,2.33,0,0,0,.009-.668,1.276,1.276,0,0,0-.431-.8A1.35,1.35,0,0,0,58.579-7.638Zm10.731.51a5.117,5.117,0,0,0-.835-.088,2.4,2.4,0,0,0-2.1.993L65.276,0H62.8L64.45-9.51l2.329-.009-.229,1.16A2.615,2.615,0,0,1,68.766-9.7a3.615,3.615,0,0,1,.861.123Zm5.458,4.447q.141-.7-.976-1.02l-.8-.2q-2.839-.782-2.76-2.76a2.731,2.731,0,0,1,1.191-2.193,4.434,4.434,0,0,1,2.764-.831,3.978,3.978,0,0,1,2.6.853A2.809,2.809,0,0,1,77.8-6.609L75.34-6.618a1.084,1.084,0,0,0-1.213-1.239,1.745,1.745,0,0,0-1.006.29,1.194,1.194,0,0,0-.523.782q-.132.7,1.063.993l.352.079a7.071,7.071,0,0,1,1.854.664,2.8,2.8,0,0,1,.989.927,2.3,2.3,0,0,1,.321,1.327,2.533,2.533,0,0,1-.584,1.582A3.577,3.577,0,0,1,75.063-.167,5.328,5.328,0,0,1,73.02.176a4.015,4.015,0,0,1-2.637-.91,2.933,2.933,0,0,1-1.072-2.307l2.338.018a1.285,1.285,0,0,0,1.459,1.38,2.076,2.076,0,0,0,1.129-.281A1.111,1.111,0,0,0,74.769-2.681Z" transform="translate(504.333 805.622)" fill="#fff"/>
    <path id="Path_185923" data-name="Path 185923" d="M-11989.333-9508.878h350.666" transform="translate(12746.666 10547.378)" fill="none" stroke="#3c3fa7" stroke-width="2"/>
    <path id="Path_185921" data-name="Path 185921" d="M-11884.333-9675.5l-105,156.867,105,241.289" transform="translate(12608.666 10318.102)" fill="none" stroke="#3c3fa7" stroke-width="2"/>
    <path id="Path_185924" data-name="Path 185924" d="M-11884.333-9589.832l-105,71.2,90.532,77.371" transform="translate(12903.666 10318.102)" fill="none" stroke="#3c3fa7" stroke-width="2"/>
    <path id="Path_190870" data-name="Path 190870" d="M11,0H179a11,11,0,0,1,11,11V39.757a11,11,0,0,1-11,11H11a11,11,0,0,1-11-11V11A11,11,0,0,1,11,0Z" transform="translate(724.333 613)" fill="#8284d2"/>
    <path id="Path_190871" data-name="Path 190871" d="M11,0H179a11,11,0,0,1,11,11V39.757a11,11,0,0,1-11,11H11a11,11,0,0,1-11-11V11A11,11,0,0,1,11,0Z" transform="translate(724.333 1013)" fill="#8284d2"/>
    <path id="Path_190872" data-name="Path 190872" d="M-76.135-4.509-76.926,0H-79.5l2.224-12.8,4.482.009a4.484,4.484,0,0,1,3.261,1.151A3.57,3.57,0,0,1-68.5-8.631a4.041,4.041,0,0,1-1.569,3.006A5.709,5.709,0,0,1-73.709-4.5Zm.36-2.136,2.145.018a2.711,2.711,0,0,0,1.723-.536,2.157,2.157,0,0,0,.817-1.45,1.852,1.852,0,0,0-.294-1.459,1.6,1.6,0,0,0-1.261-.58l-2.426-.009Zm13.351,5.66A3.283,3.283,0,0,1-65.043.176a2.443,2.443,0,0,1-2.074-.984,3.6,3.6,0,0,1-.545-2.549l1.028-6.152h2.479L-65.2-3.324a2.446,2.446,0,0,0-.009.545.9.9,0,0,0,.976.906,2.265,2.265,0,0,0,1.907-.889l1.187-6.749h2.5L-60.3,0h-2.312Zm10.485-6.144a5.117,5.117,0,0,0-.835-.088,2.4,2.4,0,0,0-2.1.993L-55.973,0h-2.479L-56.8-9.51l2.329-.009-.229,1.16A2.615,2.615,0,0,1-52.484-9.7a3.615,3.615,0,0,1,.861.123Zm9.079,2.4a7.854,7.854,0,0,1-.782,2.654A4.3,4.3,0,0,1-45.127-.352,3.44,3.44,0,0,1-47.1.185a2.745,2.745,0,0,1-2.18-1.028l-.87,4.5h-2.479L-50.348-9.51l2.285-.009-.167.958A3.036,3.036,0,0,1-45.8-9.686,2.7,2.7,0,0,1-43.633-8.67a4.412,4.412,0,0,1,.826,2.659A10.274,10.274,0,0,1-42.86-4.729Zm-2.461-.18.053-.845A2.351,2.351,0,0,0-45.58-7.11a1.12,1.12,0,0,0-.962-.519,2.046,2.046,0,0,0-1.784.915l-.712,3.926a1.387,1.387,0,0,0,1.4.924,1.789,1.789,0,0,0,1.494-.7A4.763,4.763,0,0,0-45.321-4.909Zm8.684-4.777a3.814,3.814,0,0,1,2.167.646,3.638,3.638,0,0,1,1.336,1.731,5.357,5.357,0,0,1,.3,2.448,5.786,5.786,0,0,1-1.578,3.669,4.455,4.455,0,0,1-3.4,1.367,3.8,3.8,0,0,1-2.145-.637A3.624,3.624,0,0,1-41.287-2.18a5.239,5.239,0,0,1-.308-2.426,5.957,5.957,0,0,1,1.6-3.744A4.363,4.363,0,0,1-36.637-9.686Zm-2.5,5.979a2.194,2.194,0,0,0,.4,1.33,1.314,1.314,0,0,0,1.063.5A1.926,1.926,0,0,0-35.89-2.921a5.227,5.227,0,0,0,.606-2.848,2.387,2.387,0,0,0-.409-1.347,1.293,1.293,0,0,0-1.068-.522A1.929,1.929,0,0,0-38.531-6.6,5.173,5.173,0,0,0-39.142-3.706Zm12.533,1.026q.141-.7-.976-1.02l-.8-.2q-2.839-.782-2.76-2.76a2.731,2.731,0,0,1,1.191-2.193,4.434,4.434,0,0,1,2.764-.831,3.978,3.978,0,0,1,2.6.853,2.809,2.809,0,0,1,1.011,2.224l-2.461-.009A1.084,1.084,0,0,0-27.25-7.857a1.745,1.745,0,0,0-1.006.29,1.194,1.194,0,0,0-.523.782q-.132.7,1.063.993l.352.079a7.071,7.071,0,0,1,1.854.664,2.8,2.8,0,0,1,.989.927A2.3,2.3,0,0,1-24.2-2.795a2.533,2.533,0,0,1-.584,1.582A3.577,3.577,0,0,1-26.314-.167a5.328,5.328,0,0,1-2.043.343,4.015,4.015,0,0,1-2.637-.91,2.933,2.933,0,0,1-1.072-2.307l2.338.018a1.285,1.285,0,0,0,1.459,1.38,2.076,2.076,0,0,0,1.129-.281A1.111,1.111,0,0,0-26.609-2.681ZM-18.541.176a4.137,4.137,0,0,1-2.21-.611,3.7,3.7,0,0,1-1.437-1.652A4.605,4.605,0,0,1-22.557-4.4l.026-.352A6.148,6.148,0,0,1-21.722-7.3a4.884,4.884,0,0,1,1.74-1.789,4.306,4.306,0,0,1,2.355-.593,3.29,3.29,0,0,1,2.782,1.351A4.631,4.631,0,0,1-14.128-5l-.141,1.083H-20.1a2.041,2.041,0,0,0,.448,1.477,1.711,1.711,0,0,0,1.318.571,3.041,3.041,0,0,0,2.373-1.055l1.134,1.406A3.527,3.527,0,0,1-16.37-.259,5.059,5.059,0,0,1-18.541.176Zm.791-7.813a1.761,1.761,0,0,0-1.217.431,3.784,3.784,0,0,0-.954,1.556h3.41l.053-.229a2.33,2.33,0,0,0,.009-.668,1.276,1.276,0,0,0-.431-.8A1.35,1.35,0,0,0-17.75-7.638Zm14.1-2.048a3.814,3.814,0,0,1,2.167.646A3.638,3.638,0,0,1-.149-7.308a5.357,5.357,0,0,1,.3,2.448A5.786,5.786,0,0,1-1.424-1.191,4.455,4.455,0,0,1-4.821.176,3.8,3.8,0,0,1-6.965-.461,3.624,3.624,0,0,1-8.3-2.18a5.239,5.239,0,0,1-.308-2.426,5.957,5.957,0,0,1,1.6-3.744A4.363,4.363,0,0,1-3.652-9.686Zm-2.5,5.979a2.194,2.194,0,0,0,.4,1.33,1.314,1.314,0,0,0,1.063.5A1.926,1.926,0,0,0-2.9-2.921,5.227,5.227,0,0,0-2.3-5.769a2.387,2.387,0,0,0-.409-1.347,1.293,1.293,0,0,0-1.068-.522A1.929,1.929,0,0,0-5.546-6.6,5.173,5.173,0,0,0-6.157-3.706ZM1.534,0,2.861-7.655H1.49L1.815-9.51l1.371-.009.123-.949a3.748,3.748,0,0,1,1.239-2.386A3.751,3.751,0,0,1,7.124-13.7a8.246,8.246,0,0,1,1.345.184l-.22,1.97a3.073,3.073,0,0,0-.729-.105,1.817,1.817,0,0,0-1.129.335,1.525,1.525,0,0,0-.584,1.033l-.132.777H7.51L7.185-7.655H5.357L4.03,0ZM16.677-11.848,16.264-9.51h1.582l-.325,1.863H15.939L15.13-2.883a1.211,1.211,0,0,0,.07.686q.123.237.6.255.141.009.756-.044L16.378-.044a4.169,4.169,0,0,1-1.424.2,2.234,2.234,0,0,1-1.819-.765,2.763,2.763,0,0,1-.492-2.021l.817-5.019H12.116l.325-1.863h1.345l.4-2.338Zm4.737,3.393a3.314,3.314,0,0,1,2.575-1.23A2.411,2.411,0,0,1,26.068-8.67a3.991,3.991,0,0,1,.5,2.676L25.563,0H23.084L24.1-6.028a2.921,2.921,0,0,0,.018-.633,1,1,0,0,0-1.107-.977,2.141,2.141,0,0,0-1.758.862L20.052,0H17.574l2.338-13.5H22.4ZM32.014.176A4.137,4.137,0,0,1,29.8-.435a3.7,3.7,0,0,1-1.437-1.652A4.605,4.605,0,0,1,28-4.4l.026-.352A6.148,6.148,0,0,1,28.833-7.3a4.884,4.884,0,0,1,1.74-1.789,4.306,4.306,0,0,1,2.355-.593A3.29,3.29,0,0,1,35.71-8.334,4.631,4.631,0,0,1,36.426-5L36.286-3.92H30.458a2.041,2.041,0,0,0,.448,1.477,1.711,1.711,0,0,0,1.318.571A3.041,3.041,0,0,0,34.6-2.927l1.134,1.406A3.527,3.527,0,0,1,34.185-.259,5.059,5.059,0,0,1,32.014.176Zm.791-7.813a1.761,1.761,0,0,0-1.217.431,3.784,3.784,0,0,0-.954,1.556h3.41L34.1-5.88a2.33,2.33,0,0,0,.009-.668,1.276,1.276,0,0,0-.431-.8A1.35,1.35,0,0,0,32.805-7.638ZM44.082,0h-2.5l2.347-13.5h2.487ZM48.8,0h-2.5l1.652-9.51h2.5Zm-.554-11.927a1.238,1.238,0,0,1,.387-.976,1.36,1.36,0,0,1,.976-.387,1.367,1.367,0,0,1,.976.343,1.233,1.233,0,0,1,.431.932,1.273,1.273,0,0,1-.365.949,1.367,1.367,0,0,1-1,.422,1.39,1.39,0,0,1-.971-.334A1.227,1.227,0,0,1,48.248-11.927Zm6.574,2.408-.211,1.125a3.422,3.422,0,0,1,2.769-1.292,2.281,2.281,0,0,1,1.986.984,3.966,3.966,0,0,1,.466,2.654L58.83,0H56.351l1.02-6.073a2.844,2.844,0,0,0,.018-.624,1.007,1.007,0,0,0-1.125-.923,2.133,2.133,0,0,0-1.749.905L53.328,0H50.849L52.5-9.51Zm10.063,5.73-1.151,1L63.25,0H60.772L63.11-13.5H65.6L64.314-6.17l.483-.519L67.619-9.51H70.8L66.643-5.423,69.289,0H66.573ZM74.7.176a4.137,4.137,0,0,1-2.21-.611,3.7,3.7,0,0,1-1.437-1.652A4.605,4.605,0,0,1,70.686-4.4l.026-.352A6.148,6.148,0,0,1,71.521-7.3a4.884,4.884,0,0,1,1.74-1.789,4.306,4.306,0,0,1,2.355-.593A3.29,3.29,0,0,1,78.4-8.334,4.631,4.631,0,0,1,79.115-5L78.974-3.92H73.147A2.041,2.041,0,0,0,73.6-2.443a1.711,1.711,0,0,0,1.318.571,3.041,3.041,0,0,0,2.373-1.055L78.42-1.521A3.527,3.527,0,0,1,76.874-.259,5.059,5.059,0,0,1,74.7.176Zm.791-7.813a1.761,1.761,0,0,0-1.217.431,3.784,3.784,0,0,0-.954,1.556h3.41l.053-.229a2.33,2.33,0,0,0,.009-.668,1.276,1.276,0,0,0-.431-.8A1.35,1.35,0,0,0,75.494-7.638Z" transform="translate(819.333 645)" fill="#fff"/>
    <path id="Path_190873" data-name="Path 190873" d="M-65.268-5.106l-1.687,1.564L-67.57,0h-2.575l2.224-12.8h2.575l-.984,5.643,1.31-1.477,3.85-4.166h3.357l-5.528,5.818L-60.047,0h-2.936Zm10.055-4.412-.211,1.125a3.422,3.422,0,0,1,2.769-1.292,2.281,2.281,0,0,1,1.986.984A3.966,3.966,0,0,1-50.2-6.047l-1,6.047h-2.479l1.02-6.073a2.844,2.844,0,0,0,.018-.624,1.007,1.007,0,0,0-1.125-.923,2.133,2.133,0,0,0-1.749.905L-56.707,0h-2.479l1.652-9.51Zm11.391-.167a3.814,3.814,0,0,1,2.167.646A3.638,3.638,0,0,1-40.32-7.308a5.357,5.357,0,0,1,.3,2.448,5.786,5.786,0,0,1-1.578,3.669,4.455,4.455,0,0,1-3.4,1.367,3.8,3.8,0,0,1-2.145-.637A3.624,3.624,0,0,1-48.472-2.18a5.239,5.239,0,0,1-.308-2.426,5.957,5.957,0,0,1,1.6-3.744A4.363,4.363,0,0,1-43.822-9.686Zm-2.5,5.979a2.194,2.194,0,0,0,.4,1.33,1.314,1.314,0,0,0,1.063.5,1.926,1.926,0,0,0,1.793-1.049,5.227,5.227,0,0,0,.606-2.848,2.387,2.387,0,0,0-.409-1.347,1.293,1.293,0,0,0-1.068-.522A1.929,1.929,0,0,0-45.716-6.6,5.173,5.173,0,0,0-46.327-3.706Zm15.609.243,2.259-6.047h2.47l-4,9.51h-2.074l-.7-5.95L-35.543,0h-2.074l-.7-9.51H-36l.149,5.985,2.716-5.985h1.793ZM-23.766,0h-2.5l1.652-9.51h2.5Zm-.554-11.927a1.238,1.238,0,0,1,.387-.976,1.36,1.36,0,0,1,.976-.387,1.367,1.367,0,0,1,.976.343,1.233,1.233,0,0,1,.431.932,1.273,1.273,0,0,1-.365.949,1.367,1.367,0,0,1-1,.422,1.39,1.39,0,0,1-.971-.334A1.227,1.227,0,0,1-24.319-11.927Zm6.574,2.408-.211,1.125a3.422,3.422,0,0,1,2.769-1.292A2.281,2.281,0,0,1-13.2-8.7a3.966,3.966,0,0,1,.466,2.654l-1,6.047h-2.479l1.02-6.073a2.844,2.844,0,0,0,.018-.624A1.007,1.007,0,0,0-16.3-7.62a2.133,2.133,0,0,0-1.749.905L-19.239,0h-2.479l1.652-9.51Zm6.425,4.755A6.58,6.58,0,0,1-9.883-8.345,3.647,3.647,0,0,1-6.926-9.694,2.667,2.667,0,0,1-4.658-8.6l.325-.923,2.276.009L-3.612-.325A4.481,4.481,0,0,1-5.229,2.681,5.03,5.03,0,0,1-8.6,3.753a4.689,4.689,0,0,1-1.881-.426,4.022,4.022,0,0,1-1.477-1.121l1.23-1.512A2.642,2.642,0,0,0-8.657,1.775,2.436,2.436,0,0,0-7,1.27,2.7,2.7,0,0,0-6.073-.255l.141-.571a3.092,3.092,0,0,1-2.329,1A2.732,2.732,0,0,1-10.468-.857a4.44,4.44,0,0,1-.9-2.641A8.876,8.876,0,0,1-11.32-4.764Zm2.435,1.043A2.273,2.273,0,0,0-8.539-2.4a1.215,1.215,0,0,0,1.006.524,2.219,2.219,0,0,0,1.793-.863L-5-6.766a1.458,1.458,0,0,0-1.4-.863,1.944,1.944,0,0,0-1.608.766,4.006,4.006,0,0,0-.826,2.1A9.241,9.241,0,0,0-8.886-3.721ZM8.2,0a2.566,2.566,0,0,1-.1-.861A3.221,3.221,0,0,1,5.678.176a2.919,2.919,0,0,1-2.07-.813A2.46,2.46,0,0,1,2.839-2.6,2.843,2.843,0,0,1,4.144-4.988a5.924,5.924,0,0,1,3.335-.831L8.64-5.8l.123-.571a1.984,1.984,0,0,0,.026-.554.952.952,0,0,0-.312-.646,1.075,1.075,0,0,0-.708-.242,1.514,1.514,0,0,0-.984.286,1.384,1.384,0,0,0-.519.875l-2.487.009a2.764,2.764,0,0,1,1.252-2.21,4.851,4.851,0,0,1,2.94-.831,3.507,3.507,0,0,1,2.531.962,2.816,2.816,0,0,1,.765,2.386l-.729,4.553-.044.563a2.714,2.714,0,0,0,.149,1.055L10.635,0ZM6.293-1.749a2.27,2.27,0,0,0,1.872-.932l.308-1.644-.861-.009A2.406,2.406,0,0,0,5.634-3.5a1.454,1.454,0,0,0-.272.712.844.844,0,0,0,.2.751A1,1,0,0,0,6.293-1.749ZM20.584-3.138,23.291-9.51h2.672L21.366,0H18.993L17.367-9.51h2.514ZM30.867,0a2.566,2.566,0,0,1-.1-.861A3.221,3.221,0,0,1,28.345.176a2.919,2.919,0,0,1-2.07-.813A2.46,2.46,0,0,1,25.506-2.6a2.843,2.843,0,0,1,1.305-2.386,5.924,5.924,0,0,1,3.335-.831l1.16.018.123-.571a1.984,1.984,0,0,0,.026-.554.952.952,0,0,0-.312-.646,1.075,1.075,0,0,0-.708-.242,1.514,1.514,0,0,0-.984.286,1.384,1.384,0,0,0-.519.875l-2.487.009A2.764,2.764,0,0,1,27.7-8.855a4.851,4.851,0,0,1,2.94-.831,3.507,3.507,0,0,1,2.531.962,2.816,2.816,0,0,1,.765,2.386l-.729,4.553-.044.563a2.714,2.714,0,0,0,.149,1.055L33.3,0ZM28.96-1.749a2.27,2.27,0,0,0,1.872-.932l.308-1.644-.861-.009A2.406,2.406,0,0,0,28.3-3.5a1.454,1.454,0,0,0-.272.712.844.844,0,0,0,.2.751A1,1,0,0,0,28.96-1.749ZM41.326-7.128a5.117,5.117,0,0,0-.835-.088,2.4,2.4,0,0,0-2.1.993L37.292,0H34.813l1.652-9.51,2.329-.009-.229,1.16A2.615,2.615,0,0,1,40.781-9.7a3.615,3.615,0,0,1,.861.123ZM43.893,0H41.4l1.652-9.51h2.5Zm-.554-11.927a1.238,1.238,0,0,1,.387-.976,1.36,1.36,0,0,1,.976-.387,1.367,1.367,0,0,1,.976.343,1.233,1.233,0,0,1,.431.932,1.273,1.273,0,0,1-.365.949,1.367,1.367,0,0,1-1,.422,1.39,1.39,0,0,1-.971-.334A1.227,1.227,0,0,1,43.339-11.927ZM50.511.176A4.137,4.137,0,0,1,48.3-.435a3.7,3.7,0,0,1-1.437-1.652A4.605,4.605,0,0,1,46.494-4.4l.026-.352A6.148,6.148,0,0,1,47.329-7.3a4.884,4.884,0,0,1,1.74-1.789,4.306,4.306,0,0,1,2.355-.593,3.29,3.29,0,0,1,2.782,1.351A4.631,4.631,0,0,1,54.923-5L54.782-3.92H48.955A2.041,2.041,0,0,0,49.4-2.443a1.711,1.711,0,0,0,1.318.571,3.041,3.041,0,0,0,2.373-1.055l1.134,1.406A3.527,3.527,0,0,1,52.682-.259,5.059,5.059,0,0,1,50.511.176ZM51.3-7.638a1.761,1.761,0,0,0-1.217.431,3.784,3.784,0,0,0-.954,1.556h3.41l.053-.229a2.33,2.33,0,0,0,.009-.668,1.276,1.276,0,0,0-.431-.8A1.35,1.35,0,0,0,51.3-7.638Zm9.246-4.21L60.135-9.51h1.582l-.325,1.863H59.81L59-2.883a1.211,1.211,0,0,0,.07.686q.123.237.6.255.141.009.756-.044L60.249-.044a4.169,4.169,0,0,1-1.424.2,2.234,2.234,0,0,1-1.819-.765,2.763,2.763,0,0,1-.492-2.021l.817-5.019H55.986l.325-1.863h1.345l.4-2.338ZM65.54-3.621,68.256-9.51h2.76L65.452,1.433a4.76,4.76,0,0,1-1.4,1.846,3.063,3.063,0,0,1-1.859.589A5.665,5.665,0,0,1,61,3.683l.185-1.934.343.018A1.858,1.858,0,0,0,63.3.879l.545-1.011L62.288-9.51h2.566Z" transform="translate(819.333 1045)" fill="#fff"/>
    <path id="Path_190874" data-name="Path 190874" d="M11,0H199a11,11,0,0,1,11,11V39.757a11,11,0,0,1-11,11H11a11,11,0,0,1-11-11V11A11,11,0,0,1,11,0Z" transform="translate(981.667 1013)" fill="#e1e8ff"/>
    <path id="Path_190875" data-name="Path 190875" d="M-84.828,0h-1.644l2.224-12.8H-82.6Zm5.977-9.519-.229,1.2a3.749,3.749,0,0,1,2.918-1.371,2.359,2.359,0,0,1,1.986.932A3.619,3.619,0,0,1-73.7-6.231L-74.738,0h-1.591l1.046-6.251a3.332,3.332,0,0,0,.009-.8,1.314,1.314,0,0,0-1.45-1.255,2.994,2.994,0,0,0-2.514,1.528L-80.416,0h-1.591l1.652-9.51Zm10.767-2.294-.4,2.3h1.731l-.22,1.257H-68.7l-.993,5.915a2.062,2.062,0,0,0-.009.422.67.67,0,0,0,.747.686,4.556,4.556,0,0,0,.773-.088L-68.3.009a4.328,4.328,0,0,1-1.16.158,1.661,1.661,0,0,1-1.424-.7,2.7,2.7,0,0,1-.369-1.833l.967-5.889h-1.679l.22-1.257h1.679l.4-2.3ZM-62.38.176a3.429,3.429,0,0,1-2.777-1.31A4.507,4.507,0,0,1-66-4.395l.044-.378a6.327,6.327,0,0,1,.839-2.584,4.882,4.882,0,0,1,1.683-1.762,3.927,3.927,0,0,1,2.145-.567,3.024,3.024,0,0,1,2.3.976,4.012,4.012,0,0,1,.914,2.549,7.448,7.448,0,0,1-.035,1.143l-.1.729h-6.214a3.212,3.212,0,0,0,.426,2.2,2.019,2.019,0,0,0,1.745.94,3.383,3.383,0,0,0,2.6-1.266l.914.773A4.183,4.183,0,0,1-60.275-.294,4.371,4.371,0,0,1-62.38.176Zm1.011-8.534a2.324,2.324,0,0,0-1.718.668,4.748,4.748,0,0,0-1.165,2.065l4.623.009.035-.141A2.6,2.6,0,0,0-59.95-7.6,1.674,1.674,0,0,0-61.37-8.358Zm4.676,3.586a7.75,7.75,0,0,1,.839-2.7,4.39,4.39,0,0,1,1.529-1.7,3.545,3.545,0,0,1,1.973-.523,2.926,2.926,0,0,1,2.5,1.248l.316-1.063h1.459L-49.663-.2a4.627,4.627,0,0,1-1.477,2.914,4.159,4.159,0,0,1-3.015,1.042A4.281,4.281,0,0,1-56,3.3a3.518,3.518,0,0,1-1.393-1.2l.905-.976a2.721,2.721,0,0,0,2.276,1.31,2.728,2.728,0,0,0,1.92-.633,3.265,3.265,0,0,0,1.042-1.9l.176-.844A3.6,3.6,0,0,1-53.793.176,2.8,2.8,0,0,1-55.336-.3a2.913,2.913,0,0,1-1.015-1.31,5.354,5.354,0,0,1-.4-1.912A9.825,9.825,0,0,1-56.694-4.772Zm1.538.9a3.345,3.345,0,0,0,.435,1.944,1.644,1.644,0,0,0,1.393.724,2.881,2.881,0,0,0,2.452-1.4l.747-4.363a2,2,0,0,0-1.907-1.352,2.468,2.468,0,0,0-2.123,1.053,5.488,5.488,0,0,0-.98,2.941Zm13.8-4.187-.747-.079a2.722,2.722,0,0,0-2.408,1.38L-45.681,0h-1.591l1.652-9.51,1.538-.009-.237,1.107A2.843,2.843,0,0,1-41.937-9.7a2.918,2.918,0,0,1,.756.132ZM-35.811,0a2.13,2.13,0,0,1-.062-.5l.026-.5A3.9,3.9,0,0,1-38.624.176a2.841,2.841,0,0,1-2.043-.8,2.407,2.407,0,0,1-.716-1.947,2.927,2.927,0,0,1,1.323-2.36,5.631,5.631,0,0,1,3.248-.848l1.661.009.105-.756a1.738,1.738,0,0,0-.33-1.349,1.591,1.591,0,0,0-1.252-.514,2.453,2.453,0,0,0-1.446.4,1.7,1.7,0,0,0-.769,1.1l-1.6.009a2.55,2.55,0,0,1,.65-1.481,3.784,3.784,0,0,1,1.468-1,4.742,4.742,0,0,1,1.854-.338,3.153,3.153,0,0,1,2.312.9,2.794,2.794,0,0,1,.694,2.3l-.773,4.711-.044.677a3.318,3.318,0,0,0,.105.958L-34.194,0Zm-2.5-1.23A2.774,2.774,0,0,0-36.861-1.6a3.661,3.661,0,0,0,1.173-1.059l.343-1.96-1.2-.009a4.561,4.561,0,0,0-2.3.475A1.748,1.748,0,0,0-39.757-2.8a1.361,1.361,0,0,0,.312,1.112A1.486,1.486,0,0,0-38.307-1.23Zm10.468-10.582-.4,2.3h1.731l-.22,1.257h-1.723l-.993,5.915a2.062,2.062,0,0,0-.009.422.67.67,0,0,0,.747.686,4.556,4.556,0,0,0,.773-.088L-28.059.009a4.328,4.328,0,0,1-1.16.158,1.661,1.661,0,0,1-1.424-.7,2.7,2.7,0,0,1-.369-1.833l.967-5.889h-1.679l.22-1.257h1.679l.4-2.3ZM-24.526,0h-1.582l1.652-9.51h1.582Zm1.31-12.981a.87.87,0,0,1,.672.242.9.9,0,0,1,.268.681.955.955,0,0,1-.268.677.962.962,0,0,1-.672.281.876.876,0,0,1-.677-.237.86.86,0,0,1-.255-.668,1,1,0,0,1,.264-.686A.93.93,0,0,1-23.216-12.981Zm4.447,3.463L-19-8.314A3.749,3.749,0,0,1-16.08-9.686a2.359,2.359,0,0,1,1.986.932,3.619,3.619,0,0,1,.475,2.522L-14.656,0h-1.591L-15.2-6.251a3.332,3.332,0,0,0,.009-.8,1.314,1.314,0,0,0-1.45-1.255,2.994,2.994,0,0,0-2.514,1.528L-20.333,0h-1.591l1.652-9.51Zm7.031,4.746a7.75,7.75,0,0,1,.839-2.7,4.39,4.39,0,0,1,1.529-1.7A3.545,3.545,0,0,1-7.4-9.694,2.926,2.926,0,0,1-4.9-8.446l.316-1.063h1.459L-4.707-.2A4.627,4.627,0,0,1-6.183,2.711,4.159,4.159,0,0,1-9.2,3.753a4.281,4.281,0,0,1-1.85-.457,3.518,3.518,0,0,1-1.393-1.2l.905-.976a2.721,2.721,0,0,0,2.276,1.31,2.728,2.728,0,0,0,1.92-.633A3.265,3.265,0,0,0-6.3-.105l.176-.844A3.6,3.6,0,0,1-8.837.176,2.8,2.8,0,0,1-10.38-.3,2.913,2.913,0,0,1-11.4-1.613a5.354,5.354,0,0,1-.4-1.912A9.825,9.825,0,0,1-11.738-4.772Zm1.538.9a3.345,3.345,0,0,0,.435,1.944A1.644,1.644,0,0,0-8.372-1.2,2.881,2.881,0,0,0-5.919-2.6l.747-4.363A2,2,0,0,0-7.08-8.314,2.468,2.468,0,0,0-9.2-7.261a5.488,5.488,0,0,0-.98,2.941ZM5.55-2.224,8.978-9.51h1.679L5.867,0H4.654L2.791-9.51H4.355ZM15.79-9.686a3.428,3.428,0,0,1,2.048.65A3.7,3.7,0,0,1,19.1-7.291a5.4,5.4,0,0,1,.277,2.43l-.018.193a6.4,6.4,0,0,1-.826,2.509A4.848,4.848,0,0,1,16.827-.413a4.158,4.158,0,0,1-2.294.589,3.434,3.434,0,0,1-2.043-.65A3.611,3.611,0,0,1,11.237-2.2a5.547,5.547,0,0,1-.281-2.4,6.48,6.48,0,0,1,.8-2.654,4.96,4.96,0,0,1,1.718-1.824A4.109,4.109,0,0,1,15.79-9.686Zm-3.234,5.1a5.4,5.4,0,0,0,0,1.151,2.821,2.821,0,0,0,.62,1.652,1.86,1.86,0,0,0,1.419.642,2.534,2.534,0,0,0,1.459-.391,3.284,3.284,0,0,0,1.125-1.261,5.311,5.311,0,0,0,.589-1.872,8.431,8.431,0,0,0,.026-1.362,2.927,2.927,0,0,0-.642-1.679,1.9,1.9,0,0,0-1.424-.65,2.592,2.592,0,0,0-2.092.967,4.776,4.776,0,0,0-1.063,2.6ZM24.57-1.143a2.413,2.413,0,0,0,1.538-.5A2.362,2.362,0,0,0,27-2.988L28.507-3a3.391,3.391,0,0,1-.716,1.635A4,4,0,0,1,26.319-.211,4,4,0,0,1,24.5.176a3.394,3.394,0,0,1-2.008-.62,3.469,3.469,0,0,1-1.208-1.679,5.593,5.593,0,0,1-.264-2.421l.044-.439a6.306,6.306,0,0,1,.8-2.452,4.624,4.624,0,0,1,1.652-1.683,4.1,4.1,0,0,1,2.25-.567,3.214,3.214,0,0,1,2.391,1,3.465,3.465,0,0,1,.9,2.452L27.567-6.24a2.283,2.283,0,0,0-.519-1.507,1.808,1.808,0,0,0-1.354-.611,2.536,2.536,0,0,0-2.061.923A4.834,4.834,0,0,0,22.61-4.781l-.026.229a7.623,7.623,0,0,0-.018,1.16,2.65,2.65,0,0,0,.58,1.626A1.863,1.863,0,0,0,24.57-1.143ZM35.6,0a2.13,2.13,0,0,1-.062-.5l.026-.5A3.9,3.9,0,0,1,32.788.176a2.841,2.841,0,0,1-2.043-.8,2.407,2.407,0,0,1-.716-1.947,2.927,2.927,0,0,1,1.323-2.36A5.631,5.631,0,0,1,34.6-5.774l1.661.009.105-.756a1.738,1.738,0,0,0-.33-1.349,1.591,1.591,0,0,0-1.252-.514,2.453,2.453,0,0,0-1.446.4,1.7,1.7,0,0,0-.769,1.1l-1.6.009a2.55,2.55,0,0,1,.65-1.481,3.784,3.784,0,0,1,1.468-1,4.742,4.742,0,0,1,1.854-.338,3.153,3.153,0,0,1,2.312.9,2.794,2.794,0,0,1,.694,2.3l-.773,4.711-.044.677a3.318,3.318,0,0,0,.105.958L37.217,0ZM33.1-1.23A2.774,2.774,0,0,0,34.55-1.6a3.661,3.661,0,0,0,1.173-1.059l.343-1.96-1.2-.009a4.561,4.561,0,0,0-2.3.475A1.748,1.748,0,0,0,31.654-2.8a1.361,1.361,0,0,0,.312,1.112A1.486,1.486,0,0,0,33.1-1.23ZM48-4.711a7.41,7.41,0,0,1-.8,2.628A4.48,4.48,0,0,1,45.69-.352a3.44,3.44,0,0,1-1.969.536,2.936,2.936,0,0,1-2.558-1.292L40.838,0H39.371l2.347-13.5h1.591L42.35-8.455a3.5,3.5,0,0,1,2.777-1.23,2.653,2.653,0,0,1,2.136,1.011,4.448,4.448,0,0,1,.809,2.689,8.283,8.283,0,0,1-.053,1.09ZM46.49-5.628a3.385,3.385,0,0,0-.431-1.962,1.648,1.648,0,0,0-1.4-.715,2.9,2.9,0,0,0-2.514,1.492l-.712,4.134A2.024,2.024,0,0,0,43.414-1.2a2.311,2.311,0,0,0,1.63-.553A3.613,3.613,0,0,0,46.1-3.394,7.4,7.4,0,0,0,46.49-5.628ZM55.3-.94A3.673,3.673,0,0,1,52.458.176,2.37,2.37,0,0,1,50.44-.8a3.731,3.731,0,0,1-.488-2.566l1.02-6.144h1.591L51.535-3.34a4.1,4.1,0,0,0-.018.756,1.573,1.573,0,0,0,.378.993,1.29,1.29,0,0,0,.932.387,2.854,2.854,0,0,0,2.637-1.38l1.2-6.926H58.25L56.6,0h-1.5Zm5.4.94H59.111l2.338-13.5H63.04Zm8.42,0a2.13,2.13,0,0,1-.062-.5l.026-.5A3.9,3.9,0,0,1,66.3.176a2.841,2.841,0,0,1-2.043-.8,2.407,2.407,0,0,1-.716-1.947,2.927,2.927,0,0,1,1.323-2.36,5.631,5.631,0,0,1,3.248-.848l1.661.009.105-.756a1.738,1.738,0,0,0-.33-1.349A1.591,1.591,0,0,0,68.3-8.385a2.453,2.453,0,0,0-1.446.4,1.7,1.7,0,0,0-.769,1.1l-1.6.009a2.55,2.55,0,0,1,.65-1.481,3.784,3.784,0,0,1,1.468-1,4.742,4.742,0,0,1,1.854-.338,3.153,3.153,0,0,1,2.312.9,2.794,2.794,0,0,1,.694,2.3l-.773,4.711-.044.677a3.318,3.318,0,0,0,.105.958L70.73,0Zm-2.5-1.23A2.774,2.774,0,0,0,68.063-1.6a3.661,3.661,0,0,0,1.173-1.059l.343-1.96-1.2-.009a4.561,4.561,0,0,0-2.3.475A1.748,1.748,0,0,0,65.167-2.8a1.361,1.361,0,0,0,.312,1.112A1.486,1.486,0,0,0,66.617-1.23ZM78.8-8.06l-.747-.079a2.722,2.722,0,0,0-2.408,1.38L74.474,0H72.883l1.652-9.51,1.538-.009-.237,1.107A2.843,2.843,0,0,1,78.218-9.7a2.918,2.918,0,0,1,.756.132ZM82.446-2.4,85.83-9.51h1.758L81.945,1.582q-1.178,2.312-3.023,2.285a5.181,5.181,0,0,1-.958-.158L78.1,2.391l.413.044A2.085,2.085,0,0,0,79.822,2.1,3.119,3.119,0,0,0,80.793.888L81.365-.2,79.721-9.51h1.661Z" transform="translate(1086.667 1045)" fill="#12263f"/>
    <path id="Path_185920" data-name="Path 185920" d="M-11989.334-9508.878h406" transform="translate(12588.666 10308)" fill="none" stroke="#3c3fa7" stroke-width="2"/>
    <path id="Path_190876" data-name="Path 190876" d="M11,0H179a11,11,0,0,1,11,11V39.757a11,11,0,0,1-11,11H11a11,11,0,0,1-11-11V11A11,11,0,0,1,11,0Z" transform="translate(724.333 773.622)" fill="#8284d2"/>
    <path id="Path_190877" data-name="Path 190877" d="M-49.017-12.8l-1.441,8.438a5.142,5.142,0,0,1-1.758,3.349,5.284,5.284,0,0,1-3.621,1.2,4.877,4.877,0,0,1-2.351-.593,3.462,3.462,0,0,1-1.472-1.6,4.337,4.337,0,0,1-.325-2.342l1.433-8.446h2.575L-57.41-4.342a3.757,3.757,0,0,0-.009.923,1.558,1.558,0,0,0,1.7,1.477,2.423,2.423,0,0,0,1.784-.6,3.061,3.061,0,0,0,.9-1.811L-51.6-12.8Zm5.265,10.116q.141-.7-.976-1.02l-.8-.2q-2.839-.782-2.76-2.76A2.731,2.731,0,0,1-47.1-8.855a4.434,4.434,0,0,1,2.764-.831,3.978,3.978,0,0,1,2.6.853A2.809,2.809,0,0,1-40.72-6.609l-2.461-.009a1.084,1.084,0,0,0-1.213-1.239,1.745,1.745,0,0,0-1.006.29,1.194,1.194,0,0,0-.523.782q-.132.7,1.063.993l.352.079a7.071,7.071,0,0,1,1.854.664,2.8,2.8,0,0,1,.989.927,2.3,2.3,0,0,1,.321,1.327,2.533,2.533,0,0,1-.584,1.582A3.577,3.577,0,0,1-43.458-.167,5.328,5.328,0,0,1-45.5.176a4.015,4.015,0,0,1-2.637-.91A2.933,2.933,0,0,1-49.21-3.041l2.338.018a1.285,1.285,0,0,0,1.459,1.38,2.076,2.076,0,0,0,1.129-.281A1.111,1.111,0,0,0-43.752-2.681ZM-37.582,0h-2.5l1.652-9.51h2.5Zm-.554-11.927a1.238,1.238,0,0,1,.387-.976,1.36,1.36,0,0,1,.976-.387,1.367,1.367,0,0,1,.976.343,1.233,1.233,0,0,1,.431.932,1.273,1.273,0,0,1-.365.949,1.367,1.367,0,0,1-1,.422,1.39,1.39,0,0,1-.971-.334A1.227,1.227,0,0,1-38.136-11.927Zm6.574,2.408-.211,1.125A3.422,3.422,0,0,1-29-9.686a2.281,2.281,0,0,1,1.986.984,3.966,3.966,0,0,1,.466,2.654l-1,6.047h-2.479l1.02-6.073A2.844,2.844,0,0,0-29-6.7,1.007,1.007,0,0,0-30.12-7.62a2.133,2.133,0,0,0-1.749.905L-33.056,0h-2.479l1.652-9.51Zm6.425,4.755A6.58,6.58,0,0,1-23.7-8.345a3.647,3.647,0,0,1,2.958-1.349,2.667,2.667,0,0,1,2.268,1.1l.325-.923,2.276.009L-17.429-.325a4.481,4.481,0,0,1-1.617,3.006,5.03,5.03,0,0,1-3.375,1.072A4.689,4.689,0,0,1-24.3,3.327a4.022,4.022,0,0,1-1.477-1.121l1.23-1.512a2.642,2.642,0,0,0,2.074,1.081,2.436,2.436,0,0,0,1.652-.505A2.7,2.7,0,0,0-19.89-.255l.141-.571a3.092,3.092,0,0,1-2.329,1A2.732,2.732,0,0,1-24.284-.857a4.44,4.44,0,0,1-.9-2.641A8.876,8.876,0,0,1-25.137-4.764ZM-22.7-3.721A2.273,2.273,0,0,0-22.355-2.4a1.215,1.215,0,0,0,1.006.524,2.219,2.219,0,0,0,1.793-.863l.738-4.031a1.458,1.458,0,0,0-1.4-.863,1.944,1.944,0,0,0-1.608.766,4.006,4.006,0,0,0-.826,2.1A9.241,9.241,0,0,0-22.7-3.721Zm12.059-1.043A6.58,6.58,0,0,1-9.207-8.345,3.647,3.647,0,0,1-6.249-9.694,2.667,2.667,0,0,1-3.981-8.6l.325-.923,2.276.009L-2.936-.325A4.481,4.481,0,0,1-4.553,2.681,5.03,5.03,0,0,1-7.928,3.753a4.689,4.689,0,0,1-1.881-.426,4.022,4.022,0,0,1-1.477-1.121l1.23-1.512A2.642,2.642,0,0,0-7.98,1.775,2.436,2.436,0,0,0-6.328,1.27,2.7,2.7,0,0,0-5.4-.255l.141-.571a3.092,3.092,0,0,1-2.329,1A2.732,2.732,0,0,1-9.791-.857a4.44,4.44,0,0,1-.9-2.641A8.876,8.876,0,0,1-10.644-4.764Zm2.435,1.043A2.273,2.273,0,0,0-7.862-2.4a1.215,1.215,0,0,0,1.006.524,2.219,2.219,0,0,0,1.793-.863l.738-4.031a1.458,1.458,0,0,0-1.4-.863,1.944,1.944,0,0,0-1.608.766,4.006,4.006,0,0,0-.826,2.1A9.241,9.241,0,0,0-8.209-3.721ZM5.449-7.128a5.117,5.117,0,0,0-.835-.088,2.4,2.4,0,0,0-2.1.993L1.415,0H-1.063L.589-9.51l2.329-.009-.229,1.16A2.615,2.615,0,0,1,4.9-9.7a3.615,3.615,0,0,1,.861.123ZM10.635,0a2.566,2.566,0,0,1-.1-.861A3.221,3.221,0,0,1,8.112.176a2.919,2.919,0,0,1-2.07-.813A2.46,2.46,0,0,1,5.273-2.6,2.843,2.843,0,0,1,6.579-4.988a5.924,5.924,0,0,1,3.335-.831l1.16.018.123-.571a1.984,1.984,0,0,0,.026-.554.952.952,0,0,0-.312-.646,1.075,1.075,0,0,0-.708-.242,1.514,1.514,0,0,0-.984.286,1.384,1.384,0,0,0-.519.875l-2.487.009a2.764,2.764,0,0,1,1.252-2.21,4.851,4.851,0,0,1,2.94-.831,3.507,3.507,0,0,1,2.531.962A2.816,2.816,0,0,1,13.7-6.337l-.729,4.553-.044.563a2.714,2.714,0,0,0,.149,1.055L13.069,0ZM8.728-1.749A2.27,2.27,0,0,0,10.6-2.681l.308-1.644-.861-.009A2.406,2.406,0,0,0,8.068-3.5a1.454,1.454,0,0,0-.272.712.844.844,0,0,0,.2.751A1,1,0,0,0,8.728-1.749Zm9.809-7.77-.2,1.081A3.5,3.5,0,0,1,21.12-9.686a2.676,2.676,0,0,1,1.459.4,1.889,1.889,0,0,1,.782,1.046,3.662,3.662,0,0,1,2.953-1.45,2.391,2.391,0,0,1,1.973.9,3.68,3.68,0,0,1,.558,2.514l-.018.22L27.817,0H25.33l1.011-6.08a4.4,4.4,0,0,0,.026-.607.942.942,0,0,0-1.055-.95,2.093,2.093,0,0,0-1.749,1.091l-.026.2L22.43,0H19.951l1.011-6.056a4.386,4.386,0,0,0,.026-.606.94.94,0,0,0-1.046-.958,2.1,2.1,0,0,0-1.7.888L17.06,0H14.581l1.644-9.51Zm15.205,0-.2,1.081a3.5,3.5,0,0,1,2.786-1.248,2.676,2.676,0,0,1,1.459.4,1.889,1.889,0,0,1,.782,1.046,3.662,3.662,0,0,1,2.953-1.45,2.391,2.391,0,0,1,1.973.9,3.68,3.68,0,0,1,.558,2.514l-.018.22L43.022,0H40.535l1.011-6.08a4.4,4.4,0,0,0,.026-.607.942.942,0,0,0-1.055-.95,2.093,2.093,0,0,0-1.749,1.091l-.026.2L37.635,0H35.156l1.011-6.056a4.386,4.386,0,0,0,.026-.606.94.94,0,0,0-1.046-.958,2.1,2.1,0,0,0-1.7.888L32.265,0H29.786L31.43-9.51ZM50.493,0a2.566,2.566,0,0,1-.1-.861A3.221,3.221,0,0,1,47.971.176,2.919,2.919,0,0,1,45.9-.637,2.46,2.46,0,0,1,45.132-2.6a2.843,2.843,0,0,1,1.305-2.386,5.924,5.924,0,0,1,3.335-.831l1.16.018.123-.571a1.984,1.984,0,0,0,.026-.554.952.952,0,0,0-.312-.646,1.075,1.075,0,0,0-.708-.242,1.514,1.514,0,0,0-.984.286,1.384,1.384,0,0,0-.519.875l-2.487.009a2.764,2.764,0,0,1,1.252-2.21,4.851,4.851,0,0,1,2.94-.831,3.507,3.507,0,0,1,2.531.962,2.816,2.816,0,0,1,.765,2.386l-.729,4.553-.044.563a2.714,2.714,0,0,0,.149,1.055L52.928,0ZM48.586-1.749a2.27,2.27,0,0,0,1.872-.932l.308-1.644L49.9-4.333a2.406,2.406,0,0,0-1.978.835,1.454,1.454,0,0,0-.272.712.844.844,0,0,0,.2.751A1,1,0,0,0,48.586-1.749ZM60.952-7.128a5.117,5.117,0,0,0-.835-.088,2.4,2.4,0,0,0-2.1.993L56.918,0H54.439l1.652-9.51,2.329-.009-.229,1.16A2.615,2.615,0,0,1,60.407-9.7a3.615,3.615,0,0,1,.861.123Z" transform="translate(819.333 805.622)" fill="#fff"/>
    <path id="Path_190878" data-name="Path 190878" d="M11,0H179a11,11,0,0,1,11,11V39.757a11,11,0,0,1-11,11H11a11,11,0,0,1-11-11V11A11,11,0,0,1,11,0Z" transform="translate(981.333 707)" fill="#e1e8ff"/>
    <path id="Path_190879" data-name="Path 190879" d="M11,0H179a11,11,0,0,1,11,11V39.757a11,11,0,0,1-11,11H11a11,11,0,0,1-11-11V11A11,11,0,0,1,11,0Z" transform="translate(981.333 773.623)" fill="#e1e8ff"/>
    <path id="Path_190880" data-name="Path 190880" d="M11,0H179a11,11,0,0,1,11,11V39.757a11,11,0,0,1-11,11H11a11,11,0,0,1-11-11V11A11,11,0,0,1,11,0Z" transform="translate(981.333 845.379)" fill="#e1e8ff"/>
    <path id="Path_190881" data-name="Path 190881" d="M-32.247-12.8h1.652l-1.538,9.062A4.564,4.564,0,0,1-33.6-.848,4.256,4.256,0,0,1-36.624.193a3.51,3.51,0,0,1-2.61-1.02,3.471,3.471,0,0,1-.817-2.707h1.644a2.3,2.3,0,0,0,.4,1.683,1.8,1.8,0,0,0,1.477.646,2.429,2.429,0,0,0,1.828-.677,3.086,3.086,0,0,0,.914-1.846Zm7.277,3.111a3.428,3.428,0,0,1,2.048.65,3.7,3.7,0,0,1,1.261,1.745,5.4,5.4,0,0,1,.277,2.43l-.018.193a6.4,6.4,0,0,1-.826,2.509A4.848,4.848,0,0,1-23.933-.413a4.158,4.158,0,0,1-2.294.589,3.434,3.434,0,0,1-2.043-.65A3.611,3.611,0,0,1-29.522-2.2,5.547,5.547,0,0,1-29.8-4.6,6.48,6.48,0,0,1-29-7.251a4.96,4.96,0,0,1,1.718-1.824A4.109,4.109,0,0,1-24.97-9.686Zm-3.234,5.1a5.4,5.4,0,0,0,0,1.151,2.821,2.821,0,0,0,.62,1.652,1.86,1.86,0,0,0,1.419.642,2.534,2.534,0,0,0,1.459-.391,3.284,3.284,0,0,0,1.125-1.261,5.311,5.311,0,0,0,.589-1.872,8.431,8.431,0,0,0,.026-1.362,2.927,2.927,0,0,0-.642-1.679,1.9,1.9,0,0,0-1.424-.65,2.592,2.592,0,0,0-2.092.967,4.776,4.776,0,0,0-1.063,2.6ZM-18.483,0h-1.582l1.652-9.51h1.582Zm1.31-12.981a.87.87,0,0,1,.672.242.9.9,0,0,1,.268.681.955.955,0,0,1-.268.677.962.962,0,0,1-.672.281.876.876,0,0,1-.677-.237.86.86,0,0,1-.255-.668,1,1,0,0,1,.264-.686A.93.93,0,0,1-17.174-12.981Zm4.447,3.463-.229,1.2a3.749,3.749,0,0,1,2.918-1.371,2.359,2.359,0,0,1,1.986.932,3.619,3.619,0,0,1,.475,2.522L-8.613,0H-10.2l1.046-6.251a3.332,3.332,0,0,0,.009-.8A1.314,1.314,0,0,0-10.6-8.306a2.994,2.994,0,0,0-2.514,1.528L-14.291,0h-1.591l1.652-9.51ZM-.026,0H-1.608L.044-9.51H1.626Zm1.31-12.981a.87.87,0,0,1,.672.242.9.9,0,0,1,.268.681.955.955,0,0,1-.268.677.962.962,0,0,1-.672.281.876.876,0,0,1-.677-.237.86.86,0,0,1-.255-.668,1,1,0,0,1,.264-.686A.93.93,0,0,1,1.283-12.981ZM3.032-4.772a7.4,7.4,0,0,1,.8-2.619A4.534,4.534,0,0,1,5.37-9.141a3.517,3.517,0,0,1,2.013-.554,2.971,2.971,0,0,1,2.443,1.16L10.74-13.5h1.591L9.993,0H8.543L8.71-1.02A3.506,3.506,0,0,1,5.933.176a2.627,2.627,0,0,1-2.1-1.033,4.5,4.5,0,0,1-.844-2.676A8.547,8.547,0,0,1,3.032-4.772Zm1.529.909A3.3,3.3,0,0,0,5.01-1.915,1.617,1.617,0,0,0,6.4-1.2,2.874,2.874,0,0,0,8.851-2.591L9.606-6.98A1.973,1.973,0,0,0,7.69-8.314a2.411,2.411,0,0,0-1.657.566,3.663,3.663,0,0,0-1.09,1.659A6.842,6.842,0,0,0,4.562-3.864ZM16.62.176a3.429,3.429,0,0,1-2.777-1.31A4.507,4.507,0,0,1,13-4.395l.044-.378a6.327,6.327,0,0,1,.839-2.584,4.882,4.882,0,0,1,1.683-1.762,3.927,3.927,0,0,1,2.145-.567,3.024,3.024,0,0,1,2.3.976,4.012,4.012,0,0,1,.914,2.549,7.448,7.448,0,0,1-.035,1.143l-.1.729H14.581a3.212,3.212,0,0,0,.426,2.2,2.019,2.019,0,0,0,1.745.94,3.383,3.383,0,0,0,2.6-1.266l.914.773A4.183,4.183,0,0,1,18.725-.294,4.371,4.371,0,0,1,16.62.176Zm1.011-8.534a2.324,2.324,0,0,0-1.718.668,4.748,4.748,0,0,0-1.165,2.065l4.623.009.035-.141A2.6,2.6,0,0,0,19.05-7.6,1.674,1.674,0,0,0,17.631-8.358ZM27.659,0A2.13,2.13,0,0,1,27.6-.5l.026-.5A3.9,3.9,0,0,1,24.847.176,2.841,2.841,0,0,1,22.8-.62a2.407,2.407,0,0,1-.716-1.947,2.927,2.927,0,0,1,1.323-2.36,5.631,5.631,0,0,1,3.248-.848l1.661.009.105-.756a1.738,1.738,0,0,0-.33-1.349,1.591,1.591,0,0,0-1.252-.514,2.453,2.453,0,0,0-1.446.4,1.7,1.7,0,0,0-.769,1.1l-1.6.009a2.55,2.55,0,0,1,.65-1.481,3.784,3.784,0,0,1,1.468-1A4.742,4.742,0,0,1,27-9.694a3.153,3.153,0,0,1,2.312.9,2.794,2.794,0,0,1,.694,2.3l-.773,4.711-.044.677a3.318,3.318,0,0,0,.105.958L29.276,0Zm-2.5-1.23A2.774,2.774,0,0,0,26.609-1.6a3.661,3.661,0,0,0,1.173-1.059l.343-1.96-1.2-.009a4.561,4.561,0,0,0-2.3.475A1.748,1.748,0,0,0,23.713-2.8a1.361,1.361,0,0,0,.312,1.112A1.486,1.486,0,0,0,25.163-1.23ZM37.318-2.575q.132-.984-1.081-1.389l-1.652-.483q-2.092-.721-2.021-2.391A2.634,2.634,0,0,1,33.71-8.9a4.085,4.085,0,0,1,2.553-.787,3.406,3.406,0,0,1,2.342.839,2.659,2.659,0,0,1,.866,2.14L37.89-6.715a1.484,1.484,0,0,0-.448-1.16A1.774,1.774,0,0,0,36.2-8.341a2.316,2.316,0,0,0-1.424.4A1.48,1.48,0,0,0,34.137-6.9q-.114.826,1.011,1.2l.8.22a5.15,5.15,0,0,1,2.32,1.1A2.1,2.1,0,0,1,38.9-2.7a2.666,2.666,0,0,1-.58,1.547A3.317,3.317,0,0,1,36.914-.145a4.7,4.7,0,0,1-1.872.321,3.71,3.71,0,0,1-2.5-.883A2.731,2.731,0,0,1,31.6-2.936l1.591.009a1.686,1.686,0,0,0,.51,1.283,1.948,1.948,0,0,0,1.4.483,2.741,2.741,0,0,0,1.5-.365A1.4,1.4,0,0,0,37.318-2.575Z" transform="translate(1076.333 739)" fill="#12263f"/>
    <path id="Path_190882" data-name="Path 190882" d="M-60.372-5.915h-5.379l-.791,4.535h6.258L-60.53,0h-7.9l2.224-12.8h7.813l-.246,1.38H-64.8l-.712,4.122h5.379Zm5.792-.132L-52-9.51h1.951l-3.814,4.781L-51.539,0h-1.731l-1.573-3.551L-57.524,0h-1.942l3.929-4.887-2.25-4.623h1.74Zm13.271,1.336a7.545,7.545,0,0,1-.782,2.61,4.442,4.442,0,0,1-1.5,1.736A3.44,3.44,0,0,1-45.58.185,3.167,3.167,0,0,1-48.111-.932l-.853,4.588h-1.591L-48.27-9.51l1.441-.009L-47-8.455a3.608,3.608,0,0,1,2.821-1.23,2.653,2.653,0,0,1,2.136,1.011,4.448,4.448,0,0,1,.809,2.689,9.464,9.464,0,0,1-.044,1.09Zm-1.564-.18.044-.737a3.34,3.34,0,0,0-.488-1.962,1.715,1.715,0,0,0-1.411-.715A2.821,2.821,0,0,0-47.109-7l-.8,4.556a1.99,1.99,0,0,0,1.925,1.3,2.5,2.5,0,0,0,2.017-.926A5.374,5.374,0,0,0-42.873-4.891Zm8.754-3.169-.747-.079a2.722,2.722,0,0,0-2.408,1.38L-38.443,0h-1.591l1.652-9.51,1.538-.009-.237,1.107A2.843,2.843,0,0,1-34.7-9.7a2.918,2.918,0,0,1,.756.132ZM-30.094.176a3.429,3.429,0,0,1-2.777-1.31,4.507,4.507,0,0,1-.844-3.261l.044-.378a6.327,6.327,0,0,1,.839-2.584,4.882,4.882,0,0,1,1.683-1.762A3.927,3.927,0,0,1-29-9.686a3.024,3.024,0,0,1,2.3.976,4.012,4.012,0,0,1,.914,2.549,7.448,7.448,0,0,1-.035,1.143l-.1.729h-6.214a3.212,3.212,0,0,0,.426,2.2,2.019,2.019,0,0,0,1.745.94,3.383,3.383,0,0,0,2.6-1.266l.914.773A4.183,4.183,0,0,1-27.989-.294,4.371,4.371,0,0,1-30.094.176Zm1.011-8.534A2.324,2.324,0,0,0-30.8-7.69a4.748,4.748,0,0,0-1.165,2.065l4.623.009.035-.141A2.6,2.6,0,0,0-27.664-7.6,1.674,1.674,0,0,0-29.083-8.358Zm10.1,5.783q.132-.984-1.081-1.389l-1.652-.483q-2.092-.721-2.021-2.391A2.634,2.634,0,0,1-22.592-8.9a4.085,4.085,0,0,1,2.553-.787,3.406,3.406,0,0,1,2.342.839,2.659,2.659,0,0,1,.866,2.14l-1.582-.009a1.484,1.484,0,0,0-.448-1.16A1.774,1.774,0,0,0-20.1-8.341a2.316,2.316,0,0,0-1.424.4A1.48,1.48,0,0,0-22.166-6.9q-.114.826,1.011,1.2l.8.22a5.15,5.15,0,0,1,2.32,1.1A2.1,2.1,0,0,1-17.4-2.7a2.666,2.666,0,0,1-.58,1.547A3.317,3.317,0,0,1-19.389-.145a4.7,4.7,0,0,1-1.872.321,3.71,3.71,0,0,1-2.5-.883,2.731,2.731,0,0,1-.949-2.228l1.591.009a1.686,1.686,0,0,0,.51,1.283,1.948,1.948,0,0,0,1.4.483,2.741,2.741,0,0,0,1.5-.365A1.4,1.4,0,0,0-18.984-2.575Zm9.088,0q.132-.984-1.081-1.389l-1.652-.483q-2.092-.721-2.021-2.391A2.634,2.634,0,0,1-13.5-8.9a4.085,4.085,0,0,1,2.553-.787,3.406,3.406,0,0,1,2.342.839,2.659,2.659,0,0,1,.866,2.14l-1.582-.009a1.484,1.484,0,0,0-.448-1.16,1.774,1.774,0,0,0-1.239-.466,2.316,2.316,0,0,0-1.424.4A1.48,1.48,0,0,0-13.078-6.9q-.114.826,1.011,1.2l.8.22a5.15,5.15,0,0,1,2.32,1.1A2.1,2.1,0,0,1-8.314-2.7a2.666,2.666,0,0,1-.58,1.547A3.317,3.317,0,0,1-10.3-.145a4.7,4.7,0,0,1-1.872.321,3.71,3.71,0,0,1-2.5-.883,2.731,2.731,0,0,1-.949-2.228l1.591.009a1.686,1.686,0,0,0,.51,1.283,1.948,1.948,0,0,0,1.4.483,2.741,2.741,0,0,0,1.5-.365A1.4,1.4,0,0,0-9.9-2.575ZM1.916-11.812l-.4,2.3H3.243l-.22,1.257H1.3L.308-2.338A2.062,2.062,0,0,0,.3-1.916a.67.67,0,0,0,.747.686,4.556,4.556,0,0,0,.773-.088L1.7.009A4.328,4.328,0,0,1,.536.167a1.661,1.661,0,0,1-1.424-.7,2.7,2.7,0,0,1-.369-1.833L-.29-8.253H-1.969l.22-1.257H-.07l.4-2.3ZM6.478-8.35A3.685,3.685,0,0,1,9.352-9.677a2.316,2.316,0,0,1,1.982.918,3.619,3.619,0,0,1,.479,2.527L10.775,0H9.185L10.23-6.258a3.339,3.339,0,0,0,.009-.8,1.314,1.314,0,0,0-1.45-1.257A2.926,2.926,0,0,0,6.275-6.785L5.1,0H3.507L5.854-13.5H7.444ZM17.323.176a3.429,3.429,0,0,1-2.777-1.31A4.507,4.507,0,0,1,13.7-4.395l.044-.378a6.327,6.327,0,0,1,.839-2.584,4.882,4.882,0,0,1,1.683-1.762,3.927,3.927,0,0,1,2.145-.567,3.024,3.024,0,0,1,2.3.976,4.012,4.012,0,0,1,.914,2.549,7.448,7.448,0,0,1-.035,1.143l-.1.729H15.284a3.212,3.212,0,0,0,.426,2.2,2.019,2.019,0,0,0,1.745.94,3.383,3.383,0,0,0,2.6-1.266l.914.773A4.183,4.183,0,0,1,19.428-.294,4.371,4.371,0,0,1,17.323.176Zm1.011-8.534a2.324,2.324,0,0,0-1.718.668,4.748,4.748,0,0,0-1.165,2.065l4.623.009.035-.141A2.6,2.6,0,0,0,19.753-7.6,1.674,1.674,0,0,0,18.334-8.358ZM28.679,0H27.1l1.652-9.51h1.582Zm1.31-12.981a.87.87,0,0,1,.672.242.9.9,0,0,1,.268.681.955.955,0,0,1-.268.677.962.962,0,0,1-.672.281.876.876,0,0,1-.677-.237.86.86,0,0,1-.255-.668,1,1,0,0,1,.264-.686A.93.93,0,0,1,29.988-12.981Zm1.749,8.209a7.4,7.4,0,0,1,.8-2.619,4.534,4.534,0,0,1,1.538-1.749,3.517,3.517,0,0,1,2.013-.554,2.971,2.971,0,0,1,2.443,1.16l.914-4.966h1.591L38.7,0h-1.45l.167-1.02a3.506,3.506,0,0,1-2.777,1.2,2.627,2.627,0,0,1-2.1-1.033,4.5,4.5,0,0,1-.844-2.676A8.547,8.547,0,0,1,31.737-4.772Zm1.529.909a3.3,3.3,0,0,0,.448,1.949A1.617,1.617,0,0,0,35.1-1.2a2.874,2.874,0,0,0,2.452-1.387l.756-4.389A1.973,1.973,0,0,0,36.4-8.314a2.411,2.411,0,0,0-1.657.566,3.663,3.663,0,0,0-1.09,1.659A6.842,6.842,0,0,0,33.267-3.864ZM45.325.176a3.429,3.429,0,0,1-2.777-1.31A4.507,4.507,0,0,1,41.7-4.395l.044-.378a6.327,6.327,0,0,1,.839-2.584,4.882,4.882,0,0,1,1.683-1.762,3.927,3.927,0,0,1,2.145-.567,3.024,3.024,0,0,1,2.3.976,4.012,4.012,0,0,1,.914,2.549A7.448,7.448,0,0,1,49.6-5.019l-.1.729H43.286a3.212,3.212,0,0,0,.426,2.2,2.019,2.019,0,0,0,1.745.94,3.383,3.383,0,0,0,2.6-1.266l.914.773A4.183,4.183,0,0,1,47.43-.294,4.371,4.371,0,0,1,45.325.176Zm1.011-8.534a2.324,2.324,0,0,0-1.718.668,4.748,4.748,0,0,0-1.165,2.065l4.623.009.035-.141A2.6,2.6,0,0,0,47.755-7.6,1.674,1.674,0,0,0,46.336-8.358ZM56.364,0A2.13,2.13,0,0,1,56.3-.5l.026-.5A3.9,3.9,0,0,1,53.552.176a2.841,2.841,0,0,1-2.043-.8,2.407,2.407,0,0,1-.716-1.947,2.927,2.927,0,0,1,1.323-2.36,5.631,5.631,0,0,1,3.248-.848l1.661.009.105-.756a1.738,1.738,0,0,0-.33-1.349,1.591,1.591,0,0,0-1.252-.514,2.453,2.453,0,0,0-1.446.4,1.7,1.7,0,0,0-.769,1.1l-1.6.009a2.55,2.55,0,0,1,.65-1.481,3.784,3.784,0,0,1,1.468-1,4.742,4.742,0,0,1,1.854-.338,3.153,3.153,0,0,1,2.312.9,2.794,2.794,0,0,1,.694,2.3l-.773,4.711-.044.677A3.318,3.318,0,0,0,58-.149L57.981,0Zm-2.5-1.23A2.774,2.774,0,0,0,55.314-1.6a3.661,3.661,0,0,0,1.173-1.059l.343-1.96-1.2-.009a4.561,4.561,0,0,0-2.3.475A1.748,1.748,0,0,0,52.418-2.8a1.361,1.361,0,0,0,.312,1.112A1.486,1.486,0,0,0,53.868-1.23ZM66.023-2.575q.132-.984-1.081-1.389L63.29-4.447Q61.2-5.168,61.269-6.838A2.634,2.634,0,0,1,62.416-8.9a4.085,4.085,0,0,1,2.553-.787,3.406,3.406,0,0,1,2.342.839,2.659,2.659,0,0,1,.866,2.14l-1.582-.009a1.484,1.484,0,0,0-.448-1.16,1.774,1.774,0,0,0-1.239-.466,2.316,2.316,0,0,0-1.424.4A1.48,1.48,0,0,0,62.842-6.9q-.114.826,1.011,1.2l.8.22a5.15,5.15,0,0,1,2.32,1.1A2.1,2.1,0,0,1,67.605-2.7a2.666,2.666,0,0,1-.58,1.547A3.317,3.317,0,0,1,65.619-.145a4.7,4.7,0,0,1-1.872.321,3.71,3.71,0,0,1-2.5-.883A2.731,2.731,0,0,1,60.3-2.936l1.591.009a1.686,1.686,0,0,0,.51,1.283,1.948,1.948,0,0,0,1.4.483,2.741,2.741,0,0,0,1.5-.365A1.4,1.4,0,0,0,66.023-2.575Z" transform="translate(1076.333 805.621)" fill="#12263f"/>
    <path id="Path_190883" data-name="Path 190883" d="M-56.351-11.417h-3.981L-62.31,0h-1.644l1.978-11.417h-3.981l.246-1.38H-56.1ZM-51.833,0A2.13,2.13,0,0,1-51.9-.5l.026-.5A3.9,3.9,0,0,1-54.646.176a2.841,2.841,0,0,1-2.043-.8,2.407,2.407,0,0,1-.716-1.947,2.927,2.927,0,0,1,1.323-2.36,5.631,5.631,0,0,1,3.248-.848l1.661.009.105-.756a1.738,1.738,0,0,0-.33-1.349,1.591,1.591,0,0,0-1.252-.514,2.453,2.453,0,0,0-1.446.4,1.7,1.7,0,0,0-.769,1.1l-1.6.009a2.55,2.55,0,0,1,.65-1.481,3.784,3.784,0,0,1,1.468-1,4.742,4.742,0,0,1,1.854-.338,3.153,3.153,0,0,1,2.312.9,2.794,2.794,0,0,1,.694,2.3l-.773,4.711-.044.677a3.318,3.318,0,0,0,.105.958L-50.216,0Zm-2.5-1.23A2.774,2.774,0,0,0-52.884-1.6,3.661,3.661,0,0,0-51.71-2.654l.343-1.96-1.2-.009a4.561,4.561,0,0,0-2.3.475A1.748,1.748,0,0,0-55.78-2.8a1.361,1.361,0,0,0,.312,1.112A1.486,1.486,0,0,0-54.33-1.23ZM-46.34,0h-1.582l2.338-13.5h1.591Zm6.012-4.386L-41.577-3.27-42.139,0H-43.73l2.347-13.5h1.591L-41.2-5.432l.976-.984,3.375-3.094h2.065l-4.368,4.052L-36.145,0h-1.74ZM-33.078,0H-34.66l1.652-9.51h1.582Zm1.31-12.981a.87.87,0,0,1,.672.242.9.9,0,0,1,.268.681.955.955,0,0,1-.268.677.962.962,0,0,1-.672.281.876.876,0,0,1-.677-.237.86.86,0,0,1-.255-.668,1,1,0,0,1,.264-.686A.93.93,0,0,1-31.768-12.981Zm4.447,3.463-.229,1.2a3.749,3.749,0,0,1,2.918-1.371,2.359,2.359,0,0,1,1.986.932,3.619,3.619,0,0,1,.475,2.522L-23.208,0H-24.8l1.046-6.251a3.332,3.332,0,0,0,.009-.8,1.314,1.314,0,0,0-1.45-1.255,2.994,2.994,0,0,0-2.514,1.528L-28.885,0h-1.591l1.652-9.51Zm7.031,4.746a7.75,7.75,0,0,1,.839-2.7,4.39,4.39,0,0,1,1.529-1.7,3.545,3.545,0,0,1,1.973-.523,2.926,2.926,0,0,1,2.5,1.248l.316-1.063h1.459L-13.258-.2a4.627,4.627,0,0,1-1.477,2.914A4.159,4.159,0,0,1-17.75,3.753,4.281,4.281,0,0,1-19.6,3.3a3.518,3.518,0,0,1-1.393-1.2l.905-.976a2.721,2.721,0,0,0,2.276,1.31,2.728,2.728,0,0,0,1.92-.633,3.265,3.265,0,0,0,1.042-1.9l.176-.844A3.6,3.6,0,0,1-17.389.176,2.8,2.8,0,0,1-18.932-.3a2.913,2.913,0,0,1-1.015-1.31,5.354,5.354,0,0,1-.4-1.912A9.825,9.825,0,0,1-20.29-4.772Zm1.538.9a3.345,3.345,0,0,0,.435,1.944,1.644,1.644,0,0,0,1.393.724,2.881,2.881,0,0,0,2.452-1.4l.747-4.363a2,2,0,0,0-1.907-1.352,2.468,2.468,0,0,0-2.123,1.053,5.488,5.488,0,0,0-.98,2.941ZM-.637,0A2.13,2.13,0,0,1-.7-.5L-.672-1A3.9,3.9,0,0,1-3.45.176a2.841,2.841,0,0,1-2.043-.8,2.407,2.407,0,0,1-.716-1.947,2.927,2.927,0,0,1,1.323-2.36,5.631,5.631,0,0,1,3.248-.848l1.661.009.105-.756A1.738,1.738,0,0,0-.2-7.871a1.591,1.591,0,0,0-1.252-.514,2.453,2.453,0,0,0-1.446.4,1.7,1.7,0,0,0-.769,1.1l-1.6.009a2.55,2.55,0,0,1,.65-1.481,3.784,3.784,0,0,1,1.468-1A4.742,4.742,0,0,1-1.3-9.694a3.153,3.153,0,0,1,2.312.9,2.794,2.794,0,0,1,.694,2.3L.936-1.784l-.044.677A3.318,3.318,0,0,0,1-.149L.98,0Zm-2.5-1.23A2.774,2.774,0,0,0-1.687-1.6,3.661,3.661,0,0,0-.514-2.654l.343-1.96-1.2-.009a4.561,4.561,0,0,0-2.3.475A1.748,1.748,0,0,0-4.583-2.8a1.361,1.361,0,0,0,.312,1.112A1.486,1.486,0,0,0-3.133-1.23Zm14.9-3.48a7.41,7.41,0,0,1-.8,2.628A4.48,4.48,0,0,1,9.453-.352,3.44,3.44,0,0,1,7.484.185,2.936,2.936,0,0,1,4.926-1.107L4.6,0H3.133L5.48-13.5H7.071L6.113-8.455A3.5,3.5,0,0,1,8.89-9.686a2.653,2.653,0,0,1,2.136,1.011,4.448,4.448,0,0,1,.809,2.689,8.283,8.283,0,0,1-.053,1.09Zm-1.512-.917A3.385,3.385,0,0,0,9.822-7.59a1.648,1.648,0,0,0-1.4-.715A2.9,2.9,0,0,0,5.911-6.813L5.2-2.679A2.024,2.024,0,0,0,7.176-1.2a2.311,2.311,0,0,0,1.63-.553A3.613,3.613,0,0,0,9.866-3.394,7.4,7.4,0,0,0,10.252-5.628ZM18.3-9.686a3.428,3.428,0,0,1,2.048.65,3.7,3.7,0,0,1,1.261,1.745,5.4,5.4,0,0,1,.277,2.43l-.018.193a6.4,6.4,0,0,1-.826,2.509A4.848,4.848,0,0,1,19.34-.413a4.158,4.158,0,0,1-2.294.589A3.434,3.434,0,0,1,15-.475,3.611,3.611,0,0,1,13.75-2.2a5.547,5.547,0,0,1-.281-2.4,6.48,6.48,0,0,1,.8-2.654,4.96,4.96,0,0,1,1.718-1.824A4.109,4.109,0,0,1,18.3-9.686Zm-3.234,5.1a5.4,5.4,0,0,0,0,1.151,2.821,2.821,0,0,0,.62,1.652,1.86,1.86,0,0,0,1.419.642,2.534,2.534,0,0,0,1.459-.391,3.284,3.284,0,0,0,1.125-1.261,5.311,5.311,0,0,0,.589-1.872,8.431,8.431,0,0,0,.026-1.362,2.927,2.927,0,0,0-.642-1.679,1.9,1.9,0,0,0-1.424-.65,2.592,2.592,0,0,0-2.092.967,4.776,4.776,0,0,0-1.063,2.6ZM29.1-.94A3.673,3.673,0,0,1,26.266.176,2.37,2.37,0,0,1,24.249-.8a3.731,3.731,0,0,1-.488-2.566l1.02-6.144h1.591L25.343-3.34a4.1,4.1,0,0,0-.018.756,1.573,1.573,0,0,0,.378.993,1.29,1.29,0,0,0,.932.387,2.854,2.854,0,0,0,2.637-1.38l1.2-6.926h1.591L30.406,0H28.9ZM36.98-11.812l-.4,2.3h1.731l-.22,1.257H36.365l-.993,5.915a2.062,2.062,0,0,0-.009.422.67.67,0,0,0,.747.686,4.556,4.556,0,0,0,.773-.088L36.76.009A4.328,4.328,0,0,1,35.6.167a1.661,1.661,0,0,1-1.424-.7,2.7,2.7,0,0,1-.369-1.833l.967-5.889H33.1l.22-1.257h1.679l.4-2.3Zm9.141,2.294-.2,1.063a3.718,3.718,0,0,1,2.892-1.23,2.934,2.934,0,0,1,1.534.413,2.026,2.026,0,0,1,.866,1.116,3.927,3.927,0,0,1,3.155-1.529,2.515,2.515,0,0,1,2.1.958,3.422,3.422,0,0,1,.5,2.479L55.92,0H54.338l1.037-6.267a3.311,3.311,0,0,0,0-.835q-.167-1.2-1.564-1.222a2.4,2.4,0,0,0-1.578.541,2.5,2.5,0,0,0-.91,1.463L50.243,0h-1.6L49.7-6.258a2.009,2.009,0,0,0-.294-1.5,1.549,1.549,0,0,0-1.27-.545,2.6,2.6,0,0,0-2.364,1.354L44.565,0H42.974l1.652-9.51ZM62.486.176a3.429,3.429,0,0,1-2.777-1.31,4.507,4.507,0,0,1-.844-3.261l.044-.378a6.327,6.327,0,0,1,.839-2.584,4.882,4.882,0,0,1,1.683-1.762,3.927,3.927,0,0,1,2.145-.567,3.024,3.024,0,0,1,2.3.976,4.012,4.012,0,0,1,.914,2.549,7.448,7.448,0,0,1-.035,1.143l-.1.729H60.447a3.212,3.212,0,0,0,.426,2.2,2.019,2.019,0,0,0,1.745.94,3.383,3.383,0,0,0,2.6-1.266l.914.773A4.183,4.183,0,0,1,64.591-.294,4.371,4.371,0,0,1,62.486.176ZM63.5-8.358a2.324,2.324,0,0,0-1.718.668,4.748,4.748,0,0,0-1.165,2.065l4.623.009.035-.141A2.6,2.6,0,0,0,64.916-7.6,1.674,1.674,0,0,0,63.5-8.358Z" transform="translate(1076.333 877.38)" fill="#12263f"/>
  </g>
</svg>
