<svg xmlns="http://www.w3.org/2000/svg" xmlns:xlink="http://www.w3.org/1999/xlink" width="400" height="381.613" viewBox="0 0 400 381.613">
  <defs>
    <clipPath id="clip-path">
      <rect id="Rectangle_45797" data-name="Rectangle 45797" width="400" height="381.613" fill="none"/>
    </clipPath>
    <clipPath id="clip-path-2">
      <path id="Path_186355" data-name="Path 186355" d="M123.912,70.614c-9.721,5.033-12.985-4.918-12.985-4.918a11.883,11.883,0,0,1,6.1-2.1c5.659,0,6.883,7.02,6.883,7.02" transform="translate(-110.927 -63.594)" fill="none"/>
    </clipPath>
    <clipPath id="clip-path-3">
      <rect id="Rectangle_45798" data-name="Rectangle 45798" width="2.087" height="2.364" fill="none"/>
    </clipPath>
    <clipPath id="clip-path-4">
      <rect id="Rectangle_45799" data-name="Rectangle 45799" width="2.211" height="2.64" fill="none"/>
    </clipPath>
    <clipPath id="clip-path-5">
      <rect id="Rectangle_45800" data-name="Rectangle 45800" width="2.424" height="3.005" fill="none"/>
    </clipPath>
    <clipPath id="clip-path-6">
      <rect id="Rectangle_45804" data-name="Rectangle 45804" width="2.058" height="2.171" fill="none"/>
    </clipPath>
    <clipPath id="clip-path-7">
      <path id="Path_186410" data-name="Path 186410" d="M162.864,90.027c2.119,2.109.161,5.053-1.558,6.672-.716.674-2.073,1.313-2.756.606l-.677-1.605-1.488-7.311A5.93,5.93,0,0,1,158.3,88.1a6.339,6.339,0,0,1,4.564,1.932" transform="translate(-156.385 -88.095)" fill="none"/>
    </clipPath>
    <clipPath id="clip-path-8">
      <rect id="Rectangle_45806" data-name="Rectangle 45806" width="2.97" height="2.768" fill="none"/>
    </clipPath>
    <clipPath id="clip-path-9">
      <path id="Path_186412" data-name="Path 186412" d="M182.7,81.75a2.032,2.032,0,0,1,.131,2.87c-2.122,2.327-6.626,6.638-12.243,8.432C162.712,95.567,159.119,100,159.119,100l-2.454.719-3.735-5.606s19.988-5.08,28.09-13.316a1.209,1.209,0,0,1,.866-.364,1.192,1.192,0,0,1,.813.316" transform="translate(-152.93 -81.434)" fill="none"/>
    </clipPath>
    <clipPath id="clip-path-10">
      <rect id="Rectangle_45807" data-name="Rectangle 45807" width="3.046" height="3.046" fill="none"/>
    </clipPath>
  </defs>
  <g id="_1" data-name="1" transform="translate(-180 -477)">
    <g id="Group_175827" data-name="Group 175827" transform="translate(180 608)">
      <rect id="Rectangle_45790" data-name="Rectangle 45790" width="252.567" height="250.302" transform="translate(0 0)" fill="#6b8dfc"/>
      <path id="Rectangle_45791" data-name="Rectangle 45791" d="M0,0H215.5a139,139,0,0,1,139,139v4.839a0,0,0,0,1,0,0H0a0,0,0,0,1,0,0V0A0,0,0,0,1,0,0Z" transform="translate(0 106.463)" fill="#3c3fa7"/>
    </g>
    <g id="Group_175879" data-name="Group 175879" transform="translate(180 477)">
      <g id="Group_175881" data-name="Group 175881">
        <g id="Group_175849" data-name="Group 175849">
          <g id="Group_175848" data-name="Group 175848" clip-path="url(#clip-path)">
            <path id="Path_186320" data-name="Path 186320" d="M34.995,79.883H67.05a.681.681,0,0,0,.681-.681V51.407a.68.68,0,0,0-.681-.681H34.995a.68.68,0,0,0-.681.681V79.2a.681.681,0,0,0,.681.681M66.37,78.521H35.677V52.088H66.37Z" transform="translate(285.544 18.347)"/>
            <path id="Path_186321" data-name="Path 186321" d="M51.2,73.619c.031,0,.064,0,.1,0C52.6,73.53,53.372,72,53.476,69.3c.125-3.26-.767-8.24-3.086-8.575a2.3,2.3,0,0,0-1.243.2c.185-2.45.775-4.434,1.845-5.045a1.05,1.05,0,0,1,1.013-.065c2.392,1.016,4.7,8.287,5.385,11a.68.68,0,1,0,1.318-.332c-.268-1.066-2.73-10.462-6.173-11.924a2.432,2.432,0,0,0-2.221.138c-1.777,1.019-2.488,3.972-2.584,7.188a14.138,14.138,0,0,0-3.355,5.116,3.231,3.231,0,0,0-2.693-.566c-.281.064-.369-.015-.409-.048a2.572,2.572,0,0,1-.366-1.678.682.682,0,0,0-.632-.726.693.693,0,0,0-.727.629c-.015.2-.116,1.985.836,2.805a1.738,1.738,0,0,0,1.6.345,2.009,2.009,0,0,1,1.92.626c.022.019.042.041.061.06-.444,2.311.538,3.246,1.228,3.611a.872.872,0,0,0,1.062-.136c.689-.7.011-2.428-.444-3.239a6.751,6.751,0,0,0-.364-.577c.033-.116.065-.222.094-.312a12.759,12.759,0,0,1,2.2-3.942,28.148,28.148,0,0,0,1,6.559c.651,2.153,1.454,3.2,2.459,3.2m-1.1-11.553a.614.614,0,0,1,.089.007c.955.138,2.056,3.643,1.92,7.176-.079,2.038-.577,2.988-.906,3.008-.286-.05-1.121-1.26-1.693-4.522a29.6,29.6,0,0,1-.436-5.207,1.914,1.914,0,0,1,1.025-.462" transform="translate(287.431 19.662)" fill="#fea41a"/>
            <path id="Path_186455" data-name="Path 186455" d="M0,0H54.307V25.549H0Z" transform="translate(282.259 54.457)" fill="#6b8dfc"/>
            <path id="Path_186322" data-name="Path 186322" d="M64.951,48.554h4.412a.679.679,0,0,0,.681-.681v-15.1a.679.679,0,0,0-.681-.681H64.951a.68.68,0,0,0-.681.681v15.1a.68.68,0,0,0,.681.681m3.731-1.362h-3.05V33.457h3.05Z" transform="translate(242.44 11.609)"/>
            <path id="Path_186323" data-name="Path 186323" d="M190.511,314.187a.661.661,0,0,0,.116-.01.683.683,0,0,0,.557-.786L171.742,198.709c-1.209-7.122-6.773-12.292-13.23-12.292H116.4a.681.681,0,1,0,0,1.362h42.116c5.791,0,10.791,4.692,11.888,11.159l19.442,114.683a.682.682,0,0,0,.67.566" transform="translate(51.238 67.426)"/>
            <path id="Path_186324" data-name="Path 186324" d="M227.818,189.712H130.993a5.264,5.264,0,1,1,0-10.527h96.825a5.264,5.264,0,1,1,0,10.527" transform="translate(-4.288 64.81)" fill="#fea41a"/>
            <path id="Path_186325" data-name="Path 186325" d="M68.336,243.779,79.23,282.213l13.854-4.391L85.6,235.251Z" transform="translate(213.864 85.089)" fill="#f4aea8"/>
            <path id="Path_186326" data-name="Path 186326" d="M135.979,237.9l-12.552,36.624,13.46,4.153,17.552-38.033Z" transform="translate(77.49 86.048)" fill="#f4aea8"/>
            <path id="Path_186327" data-name="Path 186327" d="M118.327,254.8,110.5,288.773h54.024l1.62-6.587a4.647,4.647,0,0,0-3.705-5.688l-17.49-3.087-5.474-4.623,9.449-7.314Z" transform="translate(83.253 92.159)"/>
            <path id="Path_186328" data-name="Path 186328" d="M42.95,253.487l6.276,17.254-5.552,17.972H99.419l1.672-6.8a4.8,4.8,0,0,0-3.822-5.869l-18.048-3.185L71.061,267.5l.571-17.547Z" transform="translate(240.284 90.406)"/>
            <path id="Path_186329" data-name="Path 186329" d="M146.595,282.1a.563.563,0,0,0,.534-.383l8.064-23.545a.565.565,0,0,0-1.069-.368l-8.063,23.546a.563.563,0,0,0,.35.718.543.543,0,0,0,.184.031" transform="translate(45.93 93.107)" fill="#fff"/>
            <path id="Path_186330" data-name="Path 186330" d="M79.411,281.889a.594.594,0,0,0,.128-.014.583.583,0,0,0,.441-.7l-6.537-29.114a.584.584,0,0,0-1.14.256l6.539,29.113a.584.584,0,0,0,.569.456" transform="translate(221.571 91.005)" fill="#fff"/>
            <path id="Path_186331" data-name="Path 186331" d="M138.1,72.763s.162,4.8-2.7,6.664a.859.859,0,0,0,.489,1.595,6.234,6.234,0,0,0,4.923-2.7c3.553-4.852-2.71-5.563-2.71-5.563" transform="translate(74.298 26.318)"/>
            <path id="Path_186332" data-name="Path 186332" d="M142.055,71.046c-.773,1.341-2.948,4.5-6.087,4.118a.579.579,0,0,0-.4,1.053,6.365,6.365,0,0,0,6.69.432c4.228-2.132,1.866-4.744.671-5.756a.576.576,0,0,0-.871.154" transform="translate(71.081 25.592)"/>
            <path id="Path_186333" data-name="Path 186333" d="M138.769,145.045l-13.1,5.651L123.375,157l16.513.189Z" transform="translate(92.112 52.462)"/>
            <path id="Path_186334" data-name="Path 186334" d="M143.126,177.884V113.761a25.927,25.927,0,0,1,25.927-25.927h33.223a25.927,25.927,0,0,1,25.927,25.9l.074,64.151Z" transform="translate(-23.169 31.769)" fill="#fea41a"/>
            <path id="Path_186335" data-name="Path 186335" d="M136.216,177.639V113.515c0-14.318,11.412-24.9,25.732-24.9l34.342-.1c14.309,0,24.988,10.669,25,24.976l.074,64.151Z" transform="translate(-6.851 32.014)" fill="#fff"/>
            <path id="Path_186336" data-name="Path 186336" d="M152.017,81.9l-13.3,17.891-15.826.153,15.367-28.213Z" transform="translate(80.647 25.943)" fill="#ed8974"/>
            <path id="Path_186337" data-name="Path 186337" d="M126.685,71.728,140.447,81.9l-6.973,9.377c-4.758-2.744-8.8-9.313-10.587-12.574Z" transform="translate(92.218 25.944)"/>
            <path id="Path_186338" data-name="Path 186338" d="M215.675,85.541l-31.492.433a15.341,15.341,0,0,0-13.561,8.581l-33.428,68.13c-4.261,9.894.87,15.673.87,15.673l57.108.167,24.365-4.223-5.991-19.087-47.926,10.032,22.431-44.722Z" transform="translate(-4.049 30.94)" fill="#12263f"/>
            <path id="Path_186339" data-name="Path 186339" d="M149.627,86.78l20.4.1a15.277,15.277,0,0,1,13.252,7.8L217.7,156.045c4.913,8.76-1.269,21.694-11.313,21.776L184.573,178l-13.8-19.614,20-3.615-18.715-30.789-16.771,60.847L83.511,196.66l-.9-28.936,38.035-74.257,15.743-5.712Z" transform="translate(68.09 31.388)" fill="#12263f"/>
            <path id="Path_186340" data-name="Path 186340" d="M150.5,87.435s-3.5,5.7-9.506,6.272c-8.21.779-13.9-7.808-13.9-7.808l8.091-.809,8.192,1.687Z" transform="translate(76.444 30.776)" fill="#ed8974"/>
            <path id="Path_186341" data-name="Path 186341" d="M148.132,69.829c-1.932-11.557-12.231-19.465-23-17.665s-17.94,12.63-16.008,24.185,13.462,17.385,24.374,17.326c11.024-.06,16.569-12.289,14.637-23.846" transform="translate(103.33 18.775)" fill="#ed8974"/>
            <path id="Path_186342" data-name="Path 186342" d="M105.631,69.118l6.516-.331-5.895,6.183Z" transform="translate(144.015 24.88)" fill="#ed8974"/>
            <path id="Path_186343" data-name="Path 186343" d="M123.912,70.613s-2.034-11.667-12.985-4.917c0,0,3.263,9.95,12.985,4.917" transform="translate(125.039 23.002)" fill="#fff"/>
            <path id="Path_186344" data-name="Path 186344" d="M109.55,74.969a19.83,19.83,0,0,1,16.979-22.983,29.09,29.09,0,0,1,24.22,7.941c1.893,1.815-9.984-.854-9.984-.854s-5.061,5.07-9.83,1.868c0,0,2.2,12.907-8.234,13.395l-6.72,10.582c-1.885-2.364-5.878-6.644-6.431-9.95" transform="translate(100.262 18.697)"/>
            <path id="Path_186345" data-name="Path 186345" d="M129.191,70.9a5.718,5.718,0,1,1,7.333,3.938,5.89,5.89,0,0,1-7.333-3.938" transform="translate(84.183 22.812)" fill="#ed8974"/>
            <path id="Path_186346" data-name="Path 186346" d="M136.526,68.668a.381.381,0,0,0,.346-.222.377.377,0,0,0-.189-.5l-6.147-2.787a.378.378,0,1,0-.313.688l6.148,2.787a.381.381,0,0,0,.155.034" transform="translate(86.071 23.556)"/>
            <path id="Path_186347" data-name="Path 186347" d="M131.464,70.616a.379.379,0,0,0,.344-.221l1.311-2.868a.378.378,0,1,0-.688-.315L131.12,70.08a.379.379,0,0,0,.188.5.373.373,0,0,0,.157.034" transform="translate(88.347 24.23)"/>
            <path id="Path_186348" data-name="Path 186348" d="M71.774,152.757h7.179a.384.384,0,0,0,.384-.385v-1.6a.384.384,0,0,0-.384-.384H71.774a.385.385,0,0,0-.385.384v1.6a.385.385,0,0,0,.385.385" transform="translate(223.453 54.393)"/>
            <path id="Path_186349" data-name="Path 186349" d="M78.9,152.757h7.179a.384.384,0,0,0,.384-.385v-1.6a.384.384,0,0,0-.384-.384H78.9a.385.385,0,0,0-.385.384v1.6a.385.385,0,0,0,.385.385" transform="translate(206.624 54.393)"/>
            <path id="Path_186350" data-name="Path 186350" d="M86.026,152.757h7.179a.384.384,0,0,0,.384-.385v-1.6a.384.384,0,0,0-.384-.384H86.026a.385.385,0,0,0-.385.384v1.6a.385.385,0,0,0,.385.385" transform="translate(189.794 54.393)"/>
            <path id="Path_186351" data-name="Path 186351" d="M93.153,152.757h7.179a.384.384,0,0,0,.384-.385v-1.6a.384.384,0,0,0-.384-.384H93.153a.385.385,0,0,0-.385.384v1.6a.385.385,0,0,0,.385.385" transform="translate(172.962 54.393)"/>
            <path id="Path_186352" data-name="Path 186352" d="M100.279,152.757h7.179a.384.384,0,0,0,.384-.385v-1.6a.384.384,0,0,0-.384-.384h-7.179a.385.385,0,0,0-.385.384v1.6a.385.385,0,0,0,.385.385" transform="translate(156.133 54.393)"/>
            <path id="Path_186353" data-name="Path 186353" d="M70.282,154.891h49.089a.918.918,0,0,0,.918-.919v-1.648a.919.919,0,0,0-.918-.92H70.282a.92.92,0,0,0-.918.92v1.648a.918.918,0,0,0,.918.919" transform="translate(185.259 54.762)" fill="#5774cd"/>
          </g>
        </g>
        <g id="Group_175851" data-name="Group 175851" transform="translate(235.966 86.596)">
          <g id="Group_175850" data-name="Group 175850" transform="translate(0)" clip-path="url(#clip-path-2)">
            <path id="Path_186354" data-name="Path 186354" d="M119.316,68.659a4.555,4.555,0,1,1-4.555-4.555,4.555,4.555,0,0,1,4.555,4.555" transform="translate(-105.349 -63.41)"/>
          </g>
        </g>
        <g id="Group_175865" data-name="Group 175865">
          <g id="Group_175882" data-name="Group 175882">
            <path id="Path_186356" data-name="Path 186356" d="M120.572,62.734a.378.378,0,0,0,.148-.726c-3.583-1.525-7.594-.069-7.763-.007a.378.378,0,0,0,.261.709c.039-.015,3.909-1.412,7.2-.007a.385.385,0,0,0,.148.03" transform="translate(125.573 22.177)"/>
            <path id="Path_186357" data-name="Path 186357" d="M94.1,137.471l.041,0,13.263-1.819a.3.3,0,1,0-.08-.587l-13.263,1.819a.3.3,0,0,0,.039.59" transform="translate(164.611 48.85)"/>
            <path id="Path_186358" data-name="Path 186358" d="M117.8,146.689h5.061a9.908,9.908,0,0,1,9.908,9.908H107.893a9.908,9.908,0,0,1,9.908-9.908" transform="translate(120.313 53.056)" fill="#5774cd"/>
            <path id="Path_186359" data-name="Path 186359" d="M112.191,157a.3.3,0,0,0,.3-.3V146.7a.3.3,0,0,0-.594,0V156.7a.3.3,0,0,0,.3.3" transform="translate(135.147 52.952)"/>
            <path id="Path_186360" data-name="Path 186360" d="M98.062,136.132a.288.288,0,0,0,.151-.042l5.761-3.438a.3.3,0,0,0-.3-.509l-5.76,3.438a.3.3,0,0,0,.151.551" transform="translate(162.756 47.78)"/>
            <path id="Path_186361" data-name="Path 186361" d="M176.68,146.124h.034l11.934-1.334a.3.3,0,1,0-.067-.59l-11.934,1.334a.3.3,0,0,0,.033.591" transform="translate(-29.091 52.155)" fill="#fff"/>
            <path id="Path_186362" data-name="Path 186362" d="M176.68,153.378a.288.288,0,0,0,.177-.059l8.071-6.017a.3.3,0,0,0-.354-.475l-8.071,6.017a.3.3,0,0,0,.177.534" transform="translate(-25.227 53.085)"/>
            <path id="Path_186363" data-name="Path 186363" d="M129.041,143.865s-3.256,1.69,13.509,1.163c8.012-.252,10.322,4.3,11.011,5.932a1.045,1.045,0,0,1-.624,1.306,2.486,2.486,0,0,1-2.484-.139,16.472,16.472,0,0,0-3.987-2.019c-3.652-1.328-10.112,3.7-16.03,4.989-1.807.395-11.448-1.172-14.005-2.443-5.243-2.6-3.554-6.374-3.554-6.374Z" transform="translate(93.022 52.035)" fill="#ed8974"/>
            <path id="Path_186364" data-name="Path 186364" d="M110.5,146.7s10.989-3.662,21.519-2.508c7.409.812,9.977,3.85,10.847,5.579a1.4,1.4,0,0,1-.813,1.83,1.841,1.841,0,0,1-1.88-.124,15.819,15.819,0,0,0-4.238-2.206c-3.652-1.328-10.868-.549-10.868-.549l-11.979,2.1Z" transform="translate(106.546 52.074)" fill="#ed8974"/>
            <path id="Path_186365" data-name="Path 186365" d="M107.639,149.413s11.02-6.411,23.04-6.694c9.4-.222,13.04,3.994,14.182,5.844a1.136,1.136,0,0,1-.347,1.49,2.631,2.631,0,0,1-2.84.3,19.984,19.984,0,0,0-5.064-1.891c-4.46-1.066-12.206,1.1-12.206,1.1L111.8,154.168Z" transform="translate(108.417 51.618)" fill="#ed8974"/>
            <path id="Path_186366" data-name="Path 186366" d="M108.467,148.061s11.02-6.411,23.04-6.694c9.428-.222,13.064,4.022,14.193,5.863a1.113,1.113,0,0,1-.339,1.456,2.668,2.668,0,0,1-2.88.3,20.071,20.071,0,0,0-5.044-1.879c-4.46-1.066-12.206,1.1-12.206,1.1l-12.605,4.611Z" transform="translate(106.454 51.129)" fill="#ed8974"/>
            <path id="Path_186367" data-name="Path 186367" d="M129,150.888a.227.227,0,0,0,.084-.016.217.217,0,0,0,.114-.283c-.547-1.3-2.213-5.247-10.665-5.9a27.976,27.976,0,0,0-5.847.467.216.216,0,0,0,.078.425,28.372,28.372,0,0,1,5.737-.462c8.189.63,9.777,4.4,10.3,5.633a.215.215,0,0,0,.2.132" transform="translate(117.584 52.322)"/>
            <path id="Path_186368" data-name="Path 186368" d="M128.073,149.878a.227.227,0,0,0,.084-.016.217.217,0,0,0,.114-.283c-.662-1.57-1.9-4.49-9.792-6.054-2.775-.55-7.608.447-7.813.489a.217.217,0,0,0-.167.256.213.213,0,0,0,.256.167c.049-.011,4.951-1.021,7.642-.489,7.67,1.52,8.8,4.2,9.477,5.8a.215.215,0,0,0,.2.132" transform="translate(121.251 51.852)"/>
            <path id="Path_186369" data-name="Path 186369" d="M127.9,147.957a.227.227,0,0,0,.084-.016.217.217,0,0,0,.114-.283c-.6-1.423-2.963-4.849-11.9-5.926-2.836-.344-7.527.729-7.726.773a.216.216,0,0,0,.1.421c.048-.011,4.815-1.1,7.576-.765,8.953,1.08,11.1,4.609,11.55,5.665a.215.215,0,0,0,.2.132" transform="translate(124.406 51.239)"/>
            <g id="Group_175854" data-name="Group 175854" transform="translate(244.601 201.179)" opacity="0.3" style="mix-blend-mode: overlay;isolation: isolate">
              <g id="Group_175853" data-name="Group 175853" transform="translate(0)">
                <g id="Group_175852" data-name="Group 175852" clip-path="url(#clip-path-3)">
                  <path id="Path_186370" data-name="Path 186370" d="M112.794,147.8c-.343.195-.245.856.218,1.479s1.117.971,1.46.778.245-.857-.218-1.48-1.117-.971-1.46-.776" transform="translate(-112.588 -147.742)"/>
                </g>
              </g>
            </g>
            <g id="Group_175857" data-name="Group 175857" transform="translate(247.328 200.236)" opacity="0.3" style="mix-blend-mode: overlay;isolation: isolate">
              <g id="Group_175856" data-name="Group 175856" transform="translate(0)">
                <g id="Group_175855" data-name="Group 175855" transform="translate(0)" clip-path="url(#clip-path-4)">
                  <path id="Path_186371" data-name="Path 186371" d="M110.843,147.106c-.445.211-.466.948-.048,1.645s1.118,1.092,1.563.881.466-.948.048-1.645-1.118-1.092-1.563-.881" transform="translate(-110.494 -147.049)"/>
                </g>
              </g>
            </g>
            <g id="Group_175860" data-name="Group 175860" transform="translate(250.95 198.243)" opacity="0.3" style="mix-blend-mode: overlay;isolation: isolate">
              <g id="Group_175859" data-name="Group 175859" transform="translate(0)">
                <g id="Group_175858" data-name="Group 175858" transform="translate(0)" clip-path="url(#clip-path-5)">
                  <path id="Path_186372" data-name="Path 186372" d="M108.023,145.641c-.467.222-.456,1.05.023,1.849s1.247,1.268,1.714,1.046.456-1.048-.025-1.848-1.246-1.269-1.713-1.047" transform="translate(-107.68 -145.586)"/>
                </g>
              </g>
            </g>
            <path id="Path_186373" data-name="Path 186373" d="M143.709,145.684l48.459-6.054,2.567,19.164H137.626Z" transform="translate(17.862 50.503)" fill="#12263f"/>
            <path id="Path_186374" data-name="Path 186374" d="M188.729,169.44a.187.187,0,0,0,.04,0,.3.3,0,0,0,.255-.332l-2.567-19.164a.3.3,0,0,0-.33-.255l-47.91,5.985L160.4,111.444a.3.3,0,1,0-.53-.266L137.439,155.9a.3.3,0,0,0,.023.3.292.292,0,0,0,.278.124l48.167-6.017,2.529,18.872a.3.3,0,0,0,.293.257" transform="translate(23.867 40.153)" fill="#fff"/>
            <path id="Path_186375" data-name="Path 186375" d="M116.32,77.358a6.024,6.024,0,0,1-5.4-2.911c1.818-.437,4.325-1.2,7.109-.06s-.428,2.973-1.71,2.971" transform="translate(129.826 26.689)"/>
            <path id="Path_186376" data-name="Path 186376" d="M118.829,75.612a3.736,3.736,0,0,1-2.722,1.516,6.134,6.134,0,0,1-5.119-2.474,13.739,13.739,0,0,1,7.841.959" transform="translate(130.04 26.919)" fill="#fd521b"/>
            <path id="Path_186377" data-name="Path 186377" d="M46.439,164.162l8-.245-9.672-49.36-3.455,2.8Z" transform="translate(289.31 41.435)"/>
            <path id="Path_186378" data-name="Path 186378" d="M53.5,141.654h4.085a1.974,1.974,0,0,0,1.973-1.973V105.272a1.974,1.974,0,0,0-1.973-1.973H53.5a1.974,1.974,0,0,0-1.973,1.973v34.409a1.974,1.974,0,0,0,1.973,1.973" transform="translate(270.287 37.363)"/>
            <path id="Path_186379" data-name="Path 186379" d="M56.382,163.925H62.6a1.91,1.91,0,0,0,1.91-1.91V68.053a1.911,1.911,0,0,0-1.91-1.91H56.382a1.911,1.911,0,0,0-1.91,1.91v93.961a1.91,1.91,0,0,0,1.91,1.91" transform="translate(261.315 23.923)" fill="#5774cd"/>
            <path id="Path_186380" data-name="Path 186380" d="M49.672,118.106h4.854a1.588,1.588,0,0,0,1.588-1.589v-2.431a1.588,1.588,0,0,0-1.588-1.589H49.672a1.589,1.589,0,0,0-1.589,1.589v2.431a1.589,1.589,0,0,0,1.589,1.589" transform="translate(278.411 40.689)"/>
            <path id="Path_186381" data-name="Path 186381" d="M36.519,150.067H71.586a1.539,1.539,0,0,1,1.539,1.539v1.93a1.539,1.539,0,0,1-1.539,1.539H36.519a1.539,1.539,0,0,1-1.539-1.539v-1.93a1.539,1.539,0,0,1,1.539-1.539" transform="translate(279.243 54.278)" fill="#5774cd"/>
            <path id="Path_186382" data-name="Path 186382" d="M122.171,193.127l67.257.948,20.065-34.648-72.2-2.42-30.435,5.384L105.2,173.006a17.431,17.431,0,0,0,16.976,20.122" transform="translate(47.554 56.788)" fill="#ffb6c8"/>
            <path id="Path_186383" data-name="Path 186383" d="M165.781,153.965s46.152,6.437,55.888,44.869l-54.551-1.23-1.337-17.94Z" transform="translate(-47.412 55.688)" fill="#fea41a"/>
            <path id="Path_186384" data-name="Path 186384" d="M221.848,199.665a.745.745,0,0,0,.123-.011.681.681,0,0,0,.549-.791c-6.641-36.788-55.952-45.22-56.449-45.3a.68.68,0,1,0-.218,1.343c.487.08,48.859,8.362,55.327,44.2a.682.682,0,0,0,.669.56" transform="translate(-47.592 55.539)"/>
            <path id="Path_186385" data-name="Path 186385" d="M120.64,157.712l46.1.748A17,17,0,0,1,182.3,181.637l-36.951,96.186-32.9-5.15,30.789-78.854-53.069-.748Z" transform="translate(93.749 57.043)" fill="#ffb6c8"/>
            <path id="Path_186386" data-name="Path 186386" d="M68.278,158.783l22.89.34a12.857,12.857,0,0,1,12.258,10.669l14.832,97.989-29.8,5.9L72.241,186.63Z" transform="translate(188.769 57.431)" fill="#ffb6c8"/>
            <path id="Path_186387" data-name="Path 186387" d="M96.556,207.227a.685.685,0,0,0,.639-.441l9.33-24.927a17.674,17.674,0,0,0-16.18-24.1h-.01a.681.681,0,0,0-.011,1.362,16.313,16.313,0,0,1,14.93,22.249l-9.336,24.934a.681.681,0,0,0,.637.921" transform="translate(170.156 57.061)"/>
            <path id="Path_186388" data-name="Path 186388" d="M30.021,150.129h0a2.392,2.392,0,0,1-2.986-1.631L17.979,117.9a2.44,2.44,0,0,1,1.607-3.032,2.392,2.392,0,0,1,2.986,1.631L31.626,147.1a2.441,2.441,0,0,1-1.605,3.032" transform="translate(343.929 41.51)"/>
            <path id="Path_186389" data-name="Path 186389" d="M24.556,120.437l4.592-1.4-.665-2.245-4.592,1.4Z" transform="translate(338.319 42.242)" fill="#ffb6c8"/>
            <path id="Path_186390" data-name="Path 186390" d="M18.877,148.753l-2.971-.362a.911.911,0,0,1-.787-1.016l4.1-34.74a.9.9,0,0,1,1-.8l2.97.362a.912.912,0,0,1,.788,1.016l-4.1,34.741a.905.905,0,0,1-1,.8" transform="translate(355.431 40.448)" fill="#fd521b"/>
            <path id="Path_186391" data-name="Path 186391" d="M15.341,116.634l4.762.58.274-2.327-4.76-.58Z" transform="translate(358.733 41.344)"/>
            <path id="Path_186392" data-name="Path 186392" d="M15.544,125.389h16.69a2.121,2.121,0,0,1,2.122,2.122v33.5a2.122,2.122,0,0,1-2.122,2.122H15.544a2.121,2.121,0,0,1-2.122-2.122v-33.5a2.121,2.121,0,0,1,2.122-2.122" transform="translate(347.368 45.352)" fill="#a6bbff"/>
            <path id="Path_186393" data-name="Path 186393" d="M139.57,314.187a.682.682,0,0,0,.67-.566l19.442-114.683c1.1-6.467,6.1-11.159,11.888-11.159H239.3a.681.681,0,1,0,0-1.362H171.57c-6.457,0-12.021,5.17-13.23,12.292L138.9,313.392a.682.682,0,0,0,.557.786.661.661,0,0,0,.116.01" transform="translate(-29.108 67.426)"/>
            <path id="Path_186394" data-name="Path 186394" d="M142.046,314.187a.682.682,0,0,0,.67-.566l19.442-114.683c1.1-6.467,6.1-11.159,11.888-11.159h42.116a.681.681,0,1,0,0-1.362H174.046c-6.457,0-12.021,5.17-13.23,12.292L141.374,313.392a.683.683,0,0,0,.557.786.662.662,0,0,0,.116.01" transform="translate(-9.337 67.426)"/>
            <rect id="Rectangle_45801" data-name="Rectangle 45801" width="9.78" height="162.146" transform="translate(361.132 218.786)" fill="#fff"/>
            <path id="Path_186395" data-name="Path 186395" d="M21.542,323.68h9.781A.681.681,0,0,0,32,323V160.853a.68.68,0,0,0-.681-.681H21.542a.68.68,0,0,0-.681.681V323a.681.681,0,0,0,.681.681m9.1-1.362H22.223V161.534h8.419Z" transform="translate(339.59 57.933)"/>
            <rect id="Rectangle_45802" data-name="Rectangle 45802" width="9.78" height="162.146" transform="translate(116.553 218.786)" fill="#fff"/>
            <path id="Path_186396" data-name="Path 186396" d="M201.158,323.68h9.778a.68.68,0,0,0,.681-.681V160.853a.679.679,0,0,0-.681-.681h-9.778a.679.679,0,0,0-.681.681V323a.68.68,0,0,0,.681.681m9.1-1.362h-8.418V161.534h8.418Z" transform="translate(-84.605 57.933)"/>
            <path id="Path_186397" data-name="Path 186397" d="M21.108,166.887l9.466,7.344V160.672H21.108Z" transform="translate(340.682 58.114)"/>
            <path id="Path_186398" data-name="Path 186398" d="M200.833,166.887,211,174.23V160.672H200.833Z" transform="translate(-84.477 58.114)"/>
            <rect id="Rectangle_45803" data-name="Rectangle 45803" width="311.174" height="9.513" transform="translate(88.145 209.273)" fill="#fff"/>
            <path id="Path_186399" data-name="Path 186399" d="M.681,164.06H311.855a.681.681,0,0,0,.681-.681v-9.513a.681.681,0,0,0-.681-.681H.681a.68.68,0,0,0-.681.681v9.513a.68.68,0,0,0,.681.681M311.174,162.7H1.362v-8.15H311.174Z" transform="translate(87.464 55.406)"/>
            <path id="Path_186400" data-name="Path 186400" d="M152.93,95.114s19.988-5.082,28.09-13.317a1.209,1.209,0,0,1,1.679-.048,2.035,2.035,0,0,1,.129,2.873c-2.122,2.324-6.625,6.637-12.242,8.43C162.713,95.567,159.119,100,159.119,100l-2.454.718Z" transform="translate(8.395 29.454)" fill="#ffa88a"/>
            <path id="Path_186401" data-name="Path 186401" d="M156.384,88.388a6.365,6.365,0,0,1,6.479,1.639c2.12,2.109.162,5.053-1.558,6.672-.715.675-2.073,1.311-2.756.6l-.677-1.605Z" transform="translate(23.266 31.863)" fill="#ffa88a"/>
            <path id="Path_186402" data-name="Path 186402" d="M158.585,89.888a5.54,5.54,0,0,1,5.938,1.172c2.44,2.471-1.808,6.74-3.239,7.526l-1.746-1.849Z" transform="translate(18.792 32.366)" fill="#ffa88a"/>
            <path id="Path_186403" data-name="Path 186403" d="M160.31,93.092a1.433,1.433,0,0,1,1.194-1.577,4.877,4.877,0,0,1,4.411,1.375c1.841,1.881-.475,4.984-2.206,6.573a1.43,1.43,0,0,1-2.015-.079l-.438-.468-.005-.007a1.139,1.139,0,0,1-.2-1.211l1.5-3.61Z" transform="translate(15.13 33.073)" fill="#ffa88a"/>
            <path id="Path_186404" data-name="Path 186404" d="M175.588,97.4s-.867,2.267-4.89,2.6a17.164,17.164,0,0,1-4.893-.1l-4.66-6.992,12.995-3.082,6.249-2.258-1.717,9.16Z" transform="translate(0.179 31.67)" fill="#ffa88a"/>
            <path id="Path_186405" data-name="Path 186405" d="M163.368,98.64a.255.255,0,0,0,.132-.037c.938-.572,3.417-2.983,3.7-5.281a2.841,2.841,0,0,0-.813-2.454c-2.693-2.726-7.65-.507-7.858-.411a.255.255,0,1,0,.211.464c.049-.023,4.842-2.169,7.284.306a2.353,2.353,0,0,1,.67,2.03c-.257,2.1-2.608,4.39-3.456,4.908a.255.255,0,0,0,.132.474" transform="translate(17.113 32.377)"/>
            <path id="Path_186406" data-name="Path 186406" d="M162.638,100.091a1.694,1.694,0,0,0,1.147-.445c1.4-1.287,2.917-3.279,2.963-5.011A2.561,2.561,0,0,0,166,92.707c-1.476-1.507-4.187-1.332-5.673-1.1a.256.256,0,0,0-.211.293.253.253,0,0,0,.293.212c1.385-.223,3.911-.395,5.226.948a2.07,2.07,0,0,1,.6,1.558c-.042,1.574-1.533,3.487-2.8,4.649a1.182,1.182,0,0,1-1.659-.065c-.031-.029-.851-.724-.6-1.423l1.517-2.738a.255.255,0,0,0-.447-.248l-1.533,2.774a1.979,1.979,0,0,0,.709,2.007,1.639,1.639,0,0,0,1.205.515" transform="translate(15.226 33.079)"/>
            <path id="Path_186407" data-name="Path 186407" d="M167.508,90.293a.251.251,0,0,0,.161-.056.257.257,0,0,0,.038-.359c-2.934-3.619-10.357-.726-10.67-.6a.254.254,0,1,0,.188.473c.074-.027,7.382-2.877,10.085.451a.257.257,0,0,0,.2.094" transform="translate(18.62 31.852)"/>
            <g id="Group_175863" data-name="Group 175863" transform="translate(177.935 130.776)" opacity="0.3" style="mix-blend-mode: overlay;isolation: isolate">
              <g id="Group_175862" data-name="Group 175862" transform="translate(0)">
                <g id="Group_175861" data-name="Group 175861" clip-path="url(#clip-path-6)">
                  <path id="Path_186408" data-name="Path 186408" d="M163.042,97.535c-.512.554-1.126.82-1.371.594s-.03-.859.482-1.415,1.127-.82,1.373-.594.029.861-.483,1.415" transform="translate(-161.569 -96.039)"/>
                </g>
              </g>
            </g>
          </g>
        </g>
        <g id="Group_175870" data-name="Group 175870" transform="translate(179.65 119.958)">
          <g id="Group_175869" data-name="Group 175869" transform="translate(0)" clip-path="url(#clip-path-7)">
            <g id="Group_175868" data-name="Group 175868" transform="translate(2.76 7.688)" opacity="0.3" style="mix-blend-mode: overlay;isolation: isolate">
              <g id="Group_175867" data-name="Group 175867" transform="translate(0)">
                <g id="Group_175866" data-name="Group 175866" transform="translate(0)" clip-path="url(#clip-path-8)">
                  <path id="Path_186409" data-name="Path 186409" d="M159.7,95.97c-.748.586-1.626.715-1.961.287s0-1.25.748-1.836,1.355-1.039,1.961-.287c.34.423,0,1.25-.748,1.836" transform="translate(-157.613 -93.741)"/>
                </g>
              </g>
            </g>
          </g>
        </g>
        <g id="Group_175875" data-name="Group 175875" transform="translate(161.325 110.888)">
          <g id="Group_175874" data-name="Group 175874" transform="translate(0)" clip-path="url(#clip-path-9)">
            <g id="Group_175873" data-name="Group 175873" transform="translate(26.466 -0.276)" opacity="0.3" style="mix-blend-mode: overlay;isolation: isolate">
              <g id="Group_175872" data-name="Group 175872" transform="translate(0)">
                <g id="Group_175871" data-name="Group 175871" transform="translate(0)" clip-path="url(#clip-path-10)">
                  <path id="Path_186411" data-name="Path 186411" d="M156.012,83.529c-.669.7-1.514,1.02-2.047.468-.689-.709-.293-1.367.377-2.067s1.586-.91,2.048-.468.293,1.367-.379,2.067" transform="translate(-153.604 -81.231)"/>
                </g>
              </g>
            </g>
          </g>
        </g>
        <g id="Group_175877" data-name="Group 175877">
          <g id="Group_175876" data-name="Group 175876" clip-path="url(#clip-path)">
            <path id="Path_186413" data-name="Path 186413" d="M244.514,29.187l-9.821,13.328-13.128-3.508,10.422-15.832Z" transform="translate(-146.218 8.382)" fill="#ffa88a"/>
            <path id="Path_186414" data-name="Path 186414" d="M230.813,34.795l4.131-5.607-12.526-6.012-.852,1.295Z" transform="translate(-136.648 8.382)"/>
            <path id="Path_186415" data-name="Path 186415" d="M251.445,150.826,260.2,308.142l14.912.885,3.053-149.048Z" transform="translate(-220.558 54.553)" fill="#ffa88a"/>
            <path id="Path_186416" data-name="Path 186416" d="M282.535,162.231l-31.09-10.65.24,6.034,30.047,16.957Z" transform="translate(-224.926 54.826)"/>
            <path id="Path_186417" data-name="Path 186417" d="M241.1,80.586l6.665,117.855-29.783-1.418L229.754,74.062Z" transform="translate(-144.59 26.788)" fill="#fc5f65"/>
            <path id="Path_186418" data-name="Path 186418" d="M237.358,144.975,259.946,313.23l-16.553-2.083L214.77,171.254Z" transform="translate(-152.396 52.436)" fill="#ffa88a"/>
            <path id="Path_186419" data-name="Path 186419" d="M253.484,147.242l-22.512,5.91-2.757,17.427,1.477,7.224,15.556,5.967,2.458-23.446,7.487-2.3Z" transform="translate(-165.952 53.256)"/>
            <path id="Path_186420" data-name="Path 186420" d="M253.113,123.956,226.832,154.53l5.342,18.652,28.526-9.554Z" transform="translate(-169.576 44.834)" fill="#ffbfc1"/>
            <path id="Path_186421" data-name="Path 186421" d="M206.643,24.911c-2.243-11.44,4.65-22.422,15.4-24.528s21.275,5.458,23.518,16.9-2.043,25.34-13.893,24.559c-10.928-.719-22.778-5.489-25.021-16.929" transform="translate(-126.939 0.011)" fill="#ffa88a"/>
            <path id="Path_186422" data-name="Path 186422" d="M219.906,19S214.868,9.85,208.378,15.2c0,0,4.36,7.695,11.528,3.809" transform="translate(-103.653 4.89)" fill="#fff"/>
            <path id="Path_186423" data-name="Path 186423" d="M215.659,12.255a.867.867,0,0,0,.447-1.611,8.059,8.059,0,0,0-6.968-.184.868.868,0,1,0,.675,1.6,6.3,6.3,0,0,1,5.409.078.879.879,0,0,0,.437.118" transform="translate(-100.589 3.533)"/>
            <path id="Path_186424" data-name="Path 186424" d="M204.273,18.731l5.121-.829-5.278,6.562Z" transform="translate(-87.338 6.475)" fill="#ffa88a"/>
            <path id="Path_186425" data-name="Path 186425" d="M224.631,35.278l4.721-7.239,16.6,6.137.315,9.758Z" transform="translate(-152.148 10.142)" fill="#fd521b"/>
            <path id="Path_186426" data-name="Path 186426" d="M313.162,33.529,245.483,87.976a14.454,14.454,0,0,0-.2,22.358L270.6,129.693l5.07-25.234-7.209-5.937,36.39-26.977Z" transform="translate(-240.089 12.127)" fill="#fc5f65"/>
            <path id="Path_186427" data-name="Path 186427" d="M318.944,124.789l1.691-21.628-45.056-1.514L246.165,37.474l-19.538-4.445s-22.566,19.859-34.705,59.389-21.27,104.447-21.27,104.447L231.275,221.3,245.108,94.865l16.692,25.7a11.921,11.921,0,0,0,10.3,5.424Z" transform="translate(-153.011 11.946)" fill="#fc5f65"/>
            <path id="Path_186428" data-name="Path 186428" d="M245.3,91.161a.672.672,0,0,0,.407-.136.68.68,0,0,0,.138-.952L223.631,60.316a.68.68,0,0,0-1.091.813l22.213,29.758a.674.674,0,0,0,.545.274" transform="translate(-148.825 21.717)"/>
            <path id="Path_186429" data-name="Path 186429" d="M265.111,9.6C259.9,1.5,250.248-1.081,242.72.395c-10.746,2.107-19.445,12.56-16.863,23.928,1.083,4.769-7.625,13.609-17.729,17.054-1.861.635.426,2.154,4.338,3.893.719.319,9.115-2.213,9.929-1.883.881.358-3.894,4.287-2.94,4.647a126.829,126.829,0,0,0,15.623,4.937c4.856.714,2.695-25.168,2.695-25.168l1.006-8.916c8.942.03,7.212-10.695,7.212-10.695l1.27,5.975,6.9-2.77V7.572l3,3.376Z" transform="translate(-147.62 0)" fill="#5774cd"/>
            <path id="Path_186430" data-name="Path 186430" d="M224.881,91.312a.679.679,0,0,0,.629-.422c.118-.285,11.894-28.7,20.316-41.149,4.047-5.981,11.7-14.384,12.924-15.715,1.728-.212,12.766-1.2,20.15,5.854a.68.68,0,1,0,.941-.983c-8.482-8.106-21-6.272-21.53-6.188a.674.674,0,0,0-.395.21c-.087.1-8.777,9.5-13.218,16.058-8.5,12.56-20.329,41.108-20.447,41.4a.68.68,0,0,0,.37.888.66.66,0,0,0,.259.052" transform="translate(-185.344 11.745)"/>
            <path id="Path_186431" data-name="Path 186431" d="M234.381,16.572a5.808,5.808,0,1,0-11.307,2.47,5.808,5.808,0,1,0,11.307-2.47" transform="translate(-138.08 4.171)" fill="#ffa88a"/>
            <path id="Path_186432" data-name="Path 186432" d="M230.357,19.939a.867.867,0,0,0,.613-1.48l-5.191-5.18a.867.867,0,1,0-1.226,1.226l5.191,5.18a.86.86,0,0,0,.613.255" transform="translate(-136.651 4.711)"/>
            <path id="Path_186433" data-name="Path 186433" d="M226.437,20.449a.864.864,0,0,0,.662-.308l2.7-3.193a.866.866,0,1,0-1.324-1.117l-2.7,3.192a.867.867,0,0,0,.662,1.426" transform="translate(-137.159 5.616)"/>
            <path id="Path_186434" data-name="Path 186434" d="M226.3,148a.68.68,0,0,0,.675-.606l7.517-68.7a.682.682,0,0,0-1.355-.15l-7.515,68.7a.681.681,0,0,0,.6.752.712.712,0,0,0,.076,0" transform="translate(-141.719 28.19)"/>
            <path id="Path_186435" data-name="Path 186435" d="M279.748,83.5a.681.681,0,0,0,.418-1.219L273.513,77.1a.68.68,0,0,0-.835,1.074l6.652,5.177a.679.679,0,0,0,.418.143" transform="translate(-251.373 27.835)"/>
            <path id="Path_186436" data-name="Path 186436" d="M276.421,80.533a.714.714,0,0,0,.316-.076.683.683,0,0,0,.287-.92L273.7,73.156a.682.682,0,0,0-1.208.632l3.327,6.38a.677.677,0,0,0,.6.366" transform="translate(-248.046 26.328)"/>
            <path id="Path_186437" data-name="Path 186437" d="M267.8,110.818a.681.681,0,0,0,.671-.577c.974-6.352,6.551-24.058,6.607-24.237a.68.68,0,1,0-1.3-.409c-.232.731-5.667,17.984-6.655,24.438a.68.68,0,0,0,.569.776.693.693,0,0,0,.1.008" transform="translate(-238.844 30.787)"/>
            <path id="Path_186438" data-name="Path 186438" d="M206.838,91.326a.677.677,0,0,0,.659-.513l1.7-6.724a.68.68,0,1,0-1.318-.336l-1.7,6.725a.677.677,0,0,0,.492.827.658.658,0,0,0,.167.022" transform="translate(-89.943 30.107)"/>
            <path id="Path_186439" data-name="Path 186439" d="M204.517,93.737l.063,0a.682.682,0,0,0,.617-.739l-.708-7.941a.682.682,0,0,0-1.358.123l.709,7.941a.679.679,0,0,0,.677.62" transform="translate(-81.797 30.54)"/>
            <path id="Path_186440" data-name="Path 186440" d="M216.331,18.973s-2.525-4.581-6.3-5.366a4.807,4.807,0,0,0-1.652,3.724,4.992,4.992,0,0,0,.34,1.735,7.413,7.413,0,0,0,7.612-.093" transform="translate(-100.078 4.922)"/>
            <path id="Path_186441" data-name="Path 186441" d="M247.151,261.583l4.055,5.573,8.6-4.231,9.231,3.869,5.561,1.341a6.013,6.013,0,0,1,4.6,5.783l.114,10.876-37.884-.15Z" transform="translate(-208.062 94.613)" fill="#fff"/>
            <path id="Path_186442" data-name="Path 186442" d="M279.468,285.534a.586.586,0,0,0,.586-.591l-.114-10.876a6.592,6.592,0,0,0-5.052-6.347l-5.561-1.34-9.141-3.839a.58.58,0,0,0-.485.015l-8.154,4.012-3.766-5.174a.584.584,0,0,0-1.04.2l-5.725,23.062a.585.585,0,0,0,.566.726l37.884.148Zm-19.49-21.81,8.984,3.765,5.65,1.37a5.424,5.424,0,0,1,4.156,5.221l.109,10.282-36.546-.143,5.242-21.121,3.316,4.558a.589.589,0,0,0,.733.181Z" transform="translate(-208.219 94.458)"/>
            <path id="Path_186443" data-name="Path 186443" d="M248.658,280.256h.025a.588.588,0,0,0,.561-.609c-.2-4.867.817-8.5,3.018-10.789a7.86,7.86,0,0,1,5.174-2.441.586.586,0,0,0,0-1.171,8.98,8.98,0,0,0-6.019,2.8c-2.431,2.531-3.555,6.45-3.344,11.648a.586.586,0,0,0,.586.561" transform="translate(-195.784 95.938)" fill="#fff"/>
            <path id="Path_186444" data-name="Path 186444" d="M262.622,267.949a7.218,7.218,0,0,1-4.5-5.772c-.32-2.723-3.694-4.462-6.235-3.427a5.711,5.711,0,0,0-2.963,6.874,7.345,7.345,0,0,0,6.162,4.759,10.289,10.289,0,0,0,7.533-2.433" transform="translate(-201.234 93.479)" fill="#fd521b"/>
            <path id="Path_186445" data-name="Path 186445" d="M205.444,260.759l-6.28,7.952-9.249-1.663,1.352,18.386,51-11.291-2.7-7.935a7.744,7.744,0,0,0-9.163-4.728l-6.2,1.386Z" transform="translate(-100.872 94.315)" fill="#fff"/>
            <path id="Path_186446" data-name="Path 186446" d="M191.422,286.176a.572.572,0,0,0,.127-.015l51-11.291a.587.587,0,0,0,.428-.76l-2.7-7.935a8.3,8.3,0,0,0-9.845-5.11l-6.1,1.364-18.666-2.1a.591.591,0,0,0-.526.221l-6.062,7.676-8.9-1.6a.586.586,0,0,0-.688.62l1.352,18.386a.587.587,0,0,0,.234.426.6.6,0,0,0,.35.116m50.236-12.307-49.7,11-1.247-16.959,8.505,1.528a.586.586,0,0,0,.564-.214l6.079-7.695L224.3,263.6a.656.656,0,0,0,.193-.011l6.2-1.385a7.132,7.132,0,0,1,8.481,4.345Z" transform="translate(-101.028 94.159)"/>
            <path id="Path_186447" data-name="Path 186447" d="M203.2,274.282h.018a.587.587,0,0,0,.569-.6l-.331-10.594a.616.616,0,0,0-.6-.568.587.587,0,0,0-.566.6l.331,10.594a.584.584,0,0,0,.584.566" transform="translate(-79.239 94.951)" fill="#fff"/>
            <path id="Path_186448" data-name="Path 186448" d="M225.977,264.385c-7.3-1.3-13.991-1.446-17.9-6.8a2.9,2.9,0,0,0-3.749-.579,2.52,2.52,0,0,0-.716,3.51c4.852,6.439,15.047,8.309,22.364,3.873" transform="translate(-102.643 92.797)" fill="#fd521b"/>
            <path id="Path_186449" data-name="Path 186449" d="M190.9,278.578a.641.641,0,0,0,.124-.012l45.1-9.683a.586.586,0,0,0-.245-1.145l-45.1,9.683a.585.585,0,0,0,.121,1.157" transform="translate(-95.724 96.835)"/>
            <path id="Path_186450" data-name="Path 186450" d="M241.584,276.58h36.978a.586.586,0,0,0,0-1.171H241.584a.586.586,0,0,0,0,1.171" transform="translate(-207.312 99.614)"/>
            <path id="Path_186451" data-name="Path 186451" d="M219,268.718a.586.586,0,0,0,.571-.455l1.973-8.663a.585.585,0,0,0-.937-.586l-8.415,6.774-.663-7.122a.586.586,0,0,0-.984-.373l-6.93,6.51a.585.585,0,1,0,.8.852l6.057-5.69.654,7.015a.585.585,0,0,0,.949.4l7.954-6.4-1.6,7.021a.586.586,0,0,0,.44.7.55.55,0,0,0,.131.015" transform="translate(-98.578 93.366)"/>
            <path id="Path_186452" data-name="Path 186452" d="M252.739,270.489a.6.6,0,0,0,.245-.053l10.09-4.639a.584.584,0,0,0,.312-.711.576.576,0,0,0-.669-.393L250.395,267.1l6.789-4.484a.585.585,0,0,0-.522-1.038l-11.456,4.168a.585.585,0,1,0,.4,1.1l6.789-2.471-5.115,3.378a.587.587,0,0,0-.219.709.578.578,0,0,0,.654.353l10.417-2.037-5.639,2.593a.585.585,0,0,0,.245,1.117" transform="translate(-196.786 94.598)"/>
            <path id="Path_186453" data-name="Path 186453" d="M210.2,22.34c2.32-.069,5.138,1.034,5.712,3.035s-2.575,1.238-4.679-.045-1.825-2.967-1.034-2.99" transform="translate(-101.397 8.079)"/>
            <path id="Path_186454" data-name="Path 186454" d="M214,23.171a3.516,3.516,0,0,1,1.525,1.906c.575,2-2.574,1.239-4.679-.045a3.942,3.942,0,0,1-1.241-1.125A11.232,11.232,0,0,1,214,23.171" transform="translate(-101.016 8.375)" fill="#fd521b"/>
          </g>
        </g>
      </g>
    </g>
  </g>
</svg>
