<svg xmlns="http://www.w3.org/2000/svg" xmlns:xlink="http://www.w3.org/1999/xlink" width="1328.492" height="3096.953" viewBox="0 0 1328.492 3096.953">
  <defs>
    <clipPath id="clip-path">
      <rect id="Rectangle_41289" data-name="Rectangle 41289" width="1328" height="2475" fill="#6b8dfc"/>
    </clipPath>
    <clipPath id="clip-path-2">
      <path id="Path_170518" data-name="Path 170518" d="M0,0H1328V2475.339H0Z" transform="translate(136 404.333)" fill="#f0f4ff"/>
    </clipPath>
  </defs>
  <g id="bg-t3-1" transform="translate(-135.508 -404)">
    <g id="Group_175794" data-name="Group 175794">
      <g id="Group_166707" data-name="Group 166707" transform="translate(-44 -4773)">
        <path id="Path_170518-2" data-name="Path 170518" d="M0,0H1328V2475.339H0Z" transform="translate(180 5177.333)" fill="#f0f4ff"/>
      </g>
      <g id="Mask_Group_317" data-name="Mask Group 317" clip-path="url(#clip-path-2)">
        <g id="Group_175739" data-name="Group 175739" transform="translate(1401.979 1882.354) rotate(-130)">
          <g id="Group_162315" data-name="Group 162315" transform="translate(24.701 0)" style="mix-blend-mode: overlay;isolation: isolate">
            <path id="Path_143614" data-name="Path 143614" d="M728.515,366.954c-54.88-55.211-111.428-108.557-168.97-161.048,26.3,54.272,54.418,107.777,79.53,162.554,28.463,62.1,62.1,146.515,32.523,209.03-67.406,142.495-260.716-8.769-332.785-85.169-7.675-8.145-15.037-16.618-22.483-25,27.231,60.331,52.083,122.184,49.11,185.936-4.089,87.657-85.1,105.157-157.492,61.145-77.735-47.246-142-125.9-195.9-197.144-45.785-60.507,50.469-111.942,95.878-52.288a872.564,872.564,0,0,0,80.9,91.984q-6.626-11.327-13.381-22.617c-29.782-49.767-59.234-99.713-84.019-151.808C43.974,282.791-25.8,144.525,23.779,44,48.768-6.659,112.572-9.1,161.734,14.129c66.086,31.227,113.784,95.833,159.437,150.745,47.655,57.333,90.079,117.852,134.485,177.442,18.552,24.9,37.108,50.144,58.112,73.214.481.535.982,1.028,1.462,1.553l-.571-1.578c-12.629-34.48-28.368-67.727-44.3-101.067-29.624-62.032-67.2-127.6-80.014-194.238-11.331-58.923,9.8-123.47,81.512-116.066C539.275,11.09,596.014,77.22,642.869,121.776c56.739,53.965,112.553,108.907,168.375,163.8C869.536,342.881,786.162,424.932,728.515,366.954Z" transform="translate(11.032 10.842)" fill="#3c384f"/>
            <path id="Path_143615" data-name="Path 143615" d="M476.007,3.771c-26.386-1.164-48.374,6.968-63.885,23.716-21.56,23.281-29.575,62.4-21.45,104.634,10.593,55.067,37.179,108.538,62.882,160.234,6.157,12.382,12.253,24.644,18.039,36.764,5.486,11.5,11.259,23.572,17.007,36.054q-5.067-6.761-10.033-13.442l-3.287-4.417q-17.307-23.218-34.326-46.552c-31.986-43.6-65.06-88.694-100.562-131.4-5.185-6.236-10.4-12.6-15.668-19.034C283.979,100.582,237.8,44.2,176.752,15.36,122.324-10.331,52.7-6.88,24.923,49.471-25,150.7,39.89,286.648,87.281,385.914L92.66,397.2c13.942,29.323,29.39,58.027,45.694,86.641q-5.532-6.942-10.872-13.971C99.408,433,53.069,431.488,24.471,451.343c-23.651,16.421-35.9,48.348-9.936,82.666,57.543,76.048,121.52,152.948,199.334,200.24,43.183,26.244,89.43,32.235,123.739,16.027,30.208-14.269,47.884-44.36,49.762-84.743,2.207-47.36-10.262-93.334-27.324-137.421,58.377,56.3,165.3,137.2,247.821,129.3,37.906-3.65,66.41-25.136,84.722-63.852,30.127-63.668.424-145.9-32.607-217.932-15.72-34.3-32.854-68.567-49.426-101.721l-5.866-11.727c46.84,43.506,88.811,83.96,127.4,122.776v-.011c19.079,19.206,42.575,26.988,66.094,21.954,25.824-5.543,47.179-26.37,53.129-51.85,5.457-23.37-2.237-46.775-21.683-65.889l-6.348-6.234c-52.853-51.973-107.5-105.718-162.174-157.7-6.737-6.412-13.668-13.26-20.816-20.321C597.774,62.928,544.865,10.674,483.068,4.3,480.686,4.041,478.329,3.873,476.007,3.771Zm50.671,434.42a9.8,9.8,0,0,0,5.213-1.152,9.589,9.589,0,0,0,4.6-11.951l-.582-1.589c-13.237-36.156-29.957-71.17-44.71-102.06-5.845-12.24-12-24.612-18.206-37.093-25.01-50.317-50.879-102.342-60.89-154.385-6.793-35.336-.384-68.773,16.725-87.25,12.689-13.7,30.8-19.362,53.883-17.058,53.5,5.529,100.959,52.382,142.829,93.73,7.26,7.163,14.305,14.123,21.145,20.636,54.522,51.844,109.1,105.51,161.89,157.417l6.338,6.233c17.2,16.906,17.706,33.708,15.116,44.826-4.225,18.092-19.961,33.46-38.255,37.386-11.151,2.4-27.944,1.68-44.757-15.241v-.011c-49.856-50.139-105.271-102.953-169.424-161.454-3.958-3.612-9.695-4.2-13.758-1.421s-5.334,8.16-3.033,12.9c9.936,20.516,20.14,40.915,30.343,61.314,16.477,32.979,33.526,67.076,49.079,101.01,30.945,67.476,58.99,144.022,32.44,200.128-15.43,32.643-37.942,49.95-68.82,52.914C526.91,643.4,414.365,556.5,357.529,496.23c-6.063-6.414-11.919-13.054-17.786-19.695l-4.435-5.025c-3.666-4.145-9.6-5.306-14.046-2.75s-6.035,8.054-3.8,13c25.928,57.468,51.006,118.774,48.112,180.9-1.554,33.287-14.966,56.831-38.783,68.084-27.78,13.123-66.169,7.693-102.7-14.5C149.822,671.1,87.69,596.3,31.615,522.191c-17.713-23.418-8.287-42.705,6.45-52.934,19.959-13.843,52.1-14.16,72.371,12.487a889.651,889.651,0,0,0,82.039,93.287c4,3.956,10.1,4.664,14.291,1.658s5.24-8.806,2.436-13.61q-6.661-11.376-13.45-22.716c-30.147-50.394-59.23-99.852-83.474-150.81l-5.391-11.31C61.416,283-.838,152.566,44.711,60.206c22.126-44.865,79.165-46.825,124.07-25.623,56.04,26.469,98.442,78.238,139.44,128.307,5.3,6.466,10.563,12.887,15.793,19.168,35.02,42.138,67.863,86.922,99.64,130.235q17.135,23.371,34.43,46.7l3.287,4.407c17.418,23.394,35.427,47.575,55.6,69.741l1.016,1.083A13.149,13.149,0,0,0,526.679,438.191ZM739.558,377.8l.1,0Z" transform="translate(0 0)" fill="#3c384f"/>
            <path id="Path_143616" data-name="Path 143616" d="M52.778,265.831C9.068,184.621-17.763,90.492,13.69,6.666,18.334-5.733,39.67.723,34.958,13.3,5.44,92.009,30,179.452,71.115,255.835,77.9,268.428,59.589,278.488,52.778,265.831Z" transform="translate(46.909 73.365)" fill="#3c384f"/>
            <path id="Path_143617" data-name="Path 143617" d="M31.379,21.055c-.184.013-.356.059-.529.084-.279.566-.523,1.187-.614,1.354l-.052.062c-.018.085.012.022-.015.149-1.191,4.734-1.976,9.539-2.826,14.374Q24.41,53.894,21.465,70.71c-.953,5.441-7.62,8.851-13.07,6.9A12.054,12.054,0,0,1,.186,64.074q3.325-19.015,6.66-38.041C8.69,15.482,11.78,1.666,24.654.1,30.214-.573,36.729,2.081,38.4,8.194,39.826,13.429,37.351,20.333,31.379,21.055Z" transform="translate(91.26 93.14)" fill="#3c384f"/>
            <path id="Path_143618" data-name="Path 143618" d="M42.993,257.758c-12.079,5.956-23.927-13.048-11.827-19.014,16.708-8.236,21.108-26.31,20.978-44.262-.13-20.383-3.4-41.472-7.671-61.727A437.926,437.926,0,0,0,1.48,15.833C-5.3,3.231,13.006-6.82,19.817,5.837c23.506,43.7,39.98,89.954,48.391,137.6C75.073,182.333,83.689,237.7,42.993,257.758Z" transform="translate(579.991 335.288)" fill="#3c384f"/>
          </g>
          <g id="Group_162318" data-name="Group 162318" transform="translate(0 24.302)">
            <g id="Group_162317" data-name="Group 162317" transform="translate(0 0)">
              <g id="Group_162316" data-name="Group 162316">
                <path id="Path_143619" data-name="Path 143619" d="M728.525,366.954C673.645,311.743,617.1,258.4,559.544,205.916c26.3,54.261,54.429,107.778,79.54,162.543,28.464,62.1,62.093,146.515,32.524,209.03-67.406,142.495-260.716-8.759-332.785-85.17-7.685-8.134-15.037-16.607-22.483-25,27.22,60.33,52.072,122.183,49.11,185.936-4.089,87.657-85.1,105.157-157.491,61.156-77.746-47.257-142-125.914-195.91-197.155-45.785-60.507,50.48-111.942,95.889-52.287a873.676,873.676,0,0,0,80.893,91.994q-6.626-11.327-13.37-22.627c-29.782-49.767-59.234-99.713-84.019-151.8C43.973,282.791-25.788,144.536,23.789,44,48.777-6.658,112.571-9.1,161.744,14.129c66.086,31.227,113.783,95.833,159.437,150.744,47.655,57.334,90.068,117.852,134.474,177.441,18.563,24.9,37.119,50.144,58.113,73.225.48.525.992,1.018,1.473,1.553l-.572-1.589c-12.629-34.48-28.378-67.727-44.3-101.067-29.635-62.021-67.195-127.594-80.014-194.238C379.018,61.277,400.164-3.27,471.872,4.134c67.4,6.956,124.141,73.086,171,117.642,56.75,53.966,112.564,108.918,168.387,163.807C869.535,342.881,786.161,424.932,728.525,366.954Z" transform="translate(11.023 10.839)" fill="#6b8dfc"/>
                <path id="Path_143620" data-name="Path 143620" d="M476,3.779c-26.386-1.164-48.364,6.958-63.874,23.706-21.56,23.281-29.575,62.4-21.449,104.645,10.581,55.056,37.168,108.526,62.882,160.234C459.7,304.746,465.8,317,471.594,329.117c5.486,11.5,11.259,23.573,17.007,36.055-3.378-4.5-6.723-8.992-10.033-13.442l-3.286-4.407c-11.538-15.479-22.938-31.026-34.337-46.552-31.975-43.61-65.05-88.7-100.552-131.4q-7.778-9.37-15.668-19.045C283.98,100.589,237.8,44.209,176.752,15.357,122.313-10.334,52.7-6.873,24.923,49.478-25,150.694,39.89,286.646,87.27,385.921L92.659,397.2c13.942,29.323,29.39,58.027,45.683,86.64q-5.516-6.941-10.872-13.961c-28.062-36.885-74.4-38.393-103-18.538-23.651,16.421-35.9,48.348-9.936,82.666,57.543,76.048,121.52,152.948,199.323,200.25,43.194,26.234,89.429,32.225,123.749,16.017,30.208-14.269,47.874-44.35,49.763-84.732,2.207-47.36-10.263-93.344-27.335-137.422,58.387,56.287,165.3,137.19,247.821,129.286,37.907-3.65,66.421-25.136,84.733-63.851,30.116-63.669.414-145.889-32.607-217.932-15.72-34.284-32.854-68.566-49.426-101.711l-5.866-11.727c46.839,43.5,88.81,83.948,127.4,122.765h0c19.08,19.206,42.575,26.977,66.094,21.943,25.824-5.543,47.179-26.37,53.118-51.85,5.468-23.37-2.226-46.763-21.672-65.878l-6.349-6.244c-52.853-51.973-107.5-105.707-162.174-157.7-6.738-6.411-13.669-13.26-20.827-20.321C597.774,62.925,544.864,10.671,483.068,4.293,480.675,4.049,478.329,3.881,476,3.779ZM526.668,438.2a9.784,9.784,0,0,0,5.212-1.162,9.578,9.578,0,0,0,4.609-11.95l-.582-1.589c-13.236-36.145-29.958-71.17-44.71-102.059-5.845-12.23-12-24.6-18.206-37.093C447.971,234.027,422.1,182,412.091,129.969c-6.793-35.336-.384-68.773,16.735-87.26,12.679-13.693,30.8-19.362,53.883-17.058,53.5,5.529,100.96,52.382,142.818,93.73,7.261,7.173,14.317,14.134,21.156,20.636,54.522,51.844,109.1,105.51,161.89,157.416l6.338,6.244c17.192,16.9,17.706,33.7,15.1,44.826-4.226,18.082-19.951,33.461-38.255,37.375-11.139,2.4-27.933,1.681-44.746-15.241h0C697.159,320.5,641.744,267.685,577.59,209.173c-3.969-3.612-9.705-4.2-13.758-1.421-4.074,2.776-5.334,8.16-3.033,12.9,9.936,20.516,20.139,40.915,30.332,61.324,16.488,32.969,33.526,67.065,49.089,101C671.155,450.45,699.21,527,672.661,583.113c-15.441,32.631-37.954,49.938-68.82,52.914-76.931,7.368-189.487-79.534-246.323-139.789-6.053-6.424-11.908-13.064-17.774-19.694l-4.446-5.036c-3.656-4.145-9.592-5.306-14.035-2.75s-6.046,8.053-3.811,13.014c25.939,57.457,51.017,118.774,48.122,180.892-1.553,33.3-14.965,56.842-38.782,68.094-27.791,13.112-66.17,7.682-102.7-14.51C149.811,671.1,87.69,596.3,31.615,522.188c-17.724-23.418-8.287-42.694,6.45-52.923,19.959-13.854,52.1-14.171,72.37,12.476a887.432,887.432,0,0,0,82.039,93.287c3.984,3.956,10.1,4.664,14.28,1.658,4.205-3.006,5.251-8.806,2.436-13.6q-6.662-11.393-13.44-22.726c-30.158-50.394-59.23-99.852-83.485-150.81l-5.39-11.31C61.416,283-.838,152.563,44.711,60.214c22.126-44.876,79.165-46.836,124.069-25.634,56.04,26.469,98.442,78.249,139.44,128.307Q316.178,172.6,324,182.065c35.03,42.129,67.874,86.912,99.65,130.225Q440.789,335.661,458.085,359l3.286,4.4c17.418,23.394,35.427,47.585,55.585,69.74l1.027,1.084A13.137,13.137,0,0,0,526.668,438.2Zm212.879-60.4.109,0Z" transform="translate(0 0)"/>
              </g>
              <path id="Path_143621" data-name="Path 143621" d="M52.784,265.826C9.062,184.616-17.757,90.5,13.685,6.661,18.34-5.727,39.676.719,34.964,13.3,5.435,92.014,30,179.446,71.12,255.831,77.9,268.433,59.594,278.484,52.784,265.826Z" transform="translate(46.903 73.367)"/>
              <path id="Path_143622" data-name="Path 143622" d="M31.379,21.052c-.184.013-.356.059-.529.084-.279.577-.534,1.186-.625,1.354l-.041.063c-.018.085.012.033-.015.16-1.191,4.723-1.987,9.539-2.826,14.363q-2.95,16.815-5.879,33.631c-.953,5.44-7.62,8.851-13.081,6.9a12.051,12.051,0,0,1-8.2-13.532l6.65-38.031C8.69,15.479,11.78,1.663,24.654.1,30.215-.565,36.729,2.078,38.4,8.191,39.826,13.426,37.34,20.33,31.379,21.052Z" transform="translate(91.26 93.14)"/>
              <path id="Path_143623" data-name="Path 143623" d="M43,257.758c-12.079,5.956-23.938-13.049-11.827-19.014,16.708-8.237,21.1-26.311,20.979-44.252-.13-20.383-3.4-41.483-7.672-61.738A437.929,437.929,0,0,0,1.483,15.833C-5.3,3.23,13.01-6.82,19.821,5.837c23.5,43.708,39.98,89.965,48.391,137.6C75.077,182.344,83.693,237.709,43,257.758Z" transform="translate(579.987 335.285)"/>
            </g>
          </g>
        </g>
        <g id="Group_175740" data-name="Group 175740" transform="translate(111.454 1737) rotate(-130)">
          <g id="Group_162315-2" data-name="Group 162315" transform="translate(13.78 0)" style="mix-blend-mode: overlay;isolation: isolate">
            <path id="Path_143614-2" data-name="Path 143614" d="M406.4,204.706c-30.615-30.8-62.16-60.559-94.261-89.841,14.669,30.276,30.357,60.124,44.366,90.681,15.878,34.642,34.645,81.734,18.143,116.608-37.6,79.491-145.441-4.892-185.645-47.512-4.281-4.543-8.389-9.271-12.542-13.946,15.191,33.656,29.055,68.16,27.4,103.725-2.281,48.9-47.474,58.662-87.857,34.11C72.639,372.175,36.79,328.3,6.721,288.554-18.82,254.8,34.875,226.106,60.207,259.385A486.76,486.76,0,0,0,105.339,310.7q-3.7-6.319-7.465-12.617C81.261,270.319,64.831,242.457,51,213.4c-26.473-55.64-65.4-132.772-37.739-188.849C27.205-3.715,62.8-5.077,90.224,7.882,127.09,25.3,153.7,61.343,179.166,91.975c26.584,31.984,50.251,65.744,75.023,98.986,10.349,13.891,20.7,27.973,32.418,40.843.268.3.548.574.815.866l-.318-.88c-7.045-19.235-15.825-37.781-24.71-56.38-16.526-34.6-37.485-71.185-44.636-108.356-6.321-32.87,5.469-68.878,45.472-64.748,37.607,3.881,69.259,40.772,95.4,65.627,31.652,30.1,62.788,60.754,93.929,91.374C485.073,191.277,438.563,237.049,406.4,204.706Z" transform="translate(6.154 6.048)" fill="#3c384f"/>
            <path id="Path_143615-2" data-name="Path 143615" d="M265.542,2.1c-14.719-.649-26.986,3.887-35.638,13.23-12.027,12.988-16.5,34.808-11.966,58.371,5.909,30.719,20.741,60.548,35.079,89.387,3.434,6.908,6.836,13.748,10.063,20.509,3.06,6.413,6.281,13.15,9.487,20.113q-2.827-3.772-5.6-7.5l-1.834-2.464q-9.655-12.952-19.149-25.969c-17.843-24.323-36.294-49.478-56.1-73.3-2.893-3.479-5.8-7.03-8.74-10.618C158.419,56.11,132.659,24.658,98.6,8.569,68.239-5.763,29.4-3.838,13.9,27.6c-27.852,56.469,8.35,132.31,34.787,187.686l3,6.3c7.778,16.358,16.4,32.371,25.491,48.333q-3.086-3.872-6.065-7.794C55.455,241.548,29.6,240.707,13.651,251.783.457,260.943-6.378,278.753,8.108,297.9c32.1,42.424,67.79,85.322,111.2,111.7,24.09,14.64,49.889,17.982,69.028,8.94,16.852-7.96,26.712-24.746,27.76-47.274,1.231-26.42-5.725-52.066-15.243-76.661,32.566,31.405,92.214,76.538,138.248,72.129,21.146-2.036,37.047-14.022,47.262-35.62,16.806-35.518.237-81.39-18.19-121.574-8.77-19.132-18.328-38.25-27.572-56.746l-3.272-6.542c26.13,24.27,49.543,46.837,71.071,68.491v-.006c10.644,10.714,23.751,15.055,36.871,12.247a39.35,39.35,0,0,0,29.638-28.925c3.044-13.037-1.248-26.093-12.1-36.757l-3.541-3.478C429.786,128.836,399.3,98.854,368.8,69.858c-3.759-3.577-7.625-7.4-11.612-11.336C333.47,35.1,303.954,5.954,269.481,2.4,268.152,2.255,266.837,2.161,265.542,2.1Zm28.267,242.342a5.468,5.468,0,0,0,2.908-.642,5.349,5.349,0,0,0,2.565-6.667l-.325-.886c-7.384-20.17-16.712-39.7-24.941-56.934-3.261-6.828-6.7-13.73-10.156-20.692-13.952-28.069-28.383-57.092-33.968-86.124-3.79-19.712-.214-38.365,9.33-48.672,7.079-7.644,17.18-10.8,30.059-9.516C299.127,17.4,325.6,43.533,348.958,66.6c4.05,4,7.98,7.879,11.8,11.512,30.415,28.921,60.864,58.859,90.311,87.815L454.6,169.4c9.6,9.431,9.878,18.8,8.432,25.007a28.738,28.738,0,0,1-21.341,20.856c-6.22,1.339-15.589.937-24.968-8.5v-.006c-27.812-27.97-58.725-57.433-94.514-90.067a6.25,6.25,0,0,0-7.675-.793,5.605,5.605,0,0,0-1.692,7.195c5.543,11.445,11.235,22.825,16.927,34.2,9.192,18.4,18.7,37.419,27.379,56.349,17.263,37.642,32.908,80.343,18.1,111.642-8.607,18.21-21.166,27.865-38.391,29.518-42.916,4.116-105.7-44.362-137.406-77.982-3.382-3.578-6.649-7.282-9.922-10.987l-2.474-2.8a6.364,6.364,0,0,0-7.836-1.534,5.563,5.563,0,0,0-2.12,7.254c14.464,32.059,28.454,66.258,26.839,100.917-.867,18.569-8.349,31.7-21.635,37.981-15.5,7.321-36.913,4.292-57.291-8.088-41.431-25.19-76.092-66.914-107.373-108.256-9.881-13.064-4.623-23.823,3.6-29.53,11.134-7.722,29.063-7.9,40.372,6.966a496.292,496.292,0,0,0,45.765,52.041,6.268,6.268,0,0,0,7.972.925,5.677,5.677,0,0,0,1.359-7.592q-3.716-6.346-7.5-12.672c-16.818-28.112-33.041-55.7-46.566-84.13L59.627,211C34.261,157.875-.467,85.109,24.942,33.586,37.285,8.558,69.1,7.465,94.155,19.292c31.262,14.766,54.916,43.645,77.787,71.577,2.959,3.607,5.892,7.189,8.81,10.693,19.536,23.507,37.858,48.49,55.584,72.652q9.559,13.038,19.207,26.049l1.833,2.458c9.717,13.05,19.763,26.54,31.015,38.905l.567.6A7.335,7.335,0,0,0,293.809,244.446Zm118.755-33.691.055,0Z" transform="translate(0 0)" fill="#3c384f"/>
            <path id="Path_143616-2" data-name="Path 143616" d="M29.442,148.295C5.058,102.991-9.909,50.481,7.637,3.719,10.227-3.2,22.13.4,19.5,7.42c-16.467,43.907-2.764,92.688,20.17,135.3C43.457,149.743,33.242,155.355,29.442,148.295Z" transform="translate(26.168 40.927)" fill="#3c384f"/>
            <path id="Path_143617-2" data-name="Path 143617" d="M17.5,11.746c-.1.007-.2.033-.3.047-.156.316-.292.662-.342.755l-.029.035c-.01.047.007.012-.008.083-.664,2.641-1.1,5.321-1.576,8.019q-1.637,9.381-3.279,18.761c-.531,3.035-4.251,4.938-7.291,3.848A6.725,6.725,0,0,1,.1,35.744Q1.958,25.136,3.819,14.523C4.848,8.637,6.571.929,13.753.057c3.1-.377,6.736,1.1,7.666,4.514C22.217,7.491,20.836,11.343,17.5,11.746Z" transform="translate(50.91 51.959)" fill="#3c384f"/>
            <path id="Path_143618-2" data-name="Path 143618" d="M23.984,143.791c-6.738,3.323-13.348-7.279-6.6-10.607,9.321-4.595,11.775-14.677,11.7-24.692-.073-11.371-1.9-23.135-4.279-34.435A244.3,244.3,0,0,0,.826,8.832C-2.954,1.8,7.256-3.8,11.055,3.256A256.038,256.038,0,0,1,38.05,80.018C41.88,101.715,46.686,132.6,23.984,143.791Z" transform="translate(323.549 187.041)" fill="#3c384f"/>
          </g>
          <g id="Group_162318-2" data-name="Group 162318" transform="translate(0 13.557)">
            <g id="Group_162317-2" data-name="Group 162317" transform="translate(0 0)">
              <g id="Group_162316-2" data-name="Group 162316">
                <path id="Path_143619-2" data-name="Path 143619" d="M406.41,204.706c-30.615-30.8-62.16-60.559-94.266-89.835,14.669,30.269,30.363,60.124,44.371,90.675,15.879,34.642,34.639,81.734,18.143,116.608-37.6,79.491-145.441-4.886-185.645-47.512-4.287-4.538-8.388-9.264-12.542-13.946,15.185,33.655,29.049,68.16,27.4,103.725-2.281,48.9-47.474,58.662-87.857,34.116C72.639,372.175,36.8,328.3,6.721,288.554c-25.541-33.754,28.16-62.447,53.492-29.169A487.384,487.384,0,0,0,105.339,310.7q-3.7-6.319-7.459-12.622C81.266,270.319,64.836,242.457,51.01,213.4,24.531,157.756-14.386,80.63,13.271,24.546,27.211-3.714,62.8-5.078,90.229,7.882,127.1,25.3,153.7,61.343,179.172,91.975c26.584,31.984,50.245,65.744,75.017,98.986,10.355,13.891,20.707,27.973,32.418,40.849.268.293.553.568.822.867l-.319-.886c-7.045-19.235-15.831-37.782-24.71-56.38-16.532-34.6-37.485-71.179-44.636-108.356-6.327-32.87,5.469-68.878,45.472-64.748,37.6,3.881,69.253,40.771,95.39,65.627,31.658,30.105,62.794,60.76,93.935,91.38C485.072,191.277,438.562,237.049,406.41,204.706Z" transform="translate(6.149 6.047)" fill="#6b8dfc"/>
                <path id="Path_143620-2" data-name="Path 143620" d="M265.536,2.108c-14.719-.649-26.98,3.881-35.633,13.224-12.027,12.988-16.5,34.808-11.965,58.377,5.9,30.713,20.734,60.542,35.079,89.387,3.428,6.907,6.829,13.742,10.063,20.5,3.06,6.413,6.281,13.15,9.487,20.113-1.884-2.508-3.75-5.016-5.6-7.5l-1.833-2.458c-6.436-8.635-12.8-17.308-19.155-25.969-17.837-24.328-36.288-49.484-56.093-73.3q-4.339-5.227-8.741-10.624C158.419,56.114,132.659,24.662,98.6,8.567,68.233-5.765,29.4-3.834,13.9,27.6c-27.852,56.463,8.349,132.3,34.78,187.685l3.006,6.291c7.778,16.358,16.4,32.371,25.484,48.332q-3.077-3.872-6.065-7.788C55.455,241.547,29.6,240.705,13.651,251.781.457,260.942-6.378,278.752,8.108,297.9c32.1,42.424,67.79,85.322,111.193,111.71,24.1,14.635,49.888,17.977,69.034,8.935,16.852-7.96,26.707-24.741,27.76-47.268,1.231-26.42-5.725-52.072-15.249-76.661,32.571,31.4,92.214,76.532,138.247,72.123,21.146-2.036,37.053-14.022,47.269-35.619,16.8-35.518.231-81.384-18.19-121.574-8.77-19.126-18.328-38.25-27.572-56.74l-3.272-6.542c26.129,24.264,49.543,46.831,71.071,68.485h0c10.644,10.714,23.75,15.049,36.871,12.241A39.333,39.333,0,0,0,474.9,198.061c3.05-13.037-1.242-26.087-12.09-36.75l-3.542-3.483C429.786,128.834,399.3,98.858,368.8,69.856c-3.759-3.577-7.625-7.4-11.618-11.336C333.47,35.1,303.954,5.953,269.481,2.4,268.146,2.259,266.837,2.165,265.536,2.108ZM293.8,244.45a5.458,5.458,0,0,0,2.908-.648,5.343,5.343,0,0,0,2.571-6.666l-.325-.886c-7.384-20.164-16.712-39.7-24.941-56.934-3.261-6.822-6.7-13.724-10.156-20.692C249.9,130.553,235.471,101.53,229.886,72.5c-3.79-19.712-.214-38.365,9.336-48.678,7.073-7.639,17.18-10.8,30.059-9.516C299.127,17.394,325.6,43.531,348.952,66.6c4.051,4,7.987,7.885,11.8,11.512,30.415,28.921,60.864,58.859,90.311,87.815l3.536,3.483c9.591,9.425,9.877,18.8,8.426,25.006a28.72,28.72,0,0,1-21.341,20.85c-6.214,1.339-15.583.937-24.962-8.5h0c-27.812-27.97-58.725-57.433-94.514-90.073a6.251,6.251,0,0,0-7.675-.792,5.6,5.6,0,0,0-1.692,7.2c5.543,11.445,11.235,22.825,16.921,34.21,9.2,18.392,18.7,37.412,27.385,56.343,17.257,37.641,32.908,80.343,18.1,111.648-8.614,18.2-21.173,27.858-38.391,29.518-42.916,4.11-105.706-44.368-137.412-77.982-3.377-3.584-6.643-7.288-9.915-10.986l-2.48-2.809a6.355,6.355,0,0,0-7.83-1.534,5.569,5.569,0,0,0-2.126,7.26c14.47,32.053,28.46,66.259,26.845,100.911-.867,18.575-8.348,31.709-21.635,37.987-15.5,7.315-36.913,4.286-57.291-8.094C83.573,374.376,48.918,332.646,17.637,291.3c-9.887-13.064-4.623-23.817,3.6-29.523,11.134-7.729,29.063-7.905,40.372,6.96a495.057,495.057,0,0,0,45.765,52.04,6.26,6.26,0,0,0,7.966.925,5.665,5.665,0,0,0,1.359-7.586q-3.716-6.355-7.5-12.678c-16.824-28.112-33.041-55.7-46.572-84.13L59.62,211C34.261,157.873-.467,85.108,24.942,33.59,37.285,8.556,69.1,7.463,94.155,19.29c31.262,14.766,54.916,43.651,77.787,71.577q4.439,5.42,8.8,10.7c19.542,23.5,37.864,48.484,55.59,72.646q9.559,13.038,19.207,26.055l1.833,2.452c9.717,13.05,19.763,26.546,31.008,38.9l.573.6A7.329,7.329,0,0,0,293.8,244.45Zm118.755-33.7.061,0Z" transform="translate(0 0)"/>
              </g>
              <path id="Path_143621-2" data-name="Path 143621" d="M29.445,148.292C5.055,102.988-9.906,50.485,7.634,3.716c2.6-6.91,14.5-3.315,11.871,3.7-16.473,43.913-2.77,92.688,20.17,135.3C43.455,149.746,33.245,155.353,29.445,148.292Z" transform="translate(26.165 40.928)"/>
              <path id="Path_143622-2" data-name="Path 143622" d="M17.5,11.744c-.1.007-.2.033-.3.047-.155.322-.3.662-.348.755l-.023.035c-.01.047.007.018-.008.089-.665,2.635-1.109,5.321-1.577,8.013q-1.646,9.38-3.279,18.761c-.532,3.035-4.251,4.938-7.3,3.848A6.723,6.723,0,0,1,.1,35.743l3.71-21.215C4.848,8.635,6.571.928,13.753.056c3.1-.371,6.736,1.1,7.666,4.513C22.217,7.49,20.83,11.341,17.5,11.744Z" transform="translate(50.91 51.958)"/>
              <path id="Path_143623-2" data-name="Path 143623" d="M23.986,143.791c-6.738,3.323-13.354-7.279-6.6-10.607,9.321-4.595,11.769-14.677,11.7-24.686-.073-11.371-1.9-23.141-4.28-34.441A244.3,244.3,0,0,0,.828,8.832C-2.958,1.8,7.258-3.8,11.057,3.256A256.3,256.3,0,0,1,38.052,80.017C41.882,101.721,46.688,132.607,23.986,143.791Z" transform="translate(323.547 187.04)"/>
            </g>
          </g>
        </g>
      </g>
    </g>
    <g id="Group_175738" data-name="Group 175738" transform="translate(0 1402.797)">
      <path id="Path_184292" data-name="Path 184292" d="M1323.944,11.445V609.823H-4.548V12.095Z" transform="translate(140.056 1488.333)" fill="#6b8dfc"/>
      <path id="Path_185926" data-name="Path 185926" d="M0,0H1328V123.013c0,200.292-178.191,362.661-398,362.661H398c-219.809,0-398-162.369-398-362.661Z" transform="translate(136 1451.203)" fill="#f0f4ff"/>
    </g>
  </g>
</svg>
