<svg xmlns="http://www.w3.org/2000/svg" width="98.711" height="99.645" viewBox="0 0 98.711 99.645">
  <g id="a1" transform="translate(-653.581 -628.873) rotate(-11)">
    <path id="Path_117323" data-name="Path 117323" d="M591.991,765.728c-17.174-11.6-42.038-10.357-58.121,2.562a41.352,41.352,0,0,0-6.161,6.313c-7.835,10.438-12.332,22.813-6.6,35.328,3.8,8.308,11.792,13.558,20.147,16.49a45.424,45.424,0,0,0,18.069,2.511c1.146,6.155,5.32,10.309,10.587,13.316.934.533,3.912,2.142,2.546-2.632-1.287-4.5-.6-9.288.749-13.871a47.941,47.941,0,0,0,19.051-14.11C603.14,798.393,608.592,776.938,591.991,765.728Z"/>
    <g id="Group_83561" data-name="Group 83561" transform="translate(542.738 762.378)">
      <path id="Path_117328" data-name="Path 117328" d="M645.665,788.188c12.243-5.33,27.472-5.757,40.22-2.131.217.062.326-.262.134-.364-11.444-6.09-29.568-4.283-40.476,2.235-.139.082-.031.326.122.26Z" transform="translate(-645.479 -781.963)" fill="#fff"/>
    </g>
    <g id="Group_83562" data-name="Group 83562" transform="translate(584.732 766.83)">
      <path id="Path_117329" data-name="Path 117329" d="M865.641,805.514a2.132,2.132,0,0,0,1.228.943,7.172,7.172,0,0,0,2.23.859.182.182,0,0,0,.19-.271,2.627,2.627,0,0,0-1.556-1.162,4.368,4.368,0,0,0-1.953-.569c-.088.01-.181.1-.138.2Z" transform="translate(-865.631 -805.305)" fill="#fff"/>
    </g>
    <g id="Group_83563" data-name="Group 83563" transform="translate(530.22 815.313)">
      <path id="Path_117330" data-name="Path 117330" d="M579.879,1059.618c5.73,7.262,18.518,11.156,27.418,9.026a.257.257,0,0,0-.023-.492c-10.017-1.29-18.8-2.613-27.24-8.664-.086-.062-.234.03-.156.13Z" transform="translate(-579.857 -1059.469)" fill="#fff"/>
    </g>
    <path id="Path_188776" data-name="Path 188776" d="M-15.9-17.415q0-.216.008-.722t.033-1.17q.025-.664.066-1.4t.108-1.411q.066-.672.149-1.2a3.474,3.474,0,0,1,.183-.755,1.771,1.771,0,0,1,.706-.764,1.749,1.749,0,0,1,.888-.282,1.088,1.088,0,0,1,.631.208,2.519,2.519,0,0,1,.589.614,7.5,7.5,0,0,1,.6,1.029q.307.623.672,1.469.116.266.382,1.079t.647,1.967q.382,1.154.83,2.548T-8.5-13.4q.465,1.411.921,2.739T-6.732-8.3q.39,1.029.689,1.652t.448.623q.083,0,.116-.623t.05-1.652q.017-1.029.017-2.349t-.017-2.723q-.017-1.4-.033-2.764t-.025-2.474Q-5.5-19.723-5.5-20.478T-5.5-21.4q.017-.249.058-.623a7.966,7.966,0,0,1,.133-.8,7.354,7.354,0,0,1,.241-.855,3.063,3.063,0,0,1,.39-.772,1.978,1.978,0,0,1,.6-.556,1.589,1.589,0,0,1,.838-.216,1.524,1.524,0,0,1,.88.249,1.767,1.767,0,0,1,.581.672,3.2,3.2,0,0,1,.3,1,6.509,6.509,0,0,1,.05,1.245q-.066,1.029-.1,2.357t-.05,2.822q-.017,1.494-.033,3.113t-.05,3.221q-.033,1.6-.075,3.146T-1.859-4.5q-.083,1.345-.2,2.44a15.377,15.377,0,0,1-.282,1.81,1.057,1.057,0,0,1-.274.5A2.084,2.084,0,0,1-3.1.623a2.551,2.551,0,0,1-.6.241,2.409,2.409,0,0,1-.614.083A2.266,2.266,0,0,1-5.894.232,8.666,8.666,0,0,1-7.313-1.61,20.116,20.116,0,0,1-8.575-4.15q-.589-1.411-1.087-2.814t-.9-2.648q-.407-1.245-.706-2.042-.017-.05-.083-.241a3.294,3.294,0,0,0-.166-.39,2.05,2.05,0,0,0-.232-.365.369.369,0,0,0-.282-.166q-.116,0-.2.573t-.125,1.511q-.042.938-.058,2.158t-.017,2.515q0,1.295.008,2.573t.008,2.341q0,.266-.025.531a1.348,1.348,0,0,1-.133.481.869.869,0,0,1-.315.349,1.057,1.057,0,0,1-.573.133,3.782,3.782,0,0,1-1.4-.241,1.99,1.99,0,0,1-.988-.9,3.362,3.362,0,0,1-.116-.838q-.05-.706-.066-1.793t-.008-2.449q.008-1.361.017-2.8T-16-11.53q.025-1.419.042-2.606t.033-2.059Q-15.9-17.066-15.9-17.415Zm21.4,2.64a4.083,4.083,0,0,1,2.283.656,5.915,5.915,0,0,1,1.71,1.727,8.483,8.483,0,0,1,1.079,2.416,10.188,10.188,0,0,1,.374,2.739,8.428,8.428,0,0,1-.531,3.055,7.638,7.638,0,0,1-1.4,2.357A6.268,6.268,0,0,1,7-.307a5.386,5.386,0,0,1-2.333.54A3.842,3.842,0,0,1,2.523-.34,4.5,4.5,0,0,1,1.1-1.81a6.558,6.558,0,0,1-.78-2A10.151,10.151,0,0,1,.083-5.977,11.36,11.36,0,0,1,.274-8.019a12.719,12.719,0,0,1,.54-2.017,11.765,11.765,0,0,1,.838-1.834,7.909,7.909,0,0,1,1.1-1.511,5.069,5.069,0,0,1,1.3-1.021A3.021,3.021,0,0,1,5.5-14.775Zm.282,3.154a1.138,1.138,0,0,0-.822.523,5.548,5.548,0,0,0-.772,1.361,10.763,10.763,0,0,0-.573,1.893,10.152,10.152,0,0,0-.224,2.117q0,.166.017.647a4.962,4.962,0,0,0,.141,1,2.549,2.549,0,0,0,.415.913.957.957,0,0,0,.822.4A1.623,1.623,0,0,0,5.827-3.2a4.334,4.334,0,0,0,.921-1.112A6.517,6.517,0,0,0,7.4-5.86a6.2,6.2,0,0,0,.249-1.727q0-.282-.017-.7a8.107,8.107,0,0,0-.083-.863,7.055,7.055,0,0,0-.191-.888,3.444,3.444,0,0,0-.332-.8,1.78,1.78,0,0,0-.515-.573A1.252,1.252,0,0,0,5.777-11.621ZM16.3-19.474q-.017.2-.033.324a.413.413,0,0,0,.017.208.2.2,0,0,0,.133.116,1.084,1.084,0,0,0,.315.033h.174a1.857,1.857,0,0,0,.224-.017q.564-.033,1.1-.058t1.1-.025q.6,0,1.4.033a9.947,9.947,0,0,1,1.519.174,4.042,4.042,0,0,1,1.212.423.865.865,0,0,1,.5.78,1.023,1.023,0,0,1-.224.639,1.737,1.737,0,0,1-.706.5,5.171,5.171,0,0,1-1.253.324,12.654,12.654,0,0,1-1.851.116q-.365,0-.78.033l-.822.066q-.407.033-.8.075t-.689.058a.68.68,0,0,0-.531.274,1.332,1.332,0,0,0-.2.656q-.116,1.81-.174,3.586t-.042,3.4q.017,1.627.125,3.046a23.892,23.892,0,0,0,.307,2.5q.149.714.324,1.278a9.544,9.544,0,0,1,.257,1A1.487,1.487,0,0,1,16.9.805a.96.96,0,0,1-.5.523,1.443,1.443,0,0,1-.647.166,1.417,1.417,0,0,1-.822-.257,3.29,3.29,0,0,1-.664-.606,4.6,4.6,0,0,1-.481-.689Q13.6-.4,13.53-.548a7,7,0,0,1-.44-1.619q-.174-1.021-.274-2.283t-.141-2.656q-.042-1.395-.042-2.748t.033-2.557q.033-1.2.083-2.05a2.484,2.484,0,0,0,.017-.465q-.017-.083-.365-.083H12a2.306,2.306,0,0,1-1.345-.349,1.015,1.015,0,0,1-.5-.847.865.865,0,0,1,.166-.515,1.933,1.933,0,0,1,.457-.44,4.325,4.325,0,0,1,.681-.39q.39-.183.838-.365a1.417,1.417,0,0,0,.481-.307.987.987,0,0,0,.2-.606q.033-.631.1-1.336t.158-1.386q.091-.681.224-1.295a9.141,9.141,0,0,1,.3-1.087,2.6,2.6,0,0,1,.382-.747.6.6,0,0,1,.465-.274,1.794,1.794,0,0,1,.5.083,2.052,2.052,0,0,1,.548.257,1.688,1.688,0,0,1,.465.465,1.535,1.535,0,0,1,.249.689q.017.133.025.548t.008.971q0,.556-.025,1.2T16.3-19.474Z" transform="translate(556.781 806.781)" fill="#fff"/>
  </g>
</svg>
