<svg xmlns="http://www.w3.org/2000/svg" xmlns:xlink="http://www.w3.org/1999/xlink" width="119.381" height="133.709" viewBox="0 0 119.381 133.709">
  <defs>
    <clipPath id="clip-path">
      <rect id="Rectangle_47348" data-name="Rectangle 47348" width="80.412" height="110.035" fill="none"/>
    </clipPath>
  </defs>
  <g id="a2" transform="translate(0 33.983) rotate(-25)">
    <g id="Group_176324" data-name="Group 176324" clip-path="url(#clip-path)">
      <path id="Path_188861" data-name="Path 188861" d="M63.547,103.257a7.4,7.4,0,0,0,0,3.881,1.608,1.608,0,0,1-.144,1.334c-.535,1.012-1.2,1.968-.1,3.128a1.488,1.488,0,0,1-.286,2,5.119,5.119,0,0,0-1.445,3.312c-.335,1.77-1.705,2.548-3.294,3.056-.647.207-1.322.283-1.4,1.323-.156,2.05-1.616,2.922-3.489,3.111a3.661,3.661,0,0,1-4.146-2.338,2.839,2.839,0,0,0-2.15-1.89c-2.476-.739-3.177-2.385-2.171-4.642.14-.313.378-.526.056-.829-2.354-2.224-1.653-5.158-1.581-7.811.116-4.225.367-8.42-.4-12.622-.815-4.481-3.2-8.056-6.275-11.215A37.44,37.44,0,0,1,26.4,64.078a30.983,30.983,0,0,1,28.85-37.285c14.3-.7,27.646,11.113,28.632,25.346q.11,1.58.22,3.159a2.149,2.149,0,0,0-.171.549C83.6,66.134,80.106,74.6,70.349,79.47a10,10,0,0,0-.97.675A11.523,11.523,0,0,0,64.4,88.111a75.24,75.24,0,0,0-.85,15.146M36.576,78.63l-.043-.053c-.231.378.174.455.312.659,5.012,4.954,8.9,10.5,9.346,17.841a13.292,13.292,0,0,0,.188,3.547q-.01,1.147-.018,2.294c-.048,1.246-.726,2.532.239,3.712,3.711-.009,3.16.408,2.92-2.949A111.5,111.5,0,0,0,42.669,72.1a2.726,2.726,0,0,0-2.777-2.144c-.645-.018-1.742.218-1.638-.865.088-.921,1.073-.487,1.65-.464a106.275,106.275,0,0,0,20.532-1.212,17.085,17.085,0,0,0,5.676-1.626c.6-.328,1.56-.812.612-1.585-1.051-.856-2.352-1.742-3.773-1.212C58.363,64.7,53.58,65.137,48.767,65.4a28.469,28.469,0,0,1-9.435-.766c-1.391-.4-2.892-.939-2.9-2.776s1.436-2.342,2.862-2.788a25.433,25.433,0,0,1,9.21-.9,102.063,102.063,0,0,1,13.313,1.9c1.763.342,3.874-1.315,3.436-2.692-.48-1.508-3.538-3.276-5.123-2.924A66.181,66.181,0,0,1,41.8,55.64a6.852,6.852,0,0,1-4.047-1.4,2.14,2.14,0,0,1,.12-3.654,9.487,9.487,0,0,1,3.664-1.424c6.352-1.218,12.485-.06,18.5,1.868,1.781.57,2.779-.255,3.742-1.367a2.8,2.8,0,0,0,.319-3.479c-.844-1.455-2.012-1.458-3.528-1.162-5.8,1.133-11.637,1.841-17.509.337-1.7-.436-2.955-1.248-2.94-3.168.015-1.876,1.323-2.693,2.939-2.909,5.934-.792,11.938-1.217,17.506,1.408,2.436,1.148,4.238.65,6.242-.458a15.5,15.5,0,0,0,1.329-.857c.826-.573,1.735-.97,2.4.072.638,1.006-.04,1.758-.886,2.276a20.269,20.269,0,0,1-2.777,1.5c-.875.364-1.256.553-.616,1.616a5.071,5.071,0,0,1-.847,6.827c-1.026,1-.98,1.412.15,2.278,2.32,1.778,2.965,3.972,1.624,5.793-.963,1.308-.55,1.664.591,2.392,2.255,1.438,2.157,3.806-.085,5.286a9.462,9.462,0,0,1-3.289,1.308,1.878,1.878,0,0,0-1.6,1.5,123.818,123.818,0,0,0-4.76,34.588c.012,1.531.74,1.52,1.823,1.48,1.175-.043,1.95-.116,1.829-1.759-.223-3.024-.106-6.072-.148-9.11-.123-8.8,2.478-16.059,10.992-20.245a13.416,13.416,0,0,0,5.819-6.321A29.6,29.6,0,0,0,81.32,51.74c-1.026-8.452-5.476-14.67-12.873-18.818a22.663,22.663,0,0,0-16.1-3.2C37.53,32.259,27.578,44.64,28.395,59.656c.359,6.6,2.4,12.732,6.99,17.764l-.013-.015c.119.418.23.845.8.829l-.025-.041c-.066.353.069.507.432.437m24.007,33.377a51.5,51.5,0,0,1-14.047.361c1.807,1.985,10.153,1.95,14.439.1.086-.143.28-.357.24-.416-.163-.243-.41-.156-.633-.043m.524-42.5c-.72.039-1.31.03-1.888.109A86.574,86.574,0,0,1,46.6,70.4c-2.43-.027-2.464-.009-1.6,2.363a106.076,106.076,0,0,1,6.514,32c.063,1.491.721,1.791,2,1.621,1.127-.15,2.527.435,2.427-1.728a83.8,83.8,0,0,1,.634-13.421,113.377,113.377,0,0,1,4.536-21.728M39.134,61.892c6.187,1.925,12.323,1.145,18.453-.078-6.162-1.055-12.323-2.5-18.453.078m20.079,53.65c-4.028.481-8.049,1.341-12.112.388-.4-.094-.6.2-.743.5a.849.849,0,0,0,.2.909,2.539,2.539,0,0,0,1.543.813,17.26,17.26,0,0,0,9.357-.46c.95-.3,1.883-.743,1.751-2.149m-19.161-63c4.961,1.157,9.941.8,14.923.028-4.949-1.449-9.909-2.1-14.923-.028M57.141,42.531a24.024,24.024,0,0,0-14.162-.191,30.359,30.359,0,0,0,14.162.191m3.64,65.382c-4.967,1.23-9.99.536-14.854,1.582a1.171,1.171,0,0,0,.716.443,52.8,52.8,0,0,0,12.379-.1c.948-.089,1.431-.8,1.759-1.924" transform="translate(-13.855 -14.397)" fill="#0c0e0e"/>
      <path id="Path_188862" data-name="Path 188862" d="M107.5,136.478a75.24,75.24,0,0,1,.85-15.146,11.527,11.527,0,0,1,4.981-7.966,10.2,10.2,0,0,1,.971-.675c9.757-4.87,13.248-13.335,13.581-23.621a2.161,2.161,0,0,1,.17-.549c.755,4.277-.217,8.372-1.476,12.387a29.63,29.63,0,0,1-11.126,15.209,13.87,13.87,0,0,0-5.895,11.87c-.013,2.969-.192,5.948-2.056,8.492" transform="translate(-57.805 -47.618)" fill="#fff"/>
      <path id="Path_188863" data-name="Path 188863" d="M17.2,42.277a17.16,17.16,0,0,1-6.562-2.719c-.54-.382-1.074-.846-.7-1.627.334-.7,1.023-.611,1.557-.455q3.3.959,6.556,2.063a1.355,1.355,0,0,1,.919,1.733c-.2.869-.832,1.1-1.768,1.006" transform="translate(-5.277 -20.101)" fill="#0c0e0e"/>
      <path id="Path_188864" data-name="Path 188864" d="M69.083,11.386c-.091.7-.128,1.365-.93,1.617a1.361,1.361,0,0,1-1.806-.772,17.581,17.581,0,0,1-1.3-6.522.8.8,0,0,1,.633-.88.939.939,0,0,1,1.157.506,39.527,39.527,0,0,1,2.241,6.051" transform="translate(-34.993 -2.578)" fill="#0c0e0e"/>
      <path id="Path_188865" data-name="Path 188865" d="M92.894,3.862a4.947,4.947,0,0,0,.124,2.548c.393.828.518,1.577-.49,1.928a1.814,1.814,0,0,1-2.335-.965,4.48,4.48,0,0,1-.23-2.9c.195-1.164.37-2.336.655-3.479.119-.477.4-1.054,1.064-.983.6.065.864.523.921,1.109.089.917.193,1.832.29,2.747" transform="translate(-48.325 0)" fill="#0c0e0e"/>
      <path id="Path_188866" data-name="Path 188866" d="M6.961,70.924c-1.7-.261-3.724-.534-5.73-.9-.541-.1-1.3-.329-1.227-1.061.068-.689.774-.775,1.373-.873a27.96,27.96,0,0,1,6.122.051,1.364,1.364,0,0,1,1.463,1.511c-.06,1.015-.8,1.259-2,1.275" transform="translate(0 -36.54)" fill="#0c0e0e"/>
      <path id="Path_188867" data-name="Path 188867" d="M136.251,15.985a11.241,11.241,0,0,1-2.273,5.812c-.538.664-1.136,1.171-2,.542-.821-.595-.717-1.342-.224-2.081,1.059-1.589,2.15-3.158,3.2-4.75.224-.337.408-.764.861-.667.639.137.436.7.436,1.144" transform="translate(-70.668 -7.976)" fill="#0c0e0e"/>
      <path id="Path_188868" data-name="Path 188868" d="M151.318,46.854c-1.122-.09-2.074.289-2.24-.724-.128-.787.7-1.043,1.305-1.256,1.36-.478,2.729-.939,4.119-1.316a1.178,1.178,0,0,1,1.644.935,1.251,1.251,0,0,1-1.008,1.641c-1.407.305-2.83.536-3.822.72" transform="translate(-80.188 -23.393)" fill="#0c0e0e"/>
      <path id="Path_188869" data-name="Path 188869" d="M162.339,79.41c.725,0,1.451-.012,2.175,0a1.229,1.229,0,0,1,1.346,1.364A1.181,1.181,0,0,1,164.6,82.02a13.866,13.866,0,0,1-5.342-1.262.656.656,0,0,1-.4-.793c.048-.394.359-.517.713-.519.923-.006,1.846,0,2.769,0V79.41" transform="translate(-85.45 -42.715)" fill="#0c0e0e"/>
      <path id="Path_188870" data-name="Path 188870" d="M51.674,101.448C51.229,94.1,47.34,88.56,42.329,83.605c-.1-.219-.208-.439-.313-.659l.043.053-.432-.437.025.041c-.038-.5.012-1.078-.8-.829l.014.016c.336-1.82-1.4-2.679-1.908-4.109a46.272,46.272,0,0,1-2.985-13.928c-.3-8.408,1.826-15.931,8.059-21.867a23.921,23.921,0,0,1,22.336-6.431c2.555.508,4.932,1.683,7.56,1.837,7.4,4.149,11.847,10.365,12.873,18.818a29.6,29.6,0,0,1-2.957,17.118,13.414,13.414,0,0,1-5.819,6.321C69.512,83.733,66.91,90.988,67.033,99.792c.043,3.038-.074,6.086.148,9.11.121,1.642-.654,1.716-1.829,1.759-1.084.039-1.811.05-1.823-1.48a123.821,123.821,0,0,1,4.76-34.588,1.877,1.877,0,0,1,1.6-1.5,9.471,9.471,0,0,0,3.289-1.308c2.241-1.48,2.34-3.847.085-5.286-1.141-.728-1.555-1.084-.591-2.392,1.341-1.821.7-4.015-1.624-5.793-1.13-.866-1.175-1.281-.15-2.278a5.071,5.071,0,0,0,.847-6.827c-.639-1.064-.259-1.253.616-1.616a20.272,20.272,0,0,0,2.777-1.5c.846-.518,1.524-1.27.886-2.276-.661-1.042-1.57-.645-2.4-.072a15.607,15.607,0,0,1-1.329.857c-2,1.108-3.806,1.606-6.242.457-5.567-2.625-11.572-2.2-17.506-1.407-1.616.216-2.924,1.032-2.939,2.908-.016,1.92,1.236,2.732,2.94,3.168,5.872,1.5,11.7.8,17.509-.337,1.516-.3,2.685-.293,3.528,1.163a2.794,2.794,0,0,1-.319,3.479c-.963,1.113-1.961,1.937-3.742,1.367-6.019-1.927-12.152-3.085-18.5-1.867a9.482,9.482,0,0,0-3.664,1.423,2.141,2.141,0,0,0-.12,3.654,6.851,6.851,0,0,0,4.047,1.4,66.185,66.185,0,0,0,18.323-1.178c1.584-.353,4.642,1.416,5.122,2.924.438,1.376-1.674,3.033-3.436,2.692a102.065,102.065,0,0,0-13.313-1.9,25.444,25.444,0,0,0-9.21.9c-1.425.445-2.873.953-2.862,2.788s1.513,2.379,2.9,2.776a28.469,28.469,0,0,0,9.435.766c4.813-.266,9.6-.7,14.182-2.411,1.421-.529,2.722.356,3.773,1.212.948.773-.012,1.257-.612,1.585a17.082,17.082,0,0,1-5.676,1.626A106.346,106.346,0,0,1,45.384,73c-.576-.022-1.561-.457-1.65.464-.1,1.082.993.846,1.638.865a2.726,2.726,0,0,1,2.777,2.144A111.5,111.5,0,0,1,55,108.049c.24,3.358.791,2.941-2.919,2.95q0-1.155,0-2.309c1.19-2.086.258-4.121-.147-6.169q-.133-.536-.267-1.073m-8.96-54.454c-.625.195-.829.683-1.127,1.121-4.065,5.971-4.58,12.643-3.691,19.513a15.821,15.821,0,0,0,2.682,7.745c.422.56.926,1.011,1.668.689.77-.335.725-1.012.536-1.692A21.952,21.952,0,0,0,42.13,72.1a28.946,28.946,0,0,1-1.557-14.372,35.714,35.714,0,0,1,2.442-9.307c.208-.509.493-1.127-.3-1.425" transform="translate(-19.337 -18.767)" fill="#fff"/>
      <path id="Path_188871" data-name="Path 188871" d="M82.911,119.267A113.376,113.376,0,0,0,78.376,141a83.8,83.8,0,0,0-.634,13.421c.1,2.163-1.3,1.578-2.427,1.728-1.278.17-1.936-.131-2-1.621a106.079,106.079,0,0,0-6.514-32c-.865-2.372-.832-2.39,1.6-2.363a86.577,86.577,0,0,0,12.623-.786c.578-.079,1.167-.07,1.887-.109" transform="translate(-35.658 -64.158)" fill="#fff"/>
      <path id="Path_188872" data-name="Path 188872" d="M54.709,101.1c6.131-2.58,12.292-1.133,18.453-.077-6.131,1.223-12.266,2-18.453.077" transform="translate(-29.43 -53.61)" fill="#fff"/>
      <path id="Path_188873" data-name="Path 188873" d="M83.122,218.9c.133,1.406-.8,1.844-1.751,2.149a17.256,17.256,0,0,1-9.357.46,2.539,2.539,0,0,1-1.543-.813.849.849,0,0,1-.2-.909c.145-.3.345-.592.743-.5,4.063.954,8.083.093,12.112-.388" transform="translate(-37.764 -117.755)" fill="#fff"/>
      <path id="Path_188874" data-name="Path 188874" d="M56.7,81.011c5.013-2.076,9.974-1.422,14.923.028-4.982.769-9.961,1.129-14.923-.028" transform="translate(-30.498 -42.868)" fill="#fff"/>
      <path id="Path_188875" data-name="Path 188875" d="M77.193,59.532a30.353,30.353,0,0,1-14.162-.191,24.023,24.023,0,0,1,14.162.191" transform="translate(-33.907 -31.399)" fill="#fff"/>
      <path id="Path_188876" data-name="Path 188876" d="M84.265,202.388c-.329,1.127-.811,1.835-1.759,1.924a52.8,52.8,0,0,1-12.379.1,1.171,1.171,0,0,1-.716-.443c4.864-1.045,9.887-.352,14.854-1.582" transform="translate(-37.339 -108.872)" fill="#fff"/>
      <path id="Path_188877" data-name="Path 188877" d="M85.17,211.707c-4.286,1.851-12.632,1.887-14.439-.1a51.483,51.483,0,0,0,14.047-.361l.392.46" transform="translate(-38.049 -113.638)" fill="#fff"/>
      <path id="Path_188878" data-name="Path 188878" d="M70.449,181.263c.4,2.048,1.337,4.083.148,6.169q-.121-.7-.246-1.4.009-1.147.018-2.293.04-1.235.079-2.473" transform="translate(-37.845 -97.508)" fill="#fff"/>
      <path id="Path_188879" data-name="Path 188879" d="M70.031,191.578q.124.7.246,1.4,0,1.154-.005,2.309c-.968-1.18-.289-2.466-.241-3.712" transform="translate(-37.524 -103.057)" fill="#0c0e0e"/>
      <path id="Path_188880" data-name="Path 188880" d="M70.215,180.013l-.079,2.473a13.3,13.3,0,0,1-.188-3.547l.267,1.074" transform="translate(-37.61 -96.258)" fill="#0c0e0e"/>
      <path id="Path_188881" data-name="Path 188881" d="M46.565,136.29c.812-.25.761.333.8.829-.57.016-.68-.411-.8-.829" transform="translate(-25.049 -73.284)" fill="#fff"/>
      <path id="Path_188882" data-name="Path 188882" d="M49,138.9c.1.22.209.439.312.659-.139-.2-.543-.281-.312-.659" transform="translate(-26.322 -74.719)" fill="#fff"/>
      <path id="Path_188883" data-name="Path 188883" d="M48.222,138.067l.432.437c-.362.07-.5-.084-.432-.437" transform="translate(-25.932 -74.272)" fill="#fff"/>
      <path id="Path_188884" data-name="Path 188884" d="M101.131,211.116c.223-.113.469-.2.633.043.039.059-.154.273-.24.416l-.392-.46" transform="translate(-54.402 -113.507)" fill="#fff"/>
      <path id="Path_188885" data-name="Path 188885" d="M44.553,61.09c.793.3.509.916.3,1.425a35.714,35.714,0,0,0-2.442,9.307,28.946,28.946,0,0,0,1.557,14.372,21.951,21.951,0,0,1,.652,2.272c.189.68.234,1.358-.536,1.692-.742.322-1.246-.129-1.668-.689a15.821,15.821,0,0,1-2.682-7.745c-.889-6.87-.374-13.543,3.691-19.513.3-.438.5-.926,1.127-1.121" transform="translate(-21.175 -32.863)" fill="#0c0e0e"/>
    </g>
  </g>
</svg>
