<svg id="a4" xmlns="http://www.w3.org/2000/svg" xmlns:xlink="http://www.w3.org/1999/xlink" width="61.748" height="64.213" viewBox="0 0 61.748 64.213">
  <defs>
    <clipPath id="clip-path">
      <rect id="Rectangle_45687" data-name="Rectangle 45687" width="61.748" height="64.212" fill="none"/>
    </clipPath>
  </defs>
  <g id="Group_175635" data-name="Group 175635" clip-path="url(#clip-path)">
    <path id="Path_185857" data-name="Path 185857" d="M3.767,44.512c-2.113-3.471-2.082-4.077.489-7,.515-.586.064-.877-.088-1.286-.995-2.682-.624-4.261,1.658-5.865.781-.549.53-.862.268-1.5C4.832,25.807,5.344,23.915,8.172,22c.947-.64.332-1,.127-1.5-.885-2.121-.883-4.147.719-5.938a3.757,3.757,0,0,1,3.694-1.128c1.3.267,1.85-.287,2.029-1.41.566-3.551,2.971-5.167,6.136-6.245C32.1,1.965,43.706.558,55.461.016c1.618-.075,3.118.016,2.81,2.451a12.342,12.342,0,0,0,.494,3.757c.176.895.089,1.838,1.668,1.871,1.4.03,1.469,1.423,1.172,2.649-.965,3.982-1.88,7.976-2.868,11.952C56.062,33.46,53.06,44.133,49.893,54.761a3.377,3.377,0,0,1-2.834,2.656c-12.265,2.827-24.661,4.9-37.107,6.726a5.06,5.06,0,0,1-4.729-1.7c-2.411-2.534-3.034-5.7-2.839-9.013a2.4,2.4,0,0,0-.906-2.31A4,4,0,0,1,.2,46.713c.49-1.7,1.728-2.3,3.566-2.2" transform="translate(0 0)"/>
    <path id="Path_185858" data-name="Path 185858" d="M9.33,55.432c.418-1.794.752-3.3,1.129-4.8.128-.508-.018-1.32.692-1.369a1.622,1.622,0,0,1,1.531.976c.377.848.806,1.543,1.885,1.193a1.519,1.519,0,0,0,.955-1.715c-.071-1.2-.9-1.246-1.947-1.337-1.414-.124-2.613-.733-1.889-2.638.425-1.118.642-2.313.98-3.465.127-.434.076-1.1.8-1.017a1.164,1.164,0,0,1,1.1.855c.2.918.5,1.788,1.652,1.2a2.585,2.585,0,0,0,1.192-2.938c-.191-1-1.192-.689-1.957-.524-1.506.325-2.165-.124-1.576-1.731.218-.6.3-1.248.57-1.816.424-.893.368-3.541,2.051-.612.461.8,1.269.295,1.824-.186.724-.626,1.325-1.342.829-2.382a1.243,1.243,0,0,0-1.754-.67c-.468.179-.851.933-1.461.31-.534-.545.01-1.075.153-1.566.451-1.543.992-3.059,1.589-4.86.566,1.195,1.205,1.966,2.3,1.306a2.053,2.053,0,0,0,.862-2.592c-.421-1.161-1.356-.981-2.547-.474l1.994-6.064c.671.48,1.1,1.281,1.99.817a1.783,1.783,0,0,0,.981-1.738,1.337,1.337,0,0,0-1.285-1.418c-.442-.063-.87-.066-.649-.726.739-2.2,1.265-4.413,3.892-5.406a77.285,77.285,0,0,1,11.8-3.386A129.137,129.137,0,0,1,59.9,3.769c1.661-.04,1.991.285,1.49,1.977Q55.366,26.061,49.553,46.439a2.374,2.374,0,0,1-2.445,2c-12.4,1.3-24.487,4.273-36.657,6.808-.267.056-.538.091-1.121.188" transform="translate(-5.37 -2.167)" fill="#fff"/>
    <path id="Path_185859" data-name="Path 185859" d="M21.646,75.318c-.982-.315-2.584,1.533-2.924-.465-.284-1.669,1.623-.905,2.495-1.27a18.482,18.482,0,0,1,3.478-.756c2.84-1.3,5.961-1.4,8.944-2.093,2.1-.486,4.253-.756,5.663-1.107-4.762.654-10.064,2.3-15.585,2.725-1.453.267-2.9.544-4.36.8-.613.106-1.339.325-1.482-.623-.134-.885.643-.748,1.124-.851,11.3-2.409,22.563-5.085,34.1-6.205a2.547,2.547,0,0,0,2.615-2.124Q60.122,47.9,64.618,32.473c.154-.534.34-1.059.511-1.589.545-.126.585.386.828.639a.513.513,0,0,0,.381.124c.283-.053.562-.211.845-.019a.351.351,0,0,0,.375,0c.392-.056.61.052.47.5L57,71.093c-1.137-1.782-1.423-3.428-2.094-4.972a3.7,3.7,0,0,0,.385,3.212c.99,1.778.2,2.2-1.4,2.581-5.636,1.345-11.325,2.4-17.036,3.35-4.945.819-9.9,1.594-14.849,2.379a5.93,5.93,0,0,1-1.462.11.951.951,0,0,1-.89-.792c-.059-.587.506-.545.886-.643.683-.177,1.371-.339,2.056-.507.938-.9,2.163-.781,3.421-.941-1.536.078-2.932.441-4.365.447" transform="translate(-10.279 -17.764)" fill="#fff"/>
    <path id="Path_185860" data-name="Path 185860" d="M53.134,129.548c-7.953,2.293-16.109,3.609-24.248,4.994-4.456.758-8.927,1.43-13.4,2.1-3.2.48-7.095-3.884-6.378-7.049.146-.642.562-.695,1.05-.827.739-.2,1.034.2,1.242.786.4,1.131.763,2.277,1.212,3.389,1,2.474,1.822,3.077,4.356,2.61,11.939-2.2,24.049-3.5,35.772-6.827.727-.008.732.326.39.824" transform="translate(-5.194 -74.082)" fill="#fff"/>
    <path id="Path_185861" data-name="Path 185861" d="M112.417,92.109c0-.335.006-.675-.39-.824,2.022-5.11,3.136-10.493,4.719-15.734,1.2-3.96,2.295-7.949,3.59-11.886a46.012,46.012,0,0,1-1.866,8.1c-1.762,6.219-3.494,12.447-5.289,18.656-.165.57-.166,1.284-.764,1.685" transform="translate(-64.478 -36.643)" fill="#fff"/>
    <path id="Path_185862" data-name="Path 185862" d="M24.045,41.587c-2.43-1.733-2.944-4.391-1.26-5.915a2.353,2.353,0,0,1,2.9-.478c.913.565.029,1.392-.145,2.036-.394,1.463-.975,2.876-1.5,4.356" transform="translate(-12.547 -20.074)" fill="#fff"/>
    <path id="Path_185863" data-name="Path 185863" d="M18.328,60.981a3.969,3.969,0,0,1-1.754-3.906A2.958,2.958,0,0,1,18.6,54.617a1.574,1.574,0,0,1,1.421-.006c.565.374.127.909,0,1.313-.513,1.66-1.1,3.3-1.7,5.056" transform="translate(-9.513 -31.335)" fill="#fff"/>
    <path id="Path_185864" data-name="Path 185864" d="M31.659,123.645c6.045-1.5,12.179-2.5,18.285-3.662l.163.791L32.638,124.12c-.206-.406-.634-.355-.979-.475" transform="translate(-18.222 -69.057)"/>
    <path id="Path_185865" data-name="Path 185865" d="M13.706,79.216c-1.974-1.885-1.887-4.216.115-5,.388-.152.817-.337,1.184,0,.314.29.1.663.011.985-.252.881-.524,1.756-.805,2.628-.146.455-.326.9-.505,1.384" transform="translate(-7.063 -42.608)" fill="#fff"/>
    <path id="Path_185866" data-name="Path 185866" d="M129.545,22.522c-.1-.4.1-.885-.317-1.206l1.926-7.076c1.305,1.036-.153,2.263.53,3.222a4.821,4.821,0,0,1-.578,2.191c-.606.91-.023,2.467-1.56,2.87" transform="translate(-74.378 -8.196)" fill="#fff"/>
    <path id="Path_185867" data-name="Path 185867" d="M5.1,112.857c-1.371-1.017-1.719-2.113-1.149-3.432a1.2,1.2,0,0,1,1.572-.654c.7.208.428.782.333,1.213-.205.926-.478,1.837-.755,2.873" transform="translate(-2.126 -62.561)" fill="#fff"/>
    <path id="Path_185868" data-name="Path 185868" d="M9.952,95.474c-1.6-2.585-1.37-3.408.984-4.306.159,1.477-.514,2.7-.984,4.306" transform="translate(-5.138 -52.472)" fill="#fff"/>
    <path id="Path_185869" data-name="Path 185869" d="M132.214,23.114a3.3,3.3,0,0,1,.871-1.721c.6-.525.893-.418.7.392-.342,1.408-1.084,2.712-1.1,4.207l-.837.51c-.573-1.2.375-2.244.366-3.388" transform="translate(-75.779 -12.127)" fill="#fff"/>
    <path id="Path_185870" data-name="Path 185870" d="M26.781,134.321a16.433,16.433,0,0,1,5.927-.933c-1.528.951-3.288,1.08-4.983,1.427-.17-.44-.609-.368-.944-.494" transform="translate(-15.414 -76.767)"/>
    <path id="Path_185871" data-name="Path 185871" d="M135.422,27.615l-.471-.5,1.313-4.094a7.884,7.884,0,0,1-.843,4.591" transform="translate(-77.672 -13.252)" fill="#fff"/>
    <path id="Path_185872" data-name="Path 185872" d="M48.527,27.918c-1.255.142-1.715-.489-1.481-1.637.422-2.07.934-4.122,1.35-6.193.188-.933.845-1.229,1.613-1.429,7.435-1.93,14.878-3.832,22.455-5.133,2.156-.37,2.358-.086,1.946,2.076-1.295,6.784-1.283,6.831-7.9,8.543a163.394,163.394,0,0,1-17.987,3.774" transform="translate(-27.044 -7.706)"/>
    <path id="Path_185873" data-name="Path 185873" d="M131.243,25.885c.408,1.187-.48,2.233-.366,3.388-.326.471-.654.95-.9-.049l1.267-3.339" transform="translate(-74.808 -14.898)"/>
    <path id="Path_185874" data-name="Path 185874" d="M50.306,28.281c-1.166.213-1.366-.4-1.157-1.343.383-1.721.824-3.43,1.163-5.16.177-.9.858-1.058,1.526-1.232,7.176-1.863,14.369-3.649,21.666-4.994,1.478-.273,1.559.3,1.3,1.406-.048.206-.111.409-.158.616-1.243,5.508-1.242,5.511-6.75,6.9-5.341,1.349-10.707,2.585-16.13,3.562-.486.087-.974.163-1.461.244" transform="translate(-28.246 -8.912)" fill="#fff"/>
  </g>
</svg>
