<svg id="a6" xmlns="http://www.w3.org/2000/svg" xmlns:xlink="http://www.w3.org/1999/xlink" width="80.678" height="82.039" viewBox="0 0 80.678 82.039">
  <defs>
    <clipPath id="clip-path">
      <rect id="Rectangle_47347" data-name="Rectangle 47347" width="80.678" height="82.04" fill="none"/>
    </clipPath>
  </defs>
  <g id="Group_176314" data-name="Group 176314" clip-path="url(#clip-path)">
    <path id="Path_188846" data-name="Path 188846" d="M54.306,40.131a16.719,16.719,0,0,1-3.937.585c-14.326.324-28.56-.249-42.6-4.448-.4,10.026.668,11.426,10.488,13.756a74.988,74.988,0,0,0,25.258,1.61c1.179-.122,2.661-.647,2.451,1.568-.8,8.381-1.833,16.726-3.413,25-.169.886-.47,1.31-1.374,1.409-9.13,1-18.213,1.313-27.009-2.014-1.885-.713-3.68-1.661-5.654-2.563,0,2.576-.039,4.9.009,7.23a8.634,8.634,0,0,0,5.415,8.224A37.01,37.01,0,0,0,28.147,93.84c3.687.152,7.517.535,11.051-.243,4.405-.969,7.266-4.044,8.249-8.825.857-4.168,1.423-8.376,2.24-12.545,2-10.219,4.426-20.355,6.067-30.648.208-1.305.073-1.861-1.448-1.449M24.68,91.012H36.857c-4.065,1.272-8.121.794-12.176,0m21.112-9.7A15.845,15.845,0,0,1,47.115,74a18.913,18.913,0,0,1-1.323,7.317m1.507-8.23a26.934,26.934,0,0,1,1.8-9.506,28.1,28.1,0,0,1-1.8,9.506" transform="translate(-2.959 -13.946)" fill="#fcfcfc"/>
    <path id="Path_188847" data-name="Path 188847" d="M47.468,125.216H35.292c4.055.794,8.112,1.272,12.176,0" transform="translate(-13.571 -48.15)"/>
    <path id="Path_188848" data-name="Path 188848" d="M2.72,22.783c-.088,15.051.541,30.088.8,45.132.1,5.647,2.687,9.239,7.8,11.2a31.615,31.615,0,0,0,4.953,1.56c6.586,1.34,13.117,1.976,19.893.584,5.482-1.126,8.616-3.251,9.769-8.677,1.408-6.627,2.806-13.258,4.118-19.9,1.7-8.629,3.319-17.275,4.971-25.915.121-.632-.066-1.5.7-1.741A3.746,3.746,0,0,0,58.509,21.6a13.864,13.864,0,0,0-.069-4.959,3.5,3.5,0,0,0-1.317-2.018,26.305,26.305,0,0,0-9.39-4.445C49.938,6.9,52.823,7.351,55.594,7.9c6.59,1.318,13.18,2.645,19.67,4.415,2.981.812,4.711-.029,5.276-2.42s-.6-3.98-3.459-4.671Q64.62,2.218,51.96.212C47.643-.473,44.03.38,41.836,4.605c-.417.8-1.059,1.488-1.557,2.253A2.3,2.3,0,0,1,37.4,7.918a57.759,57.759,0,0,0-9.587-1.3,67.309,67.309,0,0,0-17.386.775c-2.311.429-4.746.6-6.9,1.825C.1,11.16-1.237,16.711,1.369,19.326A4.32,4.32,0,0,1,2.72,22.783M5.341,34.5c10.193,5.139,21.3,6.241,32.707,5.511,2.791-.179,3.461.146,2.837,2.869C39.5,48.941,39.51,55.2,38.046,61.239a4.373,4.373,0,0,1-4.512,3.315c-3.9-.491-7.919.282-11.692-.278-5.561-.828-11.22-2.113-15.865-5.782a2.09,2.09,0,0,1-.633-1.813Q5.338,45.6,5.341,34.5m47.454-6.864c-1.641,10.292-4.063,20.428-6.067,30.648-.817,4.168-1.383,8.377-2.24,12.544-.983,4.781-3.844,7.855-8.249,8.825-3.533.778-7.364.395-11.051.242a37.043,37.043,0,0,1-14.213-3.35A8.636,8.636,0,0,1,5.56,68.319c-.048-2.326-.009-4.654-.009-7.23,1.973.9,3.769,1.849,5.654,2.563,8.8,3.327,17.879,3.01,27.009,2.014.9-.1,1.205-.523,1.374-1.408,1.58-8.275,2.617-16.62,3.413-25,.21-2.216-1.272-1.691-2.452-1.568a74.974,74.974,0,0,1-25.258-1.611C5.472,33.748,4.409,32.348,4.8,22.322c14.045,4.2,28.279,4.772,42.6,4.447a16.71,16.71,0,0,0,3.937-.585c1.521-.412,1.657.144,1.449,1.449m2.572-11.789c-.933,1.515-1.692,2.031-3.071.382-1.315-1.572-3.465-1.827-5.326-2.5-.47-.17-1.432.1-1.243-.784.182-.851.907-.956,1.777-.688a33.369,33.369,0,0,1,7.861,3.589m-5.514.992c-2.024.263-3.336-.633-4.737-1.118a5.011,5.011,0,0,1,4.737,1.118M50.868,2.394A213.532,213.532,0,0,1,77.118,7.38c.927.22,1.826.518,1.481,1.809a1.589,1.589,0,0,1-2.232,1.291A50.166,50.166,0,0,0,69.13,8.671c-3.97-.455-7.661-2.122-11.773-2.154C55.22,6.5,53,4.9,50.7,5.057c-1.861.127-2.984-.673-4.239-1.9,1.388-1.369,3.208-.889,4.4-.759M44,5.35c.972-1.328,1.745-1.024,2.872-.271,1.37.915.828,1.584.041,2.5a50.836,50.836,0,0,0-5.94,8.559c-1.333,2.413-3.054,3.291-5.922,2.448C37.924,13.942,40.89,9.6,44,5.35M4.894,10.981a31.418,31.418,0,0,1,5.725-1.625c7.123-1.713,14.273-.58,21.41-.222,1.906.1,3.905-.055,5.741,1.076-.45,1.517-1.363,1.686-2.712,1.532a107.605,107.605,0,0,0-18.145-.6c-3.722.2-7.536.07-10.864,2.278-1.056.7-1.46-.366-1.9-.968-.6-.831.17-1.216.741-1.474m30.038,3.375c-8.666.065-17.261-.979-26.195-.091,5.3-2.218,23.268-2.091,26.195.091M2.318,13.989C8.9,18.98,16.635,19.262,24.131,20.181a110.248,110.248,0,0,0,25.341.11,17.805,17.805,0,0,0,6.971-2c.944,3.644-1.432,5.03-4.031,5.757-5.4,1.512-10.944.851-16.443.638-4.025-.156-8.035-.553-12.048-.849-4.906-.361-9.615-1.564-14.386-2.528a13.158,13.158,0,0,1-5.583-2.627,4.206,4.206,0,0,1-1.633-4.694" transform="translate(0 0)"/>
    <path id="Path_188849" data-name="Path 188849" d="M9.313,80.047c4.646,3.669,10.3,4.954,15.866,5.782,3.773.561,7.791-.213,11.691.279a4.374,4.374,0,0,0,4.512-3.316c1.465-6.04,1.449-12.3,2.84-18.361.625-2.723-.047-3.048-2.837-2.869-11.406.73-22.514-.373-32.706-5.511q0,11.105,0,22.183a2.092,2.092,0,0,0,.633,1.813M12.8,67.063c.86-3.612,3.839-5.1,6.715-2.772,2.343,1.9,4.365,1.495,6.745.878,3.551-.92,6.121.958,6.147,4.421-.529,4.134-1,6.22-6.267,8.54-1.816.8-3.778,1.259-5.076,2.972-.587.774-1.377.64-1.8-.209-1.131-2.279-3.141-3.85-4.6-5.869A9.362,9.362,0,0,1,12.8,67.063" transform="translate(-3.337 -21.554)" fill="#fcfcfc"/>
    <path id="Path_188850" data-name="Path 188850" d="M5.3,27.423a13.162,13.162,0,0,0,5.583,2.627c4.77.964,9.479,2.168,14.385,2.528,4.014.295,8.023.692,12.048.849,5.5.214,11.045.875,16.443-.638,2.6-.727,4.975-2.114,4.031-5.757a17.816,17.816,0,0,1-6.971,2,110.283,110.283,0,0,1-25.341-.11c-7.5-.918-15.232-1.2-21.813-6.192A4.206,4.206,0,0,0,5.3,27.423" transform="translate(-1.344 -8.74)" fill="#fff"/>
    <path id="Path_188851" data-name="Path 188851" d="M79.736,6.434c2.294-.158,4.515,1.444,6.653,1.46,4.112.031,7.8,1.7,11.773,2.153a50.267,50.267,0,0,1,7.238,1.809,1.59,1.59,0,0,0,2.232-1.291c.345-1.291-.555-1.589-1.481-1.809A213.763,213.763,0,0,0,79.9,3.771c-1.194-.13-3.014-.61-4.4.759,1.254,1.232,2.378,2.033,4.239,1.9" transform="translate(-29.031 -1.378)" fill="#fff"/>
    <path id="Path_188852" data-name="Path 188852" d="M8.507,18.69c3.328-2.208,7.141-2.073,10.864-2.277a107.54,107.54,0,0,1,18.145.6c1.35.154,2.262-.015,2.712-1.531-1.836-1.132-3.835-.982-5.741-1.077-7.137-.358-14.287-1.491-21.41.222a31.432,31.432,0,0,0-5.725,1.625c-.571.258-1.343.643-.741,1.474.436.6.841,1.668,1.9.968" transform="translate(-2.458 -5.269)" fill="#fff"/>
    <path id="Path_188853" data-name="Path 188853" d="M62.879,18.907a50.8,50.8,0,0,1,5.94-8.559c.787-.916,1.329-1.586-.041-2.5-1.128-.753-1.9-1.057-2.872.271-3.115,4.25-6.081,8.592-8.949,13.237,2.868.843,4.588-.036,5.921-2.448" transform="translate(-21.902 -2.77)" fill="#fff"/>
    <path id="Path_188854" data-name="Path 188854" d="M40.39,22.265c-2.927-2.182-20.9-2.309-26.195-.091,8.934-.887,17.528.156,26.195.091" transform="translate(-5.458 -7.909)" fill="#fff"/>
    <path id="Path_188855" data-name="Path 188855" d="M74.283,20.52c-.189.881.772.614,1.243.784,1.861.672,4.011.927,5.326,2.5,1.379,1.649,2.138,1.132,3.071-.382a33.369,33.369,0,0,0-7.861-3.589c-.87-.268-1.6-.163-1.777.688" transform="translate(-28.555 -7.576)" fill="#fff"/>
    <path id="Path_188856" data-name="Path 188856" d="M73.3,25.431c1.4.484,2.713,1.38,4.738,1.118A5.01,5.01,0,0,0,73.3,25.431" transform="translate(-28.188 -9.712)" fill="#fff"/>
    <path id="Path_188857" data-name="Path 188857" d="M73.839,80.644a26.95,26.95,0,0,0-1.8,9.506,28.062,28.062,0,0,0,1.8-9.506" transform="translate(-27.702 -31.011)"/>
    <path id="Path_188858" data-name="Path 188858" d="M69.581,104.891A18.924,18.924,0,0,0,70.9,97.574a15.845,15.845,0,0,0-1.323,7.317" transform="translate(-26.749 -37.521)"/>
    <path id="Path_188859" data-name="Path 188859" d="M21.682,85.345c.421.849,1.211.983,1.8.209,1.3-1.713,3.261-2.173,5.076-2.973,5.265-2.32,5.738-4.405,6.267-8.54-.026-3.463-2.6-5.34-6.147-4.42-2.38.617-4.4,1.016-6.745-.878-2.875-2.325-5.856-.84-6.715,2.772a9.358,9.358,0,0,0,1.869,7.961c1.455,2.019,3.465,3.591,4.6,5.869M18.034,70.6c.851.519-.187,1.482.656,1.958,1.066-.649.134-2.722,1.1-2.6,1.177.144,2.261,1.348,3.3,2.2.539.443.85,1.424,1.729.865,1.605-1.019.713.854,1.284,1.024,1.191-.308.351-2.72,1.661-2.21,1.515.591.049,2.5.69,3.791.905-.507.478-1.47.775-2.149s-.186-2.279.79-1.864c.822.35,2.389.3,2.628,1.773a5.445,5.445,0,0,1-1.241,4.6c-.5-1.23.259-2.363-.543-3.507-.96,1.207-.332,2.533-.536,3.707-.268,1.54-.443,1.709-1.631.833-.553-.407-.676-.18-.759.238-.516,2.568-3.01,2.338-4.6,2.741-1.769.447-2.184-2.256-3.186-2.9C18.4,77.965,18.315,77,18.832,75.617c-.738-1.091-.979,1.024-1.454.018a4.388,4.388,0,0,1,.656-5.032" transform="translate(-5.755 -26.004)"/>
    <path id="Path_188860" data-name="Path 188860" d="M20.022,77.073c-.517,1.387-.434,2.348,1.318,3.479,1,.647,1.417,3.35,3.186,2.9,1.593-.4,4.087-.173,4.6-2.741.084-.417.207-.644.759-.238,1.188.875,1.363.707,1.631-.833.2-1.174-.423-2.5.536-3.707.8,1.144.048,2.277.543,3.507a5.445,5.445,0,0,0,1.241-4.6c-.239-1.472-1.806-1.423-2.628-1.773-.977-.415-.5,1.193-.791,1.864s.131,1.642-.774,2.149c-.642-1.292.825-3.2-.69-3.791-1.31-.511-.47,1.9-1.661,2.21-.571-.17.321-2.043-1.285-1.024-.879.558-1.19-.423-1.729-.865-1.037-.851-2.122-2.056-3.3-2.2-.969-.119-.038,1.954-1.1,2.6-.843-.476.2-1.44-.656-1.958a4.388,4.388,0,0,0-.656,5.032c.475,1.006.716-1.109,1.454-.018" transform="translate(-6.945 -27.459)" fill="#fff"/>
  </g>
</svg>
