<svg id="a8" xmlns="http://www.w3.org/2000/svg" xmlns:xlink="http://www.w3.org/1999/xlink" width="106.445" height="83.912" viewBox="0 0 106.445 83.912">
  <defs>
    <clipPath id="clip-path">
      <rect id="Rectangle_47345" data-name="Rectangle 47345" width="106.445" height="83.912" fill="none"/>
    </clipPath>
  </defs>
  <g id="Group_176310" data-name="Group 176310" transform="translate(0 0)" clip-path="url(#clip-path)">
    <path id="Path_188780" data-name="Path 188780" d="M12.7,48.906q-.221.168-.433.351a6.1,6.1,0,0,0,.5.879,4.538,4.538,0,0,0,.611.724,4.1,4.1,0,0,0,3.042,1.081Q14.561,50.422,12.7,48.906Z" transform="translate(-1.377 -5.489)"/>
    <path id="Path_188781" data-name="Path 188781" d="M12.758,48.906q1.859,1.517,3.715,3.034L12.759,48.9Z" transform="translate(-1.432 -5.489)"/>
    <path id="Path_188782" data-name="Path 188782" d="M11.756,48.831a1.75,1.75,0,0,0,.42.277c.141-.121.286-.238.434-.35-.241-.4-.294-.979-.811-1.135a.994.994,0,0,0-.245-.037,1.02,1.02,0,0,0,.2,1.245" transform="translate(-1.283 -5.34)"/>
    <path id="Path_188783" data-name="Path 188783" d="M12.656,48.763h0c-.241-.4-.294-.978-.811-1.133.517.154.569.729.81,1.134" transform="translate(-1.33 -5.345)"/>
    <path id="Path_188784" data-name="Path 188784" d="M11.569,47.584l0-.014-.011.013h.006" transform="translate(-1.298 -5.339)"/>
    <path id="Path_188785" data-name="Path 188785" d="M11.477,47.5l-.467-.6c-.057.093-.173.2-.16.278.062.376.293.467.627.323" transform="translate(-1.218 -5.263)"/>
    <path id="Path_188786" data-name="Path 188786" d="M11.573,47.57l-.018.005.007.008Z" transform="translate(-1.297 -5.339)"/>
    <path id="Path_188787" data-name="Path 188787" d="M20.708,36.713c2.6-.154,4.144-1.717,4.422-4.459.224-2.2-2.153-4.835-4.362-4.738-2.517.109-4.347,1.283-4.576,4.055a4.572,4.572,0,0,0,4.515,5.142m-.043-6.15a1.556,1.556,0,0,1,.292.016,1.362,1.362,0,0,1,1.074,1.336,2.742,2.742,0,0,1-.009.356,1.338,1.338,0,0,1-.629,1.1,1.479,1.479,0,0,1-.432.163,2.209,2.209,0,0,1-.352.044c-.889.044-1.261-.6-1.342-1.357a1.36,1.36,0,0,1,1.4-1.663" transform="translate(-1.815 -3.088)"/>
    <path id="Path_188788" data-name="Path 188788" d="M90.98,85.472c-7.563.1-14.75.872-21.7,0,6.343,2.451,16.789,2.591,21.7,0" transform="translate(-7.776 -9.593)"/>
    <path id="Path_188789" data-name="Path 188789" d="M21,33.969a2.132,2.132,0,0,0,.352-.045,1.478,1.478,0,0,0,.432-.162,1.341,1.341,0,0,0,.629-1.1,2.549,2.549,0,0,0,.009-.352,1.363,1.363,0,0,0-1.074-1.34,1.48,1.48,0,0,0-.292-.016,1.36,1.36,0,0,0-1.4,1.663c.082.757.455,1.4,1.342,1.357" transform="translate(-2.204 -3.473)" fill="#fff"/>
    <path id="Path_188790" data-name="Path 188790" d="M22.052,33.977a1.338,1.338,0,0,0,.629-1.1,1.341,1.341,0,0,1-.629,1.1" transform="translate(-2.475 -3.689)" fill="#fff"/>
    <path id="Path_188791" data-name="Path 188791" d="M22,34.117a1.479,1.479,0,0,1-.432.163A1.479,1.479,0,0,0,22,34.117" transform="translate(-2.42 -3.829)" fill="#fff"/>
    <path id="Path_188792" data-name="Path 188792" d="M56.784,13.258c-3.9-4.608-16.218-7.845-19.873-5.136,6.706.827,13.466,1.249,19.048,5.612.273-.159.55-.317.825-.476" transform="translate(-4.143 -0.8)"/>
    <path id="Path_188793" data-name="Path 188793" d="M14.184,53.042c1.671.874,2.377,1.65,2.512,3.651A14.579,14.579,0,0,0,31.652,70.628c1.321-.017,3.087.463,3.9-.961.887-1.556-1.053-2.056-1.668-3.065-1.808-2.966-2.939-6.329-1.741-9.524.9-2.393,4.1-.8,6.1-1.648a2.5,2.5,0,0,1,.354-.052c2.772-.68,3.772.054,4.07,3.244C43.932,72.113,51.055,81.2,64.315,83.277c2.594.407,5.237.5,6.654.635A63.337,63.337,0,0,0,92.541,80.1a18.835,18.835,0,0,0,6.867-4.442c5.617-5.618,7.233-12.88,7.02-20.225-.291-10.016-3.05-19.357-13.317-23.993-2.692-1.215-3.9-2.513-4.288-5.57C87.8,17.88,79.89,11.911,72.151,12.7c-1.252.128-2.432.373-2.976,1.57-.507,1.114.547,1.678,1.2,2.331,2.442,2.447,2.7,5.481,2.3,8.673-.4,3.168-3,3.118-5.175,3.133-1.983.013-3.128-.924-3.279-3.447C63.5,12.869,57.531,5.036,47.267,2.224A66.587,66.587,0,0,0,36.7.288,53.36,53.36,0,0,0,18.05,1.673C12.089,3.128,4.6,7.971,2.469,13.511A35.955,35.955,0,0,0,.935,34.783c1.785,7.985,5.857,14.392,13.249,18.26m53.04-22.369c2.345-.309,5.325,1.278,6.989-1.253,2.081-3.164,1.856-6.8,1.031-10.409-.232-1.009-1.2-1.817-.848-2.985,6.7.585,11.991,5.826,11.826,12.431-.076,3.065,1.132,4.014,3.608,5.043,9.284,3.862,13.01,11.521,13.571,21.046.535,9.1-1.9,16.938-10.323,21.75-5.087,2.909-10.762,3.985-16.564,4.153a73.755,73.755,0,0,1-11.13-.283A23.194,23.194,0,0,1,45.339,55.995a1.972,1.972,0,0,1,1.78-2.168c10.423-2.752,15.823-9.812,16.975-20.29.236-2.148,1.118-2.6,3.13-2.864M3.405,22.426C4.807,11.153,9.991,5.5,21.331,3.666A60.338,60.338,0,0,1,46.9,5.3C56.2,7.807,59.379,15.111,61.084,23.374a27.968,27.968,0,0,1-1.872,16.552c-2.149,5.2-6.008,8.21-11,10.66-5.057,2.48-10.237,1.9-15.4,2.213-2.256.138-3.176.952-3.642,2.986a16.914,16.914,0,0,0,1.61,11.465A11.083,11.083,0,0,1,19.661,55.264c.122-2.544-.7-3.443-2.869-4.4C7.629,46.822,4.166,38.964,3.3,29.607a33.6,33.6,0,0,1,.1-7.181" transform="translate(0 0)"/>
    <path id="Path_188794" data-name="Path 188794" d="M17.191,51.238c2.174.959,2.992,1.858,2.869,4.4A11.083,11.083,0,0,0,31.178,67.626a16.913,16.913,0,0,1-1.609-11.465c.465-2.035,1.386-2.849,3.642-2.986,5.16-.314,10.34.267,15.4-2.213,4.995-2.451,8.854-5.46,11-10.661a27.975,27.975,0,0,0,1.872-16.552C59.779,15.485,56.6,8.182,47.3,5.67A60.348,60.348,0,0,0,21.731,4.04C10.39,5.879,5.207,11.528,3.806,22.8a33.484,33.484,0,0,0-.1,7.181C4.565,39.34,8.029,47.2,17.191,51.238M41.779,28.919c.3-2.836,2.116-4.228,4.841-4.1,2.858.137,4.26,2,4.118,4.75A4.308,4.308,0,0,1,46.37,34a4.686,4.686,0,0,1-4.592-5.078m11.94,15.087h0v0h0l.077-.055.123.038L53.731,44l-.016.013a10.2,10.2,0,0,1-2.69,3.208,10.473,10.473,0,0,1-4.248,1.918,15.158,15.158,0,0,1-2.132.3c2.8-2.172,6.387-3.041,9.065-5.422l.009-.016M53.04,12.832c.147.413.265.857-.238,1.068-.1.041-.386-.383-.587-.592C46.633,8.945,39.874,8.523,33.168,7.7c3.655-2.709,15.975.528,19.872,5.136M32.724,24.777a4.253,4.253,0,0,1,4.5,4.454c-.178,2.4-.944,4.515-4.038,4.084C30.572,33.279,28.194,31.2,28.339,29c.176-2.685,1.818-4.046,4.385-4.22M14.777,28.858c.228-2.772,2.059-3.946,4.576-4.055,2.208-.1,4.584,2.535,4.362,4.738-.279,2.742-1.824,4.3-4.422,4.459a4.571,4.571,0,0,1-4.515-5.142M10.191,42.009l.467.6c.006,0,.012,0,.018,0l-.005.014a.994.994,0,0,1,.245.037c.517.155.57.73.811,1.134h0l3.714,3.036A4.1,4.1,0,0,1,12.4,45.745a4.535,4.535,0,0,1-.612-.724,6.065,6.065,0,0,1-.5-.88,1.75,1.75,0,0,1-.42-.277,1.02,1.02,0,0,1-.2-1.245h-.006l-.006-.009c-.334.144-.565.052-.627-.322-.013-.082.1-.186.16-.279" transform="translate(-0.399 -0.375)" fill="#fcfcfc"/>
    <path id="Path_188795" data-name="Path 188795" d="M60.063,49.147h0l-.009.016,0,0,.007-.012" transform="translate(-6.74 -5.516)" fill="#fcfcfc"/>
    <path id="Path_188796" data-name="Path 188796" d="M52.849,55.853a1.972,1.972,0,0,0-1.781,2.168A23.2,23.2,0,0,0,71.115,82.194a73.747,73.747,0,0,0,11.129.283c5.8-.168,11.477-1.244,16.565-4.153,8.418-4.813,10.858-12.655,10.322-21.749-.561-9.527-4.286-17.185-13.571-21.047-2.475-1.029-3.683-1.979-3.607-5.044.164-6.6-5.13-11.846-11.827-12.431-.347,1.167.616,1.974.848,2.984.826,3.608,1.05,7.245-1.031,10.41-1.664,2.531-4.643.944-6.989,1.253-2.012.265-2.894.716-3.13,2.863C68.671,46.042,63.272,53.1,52.849,55.853M96.966,40.67l.256.256-.194.352c4.875,1.73,7.964,6.734,8.038,12.85-2.527-4.66-4.515-8.856-8.055-12.82l-.044.081c-.08-.08-.239-.177-.226-.236a2.265,2.265,0,0,1,.226-.483M93.452,54.043c2.944-.177,4.321,1.575,4.77,4.343-.32,2.593-1.385,4.617-4.36,4.725-2.917.1-4.446-1.578-4.625-4.37-.186-2.891,1.357-4.528,4.215-4.7M75.607,58.265a4.2,4.2,0,0,1,4.438-4.234c2.664-.113,4.537,1.76,4.536,4.83-.214,2.337-1.445,4.158-4.394,4.26a4.412,4.412,0,0,1-4.58-4.856M88.934,77.9c-4.908,2.592-15.353,2.453-21.7,0,6.946.87,14.134.1,21.7,0M70.957,58.922a4.1,4.1,0,0,1-4.184,4.2,4.509,4.509,0,0,1-4.7-4.7c.152-2.836,2.668-3.471,4.624-4.115,1.917-.631,4.223,2.063,4.262,4.616" transform="translate(-5.729 -2.026)" fill="#fcfcfc"/>
    <path id="Path_188797" data-name="Path 188797" d="M55.567,32.285c.142-2.753-1.261-4.614-4.118-4.75-2.725-.13-4.541,1.263-4.841,4.1A4.686,4.686,0,0,0,51.2,36.712a4.308,4.308,0,0,0,4.368-4.426m-5.939-.11a1.353,1.353,0,0,1-.023-.342c.045-.74.759-1.08,1.447-1.349a2.015,2.015,0,0,1,.646.181,1.492,1.492,0,0,1,.842,1.13,2.008,2.008,0,0,1,.028.314A1.489,1.489,0,0,1,51.3,33.586c-1.046.181-1.52-.618-1.667-1.411" transform="translate(-5.228 -3.089)"/>
    <path id="Path_188798" data-name="Path 188798" d="M36.317,36.023c3.095.431,3.859-1.689,4.038-4.084a4.254,4.254,0,0,0-4.5-4.455c-2.566.175-4.209,1.535-4.385,4.22-.145,2.2,2.234,4.283,4.846,4.318M35.4,30.414a2.442,2.442,0,0,1,.371.007,1.684,1.684,0,0,1,1.357.867,2.4,2.4,0,0,1,.256.72,1.723,1.723,0,0,1-1.213,1.571,2.893,2.893,0,0,1-.314.091c-1.176.272-1.428-.577-1.486-1.405-.055-.776-.107-1.79,1.029-1.852" transform="translate(-3.531 -3.083)"/>
    <path id="Path_188799" data-name="Path 188799" d="M51.971,54.287a10.478,10.478,0,0,0,4.248-1.918,10.187,10.187,0,0,0,2.685-3.2c-2.678,2.383-6.262,3.25-9.066,5.422a15.171,15.171,0,0,0,2.132-.3" transform="translate(-5.594 -5.518)"/>
    <path id="Path_188800" data-name="Path 188800" d="M57.026,52.369a10.2,10.2,0,0,0,2.69-3.208l0,0a10.187,10.187,0,0,1-2.685,3.2" transform="translate(-6.4 -5.517)"/>
    <path id="Path_188801" data-name="Path 188801" d="M60.075,49.145h0" transform="translate(-6.741 -5.515)"/>
    <path id="Path_188802" data-name="Path 188802" d="M60.066,49.137h0l.077-.054Z" transform="translate(-6.741 -5.508)"/>
    <path id="Path_188803" data-name="Path 188803" d="M60.072,49.146h-.009l-.007.012.016-.013" transform="translate(-6.74 -5.516)"/>
    <path id="Path_188804" data-name="Path 188804" d="M60.267,49.12l-.123-.038c-.021.02-.046.036-.068.056l.191-.018" transform="translate(-6.743 -5.508)"/>
    <path id="Path_188805" data-name="Path 188805" d="M60.064,49.145h0v0l0,0" transform="translate(-6.741 -5.515)"/>
    <path id="Path_188806" data-name="Path 188806" d="M60.143,49.082l-.077.055h.009c.022-.02.046-.036.068-.055" transform="translate(-6.741 -5.508)"/>
    <path id="Path_188807" data-name="Path 188807" d="M58.954,15.1c.5-.211.385-.655.238-1.067l-.826.475c.2.209.492.633.588.592" transform="translate(-6.551 -1.575)"/>
    <path id="Path_188808" data-name="Path 188808" d="M83.289,67.669c2.948-.1,4.18-1.923,4.394-4.259,0-3.071-1.871-4.944-4.536-4.831a4.2,4.2,0,0,0-4.438,4.234,4.411,4.411,0,0,0,4.579,4.856m.033-6.018c.831,0,1.222.578,1.3,1.428-.073.889-.466,1.546-1.511,1.488a1.355,1.355,0,0,1-1.291-1.411c-.1-1.066.573-1.5,1.5-1.5" transform="translate(-8.832 -6.574)"/>
    <path id="Path_188809" data-name="Path 188809" d="M98.688,67.659c2.974-.107,4.038-2.132,4.359-4.724-.449-2.769-1.826-4.521-4.77-4.344-2.858.171-4.4,1.807-4.214,4.7.179,2.79,1.708,4.473,4.625,4.369m-.125-6.035a1.478,1.478,0,0,1-.251,2.942c-.877-.03-1.188-.7-1.23-1.441-.059-1.031.621-1.414,1.482-1.5" transform="translate(-10.555 -6.574)"/>
    <path id="Path_188810" data-name="Path 188810" d="M63.463,62.992a4.511,4.511,0,0,0,4.7,4.705,4.1,4.1,0,0,0,4.184-4.2c-.039-2.553-2.346-5.247-4.262-4.616-1.957.645-4.473,1.279-4.625,4.115m4.434-1.3c1.074-.1,1.4.634,1.519,1.494-.17.782-.476,1.391-1.357,1.394-1.04,0-1.481-.668-1.521-1.578-.039-.866.6-1.241,1.359-1.309" transform="translate(-7.122 -6.597)"/>
    <path id="Path_188811" data-name="Path 188811" d="M110.877,57.065c-.074-6.117-3.164-11.12-8.038-12.851l-.017.031c3.539,3.963,5.526,8.159,8.055,12.82" transform="translate(-11.54 -4.962)"/>
    <path id="Path_188812" data-name="Path 188812" d="M102.744,44.249l.044-.081c-.016-.019-.03-.038-.047-.057l.065.026c.065-.118.13-.237.194-.352l-.257-.257a2.225,2.225,0,0,0-.225.484c-.013.059.145.156.225.236" transform="translate(-11.506 -4.885)"/>
    <path id="Path_188813" data-name="Path 188813" d="M102.816,44.242l.017-.031c-.022-.007-.043-.018-.065-.026.017.019.031.038.048.057" transform="translate(-11.534 -4.959)"/>
    <path id="Path_188814" data-name="Path 188814" d="M52.95,32.485a2.008,2.008,0,0,0-.028-.314,1.5,1.5,0,0,0-.842-1.131,2.039,2.039,0,0,0-.642-.178c-.692.266-1.406.607-1.451,1.347a1.4,1.4,0,0,0,.024.342c.147.792.622,1.592,1.666,1.411a1.489,1.489,0,0,0,1.274-1.475" transform="translate(-5.61 -3.463)" fill="#fff"/>
    <path id="Path_188815" data-name="Path 188815" d="M53.186,32.193a1.494,1.494,0,0,0-.842-1.131,1.5,1.5,0,0,1,.842,1.131" transform="translate(-5.875 -3.486)" fill="#fff"/>
    <path id="Path_188816" data-name="Path 188816" d="M36.228,34.043a2.892,2.892,0,0,0,.314-.091,1.719,1.719,0,0,0,1.21-1.576,2.388,2.388,0,0,0-.253-.716,1.687,1.687,0,0,0-1.357-.867,2.444,2.444,0,0,0-.371-.007c-1.136.062-1.084,1.076-1.029,1.852.059.828.31,1.676,1.486,1.405" transform="translate(-3.897 -3.454)" fill="#fff"/>
    <path id="Path_188817" data-name="Path 188817" d="M36.773,34.062a1.721,1.721,0,0,0,1.212-1.571,2.344,2.344,0,0,0-.256-.72,2.347,2.347,0,0,1,.254.716,1.719,1.719,0,0,1-1.21,1.576" transform="translate(-4.127 -3.566)" fill="#fff"/>
    <path id="Path_188818" data-name="Path 188818" d="M83.508,64.955c1.045.058,1.439-.6,1.511-1.488-.08-.85-.471-1.428-1.3-1.428-.927,0-1.6.439-1.5,1.5a1.355,1.355,0,0,0,1.291,1.411" transform="translate(-9.226 -6.963)" fill="#fff"/>
    <path id="Path_188819" data-name="Path 188819" d="M98.7,64.951a1.478,1.478,0,0,0,.251-2.942c-.859.087-1.54.471-1.481,1.5.042.736.352,1.411,1.23,1.44" transform="translate(-10.939 -6.959)" fill="#fff"/>
    <path id="Path_188820" data-name="Path 188820" d="M68.448,64.946c.881,0,1.186-.612,1.357-1.394-.121-.86-.445-1.591-1.52-1.494-.758.068-1.4.443-1.36,1.309.041.911.481,1.582,1.523,1.578" transform="translate(-7.511 -6.964)" fill="#fff"/>
  </g>
</svg>
