<svg xmlns="http://www.w3.org/2000/svg" xmlns:xlink="http://www.w3.org/1999/xlink" width="414" height="305" viewBox="0 0 414 305">
  <defs>
    <clipPath id="clip-path">
      <rect id="Rectangle_47463" data-name="Rectangle 47463" width="359.143" height="291.943" fill="none"/>
    </clipPath>
  </defs>
  <g id="_10" data-name="10" transform="translate(-527 10484)">
    <rect id="Rectangle_47465" data-name="Rectangle 47465" width="414" height="305" rx="11" transform="translate(527 -10484)" fill="#ffe891"/>
    <g id="Group_176460" data-name="Group 176460" transform="translate(554 -10477)">
      <path id="Path_190376" data-name="Path 190376" d="M296.624,143.428,228.1,74.582,288.5,149.8Z" transform="translate(31.728 10.374)" fill="#fd521b"/>
      <g id="Group_176459" data-name="Group 176459">
        <g id="Group_176458" data-name="Group 176458" clip-path="url(#clip-path)">
          <path id="Path_190377" data-name="Path 190377" d="M237.414,39.371c1.487-3.742.018-7.8-3.281-9.068s-7.176.743-8.663,4.485-.018,7.8,3.281,9.068,7.176-.742,8.663-4.485" transform="translate(31.281 4.162)" fill="#ed8666"/>
          <path id="Path_190378" data-name="Path 190378" d="M226.8,38.679a.636.636,0,0,1-.375-1.15l6.387-4.654a.637.637,0,0,1,.751,1.029l-6.388,4.654a.637.637,0,0,1-.375.122" transform="translate(31.457 4.556)"/>
          <path id="Path_190379" data-name="Path 190379" d="M231.208,39.89a.633.633,0,0,1-.436-.173l-2.523-2.373a.637.637,0,1,1,.873-.927l2.523,2.374a.636.636,0,0,1-.436,1.1" transform="translate(31.72 5.041)"/>
          <path id="Path_190380" data-name="Path 190380" d="M262.3,222.669l-26.312-28.7a7.784,7.784,0,0,1,.478-11l50.777-46.547a7.786,7.786,0,0,1,11,.478l26.312,28.7a7.785,7.785,0,0,1-.477,11L273.3,223.147a7.786,7.786,0,0,1-11-.478" transform="translate(32.54 18.69)" fill="#fd521b"/>
          <path id="Path_190381" data-name="Path 190381" d="M195.931,53.623l1.7,24.147,17.925-3.111.963-22.368Z" transform="translate(27.253 7.273)" fill="#ed8666"/>
          <path id="Path_190382" data-name="Path 190382" d="M216.523,52.29l-20.591,1.333.881,12.48,19.432-7.315Z" transform="translate(27.253 7.273)"/>
          <path id="Path_190383" data-name="Path 190383" d="M217.213,8.687c0,4.8-4.5,8.687-10.042,8.687s-10.042-3.889-10.042-8.687S201.625,0,207.171,0s10.042,3.889,10.042,8.687" transform="translate(27.419)" fill="#fea41a"/>
          <path id="Path_190384" data-name="Path 190384" d="M204.648,11.365c1.185,5.808-4.173,11.806-11.965,13.395s-15.069-1.832-16.254-7.64S180.6,5.315,188.393,3.726s15.07,1.832,16.255,7.64" transform="translate(24.517 0.464)" fill="#fea41a"/>
          <path id="Path_190385" data-name="Path 190385" d="M231.929,13.706c1.185,5.808-4.172,11.806-11.965,13.395s-15.07-1.832-16.254-7.64,4.173-11.806,11.964-13.395,15.07,1.832,16.255,7.64" transform="translate(28.312 0.79)" fill="#fea41a"/>
          <path id="Path_190386" data-name="Path 190386" d="M237.209,23.431c1.185,5.808-3.068,11.58-9.5,12.891s-12.6-2.334-13.788-8.142,3.069-11.58,9.5-12.892,12.6,2.335,13.788,8.143" transform="translate(29.728 2.089)" fill="#fea41a"/>
          <path id="Path_190387" data-name="Path 190387" d="M197.2,22.285c1.185,5.808-3.068,11.58-9.5,12.891s-12.6-2.334-13.788-8.142,3.069-11.58,9.5-12.892,12.6,2.335,13.788,8.143" transform="translate(24.162 1.93)" fill="#fea41a"/>
          <path id="Path_190388" data-name="Path 190388" d="M178.822,36.182a28.556,28.556,0,1,1,28.556,28.556,28.556,28.556,0,0,1-28.556-28.556" transform="translate(24.873 1.061)" fill="#ed8666"/>
          <path id="Path_190389" data-name="Path 190389" d="M206.162,48.6a11.556,11.556,0,0,1-1.8-.142.637.637,0,0,1-.531-.727.644.644,0,0,1,.727-.531c7.188,1.121,10.784-5.6,10.819-5.666a.636.636,0,1,1,1.125.591c-.035.071-3.482,6.475-10.343,6.475" transform="translate(28.351 5.73)"/>
          <path id="Path_190390" data-name="Path 190390" d="M211.725,39.177a.635.635,0,0,1-.621-.5l-1.09-5.107-3.459,5.25a.637.637,0,0,1-1.064-.7l4.3-6.52a.637.637,0,0,1,1.154.219l1.407,6.592a.635.635,0,0,1-.489.754.6.6,0,0,1-.134.014" transform="translate(28.568 4.356)"/>
          <path id="Path_190391" data-name="Path 190391" d="M213.419,36.188s6.039-15.34,15.563-6.819c0,0-3.047,12.077-15.563,6.819" transform="translate(29.685 3.727)" fill="#fff"/>
          <path id="Path_190392" data-name="Path 190392" d="M204.882,33.932s-8.892-13.158-20.532-4.793c0,0,7.731,15.2,20.532,4.793" transform="translate(25.642 3.666)" fill="#fff"/>
          <path id="Path_190393" data-name="Path 190393" d="M192.62,23.567c-.278-.9,1.767-2.332,4.564-3.192s5.292-.826,5.569.077-1.766,2.332-4.564,3.192-5.291.825-5.569-.077" transform="translate(26.789 2.747)"/>
          <path id="Path_190394" data-name="Path 190394" d="M214.489,24.167c-.278-.9,1.766-2.332,4.563-3.192s5.293-.826,5.57.077-1.767,2.332-4.566,3.192-5.291.825-5.568-.077" transform="translate(29.831 2.831)"/>
          <path id="Path_190395" data-name="Path 190395" d="M225.222,64.092l1.933,6.888,19.57,57.185-9.989,106.549L157.8,238.435,193.81,82.768l-1.535-11.991Z" transform="translate(21.949 8.915)"/>
          <path id="Path_190396" data-name="Path 190396" d="M240.555,194.182s-33.911-93.36-34.9-101.085-.164-18.426,14.874-21.712c0,0-10.977,6.226-10.33,15.045s38.172,102.163,38.172,102.163Z" transform="translate(28.565 9.929)" fill="#fd521b"/>
          <path id="Path_190397" data-name="Path 190397" d="M171.056,222.579l-10.185-2.347A23.3,23.3,0,0,1,144.7,188.3l41.063-95.311a21.077,21.077,0,0,1,13.049-11.771l.949-.3Z" transform="translate(19.861 11.256)"/>
          <path id="Path_190398" data-name="Path 190398" d="M259.561,180.033l-50.745-82.96a16.878,16.878,0,0,1,7.165-24.058h0a16.88,16.88,0,0,1,21.468,6.181l61.341,96.266a20.472,20.472,0,0,1-9.015,29.738l-49.6,21.841-8.422-31.925Z" transform="translate(28.699 9.929)"/>
          <path id="Path_190399" data-name="Path 190399" d="M168.846,262.32a.572.572,0,0,1-.57-.57l-.041-50.023a.569.569,0,0,1,.552-.57l62.649-1.78a.6.6,0,0,1,.567.423l13.748,51.447a.569.569,0,0,1-.549.717l-76.355.357Zm.529-50.039.041,48.9,75.045-.351-13.44-50.3Z" transform="translate(23.4 29.123)"/>
          <path id="Path_190400" data-name="Path 190400" d="M192.67,262.393a.567.567,0,0,1-.557-.46l-9.675-49.512a.569.569,0,0,1,1.116-.219l9.675,49.512a.567.567,0,0,1-.449.667.528.528,0,0,1-.111.011" transform="translate(25.374 29.452)"/>
          <path id="Path_190401" data-name="Path 190401" d="M220.461,182.826l11.6-.691a3.534,3.534,0,0,1,3.618,3.572,3.65,3.65,0,0,1-3.545,3.877l-11.606-.193A3.155,3.155,0,0,1,217.551,186a3.219,3.219,0,0,1,2.909-3.172" transform="translate(30.26 25.333)" fill="#ed8666"/>
          <path id="Path_190402" data-name="Path 190402" d="M219.86,195.473l13.884.025a3.32,3.32,0,0,0,3.16-2.754l.07-.33a3.361,3.361,0,0,0-3.13-4.209l-13.954.305a3.387,3.387,0,0,0-3.164,3.308,3.313,3.313,0,0,0,3.135,3.655" transform="translate(30.144 26.178)" fill="#ed8666"/>
          <path id="Path_190403" data-name="Path 190403" d="M219.608,197.294h0a2.913,2.913,0,0,1,2.76-2.706l9.237-.346a3.027,3.027,0,0,1,3.052,2.607l.12.769a2.942,2.942,0,0,1-2.968,3.47l-9.355-.421a3.07,3.07,0,0,1-2.844-3.372" transform="translate(30.544 27.017)" fill="#ed8666"/>
          <path id="Path_190404" data-name="Path 190404" d="M221.421,201.962h0a2.5,2.5,0,0,1,2.28-1.995l7.628-.129a2.286,2.286,0,0,1,2.2,2.484l-.018.883a2.551,2.551,0,0,1-2.6,2.632l-7.61-.753a2.411,2.411,0,0,1-1.875-3.123" transform="translate(30.786 27.796)" fill="#ed8666"/>
          <path id="Path_190405" data-name="Path 190405" d="M221.032,188.49a2.532,2.532,0,0,0,2.675-2.43,2.64,2.64,0,0,0-2.755-2.433,2.531,2.531,0,0,0-2.675,2.43,2.641,2.641,0,0,0,2.755,2.433" transform="translate(30.361 25.541)" fill="#ffd4de"/>
          <path id="Path_190406" data-name="Path 190406" d="M220.436,194.21a2.532,2.532,0,0,0,2.675-2.43,2.64,2.64,0,0,0-2.755-2.433,2.531,2.531,0,0,0-2.675,2.43,2.641,2.641,0,0,0,2.755,2.433" transform="translate(30.278 26.337)" fill="#ffd4de"/>
          <path id="Path_190407" data-name="Path 190407" d="M222.686,199.336a2.161,2.161,0,0,0,2.36-1.95,2.253,2.253,0,0,0-2.425-1.954,2.161,2.161,0,0,0-2.36,1.95,2.253,2.253,0,0,0,2.425,1.954" transform="translate(30.637 27.183)" fill="#ffd4de"/>
          <path id="Path_190408" data-name="Path 190408" d="M223.685,204.157a1.654,1.654,0,0,0,1.721-1.622,1.725,1.725,0,0,0-1.776-1.624,1.654,1.654,0,0,0-1.72,1.622,1.724,1.724,0,0,0,1.775,1.624" transform="translate(30.866 27.945)" fill="#ffd4de"/>
          <path id="Path_190409" data-name="Path 190409" d="M219.6,189.062a.388.388,0,0,1-.38-.349.357.357,0,0,1,.383-.346l12.284.058a4.758,4.758,0,0,0,1.883-.408.432.432,0,0,1,.546.112.32.32,0,0,1-.108.48,5.521,5.521,0,0,1-2.3.511l-12.278-.057H219.6" transform="translate(30.492 26.145)"/>
          <path id="Path_190410" data-name="Path 190410" d="M221.585,195.132a.386.386,0,0,1-.38-.355.359.359,0,0,1,.39-.339l7.338.154c.54.011,3.477-.072,4.224-.147a.4.4,0,0,1,.448.306.346.346,0,0,1-.331.385c-.793.08-3.764.162-4.332.151l-7.338-.154h-.017" transform="translate(30.768 27.045)"/>
          <path id="Path_190411" data-name="Path 190411" d="M223.334,200.469a.385.385,0,0,1-.38-.359.36.36,0,0,1,.394-.336c.1,0,2.4.075,3.105.125.744.054,5.223.18,5.96.106a.4.4,0,0,1,.447.306.344.344,0,0,1-.331.385c-.816.082-5.4-.054-6.112-.1-.687-.05-3.045-.123-3.069-.123h-.013" transform="translate(31.012 27.787)"/>
          <path id="Path_190412" data-name="Path 190412" d="M222.221,12.078c0,4.8-4.5,8.687-10.042,8.687s-10.042-3.889-10.042-8.687,4.5-8.687,10.042-8.687,10.042,3.889,10.042,8.687" transform="translate(28.116 0.472)" fill="#fea41a"/>
          <path id="Path_190413" data-name="Path 190413" d="M188.678,25.642C187.1,31.66,181.463,35.4,176.1,33.984s-.4-4.194,1.188-10.213-.818-12.993,4.546-11.581,8.428,7.435,6.845,13.453" transform="translate(24.157 1.67)" fill="#fea41a"/>
          <path id="Path_190414" data-name="Path 190414" d="M207.349,7.6c1.546,4.542-2.774,10.12-9.647,12.459s-13.7.554-15.243-3.988,7.208-5.759,14.081-8.1S205.8,3.062,207.349,7.6" transform="translate(25.354 0.709)" fill="#fea41a"/>
          <path id="Path_190415" data-name="Path 190415" d="M236.292,139.876a.571.571,0,0,1-.486-.272l-18.9-30.9a.57.57,0,0,1,.973-.595l18.9,30.9a.572.572,0,0,1-.189.784.562.562,0,0,1-.3.083" transform="translate(30.158 15)" fill="#fff"/>
          <path id="Path_190416" data-name="Path 190416" d="M253.13,168.414a.57.57,0,0,1-.283-1.064l14.441-8.263a.569.569,0,0,1,.565.988l-14.441,8.264a.562.562,0,0,1-.283.075" transform="translate(35.13 22.117)" fill="#fff"/>
          <path id="Path_190417" data-name="Path 190417" d="M254.979,163.777a.579.579,0,0,1-.289-.079.571.571,0,0,1-.2-.78l5.765-9.8a.569.569,0,0,1,.981.579l-5.764,9.8a.569.569,0,0,1-.491.28" transform="translate(35.387 21.259)" fill="#fff"/>
          <path id="Path_190418" data-name="Path 190418" d="M160.6,220.017a.558.558,0,0,1-.129-.015.569.569,0,0,1-.426-.683L189.963,90.529a.57.57,0,0,1,1.111.257L161.154,219.576a.569.569,0,0,1-.555.441" transform="translate(22.259 12.531)" fill="#fff"/>
          <path id="Path_190419" data-name="Path 190419" d="M167.806,179.647l-9.636-1.805c-1.6-.3-3.159,1.4-3.457,3.786-.306,2.449.838,4.625,2.507,4.76l9.748.792c1.431.116,2.736-1.522,2.894-3.636.147-1.96-.746-3.651-2.057-3.9" transform="translate(21.513 24.732)" fill="#ed8666"/>
          <path id="Path_190420" data-name="Path 190420" d="M167.02,194.245l-11.637-1.181c-1.263-.129-2.23-1.563-2.319-3.439l-.018-.385c-.121-2.561,1.408-4.79,3.126-4.559l11.656,1.566c1.4.188,2.385,1.968,2.255,4.075-.14,2.291-1.535,4.078-3.063,3.923" transform="translate(21.287 25.686)" fill="#ed8666"/>
          <path id="Path_190421" data-name="Path 190421" d="M166.5,196.3h0c.067-1.734-.779-3.159-1.989-3.348l-7.7-1.2c-1.247-.2-2.484.981-2.869,2.727l-.193.873c-.47,2.139.525,4.177,2.073,4.242l7.889.331c1.43.06,2.708-1.6,2.786-3.622" transform="translate(21.369 26.669)" fill="#ed8666"/>
          <path id="Path_190422" data-name="Path 190422" d="M164.1,201.482h0c-.1-1.349-.8-2.377-1.673-2.489l-6.377-.813c-1.041-.133-1.992,1.053-2.136,2.662l-.091,1.014c-.157,1.766.715,3.286,1.865,3.25l6.468-.2c1.164-.035,2.08-1.648,1.944-3.422" transform="translate(21.393 27.564)" fill="#ed8666"/>
          <path id="Path_190423" data-name="Path 190423" d="M165.331,185.97a2.546,2.546,0,0,1-1.95-3.022,2.628,2.628,0,0,1,2.6-2.554,2.546,2.546,0,0,1,1.95,3.022,2.628,2.628,0,0,1-2.6,2.554" transform="translate(22.722 25.09)" fill="#ffd4de"/>
          <path id="Path_190424" data-name="Path 190424" d="M165.147,192.59a2.546,2.546,0,0,1-1.95-3.022,2.628,2.628,0,0,1,2.6-2.554,2.546,2.546,0,0,1,1.95,3.022,2.628,2.628,0,0,1-2.6,2.554" transform="translate(22.696 26.011)" fill="#ffd4de"/>
          <path id="Path_190425" data-name="Path 190425" d="M162.576,198.276a2.111,2.111,0,0,1-1.745-2.444A2.179,2.179,0,0,1,163.1,193.8a2.11,2.11,0,0,1,1.745,2.445,2.179,2.179,0,0,1-2.266,2.031" transform="translate(22.368 26.955)" fill="#ffd4de"/>
          <path id="Path_190426" data-name="Path 190426" d="M161.026,203.716a1.683,1.683,0,0,1-1.248-2.012,1.737,1.737,0,0,1,1.681-1.711,1.683,1.683,0,0,1,1.248,2.013,1.737,1.737,0,0,1-1.681,1.71" transform="translate(22.222 27.817)" fill="#ffd4de"/>
          <path id="Path_190427" data-name="Path 190427" d="M167.426,186.88a.391.391,0,0,0,.36-.368.357.357,0,0,0-.279-.429l-10.3-1.006a3.11,3.11,0,0,1-1.529-.632.3.3,0,0,0-.47.082.448.448,0,0,0,.033.559,3.642,3.642,0,0,0,1.868.788l10.3,1h.02" transform="translate(21.577 25.644)"/>
          <path id="Path_190428" data-name="Path 190428" d="M164.755,193.646a.393.393,0,0,0,.361-.375.356.356,0,0,0-.286-.424l-6.167-.462c-.453-.035-2.9-.386-3.522-.539a.366.366,0,0,0-.411.313.379.379,0,0,0,.232.47c.654.161,3.134.516,3.611.552l6.167.462h.015" transform="translate(21.52 26.684)"/>
          <path id="Path_190429" data-name="Path 190429" d="M162.4,199.563a.392.392,0,0,0,.361-.379.354.354,0,0,0-.289-.419c-.082-.006-2.018-.123-2.617-.128-.63,0-4.4-.248-5.007-.4a.365.365,0,0,0-.411.312.381.381,0,0,0,.232.472c.673.165,4.531.409,5.134.413.582,0,2.566.125,2.587.126h.01" transform="translate(21.479 27.573)"/>
          <path id="Path_190430" data-name="Path 190430" d="M192.593,26.411a7.168,7.168,0,0,0,0,10.769c3.127.89,6.989.394,11.479-3.256,0,0-4.586-6.784-11.481-7.513" transform="translate(26.45 3.674)"/>
          <path id="Path_190431" data-name="Path 190431" d="M217.157,29.586a7.024,7.024,0,0,0,2.493,7.886c6.959-.582,8.862-8.1,8.862-8.1-4.764-4.261-8.655-2.554-11.356.218" transform="translate(30.155 3.727)"/>
          <path id="Path_190432" data-name="Path 190432" d="M171.488,34.55c-1.148-3.859.675-7.773,4.072-8.74s7.083,1.377,8.231,5.236-.675,7.773-4.072,8.74-7.083-1.376-8.231-5.236" transform="translate(23.805 3.56)" fill="#ed8666"/>
          <path id="Path_190433" data-name="Path 190433" d="M181.454,34.8a.632.632,0,0,1-.419-.157l-5.947-5.2a.636.636,0,1,1,.837-.958l5.948,5.2a.637.637,0,0,1-.419,1.115" transform="translate(24.323 3.94)"/>
          <path id="Path_190434" data-name="Path 190434" d="M176.508,35.549a.635.635,0,0,1-.393-1.136l2.725-2.14a.635.635,0,1,1,.785,1l-2.724,2.14a.63.63,0,0,1-.393.137" transform="translate(24.463 4.47)"/>
          <path id="Path_190435" data-name="Path 190435" d="M142.779,139.947l22.194,132.362-109.946-.1s-.9-44.984,12.985-87.744c12.548-38.634,18.117-47.4,18.117-47.4Z" transform="translate(7.652 19.065)" fill="#fd521b"/>
          <path id="Path_190436" data-name="Path 190436" d="M74.974,156.275h67.858L140,139.809,105.61,138.06H82.72a169.58,169.58,0,0,0-7.746,18.215" transform="translate(10.428 19.203)" fill="#ffa37b"/>
          <path id="Path_190437" data-name="Path 190437" d="M112.3,49.853,106.872,75.2l16.355.76,5.9-23.015Z" transform="translate(14.865 6.934)" fill="#ffa37b"/>
          <path id="Path_190438" data-name="Path 190438" d="M76.688,151.009l65.162.72-1.735-10.1L81.586,139.62c-1.056,2.176-2.675,5.771-4.9,11.389" transform="translate(10.667 19.42)"/>
          <path id="Path_190439" data-name="Path 190439" d="M126.846,53.382,114.81,49.749l-3.115,3.383,13.136,8.113Z" transform="translate(15.536 6.92)"/>
          <path id="Path_190440" data-name="Path 190440" d="M99.021,41.529c-4.5-15.364,3.318-30.844,17.458-34.577s29.247,5.7,33.746,21.062-1.8,30.392-15.943,34.124S103.52,56.893,99.021,41.529" transform="translate(13.596 0.853)" fill="#ffa37b"/>
          <path id="Path_190441" data-name="Path 190441" d="M111.168,11.431S88.693,8.238,87.145,21.266c-1.345,11.32.6,59.338.6,59.338L102.9,81.7l.6-52.53Z" transform="translate(12.055 1.542)" fill="#5774cd"/>
          <path id="Path_190442" data-name="Path 190442" d="M98.121,11.524c-3.351,4.576-3.942,17.453,1.36,19.409,6.235,2.3,5.755-15.542,7.715-19.755a43.666,43.666,0,0,0-9.075.346" transform="translate(13.29 1.542)" fill="#fea41a"/>
          <path id="Path_190443" data-name="Path 190443" d="M77.494,122.738l-4.141,36.438,95.235-2.484,9.776,24.927a19.845,19.845,0,0,0,33.571,5.637l57.41-67.278L246.434,95.133l-44.444,53-6.106-56.172a22.846,22.846,0,0,0-22.306-20.374l-26.522-.47-24.568-1.1-38.73-1.23A24.9,24.9,0,0,0,62.591,79.366L4,162.848A21.955,21.955,0,0,0,16.813,196.8l52.878,13.089L75.573,179.2l-44.455-9.533Z" transform="translate(0 9.566)" fill="#ffb6c8"/>
          <path id="Path_190444" data-name="Path 190444" d="M148.368,153.283a.524.524,0,0,1-.084-.007.568.568,0,0,1-.48-.646l7.174-48.226a.576.576,0,0,1,.646-.478.567.567,0,0,1,.48.647L148.929,152.8a.569.569,0,0,1-.562.486" transform="translate(20.558 14.455)"/>
          <path id="Path_190445" data-name="Path 190445" d="M109.18,157.214a.513.513,0,0,1-.058,0,.568.568,0,0,1-.509-.623l8.56-86.142a.569.569,0,1,1,1.132.113l-8.56,86.143a.567.567,0,0,1-.565.513" transform="translate(15.107 9.727)"/>
          <path id="Path_190446" data-name="Path 190446" d="M67.018,118.277a.57.57,0,0,1-.383-.991l8.769-7.971a.57.57,0,0,1,.765.844l-8.769,7.97a.568.568,0,0,1-.383.148" transform="translate(9.242 15.185)"/>
          <path id="Path_190447" data-name="Path 190447" d="M75.461,103.518a.57.57,0,0,1-.57-.57A48.84,48.84,0,0,0,66.043,75.8a.57.57,0,0,1,.9-.7c.091.116,9.087,11.907,9.087,27.849a.57.57,0,0,1-.57.57" transform="translate(9.17 10.415)"/>
          <path id="Path_190448" data-name="Path 190448" d="M118.636,71.542l-9.093-9.093-7.384,8.627,8.317,14.689Z" transform="translate(14.21 8.686)" fill="#ffb6c8"/>
          <path id="Path_190449" data-name="Path 190449" d="M124.571,64.428l7.928,7.15L125.97,84.946l-9.482-13.678Z" transform="translate(16.203 8.961)" fill="#ffb6c8"/>
          <path id="Path_190450" data-name="Path 190450" d="M143.605,28.267s-8.494-10.3-19.4-2.176c0,0,10.486,8.817,19.4,2.176" transform="translate(17.276 3.195)" fill="#fff"/>
          <path id="Path_190451" data-name="Path 190451" d="M143.507,31.246l7.789-2.537-8.069,10.122Z" transform="translate(19.922 3.993)" fill="#ffa37b"/>
          <path id="Path_190452" data-name="Path 190452" d="M140.518,42.933a14.427,14.427,0,0,0-12.792-3.508s6.191,7.238,10.5,6.189c3.058-.746,2.891-2.181,2.293-2.68" transform="translate(17.766 5.442)"/>
          <path id="Path_190453" data-name="Path 190453" d="M130.065,18.287c.192-.732,2.337-.8,4.791-.157s4.286,1.762,4.093,2.495-2.337.8-4.791.157-4.285-1.762-4.093-2.495" transform="translate(18.089 2.46)"/>
          <path id="Path_190454" data-name="Path 190454" d="M142.038,14.354c-6.827-6.683-16.388-9.824-25.56-7.4-14.14,3.732-21.956,19.212-17.458,34.576a31.458,31.458,0,0,0,8.215,13.688l3.735-10.229-.8-13.064s20.5-6.585,14.482-21.865c0,0,9.534-1.66,17.381,4.3" transform="translate(13.596 0.854)" fill="#5774cd"/>
          <path id="Path_190455" data-name="Path 190455" d="M75.208,169.154l-12.625-2.825a3.933,3.933,0,0,0-4.611,3.282,4.062,4.062,0,0,0,3.205,4.894l12.791,1.854a3.511,3.511,0,0,0,3.87-3.2,3.58,3.58,0,0,0-2.63-4.005" transform="translate(8.052 23.123)" fill="#ffa37b"/>
          <path id="Path_190456" data-name="Path 190456" d="M73.907,183.214,58.642,180.77a3.7,3.7,0,0,1-2.983-3.59l-.017-.376a3.742,3.742,0,0,1,4.191-4.068l15.282,2.819a3.773,3.773,0,0,1,2.889,4.2,3.689,3.689,0,0,1-4.1,3.459" transform="translate(7.739 24.019)" fill="#ffa37b"/>
          <path id="Path_190457" data-name="Path 190457" d="M73.181,185.15h0a3.245,3.245,0,0,0-2.553-3.466l-10.089-2.025a3.371,3.371,0,0,0-3.819,2.323l-.268.824a3.274,3.274,0,0,0,2.643,4.342l10.359,1.2a3.419,3.419,0,0,0,3.727-3.2" transform="translate(7.828 24.981)" fill="#ffa37b"/>
          <path id="Path_190458" data-name="Path 190458" d="M69.936,189.912h0a2.789,2.789,0,0,0-2.153-2.6l-8.361-1.5a2.545,2.545,0,0,0-2.855,2.341l-.138.973a2.841,2.841,0,0,0,2.389,3.357l8.5.526a2.685,2.685,0,0,0,2.618-3.1" transform="translate(7.845 25.841)" fill="#ffa37b"/>
          <path id="Path_190459" data-name="Path 190459" d="M71.837,175.014a2.819,2.819,0,0,1-2.507-3.146,2.942,2.942,0,0,1,3.463-2.185,2.818,2.818,0,0,1,2.506,3.147,2.939,2.939,0,0,1-3.462,2.184" transform="translate(9.638 23.596)" fill="#ffd4de"/>
          <path id="Path_190460" data-name="Path 190460" d="M71.473,181.408a2.819,2.819,0,0,1-2.507-3.146,2.942,2.942,0,0,1,3.463-2.185,2.818,2.818,0,0,1,2.506,3.147,2.939,2.939,0,0,1-3.462,2.184" transform="translate(9.587 24.485)" fill="#ffd4de"/>
          <path id="Path_190461" data-name="Path 190461" d="M67.99,186.635a2.406,2.406,0,0,1-2.247-2.563,2.508,2.508,0,0,1,3.014-1.715A2.406,2.406,0,0,1,71,184.919a2.509,2.509,0,0,1-3.014,1.715" transform="translate(9.14 25.359)" fill="#ffd4de"/>
          <path id="Path_190462" data-name="Path 190462" d="M65.853,191.74a1.841,1.841,0,0,1-1.6-2.089,1.922,1.922,0,0,1,2.241-1.469,1.842,1.842,0,0,1,1.6,2.089,1.921,1.921,0,0,1-2.241,1.469" transform="translate(8.933 26.171)" fill="#ffd4de"/>
          <path id="Path_190463" data-name="Path 190463" d="M74.566,176.158a.431.431,0,0,0,.48-.316.4.4,0,0,0-.36-.449L61.175,173.27a5.289,5.289,0,0,1-2-.784.482.482,0,0,0-.621.026.355.355,0,0,0,.034.546,6.139,6.139,0,0,0,2.44.973l13.506,2.123.027,0" transform="translate(8.13 23.978)"/>
          <path id="Path_190464" data-name="Path 190464" d="M70.933,182.414a.428.428,0,0,0,.481-.322.4.4,0,0,0-.367-.443l-8.092-1.137c-.6-.085-3.809-.7-4.618-.915a.45.45,0,0,0-.546.257.384.384,0,0,0,.3.482c.857.229,4.108.849,4.733.939l8.093,1.137.019,0" transform="translate(8.036 24.979)"/>
          <path id="Path_190465" data-name="Path 190465" d="M67.73,187.885a.428.428,0,0,0,.482-.327.4.4,0,0,0-.374-.439c-.107-.015-2.648-.345-3.434-.416-.828-.074-5.773-.731-6.57-.944a.449.449,0,0,0-.546.256.385.385,0,0,0,.3.483c.882.235,5.945.9,6.737.974.764.067,3.369.408,3.4.411h.014" transform="translate(7.966 25.836)"/>
          <path id="Path_190466" data-name="Path 190466" d="M103.735,36.715c-1.21-4.068.712-8.192,4.293-9.213s7.464,1.451,8.675,5.52-.712,8.192-4.293,9.213-7.466-1.451-8.675-5.52" transform="translate(14.379 3.793)" fill="#ffa37b"/>
          <path id="Path_190467" data-name="Path 190467" d="M114.239,36.983a.668.668,0,0,1-.441-.165l-6.27-5.486a.67.67,0,0,1,.883-1.009l6.268,5.485a.67.67,0,0,1-.441,1.176" transform="translate(14.925 4.195)"/>
          <path id="Path_190468" data-name="Path 190468" d="M109.026,37.768a.67.67,0,0,1-.413-1.2l2.872-2.257a.67.67,0,1,1,.827,1.055l-2.872,2.255a.661.661,0,0,1-.413.144" transform="translate(15.072 4.753)"/>
          <path id="Path_190469" data-name="Path 190469" d="M142.59,28.245a16.224,16.224,0,0,0-8.844-5.12,6.407,6.407,0,0,0-1.791,7.23,12.612,12.612,0,0,0,10.635-2.11" transform="translate(18.291 3.217)"/>
          <path id="Path_190470" data-name="Path 190470" d="M137.951,45.319c3.058-.745,2.89-2.181,2.293-2.68-.372-.31-.89-.744-1.547-1.207a55.5,55.5,0,0,0-9-.017c2.194,2.021,5.586,4.556,8.258,3.9" transform="translate(18.039 5.736)" fill="#fd521b"/>
          <path id="Path_190471" data-name="Path 190471" d="M123.266,270.585a.569.569,0,0,1-.566-.521c-2.736-31.473-5.664-115.083-5.693-115.924a.57.57,0,0,1,.549-.589.586.586,0,0,1,.59.549c.028.841,2.956,84.422,5.689,115.866a.569.569,0,0,1-.518.616l-.05,0" transform="translate(16.275 21.358)"/>
          <path id="Path_190472" data-name="Path 190472" d="M71.671,164.085a.57.57,0,0,1-.008-1.139l71.7-1h.008a.57.57,0,0,1,.008,1.139l-71.7,1Z" transform="translate(9.89 22.526)"/>
          <path id="Path_190473" data-name="Path 190473" d="M112.411,162.778a3.452,3.452,0,1,1,3.451-3.453,3.456,3.456,0,0,1-3.451,3.453m0-5.765a2.313,2.313,0,1,0,2.312,2.312,2.315,2.315,0,0,0-2.312-2.312" transform="translate(15.156 21.681)"/>
          <path id="Path_190474" data-name="Path 190474" d="M110.545,85.352a.572.572,0,0,1-.5-.289l-8.315-14.69a.57.57,0,0,1,.992-.56l7.819,13.812,7.511-13.343a.569.569,0,0,1,.469-.29.56.56,0,0,1,.494.245l8.928,12.881,6.1-12.5a.569.569,0,1,1,1.023.5l-6.528,13.368a.57.57,0,0,1-.981.074L118.6,71.632l-7.559,13.43a.569.569,0,0,1-.5.29Z" transform="translate(14.14 9.67)"/>
          <path id="Path_190475" data-name="Path 190475" d="M221.018,101.726S227.8,93.581,232.459,90.9c3.6-2.079,12.562-3.406,15.721-5.44s10.136-4.483,12.592-4.012c4.72.907-.47-1.031.5,2.589.057.207-7.045,7.84-7.2,8-1.811,1.853,3.284-.228,6.51-.185,2.651.036,4,1.055,4.136,1.293,1.565,2.738-3.612,2.86-6.155,4.283-8.352,4.674-12.474,4.248-18.461,3.008-1.023-.212-9.361,11.842-9.361,11.842Z" transform="translate(30.742 11.32)" fill="#f7b386"/>
          <path id="Path_190476" data-name="Path 190476" d="M249.562,89.267c-.451-.448-2.613-4.158-2.613-4.158-.007.29,8.424-3.373,9.991-3.948,2.549-.935,6.284-2.355,8.56-3.446a2.376,2.376,0,0,1,3.107,1,2.533,2.533,0,0,1-.825,3.332l-9.227,3.9Z" transform="translate(34.349 10.777)" fill="#f7b386"/>
          <path id="Path_190477" data-name="Path 190477" d="M251.056,88.293c1.52,1.767-.861,3.025-2.123,4.5-.709.827.147,3.081.8,3.737a1.891,1.891,0,0,0,2.708-.286,15.207,15.207,0,0,0,4.029-8.405c.343-2.867-.649-4.49-1.689-5.389-.876-.759-1.583-.016-2.82.249L247.9,84.249Z" transform="translate(34.481 11.422)" fill="#f7b386"/>
          <path id="Path_190478" data-name="Path 190478" d="M249.08,89.46a.365.365,0,0,1-.23-.649c1.286-1.032,7.195-3.314,7.445-3.41a.365.365,0,0,1,.262.681c-.06.023-6.053,2.336-7.249,3.3a.365.365,0,0,1-.228.08" transform="translate(34.595 11.875)"/>
          <path id="Path_190479" data-name="Path 190479" d="M248.853,92.026a.365.365,0,0,1-.06-.724l6.19-1.047a.359.359,0,0,1,.421.3.366.366,0,0,1-.3.42l-6.191,1.047a.272.272,0,0,1-.06.006" transform="translate(34.563 12.553)"/>
          <path id="Path_190480" data-name="Path 190480" d="M257.181,92.468c-1.4.58-2.229,1.834-1.871,2.817,2.089-.72,4.609-1.172,4.9-2.467a2.694,2.694,0,0,0-3.032-.35" transform="translate(35.5 12.822)" fill="#ffd4de"/>
          <path id="Path_190481" data-name="Path 190481" d="M221.711,96.491l-1.991,2.287,11.388,12.349,3.519-4.96Z" transform="translate(30.562 13.421)"/>
          <path id="Path_190482" data-name="Path 190482" d="M26.617,156.257a.582.582,0,0,1-.18-.028l-7.782-2.595a.57.57,0,1,1,.36-1.081l7.782,2.594a.57.57,0,0,1-.18,1.111" transform="translate(2.541 21.215)"/>
          <path id="Path_190483" data-name="Path 190483" d="M26.029,157.737a.51.51,0,0,1-.072,0l-10.359-1.3a.569.569,0,1,1,.142-1.13L26.1,156.6a.57.57,0,0,1-.071,1.135" transform="translate(2.1 21.601)"/>
          <path id="Path_190484" data-name="Path 190484" d="M169.028,151.482a.57.57,0,0,1-.451-.917l9.53-12.4a.57.57,0,0,1,.9.695l-9.531,12.4a.566.566,0,0,1-.451.222" transform="translate(23.432 19.187)"/>
          <path id="Path_190485" data-name="Path 190485" d="M155.714,101.335a.558.558,0,0,1-.19-.033.57.57,0,0,1-.347-.727l7.971-22.519a.57.57,0,0,1,1.075.38l-7.971,22.519a.572.572,0,0,1-.538.379" transform="translate(21.58 10.804)"/>
        </g>
      </g>
    </g>
  </g>
</svg>
