<svg xmlns="http://www.w3.org/2000/svg" xmlns:xlink="http://www.w3.org/1999/xlink" width="414" height="305" viewBox="0 0 414 305">
  <defs>
    <clipPath id="clip-path">
      <rect id="Rectangle_41163" data-name="Rectangle 41163" width="243.82" height="248.372" fill="none"/>
    </clipPath>
    <clipPath id="clip-path-2">
      <rect id="Rectangle_41162" data-name="Rectangle 41162" width="243.82" height="21.935" fill="none"/>
    </clipPath>
    <clipPath id="clip-path-3">
      <rect id="Rectangle_47472" data-name="Rectangle 47472" width="169" height="175" transform="translate(0.41 0.5)" fill="#8284d2"/>
    </clipPath>
    <clipPath id="clip-path-4">
      <rect id="Rectangle_47471" data-name="Rectangle 47471" width="198.791" height="175" fill="none"/>
    </clipPath>
  </defs>
  <g id="_14" data-name="14" transform="translate(-519 8795)">
    <rect id="Rectangle_47469" data-name="Rectangle 47469" width="414" height="305" rx="11" transform="translate(519 -8795)" fill="#ffe891"/>
    <g id="Group_176469" data-name="Group 176469" transform="translate(-1 2)">
      <g id="Group_176467" data-name="Group 176467" transform="translate(-247 -13205)">
        <rect id="Rectangle_41014" data-name="Rectangle 41014" width="244" height="251" transform="translate(810 4426)" fill="#b1b1b1"/>
        <g id="Group_165952" data-name="Group 165952" transform="translate(810 4428.479)">
          <g id="Group_165954" data-name="Group 165954">
            <path id="Path_152995" data-name="Path 152995" d="M0,150.807l9.181,85.935h222.57l12.069-85.935Z" transform="translate(0 11.63)" fill="#fff"/>
            <g id="Group_165950" data-name="Group 165950">
              <g id="Group_165949" data-name="Group 165949" clip-path="url(#clip-path)">
                <path id="Path_152996" data-name="Path 152996" d="M72.923,12.948c-.182,1.567.453,3.371-1.3,4.48-3.895,1.062-7.766.041-11.568-.439-4.2-.529-5.959-4.011-4.185-7.881,1.523-3.321,1.291-8.028,6.3-8.933,6.91-.028,9.7,2.495,10.188,9.122.089,1.225.372,2.434.564,3.651" transform="translate(4.256 0.013)" fill="#956335"/>
                <path id="Path_152997" data-name="Path 152997" d="M62.374.187c-3.9,2.712-3.226,7.645-5.358,11.286-1.107,1.891.874,4.442,3.217,4.543,3.924.171,7.6,2.083,11.59,1.424-1.584,1.507-3.576.816-5.4,1l-2.153-.095c-2.977.485-5.707-.966-8.6-1.1-1.331-2.292-4.829-4.185-2.112-7.362,2.834-3.314.742-11.189,8.825-9.692" transform="translate(4.052 0)" fill="#ecd7b1"/>
                <path id="Path_152998" data-name="Path 152998" d="M178.616,145.578c-7.458-.4-13.729-4.2-20.275-7.2-4.59-2.1-4.816-5.5-.515-8.344a54.608,54.608,0,0,0,6.017-4.459c4.885-4.3,6.76-4.224,11.359.185a6.157,6.157,0,0,0,2.671,2.115c-6.786-10.326-10.233-20.8-6.757-32.552,2.458-.988,2.721,1.067,3.086,2.471.771,2.973,2.737,2.262,4.651,1.718,2.213-.629,2.492-2.248,2.059-4.247-.908-4.2-3.794-7.7-4.268-12.063,4.718-5.978,6.5-6.407,12.561-3.046a6.022,6.022,0,0,1,1.635,1.832,58.609,58.609,0,0,0,6.019,13.349c.365,1.185,1.392,2.305,1.121,3.53-1.426,6.436-.944,12.326,3.614,17.613,1.525,1.77.34,3.709-1.5,5.01a4.928,4.928,0,0,0,2.545.017c4.6-.456,4.682-.679,2.327-4.905a3.042,3.042,0,0,1-.357-2.064c1.174-2.178,3.322-3.209,5.41-4.04,3.506-1.4,3.39-3.33,1.707-6.15-1.42-2.378-3.418-4.589-3.276-7.674,1.423-4.414,4.143-6.081,8.6-4.063,4.667,5.407,9.273,10.852,9.99,18.417.373,3.931,3.645,6.49,4.838,10.039q-.045,10.313-.092,20.627a4.4,4.4,0,0,1-2.233,2.166,9.238,9.238,0,0,1-2.094.264c-10.1.321-10.1.322-13.657-9.174a9.129,9.129,0,0,0-1.283-2.369c-.671,2.092-.26,4.3-1.816,5.7a1.9,1.9,0,0,1-2.413-.3c-3.783-4.352-9.171-5.463-14.256-7.194-2.648-1.548-4.874-4.5-8.58-2.387-3.958,2.255-3.88,6.364-3.91,9.9-.033,3.835,3.83,1.687,5.811,2.592a117.865,117.865,0,0,1,16.563-.494c2.328.028,4.679.093,6.335,2.154" transform="translate(11.934 6.02)" fill="#eed8b3"/>
                <path id="Path_152999" data-name="Path 152999" d="M0,138.911c1.387-1.439,3.178-1.3,4.976-1.358,8.687-.273,17.461,1,26.032-1.469a6.356,6.356,0,0,1,3.19-.074c6.106,1.513,12.239,1.207,18.392.449,1.313.238,2.657.215,3.977.414,5.088,1.281,10.275.711,15.409.657,11.908-.124,23.826.609,35.71-.446.6-.041,1.2-.084,1.8-.165a63.458,63.458,0,0,0,8.417-.081c3.9.821,7.782,0,11.685-.122a9.474,9.474,0,0,1,1.856.158,64.526,64.526,0,0,0,22.485.4c11.984-1.993,23.38,1.019,35.027,1.84q14.716.1,29.43.182c1.382.005,2.922.292,3.776-1.308.219-.223.438-.446.656-.673a4.458,4.458,0,0,1,4.57-.362c4.638,2.69,9.48,1.786,14.336,1.179l2.008-.9" transform="translate(0 10.476)" fill="#fcfcfc"/>
                <path id="Path_153000" data-name="Path 153000" d="M124.044,47.928c.728,6.026-4.777,8.048-7.59,11.8-1.765,1.729-3.535,1.726-5.308.012-1.356-2.779-5.171-2.562-6.523-5.349,1.679-1.864,3.648-.931,5.493-.475a6.15,6.15,0,0,0,6.983-2.735c1.507-2.136,1.121-3.962-1.29-5.32-5.334-3.006-7.394-2.706-12.078,1.954a3.616,3.616,0,0,1-2.318,1.2c-.892-5.179,1.706-8.769,5.4-11.859l2.156-1.087c2.512-1.547,5.019-1.093,7.526.015,6.064,1.688,6.259,7.112,7.546,11.842" transform="translate(7.807 2.705)" fill="#f1e8d4"/>
                <path id="Path_153001" data-name="Path 153001" d="M162.5,40.7c3.383-2.473.977-6.835,3.168-9.7,1.456.86,1.507,2.355,1.721,3.771.585,2.7-.3,5.237-.883,7.82-1.033,4.566-.08,5.9,4.471,6.167,2.466.143,4.972.265,7.263-.979,3.811-1.783,5.5-5,6.063-8.972.965-2.152-1.223-4.666.754-6.7l3.281,2.124c5.34,10.578.022,19.39-11.686,19.395-3.21,0-6.512-.364-9.6.265-4.358.885-5.426-1.168-5.653-4.776A23.872,23.872,0,0,1,162.5,40.7" transform="translate(12.444 2.391)" fill="#f1e8d4"/>
                <path id="Path_153002" data-name="Path 153002" d="M184.751,32.475c.665,2.548,1.551,5.07.921,7.771-3.548-.855-5.865-4.264-9.649-4.627-3.605-4.019-7-.587-10.463.3q-.1-2.276-.2-4.554c3.315-5.8,5.6-6.5,10.75-2.609,2.657,2.009,6.437.964,8.64,3.719" transform="translate(12.753 2.03)" fill="#ecd7b2"/>
                <path id="Path_153003" data-name="Path 153003" d="M79.041,71.13l4.342,2.043c2.1-.809,2.294,1.209,3.209,2.159C90.281,73.186,94.325,73,98.439,73.18c6.549-3.662,14.173.181,15.962,8.074-.315-3.616,1.372-5.92,4.655-6.887,3.9-1.149,7.752-1.476,10.773,2.106-.962,3.66-4.814,6.364-3.586,10.763-1.295,3.66-.486,7.462-.6,11.182-.093,3.089,2.518,4.495,5.064,5.6,3.79,2.436,8.357-.731,12.145,1.667,2.109,8.487,8.432,13.388,15.253,17.849,4.354.983,8.491.585,12.2-2.08,1.305-.939,2.617-2.174,2.268-3.938-.407-2.051-2.371-.866-3.575-1.317-5.446-2.041-11.039-3.861-14.148-9.416a2.852,2.852,0,0,1,.429-1.437c3.822-1.943,6.754,1.183,10.1,1.86,5.764,1.165,9.59-.313,11.492-4.961,1.775-4.339-.026-7.725-4.66-8.748a5.911,5.911,0,0,1-1.574-.253c-5.866-3.324-10.954-2.978-14.905,3.046a2.725,2.725,0,0,1-2.787-1.327c-.644-1.388-.074-2.783-.041-4.179,2.571-6.648,6.765-11.238,14.472-11.354a5.791,5.791,0,0,1,2.193,1.315c6.806,2.988,12.056.643,16.888-4.431,5.864-6.156,9.135-5.508,13.116,2.084.413.786.809,1.581,1.213,2.372-.02.372-.04.742-.06,1.114-5.011-4.485-8.14.941-12.044,2.285-2.959,3.269-2.665,7.96-5.026,11.491-1.351,6.829,1.535,13.417,1.165,20.219-.117,2.157,1.4,4.236,3.035,5.522,4.33,3.4,3.274,7.676,2.867,12.079-2.123-.234-1.693-1.933-2.313-2.878-4.622-7.049-6.657-7.344-12.723-1.594a14.031,14.031,0,0,1-4.9,3.2c-1.314.473-3.115.637-2.892,2.553a3.24,3.24,0,0,0,3.39,2.88c3.647-.116,5.881,1.73,8.1,4.34,2.471,2.9,6.726-.208,9.54,2.23-8.167-.135-16.411-.748-24.472-.532-9.745.261-19.526.453-29.29.706-1.88.048-3.965.616-5.553-1.074,2.08-2.469,4.968-2.179,7.747-2.272,3.311-.109,6.639.248,9.92-.381a36.421,36.421,0,0,0,3.645-.721c4.866-1.843,5.27-3.48,1.44-6.914-3.467-3.107-6.1-6.965-9.444-10.188-2.6-2.505-4.79-2.462-6.333.655-1.8,3.644-5.979,5.743-6.437,10.184-.444,3.18,1.4,6.5-.576,9.585-3.9.984-7.8,1.8-11.7-.032a1.243,1.243,0,0,1-.39-.952c.989-6.746.991-6.745-6.459-6.84-.277,2.569,2.152,5.512-.738,7.777a7.262,7.262,0,0,1-1,.1c-.222-.126-.443-.251-.667-.374-2.183-3.885-4.336-7.658-8.9-9.469-6.217-2.467-10.032-1.507-13.375,4.286-1.708,2.961-3.511,3.912-6.31,1.489a5.7,5.7,0,0,1-.919-1.178c-1.4-3.826-2.61-7.786-6.722-9.754-3.352-2.9-5.674-1.855-9.049.853-4.775,3.831-6.791,9.12-9.849,13.886q-26.45,1.472-52.94,1.265c.195-2.618-.737-5.349.778-7.836a20.247,20.247,0,0,0,16.052,4.916c5.08-.569,7.142-4.321,4.347-8.826-4.164-6.709-9.809-8.2-16.876-4.424a6.576,6.576,0,0,1-3.47,1.223c-1.923-2.75-.739-5.791-.815-8.713,3.164-1.093,5.945-3.118,9.454-3.42,2.911-.251,2.33-2.811,2.2-4.607A15.408,15.408,0,0,1,15.485,102.2c2.557-3.6,5.487-5.988,10.207-5.285,4.457.663,7.729-.157,7.5-5.813-.052-1.267,1.094-2.583,1.689-3.877-.535-1.935.411-2.84,2.2-3.165l6.435-2.229c.4-1.754,2.038-1.612,3.258-2.109l3.2-2.2c.965-2.469,1.989-4.837,5.4-3.227.69.068,1.629-.131,2.034.245,4.233,3.921,6.567,1.051,8.793-2.346.753-1.274,1.909-1.347,3.184-1.064l4.294-.1c1.822-1.691,3.612-1.671,5.369.1" transform="translate(0.022 5.382)" fill="#f1e8d4"/>
                <path id="Path_153004" data-name="Path 153004" d="M209.643,87.049a7.366,7.366,0,0,0,3.212,3.213l1.118,3.223c-4.326-2.539-6.025.442-7.629,3.626a14.289,14.289,0,0,1-1.449,2.217c-4.645,4.147-5.918,8.9-2.764,14.515,1.1,2.468,3.254,3.543,6.21,3.645-5.605,6.482-8.646,7.082-15.771,3.28,1.946-.99,4.8-.055,5.38-2.478.572-2.373-2.016-3.074-3.07-4.607a14.414,14.414,0,0,1-1.8-13.252,4.639,4.639,0,0,0-.663-4.783c6.435,2.609,7.509-3.756,10.783-6.435,1.355-3.083,3.622-3.448,6.443-2.163" transform="translate(14.825 6.66)" fill="#f2e8d4"/>
                <path id="Path_153005" data-name="Path 153005" d="M192.284,125.825c6.4,1,12.621,2.323,15.656,9.108,1.542,1.244,1.288,2.551.138,3.89l-.06-.046a175.136,175.136,0,0,1-24.638.149,24.184,24.184,0,0,1,3.28-10.271c1.186-1.933,2.882-3.622,5.625-2.829" transform="translate(14.142 9.688)" fill="#906137"/>
                <path id="Path_153006" data-name="Path 153006" d="M170.546,94.627c-.32-4.7-1.252-9.671,5.026-11.491,5,3.084,4.82,8.855,6.684,13.479a3.439,3.439,0,0,1-3.777,4.565c-2.428-.222-4.395.994-6.686,1.36-.813-2.676.446-5.543-1.246-7.914" transform="translate(13.134 6.412)" fill="#a36e39"/>
                <path id="Path_153007" data-name="Path 153007" d="M192.79,126.122c-3.424,2.176-6.234,4.712-5.694,9.321.278,2.372-2.14,2.517-3.211,3.779-.891.069-1.786.107-2.672.213-3.594.433-5.568-.3-3.649-4.483a9.538,9.538,0,0,0,.637-4.208c-.174-4.508,2.438-6.957,6.174-8.458,4.022-1.616,6.374.874,8.416,3.836" transform="translate(13.636 9.392)" fill="#a26c37"/>
                <path id="Path_153008" data-name="Path 153008" d="M201.751,113.073c-8.02-5.773-4.869-11.137,4.213-16.733,2.881,2.323,3.795,5.98,5.913,8.844,1.237,1.673.679,4.373-1.686,4.726-3.13.467-5.3,3.046-8.44,3.162" transform="translate(15.205 7.43)" fill="#a36d38"/>
                <path id="Path_153009" data-name="Path 153009" d="M206.34,138.933q-.068-1.945-.137-3.888c.572-3.476.087-6.961-.3-10.843a9,9,0,0,1,6.175,7.86c.791,5.883,3.873,7.893,9.48,6.972a25.622,25.622,0,0,1,4.284,0c-6.513,2.625-13,.142-19.5-.1" transform="translate(15.879 9.578)" fill="#f2e8d4"/>
                <path id="Path_153010" data-name="Path 153010" d="M49.7,139.217c-1.266-9.735,7.434-13.131,12.4-18.67,2.654-2.96,5.316.916,7.589,2.736,2.873,3.187,4.231,7.292,6.552,10.813l-.037-.052c1.311,1.8,1.978,3.63.2,5.544-8.354.959-16.774-.364-25.128.689L49.7,139.217" transform="translate(3.823 9.214)" fill="#986637"/>
                <path id="Path_153011" data-name="Path 153011" d="M102.625,138.667c1.177-3.841-1.337-6.694-2.936-9.973,2.4.208,4.495.365,6.589.579,2.3.236,5.187-1.257,6.544,1.928,1.366,3.208-.737,5.333-2.609,7.481-2.53.564-5.061,1.442-7.587-.015" transform="translate(7.688 9.925)" fill="#a3703e"/>
                <path id="Path_153012" data-name="Path 153012" d="M51.158,139.015l25.025-.921c1.914-1.968,4.524-1.959,6.916-2.086,5.637-.3,11.29-.15,16.938-.061a7.134,7.134,0,0,1,5.238,2.14l.092.128a7.84,7.84,0,0,1-2.446.884q-25.882.016-51.762-.084" transform="translate(3.945 10.475)" fill="#f1e8d4"/>
                <path id="Path_153013" data-name="Path 153013" d="M1.317,125.479c5.18-6.958,12.542-6.721,19.061-1.253,4.907,4.116,3.632,8.955,4.452,13.684.275,1.584-1.085,1.644-2.1,1.654-5.169.057-10.385.459-15.49-.108-3.459-.383-4.049-4.472-5.976-6.862q.026-3.561.052-7.115" transform="translate(0.098 9.269)" fill="#8e5e33"/>
                <path id="Path_153014" data-name="Path 153014" d="M101.4,48.622c1.192-1.983,2.323-4.007,3.593-5.94,1.61-2.45,3.55-3.562,6.089-1.078a4.888,4.888,0,0,0,3.3,1.581c4.156.142,6.481,2.184,5.756,6.423-.691,4.04-6.165,7.2-9.925,5.973-1.852-.6-3.535-1.741-5.6-1.584-2.036-1.216-2.836-3.168-3.211-5.374" transform="translate(7.82 3.101)" fill="#eed9b3"/>
                <path id="Path_153015" data-name="Path 153015" d="M127.538,80.29c.554-6,4.818-8.679,9.688-10.82,3.615-.745,6.112-3.439,9.081-5.288,6.042-3.762,9.474-2.761,11.426,4.149,1.188,4.207,1.482,8.667,2.178,13.012l-2.233.008c-2.472-1.722-2.564-4.46-3.165-7.054-1.043-4.493-2.745-5.187-6.813-3.008-1.408.755-2.751,1.63-4.142,2.421-8.029,4.565-9.47,9.244-5.43,17.606.581,3.117,2.469,4.429,5.59,4.047l2.109,1.075c1.542,2.872,1.218,5.453-1.192,7.712-2.231.321-3.021-1.78-4.539-2.67-2.875-1.743-6.48-2.039-8.993-4.507a23.9,23.9,0,0,1-5.018-7.873c-.777-3.146-1.015-6.2,1.452-8.81" transform="translate(9.683 4.783)" fill="#f1e8d3"/>
                <path id="Path_153016" data-name="Path 153016" d="M176.234,33.9c4.444-.247,7.345,1.967,9.238,5.787-.737,4.061-2.18,7.645-6.345,9.392a3.243,3.243,0,0,1-2.509.561c-3.12-.3-7.038,1.351-8.453-3.285-.95-3.11,1.516-10.237,4.093-12.065a3.651,3.651,0,0,1,3.976-.391" transform="translate(12.953 2.583)" fill="#8d5d32"/>
                <path id="Path_153017" data-name="Path 153017" d="M176.586,34.109c-3.4,1.555-7.436,9.4-6.566,12.628a3.016,3.016,0,0,0,3.063,2.436c2.129.09,4.263.082,6.4.115-4.235,1.963-8.8,1.037-13.07.785-3.936-.232-3.2-4.132-2.361-6.8.8-2.544,2.1-4.913,1.664-7.7,4.051-5.914,5.723-6.14,10.874-1.459" transform="translate(12.6 2.378)" fill="#a5703c"/>
                <path id="Path_153018" data-name="Path 153018" d="M33.711,124.434c3.544-4.295,6.667-4.05,10.174-.122a11.5,11.5,0,0,0,6.663,3.3,17.956,17.956,0,0,0-5.037,10.26c-.563,3.958-3.049,3.892-5.193,1.775a11.674,11.674,0,0,0-6.393-3.374,5.166,5.166,0,0,1-4.457-5.34c.3-3.957-1.914-5.777-4.805-7.53a27.231,27.231,0,0,1-5.554-4.179c-2.617-2.718-4.16-5.567.492-8.137a6.47,6.47,0,0,0,3.333-6.308,4.169,4.169,0,0,1,3.678-4.591c2.4-.366,5.078-.97,6.835,1.672a5.12,5.12,0,0,0,.284.455c7.86,9.345,7.848,10.625-.023,22.123" transform="translate(1.281 7.701)" fill="#eed8b3"/>
                <path id="Path_153019" data-name="Path 153019" d="M94.468,110.013c-.138-5.966,6.742-13.1,11.687-13.51,1.789-.149,2.178.771,2.523,2.024,2.012,7.3,7.9,9.98,14.39,11.165,4.674.855,3.839,2.962,1.972,5.347a58.555,58.555,0,0,1-7.076,7.324c-4.512,4.05-7.441,3.511-10.164-1.838-1.125-2.209-2.721-2.869-5.083-3.168-4.814-.606-7.234-3.929-8.25-7.345" transform="translate(7.285 7.441)" fill="#eed8b3"/>
                <path id="Path_153020" data-name="Path 153020" d="M142.658,102.06q.942-3.744,1.883-7.487c.838-1.564,1.565-3.2,2.538-4.675,2.055-3.12,4.338-5.668,7.91-1.62a6.4,6.4,0,0,0,4.76,2.038c6.494.417,9.727,3.523,9.038,8.455-.863,6.173-6.36,10.788-12.017,9.561-4.318-.937-8.474-2.624-12.7-3.977-1.282-.266-2.424-.619-1.41-2.3" transform="translate(10.972 6.647)" fill="#eed8b3"/>
                <path id="Path_153021" data-name="Path 153021" d="M94.537,77.126c6.181.106,11.634,7.011,10.137,13.068a20.331,20.331,0,0,1-2.411,5.935c-6.8,10.751-12.249,6.8-18.8-.506-1.636-1.827-.478-4.635.687-5.348,5.183-3.167,1.422-13.208,10.391-13.148" transform="translate(6.374 5.948)" fill="#eed8b2"/>
                <path id="Path_153022" data-name="Path 153022" d="M62.1,94.975c2.125,2.277,4.12,4.536,2.567,8.056-.785,1.78.706,2.916,1.594,4.257,2.9,4.379,2.033,7.98-2.885,9-4.051.838-4.575,6.284-8.211,5.932-3.146-.306-3.479-5.548-7.692-6-2.657-.285-4.651-2.345-4.472-5.72.187-3.541-4.254-4.764-4.479-8.209,3.5-1.828,7.433-.256,11.01-1.433,5.665,1.2,9.6-1.3,12.567-5.881" transform="translate(2.971 7.325)" fill="#eed8b3"/>
                <path id="Path_153023" data-name="Path 153023" d="M136.627,91.874c-5.841-6.942-4.089-15.188,4.036-19.322a58.659,58.659,0,0,0,5.958-3.583c4.8-3.208,8.451-1.71,9.269,4.146.365,2.616.377,5.28,1.2,7.827-6.448.976-10.724,4.582-12.947,10.675q-3.585,5.181-7.516.256" transform="translate(10.271 5.191)" fill="#916034"/>
                <path id="Path_153024" data-name="Path 153024" d="M57.493,84.511c1.731.638,1.982-.218,2.253-1.771,1.121-6.427,3.141-7.154,8.3-2.929a5.1,5.1,0,0,0,3.844,1.447c5.266-.485,8.115,2.3,9.17,7.054.78,3.517-3.091,8.629-7.156,10.3a8.726,8.726,0,0,1-9.934-1.692c-.876-.778-1.438-2.911-3.356-1.4-5.047-2.408-5.982-5.713-3.116-11.016" transform="translate(4.31 5.951)" fill="#eed8b2"/>
                <path id="Path_153025" data-name="Path 153025" d="M144.677,104.065c3.751,2.379,7.474,4.8,11.269,7.11a6.987,6.987,0,0,0,4.12.864c1.451-.082,3.256-2.044,4.276-.118,1.144,2.16.505,4.618-1.107,6.518-4.4,5.181-10.045,5.481-16.118,3.916-2.724-2.047-4.755-4.787-7.175-7.133-4.68-4.539-3.968-8.517,2.14-11.071a3.314,3.314,0,0,1,2.595-.086" transform="translate(10.558 8.008)" fill="#8c5d33"/>
                <path id="Path_153026" data-name="Path 153026" d="M120.42,139.451c-.818-3.218-1.913-6.4-1.136-9.808a40.641,40.641,0,0,0,5.737-7.673c2-3.223,4.768-3.788,7.6-1.27a42.146,42.146,0,0,1,8.78,10.682c1.464,2.584,1.381,5.154-1.5,6.964-6.324,3.048-12.951,1.018-19.448,1.159Z" transform="translate(9.179 9.187)" fill="#8d5d33"/>
                <path id="Path_153027" data-name="Path 153027" d="M50.5,103.181c-3.928,2.163-7.861,1.731-11.794.016-5.165-8.157-2.636-15.824,6.324-19.168,4.24-2.056,6.863-.131,8.492,3.655a34.1,34.1,0,0,1,2.223,9.361c.464,3.762-1.808,5.528-5.245,6.136" transform="translate(2.781 6.416)" fill="#8c5d33"/>
                <path id="Path_153028" data-name="Path 153028" d="M103.49,138.851,74.4,138.86q-.048-2.656-.1-5.313c2.31,1.549,4,2.584,4.918-1.6.881-4.034,4.194-5.862,8.408-6.016,8.489-.312,15.327,5.2,15.864,12.925" transform="translate(5.73 9.711)" fill="#eed8b2"/>
                <path id="Path_153029" data-name="Path 153029" d="M89.841,118.594c.9,2.3-.418,3.291-2.636,3.941a48.014,48.014,0,0,0-7.029,2.569c-2.352,1.113-4.517,3.51-7.08.6-2.376-2.7-3.545-5.735-2.043-9.356A11.007,11.007,0,0,1,82.94,110.1c5.31.871,6.756,2.606,6.9,8.493" transform="translate(5.428 8.48)" fill="#eed8b3"/>
                <path id="Path_153030" data-name="Path 153030" d="M128.441,88.155a11.353,11.353,0,0,1,4.193,6.508c-1.552,9.011-3.5,10.659-11.71,9.931-6.438-3.2-8.637-12.517-4.391-18.6,4.6-2.768,8.31-.6,11.909,2.162" transform="translate(8.819 6.533)" fill="#a36e39"/>
                <path id="Path_153031" data-name="Path 153031" d="M139.889,138.742c1.6-2.664,1.142-5.2-.684-7.494-2.227-2.8-4.609-5.467-6.913-8.2-2.752-3.264-5.042-2.788-7.051.791-1.445,2.575-2.113,5.938-5.976,6.2,1.443-6.356,7.3-9.888,9.992-15.5.68-1.42,2.161.335,3.025,1.058a50.678,50.678,0,0,1,8.474,8.954c1.164,1.594,2.22,3.369,4.072,4.191,2.225.99,4.348,1.766,3.488,4.946-.753,2.779-2.313,4.3-5.289,4.367a15.928,15.928,0,0,0-3.138.69" transform="translate(9.198 8.792)" fill="#a26e39"/>
                <path id="Path_153032" data-name="Path 153032" d="M49.861,103.507c2.231-1.774,5.055-3.421,3.3-6.916-2.265-4.522.36-12.63-8.775-12.236.962-.731,1.9-1.506,2.892-2.189,6.716-4.6,6.9-4.562,11.1,2.206-.041,3.977.019,7.925,3.116,11.016a1.322,1.322,0,0,0,.148.822c-1.588,7.559-1.925,7.767-11.783,7.3" transform="translate(3.423 6.09)" fill="#a36d38"/>
                <path id="Path_153033" data-name="Path 153033" d="M91.27,105.068c0,3.421-.659,4.726-4.333,2.495-5.078-3.085-9.988-.681-14.71,1.693-.975.49-1.95,2.271-3.155.764-1.253-1.566-1.312-3.664-1.439-5.638-.122-1.881,1.228-1.721,2.5-1.931,1.566-.261,3.618-.324,4.533-1.322,5.186-5.655,9.828-2.624,14.744.338,1.607.968,2.668,1.7,1.865,3.6" transform="translate(5.215 7.554)" fill="#916136"/>
                <path id="Path_153034" data-name="Path 153034" d="M145.144,104.592c-.707.53-1.4,1.084-2.123,1.586-6.237,4.324-6.181,4.659-.794,9.746,2.11,1.994,4.977,3.568,5.357,6.958-2.415.18-4.074-1.076-5.4-2.9a38.455,38.455,0,0,0-9.047-9.08c-2.849-2-3.076-3.994-.556-6.347.476-5.864,1.468-6.728,8.66-7.539l2.293,4.212q.706,1.149,1.411,2.3l.194,1.07" transform="translate(10.09 7.482)" fill="#a36d38"/>
                <path id="Path_153035" data-name="Path 153035" d="M128.363,88.751c-4.275.964-7.684-2.844-11.909-2.162-2.07-6.452-1.535-7.628,4.38-9.618q3.747,1.081,7.49,2.164l.039,9.615" transform="translate(8.896 5.936)" fill="#edd8b3"/>
                <path id="Path_153036" data-name="Path 153036" d="M142.047,97.25a13.484,13.484,0,0,0-8.66,7.539c-4.271-.892-8.751,1.193-12.935-.908,4.646.192,8.279-.751,8.762-6.47.1-1.228,1.92-2.31,2.949-3.46l9.884,3.3" transform="translate(9.289 7.246)" fill="#edd8b3"/>
                <path id="Path_153037" data-name="Path 153037" d="M136.38,90.134c2.523.424,5.086,2.047,7.516-.256l-1.011,3.335c-3.821,3.067-5.046,2.487-6.5-3.078" transform="translate(10.518 6.931)" fill="#edd8b3"/>
                <path id="Path_153038" data-name="Path 153038" d="M74.8,133.822c-3.74-2.663-5.348-6.616-6.552-10.813,4.224,2.37,6.232,6.08,6.552,10.813" transform="translate(5.263 9.487)" fill="#eed8b3"/>
                <path id="Path_153046" data-name="Path 153046" d="M0,0H243.73V16.12H0Z" transform="translate(0 146.317)" fill="#fff"/>
                <path id="Path_153047" data-name="Path 153047" d="M0,0H243.73V8.06H0Z" transform="translate(0 154.377)" fill="#f2efef"/>
                <path id="Path_153039" data-name="Path 153039" d="M40.9,236.742H16.732L4.649,150.807H28.815Z" transform="translate(0.359 11.63)" fill="#e54253"/>
                <path id="Path_153040" data-name="Path 153040" d="M75.9,236.742H51.731L39.648,150.807H63.815Z" transform="translate(3.058 11.63)" fill="#e54253"/>
                <path id="Path_153041" data-name="Path 153041" d="M107.66,236.742H83.493l-6.042-85.935h24.166Z" transform="translate(5.973 11.63)" fill="#e54253"/>
                <path id="Path_153042" data-name="Path 153042" d="M184.518,236.742h24.166l12.083-85.935H196.6Z" transform="translate(14.23 11.63)" fill="#e54253"/>
                <path id="Path_153043" data-name="Path 153043" d="M149.519,236.742h24.166l12.083-85.935H161.6Z" transform="translate(11.531 11.63)" fill="#e54253"/>
                <path id="Path_153044" data-name="Path 153044" d="M117.324,236.742H141.49l6.042-85.935H123.366Z" transform="translate(9.048 11.63)" fill="#e54253"/>
                <g id="Group_165948" data-name="Group 165948" transform="translate(0 162.437)" opacity="0.15">
                  <g id="Group_165947" data-name="Group 165947">
                    <g id="Group_165946" data-name="Group 165946" clip-path="url(#clip-path-2)">
                      <path id="Path_153045" data-name="Path 153045" d="M243.821,172.742,118.653,161.4,0,172.742V150.807h243.82Z" transform="translate(0 -150.807)"/>
                    </g>
                  </g>
                </g>
              </g>
            </g>
          </g>
        </g>
      </g>
      <g id="Mask_Group_338" data-name="Mask Group 338" transform="translate(722.59 -8685.5)" clip-path="url(#clip-path-3)">
        <g id="Group_176468" data-name="Group 176468" transform="translate(-1.727)" clip-path="url(#clip-path-4)">
          <path id="Path_190486" data-name="Path 190486" d="M107.585,175.045h13.861a1.711,1.711,0,0,0,.729-.714c.975-2.275,2.46-4.281,3.46-6.546.372-.842.743-1.767,1.885-1.876a44.965,44.965,0,0,0,2.625-6.378c3.016-8.146,4.993-16.582,7.056-25,1.864-7.61,3.612-15.254,5.819-22.779a89.806,89.806,0,0,1,4.124-12.379q6.655-14.5,12-29.524a141.937,141.937,0,0,0,7.087-26.328A85.455,85.455,0,0,0,167.427,27a87.749,87.749,0,0,0-2.816-18.95c-.549-2.061-1.035-4.14-1.6-6.2A2.819,2.819,0,0,0,161.984.1H134.523a1.5,1.5,0,0,0-.15,1.494c1.267,4.313,1.718,8.794,2.735,13.159a67.791,67.791,0,0,0,2.609,7.659A139.955,139.955,0,0,1,145.558,41.5a48.36,48.36,0,0,1,1,8.935,116.559,116.559,0,0,1-.429,12.907,16.689,16.689,0,0,1-.975,4.57c-.513,2.429-.987,4.869-1.667,7.259A41.436,41.436,0,0,1,138.284,86.8a25.031,25.031,0,0,0-1.731,4.232c.665-4.528,2.22-9.231,2.781-14.132a62.563,62.563,0,0,0-.644-19.236,3.678,3.678,0,0,0-.272-.87c-2.1-4.527-4.427-8.959-6.222-13.619a55.554,55.554,0,0,0-6.9-12.371,14.192,14.192,0,0,0-1.839-2.023c-.288-.272-.566-.728-1.094-.379-.429.759-.01,1.358.42,1.9,5.743,7.263,8.26,15.722,9.085,24.772a64.454,64.454,0,0,1,.266,11.214,56.6,56.6,0,0,1-3.607,15.982c-1.084,2.773-2.011,5.6-2.673,7.656a78.688,78.688,0,0,0,4.3-17.254,62.705,62.705,0,0,0,.089-9.132c-.031-1-.374-1.878-1.671-1.926-.768-.029-1.17-.707-1.6-1.242a25.584,25.584,0,0,1-1.809-2.871,9.8,9.8,0,0,0-3.882-3.952,2.315,2.315,0,0,1-.852-.716c3.317-1.641,3.243-4.694,3.029-7.651a87.481,87.481,0,0,0-1.119-9.458,13.16,13.16,0,0,0-1.049-3.358,1.831,1.831,0,0,1,.12-2.172c.532-.67.368-1.582.5-2.391a5.55,5.55,0,0,0-5.986-2.364,34.551,34.551,0,0,0-6.817,2.12,18.009,18.009,0,0,1-4.875,1.385,17.63,17.63,0,0,0-4.219,1.292A16.283,16.283,0,0,1,90.977,31.5a17.429,17.429,0,0,1-4.3-1.476,2.866,2.866,0,0,0-1.968-.527,1.187,1.187,0,0,0-.614,1.216c.257,3.295.4,6.623,2.284,9.528a6.77,6.77,0,0,0,3.807,1.106,47.681,47.681,0,0,0,6.363.333c-1.442.294-3,.077-4.211,1.165.153.806.823.82,1.412.848a6.917,6.917,0,0,0,3.338-.5A9.17,9.17,0,0,1,92.6,43.7a4.857,4.857,0,0,0-2.064.009,6.561,6.561,0,0,0-3.192,6.159c1.093,1.09,2.562,1.042,3.892,1.047,3.213.012,6.426.162,9.646-.091,1.221-.1,2.478.329,3.668-.319.188-.1.414.083.622.137a35.855,35.855,0,0,1,13.019,6.446,34.141,34.141,0,0,1,4.141,3.371c2.68,2.834,4.681,6.02,5.1,9.986a19.583,19.583,0,0,1-1.056,7.582,87.715,87.715,0,0,1-3.132,8.307,38.7,38.7,0,0,0-2.443,9.287,4.066,4.066,0,0,1-.767,1.92,8.823,8.823,0,0,0-1.967,4.1,76.155,76.155,0,0,0-.79,9.847,67.44,67.44,0,0,1-3.169,17.666c-.554,1.832-1.319,3.6-1.742,5.469-1.326,5.191-2.551,10.448-6.259,14.589-2.925,3.266-6.816,4.9-10.967,5.984a25.531,25.531,0,0,1-13.667.25,10.485,10.485,0,0,0-2.983-.266,97.436,97.436,0,0,1-12.632-.632c-2.988-.365-5.974-.507-8.808-1.628a1.351,1.351,0,0,0-.9-.028,2.648,2.648,0,0,0-1.14,1.815,9.292,9.292,0,0,0,3.165,10.26c1.481,1.221,3.261,1.973,4.734,3.19a1.136,1.136,0,0,0,.379.166,4.533,4.533,0,0,0,1.68-.049,13.677,13.677,0,0,1,4.385-.165,76.183,76.183,0,0,0,11.566-.095,12.052,12.052,0,0,0,3.731-.94c-.543.305-1.183.465-1.739.794-.365.216-.95.4-.543,1.046a2.07,2.07,0,0,0,1.875-.136,18.785,18.785,0,0,0,3.385-1.671c-.626.357-1.469.855-2.315,1.347a14.542,14.542,0,0,1-3,1.262,23.376,23.376,0,0,1-3.053.679,12.835,12.835,0,0,1-5.68-.111A21,21,0,0,0,69.686,170c-1.9-.163-3.781-.545-5.693-.633a49.459,49.459,0,0,1-5.319-.27c-2.757.573-4.338,2.5-5.535,4.851a.921.921,0,0,0,.047,1.094h49.43c.78-1.449.767-3.081,1.041-4.644.083-.475-.28-.788-.745-.939a3.092,3.092,0,0,1-1.388-.546c3.874-1.776,5.529-5.664,8.7-8.073-.827,1.736-1.417,3.554-2.34,5.225a3.278,3.278,0,0,0-.488.914,27.031,27.031,0,0,0-.114,7.646c.016.171.192.284.3.415" transform="translate(17.454 -0.071)" fill="#eec199"/>
          <path id="Path_190487" data-name="Path 190487" d="M402.8,208.825a8.454,8.454,0,0,1,5.237-5.5c-.029-.83-.83-.728-1.275-1.055-.2-.147-.513-.23-.444-.555.078-.37.395-.416.712-.393a16.131,16.131,0,0,0,3.589.283c.712-.1,1.33.827,2.09.194a7.748,7.748,0,0,0-2.764-2.065c-2.622-1.657-4.666-3.7-5.207-6.916a10.933,10.933,0,0,1,.949-5.94,1.291,1.291,0,0,0-.861-1.065c-2.738-1.358-4.86-3.526-7.143-5.468-1.388-1.181-3.17-1.759-4.389-3.221-.922-1.106-1.821-2.213-2.628-3.4a127.947,127.947,0,0,1-11.239-21.16,27.238,27.238,0,0,1-1.96-8.5,2.6,2.6,0,0,1,0-.652c.783-4.767.505-9.548.218-14.331a8.556,8.556,0,0,1,.687-4.922c.245-1.008-.234-2.171.662-3.039a10.437,10.437,0,0,0,1-3.968,1.93,1.93,0,0,1-.07-1.864,27.468,27.468,0,0,1,4.312-8.3,156.549,156.549,0,0,1,11.316-13.83c5.8-6.383,13.324-9.409,21.6-10.9,2.1-.379,4.216-.624,6.334-.861a3.517,3.517,0,0,1,1.54.146,2.313,2.313,0,0,0,.809-.015,3.228,3.228,0,0,1,1.786.2c2.6.678,5.247,1.171,7.826,1.936.515.153,1.085.436,1.581-.092.675-1.412.6-3.1,1.746-4.361.463-.51.994-.931,1.457-1.429-.78-1.138-2.121-1.128-3.233-1.588-.257-.039-.522-.017-.778-.065-.575-.109-1.2-.326-1.334-.9-.161-.668.561-.756,1-.994a.809.809,0,0,0,.37-.351,24.156,24.156,0,0,1-2.095-9.241,1.385,1.385,0,0,1,.263-1.222c.089-.6-.382-.85-.761-1.105a65.446,65.446,0,0,1-5.5-4.215,3.345,3.345,0,0,0-3.15-.667c-7.423,1.631-14.141,4.886-20.589,8.782-5.745,3.471-11.339,7.176-16.919,10.907-4.094,2.738-7.491,5.974-9.636,10.547a110.537,110.537,0,0,0-6.34,15.588c-.145,4.334-.536,8.65-.816,12.973a11.028,11.028,0,0,1-.25,1.142c-.441,1.581.114,3.125.35,4.635.548,3.515.609,7.07,1.094,10.584a58.789,58.789,0,0,0,1.723,9.73c-1.009-3.616-2.093-7.21-2.953-10.868-.5-2.146-1.724-4.083-1.986-6.321-.039-.331-.209-.762-.6-.744s-.443.476-.558.8a22.854,22.854,0,0,0,.2,3.112c-.1-2.736-.937-5.477-1.434-8.271a51.488,51.488,0,0,1-.24-13.887,104,104,0,0,1,2.053-12.6,4.641,4.641,0,0,0,.116-1.165,16.482,16.482,0,0,1,.587-4.627,138.407,138.407,0,0,1,4.237-14.512,64.537,64.537,0,0,0,2.783-14.592c.278-2.7.2-5.393.231-8.091a9.528,9.528,0,0,0-.033-1.175c-.049-.435-.074-.97-.536-1.11-.53-.16-.882.287-1.153.687-.83,1.227-1.672,2.446-2.5,3.674a100.468,100.468,0,0,1-7.681,9.909c-.3.348-.5.77-.825,1.1,3.318-5.325,6.5-10.731,9.662-16.147a2.942,2.942,0,0,0,.326-.71c.082-.3.141-.633-.142-.843-.227-.169-.5-.052-.744.057a4.033,4.033,0,0,0-.973.654c-4.185,3.619-8.411,7.188-12.781,10.584a5.553,5.553,0,0,0-1.618,2.02,92.631,92.631,0,0,0-6.113,15.685,56.286,56.286,0,0,0-1.386,7.706c-.067.523-.127,1.135.382,1.431.583.339,1.1-.081,1.512-.466,1.627-1.514,3.174-3.11,4.727-4.7.353-.362.636-.829,1.2-.934.229.324.03.608-.088.855-2.131,4.474-3.073,9.327-4.413,14.045a165.605,165.605,0,0,0-4.866,23.391c-.65,4.873-1,9.774-1.273,14.69-.222,3.977-.025,7.922.141,11.866a125.639,125.639,0,0,0,2.513,19.146,151.477,151.477,0,0,0,9.8,30.278,27.655,27.655,0,0,0,3.134,5.564c2.122,2.874,3.959,5.945,5.892,8.949.426.662.472,1.506,1.062,2.076Z" transform="translate(-332.158 -33.85)" fill="#daab86"/>
          <path id="Path_190488" data-name="Path 190488" d="M524.022,174.974a3.38,3.38,0,0,0-.763-2.549c-2.265-3.4-4.424-6.867-6.8-10.2-1.691-2.376-2.571-5.218-3.694-7.908a141.5,141.5,0,0,1-7.021-21.162,136.668,136.668,0,0,1-3.217-18.972,121.572,121.572,0,0,1-.669-12.737,147.383,147.383,0,0,1,1.165-17.131,203.126,203.126,0,0,1,7.179-32.658,44.3,44.3,0,0,1,2.57-7.181c.189-.382.476-.85.006-1.174-.438-.3-.826.043-1.141.357q-2.59,2.579-5.171,5.167c-.308.308-.616.617-.942.906-.192.17-.432.385-.693.237s-.176-.469-.149-.714a58.685,58.685,0,0,1,3.982-15.61c1.024-2.54,2.26-4.994,3.323-7.519a5.954,5.954,0,0,1,1.928-2.545c4.736-3.6,9.191-7.539,13.974-11.552a11.268,11.268,0,0,1-1.718,3.236c-2.919,5.092-5.914,10.141-9.074,15.089-.13.2-.454.409-.166.652.306.257.585-.014.779-.236,1.315-1.5,2.653-2.99,3.913-4.539a108.875,108.875,0,0,0,8.1-11.342,1.127,1.127,0,0,1,.288-.234c.324.061.271.307.277.508a73.332,73.332,0,0,1-2.122,21.192c-1.23,4.619-3.05,9.072-4.144,13.739a42.491,42.491,0,0,0-1.544,8.3c.789-.165.758-.884.9-1.43a67.7,67.7,0,0,1,4.32-12.428A74.808,74.808,0,0,1,533.1,35c4.71-6.846,9.124-13.893,13.991-20.631,1.579-2.186,3.126-4.4,4.862-6.466a13.663,13.663,0,0,0,1.979-3.212A7.17,7.17,0,0,1,557.068,1.5c.554-.334,1.332-.561,1.215-1.478Q523.107.025,487.931,0c-.9,0-1.071.176-1.071,1.071q.041,86.428,0,172.857c0,.9.175,1.075,1.071,1.072,12.031-.038,24.061-.026,36.092-.026" transform="translate(-486.86 0)" fill="#c89169"/>
          <path id="Path_190489" data-name="Path 190489" d="M166.457,91.413a1.366,1.366,0,0,1,.089-.379c.091-.161.161-.1.2.055,1.41,5.625,3.122,11.164,4.761,16.724.242.822.607,1.607,1,2.636a1.953,1.953,0,0,0,.1-1.647,93.927,93.927,0,0,1-1.945-12.456c-.4-3.53-.847-7.053-1.249-10.582-.074-.646-.03-1.3-.041-1.957a72.023,72.023,0,0,1,.782-13.991c.041-.253.037-.527.309-.674a123.775,123.775,0,0,1,5.72-13.84,42.67,42.67,0,0,1,3.74-6.419,19.045,19.045,0,0,1,4.681-3.918c8.935-6.189,17.892-12.354,27.742-17.059a60.987,60.987,0,0,1,12.236-4.056,1.386,1.386,0,0,1,1.284.444c2.3,1.857,4.619,3.678,7.063,5.338a20.232,20.232,0,0,0,6.038,2.38c3.673.63,7.071-.328,10.388-1.731a8.67,8.67,0,0,1,2.607-.755c2.956-.267,5.563-1.657,8.314-2.586.7-.236,1.421-.421,2.107-.693,2.826-1.123,5.248-.4,7.414,1.566.139.353.348.606.777.543A48.258,48.258,0,0,1,280.259,44.3c1.689,4.275,3.785,8.379,5.821,12.5.455-.5.25-1.069.135-1.613a46.391,46.391,0,0,0-1.479-5.146c-1.018-3.042-1.694-6.216-3.47-8.963a36.478,36.478,0,0,0-4.58-7.984c-1.1-1.424-2.329-2.816-2.752-4.656.145-.52.234-1.03-.253-1.44-.1-.082-.257-.208-.212-.307.9-1.967-.768-1.186-1.5-1.4-.159-.046-.346.014-.561-.2,1.788-.826,3.512-1.705,5.241-2.571a4.473,4.473,0,0,0,2.185-1.979c.261-.538.587-1.1.132-1.709-.567-.268-.957.116-1.384.372a4.3,4.3,0,0,1-2.19.894,10.618,10.618,0,0,1-3.211.031,7.065,7.065,0,0,1-3.758-1.33,3.577,3.577,0,0,0-2.231-.619c-3.474.043-6.944.091-10.412.421-5.529.526-10.745-.411-15.412-3.66a47.845,47.845,0,0,0-7.21-4.694,8.83,8.83,0,0,0-3.762-.925c-1.666.005-2.892-1.092-4.21-1.9a10.481,10.481,0,0,1-1.908-1.579,2.123,2.123,0,0,0-2.843-.348c-.3.173-.61.336-.928.479a2.58,2.58,0,0,1-3.267-.747,8.354,8.354,0,0,1-1.611-3.532,2.748,2.748,0,0,0-.8-1.6h-8.108c-1.218.973-1.662,2.437-2.238,3.769-1.292,2.99-2.111,6.111-1.324,9.389.977,4.07,3.265,7.053,7.385,8.389a2,2,0,0,1,.247.061.446.446,0,0,1-.172.086,2.558,2.558,0,0,0-.357.159,3.157,3.157,0,0,1-2.279.106c-1.066-.186-2.13-.373-3.21-.455a5.767,5.767,0,0,0-4.249,1.282c-.4.378-1.171.032-1.482.33-1.126,1.077-2.582.9-3.9,1.227-1.612.4-2.759,1.151-2.906,3.013a1.075,1.075,0,0,1-1.439.948,2.01,2.01,0,0,0-1.593.425,16.045,16.045,0,0,0-3.64,3.289c-.916,1.137-2.182,1.971-3.117,3.125-4.212,5.2-7.066,11.169-9.725,17.244-1.237,2.825-2.327,5.71-3.359,8.616a5.27,5.27,0,0,1-1.021,1.8,48.582,48.582,0,0,0-2.155,9.659c-.3,1.852-.2,3.733-.481,5.586-.3,1.98.588,3.857.588,5.82,0,2.034.787,4,.482,6.073-.078.533-.04,1.163.68,1.375" transform="translate(-130.64 -0.07)" fill="#c89169"/>
          <path id="Path_190490" data-name="Path 190490" d="M48.876.1a156.868,156.868,0,0,1,3.8,15.825,53.174,53.174,0,0,1,.922,8.533c.01.995.222,1.987.232,2.982a100.985,100.985,0,0,1-2.165,21.2,160.527,160.527,0,0,1-6.285,21.488c-3.276,9.266-6.924,18.391-11.008,27.322C31,104.82,29.152,112.623,27.118,120.39c-1.187,4.534-2.415,9.06-3.446,13.63-.841,3.73-1.762,7.439-2.724,11.137a129.5,129.5,0,0,1-5.954,18.2c-.353.828-.616,1.695-.92,2.543-.649.2-.8.776-.933,1.317-.521,2.12-1.269,4.167-1.968,6.231-.181.534-.416,1.079.041,1.6H18.8a19.413,19.413,0,0,0,1.764-4.757c1.781-5.786,4.008-11.434,5.394-17.342,1.1-4.667,1.65-9.44,2.729-14.11,1.833-7.935,3.167-16.034,5.852-23.711,3.242-9.266,5.88-18.785,10.606-27.505,4.794-8.846,9.293-17.849,13.912-26.789a45.619,45.619,0,0,0,4.459-14.016c.6-3.866,1.322-7.714,1.689-11.615a38.643,38.643,0,0,0,.043-6.526c-.235-3.123-.518-6.245-.674-9.371A98.419,98.419,0,0,0,62.518,1.821,2.845,2.845,0,0,0,61.691.1Z" transform="translate(130.562 -0.071)" fill="#f6decb"/>
          <path id="Path_190491" data-name="Path 190491" d="M217.605.1a12.034,12.034,0,0,0,1.54,4.8c1.345,2.1,2.867,2.543,4.941,1.215,1.207-.773,2-.747,2.969.376a15.5,15.5,0,0,0,4.867,3.205,1.483,1.483,0,0,0,.865.239c2.437-.515,4.276.872,6.147,1.989,1.748,1.043,3.361,2.314,5.035,3.482,4.931,3.441,10.42,4.214,16.282,3.633a29.064,29.064,0,0,1,6.884-.25,15.4,15.4,0,0,0,2.974-.144,2.776,2.776,0,0,1,2.06.682,4.98,4.98,0,0,0,3.742,1.193c.543-.447.354-1.026.259-1.569-.623-3.567-4.728-7.876-9.113-7.822-.917.011-1.808-.233-2.6-.239A11.216,11.216,0,0,0,272.6,2.18,2.024,2.024,0,0,0,272.266.1Z" transform="translate(-134.412 -0.071)" fill="#eec199"/>
          <path id="Path_190492" data-name="Path 190492" d="M42.892.1c.642,3.774,1.6,7.5,1.883,11.327.468,6.384.833,12.776,1.212,19.166.244,4.114-.7,8.125-1.079,12.185C43.877,53.722,38.652,62.969,33.7,72.429c-4.751,9.08-9.889,18-13.373,27.7-.779,2.168-1.319,4.427-2.165,6.566-4.65,11.752-7.309,24.054-9.527,36.406C6.849,153.061,3.7,162.563.692,172.146a10.145,10.145,0,0,0-.691,2.9H.523l2.857-5.759a6.186,6.186,0,0,0,1.6-4.432.567.567,0,0,1,.2-.559c.94-.8,1-2,1.308-3.062a184.252,184.252,0,0,0,4.194-18.468,164.28,164.28,0,0,1,6.147-24.834c3.034-8.625,5.89-17.329,10.216-25.438C30.2,86.576,33.7,80.84,36.8,74.9c3.085-5.9,6.31-11.748,8.592-18.035a58.886,58.886,0,0,0,2.438-9.747,1.748,1.748,0,0,0-.16-1.509,1.066,1.066,0,0,1,.179-.787c1.191-1.945.932-4.194,1.286-6.31.149-.889.09-1.816.235-2.722a2.115,2.115,0,0,0-.443-1.958A210.941,210.941,0,0,0,47.055,11.4,105.926,105.926,0,0,0,45.246.1Z" transform="translate(149.361 -0.071)" fill="#231f20"/>
          <path id="Path_190493" data-name="Path 190493" d="M461.633,91.413a3.478,3.478,0,0,1-.167-1.013c.381-2.756-.308-5.449-.651-8.125-.859-6.687.423-13.06,2.18-19.413.95-2.277,1.6-4.661,2.457-6.97A39.582,39.582,0,0,0,466.9,51.7c1.2-4.821,4.289-8.612,6.74-12.75.775-1.308,1.581-2.605,2.463-3.849.426-.6.785-1.25,1.655-1.337.911-.092.3-1.419.914-1.44.925-.031,1.115-.5,1.211-1.192.078-.566.136-1.1.928-.671.115.062.332.014.359-.074.31-1.008,1.609-1.22,1.827-2.3.075-.373.095-.837.7-.692.861.208,1.032-.347,1.164-1.007a2.3,2.3,0,0,1,2.717-1.956c.722.119.789-.323.9-.806.076-.333-.087-.818.639-.613,1.259.354,1.274.3,1.222-1.019a.447.447,0,0,1,.115-.407c.635.257,1.306,1.017,2.016.064.077-.1.325.041.493.071,1.288.233,1.289.23,1.253-1.272a9.517,9.517,0,0,0,4.648,1.578,28.12,28.12,0,0,0,5.042.543c.233-.009.616.237.676-.263a2.063,2.063,0,0,0-1.23-.906,8.644,8.644,0,0,0-1.248-.381c-3.925-.823-5.8-3.489-6.616-7.2A12.183,12.183,0,0,1,498.9,2.093c.539-.559,1.4-.976,1.213-2H497.24a15.89,15.89,0,0,1-2.949,2.065c-1.327.926-1.685,2.46-2.515,3.693-.208.309-.34.692-.586,1-6.3,7.854-11.644,16.378-17.307,24.68a87.3,87.3,0,0,0-9.546,17.328c-1.221,3.125-1.872,6.418-2.9,9.6-.62,3.458-1.3,6.907-1.848,10.377a58.938,58.938,0,0,0,1.4,24.917c.16.586.27,1.185.412,1.776.017.072.087.131.2.3a24.841,24.841,0,0,0,.025-4.416" transform="translate(-425.816 -0.07)" fill="#231f20"/>
          <path id="Path_190494" data-name="Path 190494" d="M131.775,20.455c1.457.183,2.285-1.05,3.447-1.531.79-.307.7-1.023.737-1.651a18.245,18.245,0,0,0-.644-6.053,8.308,8.308,0,0,1-.455-2.274c.5.286.592.787.9,1.1a7.44,7.44,0,0,1,1.394,2.334,44.568,44.568,0,0,1,3.682,13.805,33.368,33.368,0,0,0,3.032,10.1,71.844,71.844,0,0,1,5.5,21.417,41.861,41.861,0,0,1,.047,8.6c-.067.637-.154,1.323.464,1.8.91-2.289.946-4.738,1.274-7.129a73.365,73.365,0,0,0,.284-9.242,57.406,57.406,0,0,0-2.586-16.65c-1.721-5.931-3.878-11.707-6.017-17.492-1.272-3.442-1.684-7.082-2.351-10.657-.431-2.31-1.093-4.552-1.606-6.835H131.3c-.811,1.218-.072,2.424.036,3.633.041.453.478.857-.165,1.322-.371.268-.1.9.029,1.357.518,1.791,1.226,3.52,1.77,5.3a8.1,8.1,0,0,1-.892,7.448c-.266.377-.611.77-.3,1.3" transform="translate(13.095 -0.071)" fill="#daab86"/>
          <path id="Path_190495" data-name="Path 190495" d="M214.128,20.455a8.537,8.537,0,0,0,2.114-7.007,32.833,32.833,0,0,0-1.742-5.6c-.3-.9-.565-1.808-.85-2.726.563-.145.48.517,1.054.485A20.247,20.247,0,0,1,213.65.1h-6.538c.429,4.557-3.776,9.741-8.589,10.444-.323.047-.855-.06-.837.392.021.532.583.353.943.41,2.241.355,4.573-.065,6.717,1.155,3.172,1.8,5.123,4.322,5.411,8.019a5.3,5.3,0,0,0,3.371-.06" transform="translate(-69.258 -0.071)" fill="#f6decb"/>
          <path id="Path_190496" data-name="Path 190496" d="M458.458.1a32.032,32.032,0,0,0-3.671,4.367c-2.6,4.443-2.2,8.858.011,13.272a6.5,6.5,0,0,0,4.035,3.272c1.359.441,2.722.867,4.083,1.3.409-.45,1.145-.046,1.538-.6-.205-.319-.569-.322-.876-.4-4.986-1.265-8.425-6.851-7.605-11.955a24.251,24.251,0,0,1,2.677-7.822A14.255,14.255,0,0,0,459.242.1Z" transform="translate(-384.157 -0.071)" fill="#a97751"/>
          <path id="Path_190497" data-name="Path 190497" d="M274.953,626.208a13.048,13.048,0,0,0-.012-1.827c-.645-4.5,1.066-8.346,3.261-12.071.189-.321.543-.676.146-1.044-.439-.408-.777-.042-1.126.233a16.436,16.436,0,0,0-3.191,3.4,13.232,13.232,0,0,1-4.413,4.173,3.959,3.959,0,0,0-.831.621c-.243.23-.609.453-.491.854.143.486.6.44.985.421,1.357-.065,1.637-.27,1.161,1.641a10.958,10.958,0,0,0-.458,3.6Z" transform="translate(-149.914 -451.234)" fill="#f6decb"/>
          <path id="Path_190498" data-name="Path 190498" d="M209.9,641.622l2.86-9.149c-.058-.244.046-.783-.453-.355a4.021,4.021,0,0,0-1.091,1.278c-1.267,2.81-3.11,5.325-4.193,8.226Z" transform="translate(-68.123 -466.648)" fill="#252121"/>
          <path id="Path_190499" data-name="Path 190499" d="M307.563,361.523c.467-1.338.716-2.784,1.864-3.786a17.667,17.667,0,0,0,.736-4.563,3.693,3.693,0,0,0-.068-.382c-.071-.341-.12-.765-.544-.767-.32,0-.444.373-.55.659-.15.406-.263.825-.391,1.239a2.556,2.556,0,0,1-1.126,1.667c-.9.5-.741,1.742-1.542,2.336a16.093,16.093,0,0,0-1.333,3.642c-.774,3.454-1.445,6.931-2.171,10.4a7.686,7.686,0,0,1-.537,3.822A51.667,51.667,0,0,1,296.613,389a24.361,24.361,0,0,1-8.084,8.63c-.772-.071-1.618-.292-1.8.866-.012.076-.034.076-.041.068-.565-.655-.911-.192-1.482.107a11.323,11.323,0,0,1-2.313.617,12.736,12.736,0,0,1-4.048.819c-.172-.011-.41.02-.481.151-.592,1.085-1.652.68-2.3.428a2.885,2.885,0,0,0-2.9.47,57.95,57.95,0,0,1-10.074.205,52.06,52.06,0,0,1-11.284-1.466c-.543-.153-1.072-.35-1.618-.479a3.79,3.79,0,0,0-.375-.15,6.272,6.272,0,0,1-2.849-1.234,1.529,1.529,0,0,0-.465-.3,5.687,5.687,0,0,1-2.929-2.51,1.679,1.679,0,0,0-.7-.649A14.419,14.419,0,0,1,239,391.316c-2.862-2.8-4.836-6.256-7.06-9.527a6.69,6.69,0,0,0-.676-.96c-.21-.215-.444-.477-.782-.3a.681.681,0,0,0-.269.807,7.588,7.588,0,0,0,.515,1.611,21.669,21.669,0,0,0,1.821,4.151,2.905,2.905,0,0,1,.678,3c.353,1.1.169,2.477,1.529,3.079,1.1-.349.176-1.171.411-1.643-.032-.24,0-.237-.015-.089-.077.588.525,1.25-.19,1.766a.427.427,0,0,0-.176.321,59.608,59.608,0,0,0,4.139,6.921,11.343,11.343,0,0,0,2.289,2.837c1.594,1.276,3.126,2.587,5.346,2.769a13.968,13.968,0,0,1,4.085,1.335,46.278,46.278,0,0,0,17.067,3.222,72.311,72.311,0,0,0,14.419-.846c1.708-.307,3.447-.623,4.781-1.91a.73.73,0,0,1,.579-.265c1.726.264,2.981-.69,4.239-1.627a3.353,3.353,0,0,1,1.318-.535,5.1,5.1,0,0,0,1.831-1.819,53.4,53.4,0,0,0,8.542-17.928,84.892,84.892,0,0,0,2.939-15.888,45.075,45.075,0,0,0,.33-4.8,8.156,8.156,0,0,1,.87-3.475" transform="translate(-171.588 -259.941)" fill="#eaab90"/>
          <path id="Path_190500" data-name="Path 190500" d="M263.151,344.821c-1.28,2.122-.631,4.389-.623,6.648.016,4.16.409,8.33-.338,12.492a12.493,12.493,0,0,0,.517,4.88c1.144,4.967,3.426,9.453,5.845,13.891,1.185,2.175,2.106,4.493,3.294,6.666.918,1.68,2.25,3.1,3.2,4.794a21.264,21.264,0,0,0,4.183,5.127c1.166,1.088,2.711,1.5,3.895,2.647a30.315,30.315,0,0,0,7.733,5.679c3.637,1.7,7.595,1.584,11.448,2.146,4.089.6,8.161.38,12.243.454a6.6,6.6,0,0,1,1.409.206c8.557,2.06,16.369.317,23.523-4.654a13.231,13.231,0,0,0,3.752-4.3c2.234-3.8,3.344-7.993,4.329-12.233-.762.073-.931.722-1.167,1.261A44.528,44.528,0,0,1,339.2,402a36.2,36.2,0,0,1-3.341,3.115,2.315,2.315,0,0,1-1.158.584c-2.935.453-5.737,1.5-8.666,1.953a56.987,56.987,0,0,1-11.091.193,117.8,117.8,0,0,1-11.97-.965,51.25,51.25,0,0,1-11.755-2.975,19.616,19.616,0,0,1-10-8.248c-3.875-6.576-7.584-13.246-9.347-20.778a8.231,8.231,0,0,1-.475-3.068,3.771,3.771,0,0,1-.966-1.764c-.607-2.079-1.745-3.986-2.011-6.18a.721.721,0,0,0-.384-.5,53.306,53.306,0,0,1-3.879-14.085c-.108-1.035-.273-2.061-.3-3.106-.013-.533.034-1.168-.7-1.358" transform="translate(-217.326 -254.621)" fill="#c89269"/>
          <path id="Path_190501" data-name="Path 190501" d="M152.143,32.3c-.431-.727-.442-1.88-1.836-1.667-.2.638.168,1.27.328,1.9a23.282,23.282,0,0,1,1.02,7.285,3.46,3.46,0,0,1-.322,1.637,3.937,3.937,0,0,1-2.281,3.086,57.153,57.153,0,0,1-5.5,2.63c-.3.11-.763.1-.645.618.1.456.49.574.906.579.7.008,1.41,0,2.255,0-.468.648-1.027.213-1.433.515.209.776,1.9.728,1.184,2.029a10.323,10.323,0,0,0,2.37,2.724c1.515,1.541,2.035,3.685,3.479,5.234.177.19.435.451.391.659-.29,1.377.64,2.258,1.266,3.259a.713.713,0,0,1-.135.937c2.59,4.92,3.977,10.246,5.269,15.6a62.066,62.066,0,0,1,.861,19.931c-.48,4.469-1.89,8.748-2.6,13.168a8.5,8.5,0,0,0-.086,3.419l2.524-6.408c2.911-5.794,4.236-12.01,5.01-18.394a46.54,46.54,0,0,0-1.989-18.694c-2.693-9.3-4.583-18.761-6.431-28.244-.789-4.05-1.613-8.115-3.6-11.812" transform="translate(-3.016 -22.597)" fill="#231f20"/>
          <path id="Path_190502" data-name="Path 190502" d="M189.181,106.592a1.443,1.443,0,0,0-.778-.543c-.3.473-.684.921-.418,1.554a.441.441,0,0,1-.186.568c-1.05.682-.885,1.513-.373,2.454,1.238,2.274,1.437,4.824,1.675,7.312a47.248,47.248,0,0,1,.611,7.78,6.606,6.606,0,0,1-1.035,3.576c-.49.676-1.021,1.313-2.02,1.1a.521.521,0,0,0-.66.284c-.106.311.156.51.371.609,3.33,1.534,5.008,4.529,6.809,7.471.493.8,1.009,2.215,2.571,1.515.259-.116.4.128.459.336A6.431,6.431,0,0,1,196.5,142a55.314,55.314,0,0,1-1.694,17.046c-.984,3.465-1.838,6.969-2.922,10.409-.075.238-.116.487-.174.735a.369.369,0,0,0,.441-.3c2.243-6.2,5.139-12.2,6.271-18.759a60.114,60.114,0,0,0,.8-15.026,77.94,77.94,0,0,0-1.547-11.46,41.365,41.365,0,0,0-5.935-13.8c-.651-.974-1.349-1.9-2.065-2.822a2.027,2.027,0,0,1-.488-1.431" transform="translate(-49.239 -78.308)" fill="#f6decb"/>
          <path id="Path_190503" data-name="Path 190503" d="M240.389,404c-.439.41-.191.9-.126,1.348a31.515,31.515,0,0,0,2.067,7.532,109.75,109.75,0,0,0,7.827,15.472c3.094,5.045,7.924,7.67,13.4,9.336a69.426,69.426,0,0,0,16.077,2.533c3.736.229,7.486.217,11.228.353a24.552,24.552,0,0,0,7.6-1,29.088,29.088,0,0,1,5.345-1.183,2.909,2.909,0,0,0,1.6-.8c4.862-3.993,8.134-9.126,10.643-14.81.209-.473.462-.927.694-1.39a76.264,76.264,0,0,0,4.568-17.613c.445-3.922.44-7.894.688-11.84.076-1.209.321-2.407.489-3.609a6.536,6.536,0,0,0-1.255,3.457c-.734,10.563-2.5,20.9-7.094,30.56a36.041,36.041,0,0,1-6.268,9.554,5.975,5.975,0,0,0-.971.657,7.378,7.378,0,0,1-4.2,2.136,2.668,2.668,0,0,0-1.22.734,12.788,12.788,0,0,1-3.61,1.792c-.161.072-.27.157-.437-.027-.5-.548-1.088-.309-1.545-.008-2.346,1.543-4.972,1.07-7.475.9-1.6-.109-3.2-.154-4.8-.184-4.14-.077-8.249-.315-12.185-1.782a3.631,3.631,0,0,0-2.289-.281,1.5,1.5,0,0,1-.777.049c-4.265-1.155-8.752-1.723-12.222-4.905a19.475,19.475,0,0,1-4.184-5.3A4.227,4.227,0,0,0,250.4,423.8a3.134,3.134,0,0,1-1.046-1.469c-2.12-4.107-4.009-8.322-5.842-12.562-.692-1.6-1.466-3.162-2.183-4.751-.194-.429-.409-.882-.944-1.013" transform="translate(-186.519 -286.752)" fill="#231f20"/>
          <path id="Path_190504" data-name="Path 190504" d="M135.87,37.073c3.207,9.7,4.366,19.874,6.756,29.763,1.318,5.455,3.079,10.794,4.182,16.306,1.622,8.11.63,16.03-1.658,23.858-.707,2.419-1.509,4.811-2.268,7.215a33.838,33.838,0,0,0,3.886-7.492,50.094,50.094,0,0,0,2.953-11.319c-.115-1.96.323-3.887.266-5.854A70.136,70.136,0,0,0,145.6,67.039c-1.569-4.226-3.619-8.3-4.331-12.81-.344-2.179-.435-4.39-.96-6.552a39.827,39.827,0,0,0-3.929-10.029,3.513,3.513,0,0,0-.51-.576" transform="translate(13.257 -27.375)" fill="#c89269"/>
          <path id="Path_190505" data-name="Path 190505" d="M249.048,225.78c.156,1.556-.411,3.064-.306,4.616a14.026,14.026,0,0,0,1.208-4.218,35.323,35.323,0,0,1,2.606-8.327,59.732,59.732,0,0,0,3.178-9.111,15.4,15.4,0,0,0-2.438-13.057c-2.452-3.493-5.642-5.75-8.861-8.128a31.968,31.968,0,0,0-11.029-4.925c-.731-.193-1.11.431-1.628.4-4.91-.287-9.847.581-14.739-.333a10.381,10.381,0,0,1-1.235-.389q-5.024-1.274-10.048-2.551c-.443-.113-.9-.439-1.214.2-.332.555.017.9.395,1.214a1.8,1.8,0,0,0,.944.424c4.04.446,7.861,1.894,11.848,2.581a2.6,2.6,0,0,0,1.16.115c2-.638,3.958-.048,5.935.078a30.527,30.527,0,0,0,6.24-.4,4.974,4.974,0,0,1,2.783.419,84.138,84.138,0,0,1,14.173,7.688c3.449,2.369,6.158,5.432,5.738,10.133a9.587,9.587,0,0,0,.014,1.825,5.631,5.631,0,0,1-.281,2.818,36.107,36.107,0,0,1-2.574,7.939,6.273,6.273,0,0,0-.726,3.141,5.351,5.351,0,0,1-.421,2.168c-.6,1.633-1.259,3.257-.631,5.049a.791.791,0,0,1-.091.632" transform="translate(-110.903 -132.6)" fill="#231f20"/>
          <path id="Path_190506" data-name="Path 190506" d="M263.263,480.555a4.42,4.42,0,0,0-.731,2.371,54.488,54.488,0,0,1-6.908,18.595c-1.015,1.725-1.613,3.651-2.705,5.344a17,17,0,0,1-6.234,6.159,2.938,2.938,0,0,0-.736.531c-.463.479-1.307.9-.867,1.7.462.834,1.3.452,1.992.213a19.1,19.1,0,0,0,7.065-3.88,7.225,7.225,0,0,0,2.094-3.969,16.582,16.582,0,0,1,1.837-4.862,44.549,44.549,0,0,0,4.966-16.331,51.646,51.646,0,0,0,.226-5.869" transform="translate(-128.55 -354.849)" fill="#f6decb"/>
          <path id="Path_190507" data-name="Path 190507" d="M128.514,80.085c.779-3.335-.346-6.429-1.122-9.568a1.32,1.32,0,0,1-.087-.637c.945-3.007-1.214-5.225-1.986-7.79a6.03,6.03,0,0,0-.954-1.7c-.441-.611-.592-1.129.051-1.7a.813.813,0,0,0,.162-.969c-.206-.486-2.892-1.639-3.367-1.39-.7.365-1.268.861-.706,1.754a20.217,20.217,0,0,0,1.236,1.838c.636.8,1.237,1.578.854,2.692a.471.471,0,0,0,.031.381c1.806,2.282,1.389,5.225,2.276,7.8,1.157,3.362,2.593,6.744,2.409,10.457a11.2,11.2,0,0,0,.232,1.933c.032.248-.025.584.323.614.3.026.434-.255.525-.5a9.5,9.5,0,0,0,.124-3.224" transform="translate(38.551 -41.574)" fill="#f6decb"/>
          <path id="Path_190508" data-name="Path 190508" d="M224.25,461.911c-1.665,3.789-2.841,7.752-4.126,11.674a130.078,130.078,0,0,1-5.235,13.628,40.905,40.905,0,0,0-3.2,9.489c.193.663.317.718.759.24a11.8,11.8,0,0,0,1.438-2.164,87.276,87.276,0,0,0,10.81-31.37c.072-.5.473-1.233-.444-1.5" transform="translate(-81.427 -341.082)" fill="#231f20"/>
          <path id="Path_190509" data-name="Path 190509" d="M221.237,461.16a14.632,14.632,0,0,1-.535,4.568A88.35,88.35,0,0,1,209.43,495.6c-.376.624-.382.62-.756.35a9.811,9.811,0,0,0-.674,1.106c-.161.357-.641.817-.1,1.133.47.276.8-.243,1.036-.577,1.634-2.31,3.173-4.683,4.584-7.135a93.583,93.583,0,0,0,8.093-18.779,25.1,25.1,0,0,0,1.2-9.635c-.095-1.161-.58-1.449-1.577-.9" transform="translate(-78.414 -340.331)" fill="#c89269"/>
          <path id="Path_190510" data-name="Path 190510" d="M212.34,490.495c-.493.05-.576.433-.733.723a84.39,84.39,0,0,0-4.564,10.082c-2.144,5.6-4.05,11.3-6.724,16.687-.21.422-.539.951.076,1.243a1.185,1.185,0,0,0,1.529-.665,51.28,51.28,0,0,0,2.454-4.6c2.185-4.843,3.538-9.975,5.123-15.027a55.052,55.052,0,0,1,2.8-7.295c.178-.374.417-.764.039-1.145" transform="translate(-66.079 -362.189)" fill="#f6decb"/>
          <path id="Path_190511" data-name="Path 190511" d="M353.138,636.087a3.583,3.583,0,0,1-1.951-.78c-.56.53-.085.906.217,1.271a4.012,4.012,0,0,0,2.864,1.252,18.85,18.85,0,0,0,5.294.664c2.716-.134,5.276,1.056,8,.745,4.475-.511,8.564-1.877,12.022-5.259-2.555.813-4.567,2.442-7.048,2.891a6.371,6.371,0,0,0-4.429.2c-.876.393-1.8.021-2.7-.038-3.582-.238-7.159-.541-10.744-.724a10.585,10.585,0,0,1-1.538-.207Z" transform="translate(-272.591 -468.141)" fill="#231f20"/>
          <path id="Path_190512" data-name="Path 190512" d="M362.1,636.941c2.636,1.043,5.44.963,8.192,1.181a57.327,57.327,0,0,1,5.96.509c.085.016.2.07.253.034,1.533-1.031,3.388-.37,5-.956,0-.66.582-.489.925-.632a10.058,10.058,0,0,0,3.2-1.956,6.974,6.974,0,0,0-2.642.658,20.8,20.8,0,0,1-5.5.855c-3.816.041-7.633.058-11.44-.254-1.371-.112-2.58.762-3.95.562" transform="translate(-281.564 -468.978)" fill="#c9926a"/>
          <path id="Path_190513" data-name="Path 190513" d="M177.278,375.64a53.173,53.173,0,0,0,2.429-7.562c.087-.377.284-.8-.208-1.023-.426-.192-.746.093-1.024.385a10.368,10.368,0,0,0-2.2,4.262,32.834,32.834,0,0,0-.792,13.828c.013.11.123.207.33.535a39.416,39.416,0,0,0,.623-6.033c-.532-.552-.018-1.118.054-1.632a48.019,48.019,0,0,1,1.427-8.095,30.44,30.44,0,0,0-.954,4.552.689.689,0,0,0,.311.784" transform="translate(-26.838 -270.993)" fill="#c89269"/>
          <path id="Path_190514" data-name="Path 190514" d="M320.021,153c-.218,0-.436,0-.653.015a1.4,1.4,0,0,0-1.39,1.16c-.149.722.551.926,1.017,1.178s1,.543,1.562.166c.065-.194-.2-.628.4-.388a25.892,25.892,0,0,0,3.217.945c.528.134,1.1.339,1.572-.161,1.861-.658,3.85-.754,5.764-1.488-.974-.119-1.945-.3-2.923-.346a38.052,38.052,0,0,1-7.708-.811c-.291-.074-.573-.179-.86-.27" transform="translate(-215.894 -112.975)" fill="#c8946d"/>
          <path id="Path_190515" data-name="Path 190515" d="M455.934,640.894c-1.2-.626-2.67-.93-3.081-2.523-1.214.511-2.383-.007-3.55-.205-.787-.133-1.311.091-1.543.791-.26.785.489.886.953,1.125s.945.4,1.42.6a23.563,23.563,0,0,0,5.8.218" transform="translate(-374.256 -471.204)" fill="#c89269"/>
          <path id="Path_190516" data-name="Path 190516" d="M321.647,159.711c-2.085-.18-3.973-1.158-6.043-1.568.063.621.622.772.853,1.173a19.346,19.346,0,0,0,3.441,1.378,16.051,16.051,0,0,0,4.907.045,4.764,4.764,0,0,0,3.222-1.988,8.181,8.181,0,0,1-6.38.96" transform="translate(-211.793 -116.775)" fill="#282424"/>
          <path id="Path_190517" data-name="Path 190517" d="M180.146,381.13a25.833,25.833,0,0,1,1.579-6.7c-.885,0-1.1.529-1.291,1.12a44.137,44.137,0,0,0-1.352,8.087c-.1.809-.187,1.621-.283,2.461.4-.054.267-.465.509-.573l.838-4.392" transform="translate(-29.706 -276.483)" fill="#292423"/>
          <path id="Path_190518" data-name="Path 190518" d="M172.323,386.166a4,4,0,0,0-.859,2.135c-.717,2.768-1.4,5.543-2.1,8.318-.092.367-.315.9.109,1.043.528.176.5-.423.6-.77,1.056-3.512,1.271-7.194,2.244-10.725" transform="translate(-17.799 -285.151)" fill="#f5ddc8"/>
          <path id="Path_190519" data-name="Path 190519" d="M147.059,39.1a.972.972,0,0,0,.93-.838c.061-.3-1.732-1.963-2.1-1.96-.494,0-.678.319-.692.766a2.6,2.6,0,0,0,1.861,2.032" transform="translate(12.819 -26.809)" fill="#f6deca"/>
          <path id="Path_190520" data-name="Path 190520" d="M282.236,205.094c.4-3.417-.136-6.5-2.524-9.239-3.161-3.629-7.334-5.647-11.49-7.712-.827-.411-1.484-1.022-2.275-1.414-2.824-1.4-5.606-2.778-9-2a14.688,14.688,0,0,1-7.123-.23,1.288,1.288,0,0,0-.763-.042c-2.241.958-4.382.12-6.51-.4a58.768,58.768,0,0,0-8.16-1.758c-.771-.075-1.734-.126-1.85-1.271l-.758,0c-3.041.635-6.15.91-9.161,1.7a2.95,2.95,0,0,0-1.518.683c-.252.972-1.142,1.271-1.892,1.556-2.028.771-3.944,1.782-5.942,2.611-.161.067.034-.031-.117.055-.74.419-1.9.806-1.56,1.766s1.35.142,2.061.089a9.566,9.566,0,0,1,1.773-.316c.329-.006.656.023.985.035,1.612-.247,3.246-.294,4.859-.514.326-.054.54-.44.93-.312,2.389.24,4.767.834,7.173.21.345-.108.343.291.548.389a11.067,11.067,0,0,0,3.518.346c.975-.578.567-1.573.792-2.155.186,1.193-.584,2.3-1.264,3.433.3,1.178,1.421,1.058,2.242,1.424,2.285,1.019,4.832.944,7.164,1.706a8.448,8.448,0,0,0,3.885.6,3.532,3.532,0,0,0,2.889-1.653,1.119,1.119,0,0,1,.7-.544,29.174,29.174,0,0,1,7.032.116c1.218.123,2.4-.276,3.6-.005a.787.787,0,0,0,.378-.073c.5-.465.865-1.057,1.284-1.494-.375.447-.807.949-1.195,1.488-.125.982.474,1.183,1.267,1.176a20.108,20.108,0,0,1,7.292,1.389c.657.247,1.29-.038,1.908.173a15.656,15.656,0,0,1,5.035,4.026c-.313,1.295-.313,1.3,1.136,1.249.277-.01.216.167.229.325.454,1.772,1.175,3.454,1.482,5.273a15.025,15.025,0,0,1,.054,4.781c-.075.5-.174,1.094.326,1.266.577.2.781-.445.934-.868a28.67,28.67,0,0,0,1.244-4.775,3.139,3.139,0,0,1,.391-1.094" transform="translate(-138.898 -133.678)" fill="#e9997f"/>
          <path id="Path_190521" data-name="Path 190521" d="M303.42,341.972c2.973,6.477,5.683,13.076,9,19.394,2.231,1.744,3.033,4.57,4.978,6.547a19.08,19.08,0,0,0,7.013,4.633c2.2.82,4.619.847,6.77,1.846.367.171.684-.029,1-.135a2.191,2.191,0,0,1,1.78.064,17.886,17.886,0,0,0,6.692,1.7,37.537,37.537,0,0,0,6.561.292,10.073,10.073,0,0,1,3.65.144c1.964.6,4.024-.163,6.042.188.533.093,1.022-.42,1.506-.713a3.525,3.525,0,0,1,1.742-.794c.236.437-.364.4-.357.732a.948.948,0,0,0,.333.012,14.607,14.607,0,0,0,5.348-2.6,1.959,1.959,0,0,1,2.452-.435c.061.043.352-.181.493-.323a20.028,20.028,0,0,0,2.488-2.652c-1.507.167-2.44,1.466-3.8,1.929-.48.163-.889.562-1.352-.075-.29-.4-.647-.117-.871.156-1.6,1.947-3.965,1.969-6.133,2.42a40.946,40.946,0,0,1-8.93.721c-6.016-.091-12.1-.088-17.894-2.1-2.377-.824-4.641-2.083-7.112-2.516a10.463,10.463,0,0,1-4.6-2.134,16.854,16.854,0,0,1-4.241-5.383c-.966-1.655-2.077-3.2-3.088-4.819a.133.133,0,0,0,.044-.153q-.033-.07-.061-.07c-1.054-.806-.844-2.14-1.328-3.185a4.668,4.668,0,0,0-.778-2.828c-.657-2.123-1.811-4.072-2.114-6.349,1.021,1.531,2.073,3.042,3.057,4.6a37.252,37.252,0,0,0,7.318,8.551,3.188,3.188,0,0,0,1.771,1c.082-.16.167-.389.044-.492-1.655-1.372-1.675-4.1-4.038-4.878a.6.6,0,0,1-.452-.434c-.247-1.479-1.4-2.376-2.23-3.474a93.568,93.568,0,0,1-6.01-9.642c-.721-1.244-1.448-2.484-2.212-3.7-.669-1.065-1.494-2.053-1.441-3.424a1.166,1.166,0,0,0-.23-.606c-2.793-4.583-4.01-9.715-5.158-14.866-.379-1.7-.7-3.415-1.149-5.1-.544-2.05.1-3.845.942-5.66.423-.912,1.31-1.685,1.027-2.859a.607.607,0,0,0-.544-.176,5.569,5.569,0,0,0-2.182,3.487,18.563,18.563,0,0,1-1.025,3.928,11.193,11.193,0,0,0,.348,4.378c.393,2.4,1.111,4.733,1.726,7.086.215.821.95,1.4.921,2.182-.156-.245-.052-.785-.519-1.023a1.047,1.047,0,0,0-.476,1.24,39.292,39.292,0,0,0,1.963,7.921c.226,2.734,1.786,5.059,2.346,7.68.152.715.72.436.98.757" transform="translate(-249.55 -224.721)" fill="#dc8b77"/>
          <path id="Path_190522" data-name="Path 190522" d="M559.534,501.534a3.278,3.278,0,0,0,1.452,1.443c.3.174.724.291.868.555,1.153,2.124,3.616,1.548,5.4,2.458-1.005-.73-1.986-1.5-3.024-2.179A5.66,5.66,0,0,1,562.2,501.5c-2.1-4.2-4.355-8.326-6.367-12.567-3.592-7.571-7.181-15.145-10.259-22.95a21.378,21.378,0,0,0-3.865-7.022,4.727,4.727,0,0,0-.281,3.04,13.569,13.569,0,0,0,.828,3.016c1.014,2.734,1.972,5.489,3,8.216a89.418,89.418,0,0,0,4.543,9.211c1.438,2.786,2.933,5.534,4.093,8.453a67.049,67.049,0,0,0,4.026,8.342c.469.825,1.347,1.337,1.61,2.289" transform="translate(-510.06 -338.907)" fill="#c89269"/>
          <path id="Path_190523" data-name="Path 190523" d="M587.978,501.283c.49-.014.479-.208.22-.544-2.716-3.519-4.329-7.608-5.992-11.666a44.331,44.331,0,0,0-3.008-6.061c-1.121-1.865-1.665-4.112-2.852-5.812-1.841-2.636-2.468-5.654-3.677-8.474a36.5,36.5,0,0,1-2.341-7.034,9.318,9.318,0,0,1-.173-2.978c-.6-.3-.485.238-.556.495a11.685,11.685,0,0,0,.169,5.811,73.185,73.185,0,0,0,4.641,12.874c2.583,5.89,4.995,11.872,8.3,17.416,1.379,2.309,2.859,4.556,5.265,5.974" transform="translate(-538.504 -338.656)" fill="#231f20"/>
          <path id="Path_190524" data-name="Path 190524" d="M405.528,215.863a18.242,18.242,0,0,0,2.109-3.316,3.608,3.608,0,0,0,.723-.9,82.24,82.24,0,0,1,13.6-18.373c1.629-1.622,3.322-3.19,5.031-4.73A13.716,13.716,0,0,1,434.4,184.7c.986-.129,1.931-.511,2.908-.726.764-.131,1.431-.57,2.2-.68a1.367,1.367,0,0,0,.569-.53,44.22,44.22,0,0,1,7.718-1.555,6.725,6.725,0,0,0,3.005-1.088c-.292-.54-.786-.255-1.163-.227a50.761,50.761,0,0,0-20.408,5.387,28.686,28.686,0,0,0-6.948,5.254,122.317,122.317,0,0,0-13.735,16.721,21.347,21.347,0,0,0-3.629,8.308c-.184,1.008.25.517.607.3" transform="translate(-357.922 -132.761)" fill="#221f1f"/>
          <path id="Path_190525" data-name="Path 190525" d="M640.822,330.809a58.615,58.615,0,0,0,2.415,9.612c.584-2.332-1.577-19.826-2.9-23.494-.487.2-.462.687-.618,1.057a2.428,2.428,0,0,0-.462,2.328c.466,3.384.778,6.79,1.4,10.153a.922.922,0,0,0,.166.345" transform="translate(-611.741 -234.024)" fill="#231f20"/>
          <path id="Path_190526" data-name="Path 190526" d="M571.5,354.487l-1.624-8.817.149-.051.7,1.561.182-.044q-.321-1.236-.643-2.472a63.285,63.285,0,0,1-2.4-11.324c-.019-.258-.015-.532-.331-.636-1.177.836-.717,2.062-.756,3.17.4,3.389.768,6.776,1.491,10.124.662,3.07,2.238,5.813,2.951,8.852.049.208.143.151.2.019a1.744,1.744,0,0,0,.077-.38" transform="translate(-520.955 -245.673)" fill="#231f20"/>
          <path id="Path_190527" data-name="Path 190527" d="M651.915,332.48A77.7,77.7,0,0,0,651,322.9c-.166-1.082-.121-2.164-.189-3.245-.46-.326-.9-.72-1.5-.245a1.271,1.271,0,0,0-.491,1.378c.866,3.65,1.731,7.3,2.62,10.944a2.816,2.816,0,0,0,.474.749" transform="translate(-622.834 -235.695)" fill="#c89269"/>
          <path id="Path_190528" data-name="Path 190528" d="M609.293,263.25c-.545-.728-.434.18-.452.236a27.542,27.542,0,0,0-1.12,7.6,22.959,22.959,0,0,0,.481,6.83,82.1,82.1,0,0,0,1.035-13.1c.009-.521.037-1.041.057-1.562" transform="translate(-569.462 -194.18)" fill="#272222"/>
          <path id="Path_190529" data-name="Path 190529" d="M711.18,324.375c.438-2.887-.219-5.65-.669-8.427a30.852,30.852,0,0,1-.212-6.347,30.082,30.082,0,0,0-.739-9.786,25.845,25.845,0,0,1-1.244-10.377c-1.115.285-1.157,1.059-1.151,1.888.022,3.571.407,7.126.438,10.7.042,4.744.175,9.488.626,14.221a21.078,21.078,0,0,0,2.951,8.127" transform="translate(-697.516 -213.725)" fill="#231f20"/>
          <path id="Path_190530" data-name="Path 190530" d="M642.535,10.041a3.966,3.966,0,0,0-2.7,1.276,17.987,17.987,0,0,0-3.507,4.991c-1.872,3.531-3.425,7.224-5.407,10.7-.455.8-.15,1.653-.166,2.52a40.878,40.878,0,0,1,3.92-4.167,6.64,6.64,0,0,0,1.5-2.271c1.421-3.993,3.591-7.614,5.548-11.342.261-.5.48-1.016.8-1.707" transform="translate(-608.719 -7.414)" fill="#252122"/>
          <path id="Path_190531" data-name="Path 190531" d="M703.441,494.319c-.216,8.179,2.24,15.725,5.441,23.1-1.482-7.777-3.621-15.4-5.441-23.1" transform="translate(-694.097 -365.013)" fill="#242020"/>
          <path id="Path_190532" data-name="Path 190532" d="M229.905,61.59l.109-.033.115,0c2.112-.168,4.232-.64,6.31-.625a45.68,45.68,0,0,1,6.337.542,4.937,4.937,0,0,1,2.607,1.593c2.61,2.469,5.287,4.882,8.838,5.977a8.22,8.22,0,0,1,1.352.473,8.955,8.955,0,0,0,4.458,1.179,15.424,15.424,0,0,0,10.911-3.964,19.128,19.128,0,0,0,6.353-.846,9.255,9.255,0,0,1,3.338-.189,6.769,6.769,0,0,0,2.361-.422c.682-.4.143-.755-.09-1.034a4.483,4.483,0,0,0-2.959-1.506c-3.117-.409-6.081-.129-8.551,2.132a4.85,4.85,0,0,1-2.006.891,30.8,30.8,0,0,1-6.155,1.374c-3.128.212-6.257.079-9.046-1.711-1.642-1.054-3.251-2.154-4.85-3.27A29.658,29.658,0,0,0,242.666,59a15.3,15.3,0,0,0-4.129-1.911,10.675,10.675,0,0,0-7.672.144c-1.781.746-2.7,2.436-4,3.7a.622.622,0,0,0-.052.834,1.053,1.053,0,0,0,1.017.425,21.445,21.445,0,0,0,2.075-.6" transform="translate(-143.833 -41.68)" fill="#231f20"/>
          <path id="Path_190533" data-name="Path 190533" d="M516.585,77.768a15.21,15.21,0,0,1-4.254-1.934.751.751,0,0,0-1.03-.084c-.5.355,0,.588.1.865.077.228.368.379.229.736-.742-.166-1.37-.716-2.162-.706-.185.335.147.57.141.861-.126.148-.23.018-.344-.022-.6-.215-.957-1.277-1.525-.955-.77.438.009,1.245.056,1.9a1.373,1.373,0,0,1-.08.365c-.757-.041-.992-1.446-1.839-.811-.618.463.234,1.325-.2,2.073-.806-1.048-1.565-1.313-2.024.25-2.042-.056-1.375,1.532-1.558,2.586-.64.362-.916-1.463-1.625-.275-.348.583.009,1.393-.416,1.991-.5.013-.343-.735-.887-.656-.337.595.106,1.38-.416,1.957-.427-.138-.468-.974-1.085-.657-.478.246-.5.772-.521,1.263a2.307,2.307,0,0,1-.214,1.311c-.446-.049-.381-.971-.832-.7-.817.492-.26,1.43-.457,2.344-.691-.872-1.066-.5-1.475.142-2.725,4.253-5.612,8.411-8.153,12.77a32.162,32.162,0,0,0-2.285,6.376,83.511,83.511,0,0,0-3,9.85,1.454,1.454,0,0,0,.679-.924,124.778,124.778,0,0,1,5.655-13.734c2.443-5.1,5.032-10.153,9.09-14.2,1.722-1.718,3.166-3.773,5.4-4.949.3-.16.5-.4.921-.291,1.372.342,2.2-.165,2.261-1.516.063-1.3.509-1.932,1.9-2.119.859-.115,1.623-.949,2.57-.217a.264.264,0,0,0,.246-.024c.767-1.571,2.729-.86,3.73-1.952.952-1.038,2.2-.862,3.407-.905" transform="translate(-443.545 -55.811)" fill="#aa7751"/>
          <path id="Path_190534" data-name="Path 190534" d="M345.638,82.293c-2.508-.573-4.706-2-7.233-2.576-1.2-.276-2.085-1.382-3.106-2.121-.67-.484-1.315-1.008-2.016-1.443a4.673,4.673,0,0,1-1.987-1.918,3.913,3.913,0,0,0-3.218-1.743,29.776,29.776,0,0,0-12.343.661c2.994.045,6.013-.027,8.874,1.034,1.985.736,4.072,1.274,5.79,2.61a27.413,27.413,0,0,1,3.338,3.036c.383.352.712.916,1.4.618.659-.309,1.171.138,1.686.386,2.8,1.348,5.667,2.238,8.816,1.455" transform="translate(-229.439 -53.276)" fill="#a97751"/>
          <path id="Path_190535" data-name="Path 190535" d="M279.967,66.2a1.337,1.337,0,0,0,.815.616c2.89.679,5.145,2.481,7.455,4.187.315.233.645.446.953.687,5.549,4.34,11.452,3.783,17.5,1.272-1.936-.081-3.72.75-5.646.891a17.5,17.5,0,0,1-7.5-1.192c-2.913-1.083-5.425-2.929-8.147-4.377a16.931,16.931,0,0,0-5.432-2.084" transform="translate(-181.133 -48.885)" fill="#aa7751"/>
          <path id="Path_190536" data-name="Path 190536" d="M190.389,121.05c.554-.031,1.016-.129.558-.833a14.344,14.344,0,0,1-.854-1.3c-.184-.366-1.234-.707-.084-1.239.264-.122-.006-.578-.168-.813-.468-.676-1.036-1.29-1.446-2-.233-.4-1.381-.68-.352-1.424.02-.015-.026-.173-.078-.23-.975-1.064-2.008-2.059-2.895-3.223a7.877,7.877,0,0,0-2.051-1.751,12.174,12.174,0,0,0,2.9,4.995,52.3,52.3,0,0,1,4.324,7.06,2.45,2.45,0,0,1,.151.758" transform="translate(-40.218 -79.924)" fill="#a97954"/>
          <path id="Path_190537" data-name="Path 190537" d="M240,90.192c-1.16.009-2.322.073-3.479.013a9.739,9.739,0,0,0-4.425.7,3.471,3.471,0,0,1-2.279.186,1.759,1.759,0,0,0-1.869.559c1.583.7,3.226.263,4.843.241a42.229,42.229,0,0,0,5.864-.956A3.083,3.083,0,0,0,240,90.192" transform="translate(-100.841 -66.595)" fill="#a77651"/>
          <path id="Path_190538" data-name="Path 190538" d="M349.333,93.079c-1.18-1.113-2.357-2.228-3.542-3.335-.335-.313-.657-.739-1.194-.318.163,1.6,1.331,2.572,2.358,3.589a8.7,8.7,0,0,0,5.331,2.279l-2.953-2.215" transform="translate(-243.636 -65.903)" fill="#242020"/>
          <path id="Path_190539" data-name="Path 190539" d="M432.134,63.561c-.814.069-1.628.144-2.442.2a.474.474,0,0,1-.522-.3.5.5,0,0,1,.189-.434c1.519-.909,2.026-2.791,3.556-3.684q.14-.076.094-.154c-.03-.052-.061-.078-.092-.078a5.527,5.527,0,0,0-2.379,1.7,11.41,11.41,0,0,1-3.021,2.593c1.4,1.686,1.434,1.91,4.617.149" transform="translate(-346.061 -43.651)" fill="#a97752"/>
          <path id="Path_190540" data-name="Path 190540" d="M397.908,56.071c0,.077,0,.155,0,.233a17.773,17.773,0,0,1,7.851-.289c-2.627-1.505-5.242-1.228-7.849.057" transform="translate(-311.051 -40.608)" fill="#a57450"/>
          <path id="Path_190541" data-name="Path 190541" d="M611.954,334.774a16.045,16.045,0,0,0,.053-4.2,10.442,10.442,0,0,0-.053,4.2" transform="translate(-573.353 -244.099)" fill="#302926"/>
          <path id="Path_190542" data-name="Path 190542" d="M610.363,354.173a3.136,3.136,0,0,0-.254-2.057,2.47,2.47,0,0,0,.254,2.057" transform="translate(-571.233 -260.008)" fill="#634c3c"/>
          <path id="Path_190543" data-name="Path 190543" d="M311.955,27.14c-4.615-1.941-8.816-4.874-13.843-5.822a5.722,5.722,0,0,0-4.228.7c.171,1.307,1.158,1.6,2.227,1.787l.182.031,2.323-.064c.3-.573-.208-.941-.279-1.219.11.266.551.649.274,1.213a21.3,21.3,0,0,0,3.672,1.057c.171-.24.081-.48-.041-.833.32.678.964,1.006,1.06,1.689,1.348.031,2.33,1.124,3.643,1.255.332-.472.766-.27,1.178-.171.842.2,1.676.444,2.526.608.452.087.946.266,1.307-.229" transform="translate(-190.04 -15.648)" fill="#c89269"/>
          <path id="Path_190544" data-name="Path 190544" d="M357.667,18.307c-.1-.637.8-1.454-.055-1.863-.69-.331-1.171.531-1.69.956s-1.081.858-1.593,1.32c-.352.317-.773.71-.458,1.219.3.489.85.282,1.3.185a4.815,4.815,0,0,0,.723-.277c.032,1.45.282,1.669,1.572,1.164a27.375,27.375,0,0,1,3.128-.736l-.082-.086a4.5,4.5,0,0,1-2.849-1.881" transform="translate(-254.345 -12.088)" fill="#c9926a"/>
          <path id="Path_190545" data-name="Path 190545" d="M274.325,40.627c-1.805-.136-3.481-.87-5.251-1.17-.2.417.211.639.24.963a6.928,6.928,0,0,0,4.566,1.594c3.308.219,4.554-.017,6.95-1.353a12.328,12.328,0,0,1-6.5-.033" transform="translate(-152.409 -29.136)" fill="#272222"/>
          <path id="Path_190546" data-name="Path 190546" d="M328.241,30.705c.387-.709-.254-1.037-.571-1.462s-.687-.767-1.124-1.243c-.206.9.484,1.278.675,1.849l1.019.856" transform="translate(-214.98 -20.676)" fill="#3c312c"/>
          <path id="Path_190547" data-name="Path 190547" d="M354.072,23.776a2.6,2.6,0,0,0,2.849,1.881,7.163,7.163,0,0,1-2.326-1.731l-.523-.15" transform="translate(-250.75 -17.557)" fill="#3c312b"/>
          <path id="Path_190548" data-name="Path 190548" d="M225.015,231.3a30.1,30.1,0,0,0-2.063,4.058,7.363,7.363,0,0,0-.411,4.35c1.355,5.533,2.2,11.2,4.48,16.486.43,1,.949,1.958,1.424,2.937.353.729,1.182,1.316.634,2.32-.072.133.168.471.311.681,2.179,3.212,3.995,6.641,5.984,9.967a47.291,47.291,0,0,0,5.193,7.354c.116.13.348.294.323.391-.379,1.5.855,1.582,1.717,2.065.621.348,1.243.8,1.143,1.728-.061.568.428.907.794,1.285.472.489,1.164.779,1.39,1.5l.447.559c.154.2.326.6.486.548,1.5-.469,1.523.874,2.045,1.6.154.214.406.3.586.48l.293.22c.673-.066.673-.066.8-1.113a3.455,3.455,0,0,0,2.121,2.425.254.254,0,0,1,.2.114c.648.031.361-.689.7-.908.448.222.8.555,1.225.774.311.161.755.445.967.253,1-.906,1.561-.058,2.221.462.171.134.433.342.569.272.984-.5,1.594.377,2.38.583.457.12,1.034.536,1.207-.356.025-.127.082-.3.234-.207,1.372.857,2.908.3,4.355.46,2.237.243,4.461.861,6.781.334a7.95,7.95,0,0,1,3.2.047c1.1-.639,1.1-.641,2.507.039.146.07.286.253.437.059.049-.064-.045-.224-.034-.336.052-.547.334-.164.477-.087.447.238.726.767,1.446.759-.583-1.417.192-1.426,1.264-1.34a5.339,5.339,0,0,0,2.262-.549c.462-.177.947-.526,1.451-.047.061.058.123.237.293.068.822-.818.826-.812,1.72-.033a2.537,2.537,0,0,0,.314.2c.418-.545-.965-1.072-.053-1.521.945-.465.985.709,1.543,1.037.264-.573-.832-1.073-.066-1.675.566-.446.857.016,1.228.272.4-.816,1.28-1.11,1.889-1.706.653-.639,1.281-1.3,1.914-1.954,5.449-5.661,8.1-12.72,10.137-20.1a21.692,21.692,0,0,0,.492-2.409c1.234-4.663,1.592-9.54,3.425-14.057.737-2.179,1.246-4.424,1.9-6.629,1.06-3.588,2.4-7.091,3.233-10.748a31.377,31.377,0,0,0,.774-6.047,9.132,9.132,0,0,0-1.053-4.639,12.26,12.26,0,0,1-.789-1.932,1.417,1.417,0,0,1,.384-1.662c.207-.195.577-.236.587-.72l-2.117.669c-.048-.624,1.253-.7.517-1.494a1,1,0,0,1-1.305-.085,40.431,40.431,0,0,0-4.027-3.4c-.13-.081-.17-.294-.211-.462.01-.21.021-.421.043-.87-.932,1.089-1.654.935-2.493.059-.438-.458-1.444.415-1.936-.47-1.738.5-3.27-1.279-5.077-.423-.759.36-.67-.5-.89-.889l-.105-.052a.666.666,0,0,0-.234.04,5.035,5.035,0,0,1-3.278.182c-2.24-.3-4.377.221-6.543.5-.746.1-1.328.275-1.293-.792.005-.166-.213-.245-.407-.174-.764,1.123-1.289,2.465-3.186,2.048-.428-.094-1.2.294-1.886.2-.343-.045-.7.17-.623-.433.031-.234-.057-.442-.357-.377-1.469.318-2.755-.574-4.176-.616-1.229-.037-2.476-.117-3.3-1.254-1.054.677-1.718-.41-2.588-.57a.73.73,0,0,0-.421-.365c-1.068-.258-2.332-.148-2.825-1.5v-1.487c-.455.025-.394.454-.553.705a1.313,1.313,0,0,1-1.363,1.126,23.748,23.748,0,0,0-3.989.2c-1.457.221-1.575.052-1.795-1.426-.035-.236.1-.535-.246-.655l-.475,1a6.029,6.029,0,0,1-3.576,1.37,14.711,14.711,0,0,0-4.952.929,2.183,2.183,0,0,1-1.733.327c-.453-.15-.732.367-1.06.641-.884.738-1.652,1.725-3.038,1.4-.341-.08-.58.168-.74.437-1.138,1.918-3.008,3.117-4.574,4.6-2.937,2.791-5.924,5.515-8.208,8.909-1.166,1.733-2.571,3.3-3.776,5-.321.455-.747.874-.628,1.515" transform="translate(-174.695 -151.496)" fill="#231f20"/>
          <path id="Path_190549" data-name="Path 190549" d="M216.451,254c-1.06-.01-1.422.46-1.013,1.467a10.732,10.732,0,0,0,.639,1.568c1.727,2.84,1.649,5.871,1.05,8.98-1.017,5.274-3.05,10.253-4.44,15.418a12.049,12.049,0,0,0-.681,4.225c1.053-.48.624-2.059,2.1-2.5.754-.226.858-2.005,1.11-3.13.287.168.093.491.218.714.256-2.15,1.143-4.236,1.324-6.3.315-3.6,2.248-6.577,3.013-9.959a22.872,22.872,0,0,0,.855-5.5c-.572.276-.7.794-.854,1.362a21.1,21.1,0,0,1-1.725,5.105c.077-.756.173-1.511.227-2.27A18.979,18.979,0,0,0,216.451,254" transform="translate(-77.292 -187.554)" fill="#d38271"/>
          <path id="Path_190550" data-name="Path 190550" d="M393.691,530.771c-.942-1.031-2.254-.586-3.207-.4a13.719,13.719,0,0,1-3.558-.043c-.751-.04-1.588-.851-2.3.118a.318.318,0,0,1-.224-.084c-.859-1.118-2.329.035-3.239-.875-1.121,1.326-1.674-.715-2.617-.441-.04.012-.079.031-.159.064-.243.529.65.8.318,1.43-1.059-.47-2.116-.913-2.507-2.182-.166.128-.289.19-.281.222.09.387.83.674.377,1.086s-.856-.16-1.205-.434c-.372-.294-.669-.682-1.027-1a1.073,1.073,0,0,0-1.073-.338c-.553.235.32.652-.076,1-1.26-.08-1.912-1.393-3.081-1.692-.41.671.946,1.23.016,1.851a20.421,20.421,0,0,0,7.16,1.692,73.7,73.7,0,0,0,11.285.545,25.531,25.531,0,0,0,5.4-.523" transform="translate(-291.622 -389.297)" fill="#dc8b77"/>
          <path id="Path_190551" data-name="Path 190551" d="M272.5,428.757a90.655,90.655,0,0,1-4.433,12.478c-.8,1.682-1.415,3.578-2.627,4.909-1.814,1.992-3.159,4.359-5.145,6.183-.638.586-.886,1.611-2.058,1.646-.636.019-.009.639-.17.95a28.188,28.188,0,0,0,10.169-12.2,71.547,71.547,0,0,0,4.075-11.778,6.069,6.069,0,0,0,.188-2.188" transform="translate(-141.206 -316.601)" fill="#dc8b77"/>
          <path id="Path_190552" data-name="Path 190552" d="M432.889,536.935c2.127,1,4.108,2.613,6.22,3.193,2.211.607,4.258,1.957,6.866,1.975a13.808,13.808,0,0,0-3.641-1.458,22.424,22.424,0,0,1-6.817-3.146c-.712-.551-1.752-.339-2.623-.571Z" transform="translate(-360.421 -396.477)" fill="#403430"/>
          <path id="Path_190553" data-name="Path 190553" d="M389.876,552.2c-.269.325.15,1.034-.543.972a2.128,2.128,0,0,1-1.9-1.108,3.336,3.336,0,0,0-.987-1.62c-.334.549-.09.965.111,1.4.117.253.481.5.208.8s-.643.137-.981.043c-.594-.165-1.133-.683-1.945-.279a1.927,1.927,0,0,0,1.45.738c1.528.271,3.157-.18,4.61.624.454.251.472-.328.811-.405.321-.073-.159-.293-.255-.456a5.84,5.84,0,0,0-.581-.711" transform="translate(-292.437 -406.456)" fill="#372d2b"/>
          <path id="Path_190554" data-name="Path 190554" d="M477.1,519.56c-.364-.822-.707-1.656-1.1-2.461a.831.831,0,0,0-.83-.516c-.427.066-.046.461-.146.6-.506.7-.661-.263-1.037-.252a4.713,4.713,0,0,0,3.117,2.631" transform="translate(-402.301 -381.447)" fill="#d78876"/>
          <path id="Path_190555" data-name="Path 190555" d="M464.608,525.532c-.624-.637-1.373-1.158-1.471-2.19-.051-.539-.667-.557-1.026-.755-.58.492.638,1.322-.429,1.633a4.639,4.639,0,0,0,2.926,1.313" transform="translate(-386.586 -385.886)" fill="#d58673"/>
          <path id="Path_190556" data-name="Path 190556" d="M270.668,489.054c-2.189.488-.563,2.457-1.516,3.384,1.01-.424,1.326-1.2,1.516-3.384" transform="translate(-142.284 -361.125)" fill="#2f2827"/>
          <path id="Path_190557" data-name="Path 190557" d="M515.488,499.692a.509.509,0,0,1,.018.224c.519.006.643-.336.672-.763a7.523,7.523,0,0,0-.8-2.74c-.448,1.166.579,2.21.107,3.279" transform="translate(-452.174 -366.559)" fill="#67514a"/>
          <path id="Path_190558" data-name="Path 190558" d="M315.039,543.082a6.166,6.166,0,0,0,1.26,3.44,5.387,5.387,0,0,0-1.26-3.44" transform="translate(-199.917 -401.02)" fill="#382f2a"/>
          <path id="Path_190559" data-name="Path 190559" d="M522,485.268c.458.888.082,2.005.778,2.828.662-1.175-.105-2.093-.557-3.066a.136.136,0,0,0-.113.01,1.686,1.686,0,0,0-.107.229" transform="translate(-460.793 -358.147)" fill="#594642"/>
          <path id="Path_190560" data-name="Path 190560" d="M506.069,509.509a1.6,1.6,0,0,0,.141-2.082,2.458,2.458,0,0,0-.141,2.082" transform="translate(-440.069 -374.692)" fill="#352d2b"/>
          <path id="Path_190561" data-name="Path 190561" d="M309.1,541.825c-.06.736.439,1.215.822,1.967.291-1.061-.5-1.4-.822-1.967" transform="translate(-192.052 -400.092)" fill="#3e3530"/>
          <path id="Path_190562" data-name="Path 190562" d="M484.163,534.187a2.836,2.836,0,0,0-1.267-.971c.088.911.686.93,1.262.977l.005-.006" transform="translate(-411.69 -393.734)" fill="#403430"/>
          <path id="Path_190563" data-name="Path 190563" d="M561.347,454.749c-.384,2.911,1.512,4.543,2.43,6.547.11-2.4-1.217-4.245-2.43-6.547" transform="translate(-511.82 -335.794)" fill="#282222"/>
          <path id="Path_190564" data-name="Path 190564" d="M444.771,220.919c1.831-2.427,3.7-4.824,5.483-7.289a50.18,50.18,0,0,1,7.064-7.478c1.026-.939,2.064-1.867,3.084-2.814a5.275,5.275,0,0,0,2.117-3.167c.249,1.028.54,1.242,1.179.868a6.822,6.822,0,0,0,3-2.649c.133.506-.062,1.205.765.688a6.7,6.7,0,0,1,4.727-1.068.536.536,0,0,0,.651-.267c.129-.235.294-.5.573-.469.49.047.061.4.146.584.18.392.436.145.64.043a5.39,5.39,0,0,1,2.278-.866c.647-.024.476-.783.577-1.256a18.817,18.817,0,0,0-5.372.526.8.8,0,0,1-.642,0c-1.3-.329-2.4.531-3.763.573a2.137,2.137,0,0,1,1.338-1.272c2.02-.91,4.038-1.823,6.076-2.692a13.57,13.57,0,0,0,2-1.207c.426-.275,0-.4-.086-.593a.643.643,0,0,0-.6.178,3.22,3.22,0,0,1-2.276.607c-4.953.694-8.913,3.063-12.594,6.475a95.1,95.1,0,0,0-15.221,18.783,10.541,10.541,0,0,0-1.75,3.743l.606.021" transform="translate(-394.451 -141.113)" fill="#d28270"/>
          <path id="Path_190565" data-name="Path 190565" d="M294.22,221.145c.6.693-.157,1.148-.318,1.776,2.083-.334,4.132-.726,6.2-.969,1.208-.142,2.773-.517,3.593.053,1.286.893,1.492.015,2.047-.574a2.932,2.932,0,0,0-.992-.249c-3.116.383-6.189-.543-9.3-.279-.419.035-.878-.129-1.231.242" transform="translate(-183.831 -163.083)" fill="#d18170"/>
          <path id="Path_190566" data-name="Path 190566" d="M414.266,205.164a1.661,1.661,0,0,1-.03,1.627c-.434.883.115.98.743.993a3.823,3.823,0,0,0,1.8-.11c.866-.488,1.833.4,2.63-.373.362-.349.4.376.8.379,1.277.008,1.474-.76,1.449-1.763-1.4.575-2.841.189-4.265.161a7.488,7.488,0,0,0-1.4-.136,1.564,1.564,0,0,1-1.728-.778" transform="translate(-331.187 -151.496)" fill="#d18170"/>
          <path id="Path_190567" data-name="Path 190567" d="M232.2,233.013c-.525.587-.537.975.331,1.258,1.384.452,2.107,1.744,3.151,2.632.638.542,1.344,1.31,2.061.054-1.4-.815-2.288-2.253-3.709-3.062a5.98,5.98,0,0,0-1.835-.882" transform="translate(-99.595 -172.06)" fill="#d18171"/>
          <path id="Path_190568" data-name="Path 190568" d="M398.3,210.69c-.542.7-.316,1.146.45,1.452a6.705,6.705,0,0,0,2.125.36c.734-.241,1.39-.53.923-1.508a6.5,6.5,0,0,0-3.5-.3" transform="translate(-307.273 -155.488)" fill="#cf806f"/>
          <path id="Path_190569" data-name="Path 190569" d="M395.808,203.911c-.1.63-.2,1.257-.923,1.508l.67.049c1.217-1.174,1.328-2.645,1.165-4.49-.427,1.138-.393,2.127-.913,2.933" transform="translate(-301.285 -148.405)" fill="#292222"/>
          <path id="Path_190570" data-name="Path 190570" d="M347.715,215.546a5.807,5.807,0,0,0-1.454,3.232,3.692,3.692,0,0,0,1.454-3.232" transform="translate(-239.501 -159.162)" fill="#2f2624"/>
          <path id="Path_190571" data-name="Path 190571" d="M385.241,205.9l-1.231,3.605c1.395-1.06,1.2-2.376,1.231-3.605" transform="translate(-286.902 -152.038)" fill="#4b3834"/>
          <path id="Path_190572" data-name="Path 190572" d="M285.054,217.334l2-2.043a2.868,2.868,0,0,0-2.108,1.991l.039.054Z" transform="translate(-162.805 -158.974)" fill="#453733"/>
          <path id="Path_190573" data-name="Path 190573" d="M305.935,216.549a2.162,2.162,0,0,0,1.128-1.528,2.813,2.813,0,0,0-1.128,1.528" transform="translate(-188.3 -158.775)" fill="#503b37"/>
          <path id="Path_190574" data-name="Path 190574" d="M464.868,210.384c-.061.31-.281.605-.09,1.009.583-.122.626-.588.732-1.005-.212-.4-.427-.154-.642,0" transform="translate(-388.279 -155.194)" fill="#44342f"/>
          <path id="Path_190575" data-name="Path 190575" d="M534.723,464.1c.013,1.215.7,1.866.956,2.66a3.3,3.3,0,0,0-.956-2.66" transform="translate(-476.788 -342.699)" fill="#4f3a35"/>
          <path id="Path_190576" data-name="Path 190576" d="M448.176,192.431a1.762,1.762,0,0,0,2.276-.607l-2.276.607" transform="translate(-368.897 -141.646)" fill="#e9997f"/>
          <path id="Path_190577" data-name="Path 190577" d="M345.345,25.01c.63-1.152-.157-1.55-1.3-2.133.567.891,1.22,1.363,1.3,2.139l-.005-.006" transform="translate(-236.775 -16.893)" fill="#332b27"/>
          <path id="Path_190578" data-name="Path 190578" d="M352.2,362.5c1.944-2.57,4.314-4.9,4.712-8.344a4.4,4.4,0,0,0-.715-3.221,11.842,11.842,0,0,0-6.811-5.163,16.308,16.308,0,0,0-9.137-.114c-3.844.953-7.724,1.7-11.643,2.3a33.321,33.321,0,0,1-15.332-1.2,43.371,43.371,0,0,0-6.845-1.648c-3.99-.588-7.433.347-9.561,4.027-2.2,3.811-4.072,7.784-4.334,12.3.258,1.013-.19,2.285,1.047,2.935.245.129.042.228.007.242-.982.4-.3,1.017-.148,1.492a16.187,16.187,0,0,0,6.015,7.85,9.067,9.067,0,0,0,3.383,1.3c1.409.364,2.819.711,3.364,2.324.145.428.43.28.739.189a5.338,5.338,0,0,1,5.269.959c.4.335.825.193,1.244.2,2.3.03,4.55.2,6.117,2.235.37.48.813.161,1.2.088a14.678,14.678,0,0,1,5.83-.047c.962.2,1.67,1.286,2.478,1.154s1.554-.867,2.465-1.067a7.066,7.066,0,0,1,5.308.6.7.7,0,0,0,.914-.049c2.073-1.507,4.372-1.381,6.6-.571,1.019.371,1.425.092,1.841-.675a3.3,3.3,0,0,0,.118-3.888,2.464,2.464,0,0,1,.042-2.238,18.322,18.322,0,0,0,1.059-6.889c-.029-.808-.072-1.675-.931-2.152-1.168-.1-1.741,1.027-2.719,1.319-.569.158-1.168.192-1.725.408a11.661,11.661,0,0,0-3.281,3.644c-.457-.805-.969-.593-1.5-.034-.5.528-.876,1.191-1.6,1.475a3.723,3.723,0,0,1-3.252.176,5.475,5.475,0,0,0-3.677-.165,1.436,1.436,0,0,1-1.017.07,2.543,2.543,0,0,0-2.541.47c-.782.432-1.2,1.233-1.834,1.818a5.565,5.565,0,0,1-1.754,1.314c-.66.244-1.376.607-1.341-.671.018-.654-.5-.96-1.091-1.116a17.092,17.092,0,0,0-4.976-.873,2.913,2.913,0,0,1-2.779-1.582,6.436,6.436,0,0,0-4.62-3.441,6.834,6.834,0,0,1-2.375-1.03c-.35-.229-.726-.513-1.195-.249-.217.372-.395.465-.715.04a9.415,9.415,0,0,0-2.289-2.4,8.618,8.618,0,0,1-1.753-.857,3.535,3.535,0,0,1-2.051-2.814,2.321,2.321,0,0,0,1,1.081,1.958,1.958,0,0,0,1.062.145c.948,0,1.151,1.207,2.056,1.28a6.693,6.693,0,0,0,2.13.546c.532-.026,1.05-.087,1.33-.638a1.476,1.476,0,0,0-.423-1.4,3.894,3.894,0,0,0,1.759,1.667,3,3,0,0,1,2.185,1.019,1,1,0,0,0,.637.433c1.51.082,2.628,1.069,3.919,1.652a6.115,6.115,0,0,0,3.589.351,18.345,18.345,0,0,1,3.125-.137c.347,0,.762-.064,1.008.181,1,.994,2.215.84,3.434.718a2.175,2.175,0,0,0,.763-.2,13.032,13.032,0,0,0,2.568-.305c1.366-.48,2.369-1.639,3.67-1.889a.533.533,0,0,0,.009.752,11.021,11.021,0,0,0,3.989.145,7.5,7.5,0,0,1,2.045.151,11.555,11.555,0,0,0,7.207-1.033,13.3,13.3,0,0,0,2.228-1.062,6.957,6.957,0,0,1,3.36-.748c.584-.018.943-.452,1.376-.743.546-.315,1.245.037,1.765-.4" transform="translate(-234.718 -254.715)" fill="#f57f59"/>
          <path id="Path_190579" data-name="Path 190579" d="M296.943,241.659c-1.068.7-.626-.635-1.061-.789a11.565,11.565,0,0,0-8.515-3.078,3.286,3.286,0,0,0-1.723.458c-.534,1.075-.319,2.372-1,3.4a9.06,9.06,0,0,1-.139-2.813,1.9,1.9,0,0,0-.576-1.516c-1.882-1.628-7.277-3.484-10.663-1.606a2.257,2.257,0,0,0-.626.456,19.961,19.961,0,0,1-1.131,3.539c-.538-1.261-.414-2.457-.771-3.545a13.515,13.515,0,0,0-9.942-2.465,4.646,4.646,0,0,0-3.14,1.677c-.446,1.234-.17,2.639-.938,4.092a18.382,18.382,0,0,0-.389-3.829,2.3,2.3,0,0,0-.829-1.288c-1.9-1.709-7.41-1.9-9.082.241-.126.487-.226.983-.389,1.457-.089.261.038.7-.29.759-.406.079-.51-.352-.66-.647a1.98,1.98,0,0,1-.081-.769c-.051-1.1-.411-1.451-1.5-1.474a7.806,7.806,0,0,0-6.866,5.089.344.344,0,0,1-.244.253c-.21-.061-.72-.434-.477.161a11.975,11.975,0,0,0,4.362,5.877c1,.643,1.717-.122,2.364-.748a10.536,10.536,0,0,1,1.718-1.771,2.372,2.372,0,0,1,1.835-.356c-.86,1.267-.106,1.981.812,2.7,2.03,1.6,4.351,2.767,6.863,2.125a3.454,3.454,0,0,1,3.425.842c1.505,1.124,3.394,1.275,5.224,1.392a51.888,51.888,0,0,0,6.516-.274c.985-.061,1.253-.8,1.681-1.364.369-.485.607-.581.955-.1,1.5,2.089,3.737,2.413,6.034,2.458,1.78.035,3.564-.129,5.347-.205.13-.005.335.036.38-.03.837-1.23,1.789-.268,2.66-.113a15.423,15.423,0,0,0,5.44.256,4.755,4.755,0,0,0,3.958-3.008c1.292,1.241,2.719,2.242,4.525,1.868a5.635,5.635,0,0,0,2.689-1.507,7.091,7.091,0,0,0-3.552-5.983,2.171,2.171,0,0,1-1.237-2.17,1.75,1.75,0,0,0-.474-1.563c-.146-.009-.267.017-.279.2-.3,1.222.075,2.482-.208,3.705" transform="translate(-165.594 -172.074)" fill="#eff8fd"/>
          <path id="Path_190580" data-name="Path 190580" d="M295.353,338.877a72.06,72.06,0,0,1,3.159-9.081c1.017-2.231,2.107-4.4,4.288-5.76,2.577-1.6,5.339-1.3,8.078-.662,3.214.743,6.379,1.7,9.6,2.421,4.177.94,8.364.465,12.551-.111,4.52-.621,8.869-2.132,13.4-2.616,5.082-.543,10.98,1.816,13.09,7.382a6.417,6.417,0,0,1,.213,1.146c.6-3.516.808-7-.8-10.349-.463-.966-.906-1.967-2.31-1.695-.141.4.341.7.356,1.256-1.588-.671-1.871-2.807-3.828-3.134l.628,1.826c-1.355-.662-1.808-2.2-3.355-2.3a6.714,6.714,0,0,1,.479,2.314c-1.481-1.034-2.222-2.568-3.405-3.989-.063,1.467,1.06,2.175,1.445,3.357-1.075-.522-1.333-1.618-2.119-2.2-.266-.2-.543-.544-.908-.293-.314.216.138.54-.016.867a5.339,5.339,0,0,0-2.447-.552c-.139.563.3.842.567,1.437-1.333-.5-1.979-1.793-3.462-2.07l1.155,1.849c-1.491-.848-2.372-2.045-3.788-2.319a4.31,4.31,0,0,0-.719-.005l.552,1.511a2.6,2.6,0,0,1-1.771-1.139c-.206-.224-.39-.471-.607-.683-.467-.457-1.021-1.091-1.643-.83-.511.215-.188,1.017-.22,1.555-.034.571.061,1.207-.685,1.36-.679.138-1.4.594-2.028-.212a6.186,6.186,0,0,0-1.2-1.192,1.6,1.6,0,0,0-1.915-.241c-3.214,1.783-6.531,1.579-9.816.248a2.96,2.96,0,0,0-2.355-.107,7.51,7.51,0,0,1-4.615.334c-.358-.092-.861-.324-.537.479.08.2-.124.275-.533,0-1.451-.97-1.894-.889-2.817.628-.188.309-.227.029-.334.012-2.148-.328-4.322-.568-6.408-2.184l1.111,3.361c-1.513-.761-1.745-2.546-3.31-3.044-.155,1.117.761,1.836.86,2.958-1.122-.454-1.409-1.837-2.677-2.144.158,1.5,1.178,2.609,1.519,4.147a4.874,4.874,0,0,1-1.994-2.562c-.156-.324-.223-.849-.8-.561-.459.228-.806.5-.454,1.115a6.706,6.706,0,0,1,.761,2.221c-.514.063-.556-.375-.785-.577-.319-.282-.363-1.159-.892-.829a1.456,1.456,0,0,0-.715,1.893c.3.662.568,1.338.859,2.028-.493.153-.589-.225-.808-.387-.316-.233-.443-.924-.973-.609a1.471,1.471,0,0,0-.84,1.461c.147,1.917.867,3.7,1.181,5.826.671-2.071.879-4.055,2.353-5.829a84.953,84.953,0,0,0-.123,9.22,28.368,28.368,0,0,0,.813,6.051" transform="translate(-237.536 -232.154)" fill="#c36349"/>
          <path id="Path_190581" data-name="Path 190581" d="M313.2,478.306c.227-.185.069-.725.465-.671a.654.654,0,0,1,.54.782c-.188.906.412.977,1.039,1.066,1.936.274,3.873.54,5.8.844.53.083.716-.113.758-.595.042-.5-.111-1.039.308-1.586a.844.844,0,0,1,.509.818c-.11,1.256.516,1.527,1.643,1.439a20.324,20.324,0,0,1,3.519.026c1.24.12,1.786-.328,1.735-1.566a.941.941,0,0,1,.255-.853.838.838,0,0,1,.692.944c-.033.99.508,1.22,1.361,1.3,1.7.169,3.212-.094,4.287-1.573.165-.226.322-.405.624-.375a5.045,5.045,0,0,0,5.859-1.756c.156-.2.252-.455.51-.564l.447-.812a8.477,8.477,0,0,0,2.461-.634c2.341-1.121,3.673-2.649,3.055-6.238-.17-1.677-.349-1.813-1.915-1.555a7.243,7.243,0,0,0-1.735.547,1.549,1.549,0,0,0-1.079,1.713,1.752,1.752,0,0,1-.579,1.762c-.376-1.62-.479-1.671-2.652-1.387-1.634.214-2.04.641-1.981,2.085.03.744-.019.824-1.058,1.681a3.422,3.422,0,0,1-.026-.538c.232-1.988-.235-2.579-2.26-2.6a21.273,21.273,0,0,0-2.983.3c-.745.1-1.422.194-1.314,1.314.072.746-.462.328-.773.14a11.034,11.034,0,0,0-6.8-1.34c-1.082.086-1.808.474-1.773,1.719.012.423-.056.877-.563,1.054-.071-.055-.177-.1-.18-.145-.126-2.017-.124-2.019-2.16-2.469a35.234,35.234,0,0,0-4.332-.949c-1.057-.1-1.9-.06-1.245,1.488a2.278,2.278,0,0,1-1.846-1.185,2.888,2.888,0,0,0-2.708-1.614,9.625,9.625,0,0,1-2.465-.75c-.773-.193-1.308-.031-.931.975a1.109,1.109,0,0,1-.163,1.38,11.551,11.551,0,0,0-1.274-2.24,4.7,4.7,0,0,0-3.287-1.666c-.6-.045-1.324-.194-.93.876a.532.532,0,0,1-.358.73c-.361.078-.529-.278-.656-.535-.871-1.768-2.492-2.621-4.142-3.444-.486-.28-.744.051-.616.408.809,2.247.956,4.8,2.881,6.544.368.334.768.759,1.358.367.133-.346-.042-.781.41-1.156.64.828.495,1.831.7,2.727a6.1,6.1,0,0,0,4.429,3.093,16.724,16.724,0,0,1,5.386,2.048,8.685,8.685,0,0,0,2.556.9,1.173,1.173,0,0,0,1.192-.28" transform="translate(-227.4 -342.297)" fill="#eff8fd"/>
          <path id="Path_190582" data-name="Path 190582" d="M327.975,416.035l1.62-.2c.5-.881,1.481-1.21,2.156-1.9.2-.2-.012.193.116.232.9.346.794,1.2.816,1.872a16.275,16.275,0,0,1-1.142,7.116,2.2,2.2,0,0,0,.2,2.539c.9,1.085.284,2.328.247,3.508a6.821,6.821,0,0,0,3-3.775c.23-.846-.4-1.453-.285-2.261.373-2.62.842-5.213,1.4-7.8.342-1.6.631-3.107,1.879-4.256-.631.3-1.226-.835-1.868-.046-.24.391-.419.854-1,.847-2.136-.408-3.9.65-5.687,1.507a13.149,13.149,0,0,1-7.857,1.158,39.411,39.411,0,0,0-5.579-.07c-.513-.168-.7.253-.912.55-1.232,1.743-2.549,3.426-3.728,5.206-.3.447-.755.9-.37,1.532.825-.433,1.63-1.059,2.58-.257a.146.146,0,0,0,.127.007c1.988-.925,3.888-.13,5.827.245a2.046,2.046,0,0,0,2.231-.734,13.306,13.306,0,0,1,2.864-3.781c.062-.221.229-.021.078-.108-.036-.02-.043.024-.082.1-.141.285-.277.612.011.833.341.262.665.012.921-.223a22.168,22.168,0,0,1,1.893-1.791c.132-.1.317-.565.543-.055" transform="translate(-220.5 -303.328)" fill="#c36349"/>
          <path id="Path_190583" data-name="Path 190583" d="M278.358,421.318a6.359,6.359,0,0,1-2.828,1.035c-2.587.6-2.868.916-3.03,3.576-.026.432,0,.867,0,1.448,1.015-.473,1.962-.936,2.926-1.359a19.7,19.7,0,0,1,4.6-1.431c1.265-.216,1.671-.781,1.47-2.046a6.906,6.906,0,0,0-1.286-2.513c1.187.466,1.391-.277,1.927-.933,1.235-1.51.369-2.6-.364-3.768a13.467,13.467,0,0,0-3.949-4.12c-1.324-.878-2.386-.783-3.3.458a24.606,24.606,0,0,0-2.5,3.963c-.684,1.439-.2,3.025.166,4.474.206.827,1.237.793,2.031.845,1.327.086,2.7-.343,4.146.37" transform="translate(-155.029 -303.214)" fill="#d8e5eb"/>
          <path id="Path_190584" data-name="Path 190584" d="M261.111,239.889c.59.4,1.193.03,1.776-.01a10.734,10.734,0,0,1,6.876,2c.469.314.855.939,1.586.633.036-.345.065-.69.11-1.034.4-3.094-.471-4.435-3.466-5.215-1.384-.361-2.808-.575-4.185-.958a.965.965,0,0,0-1.185.5,8.017,8.017,0,0,0-1.513,4.09" transform="translate(-141.063 -173.712)" fill="#d8e5eb"/>
          <path id="Path_190585" data-name="Path 190585" d="M456.845,233.42c1.213-.968,1.683-2.573,3.108-3.412a12.5,12.5,0,0,1,3.7-1.491c1.533-.338,1.608.836,1.887,1.8a5.192,5.192,0,0,0-1.419-4.627,1.91,1.91,0,0,0-2.037-.478c-1,.274-2.343.38-2.862,1.069-.911,1.208-2.453,1.492-3.257,2.7-.108.163-.342.481-.065.492,1.381.053.024,1.192.658,1.64.177.125-.672-.023-.873.3-.173,1.013,1.634.824,1.161,2" transform="translate(-386.057 -166.229)" fill="#d8e5eb"/>
          <path id="Path_190586" data-name="Path 190586" d="M304.858,236.387a4.1,4.1,0,0,0,1.15-.124c3.442-1.431,6.477-.247,9.472,1.381a1.956,1.956,0,0,1,1.094,2.109c-.044.7-.275,1.476.287,2.113a29.33,29.33,0,0,1-.013-4.563,6.843,6.843,0,0,0-.291-2.578,1.864,1.864,0,0,0-2.061-1.4,47.027,47.027,0,0,0-7.765.893c-1.264.3-1.893.885-1.874,2.167" transform="translate(-197.818 -172.287)" fill="#d8e5eb"/>
          <path id="Path_190587" data-name="Path 190587" d="M413.1,227.207c1.654-.468,3.214-1.241,5.041-1.072a7.1,7.1,0,0,1,4.87,2.119,13.682,13.682,0,0,0-1.147-4.261c-.174-.41-.35-.741-.919-.751-2.091-.037-4.181-.116-6.27-.214-.639-.03-.957.178-1.049.834a26,26,0,0,0-.527,3.345" transform="translate(-332.28 -164.685)" fill="#d8e5eb"/>
          <path id="Path_190588" data-name="Path 190588" d="M234.853,251.1c0,.432.023.865-.007,1.295a2.452,2.452,0,0,0,1.534,2.884c2.12,1.041,2.974,3.353,3.734,5.537a4.83,4.83,0,0,0,.018-3.108c-.234-.706.106-1.373-.055-2.049-.407-1.712-3.405-4.329-5.225-4.559" transform="translate(-103.018 -185.413)" fill="#d7e4ea"/>
          <path id="Path_190589" data-name="Path 190589" d="M358.028,231.631c1.308-.275,2.358-1.222,3.756-1.323a14.868,14.868,0,0,1,6.559,1.1c.914.357,1.843.674,2.766,1.009a4.551,4.551,0,0,0-3.041-2.386c-2.72-.517-5.394-1.279-8.075-1.985-.886-.233-1.384-.061-1.566.9a10.11,10.11,0,0,0-.4,2.685" transform="translate(-265.97 -168.325)" fill="#d8e5eb"/>
          <path id="Path_190590" data-name="Path 190590" d="M445.553,503.694c-1.874.213-3.282-.966-4.807-1.7a11.522,11.522,0,0,0-3.763-1.288,6.427,6.427,0,0,1-3.936-2.065c-.3-.306-.574-.664-1.056-.7a2.125,2.125,0,0,0,1.416,2.585c1.188.532,2.395,1.034,3.535,1.657.727.4.981.144,1.121-.8.878,1.886,2.38,2.349,4.014,2.6.9.136,1.81.254,2.694.468.741.179.816-.19.782-.746" transform="translate(-359.755 -367.685)" fill="#d9e5eb"/>
          <path id="Path_190591" data-name="Path 190591" d="M493.422,469.851a4.394,4.394,0,0,1-2.451-2.7,30.4,30.4,0,0,0-1.41-4.045c-.142-.286-.12-.5.238-.568-.61-.343-1.4-.743-1.909-.327-.451.371-.127,1.221-.019,1.861a8.7,8.7,0,0,0,2.464,4.5c.974,1.04,2,2.03,3.189,3.228l-.1-1.942" transform="translate(-422.297 -341.168)" fill="#d7e4ea"/>
          <path id="Path_190592" data-name="Path 190592" d="M298.811,481.722c-.235,1.049.235,2.169-.293,3.183a5.2,5.2,0,0,1-3.042,2.637,7.964,7.964,0,0,0-2.182,1.052c1.137.445.156,1.305.443,2.034a3.982,3.982,0,0,0,1.794-.976,19.051,19.051,0,0,0,3.512-4.294c.447-.637-.145-1.3-.08-1.982a3.052,3.052,0,0,0-.153-1.653" transform="translate(-177.144 -355.711)" fill="#d7e4e9"/>
          <path id="Path_190593" data-name="Path 190593" d="M323.992,511.092c-.778-.048-1.039.689-1.565,1.022-1.236.785-2.45,1.653-4.066,1.162-.213-.064-.49.085-.737.135.4.422-.111.918.132,1.437,1.217-.256,2.446-.493,3.663-.776a2.916,2.916,0,0,0,2.573-2.98" transform="translate(-208.287 -377.397)" fill="#d5e1e7"/>
          <path id="Path_190594" data-name="Path 190594" d="M282.783,475.268a16.594,16.594,0,0,0,1.775-3.588c-2.4-.052-3.052,1.136-1.775,3.588" transform="translate(-159.571 -348.294)" fill="#d4e0e6"/>
          <path id="Path_190595" data-name="Path 190595" d="M504.852,252.058c-.208-.51-.4-1.027-.632-1.527-.094-.2-.016-.585-.393-.552a.954.954,0,0,0-.751.637c-.166.365.21.371.392.519.427.347.829.725,1.241,1.09l.143-.167" transform="translate(-437.648 -184.587)" fill="#d2dce1"/>
          <path id="Path_190596" data-name="Path 190596" d="M256.636,255.556c.558-1.208.188-2.467.208-3.705-.386,1.217.041,2.48-.208,3.705" transform="translate(-125.287 -185.971)" fill="#d7e4ea"/>
          <path id="Path_190597" data-name="Path 190597" d="M423.6,418.071c1.839,1.079,3.968,1.448,5.861,2.385a3.722,3.722,0,0,1,1.505,1.746,3.978,3.978,0,0,0,4.037,2.434,22.77,22.77,0,0,1,4.594.711,1.526,1.526,0,0,0,.6-.827,15.832,15.832,0,0,1,3.321-5.4.73.73,0,0,0,.267-.813c-.61,0-1.22,0-1.829-.014-.258-.006-.653.045-.752-.1-1.282-1.808-3.163-1.029-4.659-.814a7.547,7.547,0,0,1-5.994-1.465c-.035-.026-.069-.086-.1-.082-1.933.219-2.926-2.248-4.96-1.735-.312.6.188.968.443,1.373a15.216,15.216,0,0,1,1.488,2.553,17.629,17.629,0,0,0-2.626-3.931c-.144-.2-.351-.4-.653-.227-.407.921-1.188.456-1.8.424a7.626,7.626,0,0,1-1.61-.432.922.922,0,0,0,.254.954,22.2,22.2,0,0,1,1.809,2.7c.164.3.376.6.8.553" transform="translate(-355.085 -305.558)" fill="#c36349"/>
          <path id="Path_190598" data-name="Path 190598" d="M394.492,423.02a13.044,13.044,0,0,0-4.188,7.043c.6.3,1.013.63.554,1.4-.42.7-.076.9.641.819a5.733,5.733,0,0,0,3.691-2.238c.37-.423.721-.864,1.081-1.3,1.406-2.611,3.4-4.819,5.01-7.288.177-.595.919-.625,1.2-1.266-1.726.65-3.469,1.063-4.8,2.353a6.957,6.957,0,0,0-2.785,2.234c.076-.51.369-.954.436-1.455.033-.243.208-.648-.341-.585l-.5.283" transform="translate(-305.79 -310.275)" fill="#231f20"/>
          <path id="Path_190599" data-name="Path 190599" d="M351.678,426.809l1.009-1.437c-1.854.971-2.9,2.359-4.45,3.665l1.094-2.313a11.333,11.333,0,0,0-3.744,3.966c-.157.332-.635.7-.137,1.141,1.205-.168,1.364-1.476,2.264-2.051l.43,1.149a20.492,20.492,0,0,1,3.534-4.119" transform="translate(-244.203 -314.101)" fill="#272121"/>
          <path id="Path_190600" data-name="Path 190600" d="M501.862,414.393A18.236,18.236,0,0,0,499,410.181c-.444-.392-.885-.787-1.334-1.172-.2-.172-.428-.361-.5.107-.161,1.336.634,2.153,1.568,2.9L502,415.724c.269-.552-.143-.911-.138-1.33" transform="translate(-433.345 -301.881)" fill="#242020"/>
          <path id="Path_190601" data-name="Path 190601" d="M483.233,407.271c1.116,1.682,2.569,3.124,3.57,4.907-.146-1.839-1.239-3.231-2.221-4.676l-2.291-2.632a8.976,8.976,0,0,0,.942,2.4" transform="translate(-414.172 -298.962)" fill="#282121"/>
          <path id="Path_190602" data-name="Path 190602" d="M409.362,429.38c.279.7-.46,1.106-.5,1.721-.034.495-.413.955-.088,1.672a38.707,38.707,0,0,1,3.28-3.587l-2.69.194" transform="translate(-320.155 -316.918)" fill="#bf6248"/>
          <path id="Path_190603" data-name="Path 190603" d="M516.058,404.2l-1.076-1.744c-.859,1.674-.224,3.023,1.911,4.086.714.165.666-.239.5-.691a3.518,3.518,0,0,0-1.332-1.651" transform="translate(-453.32 -297.177)" fill="#252021"/>
          <path id="Path_190604" data-name="Path 190604" d="M509.994,409.119a6.041,6.041,0,0,0,.952,1.693c.15.249.441.526-.117.649a3.152,3.152,0,0,0,1.811.771l-1.568-2.9-1.078-.217" transform="translate(-447.256 -302.1)" fill="#be6147"/>
          <path id="Path_190605" data-name="Path 190605" d="M331.744,419.81l1.239-1.39a7.026,7.026,0,0,0-3.511,3.056,8.98,8.98,0,0,0,2.272-1.666" transform="translate(-220.377 -308.968)" fill="#382925"/>
          <path id="Path_190606" data-name="Path 190606" d="M318.359,412.716l-.393.606c.651-.317,1.448-.492,1.39-1.453l-1,.847" transform="translate(-203.743 -304.13)" fill="#53332c"/>
          <path id="Path_190607" data-name="Path 190607" d="M374.115,432.034c.9-1.765,1.5-3.414,2.865-4.72-2.025.248-3.353,2.366-2.865,4.72" transform="translate(-276.026 -315.536)" fill="#282221"/>
          <path id="Path_190608" data-name="Path 190608" d="M292.3,426.5c-2.1-.1-2.773-1.392-3.42-2.766-.337-.716-.629-2-1.382-1.794s-.536,1.5-.525,2.357a1.524,1.524,0,0,0,.031.259c.68,3.588,1.926,3.7,5.3,1.944" transform="translate(-168.564 -311.552)" fill="#242021"/>
        </g>
      </g>
    </g>
  </g>
</svg>
