<svg xmlns="http://www.w3.org/2000/svg" xmlns:xlink="http://www.w3.org/1999/xlink" width="73" height="73" viewBox="0 0 73 73">
  <defs>
    <clipPath id="clip-path">
      <rect id="Rectangle_45758" data-name="Rectangle 45758" width="57.642" height="57.692" fill="none"/>
    </clipPath>
  </defs>
  <g id="_2" data-name="2" transform="translate(-231 -925)">
    <g id="Group_175758" data-name="Group 175758" transform="translate(239 933)">
      <g id="Group_175758-2" data-name="Group 175758" transform="translate(0 0)" clip-path="url(#clip-path)">
        <path id="Path_185927" data-name="Path 185927" d="M9.1,48.673c-.633.37-.911.344-1.378-.163A28.19,28.19,0,0,1,.191,32.219,28.561,28.561,0,0,1,16.219,2.929,28.8,28.8,0,0,1,56.858,22.161a26.436,26.436,0,0,1,.68,4.327c.007.088-.014.191.1.23v4.392a28.753,28.753,0,0,1-.51,3.937A28.6,28.6,0,0,1,51.075,47.4a29.246,29.246,0,0,1-7.482,6.4,28.318,28.318,0,0,1-10.7,3.747c-.644.089-1.3.035-1.944.147h-4.28a12.091,12.091,0,0,0-2.186-.329A28.926,28.926,0,0,1,10.5,51.129c-.466-.379-.5-.7-.2-1.278a.8.8,0,0,1,1.242-.213c.557.381,1.069.822,1.622,1.212a26.821,26.821,0,0,0,12.47,4.8A26.407,26.407,0,0,0,41.32,52.78a26.739,26.739,0,0,0,10.361-9.6,20.031,20.031,0,0,0,1.674-3.117A25.122,25.122,0,0,0,55.66,31.52a26.5,26.5,0,0,0-3.9-16.846A26.824,26.824,0,0,0,40.3,4.425a26.433,26.433,0,0,0-9.42-2.462A26.431,26.431,0,0,0,16.4,4.89,26.789,26.789,0,0,0,5.432,15.357a26.262,26.262,0,0,0-3.357,9.73A27.063,27.063,0,0,0,2.9,36.447a29.567,29.567,0,0,0,1.338,3.582,24.918,24.918,0,0,0,3.368,5.554c.475.6.984,1.177,1.5,1.747.462.511.445.933-.014,1.344" transform="translate(0 0)"/>
        <path id="Path_185928" data-name="Path 185928" d="M55.7,61.674a21.415,21.415,0,0,1-2.921,4.976A26.464,26.464,0,0,1,36.313,77.015a26.718,26.718,0,0,1-22.087-5.3q-.224-.171-.444-.346a.86.86,0,0,0-1.255.04l-1.2-1.178a1,1,0,0,0-.206-1.4,26.562,26.562,0,0,1-4.585-6.743c-.063-.133-.106-.276-.159-.414.274-.039.345.185.442.356A28,28,0,0,0,20.953,74.282a27.751,27.751,0,0,0,7.308,1.755,27.807,27.807,0,0,0,19.472-5.445A28.483,28.483,0,0,0,55.2,62.129c.115-.2.167-.483.5-.455" transform="translate(-2.228 -21.553)" fill="#e5485d"/>
        <path id="Path_185929" data-name="Path 185929" d="M54.357,41a5.3,5.3,0,0,0-.85,1.3A26.69,26.69,0,0,1,48.4,48.461,27.238,27.238,0,0,1,37.04,54.652a31.333,31.333,0,0,1-5.278.9,27.07,27.07,0,0,1-8.281-.61A27.806,27.806,0,0,1,8.1,45.4,28.16,28.16,0,0,1,5.232,41.2a.939.939,0,0,0-.2-.191A24.535,24.535,0,0,1,2.8,33.386,26.013,26.013,0,0,1,4.019,20.968C7.044,12.554,12.777,6.763,21.277,3.979a26.01,26.01,0,0,1,23.2,3.031A26.243,26.243,0,0,1,56.4,24.987,26.5,26.5,0,0,1,54.515,40.71c-.045.1-.105.2-.158.3" transform="translate(-0.887 -0.884)" fill="#fe5876"/>
        <path id="Path_185930" data-name="Path 185930" d="M48.642,15.745c.33.449.829.757,1.075,1.276a2.654,2.654,0,0,0,.748,1.905A21.992,21.992,0,0,1,54.64,29.758a22.255,22.255,0,0,1-1.891,11.724,1.887,1.887,0,0,1-.242.442c-.584.64-.982,1.412-1.5,2.1a23.275,23.275,0,0,1-15.293,9.313,24.914,24.914,0,0,1-2.791.271c-.219.012-.559.128-.613-.284a1.971,1.971,0,0,0,.543-1.594c-.021-.412,0-.825,0-1.237a2.147,2.147,0,0,0-.057-.558c-.1-.366-.258-.68-.7-.673-.415.007-.57.3-.665.649a2.313,2.313,0,0,0-.064.613c0,.449.01.9,0,1.349a1.85,1.85,0,0,0,.522,1.434c.01.413-.324.307-.522.3a23.554,23.554,0,0,1-2.8-.26A23.471,23.471,0,0,1,12.629,43.227a8.72,8.72,0,0,0-.913-1.281,17.494,17.494,0,0,1-1.657-4.528A21.128,21.128,0,0,1,9.431,31.9,22.913,22.913,0,0,1,11.4,23.014a22.676,22.676,0,0,1,17.868-13.3,22.38,22.38,0,0,1,13.348,2.393,20.823,20.823,0,0,1,4.435,3.059,1.719,1.719,0,0,0,1.6.574" transform="translate(-3.294 -3.329)" fill="#e3edf8"/>
        <path id="Path_185931" data-name="Path 185931" d="M47.8,14.924a.98.98,0,0,1-1.358-.159A21.749,21.749,0,0,0,34.555,9.111,21.945,21.945,0,0,0,16.75,14.195a21.805,21.805,0,0,0-7.739,13.8,21.547,21.547,0,0,0,1.97,13.061,27.971,27.971,0,0,0,4.741,6.389,22.352,22.352,0,0,0,12.6,6.084A22.337,22.337,0,0,0,50.242,43.163c.436-.7.876-1.4,1.289-2.11a20.6,20.6,0,0,0,2.046-6.9,22.173,22.173,0,0,0-2.565-13.577,20.713,20.713,0,0,0-2.047-3.089.969.969,0,0,1-.094-1.282c.633-.407.965-.357,1.433.244a23.481,23.481,0,0,1,5.073,13.169A24.093,24.093,0,0,1,40.746,53.631a22.689,22.689,0,0,1-12.375,1.736c-9.477-1.343-16.1-6.5-19.686-15.335a23.937,23.937,0,0,1,5.663-25.968A23.381,23.381,0,0,1,27.825,7.42a23.813,23.813,0,0,1,19.711,6.048c.6.527.633.78.26,1.455" transform="translate(-2.449 -2.508)"/>
        <path id="Path_185932" data-name="Path 185932" d="M27.96,32.7a.867.867,0,0,1-1.254-.119c-1.552-1.388-3.117-2.763-4.661-4.159a2.54,2.54,0,1,1,3.389-3.778q4.8,4.259,9.583,8.534a1.58,1.58,0,0,0,2.035-.048c1.541-1.563,3.067-3.142,4.628-4.686a2.519,2.519,0,0,1,4.244,1.143,2.479,2.479,0,0,1-.69,2.478c-1.663,1.68-3.307,3.381-4.989,5.042-.5.5-.361,1.192-.671,1.741-.083.148.178.258.3.361q4.2,3.53,8.4,7.055a5.8,5.8,0,0,1,.464.409.838.838,0,0,1-1.1,1.262c-.183-.13-.349-.284-.521-.429q-4.159-3.492-8.312-6.99a.549.549,0,0,0-.762-.078,3.7,3.7,0,0,1-5.478-2.319,1.3,1.3,0,0,0-.42-.7c-.863-.751-1.714-1.516-2.568-2.279-.568-.509-.612-.739-.287-1.414a.809.809,0,0,1,1.209-.18c.57.368.993.911,1.541,1.306.232.163.368.606.68.471s.489-.542.7-.846c.072-.1-.007-.215-.083-.3-.122-.141-.263-.264-.4-.4q-2.379-2.1-4.743-4.219c-1.2-1.078-2.426-2.121-3.6-3.226a3.491,3.491,0,0,0-.471-.4.713.713,0,0,0-.974.046A.7.7,0,0,0,23.205,27c.4.4.822.766,1.248,1.132,1.164,1,2.294,2.043,3.452,3.053.654.57.65,1.1.056,1.518" transform="translate(-7.376 -8.36)"/>
        <path id="Path_185933" data-name="Path 185933" d="M53.666,59.253a20.772,20.772,0,0,1-4.611,6.45,22.32,22.32,0,0,1-13.33,6.255A22.617,22.617,0,0,1,13.155,59.415a.728.728,0,0,1-.037-.161,17.4,17.4,0,0,1,1.459,2.037,23.809,23.809,0,0,0,4.646,4.739,22.979,22.979,0,0,0,9.267,4.295,27.59,27.59,0,0,0,4.144.525c.178.011.379.06.533-.1a.293.293,0,0,1,.452,0,1.307,1.307,0,0,0,.925.09A25.671,25.671,0,0,0,40.938,69.6a23.582,23.582,0,0,0,7.663-4.42,25.977,25.977,0,0,0,4.778-5.6c.081-.124.13-.274.288-.33" transform="translate(-4.585 -20.708)" fill="#d4dff1"/>
        <path id="Path_185934" data-name="Path 185934" d="M32.91,35.9c-.45-.388-.911-.763-1.348-1.166a.958.958,0,0,0-1.352-.091c-.469-.312-.771-.841-1.335-1.028.444-.585.433-.889-.129-1.393-1.462-1.313-2.937-2.612-4.411-3.913-.312-.276-.65-.542-.608-1.012a.844.844,0,0,1,1.438-.522c.792.656,1.547,1.358,2.316,2.043Q30.6,31.6,33.725,34.388a3.152,3.152,0,0,1,.225.248A1.938,1.938,0,0,1,32.91,35.9" transform="translate(-8.291 -9.275)" fill="#405b6c"/>
        <path id="Path_185935" data-name="Path 185935" d="M44.051,74.622H43.6a.9.9,0,0,1-.62-.943c-.008-.807-.015-1.615,0-2.421.013-.592.329-.926.829-.934.524-.008.847.335.859.962.016.788,0,1.577.007,2.365a1,1,0,0,1-.625.971" transform="translate(-15.018 -24.577)" fill="#020202"/>
        <path id="Path_185936" data-name="Path 185936" d="M44.667,13.983c0,.429.022.861-.006,1.288a.836.836,0,0,1-1.672-.009q-.041-1.315,0-2.633a.781.781,0,0,1,.812-.823.822.822,0,0,1,.866.832,1.073,1.073,0,0,1,0,.112q0,.617,0,1.233h-.006" transform="translate(-15.017 -4.126)" fill="#020202"/>
        <path id="Path_185937" data-name="Path 185937" d="M13.926,43.056c.411,0,.823-.021,1.232.005a.82.82,0,0,1,.859.84.81.81,0,0,1-.855.842q-1.288.041-2.577,0a.812.812,0,0,1-.859-.839.837.837,0,0,1,.856-.848,1.073,1.073,0,0,1,.112,0h1.233v0" transform="translate(-4.098 -15.045)" fill="#020202"/>
        <path id="Path_185938" data-name="Path 185938" d="M72.388,43.056c.429,0,.861-.021,1.289.005a.821.821,0,0,1,.861.839.812.812,0,0,1-.855.844c-.858.028-1.719.027-2.577,0a.81.81,0,0,1-.861-.837.818.818,0,0,1,.853-.845c.428-.027.859-.006,1.289-.006" transform="translate(-24.55 -15.045)" fill="#020202"/>
        <path id="Path_185939" data-name="Path 185939" d="M48.775,36.442c1.246-1.268,2.489-2.54,3.742-3.8a.871.871,0,0,1,1.211-.07.856.856,0,0,1,0,1.215c-1.3,1.321-2.618,2.622-3.93,3.93a2.576,2.576,0,0,1-1.028-1.273" transform="translate(-17.046 -11.309)" fill="#405b6b"/>
        <path id="Path_185940" data-name="Path 185940" d="M41.19,43.383a2.017,2.017,0,1,1,4.025,0,2.731,2.731,0,0,1-4.025,0" transform="translate(-14.395 -14.411)" fill="#fe5875"/>
        <path id="Path_185941" data-name="Path 185941" d="M41.191,44.536a5.192,5.192,0,0,0,1.5.693,2.881,2.881,0,0,0,2.237-.531,2.645,2.645,0,0,1,.292-.161,2.014,2.014,0,0,1-4.025,0" transform="translate(-14.396 -15.565)" fill="#e5485d"/>
        <path id="Path_185942" data-name="Path 185942" d="M37.846,40.252l1.04-1.265c.127.107.248.223.382.319.328.234.312.459,0,.694a1.178,1.178,0,0,0-.189.2c-.582.734-.582.735-1.236.047" transform="translate(-13.227 -13.625)" fill="#2d4355"/>
        <path id="Path_185943" data-name="Path 185943" d="M48.474,38.636A11.846,11.846,0,0,1,49.5,39.909c-.55.647-.55.647-1.092.062l-.038-.04c-.626-.663-.626-.663.1-1.295" transform="translate(-16.745 -13.503)" fill="#2d4355"/>
      </g>
    </g>
    <rect id="Rectangle_45760" data-name="Rectangle 45760" width="73" height="73" transform="translate(231 925)" fill="none"/>
  </g>
</svg>
