<svg xmlns="http://www.w3.org/2000/svg" xmlns:xlink="http://www.w3.org/1999/xlink" width="73" height="73" viewBox="0 0 73 73">
  <defs>
    <clipPath id="clip-path">
      <rect id="Rectangle_45759" data-name="Rectangle 45759" width="44.454" height="44.364" fill="none"/>
    </clipPath>
  </defs>
  <g id="_3" data-name="3" transform="translate(-421 -925)">
    <g id="Group_175760" data-name="Group 175760" transform="translate(435.348 937.664)">
      <g id="Group_175759" data-name="Group 175759" transform="translate(0 0)" clip-path="url(#clip-path)">
        <path id="Path_185944" data-name="Path 185944" d="M0,19.012q0-6.98,0-13.959A4.781,4.781,0,0,1,5.063,0H33.038A4.787,4.787,0,0,1,38.107,5.05c0,.422-.186.984.089,1.224.236.207.786.062,1.2.063a4.781,4.781,0,0,1,5.06,5.055q0,13.959,0,27.918a4.779,4.779,0,0,1-5.062,5.052q-13.987,0-27.975,0a4.791,4.791,0,0,1-5.069-5.049c0-.422.186-.985-.089-1.225-.236-.207-.786-.062-1.2-.062A4.785,4.785,0,0,1,0,32.971q0-6.98,0-13.96m3.175,0q0,7.005,0,14.01A1.626,1.626,0,0,0,5,34.857H33.079A1.631,1.631,0,0,0,34.928,33q0-13.985,0-27.971a1.635,1.635,0,0,0-1.85-1.857H5A1.628,1.628,0,0,0,3.176,5q0,7.005,0,14.01m38.1,6.365q0-7,0-14.008a1.631,1.631,0,0,0-1.843-1.863,5.565,5.565,0,0,1-.743-.006c-.472-.066-.6.094-.6.582q.026,11.46.014,22.918a5.571,5.571,0,0,1-.165,1.469,4.753,4.753,0,0,1-4.734,3.556q-11.16.006-22.32.006c-.439,0-1.005-.194-1.284.093-.254.261-.071.817-.073,1.243a1.618,1.618,0,0,0,1.825,1.828H39.428a1.636,1.636,0,0,0,1.851-1.857q0-6.98,0-13.959" transform="translate(0 0)"/>
        <path id="Path_185945" data-name="Path 185945" d="M5.76,21.593q0-7.005,0-14.01A1.628,1.628,0,0,1,7.585,5.749H35.662a1.636,1.636,0,0,1,1.851,1.858V35.577a1.631,1.631,0,0,1-1.849,1.859H7.586A1.626,1.626,0,0,1,5.761,35.6q0-7.005,0-14.01m21.629,1.584c1.224,0,2.447,0,3.671,0a1.68,1.68,0,0,0,.985-.276,1.581,1.581,0,0,0-.9-2.892C28.66,20,26.18,20,23.7,20.018c-.4,0-.487-.111-.485-.492.017-2.392.01-4.785.007-7.178a2.669,2.669,0,0,0-.051-.637,1.581,1.581,0,0,0-3.118.384c-.01,2.459-.014,4.917.006,7.376,0,.414-.069.556-.529.551-2.414-.028-4.828-.014-7.242-.012a1.594,1.594,0,1,0,.015,3.167c2.414,0,4.828.012,7.242-.01.415,0,.517.1.513.515-.021,2.425-.008,4.851-.013,7.276a1.7,1.7,0,0,0,.311,1.07,1.586,1.586,0,0,0,2.864-.962c.007-2.459.012-4.917-.007-7.376,0-.4.075-.536.5-.524,1.223.032,2.446.011,3.67.011" transform="translate(-2.585 -2.58)" fill="#8ac24a"/>
        <path id="Path_185946" data-name="Path 185946" d="M48.986,33.1q0,6.98,0,13.959a1.636,1.636,0,0,1-1.851,1.857H19.062a1.618,1.618,0,0,1-1.825-1.828c0-.426-.181-.981.073-1.243.279-.287.845-.093,1.284-.093q11.159-.01,22.32-.006a4.753,4.753,0,0,0,4.734-3.556,5.571,5.571,0,0,0,.165-1.469q0-11.459-.014-22.918c0-.488.13-.647.6-.582a5.565,5.565,0,0,0,.743.006,1.631,1.631,0,0,1,1.843,1.863q0,7,0,14.008" transform="translate(-7.707 -7.723)" fill="#679e38"/>
        <path id="Path_185947" data-name="Path 185947" d="M31.267,27.045c-1.224,0-2.448.021-3.67-.011-.429-.012-.508.126-.5.524.019,2.459.013,4.917.007,7.376a1.586,1.586,0,0,1-2.864.962,1.7,1.7,0,0,1-.311-1.07c0-2.425-.008-4.852.013-7.276,0-.411-.1-.519-.513-.515-2.414.021-4.828.012-7.242.01a1.594,1.594,0,1,1-.015-3.167c2.414,0,4.828-.015,7.242.012.46,0,.532-.137.529-.551-.019-2.459-.015-4.917-.006-7.376a1.581,1.581,0,0,1,3.118-.384,2.67,2.67,0,0,1,.051.637c0,2.393.01,4.785-.007,7.178,0,.381.087.5.485.492,2.48-.019,4.96-.014,7.44-.007a1.58,1.58,0,0,1,.9,2.892,1.677,1.677,0,0,1-.985.276c-1.224-.006-2.447,0-3.671,0" transform="translate(-6.463 -6.447)"/>
      </g>
    </g>
    <rect id="Rectangle_45761" data-name="Rectangle 45761" width="73" height="73" transform="translate(421 925)" fill="none"/>
  </g>
</svg>
