<svg xmlns="http://www.w3.org/2000/svg" xmlns:xlink="http://www.w3.org/1999/xlink" width="73" height="73" viewBox="0 0 73 73">
  <defs>
    <clipPath id="clip-path">
      <rect id="Rectangle_45768" data-name="Rectangle 45768" width="52.346" height="52.297" fill="none"/>
    </clipPath>
  </defs>
  <g id="_5" data-name="5" transform="translate(-771 -925)">
    <rect id="Rectangle_45763" data-name="Rectangle 45763" width="73" height="73" transform="translate(771 925)" fill="none"/>
    <g id="Group_175767" data-name="Group 175767" transform="translate(781.137 935.133)">
      <g id="Group_175766" data-name="Group 175766" transform="translate(0 0)" clip-path="url(#clip-path)">
        <path id="Path_185950" data-name="Path 185950" d="M0,49.381V2.857A3.269,3.269,0,0,1,2.856,0h35.4a3.423,3.423,0,0,1,3.107,3.735q0,6.912,0,13.824a1.473,1.473,0,0,0,.041.549c.229-.042.323-.219.449-.344,1.314-1.307,2.618-2.624,3.935-3.928a3.848,3.848,0,0,1,5.88,4.912,6.868,6.868,0,0,1-.865,1q-4.438,4.434-8.879,8.865a1.8,1.8,0,0,0-.571,1.4q.022,9.309.01,18.619a3.653,3.653,0,0,1-1.653,3.157,3.125,3.125,0,0,1-1.885.5q-9.333,0-18.667,0c-5.253,0-10.506-.014-15.76.01A3.445,3.445,0,0,1,.379,50.63,3.531,3.531,0,0,1,0,49.381" transform="translate(0 0)"/>
        <path id="Path_185951" data-name="Path 185951" d="M23.2,52.771c-.17-.773-.472-1.018-1.271-1.018-3.23,0-6.459-.009-9.689.01-.408,0-.489-.113-.489-.5q.016-19.507,0-39.015c0-.388.082-.507.49-.5,1.631.026,3.263.017,4.895.005.3,0,.426.037.452.4a3.107,3.107,0,0,0,3,2.86q5.659.045,11.32,0a3.113,3.113,0,0,0,3-2.863c.024-.3.085-.4.4-.395q2.524.026,5.048,0c.33,0,.382.1.382.4q-.013,8.926,0,17.85a.717.717,0,0,1-.275.613,5.863,5.863,0,0,0-1.654,2.4c-.77,1.827-1.593,3.63-2.408,5.438a1.109,1.109,0,0,0,.109,1.365,1.086,1.086,0,0,0,1.36.124c.932-.433,1.878-.836,2.862-1.271v1.074c0,3.859-.005,7.718.009,11.577,0,.351-.075.449-.439.447-3.246-.016-6.493-.01-9.739-.009-.8,0-1.1.247-1.27,1.018a3.723,3.723,0,0,1-1.908.106c-.221-.076-.258-.293-.348-.467a.869.869,0,0,0-1.571-.012c-.092.174-.127.391-.345.474a3.671,3.671,0,0,1-1.919-.1" transform="translate(-5.636 -5.636)" fill="#fefefe"/>
        <path id="Path_185952" data-name="Path 185952" d="M23.523,49.007h2.01a1.076,1.076,0,0,0,1.27,1.021q5.457,0,10.914,0c.942,0,1.3-.352,1.3-1.288,0-4.744.006-9.487-.009-14.23a.647.647,0,0,1,.485-.745c.521-.183,1.013-.444,1.565-.693v.548q0,8.339,0,16.679c0,1.249-.516,1.77-1.754,1.77H5.693c-1.25,0-1.771-.515-1.771-1.753q0-22.314,0-44.629c0-1.253.513-1.773,1.75-1.773,2.55,0,5.1.01,7.65-.011.414,0,.532.119.49.509-.054.5.211,1.174-.11,1.46-.278.248-.936.079-1.426.081-1.683,0-3.366,0-5.049,0-.911,0-1.263.353-1.263,1.268q0,20.759,0,41.518c0,.936.354,1.288,1.3,1.288q5.457,0,10.914,0a1.077,1.077,0,0,0,1.27-1.021h2.01c.147.083.174.243.242.376a.879.879,0,0,0,1.586,0c.068-.133.1-.293.242-.376" transform="translate(-1.881 -1.872)" fill="#79b1fe"/>
        <path id="Path_185953" data-name="Path 185953" d="M33.477,3.916c2.055,0,4.11.008,6.165-.008.356,0,.5.05.486.457-.032,1.188-.006,2.378-.013,3.567a1.153,1.153,0,0,1-1.291,1.288q-5.35.005-10.7,0a1.152,1.152,0,0,1-1.288-1.29c-.006-1.206.015-2.412-.011-3.618-.007-.362.131-.4.436-.4,2.072.011,4.144.006,6.216.006" transform="translate(-12.869 -1.875)" fill="#bcd8fe"/>
        <path id="Path_185954" data-name="Path 185954" d="M64.131,24.565V7.492c0-1.272-.258-1.534-1.509-1.534-1.972,0-3.943-.007-5.915.007-.323,0-.454-.069-.429-.416a11.834,11.834,0,0,0,0-1.275c-.008-.243.032-.364.324-.363,2.719.011,5.439,0,8.158.015a1.406,1.406,0,0,1,1.4,1.394c.007.136,0,.272,0,.408q0,8.133.009,16.267a1.1,1.1,0,0,1-.375.883c-.541.512-1.051,1.056-1.674,1.688" transform="translate(-26.999 -1.876)" fill="#79b1fe"/>
        <path id="Path_185955" data-name="Path 185955" d="M81,35.86c-.08.085-.147.161-.218.232q-4.358,4.36-8.713,8.723c-.191.191-.3.189-.485,0-.626-.647-1.266-1.28-1.908-1.91-.153-.151-.218-.239-.023-.433q4.388-4.365,8.759-8.748c.114-.114.206-.281.4-.078.677.691,1.368,1.37,2.052,2.055.045.045.081.1.132.161" transform="translate(-33.36 -16.095)" fill="#fec05a"/>
        <path id="Path_185956" data-name="Path 185956" d="M93.337,29.967a2.349,2.349,0,0,1-.968,1.961c-.137.131-.213,0-.29-.078q-1.011-1-2.016-2.013c-.068-.068-.145-.117-.084-.252a1.929,1.929,0,0,1,2.474-.8,1.577,1.577,0,0,1,.885,1.182" transform="translate(-43.158 -13.723)" fill="#fe6876"/>
        <path id="Path_185957" data-name="Path 185957" d="M64.6,57.684c.453-1.016.861-1.921,1.257-2.832.1-.23.2-.175.329-.042.431.434.862.869,1.3,1.3.148.145.161.234-.048.325-.91.4-1.817.8-2.838,1.251" transform="translate(-30.993 -26.241)" fill="#97a0b2"/>
        <path id="Path_185958" data-name="Path 185958" d="M21.562,23.533c1.019,0,2.038,0,3.057,0,.81,0,1.2.38,1.2,1.173q.007,3.109,0,6.218c0,.8-.389,1.175-1.2,1.177q-3.082.006-6.166,0c-.83,0-1.2-.381-1.2-1.225q0-3.057,0-6.116c0-.867.368-1.226,1.25-1.228,1.019,0,2.038,0,3.057,0" transform="translate(-8.277 -11.29)"/>
        <path id="Path_185959" data-name="Path 185959" d="M25.823,49.415c0,1.019,0,2.039,0,3.058,0,.809-.381,1.2-1.174,1.2q-3.109.007-6.217,0c-.8,0-1.174-.391-1.176-1.2q-.005-3.083,0-6.167c0-.83.38-1.2,1.225-1.2q3.057,0,6.115,0c.867,0,1.225.368,1.228,1.251,0,1.019,0,2.039,0,3.058" transform="translate(-8.277 -21.639)"/>
        <path id="Path_185960" data-name="Path 185960" d="M17.254,70.911c0-1.019,0-2.039,0-3.058a1.033,1.033,0,0,1,1.15-1.173q3.134-.009,6.268,0a1.031,1.031,0,0,1,1.148,1.175q.007,3.109,0,6.218c0,.795-.391,1.173-1.2,1.174q-3.083.005-6.166,0c-.828,0-1.2-.382-1.2-1.227,0-1.036,0-2.073,0-3.109" transform="translate(-8.277 -31.989)"/>
        <path id="Path_185961" data-name="Path 185961" d="M44.085,68.537a1.147,1.147,0,0,1,.809.394c.416.425.846.836,1.255,1.266.169.177.278.177.447,0,.407-.432.831-.85,1.257-1.264A1.027,1.027,0,1,1,49.3,70.366c-.389.4-.779.806-1.191,1.186-.233.215-.284.355-.015.594.431.382.829.8,1.228,1.22a1.021,1.021,0,0,1,.08,1.5,1.033,1.033,0,0,1-1.535-.072c-.415-.4-.832-.8-1.22-1.229-.218-.241-.349-.218-.557.009-.39.426-.806.827-1.223,1.226a1.024,1.024,0,1,1-1.442-1.439c.4-.416.8-.838,1.23-1.218.28-.246.195-.386-.026-.594-.444-.419-.875-.854-1.3-1.3a.969.969,0,0,1-.179-1.133.987.987,0,0,1,.93-.581" transform="translate(-20.653 -32.881)"/>
        <path id="Path_185962" data-name="Path 185962" d="M49.785,26.4a1.241,1.241,0,0,1-.387.811c-1.48,1.477-2.953,2.96-4.438,4.432a1.028,1.028,0,0,1-1.609,0q-1.057-1.035-2.093-2.09A1.027,1.027,0,1,1,42.7,28.118c.4.39.813.776,1.185,1.194.224.251.344.2.551-.015,1.168-1.188,2.353-2.359,3.528-3.54a1.031,1.031,0,0,1,1.206-.277,1.017,1.017,0,0,1,.613.922" transform="translate(-19.605 -12.181)"/>
        <path id="Path_185963" data-name="Path 185963" d="M49.785,47.974a1.21,1.21,0,0,1-.357.785c-1.5,1.5-3,3.01-4.511,4.5a1.007,1.007,0,0,1-1.535-.008q-1.1-1.067-2.164-2.163a1.021,1.021,0,1,1,1.451-1.428c.394.376.789.752,1.15,1.157.243.273.384.3.662.014,1.146-1.185,2.324-2.339,3.488-3.507a1.037,1.037,0,0,1,1.113-.3.985.985,0,0,1,.672.766c.016.066.022.134.03.185" transform="translate(-19.604 -22.534)"/>
        <path id="Path_185964" data-name="Path 185964" d="M39.69,89.666c-.153.69-.51,1.033-1.061,1.019-.532-.014-.861-.346-1.01-1.019.148-.669.479-1,1.01-1.016.551-.014.907.327,1.061,1.016" transform="translate(-18.048 -42.531)" fill="#010101"/>
        <path id="Path_185965" data-name="Path 185965" d="M23.417,31.942c-.645,0-1.29-.01-1.934.005-.243.005-.318-.07-.316-.315q.016-1.934,0-3.868c0-.243.07-.318.315-.316q1.934.016,3.868,0c.243,0,.318.07.316.314q-.016,1.934,0,3.868c0,.243-.069.322-.315.316-.644-.015-1.289-.005-1.934-.005" transform="translate(-10.155 -13.169)" fill="#cae458"/>
        <path id="Path_185966" data-name="Path 185966" d="M23.365,53.514c-.628,0-1.256-.01-1.883.005-.245.006-.316-.072-.315-.316q.016-1.935,0-3.868c0-.245.072-.317.316-.315q1.934.016,3.868,0c.245,0,.317.072.315.315q-.016,1.934,0,3.869c0,.245-.072.32-.316.315-.661-.015-1.323-.005-1.985-.005" transform="translate(-10.155 -23.518)" fill="#cae458"/>
        <path id="Path_185967" data-name="Path 185967" d="M25.661,72.851c0,.627-.009,1.255,0,1.883.005.245-.036.362-.326.358-1.289-.015-2.577-.013-3.866,0-.256,0-.307-.1-.305-.326.009-1.289.011-2.578,0-3.867,0-.257.1-.307.326-.305q1.933.013,3.866,0c.257,0,.31.095.305.326-.012.645,0,1.289,0,1.934" transform="translate(-10.155 -33.867)" fill="#fe6977"/>
      </g>
    </g>
  </g>
</svg>
