<svg xmlns="http://www.w3.org/2000/svg" xmlns:xlink="http://www.w3.org/1999/xlink" width="73" height="73" viewBox="0 0 73 73">
  <defs>
    <clipPath id="clip-path">
      <rect id="Rectangle_45770" data-name="Rectangle 45770" width="47.538" height="54.888" fill="none"/>
    </clipPath>
  </defs>
  <g id="_7" data-name="7" transform="translate(-1120 -925)">
    <rect id="Rectangle_45765" data-name="Rectangle 45765" width="73" height="73" transform="translate(1120 925)" fill="none"/>
    <g id="Group_175775" data-name="Group 175775" transform="translate(1133 934)">
      <g id="Group_175774" data-name="Group 175774" clip-path="url(#clip-path)">
        <path id="Path_185991" data-name="Path 185991" d="M57.676,144.361a13.235,13.235,0,0,1-2.934-1.049A5.915,5.915,0,0,1,53.017,134a7.38,7.38,0,0,1,5.461-2.427,7.54,7.54,0,0,1,5.7,2.117,5.82,5.82,0,0,1-.373,8.885,7.593,7.593,0,0,1-3.863,1.692c-.084.012-.181-.006-.229.095Z" transform="translate(-34.981 -89.473)"/>
        <path id="Path_185992" data-name="Path 185992" d="M20.861,49.015c-.2-.833-.059-1.113.723-1.469A9.467,9.467,0,0,1,34.033,51.6c.437.823.437.824,1.336.535,1.221-.392,2.438-.8,3.664-1.168.315-.1.4-.232.388-.558a4.56,4.56,0,1,1,8.346,2.454,5.584,5.584,0,0,0-1.056,3.567c.02.428.011.857,0,1.286A2.71,2.71,0,0,1,44,60.385a2.75,2.75,0,0,1-2.762-2.695,21.19,21.19,0,0,0-.075-2.673,5.7,5.7,0,0,0-1.036-2.265c-.124-.184-.238-.149-.4-.1-1.541.5-3.082,1-4.629,1.481-.243.076-.291.185-.282.416a7.527,7.527,0,0,1-2.065,5.564c-.157.172-.149.26,0,.426,1.55,1.678,3.09,3.365,4.711,5.134.043-.57.081-1.054.116-1.537.046-.638.4-1,.958-.986a.9.9,0,0,1,.868,1.061q-.091,1.846-.221,3.69a.917.917,0,0,1-1.021.933q-1.872-.083-3.742-.223A.9.9,0,0,1,33.49,67.6c.045-.532.423-.824,1.057-.808.446.011.891.031,1.337.045.014,0,.028-.014.1-.049-.3-.334-.585-.663-.879-.984-1.217-1.331-2.44-2.657-3.653-3.991-.184-.2-.316-.327-.613-.135a9.1,9.1,0,0,1-3.9,1.373c-.255.03-.33.119-.329.363.007,1.552,0,3.1,0,4.721a4.822,4.822,0,0,0,.971-.872c.547-.523,1.086-.593,1.492-.175s.34.929-.177,1.45q-1.208,1.217-2.425,2.424a.959.959,0,0,1-1.569-.009q-1.237-1.225-2.463-2.462A.926.926,0,1,1,23.729,67.2c.312.308.6.636.9.955l.14-.067v-2c0-.857-.01-1.715.005-2.572.005-.3-.049-.428-.393-.47a9.26,9.26,0,0,1-3.8-1.336c-.186-.115-.335-.235-.547,0-1.531,1.69-3.073,3.369-4.646,5.089.524,0,.992,0,1.46,0,.619,0,1.009.3,1.045.828a.912.912,0,0,1-.953.994q-1.842.132-3.688.221a.928.928,0,0,1-1.052-.957q-.124-1.817-.219-3.636c-.033-.65.3-1.058.836-1.09.578-.035.944.34.99,1.008.033.473.072.945.115,1.515l2.51-2.74c.712-.777,1.416-1.56,2.138-2.327.19-.2.228-.311.015-.548a7.4,7.4,0,0,1-2.01-5.473c.014-.3-.093-.393-.352-.474-1.5-.468-2.985-.952-4.474-1.439a.411.411,0,0,0-.558.18,5.265,5.265,0,0,0-1.05,3.406,7.738,7.738,0,0,1-.057,1.923,2.73,2.73,0,0,1-5.41-.49c-.016-.7.014-1.394-.02-2.09a5.087,5.087,0,0,0-.994-2.667,4.561,4.561,0,1,1,8.3-2.622.582.582,0,0,0,.508.686c1.381.416,2.75.869,4.119,1.324.288.1.437.079.541-.246a5.521,5.521,0,0,1,.451-.967c.428-.776.729-.885,1.566-.6a.889.889,0,0,1,.277,1.332,7.189,7.189,0,0,0-.709,1.669,5.62,5.62,0,0,0,1.934,5.821,7.205,7.205,0,0,0,4.966,1.838A7.2,7.2,0,0,0,32.1,57.692a5.663,5.663,0,0,0-.7-6.573,7.894,7.894,0,0,0-8.7-1.9c-.215.086-.424.189-.642.268a.875.875,0,0,1-1.194-.469" transform="translate(-1.926 -31.116)"/>
        <path id="Path_185993" data-name="Path 185993" d="M43.568,0q4.685,0,9.371,0a5.466,5.466,0,0,1,5.677,5.657,20.385,20.385,0,0,1-.076,3.421,5.431,5.431,0,0,1-5.5,4.64q-8.487.012-16.974,0a25.7,25.7,0,0,1-2.675-.035,5.392,5.392,0,0,1-4.9-5.142,15.635,15.635,0,0,1,.129-4.322A5.406,5.406,0,0,1,33.823.015c3.248-.028,6.5-.007,9.745-.007Z" transform="translate(-19.314 0)"/>
        <path id="Path_185994" data-name="Path 185994" d="M53.883,54.768a1.192,1.192,0,0,0,1.491.21,7.751,7.751,0,0,1,8.219.93,5.838,5.838,0,0,1,.085,9.435,7.779,7.779,0,0,1-4.782,1.726,7.307,7.307,0,0,1-7.12-4.416A5.479,5.479,0,0,1,52.2,57.77a1.155,1.155,0,0,0-.029-1.508,5.728,5.728,0,0,1,1.714-1.5" transform="translate(-34.947 -36.869)" fill="#447883"/>
        <path id="Path_185995" data-name="Path 185995" d="M109.92,132.921a7.643,7.643,0,0,1-5.034-1.991,5.811,5.811,0,0,1,.057-8.894,8.063,8.063,0,0,1,10.484.037,5.878,5.878,0,0,1-.689,9.43,8.288,8.288,0,0,1-4.817,1.417" transform="translate(-69.939 -81.687)"/>
        <path id="Path_185996" data-name="Path 185996" d="M7.584,120.081a7.61,7.61,0,0,1,4.968,1.953,5.868,5.868,0,0,1-.656,9.428,8.072,8.072,0,0,1-9.738-.441,5.888,5.888,0,0,1,.542-9.5,8.013,8.013,0,0,1,4.884-1.437" transform="translate(0 -81.654)"/>
        <path id="Path_185997" data-name="Path 185997" d="M62.538,137.313a5.837,5.837,0,0,1,4.12,1.447,4.056,4.056,0,0,1-.162,6.346,6.309,6.309,0,0,1-7.8-.073,4.075,4.075,0,0,1,.5-6.726,5.607,5.607,0,0,1,3.343-.993" transform="translate(-38.865 -93.377)" fill="#4cb698"/>
        <path id="Path_185998" data-name="Path 185998" d="M11.244,58.812c-.867,0-.869,0-1.1-.817A8.006,8.006,0,0,0,9,55.715a2.722,2.722,0,0,1,.183-3.236,2.746,2.746,0,0,1,4.852,1.931,2.873,2.873,0,0,1-.585,1.524A5.46,5.46,0,0,0,12.416,58.2c-.088.5-.292.714-.8.618a2.018,2.018,0,0,0-.373,0" transform="translate(-5.817 -35.018)" fill="#fbd476"/>
        <path id="Path_185999" data-name="Path 185999" d="M125.542,58.814c-.893,0-.889,0-1.135-.847a7.8,7.8,0,0,0-1.093-2.186,2.733,2.733,0,1,1,4.909-2.189,2.639,2.639,0,0,1-.46,2.28,5.725,5.725,0,0,0-1.086,2.356c-.085.48-.278.682-.762.589a2.018,2.018,0,0,0-.373,0" transform="translate(-83.511 -35.02)" fill="#fbd476"/>
        <path id="Path_186000" data-name="Path 186000" d="M15.176,80.023c.347.135.991-.313.923.574-.061.806-.328,1.253-.914,1.267-.61.015-.883-.426-.938-1.281-.057-.893.594-.413.928-.56" transform="translate(-9.687 -54.419)" fill="#d8dce2"/>
        <path id="Path_186001" data-name="Path 186001" d="M129.446,80.019c.376.115,1-.293.929.586-.067.821-.318,1.25-.911,1.256s-.889-.45-.941-1.291c-.056-.911.619-.377.923-.551" transform="translate(-87.4 -54.416)" fill="#d8dce2"/>
        <path id="Path_186002" data-name="Path 186002" d="M47.552,15.784c-3.143,0-6.287-.027-9.43.01a3.681,3.681,0,0,1-3.771-3.778,25.449,25.449,0,0,0,0-2.679,3.628,3.628,0,0,1,3.64-3.628q9.563,0,19.127,0A3.7,3.7,0,0,1,60.8,8.971a14.9,14.9,0,0,1-.058,3.844,3.594,3.594,0,0,1-3.6,2.969q-4.8.007-9.59,0" transform="translate(-23.356 -3.882)" fill="#447883"/>
        <path id="Path_186003" data-name="Path 186003" d="M71.727,62.651a2.612,2.612,0,0,1-1.374,2.511.852.852,0,0,0-.468.592.787.787,0,0,1-.85.663.822.822,0,0,1-.844-.68,2.7,2.7,0,0,1-.1-.9c.07-.822.263-1.032,1.081-1.2a.8.8,0,0,0,.734-.729.868.868,0,0,0-.489-.972.9.9,0,0,0-1.066.228c-.052.045-.075.122-.121.175a1.016,1.016,0,0,1-1.255.237.919.919,0,0,1-.271-1.233,2.762,2.762,0,0,1,2.721-1.31,2.7,2.7,0,0,1,2.3,2.339,2.559,2.559,0,0,1,0,.28" transform="translate(-45.276 -40.799)"/>
        <path id="Path_186004" data-name="Path 186004" d="M73.305,83.991a.817.817,0,0,1-.856.921c-.575,0-.888-.332-.881-.948a.87.87,0,1,1,1.737.028" transform="translate(-48.67 -56.492)"/>
        <path id="Path_186005" data-name="Path 186005" d="M114.124,125.885a5.57,5.57,0,0,1,4.341,1.833,3.987,3.987,0,0,1-.468,5.922,6.262,6.262,0,0,1-7.811,0,4.059,4.059,0,0,1,.228-6.605,5.972,5.972,0,0,1,3.71-1.151" transform="translate(-73.852 -85.608)" fill="#d76271"/>
        <path id="Path_186006" data-name="Path 186006" d="M10.946,125.88a5.882,5.882,0,0,1,4.453,1.634,4,4,0,0,1-.012,5.867,6.28,6.28,0,0,1-8.214.16,4.093,4.093,0,0,1,.616-6.692,5.684,5.684,0,0,1,3.157-.969" transform="translate(-3.887 -85.603)" fill="#d76271"/>
        <path id="Path_186007" data-name="Path 186007" d="M66.723,145.715a1.016,1.016,0,0,1,.375.134c.343.314.524.191.764-.154.558-.8,1.171-1.567,1.761-2.347a.871.871,0,0,1,1.005-.306.9.9,0,0,1,.618.741.836.836,0,0,1-.2.694c-.88,1.186-1.754,2.377-2.66,3.543-.48.617-.967.616-1.531.064-.28-.274-.559-.55-.828-.834a.887.887,0,0,1-.135-1,.945.945,0,0,1,.834-.536" transform="translate(-44.745 -97.243)"/>
        <path id="Path_186008" data-name="Path 186008" d="M65.6,14.589c0-.7-.01-1.393,0-2.089a1.009,1.009,0,0,1,1.125-1.125,13.569,13.569,0,0,1,1.977.036A2.654,2.654,0,0,1,71.09,13.9a3.252,3.252,0,0,1-1.281,3.487,2.748,2.748,0,0,1-1.364.413c-.588.027-1.178.019-1.767,0A1,1,0,0,1,65.6,16.732c-.018-.714,0-1.428,0-2.143" transform="translate(-44.606 -7.723)"/>
        <path id="Path_186009" data-name="Path 186009" d="M42.8,14.6c0-.713-.006-1.427,0-2.141A.97.97,0,0,1,43.864,11.4c.57-.008,1.142-.017,1.712,0a2.711,2.711,0,0,1,2.7,2.736,8.443,8.443,0,0,1-.053,1.6,2.791,2.791,0,0,1-2.549,2.083c-.623.025-1.248.017-1.872,0A.959.959,0,0,1,42.8,16.8c-.011-.731,0-1.463,0-2.194" transform="translate(-29.104 -7.744)"/>
        <path id="Path_186010" data-name="Path 186010" d="M88.655,14.519c0-.749.012-1.5,0-2.246a.822.822,0,0,1,.773-.924,8.436,8.436,0,0,1,2.4.021,2.769,2.769,0,0,1,2.309,2.906,3.306,3.306,0,0,1-.914,2.734A2.688,2.688,0,0,1,92,17.642a9.19,9.19,0,0,1-2.553.08c-.538-.021-.787-.384-.793-.957-.008-.749,0-1.5,0-2.246" transform="translate(-60.287 -7.666)"/>
        <path id="Path_186011" data-name="Path 186011" d="M117.126,135.984c-.012-.211.217-.436.44-.673.315-.335.883-.608.892-1.008s-.566-.677-.881-1.01c-.51-.538-.573-1.02-.163-1.451.368-.387.951-.311,1.461.154.346.316.619.933,1.04.881.366-.045.68-.579,1-.915a.979.979,0,0,1,1.25-.268.848.848,0,0,1,.427.958,1.329,1.329,0,0,1-.434.656c-.306.341-.9.609-.864,1.013.029.345.557.648.868.967.618.635.572,1.37-.11,1.664a.875.875,0,0,1-1.026-.216c-.294-.286-.6-.562-.866-.873-.226-.266-.372-.224-.583.013a12.489,12.489,0,0,1-.946.944.8.8,0,0,1-.94.155.993.993,0,0,1-.563-.991" transform="translate(-79.651 -89.475)"/>
        <path id="Path_186012" data-name="Path 186012" d="M15.234,131.614c.358-.036.6.23.859.483.3.3.616.816.928.818s.618-.521.927-.814a1.349,1.349,0,0,1,.689-.478.89.89,0,0,1,.978.389.842.842,0,0,1-.095,1.085,12.665,12.665,0,0,1-.941.949c-.231.209-.216.354.007.554.3.274.594.567.87.87a.911.911,0,1,1-1.291,1.283c-.4-.352-.711-1.035-1.156-1.012-.389.02-.744.649-1.12,1a.913.913,0,0,1-1.376.047.952.952,0,0,1,.094-1.341c.282-.3.567-.594.87-.871.2-.185.223-.319.008-.514-.33-.3-.642-.619-.946-.946a.844.844,0,0,1-.162-.989.857.857,0,0,1,.856-.514" transform="translate(-9.711 -89.498)"/>
        <path id="Path_186013" data-name="Path 186013" d="M71.253,18.405a2.093,2.093,0,0,1,.007-.532c.074-.277-.258-.728.293-.809.827-.122,1.358.118,1.5.665a3.028,3.028,0,0,1,.1.736c0,1.1-.552,1.551-1.634,1.377a.268.268,0,0,1-.267-.315c0-.374,0-.748,0-1.122" transform="translate(-48.438 -11.583)" fill="#447783"/>
        <path id="Path_186014" data-name="Path 186014" d="M50.323,18.487c.132,1.229-.611,1.442-1.477,1.384-.243-.017-.353-.085-.35-.341.01-.711.008-1.422,0-2.133,0-.23.1-.3.319-.315.837-.053,1.642.084,1.506,1.405" transform="translate(-32.98 -11.61)" fill="#447783"/>
        <path id="Path_186015" data-name="Path 186015" d="M94.33,18.467a7.235,7.235,0,0,0-.007-.854c-.054-.447.148-.535.549-.527.953.019,1.279.326,1.281,1.283,0,.178.008.356,0,.534a1.218,1.218,0,0,1-1.687.95c-.144-.074-.131-.2-.132-.318,0-.356,0-.712,0-1.068" transform="translate(-64.138 -11.619)" fill="#447783"/>
      </g>
    </g>
  </g>
</svg>
