<?xml version="1.0" encoding="UTF-8" standalone="no"?><!DOCTYPE svg PUBLIC "-//W3C//DTD SVG 1.1//EN" "http://www.w3.org/Graphics/SVG/1.1/DTD/svg11.dtd"><svg width="100%" height="100%" viewBox="0 0 375 375" version="1.1" xmlns="http://www.w3.org/2000/svg" xmlns:xlink="http://www.w3.org/1999/xlink" xml:space="preserve" xmlns:serif="http://www.serif.com/" style="fill-rule:evenodd;clip-rule:evenodd;stroke-linejoin:round;stroke-miterlimit:2;"><circle id="Ellipse_4780" cx="187.5" cy="187.5" r="187.5" style="fill:#c4d1ff;"/><g id="Group_170963"><g id="Group_170964"><path id="Path_166729" d="M189.368,302.242c2.683,0.1 5.416,0.266 8.204,0.458c13.811,-4.83 28.995,-3.959 42.162,2.421c10.038,0.073 20,-1.746 29.363,-5.363c-0.104,-0.041 -0.225,-0.071 -0.329,-0.116c-10.663,-29.467 -3.467,-86.042 -2.5,-93.255c0.05,-0.258 0.066,-0.491 0.116,-0.754l-75.562,46.296c1.482,2.578 2.386,5.447 2.65,8.408l-0,0.03c0.737,7.893 0.474,15.848 -0.783,23.675c-1.025,7.5 -2.434,14.254 -3.334,18.2" style="fill:#fa9778;fill-rule:nonzero;"/><path id="Path_166730" d="M192.684,284.042c42.159,3.725 61.534,-47.18 62.246,-49.084c-6.445,11.008 -16.899,19.112 -29.166,22.609c-10.392,3.048 -21.284,4.015 -32.05,2.846c-0.088,-0.025 -0.175,-0.021 -0.263,-0.046c0.738,7.893 0.474,15.848 -0.783,23.675" style="fill:#450d20;fill-rule:nonzero;"/><path id="Path_166731" d="M286.909,181.588c-2.195,-6.616 -9.075,-10.582 -15.9,-9.167c-0.679,0.237 -1.336,0.536 -1.962,0.892c0.083,-22.188 -4.054,-46.321 -19.95,-59.121c-34.196,-27.525 -81.325,-15.688 -90.442,10.612c-7.083,20.417 -8.996,43.913 -8.975,66.721c0,9.721 0.321,19.342 0.779,28.521c0.038,0.979 0.1,1.929 0.138,2.879c0.005,4.11 0.683,8.192 2.008,12.083c5.8,14.692 27.371,23.084 41.825,25.513c18.372,3.138 37.2,-2.379 50.971,-14.938c10.972,-10.123 18.246,-23.634 20.658,-38.366c3.026,0.053 6.042,-0.36 8.942,-1.225c4.214,-1.949 7.741,-5.128 10.117,-9.117c2.817,-4.581 3.473,-10.179 1.791,-15.287" style="fill:#fa9778;fill-rule:nonzero;"/><path id="Path_166732" d="M150.459,220.046c1.244,0.276 2.518,0.394 3.792,0.35c7.865,-0.295 14.175,-6.846 14.175,-14.717c-0,-8.079 -6.648,-14.727 -14.727,-14.727c-0.184,0 -0.368,0.004 -0.552,0.011c-1.175,0.04 -2.34,0.229 -3.467,0.562c0,9.721 0.321,19.338 0.779,28.521" style="fill:#fa8864;fill-rule:nonzero;"/><path id="Path_166733" d="M241.684,202.383c0.007,0.186 0.011,0.371 0.011,0.557c-0,8.082 -6.651,14.733 -14.733,14.733c-8.083,-0 -14.734,-6.651 -14.734,-14.733c0,-7.875 6.313,-14.428 14.181,-14.723c8.076,-0.303 14.97,6.091 15.275,14.166" style="fill:#fa8864;fill-rule:nonzero;"/><path id="Path_166734" d="M161.218,170.771c0.776,2.555 2.631,4.648 5.075,5.725c0.63,0.221 1.054,0.819 1.054,1.486c-0,0.864 -0.711,1.575 -1.575,1.575c-0.317,0 -0.626,-0.095 -0.888,-0.274l-0.066,-0.045c-1.398,-0.963 -2.53,-2.263 -3.292,-3.78c-0.718,-1.409 -1.162,-2.942 -1.308,-4.516c-0.001,-0.014 -0.002,-0.027 -0.002,-0.04c0,-0.279 0.23,-0.508 0.508,-0.508c0.213,-0 0.403,0.132 0.477,0.331l0.017,0.046Z" style="fill:#450d20;fill-rule:nonzero;"/><path id="Path_166735" d="M164.793,176.208c2.207,0.756 4.525,1.14 6.858,1.134c2.341,-0.086 4.665,-0.431 6.929,-1.029l0.092,-0.021c0.088,-0.018 0.179,-0.027 0.269,-0.027c0.743,-0 1.354,0.611 1.354,1.354c0,0.41 -0.186,0.799 -0.506,1.056c-1.141,0.906 -2.439,1.594 -3.83,2.029c-1.425,0.432 -2.912,0.625 -4.4,0.571c-3.004,-0.093 -5.861,-1.334 -7.979,-3.467c-0.187,-0.188 -0.292,-0.443 -0.292,-0.709c0,-0.553 0.456,-1.008 1.009,-1.008c0.107,-0 0.214,0.017 0.317,0.051l0.179,0.066Z" style="fill:#450d20;fill-rule:nonzero;"/><path id="Path_166736" d="M217.764,170.771c-0.776,2.555 -2.632,4.648 -5.075,5.725c-0.604,0.235 -1.004,0.82 -1.004,1.467c0,0.864 0.711,1.575 1.575,1.575c0.16,0 0.318,-0.024 0.47,-0.071c0.13,-0.044 0.254,-0.106 0.367,-0.184l0.067,-0.046c1.397,-0.962 2.53,-2.262 3.291,-3.779c0.718,-1.409 1.162,-2.942 1.309,-4.516c0.001,-0.014 0.001,-0.027 0.001,-0.04c0,-0.279 -0.229,-0.508 -0.508,-0.508c-0.212,-0 -0.403,0.132 -0.477,0.331l-0.016,0.046Z" style="fill:#450d20;fill-rule:nonzero;"/><path id="Path_166737" d="M215.401,177.808c-2.118,2.134 -4.975,3.376 -7.979,3.471c-1.488,0.051 -2.975,-0.143 -4.4,-0.575c-1.391,-0.434 -2.689,-1.122 -3.829,-2.029c-0.32,-0.257 -0.506,-0.645 -0.506,-1.055c0,-0.743 0.612,-1.354 1.355,-1.354c0.088,-0 0.176,0.008 0.263,0.026l0.092,0.02c2.264,0.599 4.588,0.944 6.929,1.03c2.332,0.005 4.648,-0.378 6.854,-1.134l0.175,-0.054c0.1,-0.032 0.204,-0.048 0.308,-0.048c0.556,0 1.013,0.457 1.013,1.013c-0,0.261 -0.102,0.513 -0.283,0.702" style="fill:#450d20;fill-rule:nonzero;"/><path id="Path_166738" d="M174.284,202.675c1.637,2.84 3.922,5.255 6.667,7.046c2.836,1.928 6.21,2.91 9.638,2.804c3.416,-0.208 6.685,-1.475 9.35,-3.625c1.273,-1.037 2.46,-2.176 3.55,-3.404c0.954,-1.325 1.883,-2.65 2.708,-4.017c-1.279,1.009 -2.438,2.084 -3.604,3.117c-1.309,0.862 -2.467,1.908 -3.796,2.637c-2.505,1.592 -5.372,2.524 -8.333,2.709c-2.965,0.089 -5.903,-0.587 -8.53,-1.963c-2.776,-1.434 -5.358,-3.217 -7.683,-5.304" style="fill:#450d20;fill-rule:nonzero;"/><path id="Path_166739" d="M186.347,217.679c1.308,0.963 2.912,1.44 4.533,1.35c1.621,-0.056 3.178,-0.65 4.425,-1.687c-1.463,0.368 -2.959,0.592 -4.466,0.671c-1.506,0.064 -3.013,-0.048 -4.492,-0.334" style="fill:#450d20;fill-rule:nonzero;"/><path id="Path_166740" d="M198.755,145.15c1.774,-1.643 4.08,-2.597 6.496,-2.687c2.376,-0.172 4.764,0.076 7.054,0.733c2.313,0.648 4.464,1.775 6.313,3.308c1.798,1.449 3.299,3.232 4.421,5.25c0.189,0.317 0.29,0.679 0.29,1.048c-0,1.118 -0.92,2.038 -2.038,2.038c-0.481,-0 -0.947,-0.171 -1.315,-0.482l-0.179,-0.15c-1.322,-1.211 -2.771,-2.277 -4.321,-3.179c-1.459,-0.84 -3.052,-1.425 -4.708,-1.729c-1.658,-0.337 -3.356,-0.438 -5.042,-0.3c-1.791,0.216 -3.603,0.18 -5.383,-0.108l-0.542,-0.113c-0.989,-0.2 -1.707,-1.077 -1.707,-2.087c-0,-0.582 0.239,-1.14 0.661,-1.542" style="fill:#450d20;fill-rule:nonzero;"/><path id="Path_166741" d="M177.497,145.946c-1.888,-1.505 -4.254,-2.283 -6.667,-2.192c-2.383,0.004 -4.747,0.427 -6.983,1.25c-2.256,0.822 -4.316,2.106 -6.046,3.771c-1.683,1.58 -3.045,3.471 -4.012,5.567c-0.146,0.286 -0.221,0.602 -0.221,0.923c-0,1.117 0.919,2.037 2.037,2.037c0.537,0 1.052,-0.212 1.434,-0.589l0.162,-0.167c1.23,-1.306 2.596,-2.477 4.075,-3.492c1.397,-0.952 2.947,-1.657 4.583,-2.083c1.627,-0.459 3.31,-0.686 5,-0.675c1.802,0.079 3.605,-0.093 5.359,-0.513l0.533,-0.15c0.914,-0.26 1.549,-1.101 1.549,-2.051c-0,-0.198 -0.028,-0.396 -0.082,-0.586c-0.116,-0.418 -0.359,-0.79 -0.696,-1.063" style="fill:#450d20;fill-rule:nonzero;"/><path id="Path_166742" d="M187.776,162.475c-0.629,3.308 -1.062,6.588 -1.546,9.838c-0.483,3.25 -0.983,6.475 -1.783,9.558c-0.183,0.771 -0.392,1.533 -0.638,2.271c-0.379,0.9 -0.594,1.861 -0.633,2.837c0.029,2.162 1.292,4.126 3.246,5.05c1.758,0.81 3.779,0.842 5.562,0.088c1.597,-0.65 3.056,-1.599 4.296,-2.796c-3.008,1.25 -6.541,2.292 -8.75,0.75c-1.06,-0.638 -1.685,-1.811 -1.625,-3.046c0.081,-0.679 0.272,-1.341 0.567,-1.958c0.296,-0.834 0.554,-1.667 0.767,-2.5c0.769,-3.302 1.173,-6.677 1.204,-10.067c0.089,-3.356 -0.14,-6.712 -0.684,-10.025" style="fill:#450d20;fill-rule:nonzero;"/><path id="Path_166743" d="M282.451,180.896c-3.462,0.826 -6.784,2.154 -9.862,3.941c-2.999,1.691 -5.666,3.912 -7.871,6.555l-1.784,-2.196c2.646,-1.478 5.482,-2.584 8.43,-3.288c1.591,-0.388 3.242,-0.463 4.862,-0.221c1.9,0.317 3.499,1.61 4.208,3.4c1.159,3.214 0.209,6.829 -2.379,9.059c-2.197,2.105 -5.115,3.297 -8.158,3.333c2.722,-0.708 5.141,-2.282 6.892,-4.483c1.707,-1.846 2.195,-4.524 1.25,-6.854c-0.784,-1.971 -3.405,-1.921 -6.03,-1.334c-2.664,0.683 -5.244,1.662 -7.691,2.917l-0.075,0.037c-0.696,0.36 -1.565,0.084 -1.925,-0.612c-0.27,-0.534 -0.182,-1.182 0.221,-1.625c2.547,-2.8 5.676,-5.01 9.166,-6.475c3.394,-1.454 7.054,-2.186 10.746,-2.15" style="fill:#450d20;fill-rule:nonzero;"/><path id="Path_166744" d="M305.73,189.725c1.534,-6.629 -0.85,-13.582 -6.129,-17.875c22.838,-55.183 -27.3,-56.929 -27.3,-56.929c-12.825,-90.363 -89.129,-36.479 -89.129,-36.479c-62.5,5.508 -49.333,63.15 -49.333,63.15c-65.284,19.312 -29.1,73.062 -29.1,73.062c-30.809,8.671 -40.713,26.521 -42.48,43.204c1.431,8.418 3.336,16.748 5.709,24.95c1.048,5.846 3.646,11.304 7.521,15.805c-2.405,-3.371 2.083,1.274 4.504,3.774c-0.125,-0.645 5.754,3.221 3.491,2.209c27.313,12.221 73.38,13.637 102.867,2.783c1.638,-1.817 2.5,-3 2.5,-3c4.143,-14.291 5.695,-29.208 4.583,-44.046c-8.297,-1.839 -16.347,-4.655 -23.983,-8.387c-15.417,-8.188 -17.396,-18.4 -17.396,-18.4c-3.441,-14.167 -1.962,-60.154 -1.962,-60.154c0.852,-13.724 2.889,-27.348 6.087,-40.721c5.918,-0.935 11.092,-4.532 14.029,-9.754c16.317,17.154 40.834,-0 40.834,-0c6.526,10.833 19.388,16.243 31.696,13.333c-11.363,17.221 4.52,47.942 11.045,48.696c6.525,0.754 15.263,-11.613 15.263,-11.613c4.384,-1.701 9.363,-0.903 12.996,2.084c3.727,3.182 5.723,7.957 5.366,12.845c-1.033,18.534 -21.154,18.134 -21.154,18.134c-6.658,30.845 -5.8,62.843 2.5,93.287l5.834,2.275l0.154,-3.791l0.375,-0.271c33.767,-24.635 46.462,-69.495 30.612,-108.171" style="fill:#e1c76b;fill-rule:nonzero;"/></g></g></svg>