<svg xmlns="http://www.w3.org/2000/svg" width="414" height="305" viewBox="0 0 414 305">
  <g id="_11" data-name="11" transform="translate(-513 10084)">
    <rect id="Rectangle_47466" data-name="Rectangle 47466" width="414" height="305" rx="11" transform="translate(513 -10084)" fill="#ffe891"/>
    <g id="Group_176444" data-name="Group 176444" transform="translate(522 -10072)">
      <g id="Group_176445" data-name="Group 176445" transform="translate(0 0)">
        <path id="Path_189767" data-name="Path 189767" d="M388.183,337.061a39.778,39.778,0,0,0-6.662-7.685c-10.041-8.924-23.539-12.795-36.727-15.352-71.25-13.812-144.317,3.238-216.632,9.393-20.618,1.755-41.732,2.712-60.953,10.374-14.414,5.746-27.107,15.018-39.516,24.333-10.513,7.892-39.411,22.2-22.5,37.775,4.688,4.318,11.088,6.154,17.258,7.756C122.759,429.7,228.6,429.912,331.026,414.174c20.185-3.1,42-7.774,55.079-23.459,12.328-14.786,12.636-37.816,2.078-53.654" transform="translate(0 -143.934)" fill="#acade1"/>
        <path id="Path_189768" data-name="Path 189768" d="M116.322,387.832l-29.292-1.36-7.471,4.439,5.264,4,30.882,7.513Z" transform="translate(-37.088 -180.159)" fill="#85391b"/>
        <path id="Path_189769" data-name="Path 189769" d="M71.667,383.114s-4.527-1.737-6.523-4.93c-2.654-4.247-5.262-4.016-9.859.227-4.93,4.551-11.074,6.143-15.473,7.433s-6.371,2.806-5.764,4.7,32.689-.743,33.068-.864,4.551-6.568,4.551-6.568" transform="translate(-15.822 -174.863)" fill="#85391b"/>
        <path id="Path_189770" data-name="Path 189770" d="M45.352,382.195s1.255,6.312,1.259,7.028-12.51,1.04-14.217.224a2.7,2.7,0,0,1-.455-4.4c1.366-.91,11.539-3.754,14.672-5.29a61.936,61.936,0,0,0,5.977-3.442A16.666,16.666,0,0,0,55.86,373.5a14.747,14.747,0,0,1,1.308-1.406c.364-.318,1.04-.873,1.564-.8.954.13-.484,2.105-.7,2.4A17.663,17.663,0,0,1,55,376.934a19.444,19.444,0,0,1-4.291,2.825c-2.446,1.138-5.359,2.437-5.359,2.437" transform="translate(-14.453 -173.081)" fill="#301c15"/>
        <path id="Path_189771" data-name="Path 189771" d="M385.26,429.175c0,8.055-22.408,15.309-58.185,20.369-.428.064-.856.128-1.292.182-19.586,2.722-43.086,4.787-69.044,5.989l-1.12.055c-16.173.728-33.3,1.119-51.022,1.119q-6.062,0-12.014-.064c-.364,0-.728,0-1.092-.009-28.205-.309-54.618-1.611-77.754-3.686-.373-.027-.755-.063-1.129-.1-23.8-2.166-44.087-5.142-59.223-8.683-.373-.091-.746-.173-1.11-.264-17.939-4.305-28.342-9.42-28.342-14.909,0-10.221,36.041-19.14,89.685-23.946.555-.055,1.1-.1,1.657-.146,14.908-1.311,31.136-2.294,48.311-2.9l1.447-.054c12.733-.437,25.975-.665,39.564-.665q12.6,0,24.747.264c.364,0,.728.009,1.092.018,20.233.446,39.382,1.4,56.866,2.785.382.027.764.064,1.138.091,25.966,2.094,48.2,5.124,64.793,8.792.346.082.692.164,1.028.236,19.568,4.432,31,9.775,31,15.527" transform="translate(-11.156 -187.147)" fill="#ffc799"/>
        <path id="Path_189772" data-name="Path 189772" d="M140.023,408.247c-.191.155-.391.31-.582.464a208.36,208.36,0,0,1-30.1,19.677c-10.685,5.734-21.461,11.231-30.936,18.895-.091.073-.182.146-.273.227-.373-.091-.747-.173-1.11-.264.965-.8,1.938-1.575,2.93-2.339,9.438-7.263,20.105-12.514,30.535-18.166a206.331,206.331,0,0,0,27.878-18.348c.555-.054,1.1-.1,1.656-.146" transform="translate(-35.905 -190.31)" fill="#e8a270"/>
        <path id="Path_189773" data-name="Path 189773" d="M242.466,402.706a210.8,210.8,0,0,0-22.99,21.853q-13.843,14.881-28.306,29.152c-.373-.028-.755-.064-1.129-.1q1.788-1.761,3.559-3.522c9.584-9.529,18.822-19.368,28.078-29.216a190.818,190.818,0,0,1,19.34-18.112l1.447-.054" transform="translate(-88.591 -187.727)" fill="#e8a270"/>
        <path id="Path_189774" data-name="Path 189774" d="M376.752,401.974q-19.741,26.977-37.853,55.082c-.364,0-.728,0-1.092-.009q18.1-28.1,37.853-55.091c.364,0,.728.009,1.092.018" transform="translate(-157.473 -187.377)" fill="#e8a270"/>
        <path id="Path_189775" data-name="Path 189775" d="M490.756,407.3c-6.489,11.886-12.5,24.055-19.886,35.432a187.315,187.315,0,0,1-11.814,15.663l-1.119.054a198.381,198.381,0,0,0,13.925-18.976c6-9.647,11.031-19.85,16.428-29.834.437-.81.883-1.62,1.329-2.43.382.027.764.064,1.138.091" transform="translate(-213.473 -189.826)" fill="#e8a270"/>
        <path id="Path_189776" data-name="Path 189776" d="M617.846,424.083c-4.487,6.608-9.329,12.96-14.253,19.259-4.323,5.516-8.7,11.022-12.933,16.638-.428.063-.856.128-1.292.182,9.11-12.16,18.849-23.819,27.45-36.315.346.082.692.163,1.029.237" transform="translate(-274.742 -197.582)" fill="#e8a270"/>
        <path id="Path_189777" data-name="Path 189777" d="M308.99,222.168s6.961,32.156,10.457,40.291,10.175,9.449,13.9,8.8.9-18.087.9-18.087l-3.338-34.419Z" transform="translate(-144.04 -101.975)" fill="#bf613d"/>
        <path id="Path_189778" data-name="Path 189778" d="M307.579,195.137q-.2-3.085-.483-6.171c-.064-.755-.136-1.511-.209-2.267q-.327-3.413-.737-6.807c-.136-1.074-.264-2.157-.409-3.231-1.711-12.906-2.821-26.767-9.893-38.072-3.914-6.252-9.739-11.859-15.646-16.51,1.411,12.933-.054,26.076-3.176,38.7-1.875,7.618-4.323,15.081-6.38,22.654-1.038,3.841-1.984,7.718-2.685,11.632-.31,1.72-.573,3.44-.783,5.179-.119.947-.5,2.375.337,3.131a3.465,3.465,0,0,0,2.157.482c.461.03.923.053,1.383.076A.433.433,0,0,0,271,204c-.721,1.459-1.5,2.889-2.293,4.3a104.616,104.616,0,0,1-10.332,7.109c-3.471,2.127-6.863,4.452-8.814,8.136-.274.517.512.978.786.46.05-.1.114-.177.167-.27a.45.45,0,0,0,.064.069c1.723,1.255,3.673,2.45,5.844,1.581,2.271-.908,3.924-3.418,5.388-5.239a84.554,84.554,0,0,0,7.61-11.235q1.348-1.084,2.656-2.222c.443-.386-.2-1.027-.643-.644-.271.237-.546.463-.819.695q.6-1.134,1.174-2.284a.448.448,0,0,0-.058-.5c1.5.062,3.026.09,4.53.1.674,0,1.338,0,2.012-.018,1.274-.009,2.558-.036,3.841-.1.391-.019.792-.037,1.183-.064,1.1-.054,2.194-.118,3.286-.209.664-.045,1.32-.1,1.975-.164a103.482,103.482,0,0,0,11.086-1.574c2.157-.446,6.289-1.083,7.646-3.095.719-1.056.373-2.5.291-3.7" transform="translate(-116.311 -56.909)" fill="#ede2db"/>
        <path id="Path_189779" data-name="Path 189779" d="M323.889,184.209c.254-.525-.531-.988-.786-.46a63.286,63.286,0,0,1-5.868,9.772c-.163-2.692.794-5.643,1.466-8.192,1.574-5.97,3.513-11.859,3.595-18.094a.455.455,0,0,0-.91,0c-.082,6.289-2.093,12.214-3.658,18.24-1.529,5.843-1.739,11.513-2.094,17.5-.164,2.894-.05,6.427-1.509,9.41a38.543,38.543,0,0,1-6.086,8.447c-1.411,1.583-3.336,2.475-4.647,4.05,1.274-.009,2.558-.037,3.841-.1.391-.018.792-.036,1.183-.064,1.1-.054,2.194-.119,3.286-.209a24.94,24.94,0,0,1,2.648-5.015,15.018,15.018,0,0,0,2.558-3.969,21.671,21.671,0,0,0,.829-6.125,85.617,85.617,0,0,0-.389-14.548.481.481,0,0,0,.137-.122,63.337,63.337,0,0,0,6.4-10.523" transform="translate(-141.43 -77.755)" fill="#c9b8ad"/>
        <path id="Path_189780" data-name="Path 189780" d="M233.928,327.69s45,16.61,56.63,25.256,11.631,19.228,6.4,26-20.024,6.086-20.024,6.086l-50.968-37.544Z" transform="translate(-105.336 -152.757)" fill="#ba5e29"/>
        <path id="Path_189781" data-name="Path 189781" d="M92.047,395.18l-29.292-1.36-7.471,4.439,5.264,4,30.882,7.513Z" transform="translate(-25.772 -183.585)" fill="#bf613d"/>
        <path id="Path_189782" data-name="Path 189782" d="M47.392,390.461s-4.527-1.737-6.522-4.93c-2.655-4.247-5.263-4.016-9.86.227-4.93,4.551-11.074,6.143-15.473,7.433s-6.371,2.806-5.764,4.7,32.689-.743,33.068-.864,4.551-6.568,4.551-6.568" transform="translate(-4.505 -178.288)" fill="#bf613d"/>
        <path id="Path_189783" data-name="Path 189783" d="M21.077,389.543s1.255,6.312,1.259,7.029-12.51,1.04-14.217.224a2.7,2.7,0,0,1-.455-4.4c1.366-.91,11.539-3.754,14.672-5.29a61.922,61.922,0,0,0,5.977-3.442,16.683,16.683,0,0,0,3.271-2.814,14.751,14.751,0,0,1,1.308-1.406c.364-.318,1.04-.873,1.564-.8.954.13-.484,2.105-.7,2.4a17.643,17.643,0,0,1-3.034,3.236,19.454,19.454,0,0,1-4.291,2.825c-2.446,1.138-5.359,2.437-5.359,2.437" transform="translate(-3.137 -176.507)" fill="#464752"/>
        <path id="Path_189784" data-name="Path 189784" d="M71.886,400.832a12.153,12.153,0,0,1-4.1-1.147c-.526-.252-.988.532-.46.786a13.451,13.451,0,0,0,4.56,1.272c.582.057.579-.854,0-.91" transform="translate(-31.276 -186.296)" fill="#85391b"/>
        <path id="Path_189785" data-name="Path 189785" d="M224.131,337.876c-2.421-5.88-7.591-10.093-12.733-13.543a172.3,172.3,0,0,0-20.86-11.614c-13.188-6.4-28.979-11.632-37.79-24.1-2.293-3.24-4.15-6.772-6.789-9.748a33.993,33.993,0,0,0-8.446-6.789c-6.489-3.759-13.862-5.7-21.216-6.917-.537-.082-.783.683-.318.847a89.641,89.641,0,0,0-19.022,14.571,34.177,34.177,0,0,0-9.311,17.293c-.128.637-.237,1.283-.328,1.929a34.069,34.069,0,0,0,15.9,33.32q-3.017-.041-6.053.219a.469.469,0,0,0-.437.336,73.559,73.559,0,0,0-1.529,14.6c0,.209,87.829,16.174,111.284,14.881,5.825-.319,12.532-2.048,17.274-9.329,2.922-4.478,2.348-11.158.373-15.955" transform="translate(-40.558 -123.607)" fill="#de8b5b"/>
        <path id="Path_189786" data-name="Path 189786" d="M151.752,152.368s-3.349-10.8-4.259-19.329,10.395-9.057,14.3-8.453,11.413,3.675,11.64,6.747,1.479,4.665-1.251,8.988-20.428,12.048-20.428,12.048" transform="translate(-68.731 -57.995)" fill="#464752"/>
        <path id="Path_189787" data-name="Path 189787" d="M244.078,121.494c.009,2-.118,4.014-.146,5.9a163.907,163.907,0,0,1-2.157,25.666c-2.276,12.924,1.3,21.133-12.806,37.143-2.23,2.53-11.4,8.192-13.761,10.512-4.3,4.232-9.338,5.843-13.616,10.076a29.648,29.648,0,0,1-3.112,13.179c-.528,1.055-1.056,2.394-2.3,2.767-1.165.336-2.621-.246-3.7-.592a42.969,42.969,0,0,1-9.729-4.624,104.7,104.7,0,0,1-17.239-14.126,73.546,73.546,0,0,1-7.982-9.11,61.248,61.248,0,0,1-6.944-6.116,50.991,50.991,0,0,1-5.415-6.626c-1.329-1.929-2.712-3.24-1.256-5.334a42.827,42.827,0,0,1,8.091-8.391c1.975-3.395,3.95-3.231,7.3-5.452a12.794,12.794,0,0,0,4.6-4.879c1.511-2.994,3.012-6.235,4.269-9.347,1.583-3.941,2.931-11.65,4.678-15.527a115.88,115.88,0,0,1,5.406-10.658c1.629-8.919,4.187-17.9,8.392-25.748,1.2-2.239,2.685-4.942,4.723-6.553a7.03,7.03,0,0,1,1.247-.756,7.4,7.4,0,0,1,1.228-.446c.091-.027.182-.045.273-.073,2.667.61,5.288,1.4,7.909,2.184.191.054.382.118.582.172.182.055.355.109.537.164,1.738.519,3.5.974,5.26,1.447.81.218,1.629.446,2.43.683a43.492,43.492,0,0,1,5.106,1.793c.091.036.173.073.264.109a57.692,57.692,0,0,1,10.121,6.034c.6.419,1.183.855,1.766,1.283a79.2,79.2,0,0,1,15.982,15.245" transform="translate(-66.799 -43.064)" fill="#ede2db"/>
        <path id="Path_189788" data-name="Path 189788" d="M179.448,207.545a57.048,57.048,0,0,1-18.982,23.645c-.471.34-.017,1.129.46.786A57.887,57.887,0,0,0,180.234,208c.231-.532-.554-1-.786-.46" transform="translate(-74.711 -96.639)" fill="#c9b8ad"/>
        <path id="Path_189789" data-name="Path 189789" d="M189.544,226.052a30.162,30.162,0,0,1-7.115,6.959c-.477.333-.023,1.122.459.786a31.5,31.5,0,0,0,7.442-7.285c.346-.473-.443-.928-.786-.46" transform="translate(-84.947 -105.285)" fill="#c9b8ad"/>
        <path id="Path_189790" data-name="Path 189790" d="M286.564,122.052c-4.341-1.147-9.193-5.215-11.358-8.191-2.994-4.142-1.811-8.92,1.429-9.411.091.036.173.073.264.109a57.725,57.725,0,0,1,10.121,6.034c2.8,3.513,10.812,14.435-.455,11.459" transform="translate(-127.487 -48.691)" fill="#bf613d"/>
        <path id="Path_189791" data-name="Path 189791" d="M295.167,5.5c-.089-.149-.168-.291-.245-.422a4.755,4.755,0,0,0-1.556-2.068A8.008,8.008,0,0,0,289.9,1.663c-2.647-3.8-10.993-.514-11.057,4.054a8.527,8.527,0,0,0-1.449,2.147,7.332,7.332,0,0,0-.714,2.866A3.515,3.515,0,0,0,278.27,14a5.036,5.036,0,0,0,3.668.451,4.013,4.013,0,0,0,2.042.812,5.76,5.76,0,0,0,3.229-.905,23.657,23.657,0,0,1,2.568-1.533c1.443-.591,1.785-.2,2.857-.507,1.58-.455,4.438-2.584,4.213-4.5-.115-1.067-1.138-1.423-1.68-2.314" transform="translate(-128.976 0)" fill="#301c15"/>
        <path id="Path_189792" data-name="Path 189792" d="M295.167,6.673c-.089-.149-.168-.291-.245-.422A8.733,8.733,0,0,1,293.561,8a6.545,6.545,0,0,1-1.433,1.068c-1.179-3.083-4.256-6.341-7.538-6.547-.618-.039-.816.917-.192.956,3.005.189,5.767,3.182,6.836,6a9.9,9.9,0,0,1-2.482.5,14.415,14.415,0,0,0-2.808-4.6c-.42-.465-1.054.277-.638.737a13.094,13.094,0,0,1,2.449,3.941c-.538.035-1.087.066-1.653.117-2.243.2-3.828,1.28-5.89,1.965a4.469,4.469,0,0,1-3.535-.226,3.515,3.515,0,0,0,1.592,3.268,5.036,5.036,0,0,0,3.668.451,4.013,4.013,0,0,0,2.042.812,5.76,5.76,0,0,0,3.229-.905A23.656,23.656,0,0,1,289.777,14c1.443-.591,1.785-.2,2.857-.507,1.58-.455,4.438-2.584,4.213-4.5-.115-1.067-1.138-1.423-1.68-2.314" transform="translate(-128.976 -1.174)" fill="#4a2f26"/>
        <path id="Path_189793" data-name="Path 189793" d="M302.717,28.525a34.2,34.2,0,0,1-2.5-3.926,7.379,7.379,0,0,0-2.09-2.443,10.983,10.983,0,0,0-11.332-.808,15.176,15.176,0,0,0-6.824.67,11.7,11.7,0,0,0-2.575,1.567c-1.211.865-2.59,1.169-3.761,2.053-3.343,2.525-6.492,7.869-5.027,12.154,1.879,5.494,7.56,1.859,11.341,1,3.145-.716,6.378-.719,9.531-1.44a59.874,59.874,0,0,1,6.013-1.206c1.826-.225,4.589-.69,6.325.172-.006.491.807.61.967.06.65-2.236,1.388-5.772-.072-7.851" transform="translate(-125.045 -9.392)" fill="#301c15"/>
        <path id="Path_189794" data-name="Path 189794" d="M286.092,71.6c-1.865-.932-.985,1.126-2.63,7.919-1.237,5.116-4.537,11.421-6.1,14.235a12.607,12.607,0,0,1,1.711,3.059,41.138,41.138,0,0,1,1.874,3.756l9.809,4.719,3.734-8.437,3.287-6.383s.117-.683.278-1.721c.428-2.767,1.206-8,1.068-9.126-.2-1.53-11.18-7.1-13.035-8.021" transform="translate(-129.297 -33.28)" fill="#bf613d"/>
        <path id="Path_189795" data-name="Path 189795" d="M301.84,99.1c-3.553-.342-4.478,2.578-3.372,5.6a8.454,8.454,0,0,0,5.659,5.059l3.287-6.383s.117-.683.278-1.721A10.423,10.423,0,0,0,301.84,99.1" transform="translate(-138.93 -46.186)" fill="#85391b"/>
        <path id="Path_189796" data-name="Path 189796" d="M308.362,72.8c-6.434,2.625-15.789-3.279-18.668-7.862s-2.238-22.18.276-26.787c2.008-3.675,13.294-5.4,17.884-4.932,1.178.121,2.062,2.724,2.062,2.724s1.47,4.156,2.834,9.424l.042.173c.19.729.37,1.479.551,2.238.016.087.042.173.058.27.439,1.9.834,3.879,1.119,5.813,1.443,9.67-1.547,17.057-6.159,18.939" transform="translate(-134.162 -15.45)" fill="#bf613d"/>
        <path id="Path_189797" data-name="Path 189797" d="M309.458,66.537a1.141,1.141,0,0,0-.621-.676,4.024,4.024,0,0,0-1.419-.062,3.658,3.658,0,0,0-2.451,1.25.5.5,0,0,0,.58.776,6.274,6.274,0,0,1,3.509-.46c.573.136.6-.366.4-.828" transform="translate(-142.114 -30.657)" fill="#301c15"/>
        <path id="Path_189798" data-name="Path 189798" d="M331.088,64.991a1.141,1.141,0,0,0-.621-.676,4.024,4.024,0,0,0-1.419-.062A3.658,3.658,0,0,0,326.6,65.5a.5.5,0,0,0,.58.776,6.279,6.279,0,0,1,3.509-.46c.573.136.6-.366.4-.828" transform="translate(-152.197 -29.936)" fill="#301c15"/>
        <path id="Path_189799" data-name="Path 189799" d="M307.193,56.277c-1.378.352-2.637,1.116-4.028,1.431a3.079,3.079,0,0,0-.851.26.9.9,0,0,0-.088,1.5,1.979,1.979,0,0,0,.826.319,6.7,6.7,0,0,0,4.264-.581,2.986,2.986,0,0,0,1.741-1.942,1.031,1.031,0,0,0-.069-.669c-.25-.47-.911-.5-1.433-.4q-.182.036-.361.082" transform="translate(-140.717 -26.174)" fill="#301c15"/>
        <path id="Path_189800" data-name="Path 189800" d="M331.03,58.013c-.182-.759-.362-1.509-.551-2.238a26,26,0,0,0-2.959-.649c-.128-.01-.246-.021-.373-.022-.53-.03-1.176.094-1.365.6a1.055,1.055,0,0,0,.029.672,2.976,2.976,0,0,0,2.006,1.675,6.6,6.6,0,0,0,3.271.235c-.017-.1-.042-.183-.058-.27" transform="translate(-151.848 -25.686)" fill="#301c15"/>
        <path id="Path_189801" data-name="Path 189801" d="M322.353,66.033c-.255-.568-1.177-.249-.919.326.747,1.666,2.951,4.956,1.121,6.524-.471.4.074,1.214.551.8,2.421-2.076.257-5.4-.753-7.654" transform="translate(-149.82 -30.643)" fill="#85391b"/>
        <path id="Path_189802" data-name="Path 189802" d="M322.792,84.759a8.9,8.9,0,0,0-6.208,1.3c-.505.37.043,1.177.551.805a7.825,7.825,0,0,1,5.466-1.147c.619.051.816-.9.192-.956" transform="translate(-147.486 -39.482)" fill="#85391b"/>
        <path id="Path_189803" data-name="Path 189803" d="M300.234,27.641c-1.748-2.776-4.956-3.748-8.077-3.851a31.171,31.171,0,0,0-9.751,1.308,15.965,15.965,0,0,0-7.68,4.9.532.532,0,0,0-.042.078,10.174,10.174,0,0,0-.9.991c-1.952,2.5-4.779,3.148-5.034,6.3-.567,7.038,5.1,16.036,10.42,20.177a.493.493,0,0,0,.806-.4,17.965,17.965,0,0,1-.042-4.1c.171-1.19.748-2.215,1.027-3.364.561-2.313-.428-5.019.368-7.163.5-1.353,1.639-2.334,2.151-3.733a19.2,19.2,0,0,0,1.117-5.195.785.785,0,0,1,.1-.405.772.772,0,0,1,.324-.225,11.888,11.888,0,0,1,5.2-1.138c.943,0,8.786-.673,9.726-.6.791.065,1.647,2.088,1.647,2.088-.115-1.138-.272-2.276-.488-3.4a6.552,6.552,0,0,0-.883-2.273" transform="translate(-125.265 -11.084)" fill="#301c15"/>
        <path id="Path_189804" data-name="Path 189804" d="M288.976,62.722a.381.381,0,0,0-.269-.3c-.912-1.967-3.181-3.862-5.379-2.362-2.293,1.565-1.513,5.257-.483,7.307.782,1.555,3.28,4.882,5.441,3.52,2.347-1.48,1.173-6.107.69-8.165" transform="translate(-131.382 -27.746)" fill="#bf613d"/>
        <path id="Path_189805" data-name="Path 189805" d="M292.315,35.207a11.375,11.375,0,0,1-4.531-6.475c-.162-.605-1.08-.279-.919.325a12.181,12.181,0,0,0,4.812,6.887c.509.357,1.153-.376.638-.737" transform="translate(-133.717 -13.243)" fill="#4a2f26"/>
        <path id="Path_189806" data-name="Path 189806" d="M296.473,34.4c-.937-.789-1.771-1.711-2.634-2.578-.444-.445-1.079.294-.638.737.863.867,1.7,1.789,2.634,2.578.48.4,1.119-.332.638-.737" transform="translate(-136.61 -14.77)" fill="#4a2f26"/>
        <path id="Path_189807" data-name="Path 189807" d="M310.018,22.234c-.606-.167-.793.791-.192.956a12.275,12.275,0,0,1,3.5,1.555c1,.653,2.558,1.72,2.814,2.958.125.605,1.1.544.972-.069-.6-2.879-4.555-4.7-7.09-5.4" transform="translate(-144.258 -10.355)" fill="#4a2f26"/>
        <path id="Path_189808" data-name="Path 189808" d="M283.731,43.8A12.424,12.424,0,0,1,280.6,31.066c.188-.6-.77-.784-.956-.192a13.392,13.392,0,0,0,3.449,13.667c.448.441,1.084-.3.638-.737" transform="translate(-130.067 -14.224)" fill="#4a2f26"/>
        <path id="Path_189809" data-name="Path 189809" d="M289.169,67.617A4.462,4.462,0,0,0,289.1,71.3c.247.572,1.169.253.919-.326a3.5,3.5,0,0,1,.02-2.924c.263-.57-.612-1-.875-.431" transform="translate(-134.599 -31.395)" fill="#85391b"/>
        <path id="Path_189810" data-name="Path 189810" d="M131.062,98.528s-30.4,9.029-38.334,12.952-10.244,10.286-9.4,13.972,6.543,10.008,6.543,10.008L101.439,125.4l34.193-5.157Z" transform="translate(-38.768 -45.93)" fill="#bf613d"/>
        <path id="Path_189811" data-name="Path 189811" d="M129.209,193.413c1.8-.043,2.5-1.843,3.581-3.105l.069.129c.277.521,2.342-1.49,1.983-1.954-14.085-18.192-24.462-46.1-33.424-49.4-2.825-1.038-7.3-1.368-9.743,2.194-2.65,3.861-2.378,8.24-.556,10.676C97.59,160.6,127.4,192.1,127.4,192.1s-.048,1.359,1.811,1.315" transform="translate(-41.823 -64.508)" fill="#bf613d"/>
        <path id="Path_189812" data-name="Path 189812" d="M213.264,101.412c-1.647,3.431-4.068,6.207-5.37,9.857-1.192,3.34-2.011,6.853-3.768,9.966a24.939,24.939,0,0,1-6.8,7.281c-5.925,4.551-12.815,6.344-20.078,7.327-.464.064-.938.128-1.4.182a30.45,30.45,0,0,1-6.107.146c-2.63-.218-5.024-.564-7.518.591-2.73,1.265-4.96,1.993-7.791.419a.459.459,0,0,1-.209-.51,64.9,64.9,0,0,0-1.056-37.361c-.082-.255-.6-1.056-.382-1.147q2.922-1.175,5.98-2.112c2.157-.674,4.359-1.265,6.58-1.793a149.915,149.915,0,0,1,16.993-2.885,62.187,62.187,0,0,1,11.85-.537,29.34,29.34,0,0,1,3.886.582c2.83.6,5.6,1.52,8.355,2.376.191.054.382.119.573.173h.009c.182.054.355.109.537.164,1.738.518,3.5.974,5.261,1.447a9,9,0,0,0-.328,2.248c0,1.283,1.329,2.439.783,3.586" transform="translate(-71.198 -42.295)" fill="#ede2db"/>
        <path id="Path_189813" data-name="Path 189813" d="M155.034,230.337a.415.415,0,0,0-.283-.125.371.371,0,0,0-.3-.53c-2.521-.368-6.1.727-6.981,3.4a41.433,41.433,0,0,0-7.481,7.365,30.807,30.807,0,0,0-3.086,4.876c-.462.919-1.3,2.042-.849,3.071a.342.342,0,0,0,.233.188,25.516,25.516,0,0,0-1.835,3.324,2.6,2.6,0,0,0,1.354,3.759c1.771.672,6.733-4.906,6.733-4.906s-3.868,4.74-2.617,5.434c.566.313,1.711-.369,2.139-.785,1.119-1.086,4.231-4.43,5.216-5.646l5.533-6.836c-.313.99-.761,1.95-1.168,3.038-.387,1.035-1.118,3-.747,4.138.818,2.523,2.4-.75,2.816-1.56,1.679-3.286,4.237-6.2,4.78-9.97.493-3.414-1.135-5.919-3.459-8.234" transform="translate(-62.529 -107.037)" fill="#bf613d"/>
        <path id="Path_189814" data-name="Path 189814" d="M154.932,255.45q-2.709,2.809-5.158,5.847c-.365.452.275,1.1.643.643q2.45-3.037,5.158-5.846c.406-.422-.236-1.067-.644-.644" transform="translate(-69.769 -119.017)" fill="#85391b"/>
        <path id="Path_189815" data-name="Path 189815" d="M145.516,253.741a100.39,100.39,0,0,0-9.9,10.488c-.367.45.273,1.1.644.643a100.328,100.328,0,0,1,9.9-10.487c.432-.4-.212-1.039-.644-.644" transform="translate(-63.166 -118.227)" fill="#85391b"/>
        <path id="Path_189816" data-name="Path 189816" d="M144.519,251.892q-2.578,2.506-5.012,5.149c-.4.43.246,1.076.643.644q2.435-2.644,5.012-5.149c.421-.409-.223-1.052-.644-.644" transform="translate(-64.975 -117.362)" fill="#85391b"/>
        <path id="Path_189817" data-name="Path 189817" d="M374.71,336.028l.069.13c.277.521,1.77-1.744,1.77-1.744l-34.485-55.74S336.04,283.435,333.6,287c-2.65,3.861-4.356,3.81-2.776,6.409,9.81,16.137,38.5,44.412,38.5,44.412s4.312-.528,5.392-1.79" transform="translate(-153.933 -129.907)" fill="#bf613d"/>
        <path id="Path_189818" data-name="Path 189818" d="M427.318,417.769a5.712,5.712,0,0,0-2.83.173,6.315,6.315,0,0,1-.856.128h-.064a24.41,24.41,0,0,1-4.387-.273,14.289,14.289,0,0,0-2.4-.1,6.184,6.184,0,0,0-.919.091,5.857,5.857,0,0,0-2.967,1.292.34.34,0,0,0-.209.182.8.8,0,0,0-.091.073.389.389,0,0,0-.082.509c-.519,1.894-1.884,5.434-.227,6.772.919.737,1.72.255,2.539-.209a5.055,5.055,0,0,1,1.011-.464,1.694,1.694,0,0,1,.928-.018,3.968,3.968,0,0,1,.656.264c.336.172.637.373.956.527a2.609,2.609,0,0,0,1.292.3c1.374-.027,2.184-.628,3.658-.51.31.018.592.055.856.073a4.526,4.526,0,0,0,.928,0,3.166,3.166,0,0,0,.719-.128c.582-.173.773-.419,1.429-.364.309.036.546.3.892.319,3.832.246,1.347-7.882-.828-8.637" transform="translate(-191.821 -194.688)" fill="#464752"/>
        <path id="Path_189819" data-name="Path 189819" d="M419.735,415.541c-.009.328-.027.655-.045.974a64.329,64.329,0,0,1-.946,8.246,5.027,5.027,0,0,0-1.011.464,62.266,62.266,0,0,0,1.038-8.619q.041-.532.054-1.065c.018-.582.928-.582.91,0" transform="translate(-194.732 -193.506)" fill="#242630"/>
        <path id="Path_189820" data-name="Path 189820" d="M423.509,429.261c-.319-.155-.619-.355-.956-.528a43.177,43.177,0,0,1,.091-5.2c.037-.582.947-.582.91,0a37.629,37.629,0,0,0-.045,5.725" transform="translate(-196.958 -197.234)" fill="#242630"/>
        <path id="Path_189821" data-name="Path 189821" d="M435.631,425.844a4.535,4.535,0,0,1-.928,0,38.507,38.507,0,0,1-.61-8.51c.009-.273.018-.555.036-.828.027-.592.937-.592.91,0-.018.237-.027.464-.027.7a37.506,37.506,0,0,0,.619,8.637" transform="translate(-202.345 -193.953)" fill="#242630"/>
        <path id="Path_189822" data-name="Path 189822" d="M429.624,419.392H412.665a.812.812,0,0,1-.812-.812V413.6a.812.812,0,0,1,.812-.812h16.959a.812.812,0,0,1,.812.812v4.975a.812.812,0,0,1-.812.812" transform="translate(-191.991 -192.429)" fill="#437546"/>
        <path id="Path_189823" data-name="Path 189823" d="M429.579,406.943h-5.063V397.62A1.485,1.485,0,0,1,426,396.135h2.093a1.485,1.485,0,0,1,1.485,1.485Z" transform="translate(-197.894 -184.664)" fill="#437546"/>
        <path id="Path_189824" data-name="Path 189824" d="M423.046,389.649c-.319-1.957-.683-4.2-2.057-5.834-2.648-3.168-8.228-4.988-12.46-5.661-1.766-.282-4.232-.774-5.935-.073a2.219,2.219,0,0,0-1.265,1.037.543.543,0,0,0-.656.428,16,16,0,0,0,2.74,10.676c2.129,3.049,6.125,4.159,9.939,4.951,1.01.209,4.8,1.238,4.924-.464a4.221,4.221,0,0,0,.856.647,2.45,2.45,0,0,0,3.522-.81,3.674,3.674,0,0,0,.491-1.274,10.633,10.633,0,0,0-.1-3.623" transform="translate(-186.748 -176.08)" fill="#bf613d"/>
        <path id="Path_189825" data-name="Path 189825" d="M425.67,401.3c-.615-2.064-2.462-3.43-4.51-4.373a.442.442,0,0,0-.024-.2l-1.028-2.956c-.191-.55-1.071-.313-.878.242l.855,2.458a28.619,28.619,0,0,0-2.973-.938.455.455,0,0,0-.242.878c2.744.72,7.011,2.072,7.923,5.128a.455.455,0,0,0,.878-.242" transform="translate(-194.179 -183.417)" fill="#85391b"/>
        <path id="Path_189826" data-name="Path 189826" d="M438.665,402.054a3.677,3.677,0,0,1-.492,1.274,12.855,12.855,0,0,0-4.123-6.007c-.455-.373.191-1.019.637-.646a13.682,13.682,0,0,1,3.977,5.379" transform="translate(-202.266 -184.863)" fill="#85391b"/>
        <path id="Path_189827" data-name="Path 189827" d="M215.4,121.359c-2.92,10.579-6.426,22.342-16.759,27.953-.515.28-.056,1.066.46.786,10.546-5.728,14.194-17.689,17.177-28.5a.455.455,0,0,0-.878-.242" transform="translate(-92.492 -56.423)" fill="#c9b8ad"/>
        <path id="Path_189828" data-name="Path 189828" d="M221.02,112.353c-.036-.582-.947-.586-.91,0a48.411,48.411,0,0,1-2.976,20.045c-.205.549.674.787.878.242a49.028,49.028,0,0,0,3.009-20.287" transform="translate(-101.206 -52.17)" fill="#c9b8ad"/>
        <path id="Path_189829" data-name="Path 189829" d="M213.2,304.7a98.985,98.985,0,0,1-35.578-14.938c-.487-.329-.943.46-.46.786a99.651,99.651,0,0,0,35.8,15.03c.572.117.816-.76.242-.878" transform="translate(-82.492 -135.042)" fill="#c9b8ad"/>
        <path id="Path_189830" data-name="Path 189830" d="M258.42,269.129c-10.1,5.43-20.777,11-32.576,10.427-.586-.028-.584.882,0,.91,11.953.578,22.806-5.05,33.035-10.552.516-.278.057-1.063-.46-.786" transform="translate(-105.076 -125.431)" fill="#c9b8ad"/>
        <path id="Path_189831" data-name="Path 189831" d="M187.178,270.954a4.374,4.374,0,0,0,1.981-2.113c.872-1.814,0-4.912,3.015-4.316,1.492.3,4.853,3.11,5.786.406.2-.57-.147-1.191,0-1.74.422-1.529,3.075-1.655,4.3-1.829,1.1-.156,2.578-.112,3.376-1.058,1.085-1.287.194-2.663-1.3-2.8-4.274-.4-8.627,1.349-12.307,3.356-2.986,1.629-8.51,4.466-8.633,8.441-.062,2,2.281,2.378,3.772,1.656" transform="translate(-85.497 -120.011)" fill="#fff"/>
        <path id="Path_189832" data-name="Path 189832" d="M173.381,108.479a4.388,4.388,0,0,0-1.62-2.4c-1.583-1.256-4.8-1.092-3.54-3.9.528-1.193,3.167-3.313,2.385-4.842-2.221.528-4.423,1.119-6.581,1.793.173.8.373,1.593.592,2.357.919,3.277,2.457,9.292,6.307,10.294,1.938.51,2.821-1.693,2.457-3.3" transform="translate(-76.462 -45.376)" fill="#fff"/>
        <path id="Path_189833" data-name="Path 189833" d="M346.4,230.37a1.48,1.48,0,0,0-1.447.9c-.291.519-.064,1.192-.319,1.711-.682,1.429-3.322,1.074-4.56,1.02-1.11-.046-2.558-.355-3.513.437-1.292,1.065-.665,2.585.774,2.985a19.27,19.27,0,0,0,9.8-.246q-.327-3.413-.737-6.808" transform="translate(-156.566 -107.388)" fill="#fff"/>
        <path id="Path_189834" data-name="Path 189834" d="M270.129,232.649a4.371,4.371,0,0,0-1.62-2.4c-1.576-1.253-4.789-1.094-3.538-3.9.62-1.39,4.111-4.041,1.682-5.551-.512-.318-1.194-.121-1.7-.391-1.4-.751-.929-3.366-.827-4.6.092-1.107.464-2.538-.281-3.527-1.014-1.344-2.553-.782-3.02.643-1.338,4.079-.6,8.711.537,12.744.924,3.273,2.463,9.29,6.311,10.293,1.937.5,2.826-1.7,2.453-3.309" transform="translate(-121.253 -98.6)" fill="#fff"/>
        <path id="Path_189835" data-name="Path 189835" d="M228.246,162.419a4.37,4.37,0,0,0-.73,2.8c.1,2.01,2.345,4.317-.587,5.232-1.452.453-5.749-.413-5.277,2.408.1.595.7.976.828,1.531.359,1.545-1.911,2.923-2.907,3.663-.891.663-2.212,1.33-2.46,2.543-.338,1.649,1.1,2.432,2.479,1.841,3.945-1.693,6.934-5.307,9.208-8.828,1.845-2.857,5.342-7.989,3.551-11.54-.9-1.787-3.139-1-4.1.347" transform="translate(-101.187 -75.068)" fill="#fff"/>
        <path id="Path_189836" data-name="Path 189836" d="M290.592,152.209a4.367,4.367,0,0,0,2.583,1.312c1.986.33,4.717-1.369,4.986,1.69.133,1.516-1.63,5.528,1.226,5.669.6.03,1.1-.474,1.672-.482,1.586-.022,2.447,2.491,2.959,3.622.457,1.012.827,2.444,1.959,2.946,1.539.682,2.611-.557,2.328-2.029-.812-4.215-3.7-7.907-6.659-10.88-2.4-2.412-6.665-6.924-10.517-5.932-1.938.5-1.646,2.854-.537,4.084" transform="translate(-135.055 -68.985)" fill="#fff"/>
        <path id="Path_189837" data-name="Path 189837" d="M246.041,99.33c-3.513.091-6.362-4.068-8.2-7.045-.064-.091-.119-.173-.173-.264,2.83.6,5.6,1.52,8.355,2.375.191.055.382.119.573.173h.009c.1.055.209.1.31.155a3.984,3.984,0,0,1,.582.755c.792,1.447.546,3.8-1.456,3.85" transform="translate(-110.792 -42.897)" fill="#fff"/>
        <path id="Path_189838" data-name="Path 189838" d="M301.528,190.245a1.542,1.542,0,0,0-1.13-.336c-1.934.239-2.305,3.224-1.966,4.674a1.775,1.775,0,0,0,.442.9,1.421,1.421,0,0,0,1.648.093,3.315,3.315,0,0,0,1.151-1.315,4.174,4.174,0,0,0,.66-2.685,2.192,2.192,0,0,0-.806-1.331" transform="translate(-139.066 -88.524)" fill="#464752"/>
        <path id="Path_189839" data-name="Path 189839" d="M196.854,105.629a4.947,4.947,0,0,0-1.588-.3c-1.955-.036-2.094,1.768-1.05,3.063a6.023,6.023,0,0,0,1.938,1.463,2.75,2.75,0,0,0,2.455.345,1.837,1.837,0,0,0,.859-1.926,3.14,3.14,0,0,0-1.2-1.853,4.945,4.945,0,0,0-1.415-.795" transform="translate(-90.236 -49.102)" fill="#464752"/>
        <path id="Path_189840" data-name="Path 189840" d="M206.124,181.758a2.065,2.065,0,0,0-.567.136c-1.3.516-3.166,2.93-1.913,4.3a2.032,2.032,0,0,0,2.441.045,4.9,4.9,0,0,0,1.6-1.448,2.29,2.29,0,0,0,.478-1.864,1.86,1.86,0,0,0-2.034-1.166" transform="translate(-94.738 -84.724)" fill="#464752"/>
        <path id="Path_189841" data-name="Path 189841" d="M241.226,257.625a1.387,1.387,0,0,0-.149-.014c-1.963-.086-1.179,3.062-.751,4.067.367.862,1.161,1.732,2.079,1.545a1.937,1.937,0,0,0,1.279-1.92,3.949,3.949,0,0,0-1.383-3.141,2.229,2.229,0,0,0-1.076-.536" transform="translate(-111.788 -120.088)" fill="#464752"/>
        <path id="Path_189842" data-name="Path 189842" d="M171.084,272.354a2.773,2.773,0,0,0-1.065-.235c-1.472-.023-4.7,1.64-2.307,3.073a3.415,3.415,0,0,0,1.9.37,3.516,3.516,0,0,0,1.693-.424,1.673,1.673,0,0,0,.855-1.446,1.626,1.626,0,0,0-1.077-1.339" transform="translate(-77.781 -126.852)" fill="#464752"/>
        <path id="Path_189843" data-name="Path 189843" d="M345.807,252.222c-1.463-.286-2.033,1.76-2.539,2.749a.869.869,0,0,0,.062.922,1.557,1.557,0,0,0,.546,1.215c1.3,1.006,2.316-1.009,2.825-1.9.606-1.066.586-2.695-.893-2.984" transform="translate(-159.97 -117.564)" fill="#464752"/>
        <path id="Path_189844" data-name="Path 189844" d="M264.515,115.091a3.81,3.81,0,0,0-.331-.52,2.734,2.734,0,0,0-1.831-1.162c-2.626-.254-1.784,3.311-.586,4.38a2.132,2.132,0,0,0,1.464.61,1.848,1.848,0,0,0,1.613-1.562,2.768,2.768,0,0,0-.329-1.747" transform="translate(-121.494 -52.861)" fill="#464752"/>
        <path id="Path_189845" data-name="Path 189845" d="M194.906,368.776a60.131,60.131,0,0,0-19.4-7.017c-.9-.155-1.8-.291-2.694-.4a60.293,60.293,0,0,1,15.727.3c.573.082.819-.792.246-.882a62.138,62.138,0,0,0-18.776.036.339.339,0,0,0-.3.236,145.251,145.251,0,0,0-16.292.018c-17.348.628-39.418,1.359-53.207-10.683-5.579-4.869-8.555-11.907-11.377-18.724-.546-1.32-.792-3.84-1.183-5.215-.128.637-.237,1.283-.328,1.93a34.069,34.069,0,0,0,15.9,33.32s25.375,1.064,37.143.7c11.231-.354,22.972-1.711,34.113.109a59.482,59.482,0,0,1,19.968,7.054.455.455,0,0,0,.464-.783" transform="translate(-40.558 -152.177)" fill="#ba5e29"/>
        <path id="Path_189846" data-name="Path 189846" d="M567.711,341.288c0-3.835-19.254-6.944-43-6.944s-43,3.109-43,6.944a1.415,1.415,0,0,0,.325.84c1.516,3.91,7.967,20.376,10.37,23.6,0,2.881,14.466,5.217,32.311,5.217s32.31-2.336,32.31-5.217c2.4-3.221,8.854-19.687,10.37-23.6a1.418,1.418,0,0,0,.324-.84" transform="translate(-224.552 -155.859)" fill="#9698b0"/>
        <path id="Path_189847" data-name="Path 189847" d="M567.2,342.609a1.173,1.173,0,0,1-.546.847c-2,1.583-9.429,3.213-19.659,4.15-4.16.391-8.792.665-13.707.774-1.647.045-3.331.064-5.033.064-5.206,0-10.166-.182-14.708-.509q-3.017-.2-5.752-.492c-8.764-.9-15.227-2.311-17.548-3.732-.61-.364-.937-.737-.937-1.1,0-2.685,17.438-4.86,38.945-4.86s38.945,2.175,38.945,4.86" transform="translate(-228.097 -157.446)" fill="#73758c"/>
        <path id="Path_189848" data-name="Path 189848" d="M565.481,350.154s-1.338,1.083-3.158,2.439c-4.16.391-8.792.665-13.707.773-1.647.046-3.331.064-5.033.064-5.206,0-10.166-.182-14.708-.51q-3.017-.2-5.752-.492l-.928-2.667a181.929,181.929,0,0,1,21.389-1.308c10.129.118,18.321.854,19.113,1.308a7.425,7.425,0,0,0,2.785.391" transform="translate(-243.428 -162.433)" fill="#ede2db"/>
        <path id="Path_189849" data-name="Path 189849" d="M597.535,343.6a9.527,9.527,0,0,0-7.773,3.914,2.532,2.532,0,0,0-2.821-1.693c-1.32.2-1.675,1.3-2.676,1.848-.691.373-2.157-.273-3.04-.073a28,28,0,0,1-3.522.819,11.238,11.238,0,0,0-1.447.255,10.778,10.778,0,0,0-3.732,1.775c-.237.173-.528.4-.838.665,16.983-.382,30.544-2.694,33.366-4.924-1.6-2.075-5.061-2.558-7.518-2.585" transform="translate(-266.5 -160.172)" fill="#fff"/>
        <path id="Path_189850" data-name="Path 189850" d="M511.941,348.995a4.953,4.953,0,0,1-2.275-1.9,6.306,6.306,0,0,0-.928-1.357,4.024,4.024,0,0,0-3.04-.974,5.2,5.2,0,0,0-1.474.355c-.546.209-1.392,1.056-1.911,1.129-1.074.164-1.884-1.156-2.976-1.538a6.6,6.6,0,0,0-4.169.063,13.532,13.532,0,0,0-4.1,2.039c2.8,1.711,11.641,3.413,23.3,4.223a4.652,4.652,0,0,0-2.421-2.039" transform="translate(-228.915 -160.546)" fill="#fff"/>
        <path id="Path_189851" data-name="Path 189851" d="M526.031,358.19c-25.721,0-41.035-5.433-41.187-5.488a.455.455,0,0,1,.31-.856c.151.054,15.33,5.434,40.877,5.434,25.268,0,40.206-5.006,40.354-5.057a.455.455,0,1,1,.294.862c-.149.051-15.23,5.106-40.648,5.106" transform="translate(-225.877 -164.005)" fill="#73758c"/>
        <path id="Path_189852" data-name="Path 189852" d="M574.054,342.716a16.265,16.265,0,0,0-4.128-.657,5.519,5.519,0,0,0-3.861,1.446,4.139,4.139,0,0,1-.737.685,4.732,4.732,0,0,1-1.424.377c-1.563.365-1.514,2.616-.109,3.2a3.557,3.557,0,0,0,2.65-.212,11.957,11.957,0,0,1,2.553-.94,27.043,27.043,0,0,1,3.611.19,5.185,5.185,0,0,0,2.562-.741,1.963,1.963,0,0,0,1.116-1.623c-.053-1-1.228-1.474-2.2-1.716l-.035-.009" transform="translate(-262.328 -159.455)" fill="#fff"/>
        <path id="Path_189853" data-name="Path 189853" d="M508.372,349.7A8.247,8.247,0,0,0,507,347.492a5.03,5.03,0,0,0-2.117-1.211.455.455,0,0,0-.242.878,4.087,4.087,0,0,1,1.847,1.109,8.131,8.131,0,0,1,1.1,1.893c.281.514,1.068.055.786-.46" transform="translate(-235.096 -161.414)" fill="#ede2db"/>
        <path id="Path_189854" data-name="Path 189854" d="M516.888,350.513a3.235,3.235,0,0,0-1.551-1.991.455.455,0,0,0-.46.786,2.312,2.312,0,0,1,1.133,1.447.455.455,0,0,0,.878-.242" transform="translate(-239.913 -162.439)" fill="#ede2db"/>
        <path id="Path_189855" data-name="Path 189855" d="M575.652,342.992a6.041,6.041,0,0,0-1.373,2.41.455.455,0,0,0,.878.242,5,5,0,0,1,1.139-2.008c.4-.43-.245-1.075-.644-.644" transform="translate(-267.698 -159.824)" fill="#ede2db"/>
        <path id="Path_189856" data-name="Path 189856" d="M618.1,348.361c-1.784-1.184-5.713-1.267-6.235,1.366-.113.572.764.817.878.242.393-1.986,3.617-1.672,4.9-.822.489.325.945-.463.459-.786" transform="translate(-285.226 -162.025)" fill="#ede2db"/>
        <path id="Path_189857" data-name="Path 189857" d="M600.23,351.546a3.508,3.508,0,0,0-3.364.9c-.42.41.224,1.053.643.644a2.568,2.568,0,0,1,2.479-.661.455.455,0,0,0,.242-.878" transform="translate(-278.173 -163.824)" fill="#ede2db"/>
        <path id="Path_189858" data-name="Path 189858" d="M462.337,426.267c-.826-.214-1.852-.614-2.9-.916a8.527,8.527,0,0,0-6.724-5.39c-3.32-.4-5.334,1.927-6.9,4.478a1.923,1.923,0,0,0-1.862-.536,2.889,2.889,0,0,0-1.257.65c-.306.24-.51.614-.815.844-.833.632-.892.428-1.966.139-1.831-.492-3.615-.963-5.461-.248-1.773.687-2.317,2.871-3.931,3.414-1,.338-2.749.347-3.211,1.642-.313.876.187,1.231.912,1.594,3.692,1.848,9.092.576,12.608-1.209a3.842,3.842,0,0,0,2.566,1.5c1.733.257,3.286-.9,4.92-.572,2.811.571,5.259.582,7.53-.859a6.586,6.586,0,0,0,5.364.348c.373-.162.781-.586,1.156-.7.613-.194.827.028,1.471-.049a1.921,1.921,0,0,0,1.607-1.155c.759-1.959-1.771-2.624-3.1-2.968" transform="translate(-199.15 -195.749)" fill="#fff"/>
        <path id="Path_189859" data-name="Path 189859" d="M500.629,444.771a3.3,3.3,0,0,0-3.979.671,3.218,3.218,0,0,0-5-.836c-.618.483-1.606,2.529-1,3.266.25.306,1.332.455,1.71.553a8,8,0,0,0,3.444.069,23.319,23.319,0,0,1,4.549-.264c.75.024,1.9.006,2.345-.761.712-1.22-1.157-2.29-2.068-2.7" transform="translate(-228.635 -206.878)" fill="#fff"/>
        <path id="Path_189860" data-name="Path 189860" d="M395.173,434.091c-.571-2.2-2-4.286-4.486-4.421a4.07,4.07,0,0,0-3.079,1.275q-.449.468-.886.948-.953.851-1.731.064c-.428-.135-.848-.506-1.276-.674a3.588,3.588,0,0,0-3.218.033c-.847.511-.885,1.755-1.62,2.171-.936.528-2.242-.29-3.234.628a1.831,1.831,0,0,0-.555,1.979c.841,2.6,5.518,1.783,7.4,1.544.831-.105,1.656-.248,2.472-.435a5.1,5.1,0,0,1,3.105-.023,6.2,6.2,0,0,0,3.222.324,3.822,3.822,0,0,1,1.771-.232c.578.078.948.555,1.594.614a2.116,2.116,0,0,0,2.078-.936c.854-1.461-.287-2.375-1.56-2.859" transform="translate(-174.807 -200.294)" fill="#fff"/>
        <path id="Path_189861" data-name="Path 189861" d="M374.429,448.311a3,3,0,0,0-2.384-.62,3.051,3.051,0,0,0-2.628.4,1.674,1.674,0,0,0-.448,1.942c.673,1.653,3.256,1.953,4.755,1.482a2.413,2.413,0,0,0,1.592-1.339c.246-.734-.344-1.435-.888-1.865" transform="translate(-171.937 -208.645)" fill="#fff"/>
        <path id="Path_189862" data-name="Path 189862" d="M387.572,448.382c-.89.142-2.159.957-1.414,1.989a.453.453,0,0,0,.268.177,1.032,1.032,0,0,0,1.093.745,2.756,2.756,0,0,0,2.287-1.819c.179-1.164-1.488-1.212-2.235-1.093" transform="translate(-179.908 -208.999)" fill="#fff"/>
        <path id="Path_189863" data-name="Path 189863" d="M474.029,430.689a4.258,4.258,0,0,0-4.926.675,3.462,3.462,0,0,0-6.024-1.244c-.4.43.245,1.075.644.644a2.655,2.655,0,0,1,4.662,1.419.462.462,0,0,0,.777.322c1-.918,2.014-1.681,3.561-1.371.492.1,3.038,1.151,1.958,2.17-.427.4.218,1.045.644.644,1.411-1.33.024-2.613-1.295-3.258" transform="translate(-215.812 -199.91)" fill="#ede2db"/>
        <path id="Path_189864" data-name="Path 189864" d="M455.4,435.961a5.6,5.6,0,0,0-4.247-.542.455.455,0,0,0,.242.878,4.652,4.652,0,0,1,3.545.45.455.455,0,0,0,.46-.786" transform="translate(-210.161 -202.886)" fill="#ede2db"/>
        <path id="Path_189865" data-name="Path 189865" d="M394.848,433.106a3.294,3.294,0,0,0-2.6.5c-1.012.59-1.835,1.99-2.838,2.338-.6.21-2.079-.4-2.873-.306a5.467,5.467,0,0,0-2.929,1.366c-.45.376.2,1.017.643.643a4.577,4.577,0,0,1,4.1-.98c.438.1.879.429,1.34.309.381-.1.568-.44.828-.7,1.031-1.017,2.41-2.668,4.083-2.3.571.125.815-.752.242-.878" transform="translate(-178.755 -201.859)" fill="#ede2db"/>
        <path id="Path_189866" data-name="Path 189866" d="M498.276,449.259a3.479,3.479,0,0,0-3.214-1.905c-.585.018-.587.928,0,.91a2.585,2.585,0,0,1,2.428,1.454c.263.524,1.048.064.786-.459" transform="translate(-230.576 -208.539)" fill="#ede2db"/>
        <path id="Path_189867" data-name="Path 189867" d="M463.446,313.786a.909.909,0,0,1-.776-.432l-3.895-6.317a.91.91,0,0,1,1.55-.956l3.894,6.317a.91.91,0,0,1-.773,1.388" transform="translate(-213.801 -142.483)" fill="#ede2db"/>
        <path id="Path_189868" data-name="Path 189868" d="M452.957,324.523h-8.077l2.731-15.741h5.347Z" transform="translate(-207.387 -143.943)" fill="#e66b3e"/>
        <path id="Path_189869" data-name="Path 189869" d="M452.328,354.207H438.081a1.167,1.167,0,0,1-1.168-1.168V331.424a4.863,4.863,0,0,1,4.863-4.863h6.857a4.863,4.863,0,0,1,4.863,4.863v21.615a1.168,1.168,0,0,1-1.168,1.168" transform="translate(-203.673 -152.231)" fill="#e66b3e"/>
        <path id="Path_189870" data-name="Path 189870" d="M459.748,300.8v1.7a.855.855,0,0,1-.856.856H447.862a.855.855,0,0,1-.856-.856v-4.487a.859.859,0,0,1,1.065-.838l10.13,2.567.9.228a.855.855,0,0,1,.646.828" transform="translate(-208.378 -138.52)" fill="#ede2db"/>
        <path id="Path_189871" data-name="Path 189871" d="M469.524,303.063v1.7a.855.855,0,0,1-.856.856h-.691v-3.614l.9.228a.855.855,0,0,1,.646.828" transform="translate(-218.154 -140.785)" fill="#e66b3e"/>
        <path id="Path_189872" data-name="Path 189872" d="M453.043,337.323c0,1.421-2.112,2.573-4.718,2.573s-4.718-1.152-4.718-2.573,2.112-2.573,4.718-2.573,4.718,1.152,4.718,2.573" transform="translate(-206.794 -156.048)" fill="#fff"/>
        <path id="Path_189873" data-name="Path 189873" d="M583.513,100.941H572.6a.534.534,0,0,1-.534-.534V79.028a.534.534,0,0,1,.534-.534h10.916a.534.534,0,0,1,.534.534v21.379a.534.534,0,0,1-.534.534" transform="translate(-266.675 -36.591)" fill="#3c3fa7"/>
        <path id="Path_189874" data-name="Path 189874" d="M614.2,114.034H603.285a.534.534,0,0,1-.534-.534v-6.385a.534.534,0,0,1,.534-.534H614.2a.534.534,0,0,1,.534.534V113.5a.534.534,0,0,1-.534.534" transform="translate(-280.981 -49.685)" fill="#3c3fa7"/>
        <path id="Path_189875" data-name="Path 189875" d="M465.613,40.378a19.53,19.53,0,0,0-9.314,4.339c1.954-6.551,5.722-12.52,9.02-18.458.2-.367-.235-.908-.622-.622-4.526,3.335-9.007,7.174-11.906,11.913A44.763,44.763,0,0,1,458.2,20.572a.459.459,0,0,0-.622-.623c-7.237,3.7-9.775,11.54-9.74,19.178a23.131,23.131,0,0,0-3.5-4.276c-2.443-2.3-6.688-5.162-10.245-4.375a.459.459,0,0,0-.2.761c5.165,4.911,10.089,10.349,12.844,16.92a22.722,22.722,0,0,0-3.835-2.62,37.5,37.5,0,0,0-6.36-2.746c-1.41-.464-6.776-.7-7.639.656-.717,1.126,6.729,3.918,7.456,4.419,5.03,3.459,9.725,7.608,12.091,13.373a.467.467,0,0,0,.064.1,18.885,18.885,0,0,0-2.11.48.456.456,0,0,0,.242.878,15.746,15.746,0,0,1,5.829-.566.456.456,0,0,0,.439-.334,32.773,32.773,0,0,1,5.746-12.3,33.156,33.156,0,0,1,4.429-4.745,9.884,9.884,0,0,0,3.089-3.812c.137-.357-.256-.613-.56-.56" transform="translate(-199.914 -9.274)" fill="#a9b881"/>
        <path id="Path_189876" data-name="Path 189876" d="M472.611,62.356c.354-.458-.285-1.106-.644-.644a24.318,24.318,0,0,0-2.313,3.6,43.773,43.773,0,0,0-2.187-5.454.414.414,0,0,0,.029-.081,15.016,15.016,0,0,1,1.886-5.471.456.456,0,0,0-.786-.46,15.733,15.733,0,0,0-1.782,4.671c-.577-1.154-1.172-2.278-1.754-3.359-.278-.516-1.064-.057-.786.46,2.66,4.936,5.659,10.812,5.651,16.545a.455.455,0,0,0,.91,0,21.425,21.425,0,0,0-.823-5.636.431.431,0,0,0,.1-.136,23,23,0,0,1,2.494-4.032" transform="translate(-216.401 -24.996)" fill="#7a9136"/>
        <path id="Path_189877" data-name="Path 189877" d="M468.894,81.462c-1.2-2.817-2.563-6.575-5.332-8.23a.456.456,0,0,0-.46.786c2.568,1.535,3.887,5.281,5.006,7.9.229.537,1.014.074.786-.46" transform="translate(-215.78 -34.107)" fill="#7a9136"/>
        <path id="Path_189878" data-name="Path 189878" d="M506.644,66.606a15.823,15.823,0,0,0-5.734,2.915,78.506,78.506,0,0,0,2.08-7.95.461.461,0,0,0-.668-.514c-4.842,2.353-5.929,7.662-6.439,12.566a13.553,13.553,0,0,0-5.94-4.491c-.4-.133-.68.336-.514.668,1.522,3.051,3.5,6.2,4.325,9.548a.461.461,0,0,0-.036.167c0,.313.023.623.051.933a1.933,1.933,0,0,1-.232-.387c-.216-.537-1.1-.3-.878.242a3.744,3.744,0,0,0,1.411,1.754.388.388,0,0,0,.282.178,7.014,7.014,0,0,0,1.213.552c1.6.569,2.172.459,2.93-1.1a62.066,62.066,0,0,1,3.521-6.922c1.645-2.541,3.421-5,5.143-7.491a.46.46,0,0,0-.514-.668" transform="translate(-228.131 -28.438)" fill="#a9b881"/>
        <path id="Path_189879" data-name="Path 189879" d="M505.429,77.726a33.956,33.956,0,0,0-3.133,5.937,11.419,11.419,0,0,0-.589-1.626c-.241-.533-1.025-.07-.785.459a9.914,9.914,0,0,1,.831,3.085c.059.577.97.583.91,0a11.436,11.436,0,0,0-.234-1.372.5.5,0,0,0,.714-.233,32.783,32.783,0,0,1,3.072-5.791c.326-.49-.463-.946-.785-.46" transform="translate(-233.491 -36.136)" fill="#7a9136"/>
        <path id="Path_189880" data-name="Path 189880" d="M443.518,107.526h32.644c7.858-2.885,9.3-8.4,10.423-14.905H433.1c1.126,6.51,2.565,12.02,10.423,14.905" transform="translate(-201.893 -43.176)" fill="#5462b3"/>
        <path id="Path_189881" data-name="Path 189881" d="M650.515,261.8l2.579,36.944H650.06l-6.675-37.04Z" transform="translate(-299.923 -121.996)" fill="#de8b5b"/>
        <path id="Path_189882" data-name="Path 189882" d="M421.96,261.8l-2.579,36.944h3.034l6.675-37.04Z" transform="translate(-195.5 -121.996)" fill="#de8b5b"/>
        <path id="Path_189883" data-name="Path 189883" d="M548.053,196.091H410.08a3.189,3.189,0,0,1-3.185-3.185V122.957a3.189,3.189,0,0,1,3.185-3.185H548.053a3.189,3.189,0,0,1,3.185,3.185v69.948a3.189,3.189,0,0,1-3.185,3.185M410.08,120.682a2.278,2.278,0,0,0-2.275,2.275v69.948a2.278,2.278,0,0,0,2.275,2.276H548.053a2.278,2.278,0,0,0,2.275-2.276V122.957a2.278,2.278,0,0,0-2.275-2.275Z" transform="translate(-189.68 -55.833)" fill="#3c3fa7"/>
        <path id="Path_189884" data-name="Path 189884" d="M546.874,194.933H427.5a3.19,3.19,0,0,1-3.186-3.185v-51.7a3.19,3.19,0,0,1,3.186-3.185H546.874a3.189,3.189,0,0,1,3.185,3.185v51.7a3.189,3.189,0,0,1-3.185,3.185" transform="translate(-197.799 -63.802)" fill="#a6bbff"/>
        <rect id="Rectangle_47396" data-name="Rectangle 47396" width="128.967" height="0.91" transform="translate(224.904 101.643)" fill="#3c3fa7"/>
        <path id="Path_189885" data-name="Path 189885" d="M542.357,149.547H522.486a1.136,1.136,0,0,1-1.137-1.136v-1.6a1.136,1.136,0,0,1,1.137-1.137h19.872a1.136,1.136,0,0,1,1.136,1.137v1.6a1.136,1.136,0,0,1-1.136,1.136" transform="translate(-243.034 -67.907)" fill="#3c3fa7"/>
        <path id="Path_189886" data-name="Path 189886" d="M542.357,203.279H522.486a1.136,1.136,0,0,1-1.137-1.136v-1.6a1.136,1.136,0,0,1,1.137-1.137h19.872a1.136,1.136,0,0,1,1.136,1.137v1.6a1.136,1.136,0,0,1-1.136,1.136" transform="translate(-243.034 -92.955)" fill="#3c3fa7"/>
      </g>
    </g>
  </g>
</svg>
