<svg xmlns="http://www.w3.org/2000/svg" xmlns:xlink="http://www.w3.org/1999/xlink" width="299" height="445" viewBox="0 0 299 445">
  <defs>
    <clipPath id="clip-path">
      <rect id="Rectangle_44928" data-name="Rectangle 44928" width="299" height="445" transform="translate(0)" fill="#fff" stroke="#707070" stroke-width="1"/>
    </clipPath>
    <clipPath id="clip-path-2">
      <rect id="Rectangle_45292" data-name="Rectangle 45292" width="306.811" height="204.477" fill="#3c3fa7"/>
    </clipPath>
    <clipPath id="clip-path-3">
      <rect id="Rectangle_45288" data-name="Rectangle 45288" width="289.021" height="412.587" fill="none"/>
    </clipPath>
    <clipPath id="clip-path-4">
      <path id="Path_183365" data-name="Path 183365" d="M126.093,19.87s6.1,8.263,12.937,1.168c0,0-2.229-3.9-6.457-3.9-1.8,0-3.968.709-6.48,2.732" transform="translate(-126.093 -17.138)" fill="none"/>
    </clipPath>
    <clipPath id="clip-path-5">
      <path id="Path_183367" data-name="Path 183367" d="M142.108,20.634c8.086,3.547,8.753-5.832,8.753-5.832a7.828,7.828,0,0,0-2.822-.588c-4.977,0-5.931,6.42-5.931,6.42" transform="translate(-142.108 -14.214)" fill="none"/>
    </clipPath>
    <clipPath id="clip-path-7">
      <path id="Path_183370" data-name="Path 183370" d="M136.454,28.336c-.9,1.287,4.269,2.889,5.941,2.8,2.883-.156,3.367-1.5.149-2.71a10.46,10.46,0,0,0-3.645-.7,3.563,3.563,0,0,0-2.445.615" transform="translate(-136.349 -27.721)" fill="none"/>
    </clipPath>
    <clipPath id="clip-path-9">
      <path id="Path_183449" data-name="Path 183449" d="M77.5,23.38s4.742,6.464,12.6,4.715c0,0-1.112-6.358-6.857-6.359A12.769,12.769,0,0,0,77.5,23.38" transform="translate(-77.495 -21.736)" fill="none"/>
    </clipPath>
    <clipPath id="clip-path-11">
      <path id="Path_183467" data-name="Path 183467" d="M79.793,34.249c.15,3.325,6.251,6.111,8.741,3.585,1.622-1.648-4.338-4.616-7.241-4.616-.92,0-1.533.3-1.5,1.032" transform="translate(-79.792 -33.217)" fill="none"/>
    </clipPath>
  </defs>
  <g id="_13" data-name="13" transform="translate(0)" clip-path="url(#clip-path)">
    <g id="Group_174179" data-name="Group 174179" transform="translate(-18.832 32.299)">
      <g id="Group_174173" data-name="Group 174173" transform="translate(0 188.404)">
        <rect id="Rectangle_44927" data-name="Rectangle 44927" width="226.211" height="224.183" transform="translate(0)" fill="#6b8dfc"/>
        <path id="Rectangle_44926" data-name="Rectangle 44926" d="M0,0H188.679A128.829,128.829,0,0,1,317.507,128.829v0a0,0,0,0,1,0,0H0a0,0,0,0,1,0,0V0A0,0,0,0,1,0,0Z" transform="translate(0 95.354)" fill="#3c3fa7"/>
      </g>
      <g id="Group_175033" data-name="Group 175033" transform="translate(15.261 48.92)">
        <g id="Group_175032" data-name="Group 175032" clip-path="url(#clip-path-2)">
          <path id="Path_183468" data-name="Path 183468" d="M247.327,132.267h13.6a.637.637,0,0,0,.637-.637V12.154h44.606a.637.637,0,0,0,0-1.274H260.931a.637.637,0,0,0-.637.637V130.992H247.964V.638A.637.637,0,0,0,246.8.278L236.512,15.314a.635.635,0,0,0-.111.359V118.711h-11.07V59.867a.637.637,0,0,0-.637-.637H156.316v-45.3a.637.637,0,0,0-.637-.637H111.917a.637.637,0,0,0-.637.637V95.415H54.02V44.746a.637.637,0,0,0-.637-.637H26.6a.637.637,0,0,0-.637.637V65.5h-9.61V12.725a.635.635,0,0,0-.111-.359L8.777,1.461a.637.637,0,0,0-1.163.359V73.5H.637a.637.637,0,1,0,0,1.274H8.252a.637.637,0,0,0,.637-.637V3.879l6.188,9.043V66.134a.637.637,0,0,0,.637.637H26.6a.637.637,0,0,0,.637-.637V45.383H52.746V96.052a.637.637,0,0,0,.637.637h58.534a.637.637,0,0,0,.637-.637V14.571h42.487v45.3a.637.637,0,0,0,.637.637h68.378v58.844a.637.637,0,0,0,.637.637h12.345a.637.637,0,0,0,.637-.637V15.87L246.689,2.7V131.629a.637.637,0,0,0,.637.637" transform="translate(0 0)" fill="#3c3fa7"/>
          <path id="Path_183469" data-name="Path 183469" d="M.848,263.328H.878a.637.637,0,0,0,.607-.666c-1.26-26.831,3.1-43.326,12.947-49.026,5.154-2.982,10.912-2.285,14.836-1.174a31.13,31.13,0,0,1,7.448,3.208.637.637,0,0,0,.976-.61,60.327,60.327,0,0,1,.942-17.171c2.48-11.655,8.43-18.617,17.685-20.691,6-1.346,11.155-.594,15.317,2.232,7.738,5.255,9.518,16,9.535,16.1a.637.637,0,0,0,1.233.1A50.016,50.016,0,0,1,91.993,180.1c6.32-7.012,17.581-15.3,35.391-14.883,14.366.326,25.961,5.066,34.463,14.087,16.785,17.811,15.931,46.626,15.921,46.915a.637.637,0,0,0,.606.66.66.66,0,0,0,.666-.6c.01-.152,1.016-15.261,9.014-21.088,3.117-2.271,6.943-2.848,11.368-1.714a.637.637,0,0,0,.316-1.235c-4.813-1.233-9-.587-12.438,1.921-3.577,2.607-6.269,7.117-8,13.405-.188.682-.354,1.347-.5,1.986-.777-9.8-3.887-28.242-16.02-41.121-8.746-9.283-20.644-14.159-35.367-14.493-18.309-.4-29.9,8.113-36.4,15.342a52.725,52.725,0,0,0-9.039,13.981c-.927-3.534-3.484-10.719-9.621-14.887-4.463-3.033-9.952-3.849-16.312-2.422C35.333,180.6,35.916,207.8,36.324,213.966c-3.323-1.827-13.6-6.594-22.524-1.437C3.5,218.482-1.072,235.369.212,262.721a.637.637,0,0,0,.636.607" transform="translate(106.595 -59.488)" fill="#3c3fa7"/>
          <path id="Path_183470" data-name="Path 183470" d="M434.827,288.469h.022a.636.636,0,0,0,.615-.658,80.835,80.835,0,0,0-2.675-16.891c-3.192-11.309-8.674-17.481-15.852-17.849a5.067,5.067,0,0,0-3.874,1.448c-1.893,1.8-2.8,4.978-3.231,7.64-1.929-8.937-7.1-28.271-16.073-30.362-9.9-2.309-13.978,7.572-15,10.685-2.452-1.777-10.325-6.863-16.24-3.655-7.91,4.288-8,20.877-8,21.581a.637.637,0,0,0,1.274,0c0-.165.089-16.533,7.334-20.461,6.2-3.363,15.488,4.018,15.582,4.093a.638.638,0,0,0,1.019-.347,20.672,20.672,0,0,1,2.978-6.347c2.79-3.874,6.411-5.324,10.766-4.31,10.643,2.481,15.921,33.466,15.973,33.779a.637.637,0,0,0,1.265-.106c0-.082.027-8.219,3.235-11.269a3.762,3.762,0,0,1,2.929-1.1c16.056.823,17.308,33.182,17.319,33.509a.637.637,0,0,0,.636.616" transform="translate(-354.518 -83.992)" fill="#3c3fa7"/>
        </g>
      </g>
      <g id="Group_175031" data-name="Group 175031" transform="translate(24.156)">
        <g id="Group_175014" data-name="Group 175014">
          <g id="Group_175013" data-name="Group 175013" clip-path="url(#clip-path-3)">
            <path id="Path_183351" data-name="Path 183351" d="M148.983,13.89S153.3.336,135.263.907Z" transform="translate(21.904 0.145)"/>
            <path id="Path_183352" data-name="Path 183352" d="M137.046,39.209c.547-1.113-2.385,15.8-2.385,15.8l-19.847.25,5.276-26.106Z" transform="translate(18.593 4.722)" fill="#ed8c6b"/>
            <path id="Path_183353" data-name="Path 183353" d="M120.963,29.962l15.375,9.115c.26-.529-.267,3.022-.891,6.891L119.188,31.642Z" transform="translate(19.301 4.853)"/>
            <path id="Path_183354" data-name="Path 183354" d="M140.641,2.078s14.079,5,14.879,21.012-3.112,23.9-19.082,22.572c-14.227-1.187-19.076-12.241-19.076-12.241l1.1-15.866,7.18-15.134Z" transform="translate(19.005 0.338)" fill="#ed8c6b"/>
            <path id="Path_183355" data-name="Path 183355" d="M139.03,21.037S134.5,13.1,126.093,19.869c0,0,6.1,8.265,12.937,1.169" transform="translate(20.419 2.776)" fill="#fff"/>
            <path id="Path_183356" data-name="Path 183356" d="M142.109,20.634s1.294-8.725,8.752-5.832c0,0-.668,9.379-8.752,5.832" transform="translate(23.013 2.303)" fill="#fff"/>
            <path id="Path_183357" data-name="Path 183357" d="M141.757,25.362a.78.78,0,0,1-.673-1.179l2.071-3.5-2.858.36a.781.781,0,0,1-.2-1.55l4.439-.56a.775.775,0,0,1,.752.346.786.786,0,0,1,.02.827l-2.882,4.872a.781.781,0,0,1-.673.383" transform="translate(22.577 3.066)"/>
            <path id="Path_183358" data-name="Path 183358" d="M129.2,13.376a.781.781,0,0,1-.38-1.464,11.947,11.947,0,0,1,7.6-1.707.779.779,0,0,1,.613.918.791.791,0,0,1-.913.616,10.674,10.674,0,0,0-6.539,1.538.785.785,0,0,1-.38.1" transform="translate(20.796 1.639)"/>
            <path id="Path_183359" data-name="Path 183359" d="M142.131,11.174a.781.781,0,0,1-.579-1.3,5.512,5.512,0,0,1,5.175-1.628.781.781,0,1,1-.412,1.507,3.9,3.9,0,0,0-3.609,1.174.784.784,0,0,1-.575.252" transform="translate(22.89 1.309)"/>
            <path id="Path_183360" data-name="Path 183360" d="M125.828,8.58c-1.027-6.165,23.325,2.75,18.023-7.348,0,0-15.666-4.157-25.172,2.8s-14.982,23.548,1.6,35.25l.2-9.3s7.72-7.227,5.358-21.4" transform="translate(17.755 0.001)"/>
            <path id="Path_183361" data-name="Path 183361" d="M122.946,23.6c-2.789-2.484-6.721-2.421-8.783.142s-1.472,6.654,1.316,9.139,6.721,2.421,8.783-.141,1.472-6.656-1.316-9.14" transform="translate(18.288 3.528)" fill="#ed8c6b"/>
            <path id="Path_183362" data-name="Path 183362" d="M121.441,28.785a.791.791,0,0,1-.223-.033l-5.949-1.771a.782.782,0,1,1,.445-1.5l5.95,1.772a.781.781,0,0,1-.223,1.53" transform="translate(18.576 4.123)"/>
            <path id="Path_183363" data-name="Path 183363" d="M118.112,31.277a.783.783,0,0,1-.74-1.032l.97-2.873a.788.788,0,0,1,.991-.489.779.779,0,0,1,.489.99l-.97,2.873a.782.782,0,0,1-.74.531" transform="translate(19 4.348)"/>
          </g>
        </g>
        <g id="Group_175016" data-name="Group 175016" transform="translate(146.512 19.914)">
          <g id="Group_175015" data-name="Group 175015" transform="translate(0)" clip-path="url(#clip-path-4)">
            <path id="Path_183364" data-name="Path 183364" d="M125.829,21.849a4.571,4.571,0,1,0,3.965-5.107,4.571,4.571,0,0,0-3.965,5.107" transform="translate(-126.142 -17.208)"/>
          </g>
        </g>
        <g id="Group_175018" data-name="Group 175018" transform="translate(165.12 16.517)">
          <g id="Group_175017" data-name="Group 175017" transform="translate(0)" clip-path="url(#clip-path-5)">
            <path id="Path_183366" data-name="Path 183366" d="M140.694,19.72c.351,2.785,2.579,4.8,4.978,4.5s4.059-2.8,3.708-5.59-2.579-4.8-4.978-4.5-4.059,2.8-3.708,5.59" transform="translate(-142.345 -14.232)"/>
          </g>
        </g>
        <g id="Group_175020" data-name="Group 175020">
          <g id="Group_175019" data-name="Group 175019" clip-path="url(#clip-path-3)">
            <path id="Path_183368" data-name="Path 183368" d="M136.454,28.336c.358-.512,2.871-1.119,6.09.088s2.735,2.555-.149,2.71c-1.672.091-6.841-1.511-5.941-2.8" transform="translate(22.08 4.49)"/>
          </g>
        </g>
        <g id="Group_175022" data-name="Group 175022" transform="translate(158.429 32.211)">
          <g id="Group_175021" data-name="Group 175021" transform="translate(0)" clip-path="url(#clip-path-7)">
            <path id="Path_183369" data-name="Path 183369" d="M147.013,30.322A31.006,31.006,0,0,0,137.15,28.3c-4.934-.034.927,4.142.927,4.142l7.6,1.83Z" transform="translate(-136.539 -27.627)" fill="#fd521b"/>
          </g>
        </g>
        <g id="Group_175024" data-name="Group 175024">
          <g id="Group_175023" data-name="Group 175023" clip-path="url(#clip-path-3)">
            <path id="Path_183371" data-name="Path 183371" d="M175.091,297.3l28.656,59.474,56.922-46.942-7.012-9.644a10.56,10.56,0,0,0-14.589-2.446l-22.1,15.439L200,285.668Z" transform="translate(28.354 46.261)" fill="#5774cd"/>
            <path id="Path_183372" data-name="Path 183372" d="M100.216,277.739,58.784,316.822l15.65,31.722a10.8,10.8,0,0,0,9.682,6.02h38.577l-.672-13.755a11.629,11.629,0,0,0-9.983-10.9L101.391,328.4,96.359,318l26.167-22.981Z" transform="translate(9.519 44.977)" fill="#5774cd"/>
            <path id="Path_183373" data-name="Path 183373" d="M210.151,302.121,200,285.667,175.09,297.3l10.43,21.645Z" transform="translate(28.353 46.261)" fill="#ed8c6b"/>
            <path id="Path_183374" data-name="Path 183374" d="M97.747,313.689l21.262-18.672L96.7,277.74,80.5,293.016Z" transform="translate(13.037 44.977)" fill="#ed8c6b"/>
            <path id="Path_183375" data-name="Path 183375" d="M209.285,318.252a.659.659,0,0,1-.066,0,.453.453,0,0,1-.385-.515l2.118-14.827a.454.454,0,0,1,.834-.179l6.242,9.907,1.09-12.126a.456.456,0,0,1,.837-.206l4.69,7.262a.455.455,0,1,1-.763.494l-3.974-6.152-1.092,12.15a.457.457,0,0,1-.347.4.461.461,0,0,1-.492-.2l-6.3-10-1.943,13.6a.455.455,0,0,1-.448.39" transform="translate(33.817 48.597)"/>
            <path id="Path_183376" data-name="Path 183376" d="M209.834,290.417l-2.929-4.75-31.814,14.852,6.515,13.524Z" transform="translate(28.354 46.261)"/>
            <path id="Path_183377" data-name="Path 183377" d="M103.462,314.05,118.774,300.6,89.252,277.74,81.231,285.3Z" transform="translate(13.154 44.977)"/>
            <path id="Path_183378" data-name="Path 183378" d="M196.783,347.338a.454.454,0,0,1-.282-.811l56.637-44.866a.455.455,0,1,1,.565.713l-56.637,44.865a.445.445,0,0,1-.282.1" transform="translate(31.793 48.835)"/>
            <path id="Path_183379" data-name="Path 183379" d="M206.629,322.254a7.13,7.13,0,1,1-7.13-7.13,7.129,7.129,0,0,1,7.13,7.13" transform="translate(31.152 51.031)" fill="#fff"/>
            <path id="Path_183380" data-name="Path 183380" d="M85.42,307.846a6.88,6.88,0,1,1-6.88-6.88,6.88,6.88,0,0,1,6.88,6.88" transform="translate(11.604 48.738)" fill="#fff"/>
            <path id="Path_183381" data-name="Path 183381" d="M121.867,345.182H87.727A11.31,11.31,0,0,1,77.64,338.9L62.422,307.887a.44.44,0,1,1,.789-.388l15.218,31.009a10.424,10.424,0,0,0,9.3,5.8h34.14a.439.439,0,1,1,0,.878" transform="translate(10.101 49.757)"/>
            <path id="Path_183382" data-name="Path 183382" d="M150.636,115.924l77.349,195.555L179.33,336.43,104.164,128.711Z" transform="translate(16.868 18.773)" fill="#fc5f65"/>
            <path id="Path_183383" data-name="Path 183383" d="M101.054,136.757s12.219,61.333,10.292,91.071c-2.882,44.489-34.2,76.954-34.2,76.954l44.671,35.747s47.744-57.417,46.089-109.469c-2.118-66.575-10.4-88.688-10.4-88.688l2.556-4.585L149.97,110.539,98,122.48Z" transform="translate(12.493 17.901)" fill="#fc5f65"/>
            <path id="Path_183384" data-name="Path 183384" d="M166.655,299.246a.581.581,0,0,1-.267-1.1l46.031-23.706a.58.58,0,0,1,.53,1.033l-46.029,23.7a.575.575,0,0,1-.265.065" transform="translate(26.893 44.433)"/>
            <path id="Path_183385" data-name="Path 183385" d="M92.774,318.124a.581.581,0,0,1-.474-.917c.375-.529,37.521-53.454,40.4-97.055,1.5-22.79-4.069-50.286-9.01-69.34-5.358-20.665-11.148-36.13-11.206-36.285a.58.58,0,1,1,1.086-.408c.058.155,5.868,15.665,11.242,36.388,4.964,19.141,10.562,46.773,9.047,69.721-2.9,43.932-40.234,97.118-40.611,97.65a.578.578,0,0,1-.474.245" transform="translate(14.929 18.42)"/>
            <path id="Path_183386" data-name="Path 183386" d="M127.556,305.106a.577.577,0,0,1-.37-.132l-43.5-35.9a.581.581,0,0,1,.74-.9l43.5,35.9a.581.581,0,0,1-.369,1.03" transform="translate(13.518 43.406)"/>
            <path id="Path_183387" data-name="Path 183387" d="M132.539,49.023s26.091,16.2,29.1,52.6c2.473,29.892-15.051,29.285-24.409,30.956-10.747,1.918-38.225,7.442-38.225,7.442l4-83.2Z" transform="translate(16.033 7.94)" fill="#c4d1ff"/>
            <path id="Path_183388" data-name="Path 183388" d="M141.831,60.739s4.006-6.646-1.724-12.377c-3.836-3.836-24.305-14.07-36.072-6.334s-9.127,18.45-2.065,21.84,39.861-3.129,39.861-3.129" transform="translate(15.536 6.351)" fill="#c4d1ff"/>
            <path id="Path_183389" data-name="Path 183389" d="M121.308,151.988l-1.055,40.753s9.71,13.087,6.611,24.944-6.89,3.077-6.89,3.077-18.486-6.33-21.32-12.492c-.948-2.061,3.267-11.908,3.32-16.129.036-2.83-1.366-33.793-1.366-33.793Z" transform="translate(15.953 24.613)" fill="#ed8c6b"/>
            <path id="Path_183390" data-name="Path 183390" d="M118.672,216.847l3.552-11.869a3.776,3.776,0,0,0-2.611-4.667A3.691,3.691,0,0,0,114.929,203l-2.688,12.1a3.344,3.344,0,0,0,2.595,3.953,3.253,3.253,0,0,0,3.836-2.21" transform="translate(18.164 32.413)" fill="#ed8c6b"/>
            <path id="Path_183391" data-name="Path 183391" d="M106.246,214.267l3.415-14.427a3.407,3.407,0,0,1,3.488-2.578l.34.013a3.524,3.524,0,0,1,3.357,4.326l-3.757,14.414a3.435,3.435,0,0,1-4.032,2.441,3.507,3.507,0,0,1-2.812-4.189" transform="translate(17.191 31.945)" fill="#ed8c6b"/>
            <path id="Path_183392" data-name="Path 183392" d="M103.969,214.343h0a2.964,2.964,0,0,0,3.341-2.175l2.627-9.5a3.265,3.265,0,0,0-1.8-3.836l-.725-.321a2.973,2.973,0,0,0-4.143,2.2l-1.9,9.825a3.246,3.246,0,0,0,2.606,3.815" transform="translate(16.405 32.104)" fill="#ed8c6b"/>
            <path id="Path_183393" data-name="Path 183393" d="M100.1,210.429h0a2.571,2.571,0,0,0,2.524-1.86l2.016-7.89a2.424,2.424,0,0,0-1.9-2.914l-.871-.207a2.6,2.6,0,0,0-3.229,2.029l-1.146,8.1a2.5,2.5,0,0,0,2.6,2.746" transform="translate(15.784 31.981)" fill="#ed8c6b"/>
            <path id="Path_183394" data-name="Path 183394" d="M107.93,203.715a.4.4,0,0,1,.512-.247.438.438,0,0,1,.264.539c-.149.471-1.627,6.159-2.387,9.1a.4.4,0,0,1-.5.286.435.435,0,0,1-.29-.524c.089-.349,2.205-8.534,2.4-9.144l0-.01" transform="translate(17.087 32.946)"/>
            <path id="Path_183395" data-name="Path 183395" d="M113.619,205.293a.4.4,0,0,1,.512-.245.434.434,0,0,1,.263.539c-.166.521-1.737,7.126-2.545,10.547a.4.4,0,0,1-.494.3.436.436,0,0,1-.3-.517c.1-.406,2.345-9.926,2.562-10.61l0-.01" transform="translate(17.982 33.202)"/>
            <path id="Path_183396" data-name="Path 183396" d="M102.8,201.59a.4.4,0,0,1,.522-.244.437.437,0,0,1,.251.545c-.208.609-1.328,5.489-1.89,7.985a.4.4,0,0,1-.492.3.435.435,0,0,1-.307-.515c.067-.3,1.641-7.269,1.916-8.072h0" transform="translate(16.334 32.602)"/>
            <path id="Path_183397" data-name="Path 183397" d="M121.041,203.8c.131-.38.389-.651.6-.62.229.035.318.408.2.834l-2.935,10.532c-.117.425-.4.744-.629.709s-.318-.408-.2-.833l2.935-10.531q.012-.045.028-.091" transform="translate(19.113 32.903)"/>
            <path id="Path_183398" data-name="Path 183398" d="M114.763,214.066s17.7-2.294,20.263-22.805,15.5-83.8,11.394-111.372c-3.044-20.418-12.773-31.1-27.251-29.268-16.853,2.133-19.814,21.43-23.465,56.311-4.161,39.761-4.267,62.412-5.094,75.97-1.58,25.9,15.281,29.519,15.281,29.519Z" transform="translate(14.656 8.166)" fill="#c4d1ff"/>
            <path id="Path_183399" data-name="Path 183399" d="M140.524,59.5a.577.577,0,0,1-.365-.129c-.206-.166-20.709-16.4-35.145-1.47a.581.581,0,1,1-.834-.808c15.177-15.7,36.5,1.2,36.709,1.373a.581.581,0,0,1-.365,1.033" transform="translate(16.844 8.167)"/>
            <path id="Path_183400" data-name="Path 183400" d="M148.86,271.071a.6.6,0,0,1-.2-.035.581.581,0,0,1-.347-.745c5.651-15.536,8.306-29.98,7.893-42.931-2.09-65.719-10.281-88.283-10.363-88.5a.581.581,0,0,1,.037-.487l2.556-4.584a.58.58,0,1,1,1.014.565l-2.43,4.357c.91,2.681,8.369,26.443,10.347,88.615.417,13.1-2.262,27.689-7.963,43.365a.582.582,0,0,1-.546.382" transform="translate(23.611 21.618)"/>
            <path id="Path_183401" data-name="Path 183401" d="M138.113,132.126h-.038a.581.581,0,0,1-.543-.617c.027-.426,2.729-42.665,1.349-55.886C137.58,63.157,131.442,55.29,127.7,53.9a.582.582,0,0,1,.407-1.09c4.13,1.538,10.562,9.6,11.927,22.695,1.392,13.317-1.318,55.653-1.344,56.08a.581.581,0,0,1-.579.544" transform="translate(20.618 8.547)"/>
            <path id="Path_183402" data-name="Path 183402" d="M136.807,109.393S148.7,97.149,157.954,97.15c5.533,0,9.255-.1,11.354-.175a2.932,2.932,0,0,0,2.546-2.568,2.2,2.2,0,0,0-1.414-2.661,40.7,40.7,0,0,0-17.825,0c-8.5,2.01-21.447,13.1-21.447,13.1Z" transform="translate(21.241 14.697)" fill="#ed8c6b"/>
            <path id="Path_183403" data-name="Path 183403" d="M143.76,102.58s10.041-10.317,19.3-10.317c5.957,0,9.816-.112,11.809-.192a2.3,2.3,0,0,0,1.994-2.016,2.718,2.718,0,0,0-1.772-3.3,40.658,40.658,0,0,0-17.37.1c-8.5,2.01-21.448,13.1-21.448,13.1Z" transform="translate(22.067 13.906)" fill="#ed8c6b"/>
            <path id="Path_183404" data-name="Path 183404" d="M146.348,98.568s10.041-10.318,19.3-10.317c5.961,0,9.82-.112,11.812-.193a2.3,2.3,0,0,0,1.989-2.011,2.72,2.72,0,0,0-1.773-3.3,40.63,40.63,0,0,0-17.367.1c-8.5,2.01-21.448,13.1-21.448,13.1Z" transform="translate(22.486 13.256)" fill="#ed8c6b"/>
            <path id="Path_183405" data-name="Path 183405" d="M132.665,110.976S154.594,85.332,163.3,83.738c5.61-1.027,10.968-1.265,12.832-1.685a2.4,2.4,0,0,0,1.658-2.243,2.552,2.552,0,0,0-1.981-2.939c-3.869-.383-12.231-.718-19.36,2.363-7.783,3.365-28.982,24.8-28.982,24.8Z" transform="translate(20.642 12.41)" fill="#ed8c6b"/>
            <path id="Path_183406" data-name="Path 183406" d="M154.259,84.732l5.424-8.526a4.189,4.189,0,0,0-.552-5.308,2.471,2.471,0,0,0-3.571.505c-1.73,2.1-22.727,22.811-22.727,22.811l-9.7,14.508,26.848-12.306Z" transform="translate(19.939 11.393)" fill="#ed8c6b"/>
            <path id="Path_183407" data-name="Path 183407" d="M150.742,92.006a.469.469,0,0,0-.027.2c.017.2.16.321.318.279a38.005,38.005,0,0,1,16.568-.668.378.378,0,0,0,.155-.716,38.471,38.471,0,0,0-16.784.674.36.36,0,0,0-.23.234" transform="translate(24.406 14.654)"/>
            <path id="Path_183408" data-name="Path 183408" d="M150.645,88.424a.438.438,0,0,0-.013.273.284.284,0,0,0,.4.213,23.3,23.3,0,0,1,4.41-1.614,42.358,42.358,0,0,1,17.622-.213,2.344,2.344,0,0,1,1.223.93.277.277,0,0,0,.444.023.444.444,0,0,0,.048-.537,2.935,2.935,0,0,0-1.567-1.165,42.938,42.938,0,0,0-17.852.217,23.884,23.884,0,0,0-4.522,1.653.385.385,0,0,0-.188.22" transform="translate(24.39 13.846)"/>
            <path id="Path_183409" data-name="Path 183409" d="M150.758,84.445a.363.363,0,0,0,0,.252.282.282,0,0,0,.382.172,25.411,25.411,0,0,1,6.091-2.155,38.134,38.134,0,0,1,8.565-.457.3.3,0,0,0,.3-.314.316.316,0,0,0-.282-.338,38.616,38.616,0,0,0-8.681.465,26,26,0,0,0-6.223,2.2.315.315,0,0,0-.153.177" transform="translate(24.41 13.207)"/>
            <path id="Path_183410" data-name="Path 183410" d="M148.152,80.874a.449.449,0,0,0,0,.316.277.277,0,0,0,.418.15c1-.641,6.445-2.74,6.5-2.761a.425.425,0,0,0,.229-.479.291.291,0,0,0-.383-.244c-.228.087-5.562,2.141-6.614,2.818a.4.4,0,0,0-.152.2" transform="translate(23.987 12.606)"/>
            <path id="Path_183411" data-name="Path 183411" d="M142.639,91.921c-.008.051-.013.1-.017.153-.006.1.124.22.3.257s.314-.021.323-.124c0-.048.008-.1.015-.143.429-3.32,6.857-5.317,6.924-5.337.135-.042.156-.158.052-.261a.486.486,0,0,0-.433-.114,20.02,20.02,0,0,0-3.473,1.494c-1.565.867-3.453,2.269-3.686,4.075" transform="translate(23.096 13.982)"/>
            <path id="Path_183412" data-name="Path 183412" d="M71.312,282.183a.436.436,0,0,1-.261-.785l5.14-3.839-9.423-3a.436.436,0,0,1-.064-.805l4.364-2.188L51.936,253.222a.435.435,0,0,1-.087-.51.441.441,0,0,1,.461-.234l25.229,4.3-19.3-13.04a.436.436,0,1,1,.488-.722L79.7,257.182a.437.437,0,0,1,.16.524.445.445,0,0,1-.478.267l-25.816-4.4,18.553,17.792a.435.435,0,0,1-.106.7l-3.96,1.983,9.211,2.928a.436.436,0,0,1,.129.766L71.574,282.1a.44.44,0,0,1-.261.086" transform="translate(8.389 39.342)"/>
            <path id="Path_183413" data-name="Path 183413" d="M88.028,18.243S92.42,4.365,76.676,6.348Z" transform="translate(12.417 0.998)" fill="#ffb6c8"/>
            <path id="Path_183414" data-name="Path 183414" d="M48.982,31.233C47.377,18.49,53.413,8.289,64.816,5.187c19.467-5.295,29.059,5.9,30.663,18.643s-5.319,28.559-17.137,28.6c-14.984.045-27.756-8.451-29.361-21.193" transform="translate(7.891 0.623)" fill="#ffb6c8"/>
            <path id="Path_183415" data-name="Path 183415" d="M51.984,258.655l-23.207,9.731L21.2,252.548l26.032-14.439Z" transform="translate(3.432 38.56)" fill="#ed8c6b"/>
            <path id="Path_183416" data-name="Path 183416" d="M34.7,243.113l8.529,22.674,12.856-5.39-3.259-14.076-9.1-8.213Z" transform="translate(5.619 38.559)"/>
            <path id="Path_183417" data-name="Path 183417" d="M97.722,309.111l6.929,25.4-18.405,5.47L76.117,311.221Z" transform="translate(12.326 50.057)" fill="#ed8c6b"/>
            <path id="Path_183418" data-name="Path 183418" d="M91.56,140.907s37.565,78.546,31.815,97.919c-7.616,25.661-65.255,50.38-65.255,50.38l-25.5-40.534,39.043-26.114-13.4-20.615,19.128-71.33Z" transform="translate(5.283 21.152)" fill="#ffd947"/>
            <path id="Path_183419" data-name="Path 183419" d="M105.906,321.62l-3.413-12.509-26.376,2.576,4.734,13.44c7.047.31,16.537-.152,25.055-3.507" transform="translate(12.326 50.057)"/>
            <path id="Path_183420" data-name="Path 183420" d="M34.012,160s-18.568,14.363-27.886-4.808,1.5-64.8,8.552-77.575C25.821,57.432,45.99,61.786,45.99,61.786Z" transform="translate(0.406 9.943)"/>
            <path id="Path_183421" data-name="Path 183421" d="M75.647,66.886S80.731,55.9,73.011,50.959s-8.088-1.76-8.088-1.76Z" transform="translate(10.513 7.805)" fill="#fd521b"/>
            <path id="Path_183422" data-name="Path 183422" d="M71.051,56.233a13.008,13.008,0,0,1,13.676,8.239c4.149,9.76,15.512,46.084,15.512,46.084l42.994-23.792L156.9,113.549s-49.315,52.1-69.821,37.92S71.051,56.233,71.051,56.233" transform="translate(11.439 9.093)" fill="#fc5f65"/>
            <path id="Path_183423" data-name="Path 183423" d="M28.816,144.739s14.166,110.5,47.039,201.044c0,0,29.212,5.939,45.56-8.244L81.453,165.321l4.7-5.972L76.9,136.992Z" transform="translate(4.666 22.185)" fill="#ffd947"/>
            <path id="Path_183424" data-name="Path 183424" d="M89.549,81.119s10.691,71.676.7,80.2-64,.088-64.386-6.718,1.533-21.219,1.533-21.219l3.2-37.928L62.419,54.457l17.769,2.4Z" transform="translate(4.18 8.82)" fill="#fc5f65"/>
            <path id="Path_183425" data-name="Path 183425" d="M72.006,127.265,25.839,145.64l-.611-11.2L67.9,121.942Z" transform="translate(4.085 19.748)"/>
            <path id="Path_183426" data-name="Path 183426" d="M76.992,56.247s-17.881-8.369-42.6,10.4-46.123,60.494-27.075,69.065,60.017,5.4,60.017,5.4L73.4,117l-34.486-5.939,17.132-17.9Z" transform="translate(0 8.808)" fill="#fc5f65"/>
            <path id="Path_183427" data-name="Path 183427" d="M69.92,121.973,51.029,55.058l3.407-.69,20.34,65.947Z" transform="translate(8.263 8.805)"/>
            <path id="Path_183428" data-name="Path 183428" d="M77.112,52.024s-16.235-9.9-24.9-6.521-7.275,13.039-7.275,13.039,11.272-5.052,33.612,9.2Z" transform="translate(7.263 7.256)" fill="#fc5f65"/>
            <path id="Path_183429" data-name="Path 183429" d="M77.227,45.711l-2.071,9.678-1.548,7.233-6.755-7.372-8.481-5.958,2.955-12.859Z" transform="translate(9.453 5.901)" fill="#ed8c6b"/>
            <path id="Path_183430" data-name="Path 183430" d="M74.847,55.071l2-9.361-15.9-9.279L60.7,37.5Z" transform="translate(9.83 5.901)"/>
            <path id="Path_183431" data-name="Path 183431" d="M86.526,151.4a.436.436,0,0,1-.436-.43c-.007-.548-.768-55.04-4.78-70.521-1.606-6.2-7.138-20.454-7.194-20.6a.436.436,0,0,1,.813-.315c.055.144,5.606,14.446,7.224,20.693,4.038,15.583,4.8,70.18,4.808,70.728a.436.436,0,0,1-.43.442Z" transform="translate(11.997 9.597)"/>
            <path id="Path_183432" data-name="Path 183432" d="M44.159,136.651c-6.1,0-12.594-.165-17.7-.695a.436.436,0,1,1,.091-.867c12.5,1.3,33.381.4,36.221.263l5.874-23.344-34.024-5.86a.434.434,0,0,1-.241-.73l17.132-17.9a.435.435,0,1,1,.629.6L35.571,105.428l33.681,5.8a.433.433,0,0,1,.347.536l-6.066,24.114a.437.437,0,0,1-.4.329c-.143.007-9.034.444-18.973.444" transform="translate(4.221 14.151)"/>
            <path id="Path_183433" data-name="Path 183433" d="M35.4,103.874a.375.375,0,0,1-.05,0l-13.282-1.537a.434.434,0,0,1-.382-.482.429.429,0,0,1,.482-.382l13.282,1.537a.435.435,0,0,1-.05.868" transform="translate(3.511 16.432)"/>
            <path id="Path_183434" data-name="Path 183434" d="M72.952,62.609a.436.436,0,0,1-.256-.79,7.5,7.5,0,0,0,2.819-5.182.435.435,0,0,1,.869.045,8.237,8.237,0,0,1-3.178,5.846.441.441,0,0,1-.254.081" transform="translate(11.743 9.106)"/>
            <path id="Path_183435" data-name="Path 183435" d="M77.481,64.014a.463.463,0,0,1-.153-.027,167.034,167.034,0,0,0-17.928-5.1c-9.837-2.308-14.193-.409-14.236-.388A.436.436,0,0,1,44.8,57.7c.182-.084,4.623-2.055,14.8.332,8.849,2.075,14.887,4.046,17.1,4.806-4.691-10.49-16.661-14.4-16.785-14.444a.436.436,0,0,1,.264-.831c.131.042,13.167,4.3,17.71,15.853a.435.435,0,0,1-.406.595" transform="translate(7.214 7.701)"/>
            <path id="Path_183436" data-name="Path 183436" d="M75.811,107.556,63.97,104.3a3.593,3.593,0,0,0-4.433,2.768,3.853,3.853,0,0,0,2.9,4.656L74.463,114.1a3.187,3.187,0,0,0,3.731-2.732,3.4,3.4,0,0,0-2.383-3.812" transform="translate(9.625 16.87)" fill="#ed8c6b"/>
            <path id="Path_183437" data-name="Path 183437" d="M74.279,120.271l-14.342-3.047a3.547,3.547,0,0,1-2.725-3.45l-.007-.345a3.38,3.38,0,0,1,4.054-3.511l14.349,3.393a3.588,3.588,0,0,1,2.621,4,3.343,3.343,0,0,1-3.951,2.957" transform="translate(9.263 17.787)" fill="#ed8c6b"/>
            <path id="Path_183438" data-name="Path 183438" d="M73.538,121.883h0a3.094,3.094,0,0,0-2.322-3.314l-9.47-2.39a3.094,3.094,0,0,0-3.66,1.93l-.273.74a3.094,3.094,0,0,0,2.387,4.123l9.743,1.649a3.094,3.094,0,0,0,3.6-2.738" transform="translate(9.331 18.799)" fill="#ed8c6b"/>
            <path id="Path_183439" data-name="Path 183439" d="M70.358,125.975h0a2.68,2.68,0,0,0-1.966-2.5l-7.852-1.817a2.311,2.311,0,0,0-2.751,2l-.153.885a2.706,2.706,0,0,0,2.171,3.206l8.007.931a2.408,2.408,0,0,0,2.546-2.7" transform="translate(9.326 19.693)" fill="#ed8c6b"/>
            <path id="Path_183440" data-name="Path 183440" d="M60.177,109.739l.01-.013a.3.3,0,0,1,.419-.035,5.345,5.345,0,0,0,1.933.858l12.7,2.661a5.09,5.09,0,0,1,2.926,2.125,3.336,3.336,0,0,1,.157,2.724c-1.224,3.729-6.575,2.287-6.909,2.193l-7.593-1.468c-.572-.112-3.647-.859-4.422-1.105a.3.3,0,0,1,.18-.567c.762.243,3.793.978,4.355,1.088l7.606,1.471a.133.133,0,0,1,.029.007c.051.015,5.113,1.478,6.19-1.8a2.765,2.765,0,0,0-.115-2.255,4.542,4.542,0,0,0-2.54-1.83l-12.68-2.657a5.876,5.876,0,0,1-2.2-.985.3.3,0,0,1-.045-.407" transform="translate(9.585 17.753)"/>
            <path id="Path_183441" data-name="Path 183441" d="M58.635,122.251a.3.3,0,0,1,.328-.1c.753.239,5.419,1.107,6.2,1.219.736.106,3.122.543,3.223.561.044.008,4.493.768,5.024-2.1a2.274,2.274,0,0,0-1.243-2.467,5.768,5.768,0,0,0-1.689-.676.3.3,0,1,1,.115-.583c1.372.27,3.85,1.418,3.4,3.834-.511,2.764-3.962,2.9-5.717,2.582-.026,0-2.477-.453-3.2-.558s-5.48-.981-6.3-1.242a.3.3,0,0,1-.148-.462" transform="translate(9.485 19.124)"/>
            <path id="Path_183442" data-name="Path 183442" d="M62.857,103.926a.3.3,0,0,1,.309-.109c.077.02,7.654,1.915,10.73,2.714,3.242.844,4.839,2.742,4.383,5.209-.545,2.952-3.654,3-3.686,3a.3.3,0,0,1,0-.595,3.161,3.161,0,0,0,3.1-2.512c.4-2.151-1-3.759-3.948-4.525-3.073-.8-10.648-2.695-10.725-2.712a.3.3,0,0,1-.216-.361.308.308,0,0,1,.051-.108" transform="translate(10.169 16.811)"/>
            <path id="Path_183443" data-name="Path 183443" d="M55.975,31.285C54.382,18.634,58.959,10.12,70.238,7.841,84.165,5.025,94.3,14.094,95.89,26.744s-3.1,26.239-14.611,26.246c-14.588.009-23.71-9.054-25.3-21.7" transform="translate(9.015 1.187)" fill="#ed8c6b"/>
            <path id="Path_183444" data-name="Path 183444" d="M90.094,28.094S88.3,17.836,77.5,23.38c0,0,4.742,6.464,12.6,4.714" transform="translate(12.549 3.521)" fill="#fff"/>
            <path id="Path_183445" data-name="Path 183445" d="M95.945,25.034,89.969,27.2l-.328,8.2Z" transform="translate(14.516 4.055)" fill="#ed8c6b"/>
            <path id="Path_183446" data-name="Path 183446" d="M70.392,7.869c-11.279,2.28-17,10.7-15.411,23.356.6,4.74,2.672,12.4,5.275,15.845l6.19-17.864c7.924.588,8.866-10.021,8.866-10.021,8.759-.5,8.726-7.377,7.931-10.926-3.679-1.474-8.1-1.351-12.851-.392" transform="translate(8.861 1.159)" fill="#ffb6c8"/>
            <path id="Path_183447" data-name="Path 183447" d="M79.844,18.678c.32.736,2.055.689,3.877-.106s3.037-2.033,2.717-2.769-2.055-.689-3.879.1-3.036,2.035-2.715,2.77" transform="translate(12.921 2.476)"/>
          </g>
        </g>
        <g id="Group_175026" data-name="Group 175026" transform="translate(90.044 25.257)">
          <g id="Group_175025" data-name="Group 175025" transform="translate(0)" clip-path="url(#clip-path-9)">
            <path id="Path_183448" data-name="Path 183448" d="M91.225,24.968c.356,2.819-1.366,5.357-3.845,5.669s-4.776-1.72-5.131-4.539,1.366-5.358,3.845-5.669,4.776,1.72,5.131,4.539" transform="translate(-76.733 -21.953)"/>
          </g>
        </g>
        <g id="Group_175028" data-name="Group 175028">
          <g id="Group_175027" data-name="Group 175027" clip-path="url(#clip-path-3)">
            <path id="Path_183450" data-name="Path 183450" d="M68.91,26.294c-1.894-3.22-5.768-4.455-8.651-2.758s-3.686,5.682-1.791,8.9,5.768,4.454,8.651,2.757,3.685-5.682,1.791-8.9" transform="translate(9.302 3.689)" fill="#ed8c6b"/>
            <path id="Path_183451" data-name="Path 183451" d="M65.651,30.639a.608.608,0,0,1-.345-.108l-5.232-3.6a.607.607,0,1,1,.689-1L66,29.532a.608.608,0,0,1-.345,1.107" transform="translate(9.686 4.183)"/>
            <path id="Path_183452" data-name="Path 183452" d="M61.684,31.808a.6.6,0,0,1-.385-.137.608.608,0,0,1-.085-.855l1.918-2.344a.607.607,0,1,1,.94.769l-1.92,2.344a.6.6,0,0,1-.469.223" transform="translate(9.891 4.576)"/>
            <path id="Path_183453" data-name="Path 183453" d="M83.664,334.775,83.475,356.6A2.751,2.751,0,0,0,86.7,359.33l58.083-10.143a4.179,4.179,0,0,0,3.381-4.93l-.907-4.579a11.641,11.641,0,0,0-12.765-9.3l-19.142,2.227-12.637-3.995Z" transform="translate(13.518 53.215)" fill="#d7e5ff"/>
            <path id="Path_183454" data-name="Path 183454" d="M112.532,336.7a.356.356,0,0,1-.357-.354l-.043-5.255-6.549,4.769a.354.354,0,0,1-.4.015.361.361,0,0,1-.165-.364l.674-3.941L84.305,335.3a.357.357,0,0,1-.31-.608l15.07-14.573L81.1,326.535a.357.357,0,0,1-.239-.673l19.521-6.973a.358.358,0,0,1,.368.594L85.327,334.4l20.745-3.622a.357.357,0,0,1,.414.411l-.611,3.575,6.4-4.66a.356.356,0,0,1,.567.285l.048,5.95a.357.357,0,0,1-.354.36Z" transform="translate(13.056 51.637)"/>
            <path id="Path_183455" data-name="Path 183455" d="M97.78,320.531a.362.362,0,0,1-.274-.128.357.357,0,0,1-.058-.358c.088-.229,2.213-5.639,5.7-6.8a4.319,4.319,0,0,1,3.791.545c1.024.638,1.475,1.336,1.337,2.073-.5,2.675-9.415,4.469-10.43,4.664a.34.34,0,0,1-.069.007m6.683-6.793a3.444,3.444,0,0,0-1.089.18c-2.519.842-4.342,4.34-5,5.77,3.66-.773,8.909-2.4,9.2-3.959.077-.419-.263-.869-1.013-1.336a3.95,3.95,0,0,0-2.1-.655" transform="translate(15.776 50.69)"/>
            <path id="Path_183456" data-name="Path 183456" d="M108.677,325.359c-3.52,0-10.509-4.974-11.392-5.613a.357.357,0,0,1,.074-.62c.274-.11,6.747-2.695,10.615-.607a5.146,5.146,0,0,1,2.613,3.73c.275,1.392.046,2.338-.688,2.807a2.23,2.23,0,0,1-1.224.3m-10.421-5.8c2.964,2.069,9.429,6.07,11.26,4.9.461-.3.586-.991.369-2.067a4.447,4.447,0,0,0-2.248-3.241c-2.915-1.573-7.682-.174-9.381.411" transform="translate(15.73 51.449)"/>
            <path id="Path_183457" data-name="Path 183457" d="M83.548,351.969a.357.357,0,0,1-.062-.709l64.262-11.22a.351.351,0,0,1,.412.289.355.355,0,0,1-.289.413L83.609,351.963a.381.381,0,0,1-.062.006" transform="translate(13.472 55.065)"/>
            <path id="Path_183458" data-name="Path 183458" d="M28.5,247.173,6.561,249.162a2.778,2.778,0,0,0-2.426,3.513l15.994,57.35a4.219,4.219,0,0,0,5.291,2.9l4.511-1.37A11.753,11.753,0,0,0,38,297.805l-4.15-19.012L36.6,265.7Z" transform="translate(0.653 40.027)" fill="#d7e5ff"/>
            <path id="Path_183459" data-name="Path 183459" d="M27.8,276.716a.369.369,0,0,1-.04-.735l5.261-.566-5.436-6.091a.367.367,0,0,1-.057-.408.358.358,0,0,1,.357-.206l4.018.282-5.888-21.11a.369.369,0,0,1,.594-.38l16.118,13.662L34.5,243.788a.368.368,0,1,1,.666-.315l8.955,18.919a.369.369,0,0,1-.108.45.365.365,0,0,1-.462-.012l-16.5-13.989L32.754,269.3a.375.375,0,0,1-.069.332.359.359,0,0,1-.313.135l-3.633-.256,5.309,5.95a.369.369,0,0,1-.235.612l-5.975.643-.039,0" transform="translate(4.211 39.394)"/>
            <path id="Path_183460" data-name="Path 183460" d="M46.87,270.043c-.04,0-.081,0-.122,0-2.743-.232-5.439-9.019-5.738-10.021a.368.368,0,0,1,.452-.46c.239.066,5.89,1.662,7.411,5.053a4.37,4.37,0,0,1-.17,3.872c-.51,1.036-1.126,1.56-1.834,1.56m-4.946-9.565c1.143,3.6,3.3,8.691,4.886,8.825.419.048.841-.349,1.234-1.147a3.669,3.669,0,0,0,.158-3.243c-1.091-2.434-4.765-3.916-6.278-4.435" transform="translate(6.639 42.031)"/>
            <path id="Path_183461" data-name="Path 183461" d="M39.045,273.309a1.819,1.819,0,0,1-1.516-.648c-2.026-2.56,3.444-12.133,4.075-13.216a.39.39,0,0,1,.327-.184.372.372,0,0,1,.318.2c.139.264,3.382,6.512,1.671,10.612a5.2,5.2,0,0,1-3.492,3,4.812,4.812,0,0,1-1.383.237m2.85-12.887c-1.785,3.192-5.149,10.062-3.788,11.782.342.428,1.046.484,2.105.163a4.489,4.489,0,0,0,3.026-2.578c1.283-3.071-.582-7.7-1.343-9.366" transform="translate(6.005 41.985)"/>
            <path id="Path_183462" data-name="Path 183462" d="M26.666,312.51a.37.37,0,0,1-.356-.27L8.617,248.79a.368.368,0,1,1,.71-.2l17.7,63.45a.368.368,0,0,1-.257.453.321.321,0,0,1-.1.014" transform="translate(1.393 40.213)"/>
            <path id="Path_183463" data-name="Path 183463" d="M54.726,271.545a.436.436,0,0,1-.423-.332L43.091,225.137a.436.436,0,1,1,.847-.207l11.212,46.075a.436.436,0,0,1-.32.526.4.4,0,0,1-.1.013" transform="translate(6.976 36.371)"/>
            <path id="Path_183464" data-name="Path 183464" d="M96.671,259.637a.436.436,0,0,1-.425-.337L73.755,162.365a.437.437,0,0,1,.082-.368l4.7-5.972a.436.436,0,1,1,.684.54l-4.572,5.807L97.094,259.1a.436.436,0,0,1-.324.523.423.423,0,0,1-.1.012" transform="translate(11.942 25.24)"/>
            <path id="Path_183465" data-name="Path 183465" d="M79.794,34.249c-.138-3.047,10.878,1.415,8.739,3.585-2.489,2.527-8.589-.259-8.739-3.585" transform="translate(12.921 5.38)"/>
          </g>
        </g>
        <g id="Group_175030" data-name="Group 175030" transform="translate(92.713 38.597)">
          <g id="Group_175029" data-name="Group 175029" transform="translate(0)" clip-path="url(#clip-path-11)">
            <path id="Path_183466" data-name="Path 183466" d="M91.005,35.581s-8.243-1.95-12.349-.918-.748,6.891-.748,6.891L90.6,44.485l3.153-8.094Z" transform="translate(-80.306 -33.032)" fill="#fd521b"/>
          </g>
        </g>
      </g>
    </g>
  </g>
</svg>
