<svg xmlns="http://www.w3.org/2000/svg" xmlns:xlink="http://www.w3.org/1999/xlink" width="182" height="168.438" viewBox="0 0 182 168.438">
  <defs>
    <clipPath id="clip-path">
      <rect id="Rectangle_46125" data-name="Rectangle 46125" width="127.693" height="168.438" fill="none"/>
    </clipPath>
  </defs>
  <g id="_2" data-name="2" transform="translate(-299 -1150.562)">
    <rect id="Rectangle_45996" data-name="Rectangle 45996" width="182" height="137" rx="10" transform="translate(299 1182)" fill="#8284d2"/>
    <g id="Group_176190" data-name="Group 176190" transform="translate(326 1150.562)">
      <g id="Group_176189" data-name="Group 176189" clip-path="url(#clip-path)">
        <path id="Path_188752" data-name="Path 188752" d="M17.6,163.9s11.241-2.018,14.988,0,1.153,4.612-1.73,4.035-18.734-.288-18.734-.288Z" transform="translate(81.119 0)" fill="#dfbf30"/>
        <path id="Path_188753" data-name="Path 188753" d="M63.928,167.938H74.592s10.088-9.8,5.477-51.592a622.377,622.377,0,0,1-3.747-83.585c.288-8.935-12-27.754-26.612-23.922s-27,7.205-24.116,29.975S37.988,167.938,37.988,167.938Z" transform="translate(21.243 0)" fill="#fff"/>
        <path id="Path_188754" data-name="Path 188754" d="M38.487,26.492A13.618,13.618,0,1,0,52.106,12.873,13.619,13.619,0,0,0,38.487,26.492" transform="translate(23.482 0)" fill="#e3ba38"/>
        <path id="Path_188755" data-name="Path 188755" d="M23.932,167.938h83.3S88.206,143.727,89.07,124.7s3.955-61.968,16.677-72.344c0,0-17.227,9.333-24.432-4.213s-6.44-26.563-2.332-31.5c3.958-4.757,17-7.81,22.481,11.5s19.311,16.428,19.311,16.428,10.088-15.657,1.729-30.021S89.935-4.171,78.983,6.205,55.637,22.673,55.348,86.371s-31.416,81.567-31.416,81.567" transform="translate(-22.057 0)" fill="#49494b"/>
        <path id="Path_188756" data-name="Path 188756" d="M23.932,167.938h83.3S88.206,143.727,89.07,124.7s3.955-61.968,16.677-72.344c0,0-17.227,9.333-24.432-4.213s-6.44-26.563-2.332-31.5c3.958-4.757,17-7.81,22.481,11.5s19.311,16.428,19.311,16.428,10.088-15.657,1.729-30.021S89.935-4.171,78.983,6.205,55.637,22.673,55.348,86.371,23.932,167.938,23.932,167.938Z" transform="translate(-22.057 0)" fill="none" stroke="#000" stroke-miterlimit="10" stroke-width="1"/>
        <path id="Path_188757" data-name="Path 188757" d="M55.394,69.654s5.188,31.993,6.917,36.316,12.025,19.888,7.166,22.193-24.459-6.341-26.765-11.817" transform="translate(14.213 0)" fill="#49494b"/>
        <path id="Path_188758" data-name="Path 188758" d="M55.394,69.654s5.188,31.993,6.917,36.316,12.025,19.888,7.166,22.193-24.459-6.341-26.765-11.817" transform="translate(14.213 0)" fill="none" stroke="#000" stroke-miterlimit="10" stroke-width="1"/>
        <path id="Path_188759" data-name="Path 188759" d="M39.162,17.681s-3.947-4.856-5.468-2.341,0,6.244,0,6.244" transform="translate(55.512 0)" fill="none" stroke="#000" stroke-miterlimit="10" stroke-width="1"/>
        <path id="Path_188760" data-name="Path 188760" d="M87.332,43.953A2.132,2.132,0,0,0,85.068,45.5a2.709,2.709,0,0,0,.026,1.467c.186.565.887,1.808.756.5a3.909,3.909,0,0,1,1.482-3.52" transform="translate(-44.618 0)"/>
        <path id="Path_188761" data-name="Path 188761" d="M87.332,55.129a2.132,2.132,0,0,0-2.264,1.549,2.709,2.709,0,0,0,.026,1.467c.186.565.887,1.808.756.5a3.909,3.909,0,0,1,1.482-3.52" transform="translate(-44.618 0)"/>
        <path id="Path_188762" data-name="Path 188762" d="M86.386,61.962a2.133,2.133,0,0,0-2.264,1.549,2.719,2.719,0,0,0,.027,1.467c.186.565.887,1.808.756.5a3.911,3.911,0,0,1,1.481-3.52" transform="translate(-42.727 0)"/>
        <path id="Path_188763" data-name="Path 188763" d="M88.278,71.834a2.132,2.132,0,0,0-2.264,1.549,2.71,2.71,0,0,0,.026,1.467c.186.565.887,1.808.756.5a3.912,3.912,0,0,1,1.482-3.52" transform="translate(-46.51 0)"/>
        <path id="Path_188764" data-name="Path 188764" d="M87.332,81.707a2.132,2.132,0,0,0-2.264,1.549,2.709,2.709,0,0,0,.026,1.467c.186.565.887,1.808.756.5a3.909,3.909,0,0,1,1.482-3.52" transform="translate(-44.618 0)"/>
        <path id="Path_188765" data-name="Path 188765" d="M91.275,84.9a2.132,2.132,0,0,0-2.264,1.549,2.709,2.709,0,0,0,.026,1.467c.186.565.887,1.808.756.5a3.909,3.909,0,0,1,1.482-3.52" transform="translate(-52.504 0)"/>
        <path id="Path_188766" data-name="Path 188766" d="M88.873,94.906a2.132,2.132,0,0,0-2.264,1.549,2.709,2.709,0,0,0,.026,1.467c.186.565.887,1.808.756.5a3.91,3.91,0,0,1,1.482-3.52" transform="translate(-47.7 0)"/>
        <path id="Path_188767" data-name="Path 188767" d="M90.764,145.5a2.132,2.132,0,0,0-2.264,1.549,2.71,2.71,0,0,0,.026,1.467c.186.565.887,1.808.756.5a3.91,3.91,0,0,1,1.482-3.52" transform="translate(-51.482 0)"/>
        <path id="Path_188768" data-name="Path 188768" d="M94.7,149.7a2.132,2.132,0,0,0-2.264,1.549,2.71,2.71,0,0,0,.026,1.467c.186.565.887,1.808.756.5A3.91,3.91,0,0,1,94.7,149.7" transform="translate(-59.35 0)"/>
        <path id="Path_188769" data-name="Path 188769" d="M96.589,157.538a2.132,2.132,0,0,0-2.264,1.549,2.709,2.709,0,0,0,.026,1.467c.186.565.887,1.808.756.5a3.912,3.912,0,0,1,1.482-3.52" transform="translate(-63.132 0)"/>
        <path id="Path_188770" data-name="Path 188770" d="M93.752,155.441a2.132,2.132,0,0,0-2.264,1.549,2.709,2.709,0,0,0,.026,1.467c.186.565.887,1.808.756.5a3.91,3.91,0,0,1,1.482-3.52" transform="translate(-57.458 0)"/>
        <path id="Path_188771" data-name="Path 188771" d="M81.024,68.253A2.132,2.132,0,0,0,78.76,69.8a2.709,2.709,0,0,0,.026,1.467c.186.565.887,1.808.756.5a3.91,3.91,0,0,1,1.482-3.52" transform="translate(-32.002 0)"/>
        <path id="Path_188772" data-name="Path 188772" d="M89.818,64.059a2.132,2.132,0,0,0-2.264,1.549,2.709,2.709,0,0,0,.026,1.467c.186.565.887,1.808.756.5a3.909,3.909,0,0,1,1.482-3.52" transform="translate(-49.59 0)"/>
        <path id="Path_188773" data-name="Path 188773" d="M91.275,73.932a2.132,2.132,0,0,0-2.264,1.549,2.709,2.709,0,0,0,.026,1.467c.186.565.887,1.808.756.5a3.909,3.909,0,0,1,1.482-3.52" transform="translate(-52.504 0)"/>
        <path id="Path_188774" data-name="Path 188774" d="M29.909,13.922S6.563,11.235,1.663,15.605,4.1,32.08,5.621,29.774,22.415,16.8,29.909,13.922" transform="translate(97.784 0)" fill="#dfbf30"/>
        <path id="Path_188775" data-name="Path 188775" d="M4.892,21.584S18.641,21,24.932,15.875" transform="translate(97.869 0)" fill="none" stroke="#c4861c" stroke-miterlimit="10" stroke-width="1"/>
      </g>
    </g>
  </g>
</svg>
