<svg xmlns="http://www.w3.org/2000/svg" xmlns:xlink="http://www.w3.org/1999/xlink" width="505" height="303" viewBox="0 0 505 303">
  <defs>
    <clipPath id="clip-path">
      <path id="Path_186036" data-name="Path 186036" d="M478.421,0H26.579A26.579,26.579,0,0,0,0,26.579V276.421A26.579,26.579,0,0,0,26.579,303H478.421A26.579,26.579,0,0,0,505,276.421V26.579A26.579,26.579,0,0,0,478.421,0Z" fill="#3c3fa7"/>
    </clipPath>
    <clipPath id="clip-path-2">
      <rect id="Rectangle_47349" data-name="Rectangle 47349" width="478.551" height="271.551" fill="none"/>
    </clipPath>
    <clipPath id="clip-path-3">
      <path id="Path_188936" data-name="Path 188936" d="M252.479,9.249c-15.861,1.687-23.568,7.679-24.243,32.65s-15.675,171.179-16.15,183.993c-.3,8.1,38.276,63.238,76.8,24.71,51.431,1.756,107.9.341,129.835.233,22.83.093,24.3-17.151,24.319-21.336v-.177c0-.468-.022-.73-.022-.73,0-2.025-4.217-188.042-4.217-198.166S438.128,9.5,417.882,9.5c-14.019,0-78.778-1.1-123.623-1.1-19.925,0-35.908.217-41.779.842" transform="translate(-212.085 -8.407)" fill="none"/>
    </clipPath>
    <clipPath id="clip-path-5">
      <path id="Path_188975" data-name="Path 188975" d="M83.263,0C56.519,0,33.009.074,24.319.116,1.5.021.022,17.239,0,21.442v.2c0,.461.022.72.022.72V187.033c0,10.123.676,20.922,20.923,20.922s146.315,2.286,165.4.255c15.861-1.686,23.567-7.678,24.243-32.65s-.475-137.687,0-150.5c.3-8.1.3-23.284-23.622-24.3C172.742.16,127.127,0,87.276,0Z" fill="none"/>
    </clipPath>
  </defs>
  <g id="_24" data-name="24" transform="translate(-180 -4331)">
    <g id="Group_176202" data-name="Group 176202" transform="translate(180 4331)">
      <g id="Group_175697" data-name="Group 175697" transform="translate(0)">
        <path id="Path_185925" data-name="Path 185925" d="M478.421,0H26.579A26.579,26.579,0,0,0,0,26.579V276.421A26.579,26.579,0,0,0,26.579,303H478.421A26.579,26.579,0,0,0,505,276.421V26.579A26.579,26.579,0,0,0,478.421,0Z" fill="#fff0f1"/>
        <g id="Mask_Group_318" data-name="Mask Group 318" clip-path="url(#clip-path)">
          <g id="Group_175784" data-name="Group 175784" transform="translate(-293.934 -39.812) rotate(-50)">
            <g id="Group_175783" data-name="Group 175783" transform="translate(-120.561 15.005)">
              <g id="Group_175782" data-name="Group 175782">
                <path id="Path_186031" data-name="Path 186031" d="M537.707,273.6c-40.506,40.75-82.242,80.124-124.721,118.858,19.408-40.049,40.173-79.548,58.706-119.969C492.7,226.652,517.523,164.346,495.7,118.2c-49.751-105.172-192.428,6.465-245.621,62.862-5.672,6-11.1,12.258-16.594,18.451,20.091-44.528,38.433-90.181,36.247-137.235-3.018-64.7-62.811-77.614-116.241-45.138C96.106,52.024,48.683,110.079,8.892,162.66-24.9,207.319,46.15,245.282,79.665,201.252a644.84,644.84,0,0,1,59.705-67.9q-4.891,8.36-9.868,16.7c-21.981,36.732-43.72,73.6-62.012,112.038C32.456,335.715-19.033,437.758,17.558,511.96,36,549.351,83.086,551.155,119.379,534.008c48.776-23.048,83.981-70.732,117.677-111.261,35.173-42.317,66.477-86.984,99.252-130.966,13.7-18.379,27.4-37.01,42.892-54.046.355-.387.732-.751,1.087-1.146l-.422,1.172c-9.321,25.449-20.946,49.988-32.694,74.6-21.873,45.777-49.595,94.174-59.056,143.363-8.371,43.49,7.237,91.13,60.163,85.666,49.748-5.134,91.626-53.943,126.208-86.829,41.886-39.831,83.081-80.39,124.283-120.9C641.784,291.364,580.247,230.8,537.707,273.6Z" transform="translate(8.136 7.945)" fill="#ff9fa3"/>
                <path id="Path_186032" data-name="Path 186032" d="M351.322,557.593c-19.475.859-35.7-5.135-47.144-17.5-15.913-17.183-21.828-46.054-15.831-77.236,7.81-40.635,27.433-80.1,46.411-118.265,4.536-9.139,9.036-18.181,13.314-27.126,4.049-8.485,8.31-17.4,12.552-26.611-2.493,3.319-4.962,6.636-7.405,9.921l-2.426,3.252c-8.516,11.425-16.93,22.9-25.343,34.359-23.6,32.188-48.012,65.47-74.215,96.983q-5.741,6.916-11.564,14.057c-30.073,36.71-64.154,78.322-109.215,99.618C90.277,568.01,38.9,565.455,18.4,523.863c-36.85-74.7,11.047-175.048,46.017-248.321l3.978-8.324c10.291-21.643,21.692-42.829,33.718-63.947q-4.071,5.123-8.024,10.3C73.371,240.8,39.169,241.913,18.061,227.259c-17.456-12.12-26.5-35.684-7.334-61.014C53.2,110.115,100.419,53.357,157.843,18.444,189.724-.918,223.849-5.34,249.18,6.623c22.3,10.532,35.335,32.734,36.729,62.539,1.629,34.956-7.575,68.9-20.176,101.428,43.094-41.544,122.005-101.257,182.911-95.423,27.978,2.694,49.024,18.552,62.54,47.127,22.228,46.993.305,107.677-24.066,160.851-11.6,25.3-24.249,50.607-36.48,75.07l-4.33,8.655c34.571-32.1,65.549-61.96,94.032-90.61h0c14.083-14.175,31.423-19.911,48.782-16.2,19.06,4.091,34.821,19.463,39.205,38.269,4.036,17.249-1.643,34.515-16,48.623l-4.686,4.609c-39.01,38.36-79.346,78.02-119.7,116.392-4.973,4.732-10.088,9.787-15.372,15-31.373,30.982-70.425,69.55-116.035,74.257C354.775,557.394,353.044,557.517,351.322,557.593Zm37.4-320.635a7.221,7.221,0,0,1,3.847.858,7.069,7.069,0,0,1,3.4,8.82l-.43,1.173c-9.769,26.678-22.111,52.529-33,75.328-4.314,9.026-8.858,18.157-13.438,27.377-18.467,37.138-37.561,75.537-44.949,113.941-5.014,26.081-.283,50.76,12.352,64.4,9.358,10.107,22.73,14.29,39.77,12.59,39.489-4.081,74.516-38.662,105.411-69.18,5.359-5.294,10.567-10.432,15.615-15.231,40.242-38.265,80.528-77.875,119.487-116.185l4.678-4.609c12.689-12.47,13.068-24.871,11.148-33.085-3.119-13.346-14.725-24.7-28.235-27.586-8.222-1.771-20.617-1.24-33.026,11.249h0c-36.8,37.006-77.7,75.987-125.048,119.173a8.271,8.271,0,0,1-10.154,1.048,7.408,7.408,0,0,1-2.239-9.519c7.334-15.142,14.864-30.2,22.387-45.262,12.169-24.333,24.745-49.5,36.232-74.546,22.832-49.8,43.539-106.3,23.944-147.718-11.4-24.085-28.013-36.858-50.794-39.054-56.781-5.438-139.856,58.7-181.805,103.175-4.467,4.741-8.789,9.642-13.119,14.536l-3.282,3.717a8.408,8.408,0,0,1-10.359,2.03A7.369,7.369,0,0,1,234.3,204.8c19.145-42.408,37.654-87.665,35.518-133.512C268.675,46.71,258.776,29.332,241.2,21.027c-20.512-9.678-48.838-5.67-75.8,10.709C110.572,65.056,64.722,120.268,23.335,174.967c-13.082,17.285-6.116,31.512,4.761,39.061,14.731,10.225,38.452,10.459,53.415-9.208a654.985,654.985,0,0,1,60.551-68.853,8.283,8.283,0,0,1,10.54-1.224,7.5,7.5,0,0,1,1.8,10.037q-4.917,8.409-9.92,16.774c-22.259,37.195-43.716,73.7-61.618,111.309l-3.979,8.347C45.329,351.5-.618,447.779,33,515.94c16.331,33.122,58.43,34.568,91.573,18.92,41.362-19.536,72.658-57.754,102.918-94.7q5.873-7.171,11.649-14.155c25.855-31.094,50.1-64.148,73.55-96.116q12.647-17.25,25.412-34.473l2.425-3.245c12.856-17.267,26.148-35.122,41.026-51.474l.758-.8A9.7,9.7,0,0,1,388.722,236.958Zm157.121,44.583.08,0Z"/>
              </g>
              <path id="Path_186033" data-name="Path 186033" d="M38.958,4.308C6.689,64.248-13.106,133.714,10.1,195.593c3.436,9.143,19.184,4.386,15.706-4.9C4.012,132.6,22.141,68.063,52.492,11.686,57.493,2.385,43.985-5.034,38.958,4.308Z" transform="translate(34.618 305.723)"/>
              <path id="Path_186034" data-name="Path 186034" d="M23.16,42.15c-.136-.01-.263-.044-.391-.062-.206-.426-.394-.876-.461-1l-.03-.046c-.013-.063.009-.024-.011-.118-.879-3.486-1.467-7.041-2.086-10.6Q18,17.913,15.843,5.5C15.14,1.486,10.219-1.032,6.188.41A8.9,8.9,0,0,0,.137,10.4l4.908,28.07c1.369,7.8,3.649,17.993,13.151,19.146,4.1.491,8.912-1.46,10.142-5.972C29.395,47.779,27.56,42.683,23.16,42.15Z" transform="translate(67.357 433.949)"/>
              <path id="Path_186035" data-name="Path 186035" d="M31.735.842c-8.915-4.4-17.668,9.631-8.729,14.034C35.338,20.956,38.577,34.3,38.49,47.537c-.1,15.044-2.512,30.618-5.663,45.567A323.226,323.226,0,0,1,1.095,179.4c-5.009,9.3,8.507,16.719,13.534,7.377A339.109,339.109,0,0,0,50.345,85.219C55.413,56.5,61.772,15.64,31.735.842Z" transform="translate(428.075 121.828)"/>
            </g>
          </g>
        </g>
      </g>
    </g>
    <g id="Group_176339" data-name="Group 176339" transform="translate(193 4347)">
      <g id="Group_176330" data-name="Group 176330">
        <g id="Group_176329" data-name="Group 176329" clip-path="url(#clip-path-2)">
          <path id="Path_188886" data-name="Path 188886" d="M440.129,223.788V59.113c0-10.123-.675-20.922-20.922-20.922s-146.314-2.286-165.4-.256c-15.86,1.688-23.567,7.679-24.243,32.651s.475,137.687,0,150.5c-.3,8.1-.3,23.283,23.622,24.3,24.359,1.031,140.716.754,162.649.647,25.984.107,24.3-22.243,24.3-22.243" transform="translate(38.4 6.211)" fill="#3c3fa7"/>
        </g>
      </g>
      <g id="Group_176332" data-name="Group 176332" transform="translate(247.595 9.815)">
        <g id="Group_176331" data-name="Group 176331" clip-path="url(#clip-path-3)">
          <path id="Path_188887" data-name="Path 188887" d="M401.571,203.134a173.419,173.419,0,0,0-7.95-20.56c-4.212-8.485-10.991-11.084-15.546-9.926a10.993,10.993,0,0,0-6.218,4.237L361.7,191.012s2.812,3.774,9.058,20.854c11.532,1.061,21.721-2.607,30.81-8.732" transform="translate(-187.033 19.049)" fill="#b16860"/>
          <path id="Path_188888" data-name="Path 188888" d="M379.392,237.377c10.04.7,20.118.912,30.206.9a287.721,287.721,0,0,0-9.327-39.554c-9.089,6.126-19.278,9.794-30.81,8.732.535,1.462,1.092,3.011,1.678,4.674,2.334,6.633,5.08,14.936,8.253,25.246" transform="translate(-185.734 23.459)" fill="#b57567"/>
          <path id="Path_188889" data-name="Path 188889" d="M236.507,164.63c-.909-6.1-2.522-8.86-2.522-8.86-.489-2.336-1.478-3.61-1.518-8.059-.015-1.77.065-3.891,1.075-5.287,5.6-7.741,14.424.656,14.424.656s-1.611-13.892,1.267-13.477,3.073,17.967,3.073,17.967a124.582,124.582,0,0,1-.035,13.108l1.232,4.662" transform="translate(-208.672 11.884)" fill="#b57567"/>
          <path id="Path_188890" data-name="Path 188890" d="M249.438,157.371a.249.249,0,0,1-.186-.083c-.4-.447-9.775-10.983-8.882-14.508a1.573,1.573,0,0,1,1.078-1.268c1.939-.532,5.528,3,5.678,3.154a.25.25,0,1,1-.351.355c-.978-.972-3.8-3.408-5.194-3.028a1.106,1.106,0,0,0-.728.909c-.828,3.27,8.675,13.945,8.771,14.052a.249.249,0,0,1-.186.416" transform="translate(-207.359 13.87)" fill="#503a33"/>
          <path id="Path_188891" data-name="Path 188891" d="M237.418,150.808a.258.258,0,0,1-.134-.039.251.251,0,0,1-.077-.346,11.4,11.4,0,0,1,5.266-4.237.25.25,0,0,1,.169.47,11.086,11.086,0,0,0-5.013,4.035.252.252,0,0,1-.211.116" transform="translate(-207.885 14.66)" fill="#503a33"/>
          <path id="Path_188892" data-name="Path 188892" d="M237.5,148.55a2.767,2.767,0,0,1-2.245-1.846,8.368,8.368,0,0,1,.93-8.29.25.25,0,1,1,.39.313,7.85,7.85,0,0,0-.866,7.766c.544,1.173,1.344,1.63,1.923,1.549.476-.062.818-.47.933-1.121a.243.243,0,0,1,.29-.2.248.248,0,0,1,.2.288,1.682,1.682,0,0,1-1.361,1.529,1.564,1.564,0,0,1-.2.012" transform="translate(-208.327 13.345)" fill="#503a33"/>
          <path id="Path_188893" data-name="Path 188893" d="M239.185,147.264a2.36,2.36,0,0,1-2.046-1.738,5.988,5.988,0,0,1,2.246-7.66.249.249,0,0,1,.34.093.252.252,0,0,1-.092.341,5.413,5.413,0,0,0-2.03,7.037c.516,1.27,1.383,1.589,1.961,1.354.717-.292,1.107-1.411.468-2.99-1.009-2.482,1.5-4.953,1.61-5.057a.249.249,0,0,1,.347.358c-.023.023-2.376,2.342-1.494,4.511.8,1.969.175,3.268-.742,3.64a1.5,1.5,0,0,1-.566.11" transform="translate(-207.985 13.263)" fill="#503a33"/>
          <path id="Path_188894" data-name="Path 188894" d="M235.144,148.838a1.805,1.805,0,0,1-1.318-.693,6.6,6.6,0,0,1-1.2-5.048.239.239,0,0,1,.28-.214.251.251,0,0,1,.215.281,6.172,6.172,0,0,0,1.073,4.649,1.487,1.487,0,0,0,.963.525c1.012-.022,1.066-1.28,1.067-1.333a.241.241,0,0,1,.257-.242.25.25,0,0,1,.242.258c-.02.618-.371,1.791-1.555,1.817Z" transform="translate(-208.657 14.108)" fill="#503a33"/>
          <path id="Path_188895" data-name="Path 188895" d="M267.246,192.253c-1.532,2.455-2.428,3.993-2.428,3.993l-13.153-40.513.112-2.53a129.025,129.025,0,0,0-15.948,2.8c-.48,11.189-2.6,62.287,11.969,74.324,15.5,12.813,35.334-6.136,46.667-19.933-10.7-2.982-20.462-9-27.218-18.144" transform="translate(-208.174 15.837)" fill="#b57567"/>
          <path id="Path_188896" data-name="Path 188896" d="M295.3,155.651c-11.366,3.638-26.741,26.773-32.618,36.192,6.756,9.147,16.515,15.163,27.218,18.144a140.341,140.341,0,0,0,9.034-12.229Z" transform="translate(-203.612 16.247)" fill="#b16860"/>
          <path id="Path_188897" data-name="Path 188897" d="M289.124,198.725s-4.778,26.77-4.737,40.647H390.553c-.2-4.206-.648-8.1-.949-10.856a224.77,224.77,0,0,1-.853-22.721c15.326-4.305,24.162-17.834,24.162-17.834s-7.721-21.131-20.266-27.415-33.71-10.249-33.71-10.249c-26.61-4.232-44.189-1.186-59.852,1.2-18.262,2.783-33.494,29.84-33.494,29.84,8.455,14.007,23.532,17.387,23.532,17.387" transform="translate(-203.126 14.997)" fill="#e3aba3"/>
          <path id="Path_188898" data-name="Path 188898" d="M371.163,200.135c-.9.306-.381,4.913-.381,4.913s15.807,1.559,29.291-17.134c0,0,.594-4.915-5.6-5.924,0,0-9.691,13.536-23.307,18.145" transform="translate(-185.538 20.657)" fill="#e28279"/>
          <path id="Path_188899" data-name="Path 188899" d="M290.343,192.823c.86.29-.908,4.917-.908,4.917s-14.912,1.847-28-16.6c0,0-.651-4.9,5.189-6.025,0,0,10.763,13.345,23.714,17.705" transform="translate(-203.824 19.506)" fill="#e28279"/>
          <path id="Path_188900" data-name="Path 188900" d="M318.7,229.4h.8a89.955,89.955,0,0,1-18.723-21.558.254.254,0,0,0-.349-.083.256.256,0,0,0-.083.35A90.474,90.474,0,0,0,318.7,229.4" transform="translate(-197.313 24.966)" fill="#d49a2c"/>
          <path id="Path_188901" data-name="Path 188901" d="M303.491,228.7a81.482,81.482,0,0,1-7.956-16.571.254.254,0,1,0-.48.165A82.067,82.067,0,0,0,302.9,228.7Z" transform="translate(-198.195 25.674)" fill="#d49a2c"/>
          <path id="Path_188902" data-name="Path 188902" d="M358.269,156.584a3.627,3.627,0,0,0-2.224-6,198.613,198.613,0,0,0-19.872-1.895c-5.691-.149-12.433-.138-17.431-.095a5.046,5.046,0,0,0-4.314,7.624c2.893,4.772,8.515,10.161,19.25,10.766a29.858,29.858,0,0,0,24.591-10.4" transform="translate(-195.07 15.06)" fill="#e28279"/>
          <path id="Path_188903" data-name="Path 188903" d="M387.888,239.292c-3.209-8.93-15.181-42.179-18.421-50.279,0,0,.468-29.2,2.813-36.231a46.039,46.039,0,0,0-10.7-2.213s-3.137,21.091-3.606,35.161c0,0-32.127-1.876-42.446-2.344,0,0,1.652-28.155,3.06-34.722a67.283,67.283,0,0,0-8.773.836s-5.074,13.953-5.776,34.121c0,0-18.761,43.148-22.513,46.9l-.9,8.772Z" transform="translate(-200.608 15.077)" fill="#cc555f"/>
          <path id="Path_188904" data-name="Path 188904" d="M328.483,219.013c-21.815-1.759-21.715-26.065-21.712-26.312a.278.278,0,0,1,.085-.2.324.324,0,0,1,.2-.078c17.74.348,47.2,2.093,47.5,2.111a.278.278,0,0,1,.259.325c-.041.25-4.223,24.237-24.215,24.237q-1.028,0-2.113-.086M307.331,192.99c.057,2.7,1.163,23.852,21.2,25.469,20.01,1.61,25.1-20.506,25.674-23.384-3.217-.188-30.113-1.744-46.872-2.085" transform="translate(-196.231 22.404)" fill="#e28279"/>
          <path id="Path_188905" data-name="Path 188905" d="M358.181,185.019,346.6,183.442A3.056,3.056,0,0,1,343.99,180l.153-1.122a3.059,3.059,0,0,1,3.44-2.613l11.576,1.577a3.055,3.055,0,0,1,2.614,3.438l-.153,1.121a3.056,3.056,0,0,1-3.019,2.643,3.174,3.174,0,0,1-.42-.028M344.7,178.956l-.152,1.123a2.494,2.494,0,0,0,2.138,2.81l11.576,1.577a2.492,2.492,0,0,0,2.811-2.136l.153-1.121a2.5,2.5,0,0,0-2.138-2.811l-11.576-1.578a2.553,2.553,0,0,0-.339-.023,2.5,2.5,0,0,0-2.474,2.16" transform="translate(-190.004 19.694)" fill="#e28279"/>
          <path id="Path_188906" data-name="Path 188906" d="M346.782,186.944A4.221,4.221,0,1,0,351,182.723a4.222,4.222,0,0,0-4.221,4.221" transform="translate(-189.532 20.779)" fill="#e28279"/>
          <path id="Path_188907" data-name="Path 188907" d="M313.093,179.818l-11.685-.015a3.057,3.057,0,0,1-3.051-3.058v-1.132a3.053,3.053,0,0,1,3.053-3.049h0l11.684.014a3.053,3.053,0,0,1,3.052,3.059v1.131a3.055,3.055,0,0,1-3.053,3.051Zm-11.692-.292h0Zm-1.751-5.677a2.483,2.483,0,0,0-.734,1.765v1.131a2.5,2.5,0,0,0,2.494,2.5l11.685.015h0a2.5,2.5,0,0,0,2.5-2.495v-1.132a2.5,2.5,0,0,0-2.495-2.5l-11.684-.013h0a2.483,2.483,0,0,0-1.762.727" transform="translate(-197.639 19.078)" fill="#e28279"/>
          <path id="Path_188908" data-name="Path 188908" d="M302.052,183.273a4.221,4.221,0,1,0,3.618-4.748,4.22,4.22,0,0,0-3.618,4.748" transform="translate(-197.027 20.07)" fill="#e28279"/>
          <path id="Path_188909" data-name="Path 188909" d="M344.906,46.573c0,12.436,10.565,22.517,23.6,22.517s23.6-10.082,23.6-22.517-10.565-22.517-23.6-22.517-23.6,10.082-23.6,22.517" transform="translate(-189.846 -5.787)" fill="#503a33"/>
          <ellipse id="Ellipse_4872" data-name="Ellipse 4872" cx="24.014" cy="22.912" rx="24.014" ry="22.912" transform="translate(155.945 17.55)" fill="none" stroke="#503a33" stroke-linecap="round" stroke-linejoin="round" stroke-width="0.438"/>
          <path id="Path_188910" data-name="Path 188910" d="M382.934,50.213s30.744-.433,33.342,21.651-6.061,25.548-1.731,31.176,13.423,12.125,10.826,21.218-6.929,11.259-4.763,17.321,3.031,8.66,1.3,13.856c0,0-18.619,6.5-29.445,4.33l-1.3-12.557L387.7,159.333a87.061,87.061,0,0,1-45.467,1.3c-24.682-6.062-39.838-3.464-48.5-9.959l4.33-17.754-9.093,15.589s-3.139,2.166-17.862-3.9c0,0-5.2-8.769-2.6-18.511,3.249-12.185,7.795-9.852,9.093-19.811s.4-23.111,12.234-33.126c11.258-9.526,5.2-15.156,12.124-24.682s40.7-15.588,67.118-2.164" transform="translate(-202.759 -3.364)" fill="#503a33"/>
          <path id="Path_188911" data-name="Path 188911" d="M305.635,119.158l.482-18.988S291.963,89.354,286,105.484s10.994,22.358,19.64,13.674" transform="translate(-199.918 6.363)" fill="#b57567"/>
          <path id="Path_188912" data-name="Path 188912" d="M298.577,138.719c-.156,0-.313,0-.468-.009a11.444,11.444,0,0,1-4.122-21.915.595.595,0,1,1,.479,1.089,10.253,10.253,0,1,0,14.063,11.872.595.595,0,1,1,1.155.286,11.478,11.478,0,0,1-11.106,8.678" transform="translate(-199.518 9.733)" fill="#e19e2c"/>
          <path id="Path_188913" data-name="Path 188913" d="M366.571,123.542l5.563-18.162s16.853-5.769,17.4,11.421-17.514,17.717-22.961,6.741" transform="translate(-186.218 7.674)" fill="#b57567"/>
          <path id="Path_188914" data-name="Path 188914" d="M371.133,141.411a11.437,11.437,0,0,1-11.187-13.784.6.6,0,0,1,1.165.243,10.253,10.253,0,1,0,17.829-4.559.595.595,0,0,1,.9-.774,11.438,11.438,0,0,1-8.71,18.874" transform="translate(-187.369 10.667)" fill="#e19e2c"/>
          <path id="Path_188915" data-name="Path 188915" d="M325.659,150.938a54.19,54.19,0,0,1-7.043-2.6l.228-12.072,30.749,2.375-.055,12.149c-7.864,2.3-16.506,2.531-23.879.149" transform="translate(-194.247 13.001)" fill="#b16860"/>
          <path id="Path_188916" data-name="Path 188916" d="M325.676,149.207c7.372,2.382,16.015,2.148,23.879-.149l-.035,7.529c-11.605,8.675-25.925,5.561-31.006-3.607l.119-6.373a54.189,54.189,0,0,0,7.043,2.6" transform="translate(-194.265 14.732)" fill="#b57567"/>
          <path id="Path_188917" data-name="Path 188917" d="M298.715,72.185s-1.317,20.262-1.79,44.287c-.382,19.449,14.8,38.78,38.518,40.771,22.291,1.87,45.649-6.677,53.2-37.849s3.117-56.89-25.157-64.383-56.645-6.824-64.769,17.174" transform="translate(-197.88 -1.31)" fill="#b57567"/>
          <path id="Path_188918" data-name="Path 188918" d="M326.772,64.005c.125-.167.208-.259.208-.259s-.075.1-.208.259" transform="translate(-192.882 0.859)" fill="#503a33"/>
          <path id="Path_188919" data-name="Path 188919" d="M364.265,99.855s3.886-4.274-4.055-9.862-10.789-4.443-12.145-1.751c-1.236,2.456.535,6.207,5.044,9.229,5.413,3.626,9.043,4.846,11.155,2.385" transform="translate(-189.381 4.586)" fill="#503a33"/>
          <path id="Path_188920" data-name="Path 188920" d="M304.673,95.5s-2.793-5.058,6.225-8.658,11.524-1.831,12.221,1.1c.635,2.676-1.955,5.915-7.042,7.812-6.1,2.276-9.916,2.623-11.4-.258" transform="translate(-196.65 4.388)" fill="#503a33"/>
          <path id="Path_188921" data-name="Path 188921" d="M371.807,123.445a.343.343,0,0,0,.322-.481c-.036-.084-3.551-8.409,2.281-12.14a7.623,7.623,0,0,1,5.963-1.295,9.491,9.491,0,0,1,5.245,4.01.345.345,0,0,0,.593-.351,10.04,10.04,0,0,0-5.674-4.328,8.289,8.289,0,0,0-6.5,1.383c-6.327,4.048-2.58,12.9-2.542,12.994a.343.343,0,0,0,.309.208" transform="translate(-185.584 8.38)" fill="#503a33"/>
          <path id="Path_188922" data-name="Path 188922" d="M380.406,116.072a.344.344,0,0,0,.217-.616c-.056-.044-5.752-4.369-10.117-.159a.344.344,0,0,0,.477.5c3.94-3.8,9.166.167,9.218.208a.342.342,0,0,0,.2.071" transform="translate(-185.577 9.182)" fill="#503a33"/>
          <path id="Path_188923" data-name="Path 188923" d="M330.055,115.981a.345.345,0,0,0,.155-.655,9.289,9.289,0,0,1-3.931-3.827c-.923-1.953-.569-4.854.739-6.087a2.428,2.428,0,0,1,3.034-.126c.037.021.1.057.177.106,4.189,2.539,6.121,1.47,7,.125,1.62-2.469.633-22.217.515-24.461a.352.352,0,0,0-.363-.326.346.346,0,0,0-.326.363c.319,6.034.864,22.117-.4,24.047-1.044,1.588-3.087,1.476-6.073-.336-.091-.056-.161-.1-.205-.123a3.1,3.1,0,0,0-3.835.23c-1.526,1.437-1.943,4.652-.891,6.881a9.817,9.817,0,0,0,4.258,4.155.335.335,0,0,0,.141.034" transform="translate(-193.166 3.702)" fill="#503a33"/>
          <path id="Path_188924" data-name="Path 188924" d="M325.924,122.164a10.407,10.407,0,0,1-.811-3.241,52.437,52.437,0,0,1,16.2-2.522,14.426,14.426,0,0,1-.279,3.7,39.692,39.692,0,0,0-15.105,2.062" transform="translate(-193.16 9.675)"/>
          <path id="Path_188925" data-name="Path 188925" d="M340.913,119.58c-.562,2.7-2.132,5.976-6.437,6.512-5.307.661-7.639-2.063-8.668-4.45a39.692,39.692,0,0,1,15.105-2.062" transform="translate(-193.043 10.197)" fill="#7c3645"/>
          <path id="Path_188926" data-name="Path 188926" d="M299.1,117.621a.348.348,0,0,1-.126-.071.344.344,0,0,1-.027-.487c.061-.068,6.034-6.849,1.685-12.237a7.621,7.621,0,0,0-5.245-3.118,9.492,9.492,0,0,0-6.245,2.14.345.345,0,0,1-.452-.521,10.034,10.034,0,0,1,6.752-2.306,8.29,8.29,0,0,1,5.726,3.372c4.718,5.845-1.645,13.058-1.709,13.13a.343.343,0,0,1-.36.1" transform="translate(-199.279 7.095)" fill="#503a33"/>
          <path id="Path_188927" data-name="Path 188927" d="M292.415,107.726a.344.344,0,0,1-.01-.654c.068-.023,6.839-2.32,9.645,3.058a.344.344,0,1,1-.609.319c-2.533-4.852-8.746-2.747-8.808-2.725a.346.346,0,0,1-.217,0" transform="translate(-198.675 8.028)" fill="#503a33"/>
          <path id="Path_188928" data-name="Path 188928" d="M345.177,120.473c.586,3.283,6.045,5.053,12.192,3.955s10.655-4.649,10.069-7.932-6.045-5.053-12.193-3.955-10.654,4.649-10.068,7.932" transform="translate(-189.809 8.974)" fill="#b16860"/>
          <path id="Path_188929" data-name="Path 188929" d="M324.247,119.647c-.855,3.223-6.44,4.539-12.475,2.938s-10.237-5.509-9.383-8.732,6.441-4.539,12.476-2.938,10.236,5.51,9.382,8.732" transform="translate(-196.983 8.642)" fill="#b16860"/>
          <path id="Path_188930" data-name="Path 188930" d="M355.562,110.5s.336-6.929-5.2-7.958-7.48,5.6-7.48,5.6" transform="translate(-190.184 7.336)" fill="none" stroke="#000" stroke-linecap="round" stroke-linejoin="round" stroke-width="0.636"/>
          <line id="Line_1467" data-name="Line 1467" y1="1.065" x2="3.721" transform="translate(165.358 115.886)" fill="none" stroke="#000" stroke-linecap="round" stroke-linejoin="round" stroke-width="0.636"/>
          <line id="Line_1468" data-name="Line 1468" y1="0.845" x2="2.513" transform="translate(165.514 114.377)" fill="none" stroke="#000" stroke-linecap="round" stroke-linejoin="round" stroke-width="0.752"/>
          <path id="Path_188931" data-name="Path 188931" d="M310.625,106.582s1.8-6.7,7.376-5.994,5.415,7.615,5.415,7.615" transform="translate(-195.585 7.019)" fill="none" stroke="#000" stroke-linecap="round" stroke-linejoin="round" stroke-width="0.636"/>
          <line id="Line_1469" data-name="Line 1469" x1="3.219" y1="2.149" transform="translate(112.11 110.618)" fill="none" stroke="#000" stroke-linecap="round" stroke-linejoin="round" stroke-width="0.636"/>
          <line id="Line_1470" data-name="Line 1470" x1="2.135" y1="1.573" transform="translate(113.572 109.502)" fill="none" stroke="#000" stroke-linecap="round" stroke-linejoin="round" stroke-width="0.752"/>
          <path id="Path_188932" data-name="Path 188932" d="M371.38,46.86s32.414,5.307,35.971,24.429-6.524,46.909-6.524,46.909-12.907-6.733-20.707-8.61c-4.2-1.011,3.951-6.865-.468-21.819,0,0-5.564,13.778-12.141,15.005-7.753,1.445-26.257-.914-34.466-6.61-4.509-3.129-1.894-16.749-3.068-17.389-2.324-1.268-4.637,15.71-7.108,16.165-1.683.309-12.99,8.264-15.911,3.933-2.378-3.526-.279-12.475-1.5-12.211-3.362.724-2.735,17.89-5.427,18.5-6.029,1.366-10.129,2.231-11.181,1.643-5.318-2.972-2.4-38.689,8.1-50.571s45.279-22.208,74.432-9.372" transform="translate(-199.667 -2.959)" fill="#503a33"/>
          <path id="Path_188933" data-name="Path 188933" d="M406.621,150.673a27.168,27.168,0,0,1-1.673-16.943c.954-4.205,2.9-8.123,3.991-12.294s1.211-8.924-1.242-12.469c-2.8-4.051-8.515-5.92-10.024-10.61-1.632-5.078,2.584-9.93,4.817-14.774A20.8,20.8,0,0,0,372.812,57.1" transform="translate(-185.173 -0.738)" fill="none" stroke="#503a33" stroke-linecap="round" stroke-linejoin="round" stroke-width="0.438"/>
          <path id="Path_188934" data-name="Path 188934" d="M319.693,40.051c-4.49.3-9.052.614-13.278,2.163s-8.144,4.531-9.752,8.735c-1.336,3.492-.956,7.4-1.8,11.042-1.383,5.981-5.864,10.666-9.926,15.269s-8.066,9.938-8.12,16.077c-.055,6.245,3.982,12.765,1.235,18.373-1.557,3.178-4.889,5.014-7.412,7.5-6.286,6.186-6.91,17.235-1.361,24.091" transform="translate(-203.142 -3.109)" fill="none" stroke="#503a33" stroke-linecap="round" stroke-linejoin="round" stroke-width="0.438"/>
          <path id="Path_188935" data-name="Path 188935" d="M265.252,202.089a.249.249,0,0,1-.24-.183,72.6,72.6,0,0,0-4.594-11.685.25.25,0,1,1,.445-.226,72.984,72.984,0,0,1,4.63,11.778.25.25,0,0,1-.173.307.277.277,0,0,1-.068.009" transform="translate(-203.996 21.974)" fill="#503a33"/>
        </g>
      </g>
      <g id="Group_176334" data-name="Group 176334">
        <g id="Group_176333" data-name="Group 176333" clip-path="url(#clip-path-2)">
          <path id="Path_188937" data-name="Path 188937" d="M210.645,73.371h55.088c3.387,0,7,.165,7,5.1s.765,35.634.085,40.282c-.564,3.863-2.568,5.74-10.923,5.9s-46.06-.116-50.346,0c-2.71.074-7.789.074-8.128-5.752-.346-5.933-.252-34.271-.217-39.613-.035-6.327,7.441-5.917,7.441-5.917" transform="translate(34.017 12.284)" fill="#e9c1d9"/>
          <path id="Path_188938" data-name="Path 188938" d="M233.752,115.087s.439,8.79,3.955,15.382c0,0-11.207-1.978-14.722-16.921Z" transform="translate(37.335 19.012)" fill="#e9c1d9"/>
          <path id="Path_188939" data-name="Path 188939" d="M216.847,107.631c.636,0,4.6.071,5.2.008.5-.054.74-.242.761-1.026s-.015-4.325,0-4.728c.009-.255.009-.731-.741-.764-.766-.032-4.421-.023-5.11-.02a.666.666,0,0,0-.763.7v5.173c0,.318.021.657.657.657" transform="translate(36.197 16.927)" fill="#fff"/>
          <path id="Path_188940" data-name="Path 188940" d="M230.281,101.8v5.173c0,.319.021.657.657.657s4.6.072,5.2.008c.5-.053.74-.24.761-1.025s-.015-4.327,0-4.728c.009-.255.009-.732-.741-.764-.766-.033-4.421-.023-5.11-.02a.666.666,0,0,0-.763.7" transform="translate(38.557 16.927)" fill="#fff"/>
          <path id="Path_188941" data-name="Path 188941" d="M244.372,101.8v5.173c0,.319.021.657.657.657s4.6.072,5.2.008c.5-.053.74-.24.761-1.025s-.015-4.327,0-4.728c.009-.255.009-.732-.741-.764-.766-.033-4.421-.023-5.11-.02a.666.666,0,0,0-.764.7" transform="translate(40.916 16.927)" fill="#fff"/>
          <path id="Path_188942" data-name="Path 188942" d="M.022,22.359V187.033c0,10.123.675,20.922,20.922,20.922s146.315,2.286,165.4.256c15.86-1.688,23.568-7.679,24.243-32.651s-.475-137.687,0-150.5c.3-8.1.3-23.283-23.622-24.3C162.61-.268,46.253.008,24.319.116-1.665.008.022,22.359.022,22.359" transform="translate(0 0)" fill="#fc5f65"/>
        </g>
      </g>
      <g id="Group_176336" data-name="Group 176336">
        <g id="Group_176335" data-name="Group 176335" clip-path="url(#clip-path-5)">
          <path id="Path_188943" data-name="Path 188943" d="M52.614,126.584s12.511-2.085,26.461-2.975,32.323.977,32.323.977-12.774,29.424-34.209,23.6-24.574-21.6-24.574-21.6" transform="translate(8.809 20.656)" fill="#050504"/>
          <path id="Path_188944" data-name="Path 188944" d="M35.015,191.439c1.686-6.751,2.912-11.6,2.912-11.6l.217,11.6h93.522l-.377-21.635c.141-.058.276-.121.417-.18-2.12-16.506-13.111-16.255-13.847-33.182-4.889-2.559-16.111-8.1-16.111-8.1l-1.6-16.477L68.527,111.6,69.6,129.722l-13.664,1.771s-17.607,4.45-25.58,13.214c-4.795,5.271-13.465,16.119-21.438,46.731Z" transform="translate(1.494 18.685)" fill="#e7a17e"/>
          <path id="Path_188945" data-name="Path 188945" d="M60.629,122.583,59.978,111.6l31.626.264,1.275,13.155c-8.215.576-20.564.633-32.249-2.433" transform="translate(10.042 18.685)" fill="#dd8865"/>
          <path id="Path_188946" data-name="Path 188946" d="M137.846,189.268a46.661,46.661,0,0,1,.2-10.04c.339-.144.674-.341,1.01-.524-6.005-20.143-16.755-28.1-22.764-48.088-8.34,3.708-10.177-6.053-10.177-6.053A56.95,56.95,0,0,1,81.411,131a61.037,61.037,0,0,1-25.581-4.618,83.237,83.237,0,0,0-10.44,2.678L33.4,189.268Z" transform="translate(5.593 20.856)" fill="#050504"/>
          <path id="Path_188947" data-name="Path 188947" d="M37.722,188.623l11.987-60.206c-12.231,4.079-17.922,10.116-25.141,18.209-8.794,9.861-13.887,25.129-16.959,40.3.493.557,1.009,1.127,1.538,1.7Z" transform="translate(1.274 21.501)" fill="#050504"/>
          <path id="Path_188948" data-name="Path 188948" d="M136.392,180.855a47.2,47.2,0,0,0-.9-6.044l-16.184,6.044Z" transform="translate(19.976 29.269)" fill="#dd8865"/>
          <path id="Path_188949" data-name="Path 188949" d="M135.529,189.266c1.675-1.583,3.254-3.165,4.685-4.663-2.509-15.27-7.031-30.715-15.454-40.9-6.914-8.355-12.376-14.6-24.448-19.128l10.4,64.688Z" transform="translate(16.795 20.859)" fill="#050504"/>
          <path id="Path_188950" data-name="Path 188950" d="M79.151,136.984c21.32.4,31.81-14.157,31.918-14.31a.294.294,0,1,0-.481-.339c-.111.158-11.407,15.794-34.425,13.908a66.829,66.829,0,0,1-26.438-7.661.295.295,0,0,0-.3.5,67.53,67.53,0,0,0,26.695,7.742q1.552.13,3.036.155" transform="translate(8.251 20.462)" fill="#282822"/>
          <path id="Path_188951" data-name="Path 188951" d="M11.638,180.81h.74a43.487,43.487,0,0,1-3.78-5.572.294.294,0,1,0-.52.277,43.484,43.484,0,0,0,3.56,5.3" transform="translate(1.347 29.315)" fill="#282822"/>
          <path id="Path_188952" data-name="Path 188952" d="M32.895,180.186a.3.3,0,0,0,.3-.247c4.575-28.289,5.236-46.069,5.243-46.244a.3.3,0,0,0-.285-.3.3.3,0,0,0-.3.284c-.006.175-.668,17.922-5.236,46.172a.3.3,0,0,0,.244.337.276.276,0,0,0,.042,0" transform="translate(5.459 22.333)" fill="#282822"/>
          <path id="Path_188953" data-name="Path 188953" d="M124.184,173.295a.294.294,0,0,0,.2-.515c-.132-.117-13.319-11.715-16.611-15.069a.294.294,0,0,0-.42.412c3.306,3.37,16.511,14.982,16.643,15.1a.3.3,0,0,0,.189.072" transform="translate(17.96 26.391)" fill="#282822"/>
          <path id="Path_188954" data-name="Path 188954" d="M32.042,40.362a15.146,15.146,0,0,0-8.145,24.3,5.6,5.6,0,0,1,1.223,1.889,4.878,4.878,0,0,1-.686,3.295c-1.554,3.313-2.99,6.886-2.591,10.524s3.259,7.258,6.921,7.247" transform="translate(3.434 6.758)" fill="none" stroke="#63453c" stroke-miterlimit="10" stroke-width="1.008"/>
          <path id="Path_188955" data-name="Path 188955" d="M108.371,47.89c-1.167-1.172-2.125-2.146-2.863-2.9,1.912,3.829,4.283,8.3,5.3,9.09,0,0,3.965,22.419,6.622,26.483s4.659-10.925,1.964-19.726c-1.591-5.2-3.038-7.774-3.958-9.022-2.029-.726-5.231-2.078-7.069-3.923" transform="translate(17.666 7.533)" fill="#795948"/>
          <path id="Path_188956" data-name="Path 188956" d="M119.145,46.55s8.4,16.607,11.03,41.857c2.048,19.7-11.677,40.622-35.569,44.686-22.456,3.819-46.891-2.842-57.235-33.819s-2.986-57.266,25.055-67.3,48.8-4.481,56.719,14.581" transform="translate(5.51 4.529)" fill="#e7a17e"/>
          <path id="Path_188957" data-name="Path 188957" d="M75.607,94.8c-.312,3.381-5.7,5.648-12.029,5.063s-11.211-3.8-10.9-7.18,5.7-5.648,12.029-5.063,11.211,3.8,10.9,7.18" transform="translate(8.818 14.656)" fill="#dd8865"/>
          <path id="Path_188958" data-name="Path 188958" d="M116.805,85.584c1.065,3.226-2.968,7.455-9.006,9.448s-11.795,1-12.859-2.229,2.968-7.453,9.006-9.448,11.795-1,12.859,2.229" transform="translate(15.868 13.785)" fill="#dd8865"/>
          <path id="Path_188959" data-name="Path 188959" d="M82.262,38.5c-.141-.159-.232-.245-.232-.245s.084.09.232.245" transform="translate(13.735 6.405)" fill="#795948"/>
          <path id="Path_188960" data-name="Path 188960" d="M138.117,29.6c1.446-7.5-5.288-3.759-5.288-3.759s1.57-6.316-3.444-9.579S114.5,17.806,110.49,18.223c0,0,6.074-7.532.528-11.63s-20.627,6.693-25.834,8.7c-11.1,4.27-12.9-1.827-31.478,5.276A22.325,22.325,0,0,0,42.313,30.876s1.131-14.809-3.25-14.131-3.126,19.166-3.126,19.166-11.3-3.8-11.891,1.236,7.286,9.116,7.286,9.116S14.427,58.1,26.055,69.327c0,0-7.586,8.4-4.646,17.4a5.987,5.987,0,0,0,4.628,3.821s-7.4,10.147,2.462,19.4,15.9,24.433,25.182,21.687-5.416-15.687-9.245-20.408-2.271-11.021-1.088-24.325S46.533,56.48,46.533,56.48,76.644,67.15,88.1,58.837c10.2-7.4,5.569-13.6,4.425-14.881-.148-.155-.233-.246-.233-.246s.092.088.233.246c1.619,1.68,11.612,11.588,20.75,10.038,7.044-1.2,3.646-8.17,3.646-8.17s1.242,2.666,2.781,5.747c.738.756,1.7,1.73,2.863,2.9,1.838,1.845,5.04,3.2,7.068,3.923a4.34,4.34,0,0,0-1.026-1.1s10,2.743,8.662-8.024c-.636-6.165-6.36-9.8-6.36-9.8a13.436,13.436,0,0,0,7.209-9.875" transform="translate(3.471 0.95)" fill="#795948"/>
          <path id="Path_188961" data-name="Path 188961" d="M50.12,101.774,42.912,83.826s-17.6-4.4-16.67,13.085,19.3,16.469,23.878,4.864" transform="translate(4.388 13.953)" fill="#e7a17e"/>
          <path id="Path_188962" data-name="Path 188962" d="M54.891,76.2s-4.311-4,3.264-10.356,10.564-5.439,12.172-2.823c1.466,2.386-.008,6.344-4.324,9.8-5.18,4.146-8.757,5.695-11.112,3.381" transform="translate(8.986 10.219)" fill="#795948"/>
          <path id="Path_188963" data-name="Path 188963" d="M111.958,67.879s2.4-5.373-7.061-8.249-11.851-.864-12.3,2.173c-.414,2.769,2.494,5.834,7.817,7.32,6.391,1.785,10.289,1.808,11.548-1.243" transform="translate(15.497 9.751)" fill="#795948"/>
          <path id="Path_188964" data-name="Path 188964" d="M69.4,80.947c.246,2.371-1.131,4.458-3.077,4.66S62.6,84.051,62.352,81.68s1.131-4.458,3.076-4.662,3.724,1.557,3.97,3.928" transform="translate(10.435 12.893)"/>
          <path id="Path_188965" data-name="Path 188965" d="M103.009,76.459c.246,2.371-1.131,4.458-3.077,4.66s-3.723-1.556-3.969-3.927,1.131-4.458,3.077-4.662,3.723,1.557,3.969,3.928" transform="translate(16.063 12.141)"/>
          <path id="Path_188966" data-name="Path 188966" d="M43.915,102.59a.356.356,0,0,1-.147-.016.352.352,0,0,1-.222-.444c.03-.089,2.879-8.839-3.36-12.121a7.765,7.765,0,0,0-6.162-.8,9.68,9.68,0,0,0-4.977,4.52.351.351,0,0,1-.632-.3,10.217,10.217,0,0,1,5.383-4.88,8.444,8.444,0,0,1,6.714.844c6.768,3.562,3.73,12.871,3.7,12.964a.353.353,0,0,1-.3.237" transform="translate(4.752 14.764)" fill="#634927"/>
          <path id="Path_188967" data-name="Path 188967" d="M33.779,95.9a.353.353,0,0,1-.294-.111.35.35,0,0,1,.021-.5c.053-.049,5.459-4.928,10.251-1.032a.35.35,0,0,1-.441.544c-4.325-3.515-9.286.96-9.336,1a.348.348,0,0,1-.2.091" transform="translate(5.591 15.53)" fill="#634927"/>
          <path id="Path_188968" data-name="Path 188968" d="M89.03,90.886a.351.351,0,0,1-.214-.651,9.454,9.454,0,0,0,3.659-4.221c.767-2.061.159-4.973-1.275-6.112a2.474,2.474,0,0,0-3.089.133c-.037.026-.095.067-.172.124-4.032,2.936-6.083,2.019-7.1.73-1.856-2.365-2.554-22.487-2.629-24.773a.355.355,0,0,1,.34-.362.351.351,0,0,1,.362.339c.2,6.15,1.029,22.515,2.48,24.363,1.193,1.521,3.257,1.233,6.131-.863.089-.065.155-.113.2-.142a3.157,3.157,0,0,1,3.912-.1c1.672,1.327,2.371,4.554,1.5,6.905a10,10,0,0,1-3.962,4.582.343.343,0,0,1-.14.047" transform="translate(13.096 9.335)" fill="#634927"/>
          <path id="Path_188969" data-name="Path 188969" d="M37.595,47.366a106.854,106.854,0,0,0,20.213,7.9,66.094,66.094,0,0,0,10.617,1.972,36.289,36.289,0,0,0,10.691-.392,21.931,21.931,0,0,0,5.044-1.722,14.159,14.159,0,0,0,4.272-3.061,10.068,10.068,0,0,0,2.441-4.537,12.8,12.8,0,0,0,.07-5.224A23.464,23.464,0,0,0,86.5,32.658a19.073,19.073,0,0,0-1.746-2.011,5.894,5.894,0,0,0-1.986-1.434c-.159-.04-.2-.006-.166-.028a.515.515,0,0,0-.029.249,3.653,3.653,0,0,0,.342,1.13,15.8,15.8,0,0,0,1.326,2.289,50.342,50.342,0,0,0,7.173,8.1,45.944,45.944,0,0,0,8.68,6.441,22.808,22.808,0,0,0,4.928,2.076,10.738,10.738,0,0,0,5.172.258,5.547,5.547,0,0,0,3.754-3.121,12.089,12.089,0,0,0,1.026-5.12,22.491,22.491,0,0,0-.629-5.311,16.558,16.558,0,0,0-1.925-4.927,4.115,4.115,0,0,0-.79-.926,1.107,1.107,0,0,0-.418-.23c-.162-.016-.075-.019-.121.007a2.115,2.115,0,0,0-.12,1.026,10.046,10.046,0,0,0,.176,1.291,31.543,31.543,0,0,0,1.6,5.14,47.353,47.353,0,0,0,5.054,9.558,21.883,21.883,0,0,0,3.515,4.011A6.385,6.385,0,0,0,125.86,53h.009a.526.526,0,0,1,.107,1.047h-.008a7.372,7.372,0,0,1-5.322-2.143,22.894,22.894,0,0,1-3.672-4.216,48.255,48.255,0,0,1-5.13-9.783,32.459,32.459,0,0,1-1.626-5.313,10.742,10.742,0,0,1-.188-1.42,2.679,2.679,0,0,1,.306-1.633.95.95,0,0,1,.531-.368,1.16,1.16,0,0,1,.57,0,2.048,2.048,0,0,1,.78.41,4.953,4.953,0,0,1,.989,1.142,17.408,17.408,0,0,1,2.062,5.222,23.413,23.413,0,0,1,.662,5.538,13.011,13.011,0,0,1-1.116,5.531,6.524,6.524,0,0,1-4.385,3.639,11.664,11.664,0,0,1-5.657-.257,23.773,23.773,0,0,1-5.146-2.157,46.814,46.814,0,0,1-8.88-6.569,51.2,51.2,0,0,1-7.333-8.26A16.7,16.7,0,0,1,82,30.974a4.458,4.458,0,0,1-.43-1.483,1.312,1.312,0,0,1,.33-1.029,1.154,1.154,0,0,1,1.122-.23,6.544,6.544,0,0,1,2.45,1.69,19.99,19.99,0,0,1,1.843,2.118A24.467,24.467,0,0,1,91.96,42.119a13.83,13.83,0,0,1-.076,5.648,11.119,11.119,0,0,1-2.684,5,15.874,15.874,0,0,1-4.561,3.311,25.027,25.027,0,0,1-5.256,1.927,34.633,34.633,0,0,1-11.094.787A58.388,58.388,0,0,1,57.4,56.769a91.843,91.843,0,0,1-20.32-8.488.525.525,0,0,1,.5-.926Z" transform="translate(6.163 4.718)" fill="#63453c"/>
          <path id="Path_188970" data-name="Path 188970" d="M95.765,134.884l4.636,33.8,28.645-6.473-23.2-44.64s-2.818-13.763-6.018-12.071-2.8,10.869-2.8,10.869-20.812-4.883-21.078-1.924,12.883,5.932,12.883,5.932-9.47-1.82-8.689,2.182c.555,2.34,7.65,2.414,7.65,2.414s-7.4.154-6.964,2.669,7.224,1.819,7.224,1.819-6,.727-5.368,3.285,5.374,3,12.968,1.8" transform="translate(12.716 17.641)" fill="#e7a17e"/>
          <path id="Path_188971" data-name="Path 188971" d="M137.412,184.329c-2.621-14.623-11.873-30.268-11.873-30.268l-28.645,6.475s2.275,12.412,4.879,23.794Z" transform="translate(16.223 25.795)" fill="#e7a17e"/>
          <path id="Path_188972" data-name="Path 188972" d="M115.417,135.988l-9.569-18.413s-2.818-13.763-6.018-12.071-2.8,10.869-2.8,10.869-20.813-4.883-21.079-1.924,12.883,5.932,12.883,5.932-9.47-1.82-8.688,2.182c.553,2.34,7.649,2.414,7.649,2.414s-7.4.154-6.963,2.669,7.223,1.818,7.223,1.818-6,.728-5.367,3.286,5.374,3,12.967,1.8" transform="translate(12.716 17.641)" fill="none" stroke="#634927" stroke-miterlimit="10" stroke-width="0.529"/>
          <path id="Path_188973" data-name="Path 188973" d="M78.323,93.084a9.585,9.585,0,0,1,.4-3.048,48.226,48.226,0,0,1,14.713,3.32,13.284,13.284,0,0,1-1.49,3.073,36.542,36.542,0,0,0-13.625-3.345" transform="translate(13.113 15.075)"/>
          <path id="Path_188974" data-name="Path 188974" d="M91.947,95.992c-1.394,2.121-3.846,4.393-7.711,3.4-4.767-1.23-5.841-4.35-5.914-6.741a36.542,36.542,0,0,1,13.625,3.345" transform="translate(13.114 15.512)" fill="#7c3645"/>
        </g>
      </g>
      <g id="Group_176338" data-name="Group 176338">
        <g id="Group_176337" data-name="Group 176337" clip-path="url(#clip-path-2)">
          <path id="Path_188976" data-name="Path 188976" d="M191.194,39.743H136.106c-3.387,0-7,.165-7,5.1s-.765,35.634-.085,40.282c.564,3.863,2.568,5.74,10.923,5.9s46.06-.116,50.346,0c2.71.074,7.789.074,8.128-5.752.346-5.933.252-34.271.217-39.612.035-6.329-7.441-5.918-7.441-5.918" transform="translate(21.556 6.653)" fill="#bbdbef"/>
          <path id="Path_188977" data-name="Path 188977" d="M143.222,81.459s-.439,8.79-3.955,15.382c0,0,11.207-1.978,14.723-16.921Z" transform="translate(23.318 13.381)" fill="#bbdbef"/>
          <path id="Path_188978" data-name="Path 188978" d="M146.894,77.327c.636,0,4.6.072,5.2.008.5-.054.74-.242.761-1.026s-.015-4.325,0-4.728c.009-.255.009-.731-.741-.763-.766-.032-4.421-.023-5.11-.02a.666.666,0,0,0-.764.7V76.67c0,.318.021.657.657.657" transform="translate(24.485 11.853)" fill="#fff"/>
          <path id="Path_188979" data-name="Path 188979" d="M146.894,70.408c.636,0,4.6.072,5.2.008.5-.054.74-.242.761-1.026s-.015-21.168,0-21.571c.009-.254.009-.731-.741-.764-.766-.032-4.421-.023-5.11-.02a.666.666,0,0,0-.764.7V69.75c0,.318.021.657.657.657" transform="translate(24.485 7.875)" fill="#fff"/>
          <path id="Path_188980" data-name="Path 188980" d="M164.285,71.088a1,1,0,0,1-1.1-1.291c.04-.23.086-5.146.138-5.355,1.134-4.622,4.747-4.286,5.534-8.1a2.028,2.028,0,0,0-1.918-2.581,2.793,2.793,0,0,0-3.011,2.621c-.117.782-.508,1.134-1.291.978l-4.457-.978a1.148,1.148,0,0,1-1.016-1.291c.233-2.816,1.72-8.056,9.775-8.056,8.76,0,9.074,6.923,9.035,8.1,0,6.161-4.085,6.967-5.705,9.809-.086.152-.167,5.008-.238,5.174a1.3,1.3,0,0,1-1.331.977Zm-.118,3.418a1.053,1.053,0,0,0-1.173,1.173v4.38a1.07,1.07,0,0,0,1.173,1.173h4.38a1.052,1.052,0,0,0,1.173-1.173V75.68a1.037,1.037,0,0,0-1.173-1.173Z" transform="translate(26.315 7.875)" fill="#fff"/>
        </g>
      </g>
    </g>
  </g>
</svg>
