<svg xmlns="http://www.w3.org/2000/svg" xmlns:xlink="http://www.w3.org/1999/xlink" width="99" height="99" viewBox="0 0 99 99">
  <defs>
    <clipPath id="clip-path">
      <rect id="Rectangle_47356" data-name="Rectangle 47356" width="80.75" height="80.154" fill="none"/>
    </clipPath>
  </defs>
  <g id="_31" data-name="31" transform="translate(7969 6495)">
    <rect id="Rectangle_46157" data-name="Rectangle 46157" width="99" height="99" rx="13" transform="translate(-7969 -6495)" fill="#fc5f65"/>
    <g id="Group_176352" data-name="Group 176352" transform="translate(-7960 -6485)">
      <g id="Group_176351" data-name="Group 176351" transform="translate(0 0)" clip-path="url(#clip-path)">
        <path id="Path_189083" data-name="Path 189083" d="M79.515,69.039a2.941,2.941,0,0,1-.575-2.364A13.526,13.526,0,0,0,71.463,51.9c-.442-.224-.465-.416-.315-.823a30.879,30.879,0,0,0,1.818-8.525,32.587,32.587,0,0,0-2.057-14.162.639.639,0,0,1,.186-.869,7.911,7.911,0,0,0,2.551-3.988.768.768,0,0,1,.612-.611,4.857,4.857,0,0,0,2.8-2.051,13.6,13.6,0,0,0-.447-15.2,1.141,1.141,0,0,0-1.573-.441c-.774.651-.864,1.091-.265,1.953a11.035,11.035,0,0,1,2,7.286,10.634,10.634,0,0,1-1.738,5.158,1.325,1.325,0,0,1-.249.3c-.21.173-.376.544-.692.389-.262-.129-.119-.479-.121-.728-.009-1.838,0-3.675,0-5.512a4.246,4.246,0,0,0-3.589-3.688c-.307-.062-.591-.089-.568-.566A1.075,1.075,0,0,0,68.7,8.638c-.643-.063-1.116.383-1.244,1.16A6.577,6.577,0,0,1,66.2,12.9a7.58,7.58,0,0,1-5.311,2.587,11.045,11.045,0,0,1-3.063.057,1.162,1.162,0,0,0-1.34.741,1.1,1.1,0,0,0,.419,1.39.661.661,0,0,1,.3.594c-.011.68,0,1.361,0,2.112a2.445,2.445,0,0,1-1.389-1.359A11.211,11.211,0,0,1,62.922,2.709a10.2,10.2,0,0,1,6.269.319,3.4,3.4,0,0,1,1.317.5,1.5,1.5,0,0,0,2-.2c.237-1.1.085-1.407-.951-1.922A13.51,13.51,0,0,0,52.888,8.9c-.229.627-.4.742-1.065.5a32.338,32.338,0,0,0-22.982-.036c-.667.244-.917.252-1.2-.5A13.559,13.559,0,1,0,3.215,20.4a5.133,5.133,0,0,0,3.022,2.5.9.9,0,0,1,.706.712,7.59,7.59,0,0,0,2.417,3.8.832.832,0,0,1,.252,1.132,30.759,30.759,0,0,0-2.024,9.281A32.193,32.193,0,0,0,9.45,51.159c.134.36.078.541-.3.7A11.024,11.024,0,0,0,6.92,53.184c-.83.624-.915.982-.46,1.948h0c.7.558,1.313.35,1.994-.117a11.008,11.008,0,0,1,10.632-1.306,2.836,2.836,0,0,1,.344.184,10.951,10.951,0,0,1,6.637,8.834,10.791,10.791,0,0,1-.114,3.53,5.5,5.5,0,0,0,1.117,4.367,3.028,3.028,0,0,1-2.1,4.872H22.441c1.075-1.99.925-4.108.922-6.207,0-1.368.018-2.737-.007-4.1a4.27,4.27,0,0,0-3.526-4.241c-.452-.092-.73-.161-.7-.743a1,1,0,0,0-.993-1.037,1.081,1.081,0,0,0-1.231.766,9.171,9.171,0,0,0-.215,1C16,63.9,13.919,65.31,11.1,65.882a14.839,14.839,0,0,1-4.243.164c-.688-.06-1.273.054-1.5.811-.2.664.048,1.139.9,1.486.4.164.308.426.317.692a22.15,22.15,0,0,0,.218,4.56c.155.63.387,1.242.6,1.912a19.862,19.862,0,0,1-2.582-.018,3,3,0,0,1-2.091-4.643,6.7,6.7,0,0,0,1.145-5.355,9.9,9.9,0,0,1,.934-6.068,1.448,1.448,0,0,0-.262-1.916h0c-1.043-.282-1.4-.118-1.864.866a13.582,13.582,0,0,0-1.038,8.371,2.549,2.549,0,0,1-.4,2.025A11.555,11.555,0,0,0,0,70.944V74.1c.137.012.135.128.174.22a5.43,5.43,0,0,0,5.406,3.584c1.026,0,2.054.014,3.079-.008a1.555,1.555,0,0,1,1.076.358,8.29,8.29,0,0,0,10.418.034,1.652,1.652,0,0,1,1.136-.394c1.156.023,2.315.024,3.473,0a5.425,5.425,0,0,0,5.126-4.049A9.794,9.794,0,0,0,30.01,71.2a33.083,33.083,0,0,0,20.527.014c0,.266.011.471,0,.677a5.418,5.418,0,0,0,5.59,6.01c1.053.009,2.106.019,3.158-.007a1.632,1.632,0,0,1,1.136.395,7.975,7.975,0,0,0,9.284.67,6.624,6.624,0,0,1,4.262-1.06c.367.023.737,0,1.1,0a5.47,5.47,0,0,0,4.444-8.869M20.882,72.715a6,6,0,0,1-11.906-.586c-.057-1,0-2-.045-3-.026-.531.17-.675.668-.691a12.212,12.212,0,0,0,4.36-.964,7.883,7.883,0,0,0,4.154-3.692.919.919,0,0,1,1.118-.56,1.961,1.961,0,0,1,1.754,2c.03,1.131.007,2.263.007,3.663a31.742,31.742,0,0,1-.109,3.828m39.326-54.8a12.019,12.019,0,0,0,5.148-1.326A7.611,7.611,0,0,0,68.74,13.28a.955.955,0,0,1,1.185-.578A1.9,1.9,0,0,1,71.6,14.591c.039,1.21.009,2.422.009,3.632H71.6c0,1.079.045,2.16-.008,3.237A5.945,5.945,0,0,1,65.567,27.2a6.01,6.01,0,0,1-5.981-5.821c-.038-.92.022-1.845-.026-2.763-.028-.52.158-.68.648-.7M7.427,15.552a1.349,1.349,0,0,0-1.554.649,1.117,1.117,0,0,0,.492,1.555.56.56,0,0,1,.219.552c0,.447.018.9-.008,1.342-.015.238.166.6-.155.687-.244.067-.47-.211-.63-.413a9.545,9.545,0,0,1-1.976-5.237A11.163,11.163,0,0,1,15.575,2.4a7.582,7.582,0,0,1,2.909.608,10.369,10.369,0,0,1,6.146,4.987,10.872,10.872,0,0,1-.014,11.258,2.4,2.4,0,0,1-1.222,1.169V18.174q-.015-1.657-.03-3.314A4.284,4.284,0,0,0,19.718,10.4c-.45-.09-.59-.247-.583-.709a1,1,0,0,0-.981-1.04,1.075,1.075,0,0,0-1.266.812c-.095.3-.124.618-.193.925a5.976,5.976,0,0,1-4.289,4.616,11.89,11.89,0,0,1-4.981.546m1.549,6.079c-.048-.786-.03-1.577-.033-2.366,0-1.292,0-1.288,1.258-1.394a11.733,11.733,0,0,0,4.514-1.282A7.622,7.622,0,0,0,18.1,13.277a.948.948,0,0,1,1.187-.571,1.958,1.958,0,0,1,1.7,2.045c.023,1.1.006,2.209.006,3.566a32.133,32.133,0,0,1-.117,3.922,6,6,0,0,1-11.9-.608M51.695,68.264a30.508,30.508,0,0,1-22.845,0c-.741-.288-.651-.809-.578-1.334a19.143,19.143,0,0,0,.185-4.243A13.716,13.716,0,0,0,17.18,50.719a13.477,13.477,0,0,0-4.785.09c-.443.1-.581-.019-.724-.419a30.776,30.776,0,0,1-1.784-10.75,29.774,29.774,0,0,1,1.8-9.96c.166-.467.3-.636.866-.468A8.314,8.314,0,0,0,22.95,23.679a1.064,1.064,0,0,1,.81-.8A4.9,4.9,0,0,0,26.576,20.6a13.222,13.222,0,0,0,1.895-7.992c-.038-.47.119-.626.518-.78A30.292,30.292,0,0,1,51.529,11.8a.729.729,0,0,1,.558.907,13.117,13.117,0,0,0,2,8.043,4.844,4.844,0,0,0,2.745,2.13.994.994,0,0,1,.767.747,8.32,8.32,0,0,0,10.438,5.577c.527-.154.669-.023.826.424a30.488,30.488,0,0,1,.046,20.709c-.144.413-.262.547-.76.453a13.551,13.551,0,0,0-15.9,15.678c.048.284.041.576.068.865a.808.808,0,0,1-.62.93m19.9,3.714a6.01,6.01,0,0,1-12.011-.061c-.04-.946.02-1.9-.026-2.842-.025-.518.2-.614.64-.63a12.576,12.576,0,0,0,4.292-.924,8.124,8.124,0,0,0,4.334-3.835.762.762,0,0,1,.852-.48,1.912,1.912,0,0,1,1.924,1.9c.043,1.209.01,2.422.01,3.633h-.007c0,1.079.043,2.161-.008,3.238m5.7,2.791a2.7,2.7,0,0,1-1.624.721h-2.5c1.381-3.247.683-6.665.8-10.016A4.179,4.179,0,0,0,70.3,60.9c-.4-.082-.492-.2-.488-.589a1.108,1.108,0,0,0-1.062-1.161A1.2,1.2,0,0,0,67.47,60.19c-.092.409-.147.829-.267,1.231-.82,2.726-2.88,3.941-5.492,4.466a14.634,14.634,0,0,1-4.243.154c-.713-.065-1.287.122-1.48.856a1.092,1.092,0,0,0,.873,1.436c.418.114.334.394.343.669.04,1.261-.075,2.524.085,3.784A9.453,9.453,0,0,0,58.1,75.5a10.562,10.562,0,0,1-2.843-.046,3.037,3.037,0,0,1-1.786-4.792A6.114,6.114,0,0,0,54.559,65.9,11.205,11.205,0,0,1,69.754,53.717a5.307,5.307,0,0,1,.556.282A11.2,11.2,0,0,1,76.6,66.366a5.159,5.159,0,0,0,1.056,4.144A3.029,3.029,0,0,1,77.3,74.77" transform="translate(0 0)"/>
        <path id="Path_189084" data-name="Path 189084" d="M6.555,90.714A14.727,14.727,0,0,0,5.6,93.8a13.007,13.007,0,0,0,.063,4.163,5.361,5.361,0,0,1-.829,3.764c-.148.249-.324.48-.473.728a2.823,2.823,0,0,0,1.958,4.3,1.112,1.112,0,0,0,.156.021c.6.016,1.354.264,1.769-.084.489-.411-.129-1.037-.23-1.571a20.521,20.521,0,0,1-.121-3.78,1.611,1.611,0,0,0-.743-1.6,1.22,1.22,0,0,1-.5-1.464,1.248,1.248,0,0,1,1.233-.931c1.025-.078,2.05.031,3.077-.016a9.828,9.828,0,0,0,3.95-1,5.43,5.43,0,0,0,2.95-3.7,6.163,6.163,0,0,1,.346-1.293,1.359,1.359,0,0,1,1.364-.888,1.247,1.247,0,0,1,1.167,1.02,1.007,1.007,0,0,0,.838.809,4.564,4.564,0,0,1,3.483,4.6c.016,2.132.012,4.264,0,6.4a7.694,7.694,0,0,1-.591,2.924c-.22.53-.05.644.455.608.471-.032.947,0,1.42-.014a2.848,2.848,0,0,0,.322-.055,3.955,3.955,0,0,0,.5-4.839,6.231,6.231,0,0,1-1.03-5.342,9.628,9.628,0,0,0-.445-4.392,11.55,11.55,0,0,0-4.437-6.42c-.15-.07-.3-.139-.455-.2a10.89,10.89,0,0,0-10.843,1.2c-.89.606-1.528.567-2.029-.116A8.368,8.368,0,0,0,5.993,89h0a1.19,1.19,0,0,1,.561,1.713" transform="translate(-1.461 -31.494)" fill="#fe5a95"/>
        <path id="Path_189085" data-name="Path 189085" d="M12.321,86.61a10.89,10.89,0,0,1,10.843-1.2c.156.063.306.132.455.2-.053-.04-.1-.082-.156-.121a1.274,1.274,0,0,1-.2-.237,2.828,2.828,0,0,0-.343-.184,11.008,11.008,0,0,0-10.632,1.305c-.681.467-1.293.675-1.994.117.5.683,1.138.722,2.029.116" transform="translate(-3.83 -31.361)" fill="#fe5a95"/>
        <path id="Path_189086" data-name="Path 189086" d="M6.094,93.513a9.9,9.9,0,0,0-.934,6.068,6.706,6.706,0,0,1-1.144,5.355,3,3,0,0,0,2.09,4.643,19.872,19.872,0,0,0,2.582.018c-.212-.669-.443-1.281-.6-1.912a22.106,22.106,0,0,1-.217-4.56c-.009-.266.084-.529-.318-.692-.853-.347-1.106-.822-.9-1.486.233-.757.817-.87,1.506-.811a14.835,14.835,0,0,0,4.243-.164c2.815-.572,4.9-1.979,5.59-4.953a8.884,8.884,0,0,1,.215-1,1.08,1.08,0,0,1,1.231-.766,1,1,0,0,1,.993,1.037c-.031.583.246.652.7.743a4.27,4.27,0,0,1,3.526,4.241c.025,1.368,0,2.737.006,4.1,0,2.1.154,4.218-.921,6.208h2.526c.082-.081.159-.166.234-.253a2.814,2.814,0,0,1-.321.055c-.473.01-.949-.018-1.42.014-.5.035-.675-.078-.455-.608a7.693,7.693,0,0,0,.591-2.924c.012-2.131.017-4.264,0-6.4a4.563,4.563,0,0,0-3.483-4.6,1.007,1.007,0,0,1-.838-.809,1.247,1.247,0,0,0-1.167-1.02,1.359,1.359,0,0,0-1.364.888A6.125,6.125,0,0,0,17.7,95.23a5.435,5.435,0,0,1-2.95,3.7,9.828,9.828,0,0,1-3.95,1c-1.026.047-2.052-.062-3.076.016a1.248,1.248,0,0,0-1.233.931,1.221,1.221,0,0,0,.5,1.464,1.613,1.613,0,0,1,.743,1.6,20.521,20.521,0,0,0,.121,3.78c.1.534.72,1.16.231,1.571-.415.348-1.166.1-1.769.084a1.113,1.113,0,0,1-.156-.021,2.823,2.823,0,0,1-1.958-4.3c.149-.248.325-.48.473-.728a5.361,5.361,0,0,0,.829-3.764,13.043,13.043,0,0,1-.063-4.163,14.728,14.728,0,0,1,.957-3.082A1.19,1.19,0,0,0,5.833,91.6a1.448,1.448,0,0,1,.261,1.916" transform="translate(-1.3 -34.09)" fill="#fe5a95"/>
        <path id="Path_189087" data-name="Path 189087" d="M111.985,5.821c-.45-.176-.877-.406-1.334-.565.389.347.843.613,1.239.957a12.339,12.339,0,0,1,4.2,8,11.046,11.046,0,0,1-.765,5.443c0,.75.014,1.5.048,2.271a1.735,1.735,0,0,0,.968-1,10.826,10.826,0,0,0-.168-11.036,7.682,7.682,0,0,1-.659-1.162,1.077,1.077,0,0,1,.7-1.547c-.321.055-.454-.208-.637-.381a9.431,9.431,0,0,0-1.892-1.515,1.2,1.2,0,0,1-1.706.535" transform="translate(-41.181 -1.956)" fill="#5b5555"/>
        <path id="Path_189088" data-name="Path 189088" d="M118.163,9.871a7.625,7.625,0,0,0,.658,1.162,10.826,10.826,0,0,1,.168,11.036,1.736,1.736,0,0,1-.968,1c-.034-.768-.044-1.522-.048-2.271-.018.046-.033.094-.05.14,0-.977.007-1.954,0-2.931,0-.28.088-.583-.127-.834,0,1.838-.007,3.675,0,5.513,0,.249-.141.6.12.728.317.156.483-.217.693-.389a1.335,1.335,0,0,0,.249-.3,10.643,10.643,0,0,0,1.738-5.158,11.034,11.034,0,0,0-2-7.286c-.6-.862-.509-1.3.265-1.954a1.076,1.076,0,0,0-.7,1.547" transform="translate(-43.826 -3.098)" fill="#5b5555"/>
        <path id="Path_189089" data-name="Path 189089" d="M111.525,5.323a3.4,3.4,0,0,0-1.317-.5,2.834,2.834,0,0,0,.278.271c.456.159.884.39,1.334.566a1.2,1.2,0,0,0,1.706-.536,1.5,1.5,0,0,1-2,.2" transform="translate(-41.016 -1.795)" fill="#5b5555"/>
        <path id="Path_189090" data-name="Path 189090" d="M107.174,100.918a4.367,4.367,0,0,1-.62-3.669,11.723,11.723,0,0,0-1.69-8.282,13.108,13.108,0,0,0-3.054-3.356.918.918,0,0,1-.161-.261,5.358,5.358,0,0,0-.555-.282A11.205,11.205,0,0,0,85.9,97.254a6.109,6.109,0,0,1-1.087,4.757A3.036,3.036,0,0,0,86.6,106.8a10.561,10.561,0,0,0,2.843.046,9.43,9.43,0,0,1-.812-2.711c-.16-1.261-.046-2.523-.085-3.785-.009-.276.075-.555-.343-.669a1.092,1.092,0,0,1-.873-1.435c.193-.735.767-.922,1.481-.856a14.635,14.635,0,0,0,4.243-.154c2.611-.525,4.672-1.74,5.491-4.466.121-.4.175-.821.267-1.231a1.2,1.2,0,0,1,1.28-1.038,1.107,1.107,0,0,1,1.063,1.16c0,.387.088.507.487.59a4.178,4.178,0,0,1,3.67,4.573c-.112,3.351.586,6.769-.795,10.016h2.5a4.325,4.325,0,0,0,.161-5.924" transform="translate(-31.338 -31.351)" fill="#fea630"/>
        <path id="Path_189091" data-name="Path 189091" d="M18.934,11.807c.068-.308.1-.627.193-.925a1.075,1.075,0,0,1,1.265-.812,1,1,0,0,1,.981,1.04c-.007.462.133.619.583.709A4.284,4.284,0,0,1,25.6,16.277q.014,1.657.03,3.314a11.432,11.432,0,0,0,.508-7.814,12.706,12.706,0,0,0-5.418-7.352,7.586,7.586,0,0,0-2.909-.608A11.163,11.163,0,0,0,6.053,16.1,9.544,9.544,0,0,0,8.028,21.34c.159.2.385.48.63.413.321-.088.141-.448.154-.687.026-.446,0-.894.009-1.342a.56.56,0,0,0-.219-.551,1.116,1.116,0,0,1-.492-1.555,1.348,1.348,0,0,1,1.554-.65,11.88,11.88,0,0,0,4.981-.546,5.978,5.978,0,0,0,4.289-4.616" transform="translate(-2.237 -1.416)" fill="#c37a4a"/>
        <path id="Path_189092" data-name="Path 189092" d="M106.657,18.788a12.006,12.006,0,0,0-1.363-10.131,11.8,11.8,0,0,0-3.161-3.375c-.2-.144-.458-.257-.525-.512-.023-.006-.045-.016-.068-.021A11.066,11.066,0,0,0,88.413,9.722c-2.367,4.184-1.373,9.713.9,11.769.054-.827.275-1.571-.268-2.221a1.351,1.351,0,0,1-.247-1.663,1.507,1.507,0,0,1,1.629-.711,11.617,11.617,0,0,0,5.194-.639,5.751,5.751,0,0,0,3.923-4.367,5.541,5.541,0,0,1,.289-1.064,1.249,1.249,0,0,1,1.249-.795,1.193,1.193,0,0,1,1.253.895c.128.591.48.78,1,.946a4.273,4.273,0,0,1,3.212,3.783c0,.014,0,.029,0,.043a.44.44,0,0,1,.122.321,15.954,15.954,0,0,1-.008,2.769" transform="translate(-32.399 -1.551)" fill="#756f6f"/>
        <path id="Path_189093" data-name="Path 189093" d="M106.387,15.549v-.043a4.273,4.273,0,0,0-3.212-3.783c-.519-.166-.871-.355-1-.946a1.192,1.192,0,0,0-1.252-.895,1.248,1.248,0,0,0-1.249.795,5.5,5.5,0,0,0-.289,1.064,5.752,5.752,0,0,1-3.923,4.367,11.621,11.621,0,0,1-5.195.639,1.508,1.508,0,0,0-1.629.711,1.351,1.351,0,0,0,.248,1.663c.543.65.321,1.394.268,2.221-2.27-2.057-3.265-7.585-.9-11.769A11.065,11.065,0,0,1,101.384,4.6c.023.006.045.015.068.021a.538.538,0,0,1-.018-.19,10.2,10.2,0,0,0-6.269-.319,11.211,11.211,0,0,0-7.111,16.312,2.445,2.445,0,0,0,1.389,1.359c0-.751-.008-1.431,0-2.112a.662.662,0,0,0-.3-.594,1.1,1.1,0,0,1-.419-1.39,1.163,1.163,0,0,1,1.341-.741,11.07,11.07,0,0,0,3.063-.056,7.578,7.578,0,0,0,5.31-2.587A6.578,6.578,0,0,0,99.7,11.2c.129-.777.6-1.223,1.244-1.16a1.076,1.076,0,0,1,1.106,1.183c-.024.478.261.5.568.566a4.246,4.246,0,0,1,3.589,3.687.289.289,0,0,1,.178.072" transform="translate(-32.243 -1.403)" fill="#756f6f"/>
        <path id="Path_189094" data-name="Path 189094" d="M110.76,5.638a11.792,11.792,0,0,1,3.161,3.375,12.006,12.006,0,0,1,1.363,10.131,15.953,15.953,0,0,0,.008-2.769.438.438,0,0,0-.123-.321c.011,1.177,0,2.357,0,3.553a11.053,11.053,0,0,0,.765-5.443,12.341,12.341,0,0,0-4.2-8c-.4-.344-.851-.611-1.24-.957-.086-.03-.173-.058-.261-.082.068.256.326.369.525.512" transform="translate(-41.026 -1.908)" fill="#756f6f"/>
        <path id="Path_189095" data-name="Path 189095" d="M110.485,5.1a3.064,3.064,0,0,1-.278-.271.521.521,0,0,0,.017.19c.089.024.175.051.261.082" transform="translate(-41.015 -1.795)" fill="#756f6f"/>
        <path id="Path_189096" data-name="Path 189096" d="M117.94,23.252c.011.977,0,1.954,0,2.931.018-.046.033-.094.05-.14-.007-1.2.006-2.375,0-3.552a.282.282,0,0,0-.178-.072c.215.251.124.553.127.833" transform="translate(-43.847 -8.344)" fill="#756f6f"/>
        <path id="Path_189097" data-name="Path 189097" d="M19.833,34.706a5.989,5.989,0,0,0,6.343-4.952,32.249,32.249,0,0,0,.117-3.921c0-1.357.017-2.462-.005-3.566a1.959,1.959,0,0,0-1.7-2.045.949.949,0,0,0-1.188.571A7.617,7.617,0,0,1,20.016,24.1,11.719,11.719,0,0,1,15.5,25.385c-1.258.107-1.261.1-1.257,1.4,0,.789-.016,1.58.032,2.366a5.965,5.965,0,0,0,5.556,5.559" transform="translate(-5.301 -7.514)" fill="#fcd0a6"/>
        <path id="Path_189098" data-name="Path 189098" d="M26.285,106.353c0-1.4.023-2.533-.007-3.663a1.961,1.961,0,0,0-1.754-2,.919.919,0,0,0-1.118.56,7.879,7.879,0,0,1-4.154,3.692,12.212,12.212,0,0,1-4.36.964c-.5.016-.694.16-.668.691.049,1-.011,2,.045,3a6,6,0,0,0,11.907.585,31.732,31.732,0,0,0,.109-3.828" transform="translate(-5.293 -37.466)" fill="#fcd0a6"/>
        <path id="Path_189099" data-name="Path 189099" d="M106.91,102.574a1.911,1.911,0,0,0-1.924-1.9.762.762,0,0,0-.852.48,8.121,8.121,0,0,1-4.334,3.835,12.575,12.575,0,0,1-4.291.924c-.439.016-.666.112-.64.63.046.946-.014,1.9.026,2.842a6.01,6.01,0,0,0,12.011.061c.052-1.077.008-2.158.008-3.238h.007c0-1.211.034-2.423-.01-3.633" transform="translate(-35.306 -37.466)" fill="#fcd0a6"/>
        <path id="Path_189100" data-name="Path 189100" d="M94.892,28.894a6.011,6.011,0,0,0,5.981,5.821,5.945,5.945,0,0,0,6.03-5.742c.052-1.076.008-2.157.008-3.236h.009c0-1.211.029-2.423-.009-3.632a1.9,1.9,0,0,0-1.679-1.889.954.954,0,0,0-1.185.578,7.613,7.613,0,0,1-3.384,3.311,12.022,12.022,0,0,1-5.148,1.325c-.49.022-.676.182-.649.7.048.919-.012,1.843.026,2.763" transform="translate(-35.306 -7.512)" fill="#fcd0a6"/>
        <path id="Path_189101" data-name="Path 189101" d="M33.885,9.214a12.082,12.082,0,0,1,.983,10.043c-.092.276-.1.646-.515.7V22.2a2.4,2.4,0,0,0,1.222-1.168,10.876,10.876,0,0,0,.014-11.258,10.369,10.369,0,0,0-6.147-4.987,9.8,9.8,0,0,1,4.443,4.423" transform="translate(-10.957 -1.783)" fill="#b16944"/>
        <path id="Path_189102" data-name="Path 189102" d="M34.86,12.144a11.432,11.432,0,0,1-.508,7.814c.412-.055.423-.424.515-.7a12.084,12.084,0,0,0-.983-10.043,9.792,9.792,0,0,0-4.442-4.422,12.7,12.7,0,0,1,5.418,7.352" transform="translate(-10.957 -1.783)" fill="#b16944"/>
        <path id="Path_189103" data-name="Path 189103" d="M37,94.9a10.688,10.688,0,0,1-.065,3.6,4.648,4.648,0,0,0,.835,3.721,4.363,4.363,0,0,1,.461,4.417,2.61,2.61,0,0,1-.514.88,2.714,2.714,0,0,0,1.507-4.038c-1.408-1.931-1.474-3.936-1.214-6.129a10.124,10.124,0,0,0-2.442-7.811,10.66,10.66,0,0,0-2.924-2.546A11.891,11.891,0,0,1,37,94.9" transform="translate(-12.15 -32.375)" fill="#fe3b81"/>
        <path id="Path_189104" data-name="Path 189104" d="M34.939,89.108a10.125,10.125,0,0,1,2.442,7.811c-.259,2.194-.193,4.2,1.214,6.13a2.714,2.714,0,0,1-1.507,4.038,1.309,1.309,0,0,1-.6.357,3.028,3.028,0,0,0,2.1-4.872,5.5,5.5,0,0,1-1.117-4.367,10.774,10.774,0,0,0,.114-3.53,10.95,10.95,0,0,0-6.637-8.834,11.408,11.408,0,0,1,1.065.721,10.669,10.669,0,0,1,2.924,2.546" transform="translate(-11.519 -31.948)" fill="#fe3b81"/>
        <path id="Path_189105" data-name="Path 189105" d="M37.814,106.418A4.365,4.365,0,0,0,37.353,102a4.646,4.646,0,0,1-.835-3.72,10.688,10.688,0,0,0,.065-3.6,11.888,11.888,0,0,0-4.356-7.907c-.229-.132-.466-.251-.708-.364a11.55,11.55,0,0,1,4.437,6.42,9.628,9.628,0,0,1,.445,4.392,6.23,6.23,0,0,0,1.03,5.343,3.955,3.955,0,0,1-.5,4.839,2.972,2.972,0,0,0,.367-.105,2.633,2.633,0,0,0,.514-.88" transform="translate(-11.73 -32.159)" fill="#fe3b81"/>
        <path id="Path_189106" data-name="Path 189106" d="M31.307,86.2c.242.113.48.232.708.364a11.315,11.315,0,0,0-1.065-.721,1.232,1.232,0,0,0,.2.237c.054.038.1.082.156.121" transform="translate(-11.519 -31.948)" fill="#fe3b81"/>
        <path id="Path_189107" data-name="Path 189107" d="M40.37,119.681a2.941,2.941,0,0,1-.367.105c-.075.087-.153.171-.234.252a1.316,1.316,0,0,0,.6-.358" transform="translate(-14.801 -44.542)" fill="#fe3b81"/>
        <path id="Path_189108" data-name="Path 189108" d="M118.276,98.377a11.2,11.2,0,0,0-6.287-12.368,11.8,11.8,0,0,1,5.17,8.4,12.073,12.073,0,0,1-.1,4.083,4.022,4.022,0,0,0,.824,3.255,4.309,4.309,0,0,1,.565,4.47,2.263,2.263,0,0,1-1.1,1.288,2.7,2.7,0,0,0,1.624-.721,3.029,3.029,0,0,0,.356-4.259,5.159,5.159,0,0,1-1.057-4.144" transform="translate(-41.679 -32.01)" fill="#f98816"/>
        <path id="Path_189109" data-name="Path 189109" d="M118.45,106.214a4.313,4.313,0,0,0-.565-4.47,4.025,4.025,0,0,1-.824-3.255,12.093,12.093,0,0,0,.1-4.084,11.8,11.8,0,0,0-5.17-8.395.95.95,0,0,0,.161.261,13.1,13.1,0,0,1,3.054,3.356,11.721,11.721,0,0,1,1.689,8.282,4.37,4.37,0,0,0,.621,3.669,4.324,4.324,0,0,1-.161,5.924,2.268,2.268,0,0,0,1.1-1.288" transform="translate(-41.68 -32.011)" fill="#f98816"/>
        <path id="Path_189110" data-name="Path 189110" d="M67.826,66.8c1.7.175,2.84-1.187,2.852-2.977q.035-5.173,0-10.347a2.824,2.824,0,0,0-3.088-3.02c-1.948-.005-3.9-.024-5.844.013-.567.011-.685-.161-.677-.7.031-2.238.03-4.476.008-6.713a2.828,2.828,0,0,0-2.86-3.019q-8.371-.031-16.743,0a2.718,2.718,0,0,0-2.828,2.7q-.088,4.737,0,9.476a2.7,2.7,0,0,0,2.821,2.695c.92.026,1.843,0,2.764.01,1.143.009,1.013-.146,1.016,1,.006,2.633-.016,5.266.008,7.9a2.853,2.853,0,0,0,3.008,3.038c.605.014,1.211.013,1.816,0,.915-.019,1.239-.294,1.463-1.211-.254-.942-.513-1.146-1.488-1.155-.578-.006-1.156-.005-1.735,0-.443,0-.7-.188-.7-.652q0-4.337.017-8.673c0-.041.054-.083.133-.2.912.833,1.833,1.642,2.716,2.49a2.844,2.844,0,0,0,3.228.786,2.693,2.693,0,0,0,1.794-2.7c0-.563.234-.65.707-.631.682.028,1.366.012,2.049,0a2.7,2.7,0,0,0,2.511-1.6c.156-.318.284-.495.677-.487,1.576.033,3.152.027,4.729.036,2.547-.066,2.1-.23,2.121,2.015.025,2.889-.01,5.777.018,8.665.007.713-.231,1-.956.967-1.021-.043-2.047-.014-3.071-.017a16.473,16.473,0,0,0-2.7,2.256c-.224.18-.416.4-.644.575-.453.348-.807.216-.869-.347-.046-.414,0-.838-.021-1.256a1.123,1.123,0,0,0-1.231-1.215c-.942-.021-1.886.01-2.828-.011a1.229,1.229,0,0,0-1.4,1.16c.222.915.546,1.187,1.462,1.212a6.358,6.358,0,0,0,.868,0c.516-.056.779.049.856.665a2.7,2.7,0,0,0,2.253,2.33,2.654,2.654,0,0,0,2.58-.861A5.7,5.7,0,0,1,67.826,66.8m-9.11-14.983c0,.47-.173.752-.692.731-.549-.022-1.1-.028-1.648-.041-.63.014-1.259.018-1.889.044a1.2,1.2,0,0,0-1.326,1.323c-.021.5,0,1-.011,1.5-.005.261,0,.539-.31.66s-.494-.087-.686-.263c-.949-.871-1.907-1.732-2.838-2.622a2.075,2.075,0,0,0-1.556-.609c-1.945.024-3.891-.011-5.836.02-.659.01-.951-.171-.944-.885.028-2.813.016-5.626.008-8.439,0-.524.121-.846.743-.843q7.255.03,14.51.031c.576-.008,1.153,0,1.729-.028.55-.023.748.255.748.767q-.007,4.327,0,8.655" transform="translate(-14.367 -14.895)"/>
        <path id="Path_189111" data-name="Path 189111" d="M61,72.065a19.536,19.536,0,0,1,3.533,0c.728.065,1.05.545,1.136,1.376.048.471-.234,1.158.313,1.347.471.163.826-.455,1.2-.76.608-.5,1.114-1.109,1.755-1.573a1.729,1.729,0,0,1,.908-.431c.507-.01,1.013-.014,1.519-.021.2-.116.271-.353.267-.75-.031-3.494-.017-6.988-.018-10.483-1.382,0-2.765.008-4.147-.009a1.267,1.267,0,0,0-1.237.65,2.865,2.865,0,0,1-2.576,1.407c-.474.006-.947,0-1.421,0-.909.01-.965.039-1.113.951a2.952,2.952,0,0,1-2.07,2.456,2.851,2.851,0,0,1-3.056-.713c-.733-.679-1.531-1.286-2.212-2.022-.118-.127-.259-.315-.46-.2-.146.082-.116.282-.116.438,0,2.446-.022,4.892.009,7.338.009.716.232.9.984.934.578.029,1.16-.035,1.734.04a1.039,1.039,0,0,1,1.044,1.319h3.058c-.089-.765.206-1.224.967-1.294M63.97,65.18q2.758-.055,5.518,0a1.133,1.133,0,0,1,1.2,1.194c-.005.717-.464,1.14-1.3,1.155-.893.016-1.787,0-2.68,0s-1.788.015-2.681-.005a1.174,1.174,0,1,1-.055-2.345" transform="translate(-19.796 -22.613)" fill="#00c1f7"/>
        <path id="Path_189112" data-name="Path 189112" d="M65.474,78.852c.942.021,1.886-.009,2.828.011a1.123,1.123,0,0,1,1.231,1.215c.021.418-.024.842.021,1.256.062.563.416.7.869.347.228-.175.42-.395.644-.575a16.473,16.473,0,0,1,2.7-2.256,1.442,1.442,0,0,1,1.064-.115.971.971,0,0,0,.575-.08c-.506.006-1.013.011-1.519.021a1.729,1.729,0,0,0-.909.431c-.641.464-1.147,1.077-1.755,1.573-.374.305-.73.923-1.2.76-.547-.188-.264-.876-.313-1.347-.085-.83-.407-1.31-1.136-1.375a19.479,19.479,0,0,0-3.533,0c-.761.07-1.055.529-.967,1.294a1.229,1.229,0,0,1,1.4-1.16" transform="translate(-23.84 -29.267)" fill="#00c1f7"/>
        <path id="Path_189113" data-name="Path 189113" d="M55.843,71.9c-.574-.075-1.156-.011-1.734-.04-.752-.037-.975-.218-.984-.934-.031-2.446-.013-4.892-.009-7.338,0-.156-.03-.356.116-.438.2-.112.342.076.46.2.682.735,1.48,1.342,2.212,2.022a2.852,2.852,0,0,0,3.057.713,2.952,2.952,0,0,0,2.07-2.456c.148-.912.2-.94,1.113-.951.473,0,.947,0,1.42,0a2.866,2.866,0,0,0,2.577-1.407,1.266,1.266,0,0,1,1.237-.65c1.382.017,2.765.005,4.147.009v-.2c-1.576-.009-3.153,0-4.729-.036-.393-.008-.522.169-.678.487a2.7,2.7,0,0,1-2.511,1.6c-.683.015-1.368.031-2.05,0-.473-.019-.708.068-.707.631a2.691,2.691,0,0,1-1.794,2.7,2.844,2.844,0,0,1-3.228-.786c-.883-.848-1.8-1.657-2.715-2.49-.079.114-.134.155-.134.2q-.013,4.337-.016,8.673c0,.463.258.655.7.652.578,0,1.156,0,1.735,0,.975.009,1.234.213,1.488,1.155A1.039,1.039,0,0,0,55.843,71.9" transform="translate(-19.711 -22.477)" fill="#00c1f7"/>
        <path id="Path_189114" data-name="Path 189114" d="M57.65,43.823q-7.255-.011-14.51-.031c-.622,0-.745.319-.743.843.009,2.813.021,5.626-.008,8.439-.007.714.285.9.944.885,1.945-.031,3.891,0,5.836-.02a2.075,2.075,0,0,1,1.556.609c.931.89,1.889,1.751,2.838,2.622.192.176.379.382.686.262s.305-.4.31-.66c.011-.5-.01-1,.011-1.5A1.2,1.2,0,0,1,55.9,53.951c.629-.026,1.259-.03,1.889-.044q0-4.661.011-9.32a1.406,1.406,0,0,0-.147-.763M52.8,50.077c-.895.015-1.789,0-2.683,0-.921,0-1.842.015-2.762-.005a1.244,1.244,0,0,1-1.377-1.2c.006-.693.542-1.152,1.4-1.156q2.724-.016,5.446,0c.9.005,1.382.411,1.4,1.143.016.748-.5,1.205-1.423,1.221" transform="translate(-15.776 -16.298)" fill="#feb44e"/>
        <path id="Path_189115" data-name="Path 189115" d="M82.823,61.613q.011,4.685,0,9.371c0,.582-.016.872-.182,1.02.305,0,.611-.008.916-.013.554-.008.817-.252.819-.811q.013-4.8,0-9.606c0-.576-.285-.8-.831-.783a6.97,6.97,0,0,1-.834-.015,1.835,1.835,0,0,1,.109.837" transform="translate(-30.757 -22.619)" fill="#00aaed"/>
        <path id="Path_189116" data-name="Path 189116" d="M82.386,60.652c.546-.014.829.207.831.782q.008,4.8,0,9.606c0,.559-.265.8-.819.811l-.916.013c-.159.141-.456.151-1.021.154a3.3,3.3,0,0,0-.939.045c1.024,0,2.049-.026,3.071.016.725.031.963-.254.956-.967-.028-2.889.008-5.777-.018-8.665-.019-2.245.426-2.081-2.121-2.015a.8.8,0,0,1,.144.2,7.1,7.1,0,0,0,.834.015" transform="translate(-29.595 -22.48)" fill="#00aaed"/>
        <path id="Path_189117" data-name="Path 189117" d="M82.634,70.983q.013-4.685,0-9.371a1.835,1.835,0,0,0-.109-.837H82.38c0,3.494-.013,6.988.018,10.483,0,.4-.069.634-.267.75l.321,0c.165-.148.18-.438.182-1.02" transform="translate(-30.567 -22.618)" fill="#00aaed"/>
        <path id="Path_189118" data-name="Path 189118" d="M80.459,78.813c.565,0,.862-.014,1.021-.154l-.321,0a.978.978,0,0,1-.575.08,1.442,1.442,0,0,0-1.064.116,3.3,3.3,0,0,1,.939-.045" transform="translate(-29.595 -29.275)" fill="#00aaed"/>
        <path id="Path_189119" data-name="Path 189119" d="M82.641,60.654h.031a.812.812,0,0,0-.143-.2c0,.067,0,.135,0,.2h.113" transform="translate(-30.715 -22.499)" fill="#00aaed"/>
        <path id="Path_189120" data-name="Path 189120" d="M68.425,43.8c-.576.024-1.153.02-1.729.028.392.213.391.6.394.961.016,2.747.012,5.5,0,8.243a1.189,1.189,0,0,1-.261.88c.549.013,1.1.02,1.648.042.519.021.692-.262.692-.731q0-4.328,0-8.656c0-.511-.2-.789-.748-.766" transform="translate(-24.822 -16.299)" fill="#fd991b"/>
        <path id="Path_189121" data-name="Path 189121" d="M67.09,44.8c0-.364,0-.748-.394-.961a1.4,1.4,0,0,1,.147.763q-.008,4.661-.011,9.32a1.189,1.189,0,0,0,.261-.88c.009-2.748.013-5.5,0-8.243" transform="translate(-24.822 -16.317)" fill="#fd991b"/>
        <path id="Path_189122" data-name="Path 189122" d="M69.705,70.128c.893.021,1.787.005,2.681.005s1.787.013,2.681,0c.834-.016,1.293-.438,1.3-1.155a1.133,1.133,0,0,0-1.2-1.193q-2.758-.052-5.519,0a1.174,1.174,0,1,0,.055,2.345" transform="translate(-25.476 -25.217)" fill="#000101"/>
        <path id="Path_189123" data-name="Path 189123" d="M54.949,50.033q-2.723-.015-5.446,0c-.859.005-1.4.464-1.4,1.157a1.243,1.243,0,0,0,1.377,1.2c.92.02,1.841,0,2.762.005.894,0,1.789.012,2.683,0,.92-.016,1.438-.474,1.423-1.222-.016-.731-.495-1.137-1.4-1.142" transform="translate(-17.902 -18.618)" fill="#010100"/>
      </g>
    </g>
  </g>
</svg>
