<svg xmlns="http://www.w3.org/2000/svg" xmlns:xlink="http://www.w3.org/1999/xlink" width="400" height="454.638" viewBox="0 0 400 454.638">
  <defs>
    <clipPath id="clip-path">
      <rect id="Rectangle_47377" data-name="Rectangle 47377" width="330" height="412" rx="10" transform="translate(1055 7373.001)" fill="#a6bbff"/>
    </clipPath>
    <clipPath id="clip-path-2">
      <rect id="Rectangle_47376" data-name="Rectangle 47376" width="400" height="383.638" fill="none"/>
    </clipPath>
  </defs>
  <g id="_36" data-name="36" transform="translate(-1020.001 -7373)">
    <rect id="Rectangle_46161" data-name="Rectangle 46161" width="330" height="412" rx="10" transform="translate(1055 7373)" fill="#a6bbff"/>
    <g id="Mask_Group_334" data-name="Mask Group 334" clip-path="url(#clip-path)">
      <path id="Union_18" data-name="Union 18" d="M5795.9,11935.6a121.215,121.215,0,1,1,3.774-149.726,155.2,155.2,0,0,1,255.687-17.49,121.273,121.273,0,1,1,26.354,141.367A155.184,155.184,0,0,1,5795.9,11935.6Z" transform="matrix(0.809, -0.588, 0.588, 0.809, -10519.578, 1560.172)" fill="#6984dd"/>
    </g>
    <g id="Group_176392" data-name="Group 176392" transform="translate(1312.854 7663.854)">
      <g id="Group_176393" data-name="Group 176393" transform="translate(-292.853 -219.855)">
        <g id="Group_176392-2" data-name="Group 176392" clip-path="url(#clip-path-2)">
          <path id="Path_189326" data-name="Path 189326" d="M365.187,520.234s4.773.155,7.171,2.02-7.2,5.716-7.2,5.716Z" transform="translate(-271.403 -386.663)" fill="#ef8e4d"/>
          <path id="Path_189327" data-name="Path 189327" d="M1058.545,1227.256l-8.194,9.13,1.792,6.215,6.711,1.208s4.477-3.755,4.552-6.918-4.861-9.635-4.861-9.635" transform="translate(-780.669 -912.155)" fill="#ef8e4d"/>
          <path id="Path_189328" data-name="Path 189328" d="M332.476,513.594s10.771-7.742,10.543-24.587c-.111-8.175,15.112-17.995,15.112-17.995l15.91-3.2,1.646,19.11-15.636,33.1-5.725,9.156-17.5,8.035Z" transform="translate(-247.111 -347.702)" fill="#ef8e4d"/>
          <path id="Path_189329" data-name="Path 189329" d="M457.618,533.221l2.49,17.359-9.161-1.174-1.138-6.171-5.836,3.707-6.882-4.658,11.9-13.753Z" transform="translate(-324.866 -392.829)" fill="#ff1300"/>
          <path id="Path_189330" data-name="Path 189330" d="M580.046,366.755c6.7,2.254,9.683,9.558,6.671,16.313s-10.882,10.4-17.578,8.149-9.683-9.558-6.672-16.313,10.882-10.4,17.578-8.15" transform="translate(-417.18 -272.095)" fill="#ff1300"/>
          <path id="Path_189331" data-name="Path 189331" d="M516.362,443.688c6.229,2.9,14.146.856,17.682-4.558s1.352-12.15-4.877-15.047-14.146-.856-17.682,4.557-1.353,12.15,4.877,15.047" transform="translate(-378.901 -314.221)" fill="#ff1300"/>
          <path id="Path_189332" data-name="Path 189332" d="M478.892,515.205l12.789,5.3-.479.838c-1.2,2.1-4.345,2.908-7.02,1.8l-3.1-1.285c-2.676-1.11-3.871-3.714-2.67-5.817Z" transform="translate(-355.231 -382.926)" fill="#ff1300"/>
          <path id="Path_189333" data-name="Path 189333" d="M485.764,493.031c5.528,2.57,12.113,1.433,14.708-2.54s.217-9.278-5.311-11.848-12.113-1.433-14.708,2.54-.218,9.278,5.311,11.848" transform="translate(-356.314 -354.729)" fill="#ff1300"/>
          <path id="Path_189334" data-name="Path 189334" d="M1099.313,385.835l20.712-6.052.679,9.234-7.3,2.4,5.9,4.956-4.121,7.721-19.617-8.817Z" transform="translate(-814.268 -282.273)" fill="#ff1300"/>
          <path id="Path_189335" data-name="Path 189335" d="M864.211,295.618c1.216-7.04,9.482-11.489,18.462-9.938s15.274,8.516,14.058,15.556-9.482,11.489-18.463,9.938S863,302.658,864.211,295.618" transform="translate(-642.21 -212.103)" fill="#ff1300"/>
          <path id="Path_189336" data-name="Path 189336" d="M974.059,344.62c2.112-6.715-2.221-14.06-9.677-16.4s-15.212,1.2-17.325,7.913,2.221,14.06,9.677,16.4,15.212-1.2,17.324-7.913" transform="translate(-703.5 -243.409)" fill="#ff1300"/>
          <path id="Path_189337" data-name="Path 189337" d="M1079.632,405.146l3.546-13.653a6.52,6.52,0,0,1,4.672,7.95l-.268,1.031a6.52,6.52,0,0,1-7.95,4.672Z" transform="translate(-802.432 -290.977)" fill="#3690d1"/>
          <path id="Path_189338" data-name="Path 189338" d="M1044.175,376.127c1.874-5.959-1.043-12.185-6.515-13.906s-11.428,1.715-13.3,7.674,1.043,12.185,6.516,13.906,11.427-1.715,13.3-7.674" transform="translate(-760.928 -268.89)" fill="#ff1300"/>
          <path id="Path_189339" data-name="Path 189339" d="M674.963,1003.041l-5.738-21.664-25.548,1.917L560,991.279l-4.54,17.3Z" transform="translate(-412.842 -729.406)"/>
          <path id="Path_189340" data-name="Path 189340" d="M729.278,467.008,678.02,472l1.262,12.557,31.994-2.121,10.55-4.415Z" transform="translate(-503.935 -347.103)"/>
          <rect id="Rectangle_47375" data-name="Rectangle 47375" width="30.607" height="91.82" transform="translate(183.359 99.26)" fill="#ef8e4d"/>
          <path id="Path_189341" data-name="Path 189341" d="M506.5,480.089l25.219-3.217a74.551,74.551,0,0,1,62.56,21.649l75.085,76.266a57.04,57.04,0,0,1-6.834,86c-21.329,15.639-57.217,25.112-96.158,14.828L555.6,644.959l43.673-34.938-25.3-17.77,1.205,19.577L395.064,626.586l-.3-42.746L384.5,531.288l17.584-31.072,59.04-15.506-1.332-12.552,13.057,7.5-1.155,37.684,11.2-36.884,28.174-13.243Z" transform="translate(-285.777 -347.262)" fill="#ffc849"/>
          <path id="Path_189342" data-name="Path 189342" d="M714.143,392.828v17.286c11.358,4.587,23.928-3.4,30.607-8.763v-12.24l-18.276,1.332Z" transform="translate(-530.784 -289.206)"/>
          <path id="Path_189343" data-name="Path 189343" d="M564.12,95.943c0-27.56,21.448-49.9,47.906-49.9s47.906,22.342,47.906,49.9-21.448,49.9-47.906,49.9S564.12,123.5,564.12,95.943" transform="translate(-419.28 -34.221)" fill="#ef8e4d"/>
          <path id="Path_189344" data-name="Path 189344" d="M918.336,226.749s11.634-11.438,17.275-.352c6.659,13.087-12.52,24.689-18.431,13.073s1.155-12.721,1.155-12.721" transform="translate(-679.939 -164.674)" fill="#ef8e4d"/>
          <path id="Path_189345" data-name="Path 189345" d="M734.618,256.29a.466.466,0,0,1-.363-.758l3.956-4.91a.466.466,0,0,1,.614-.1l6.615,4.229a.466.466,0,1,1-.5.785l-6.263-4-3.694,4.585a.465.465,0,0,1-.363.173" transform="translate(-545.656 -186.146)"/>
          <path id="Path_189346" data-name="Path 189346" d="M747.634,332.81a.466.466,0,0,1-.044-.93c9.819-.943,17.539-10.505,17.617-10.6a.466.466,0,0,1,.729.58,35.8,35.8,0,0,1-5.24,5.1c-2.984,2.386-7.665,5.339-13.016,5.853l-.045,0" transform="translate(-555.33 -238.66)"/>
          <path id="Path_189347" data-name="Path 189347" d="M782.682,149.349a.466.466,0,0,1-.391-.718,13.2,13.2,0,0,1,3.94-3.527c2.517-1.577,6.934-3.456,13.686-3.456a.466.466,0,1,1,0,.931c-6.5,0-10.732,1.785-13.14,3.282a12.628,12.628,0,0,0-3.7,3.277.466.466,0,0,1-.391.212" transform="translate(-581.38 -105.28)"/>
          <path id="Path_189348" data-name="Path 189348" d="M933.171,252.719a.466.466,0,0,1-.407-.691,15.69,15.69,0,0,1,7.687-7.308,10.357,10.357,0,0,1,4.206-.863.466.466,0,0,1-.058.93,9.674,9.674,0,0,0-3.842.815,14.8,14.8,0,0,0-7.177,6.876.465.465,0,0,1-.408.241" transform="translate(-693.23 -181.244)"/>
          <path id="Path_189349" data-name="Path 189349" d="M944.876,272.817a.464.464,0,0,1-.388-.209l-4.626-6.995a.466.466,0,1,1,.777-.514l4.626,6.995a.466.466,0,0,1-.388.723" transform="translate(-698.491 -196.88)"/>
          <path id="Path_189350" data-name="Path 189350" d="M801.575,205.613s-.075-28.527,26.8-12.139c0,0-5.715,19.6-26.8,12.139" transform="translate(-595.768 -140.026)" fill="#fff"/>
          <path id="Path_189351" data-name="Path 189351" d="M802.793,202.011a11.324,11.324,0,0,0,18.9-12.287c-14.344-5.188-17.98,6.148-18.9,12.287" transform="translate(-596.673 -140.03)"/>
          <path id="Path_189352" data-name="Path 189352" d="M615.134,45.706c-22.992,0-42.2,16.872-46.838,39.378C607.1,84.52,623.691,53.4,623.691,53.4,629.074,70.695,653.7,81.885,662,85.217c-4.59-22.573-23.828-39.511-46.865-39.511" transform="translate(-422.384 -33.972)" fill="#ff1300"/>
          <path id="Path_189353" data-name="Path 189353" d="M463.032,127.959a32.259,32.259,0,1,1,12.424,43.9,32.259,32.259,0,0,1-12.424-43.9" transform="translate(-341.096 -82.821)" fill="#ce956e"/>
          <path id="Path_189354" data-name="Path 189354" d="M400.715,415.761l32.569-58.045a1.671,1.671,0,0,1,2.274-.643l6.213,3.472a1.67,1.67,0,0,1,.643,2.274l-32.569,58.045a1.671,1.671,0,0,1-2.274.643l-6.213-3.472a1.671,1.671,0,0,1-.643-2.274" transform="translate(-297.672 -265.236)" fill="#7dbcf5"/>
          <path id="Path_189355" data-name="Path 189355" d="M538.6,194.807s-14.045-49.386-52.4-7.682c0,0,19.623,31.059,52.4,7.682" transform="translate(-361.372 -126.644)" fill="#fff"/>
          <path id="Path_189356" data-name="Path 189356" d="M554.461,200.521a20.347,20.347,0,0,0,13.205-11.791c-4.643-10.162-16.567-27.977-38.81-11.867a20.39,20.39,0,0,0,25.605,23.658" transform="translate(-392.765 -126.644)"/>
          <path id="Path_189357" data-name="Path 189357" d="M481.478,169.636a35.692,35.692,0,1,1,9.744-1.361,35.751,35.751,0,0,1-9.744,1.361m-25.2-49.715h0a28.954,28.954,0,0,0,25.213,43.058,29.065,29.065,0,0,0,7.922-1.107,28.932,28.932,0,1,0-33.135-41.952" transform="translate(-331.436 -73.161)" fill="#7dbcf5"/>
          <path id="Path_189358" data-name="Path 189358" d="M624.75,1187.678,596.7,1081.794l-122.467,8.549-25.542,97.335Z" transform="translate(-333.488 -804.041)" fill="#3690d1"/>
          <path id="Path_189359" data-name="Path 189359" d="M354.619,524.1l9.51-10.656s10.443-.646,16.7-13.022c3.529-6.981,3.069-14.477,6.128-22.827.989-2.7,2.005-5.717,2.757-7.94a4.118,4.118,0,0,0-1.918-4.929,5.5,5.5,0,0,0-7.376,2.014c-2.924,4.924-7.918,14.731-8.538,19.466-.348,2.661-4.157,7.355-8.532,12.787-10.611,13.176-27.462,30.286-27.462,30.286Z" transform="translate(-249.648 -344.905)" fill="#ef8e4d"/>
          <path id="Path_189360" data-name="Path 189360" d="M691.67,1125.267a5.494,5.494,0,1,1,5.494-5.494,5.5,5.5,0,0,1-5.494,5.494m0-9.832a4.338,4.338,0,1,0,4.337,4.338,4.343,4.343,0,0,0-4.337-4.338" transform="translate(-509.997 -828.185)" fill="#fff"/>
          <path id="Path_189361" data-name="Path 189361" d="M1072.1,595.067a.372.372,0,0,1-.06,0,.405.405,0,0,1-.342-.46c2.43-16.333,10.183-30.8,23.046-42.993a.4.4,0,1,1,.557.588c-12.729,12.068-20.4,26.375-22.8,42.524a.4.4,0,0,1-.4.345" transform="translate(-796.532 -409.901)"/>
          <path id="Path_189362" data-name="Path 189362" d="M1090.622,875.849a.4.4,0,0,1-.344-.191,105.889,105.889,0,0,1-11.019-27.617.4.4,0,0,1,.786-.194,105.023,105.023,0,0,0,10.92,27.383.4.4,0,0,1-.344.619" transform="translate(-802.146 -629.931)"/>
          <path id="Path_189363" data-name="Path 189363" d="M697.414,764.138a.4.4,0,0,1-.4-.4c0-20.768.591-51.531,3.409-80.146,1.686-17.125,3.4-25.462,3.414-25.544a.4.4,0,0,1,.793.164c-.017.082-1.721,8.392-3.4,25.481-1.553,15.773-3.4,42.464-3.4,80.044a.4.4,0,0,1-.405.4" transform="translate(-518.049 -488.849)"/>
          <path id="Path_189364" data-name="Path 189364" d="M436.762,419.6l-5.51-13.33a5.135,5.135,0,1,1,9.491-3.923l5.51,13.33a5.135,5.135,0,0,1-9.491,3.923" transform="translate(-320.236 -296.684)" fill="#ef8e4d"/>
          <path id="Path_189365" data-name="Path 189365" d="M660.324,1153.12a.575.575,0,0,0-.608-.547l-129.132,6.712-.308,1.174,129.5-6.731a.578.578,0,0,0,.548-.608" transform="translate(-394.126 -856.646)" fill="#fff"/>
          <path id="Path_189366" data-name="Path 189366" d="M407.255,462.819l-8.843-15.674a5.141,5.141,0,0,1,2.346-7.2l1.408-.641a5.141,5.141,0,0,1,6.81,2.546l7.435,16.316a5.141,5.141,0,0,1-9.155,4.657" transform="translate(-295.624 -326.164)" fill="#ef8e4d"/>
          <path id="Path_189367" data-name="Path 189367" d="M438.673,473.767a5.346,5.346,0,0,1-4.654-2.718.2.2,0,1,1,.351-.2,4.939,4.939,0,0,0,8.8-4.475l-7.435-16.316a.2.2,0,0,1,.367-.167l7.435,16.316a5.344,5.344,0,0,1-4.86,7.558" transform="translate(-322.563 -334.295)"/>
          <path id="Path_189368" data-name="Path 189368" d="M1007.179,1144.762a29.919,29.919,0,0,0-1.555-5.257,9.47,9.47,0,0,0-12.5-5.229l-13.067,5.524a2.866,2.866,0,0,0-1.315,4.157,5.184,5.184,0,0,0,6.14,2.16l9.042-3.07Z" transform="translate(-727.123 -842.488)" fill="#ef8e4d"/>
          <path id="Path_189369" data-name="Path 189369" d="M383.448,502.435l-6.457-10.841a5.135,5.135,0,0,1,8.823-5.255l6.457,10.841a5.135,5.135,0,1,1-8.823,5.255" transform="translate(-279.659 -359.607)" fill="#ef8e4d"/>
          <path id="Path_189370" data-name="Path 189370" d="M408.073,511.819a5.337,5.337,0,0,1-4.593-2.6.2.2,0,1,1,.346-.206,4.933,4.933,0,0,0,8.477-5.049l-6.457-10.841a.2.2,0,1,1,.346-.206l6.457,10.841a5.334,5.334,0,0,1-4.576,8.066" transform="translate(-299.863 -366.284)"/>
          <path id="Path_189371" data-name="Path 189371" d="M1013.8,1181.228l1.137-5.518a5.429,5.429,0,0,0-.029-2.383,9.044,9.044,0,0,0-6.709-6.656l-2.568-.606a11.829,11.829,0,0,0-10.368,2.494l-8.629,7.314c-4.165,3.535.063,7.422,4.561,6.784a9.441,9.441,0,0,0,1.34-.287c3.9-1.147,10.787-6.964,10.787-6.964Z" transform="translate(-732.043 -866.44)" fill="#ef8e4d"/>
          <path id="Path_189372" data-name="Path 189372" d="M1031.078,1201.912s.018-7.763-1.91-9.973a8.627,8.627,0,0,0-12.421-.752l-9.438,8.865a2.7,2.7,0,0,0,.211,4.054,4.875,4.875,0,0,0,2.75,1.067,4.682,4.682,0,0,0,3.219-1.056l6.774-5.474Z" transform="translate(-748.069 -883.645)" fill="#ef8e4d"/>
          <path id="Path_189373" data-name="Path 189373" d="M1046.439,1220.745c-2.168-4.3-7.008-5.426-10.174-2.788l-8.451,7.042a2.958,2.958,0,0,0-.135,3.971,4.317,4.317,0,0,0,2.183,1.491,3.222,3.222,0,0,0,2.733-.491l4.163-3.248c5.848-4.088,4.119-.995,7.58,6.1,0,0,4.886-6.548,2.1-12.073" transform="translate(-763.302 -904.193)" fill="#ef8e4d"/>
          <path id="Path_189374" data-name="Path 189374" d="M1217.921,952.589a.405.405,0,0,1-.3-.682,85.97,85.97,0,0,1,13.731-11.183,89.95,89.95,0,0,1,15.551-8.34,72.887,72.887,0,0,1,19.941-5.177.4.4,0,0,1,.087.8,72.1,72.1,0,0,0-19.706,5.116,89.077,89.077,0,0,0-15.4,8.257,86.626,86.626,0,0,0-13.608,11.075.4.4,0,0,1-.3.128" transform="translate(-904.914 -689.143)"/>
          <path id="Path_189375" data-name="Path 189375" d="M1220.95,957.609a.415.415,0,0,1-.114-.016.4.4,0,0,1-.274-.5l5.362-18.265a.4.4,0,1,1,.777.228l-5.362,18.265a.405.405,0,0,1-.388.291" transform="translate(-907.165 -697.563)"/>
          <path id="Path_189376" data-name="Path 189376" d="M86.167,637.371,74.842,647.2s-15.055-8.678-47.45,21.432c-6.878,6.393-13.644,14.772-19.615,23.114a41.6,41.6,0,0,0,7.6,56.511,36.094,36.094,0,0,0,37.853,4.759l65.317-30.093-3.458-70.618s-23.049,7.611-28.924-14.937" transform="translate(0 -473.725)" fill="#ffc849"/>
          <path id="Path_189377" data-name="Path 189377" d="M245.345,783.518a.4.4,0,0,1-.283-.694c.051-.049,5.14-5.031,11.247-11.724,5.631-6.17,13.3-15.1,17.877-22.589a41.351,41.351,0,0,0,5.415-13.792,38.554,38.554,0,0,0,.441-11.558,34.156,34.156,0,0,0-2.974-10.921.406.406,0,0,1,.043-.441l12.513-15.624a.4.4,0,1,1,.632.506L277.9,712.1a35.3,35.3,0,0,1,2.939,10.931,39.349,39.349,0,0,1-.442,11.813,42.144,42.144,0,0,1-5.523,14.085c-4.608,7.548-12.317,16.519-17.973,22.717-6.123,6.709-11.225,11.7-11.276,11.753a.4.4,0,0,1-.283.115" transform="translate(-182.051 -517.318)"/>
          <path id="Path_189378" data-name="Path 189378" d="M692.833,653.574l-7.889,12.764a2.207,2.207,0,0,0,1.867,3.368l9.573.045a2.208,2.208,0,0,0,2.2-2.495L696.9,654.447a2.207,2.207,0,0,0-4.066-.872" transform="translate(-508.834 -484.988)" fill="#7dbcf5"/>
          <path id="Path_189379" data-name="Path 189379" d="M746.417,14.236a.459.459,0,0,1-.083-.007,29.534,29.534,0,0,1-5.149-1.516c-3.647-1.453-5.945-3.306-6.832-5.507C733.5,5.09,734,2.732,735.838.2a.466.466,0,0,1,.754.546c-1.636,2.259-2.1,4.316-1.375,6.114,1.9,4.713,11.188,6.439,11.282,6.456a.466.466,0,0,1-.082.924" transform="translate(-545.505 -0.003)" fill="#ff1300"/>
          <path id="Path_189380" data-name="Path 189380" d="M641.87,1194.675l.051,0a.578.578,0,0,0,.575-.528l7.7-87.969-1.168.081-7.682,87.788a.579.579,0,0,0,.526.627" transform="translate(-476.675 -822.165)" fill="#fff"/>
          <path id="Path_189381" data-name="Path 189381" d="M727.038,1161.3a.579.579,0,0,0,.626-.526L732.9,1100.9l-1.168.082-5.223,59.691a.579.579,0,0,0,.526.627" transform="translate(-539.976 -818.242)" fill="#fff"/>
          <path id="Path_189382" data-name="Path 189382" d="M460.515,461.023c.918,2.222,3.029,3.457,4.715,2.761s2.308-3.063,1.39-5.284-3.029-3.457-4.715-2.761-2.308,3.063-1.39,5.284" transform="translate(-341.961 -338.583)"/>
          <path id="Path_189383" data-name="Path 189383" d="M439.048,511.562a3.866,3.866,0,1,0,1.882-5.487,4.118,4.118,0,0,0-1.882,5.487" transform="translate(-326.044 -375.946)"/>
          <path id="Path_189384" data-name="Path 189384" d="M412.84,534.367c.918,2.221,3.032,3.456,4.722,2.758s2.315-3.065,1.4-5.287-3.032-3.456-4.722-2.758-2.315,3.065-1.4,5.287" transform="translate(-306.527 -393.093)"/>
          <path id="Path_189385" data-name="Path 189385" d="M355.042,534.326,348.62,527.5a4.332,4.332,0,1,1,6.309-5.939l6.422,6.823a4.332,4.332,0,0,1-6.309,5.939" transform="translate(-258.235 -386.639)" fill="#ef8e4d"/>
          <path id="Path_189386" data-name="Path 189386" d="M379.712,554.663c1.3,1.643,3.372,2.172,4.623,1.181s1.207-3.127-.1-4.77-3.372-2.172-4.622-1.181-1.207,3.127.1,4.77" transform="translate(-281.472 -408.336)"/>
          <path id="Path_189387" data-name="Path 189387" d="M379.29,539.252l-.141,0a4.5,4.5,0,0,1-3.164-1.424.2.2,0,1,1,.293-.276,4.131,4.131,0,1,0,6.015-5.662l-6.422-6.823a.2.2,0,1,1,.293-.276l6.422,6.823a4.534,4.534,0,0,1-3.3,7.641" transform="translate(-279.325 -390.001)"/>
          <path id="Path_189388" data-name="Path 189388" d="M978.073,1158.7c.459,1.294,2.43,1.775,4.4,1.075s3.2-2.316,2.737-3.609-2.43-1.775-4.4-1.075-3.2,2.316-2.738,3.609" transform="translate(-726.877 -858.278)"/>
          <path id="Path_189389" data-name="Path 189389" d="M987.194,1204.734c.941,1.428,3.333,1.511,5.343.188s2.879-3.556,1.938-4.984-3.333-1.512-5.344-.187-2.878,3.556-1.938,4.984" transform="translate(-733.446 -891.012)"/>
          <path id="Path_189390" data-name="Path 189390" d="M1008.508,1229.682c.923,1.144,3.059.952,4.77-.429s2.351-3.428,1.427-4.572-3.058-.952-4.77.429-2.35,3.428-1.427,4.572" transform="translate(-749.255 -909.686)"/>
          <path id="Path_189391" data-name="Path 189391" d="M1028.532,1248.18c.862,1.069,2.858.89,4.457-.4s2.2-3.2,1.333-4.271-2.857-.889-4.456.4-2.2,3.2-1.333,4.271" transform="translate(-764.159 -923.716)"/>
          <path id="Path_189392" data-name="Path 189392" d="M1027.168,1228.632a.181.181,0,0,1-.141-.068,3.154,3.154,0,0,1,.16-4.226l8.451-7.042a6.25,6.25,0,0,1,5.3-1.321,7.6,7.6,0,0,1,5.154,4.167.182.182,0,1,1-.326.164,7.238,7.238,0,0,0-4.9-3.973,5.812,5.812,0,0,0-4.993,1.244l-8.45,7.042a2.776,2.776,0,0,0-.11,3.717.182.182,0,0,1-.141.3" transform="translate(-762.791 -903.671)"/>
          <path id="Path_189393" data-name="Path 189393" d="M1009.153,1199.729a.182.182,0,0,1-.125-.315l9.438-8.864a9.27,9.27,0,0,1,8.578-2c1.923.565,4.429,2.095,5.45,6.175a.182.182,0,1,1-.353.088c-.979-3.913-3.368-5.376-5.2-5.914a8.888,8.888,0,0,0-8.226,1.915l-9.438,8.864a.181.181,0,0,1-.125.05" transform="translate(-749.914 -883.14)"/>
          <path id="Path_189394" data-name="Path 189394" d="M1041.484,1168.315a.179.179,0,0,1-.084-.021,36.643,36.643,0,0,0-6.429-2.632,11.39,11.39,0,0,0-10.209,2.455.182.182,0,1,1-.235-.277,11.742,11.742,0,0,1,10.527-2.532,36.254,36.254,0,0,1,6.515,2.664.182.182,0,0,1-.085.344" transform="translate(-761.428 -865.859)"/>
        </g>
      </g>
    </g>
  </g>
</svg>
