<svg xmlns="http://www.w3.org/2000/svg" xmlns:xlink="http://www.w3.org/1999/xlink" width="400" height="377.266" viewBox="0 0 400 377.266">
  <defs>
    <clipPath id="clip-path">
      <rect id="Rectangle_45992" data-name="Rectangle 45992" width="400" height="377.266" rx="14" transform="translate(177 3081)" fill="#a6bbff"/>
    </clipPath>
    <clipPath id="clip-path-2">
      <rect id="Rectangle_45991" data-name="Rectangle 45991" width="369.88" height="345.267" fill="none"/>
    </clipPath>
  </defs>
  <g id="_4" data-name="4" transform="translate(-177 -3081)">
    <rect id="Rectangle_45753" data-name="Rectangle 45753" width="400" height="377.266" rx="14" transform="translate(177 3081)" fill="#a6bbff"/>
    <g id="Mask_Group_320" data-name="Mask Group 320" clip-path="url(#clip-path)">
      <g id="Group_176121" data-name="Group 176121" transform="translate(323.616 3316.5)">
        <g id="Group_175783" data-name="Group 175783" transform="translate(0 0)">
          <g id="Group_175782" data-name="Group 175782">
            <path id="Path_186031" data-name="Path 186031" d="M345.411,173.982c-26.02-26.177-52.831-51.47-80.118-76.352C277.761,123.356,291.1,148.73,303,174.7c13.5,29.442,29.44,69.466,15.42,99.106-31.959,67.56-123.612-4.153-157.782-40.381-3.644-3.857-7.129-7.874-10.66-11.853,12.906,28.6,24.689,57.93,23.284,88.157-1.939,41.56-40.348,49.858-74.67,29-36.861-22.406-67.325-59.7-92.886-93.476C-16,216.557,29.645,192.17,51.175,220.454a414.235,414.235,0,0,0,38.353,43.617q-3.142-5.37-6.339-10.728c-14.12-23.6-28.084-47.276-39.835-71.971C20.849,134.078-12.226,68.528,11.279,20.862,23.127-3.157,53.373-4.316,76.687,6.7,108.019,21.5,130.634,52.136,152.28,78.17c22.594,27.183,42.7,55.877,63.757,84.129,8.8,11.806,17.6,23.775,27.553,34.718.228.249.47.483.7.736l-.271-.753c-5.988-16.348-13.455-32.111-21-47.918-14.051-29.406-31.859-60.5-37.936-92.093C179.7,29.053,189.727-1.55,223.726,1.96c31.957,3.3,58.858,34.652,81.073,55.777,26.906,25.587,53.369,51.641,79.836,77.665C412.267,162.568,372.738,201.47,345.411,173.982Z" transform="translate(5.226 5.139)" fill="#3c3fa7"/>
            <path id="Path_186032" data-name="Path 186032" d="M225.682,1.791c-12.51-.552-22.93,3.3-30.284,11.24-10.222,11.038-14.022,29.584-10.17,49.615,5.017,26.1,17.622,51.455,29.814,75.971,2.914,5.871,5.8,11.679,8.553,17.425,2.6,5.451,5.338,11.176,8.063,17.094-1.6-2.132-3.187-4.263-4.757-6.373l-1.558-2.089c-5.47-7.339-10.875-14.71-16.28-22.072-15.16-20.677-30.842-42.057-47.674-62.3q-3.688-4.443-7.429-9.03C134.642,47.692,112.748,20.961,83.8,7.281,57.992-4.9,24.987-3.259,11.817,23.459c-23.672,47.989,7.1,112.447,29.56,159.515l2.555,5.347c6.61,13.9,13.935,27.512,21.659,41.078q-2.615-3.291-5.155-6.619c-13.305-17.488-35.276-18.2-48.835-8.789C.389,221.777-5.421,236.914,6.891,253.185c27.283,36.056,57.616,72.516,94.5,94.943,20.479,12.438,42.4,15.278,58.672,7.594,14.323-6.765,22.7-21.028,23.594-40.174,1.046-22.455-4.866-44.257-12.96-65.155,27.683,26.687,78.374,65.045,117.5,61.3,17.972-1.73,31.492-11.917,40.174-30.273,14.279-30.187.2-69.169-15.46-103.327-7.453-16.255-15.577-32.509-23.434-48.224l-2.781-5.56c22.207,20.622,42.107,39.8,60.4,58.206h0c9.046,9.106,20.186,12.79,31.337,10.4a33.429,33.429,0,0,0,25.184-24.583c2.593-11.08-1.055-22.172-10.275-31.234l-3.01-2.961c-25.059-24.642-50.97-50.118-76.891-74.768-3.194-3.04-6.481-6.287-9.874-9.635-20.154-19.9-45.239-44.677-74.538-47.7C227.9,1.92,226.787,1.84,225.682,1.791ZM249.706,207.76a4.639,4.639,0,0,0,2.471-.551,4.541,4.541,0,0,0,2.185-5.666l-.276-.753c-6.276-17.137-14.2-33.743-21.2-48.389-2.771-5.8-5.69-11.664-8.632-17.586-11.863-23.857-24.128-48.523-28.874-73.193-3.221-16.754-.182-32.607,7.934-41.372,6.011-6.492,14.6-9.18,25.547-8.088C254.231,14.783,276.731,37,296.578,56.6c3.443,3.4,6.788,6.7,10.031,9.784,25.85,24.58,51.729,50.025,76.756,74.635l3.005,2.961c8.151,8.01,8.395,15.977,7.161,21.253a24.41,24.41,0,0,1-18.138,17.721c-5.281,1.138-13.244.8-21.215-7.226h0c-23.638-23.772-49.911-48.812-80.328-76.554a5.313,5.313,0,0,0-6.523-.673,4.759,4.759,0,0,0-1.438,6.115c4.711,9.727,9.549,19.4,14.381,29.075,7.817,15.631,15.9,31.8,23.274,47.886,14.667,31.992,27.969,68.284,15.381,94.89-7.321,15.471-17.995,23.677-32.629,25.088-36.475,3.493-89.84-37.709-116.788-66.277-2.87-3.046-5.646-6.194-8.427-9.338l-2.108-2.388a5.4,5.4,0,0,0-6.654-1.3,4.734,4.734,0,0,0-1.807,6.17c12.3,27.242,24.188,56.314,22.816,85.765-.737,15.787-7.1,26.95-18.388,32.285-13.176,6.217-31.373,3.642-48.693-6.879-35.218-21.4-64.671-56.871-91.257-92.008-8.4-11.1-3.929-20.242,3.058-25.092,9.463-6.569,24.7-6.719,34.312,5.915a420.752,420.752,0,0,0,38.9,44.23,5.321,5.321,0,0,0,6.77.786,4.815,4.815,0,0,0,1.155-6.448q-3.158-5.4-6.372-10.775c-14.3-23.893-28.082-47.342-39.582-71.5l-2.556-5.362C29.119,134.178-.4,72.334,21.2,28.549,31.689,7.272,58.733,6.343,80.023,16.395c26.57,12.549,46.674,37.1,66.112,60.834q3.773,4.606,7.483,9.093c16.609,19.974,32.181,41.207,47.247,61.743q8.124,11.081,16.324,22.145l1.558,2.084c8.258,11.092,16.8,22.561,26.354,33.066l.487.514A6.229,6.229,0,0,0,249.706,207.76Zm100.931-28.639.052,0Z"/>
          </g>
          <path id="Path_186033" data-name="Path 186033" d="M25.026,126.035C4.3,87.531-8.419,42.908,6.488,3.158,8.7-2.715,18.811.341,16.577,6.3,2.577,43.626,14.223,85.08,33.72,121.3,36.932,127.27,28.255,132.036,25.026,126.035Z" transform="translate(22.238 34.785)"/>
          <path id="Path_186034" data-name="Path 186034" d="M14.878,9.981c-.087.006-.169.028-.251.04-.132.273-.253.563-.3.642l-.019.03c-.009.04.006.015-.007.076-.565,2.239-.942,4.523-1.34,6.81q-1.4,7.973-2.787,15.945c-.452,2.579-3.613,4.2-6.2,3.27A5.714,5.714,0,0,1,.088,30.378L3.241,12.347C4.12,7.339,5.585.788,11.689.047c2.637-.315,5.725.938,6.515,3.836C18.883,6.366,17.7,9.639,14.878,9.981Z" transform="translate(43.269 44.16)"/>
          <path id="Path_186035" data-name="Path 186035" d="M20.386,122.209c-5.727,2.824-11.35-6.187-5.608-9.015,7.922-3.905,10-12.475,9.947-20.981a148.731,148.731,0,0,0-3.637-29.271A207.632,207.632,0,0,0,.7,7.507C-2.514,1.531,6.168-3.233,9.4,2.768a217.836,217.836,0,0,1,22.943,65.24C35.6,86.453,39.681,112.7,20.386,122.209Z" transform="translate(274.986 158.967)"/>
        </g>
      </g>
      <g id="Group_176123" data-name="Group 176123" transform="translate(80.173 3046.364)">
        <g id="Group_175783-2" data-name="Group 175783" transform="translate(0 0)">
          <g id="Group_175782-2" data-name="Group 175782" transform="translate(0 0)">
            <path id="Path_186031-2" data-name="Path 186031" d="M132.654,66.817c-9.993-10.053-20.289-19.767-30.769-29.323,4.788,9.88,9.911,19.625,14.483,29.6,5.183,11.307,11.306,26.678,5.922,38.061-12.274,25.946-47.473-1.595-60.6-15.508-1.4-1.481-2.738-3.024-4.094-4.552,4.956,10.985,9.482,22.248,8.942,33.856-.745,15.961-15.5,19.148-28.677,11.136-14.157-8.6-25.856-22.927-35.673-35.9-8.337-11.017,9.192-20.383,17.46-9.521a159.086,159.086,0,0,0,14.73,16.751q-1.207-2.062-2.435-4.12c-5.423-9.062-10.786-18.156-15.3-27.64C8.007,51.492-4.7,26.318,4.332,8.012,8.882-1.212,20.5-1.657,29.451,2.573,41.485,8.259,50.17,20.023,58.483,30.021c8.677,10.44,16.4,21.459,24.486,32.31,3.38,4.534,6.759,9.131,10.582,13.333.087.1.181.185.268.283l-.1-.289c-2.3-6.278-5.167-12.332-8.066-18.4-5.4-11.293-12.235-23.233-14.569-35.368C69.014,11.158,72.864-.6,85.921.753c12.273,1.267,22.6,13.308,31.136,21.421C127.391,32,137.554,42.006,147.718,52,158.33,62.434,143.149,77.374,132.654,66.817Z" transform="translate(2.007 1.974)" fill="#3c3fa7"/>
            <path id="Path_186032-2" data-name="Path 186032" d="M86.672.688C81.868.476,77.866,1.955,75.042,5c-3.926,4.239-5.385,11.362-3.906,19.054C73.063,34.084,77.9,43.82,82.586,53.235c1.119,2.255,2.229,4.485,3.285,6.692,1,2.093,2.05,4.292,3.1,6.565-.615-.819-1.224-1.637-1.827-2.448l-.6-.8c-2.1-2.818-4.177-5.649-6.252-8.477C74.468,46.825,68.445,38.614,61.981,30.84q-1.416-1.706-2.853-3.468C51.709,18.316,43.3,8.05,32.184,2.8,22.272-1.882,9.6-1.251,4.538,9.009c-9.091,18.43,2.725,43.185,11.353,61.262l.981,2.054C19.411,77.664,22.224,82.89,25.19,88.1q-1-1.264-1.98-2.542A13.754,13.754,0,0,0,4.456,82.183c-4.306,2.99-6.538,8.8-1.809,15.052,10.478,13.847,22.127,27.85,36.294,36.463,7.865,4.777,16.284,5.868,22.533,2.916,5.5-2.6,8.717-8.076,9.061-15.429.4-8.624-1.869-17-4.977-25.023,10.632,10.249,30.1,24.98,45.125,23.541,6.9-.665,12.094-4.577,15.429-11.626,5.484-11.593.075-26.564-5.937-39.682-2.862-6.243-5.982-12.485-9-18.52l-1.068-2.135c8.529,7.92,16.171,15.286,23.2,22.354h0c3.474,3.5,7.752,4.912,12.035,4a12.838,12.838,0,0,0,9.672-9.441c1-4.255-.405-8.515-3.946-12l-1.156-1.137c-9.624-9.464-19.575-19.248-29.53-28.714-1.227-1.167-2.489-2.414-3.792-3.7C108.846,11.458,99.212,1.943,87.96.782,87.524.737,87.1.707,86.672.688ZM95.9,79.79a1.782,1.782,0,0,0,.949-.212,1.744,1.744,0,0,0,.839-2.176l-.106-.289c-2.41-6.581-5.455-12.959-8.141-18.584-1.064-2.227-2.185-4.479-3.315-6.754-4.556-9.162-9.266-18.635-11.089-28.11-1.237-6.434-.07-12.523,3.047-15.889,2.309-2.493,5.608-3.525,9.811-3.106,9.742,1.007,18.383,9.538,26.005,17.067,1.322,1.306,2.607,2.574,3.852,3.758,9.928,9.44,19.866,19.212,29.478,28.663l1.154,1.137c3.13,3.076,3.224,6.136,2.75,8.162a9.374,9.374,0,0,1-6.966,6.806c-2.028.437-5.086.306-8.148-2.775h0c-9.078-9.13-19.168-18.746-30.85-29.4a2.04,2.04,0,0,0-2.505-.259,1.827,1.827,0,0,0-.552,2.348c1.809,3.736,3.667,7.45,5.523,11.166,3,6,6.1,12.212,8.938,18.391,5.633,12.286,10.741,26.224,5.907,36.442-2.812,5.942-6.911,9.093-12.531,9.635-14.008,1.342-34.5-14.482-44.852-25.454-1.1-1.17-2.168-2.379-3.236-3.586l-.81-.917a2.074,2.074,0,0,0-2.556-.5,1.818,1.818,0,0,0-.694,2.37c4.723,10.462,9.289,21.627,8.762,32.938-.283,6.063-2.725,10.35-7.062,12.4-5.06,2.388-12.049,1.4-18.7-2.642C27.279,122.2,15.967,108.578,5.757,95.083c-3.227-4.264-1.509-7.774,1.174-9.637a9.542,9.542,0,0,1,13.178,2.272A161.588,161.588,0,0,0,35.047,104.7a2.043,2.043,0,0,0,2.6.3,1.849,1.849,0,0,0,.444-2.476q-1.213-2.074-2.447-4.138c-5.491-9.176-10.785-18.182-15.2-27.46l-.982-2.059C11.183,51.531-.153,27.78,8.141,10.964,12.17,2.793,22.556,2.436,30.733,6.3c10.2,4.82,17.925,14.248,25.39,23.363Q57.572,31.428,59,33.151c6.379,7.671,12.359,15.826,18.145,23.712q3.12,4.256,6.269,8.5l.6.8c3.172,4.26,6.451,8.665,10.121,12.7l.187.2A2.392,2.392,0,0,0,95.9,79.79Zm38.762-11h0Z" transform="translate(0 0)"/>
          </g>
          <path id="Path_186033-2" data-name="Path 186033" d="M9.611,48.4C1.65,33.616-3.233,16.479,2.492,1.213,3.339-1.043,7.224.131,6.366,2.421.99,16.754,5.462,32.675,12.95,46.583A1.9,1.9,0,1,1,9.611,48.4Z" transform="translate(8.54 13.359)"/>
          <path id="Path_186034-2" data-name="Path 186034" d="M5.714,3.833c-.034,0-.065.011-.1.015-.051.105-.1.216-.114.246L5.5,4.106c0,.015,0,.006,0,.029-.217.86-.362,1.737-.515,2.615q-.537,3.062-1.07,6.124a1.83,1.83,0,0,1-2.382,1.256A2.194,2.194,0,0,1,.034,11.667L1.245,4.742C1.582,2.819,2.145.3,4.489.018a2.241,2.241,0,0,1,2.5,1.473A1.8,1.8,0,0,1,5.714,3.833Z" transform="translate(16.617 16.96)"/>
          <path id="Path_186035-2" data-name="Path 186035" d="M7.829,46.934c-2.2,1.085-4.359-2.376-2.154-3.462,3.042-1.5,3.842-4.791,3.82-8.058A57.12,57.12,0,0,0,8.1,24.173,79.741,79.741,0,0,0,.27,2.883a1.9,1.9,0,1,1,3.339-1.82A83.659,83.659,0,0,1,12.42,26.118C13.671,33.2,15.239,43.283,7.829,46.934Z" transform="translate(105.608 61.051)"/>
        </g>
      </g>
    </g>
    <g id="Group_176120" data-name="Group 176120" transform="translate(192 3097)">
      <g id="Group_176119" data-name="Group 176119" clip-path="url(#clip-path-2)">
        <path id="Path_186649" data-name="Path 186649" d="M245.355,322.275H62.5a5.937,5.937,0,0,1-5.937-5.937V56.775A5.937,5.937,0,0,1,62.5,50.838h182.85a5.936,5.936,0,0,1,5.936,5.937V316.339a5.936,5.936,0,0,1-5.936,5.937" transform="translate(-3.533 -3.175)" fill="#9b5670"/>
        <path id="Path_186650" data-name="Path 186650" d="M198.987,70.878H115.22a2.3,2.3,0,0,1-2.293-2.294V60.678a2.3,2.3,0,0,1,2.293-2.294h83.767a2.3,2.3,0,0,1,2.294,2.294v7.905a2.3,2.3,0,0,1-2.294,2.294" transform="translate(-7.053 -3.646)" fill="#e2cfc7"/>
        <rect id="Rectangle_45920" data-name="Rectangle 45920" width="177.216" height="241.514" transform="translate(61.789 62.624)" fill="#f2f2f2"/>
        <rect id="Rectangle_45921" data-name="Rectangle 45921" width="144.175" height="19.872" transform="translate(78.01 78.278)" fill="#f7e6df"/>
        <path id="Path_186651" data-name="Path 186651" d="M158.445,99.05a7.89,7.89,0,0,1-2.94.485c-4.359,0-6.279-2.733-6.279-5.83,0-4.116,3.01-6.208,6.486-6.208a7.024,7.024,0,0,1,2.923.518l-.6,2.456a5.688,5.688,0,0,0-2.163-.415,3.442,3.442,0,0,0,.053,6.883,6.441,6.441,0,0,0,2.093-.346Z" transform="translate(-9.32 -5.465)" fill="#592b5b"/>
        <path id="Path_186652" data-name="Path 186652" d="M163.775,99.356l-3.7-11.657H163.5l1.228,4.584a39.285,39.285,0,0,1,.968,4.082h.035c.293-1.436.623-2.785.968-4.031l1.263-4.635h3.321L167.46,99.356Z" transform="translate(-9.997 -5.477)" fill="#592b5b"/>
        <rect id="Rectangle_45922" data-name="Rectangle 45922" width="48.712" height="55.678" transform="translate(78.218 107.007)" fill="#ffb74d"/>
        <rect id="Rectangle_45923" data-name="Rectangle 45923" width="14.644" height="25.619" transform="translate(94.934 137.066)" fill="#ffb9a9"/>
        <path id="Path_186653" data-name="Path 186653" d="M115.9,152.449c-6.2,1.2-11.339.6-14.644-3.126V146.2H115.9Z" transform="translate(-6.324 -9.131)" fill="#f28e81"/>
        <path id="Path_186654" data-name="Path 186654" d="M85.95,172.378h44.14l.919-10.163c.25-3.023-1.5-4.691-4.63-5.33L115,155.2c-3.7,2.619-10.738,2.74-14.878,0l-10.464,1.682c-3.132.638-4.88,2.307-4.63,5.33Z" transform="translate(-5.309 -9.693)" fill="#fff"/>
        <path id="Path_186655" data-name="Path 186655" d="M83.428,172.483h7.939l-1.345-15.592a14.428,14.428,0,0,0-6.594,2.874Z" transform="translate(-5.21 -9.799)" fill="#fff"/>
        <path id="Path_186656" data-name="Path 186656" d="M134.849,159.61a12.905,12.905,0,0,0-6.434-2.719l-1.345,15.592h7.78Z" transform="translate(-7.936 -9.799)" fill="#fff"/>
        <path id="Path_186657" data-name="Path 186657" d="M106.685,172.507h4.269l-.478-11.482,2.058-2.311-1.78-1.451-1.933.077-1.934-.077-1.78,1.451,2.058,2.311Z" transform="translate(-6.564 -9.822)" fill="#ea5770"/>
        <path id="Path_186658" data-name="Path 186658" d="M101.093,151.606l-2.469,3.75,5.676,5.082,2.572-3.529Z" transform="translate(-6.16 -9.469)" fill="#fff"/>
        <path id="Path_186659" data-name="Path 186659" d="M116.431,151.606l2.469,3.75-5.676,5.082-2.572-3.529Z" transform="translate(-6.911 -9.469)" fill="#fff"/>
        <path id="Path_186660" data-name="Path 186660" d="M104.339,161.192l-5.965-5.341.469-.523,5.386,4.822.688-.944.568.413Z" transform="translate(-6.144 -9.701)" fill="#edcbc3"/>
        <path id="Path_186661" data-name="Path 186661" d="M113.253,161.188l-1.214-1.666.568-.413.761,1.044,5.515-4.828.463.529Z" transform="translate(-6.997 -9.701)" fill="#edcbc3"/>
        <path id="Path_186662" data-name="Path 186662" d="M99.112,137.6s-1.277-3.193-3.322-1.736.007,6.508,2.773,7,.548-5.266.548-5.266" transform="translate(-5.931 -8.462)" fill="#ffb9a9"/>
        <path id="Path_186663" data-name="Path 186663" d="M118.689,137.6s1.277-3.193,3.322-1.736-.008,6.508-2.773,7-.548-5.266-.548-5.266" transform="translate(-7.36 -8.462)" fill="#ffb9a9"/>
        <path id="Path_186664" data-name="Path 186664" d="M96.607,140.358c-.534-.783-1.067-2.331-.512-3.167a1.4,1.4,0,0,1,1.605-.471l-.141.688c-.446-.092-.743-.032-.878.173-.31.468.018,1.664.506,2.38Z" transform="translate(-5.987 -8.535)" fill="#e07c68"/>
        <path id="Path_186665" data-name="Path 186665" d="M121.625,140.358l-.58-.4c.488-.716.817-1.913.506-2.38-.136-.2-.431-.264-.878-.173l-.141-.688a1.4,1.4,0,0,1,1.605.471c.555.836.022,2.384-.512,3.167" transform="translate(-7.528 -8.535)" fill="#e07c68"/>
        <path id="Path_186666" data-name="Path 186666" d="M108.818,150.12h-.845a9.685,9.685,0,0,1-9.656-9.656v-8.894a9.685,9.685,0,0,1,9.656-9.656h.845a9.685,9.685,0,0,1,9.656,9.656v8.894a9.685,9.685,0,0,1-9.656,9.656" transform="translate(-6.14 -7.614)" fill="#ffb9a9"/>
        <path id="Path_186667" data-name="Path 186667" d="M118.082,139.511c-.158-2.014-.369-4.766,1.385-5.086l.5-3.4c.376-1.546-.218-2.543-.839-2.8,2.205-2.215,1.738-5.593-.4-9.7-7.353,1.4-14.817,2.783-18.155,4.453-2.261,1.334-2.833,3.087-3.184,5.243-1.067.192-1.152,1.752-1.057,2.481l.415,3.72c2.032-.134,2.117,2.129,2,5.086,1.361,0,1.135-4.2,1.135-4.2l-.008-6.24h16.54l.243,6.26s-.082,4.184,1.419,4.184" transform="translate(-6.015 -7.403)" fill="#592b5b"/>
        <path id="Path_186668" data-name="Path 186668" d="M104.792,138.573a.659.659,0,1,1-.659-.659.659.659,0,0,1,.659.659" transform="translate(-6.462 -8.613)" fill="#592b5b"/>
        <path id="Path_186669" data-name="Path 186669" d="M114.921,138.573a.659.659,0,1,1-.659-.659.659.659,0,0,1,.659.659" transform="translate(-7.095 -8.613)" fill="#592b5b"/>
        <path id="Path_186670" data-name="Path 186670" d="M105.63,136.473c0,.343-3.08.343-3.08,0s.689-.621,1.539-.621,1.54.277,1.54.621" transform="translate(-6.405 -8.485)" fill="#592b5b"/>
        <path id="Path_186671" data-name="Path 186671" d="M115.721,136.472c0,.34-3.057.34-3.057,0s.684-.617,1.528-.617,1.529.277,1.529.617" transform="translate(-7.036 -8.485)" fill="#592b5b"/>
        <path id="Path_186672" data-name="Path 186672" d="M108.8,142.728a1.207,1.207,0,0,1-.773-.654.386.386,0,0,0-.537.079l-.533-.458a1.106,1.106,0,0,1,1.57-.127l.1.141c.039.095.169.3.31.332Z" transform="translate(-6.68 -8.825)" fill="#ea8c73"/>
        <path id="Path_186673" data-name="Path 186673" d="M109.57,142.728l-.141-.688c.142-.03.271-.237.311-.334l.1-.139a1.106,1.106,0,0,1,1.57.127l-.533.458a.387.387,0,0,0-.537-.079,1.2,1.2,0,0,1-.773.654" transform="translate(-6.834 -8.825)" fill="#ea8c73"/>
        <rect id="Rectangle_45924" data-name="Rectangle 45924" width="0.703" height="1.175" transform="translate(102.075 138.41)" fill="#ea8c73"/>
        <path id="Path_186674" data-name="Path 186674" d="M106.855,143.77a2.254,2.254,0,0,0,4.49,0Z" transform="translate(-6.674 -8.979)" fill="#fff"/>
        <path id="Path_186675" data-name="Path 186675" d="M114.247,133.2a4.62,4.62,0,0,0-4.436,3.388,2.534,2.534,0,0,0-2.5-.016,4.562,4.562,0,1,0,.2,1.254,4.568,4.568,0,0,0-.052-.509,1.857,1.857,0,0,1,2.219.011,4.615,4.615,0,1,0,4.576-4.129m-11.371,8.551a3.924,3.924,0,1,1,3.924-3.925,3.929,3.929,0,0,1-3.924,3.925m11.371,0a3.924,3.924,0,1,1,3.925-3.925,3.928,3.928,0,0,1-3.925,3.925" transform="translate(-6.136 -8.319)" fill="#fff"/>
        <path id="Path_186676" data-name="Path 186676" d="M132.468,170.141H83.054v-56.38h49.414Zm-48.712-.7h48.008V114.464H83.756Z" transform="translate(-5.187 -7.105)" fill="#f7e6df"/>
        <path id="Path_186677" data-name="Path 186677" d="M229.865,119.236H154.729a2.565,2.565,0,0,1,0-5.13h75.136a2.565,2.565,0,0,1,0,5.13m-75.136-4.427a1.862,1.862,0,0,0,0,3.724h75.136a1.862,1.862,0,0,0,0-3.724Z" transform="translate(-9.503 -7.126)" fill="#8b5991"/>
        <path id="Path_186678" data-name="Path 186678" d="M188.426,129.291h-33.7a2.565,2.565,0,0,1,0-5.13h33.7a2.565,2.565,0,1,1,0,5.13m-33.7-4.427a1.862,1.862,0,0,0,0,3.724h33.7a1.862,1.862,0,1,0,0-3.724Z" transform="translate(-9.503 -7.754)" fill="#8b5991"/>
        <path id="Path_186679" data-name="Path 186679" d="M97.6,197.991H84.921a1.765,1.765,0,0,1-1.763-1.763v-1.605a1.765,1.765,0,0,1,1.763-1.763H97.6a1.765,1.765,0,0,1,1.763,1.763v1.605a1.765,1.765,0,0,1-1.763,1.763m-12.677-4.427a1.061,1.061,0,0,0-1.059,1.059v1.605a1.061,1.061,0,0,0,1.059,1.059H97.6a1.06,1.06,0,0,0,1.059-1.059v-1.605a1.06,1.06,0,0,0-1.059-1.059Z" transform="translate(-5.194 -12.045)" fill="#ea5770"/>
        <path id="Path_186680" data-name="Path 186680" d="M97.6,211.264H84.921a1.765,1.765,0,0,1-1.763-1.763V207.9a1.765,1.765,0,0,1,1.763-1.763H97.6A1.765,1.765,0,0,1,99.36,207.9V209.5a1.765,1.765,0,0,1-1.763,1.763m-12.677-4.427a1.061,1.061,0,0,0-1.059,1.059V209.5a1.061,1.061,0,0,0,1.059,1.059H97.6a1.06,1.06,0,0,0,1.059-1.059V207.9a1.06,1.06,0,0,0-1.059-1.059Z" transform="translate(-5.194 -12.874)" fill="#ea5770"/>
        <path id="Path_186681" data-name="Path 186681" d="M97.6,224.536H84.921a1.765,1.765,0,0,1-1.763-1.763v-1.6a1.766,1.766,0,0,1,1.763-1.764H97.6a1.765,1.765,0,0,1,1.763,1.764v1.6a1.765,1.765,0,0,1-1.763,1.763m-12.677-4.427a1.061,1.061,0,0,0-1.059,1.06v1.6a1.061,1.061,0,0,0,1.059,1.059H97.6a1.06,1.06,0,0,0,1.059-1.059v-1.6a1.06,1.06,0,0,0-1.059-1.06Z" transform="translate(-5.194 -13.703)" fill="#ea5770"/>
        <rect id="Rectangle_45925" data-name="Rectangle 45925" width="56.79" height="0.703" transform="translate(165.395 134.495)" fill="#dbb3a7"/>
        <rect id="Rectangle_45926" data-name="Rectangle 45926" width="15.025" height="0.703" transform="translate(143.22 134.495)" fill="#dbb3a7"/>
        <rect id="Rectangle_45927" data-name="Rectangle 45927" width="14.743" height="0.703" transform="translate(207.442 143.837)" fill="#dbb3a7"/>
        <rect id="Rectangle_45928" data-name="Rectangle 45928" width="54.891" height="0.703" transform="translate(143.219 143.837)" fill="#dbb3a7"/>
        <rect id="Rectangle_45929" data-name="Rectangle 45929" width="35.827" height="0.703" transform="translate(186.358 153.18)" fill="#dbb3a7"/>
        <rect id="Rectangle_45930" data-name="Rectangle 45930" width="13.648" height="0.703" transform="translate(167.697 153.18)" fill="#dbb3a7"/>
        <rect id="Rectangle_45931" data-name="Rectangle 45931" width="19.062" height="0.703" transform="translate(143.22 153.18)" fill="#dbb3a7"/>
        <rect id="Rectangle_45932" data-name="Rectangle 45932" width="27.224" height="0.703" transform="translate(194.961 162.523)" fill="#dbb3a7"/>
        <rect id="Rectangle_45933" data-name="Rectangle 45933" width="40.715" height="0.703" transform="translate(143.219 162.523)" fill="#dbb3a7"/>
        <rect id="Rectangle_45934" data-name="Rectangle 45934" width="23.933" height="0.703" transform="translate(196.294 185.243)" fill="#dbb3a7"/>
        <rect id="Rectangle_45935" data-name="Rectangle 45935" width="35.961" height="0.703" transform="translate(150.396 185.243)" fill="#dbb3a7"/>
        <rect id="Rectangle_45936" data-name="Rectangle 45936" width="34.537" height="0.703" transform="translate(100.504 185.243)" fill="#dbb3a7"/>
        <rect id="Rectangle_45937" data-name="Rectangle 45937" width="41.927" height="0.703" transform="translate(178.3 197.686)" fill="#dbb3a7"/>
        <rect id="Rectangle_45938" data-name="Rectangle 45938" width="46.968" height="0.703" transform="translate(125.515 197.686)" fill="#dbb3a7"/>
        <rect id="Rectangle_45939" data-name="Rectangle 45939" width="17.269" height="0.703" transform="translate(100.504 197.686)" fill="#dbb3a7"/>
        <rect id="Rectangle_45940" data-name="Rectangle 45940" width="12.785" height="0.703" transform="translate(207.441 210.13)" fill="#dbb3a7"/>
        <rect id="Rectangle_45941" data-name="Rectangle 45941" width="33.443" height="0.703" transform="translate(164.668 210.13)" fill="#dbb3a7"/>
        <rect id="Rectangle_45942" data-name="Rectangle 45942" width="56.53" height="0.703" transform="translate(100.504 210.13)" fill="#dbb3a7"/>
        <rect id="Rectangle_45943" data-name="Rectangle 45943" width="106.255" height="0.703" transform="translate(77.497 271.771)" fill="#dbb3a7"/>
        <path id="Path_186682" data-name="Path 186682" d="M120.543,246.019H85.933a2.775,2.775,0,1,1,0-5.55h34.609a2.775,2.775,0,0,1,0,5.55m-34.609-4.847a2.072,2.072,0,0,0,0,4.144h34.609a2.072,2.072,0,0,0,0-4.144Z" transform="translate(-5.194 -15.018)" fill="#8b5991"/>
        <path id="Path_186683" data-name="Path 186683" d="M198.123,246.019H136.277a2.775,2.775,0,0,1,0-5.55h61.846a2.775,2.775,0,0,1,0,5.55m-61.846-4.847a2.072,2.072,0,0,0,0,4.144h61.846a2.072,2.072,0,0,0,0-4.144Z" transform="translate(-8.338 -15.018)" fill="#8b5991"/>
        <rect id="Rectangle_45944" data-name="Rectangle 45944" width="144.772" height="0.703" transform="translate(78.01 260.171)" fill="#dbb3a7"/>
        <path id="Path_186684" data-name="Path 186684" d="M190.271,74.292H124.863a2.919,2.919,0,0,1-2.917-2.917V63.3a2.919,2.919,0,0,1,2.917-2.917h65.408a2.921,2.921,0,0,1,2.918,2.917v8.079a2.921,2.921,0,0,1-2.918,2.917M124.863,61.083a2.216,2.216,0,0,0-2.214,2.214v8.079a2.216,2.216,0,0,0,2.214,2.214h65.408a2.217,2.217,0,0,0,2.214-2.214V63.3a2.217,2.217,0,0,0-2.214-2.214Z" transform="translate(-7.616 -3.771)" fill="#e2cfc7"/>
        <path id="Path_186685" data-name="Path 186685" d="M362.077,319.252H108.945a6.2,6.2,0,0,1-6.2-6.2V153.718a6.2,6.2,0,0,1,6.2-6.2H362.077a6.2,6.2,0,0,1,6.2,6.2V313.051a6.2,6.2,0,0,1-6.2,6.2" transform="translate(-6.417 -9.213)" fill="#592b5b"/>
        <rect id="Rectangle_45945" data-name="Rectangle 45945" width="243.835" height="153.067" transform="translate(107.177 147.638)" fill="#fff"/>
        <rect id="Rectangle_45946" data-name="Rectangle 45946" width="243.835" height="153.067" transform="translate(107.177 147.638)" fill="#efe1dc"/>
        <rect id="Rectangle_45947" data-name="Rectangle 45947" width="243.835" height="5.224" transform="translate(107.177 147.637)" fill="#fff"/>
        <path id="Path_186686" data-name="Path 186686" d="M70.932,330.833c.162,4.94,3.924,8.928,8.51,8.928H361.867c4.586,0,8.348-3.988,8.51-8.928Z" transform="translate(-4.43 -20.662)" fill="#592b5b"/>
        <rect id="Rectangle_45948" data-name="Rectangle 45948" width="253.133" height="0.703" transform="translate(102.528 309.687)" fill="#8b5991"/>
        <path id="Path_186687" data-name="Path 186687" d="M244.2,154.287a2.377,2.377,0,1,1,2.378-2.377,2.38,2.38,0,0,1-2.378,2.377m0-4.051a1.674,1.674,0,1,0,1.674,1.674,1.676,1.676,0,0,0-1.674-1.674" transform="translate(-15.103 -9.339)" fill="#8b5991"/>
        <path id="Path_186688" data-name="Path 186688" d="M119.094,160.027a1.115,1.115,0,1,1-1.115-1.115,1.114,1.114,0,0,1,1.115,1.115" transform="translate(-7.299 -9.925)" fill="#ffb43b"/>
        <path id="Path_186689" data-name="Path 186689" d="M123.769,160.027a1.115,1.115,0,1,1-1.115-1.115,1.114,1.114,0,0,1,1.115,1.115" transform="translate(-7.591 -9.925)" fill="#ffb43b"/>
        <path id="Path_186690" data-name="Path 186690" d="M128.445,160.027a1.115,1.115,0,1,1-1.115-1.115,1.114,1.114,0,0,1,1.115,1.115" transform="translate(-7.883 -9.925)" fill="#ffb43b"/>
        <rect id="Rectangle_45949" data-name="Rectangle 45949" width="46.802" height="65.815" transform="translate(207.733 173.895)" fill="#ffb9a9"/>
        <path id="Path_186691" data-name="Path 186691" d="M268.372,214.909c-32.2,12.257-46.8,1.584-46.8,1.584V185.48h46.8Z" transform="translate(-13.838 -11.584)" fill="#f28e81"/>
        <path id="Path_186692" data-name="Path 186692" d="M370.168,276.5c-2.439-6.695-4-10.914-4.238-11.4a31.133,31.133,0,0,0-58.517,20.017l-.278.07,1.566,4.295,9.26,26.678h52.207Z" transform="translate(-19.155 -15.453)" fill="#ffb9a9"/>
        <path id="Path_186693" data-name="Path 186693" d="M181.776,278.523A31.143,31.143,0,0,0,122.555,265.1c-.346.719-3.573,9.522-8.239,22.436v28.622h56.209l9.259-26.678,1.567-4.295-.278-.069a31.074,31.074,0,0,0,.7-6.594" transform="translate(-7.14 -15.453)" fill="#ffb9a9"/>
        <path id="Path_186694" data-name="Path 186694" d="M370.168,274.638c-2.6-6.369-4.312-10.528-4.488-10.894-5.149-10.735-17.873-20.1-30.633-22.187-17.168,0-28.338,19.453-28.338,36.6a31.016,31.016,0,0,0,.705,6.594l-.278.069,1.566,4.295,9.26,26.678h52.207Z" transform="translate(-19.155 -15.086)" fill="#fff"/>
        <path id="Path_186695" data-name="Path 186695" d="M181.776,278.156c0-17.146-11.17-36.6-28.338-36.6-12.76,2.088-25.484,11.452-30.632,22.187-.256.532-3.73,9.024-8.489,20.7v31.349h56.209l9.26-26.678,1.565-4.295-.278-.069a31.015,31.015,0,0,0,.705-6.594" transform="translate(-7.14 -15.086)" fill="#fff"/>
        <path id="Path_186696" data-name="Path 186696" d="M352.865,315.012H124.875l-1.762-39.892s-3.845-25.16,28.906-33.866l1.477-.338v-.01l61.766-11.831c11.773,10.648,34.968,10.3,46.952,0l62.028,11.831v.01l1.478.338c32.752,8.706,28.905,33.866,28.905,33.866Z" transform="translate(-7.68 -14.307)" fill="#fff"/>
        <path id="Path_186697" data-name="Path 186697" d="M238.431,207.02l2.034.079c22.267,2.514,42.1-9.72,44.677-32.566l2.695-23.876c2.579-22.845-13.53-43.592-35.8-46.106l-2.018-.227c-22.267-2.514-42.595,14.12-45.174,36.965l-2.695,23.877c-2.579,22.845,14.01,39.34,36.276,41.854" transform="translate(-12.609 -6.5)" fill="#592b5b"/>
        <path id="Path_186698" data-name="Path 186698" d="M221.181,168.005c-.717,6.352-5.673,11.008-11.168,10.387-10.307,3.6-17.863-28.757-2.805-27.869,5.495.621,14.69,11.13,13.973,17.481" transform="translate(-12.411 -9.4)" fill="#ed968a"/>
        <path id="Path_186699" data-name="Path 186699" d="M234.2,213.837h0c19.555,2.207,42.1-11.429,44.308-30.958l3.738-33.112A25.107,25.107,0,0,0,260.155,122.1l-18.43-2.08c-15.283-1.725-27.257-7.824-28.98,7.438l-5.35,47.4c-2.205,19.529,9.128,36.99,26.8,38.984" transform="translate(-12.936 -7.329)" fill="#ffb9a9"/>
        <path id="Path_186700" data-name="Path 186700" d="M269.486,173.543a11.5,11.5,0,0,0,10.126,12.791c10.786,5.978,27.109-23.681,9.872-26.438-6.36-.718-19.282,7.3-20,13.647" transform="translate(-16.826 -9.983)" fill="#ffb9a9"/>
        <path id="Path_186701" data-name="Path 186701" d="M283.521,180.524c-.119,0-.24,0-.362-.007l.037-.938c6.605.266,9.307-7.47,9.533-10.314a3.288,3.288,0,0,0-1.43-3.07,4.885,4.885,0,0,0-4.905.026l-.415-.841a5.8,5.8,0,0,1,5.846.038,4.254,4.254,0,0,1,1.839,3.919c-.24,3.034-3.091,11.185-10.141,11.185" transform="translate(-17.685 -10.281)" fill="#ea8c73"/>
        <path id="Path_186702" data-name="Path 186702" d="M289.835,177.595a4.682,4.682,0,0,0-5.531-1.248l-.352-.87a5.692,5.692,0,0,1,6.625,1.547Z" transform="translate(-17.734 -10.929)" fill="#ea8c73"/>
        <path id="Path_186703" data-name="Path 186703" d="M210.087,146.613s-1.809-1.325-5.783-.26l-.486-12.106c-.761-5.566,1.8-8.81,4.168-9.464,0,0-2.746-1.293-5.1-8.744S207.6,88.885,207.6,88.885c29.757,7.422,59.844,14.793,70.167,25.183,7.725,5.6,9.119,11.979,9.549,19.67,3.819,1.113,6.663,5.387,5.56,9.423L288.591,156.5c-7.8-1.539-12.121,2.971-13.322,15.9-6.562-.741-3.537-15.305-3.537-15.305l2.5-21.846L212.67,128.3Z" transform="translate(-12.641 -5.551)" fill="#592b5b"/>
        <path id="Path_186704" data-name="Path 186704" d="M257.177,168.68a2.446,2.446,0,1,0,2.7-2.153,2.443,2.443,0,0,0-2.7,2.153" transform="translate(-16.061 -10.399)" fill="#592b5b"/>
        <path id="Path_186705" data-name="Path 186705" d="M219.812,164.462a2.446,2.446,0,1,0,2.7-2.153,2.443,2.443,0,0,0-2.7,2.153" transform="translate(-13.727 -10.136)" fill="#592b5b"/>
        <path id="Path_186706" data-name="Path 186706" d="M254.529,160.562c-.143,1.264,11.22,2.546,11.362,1.283s-2.286-2.575-5.423-2.929-5.8.383-5.939,1.646" transform="translate(-15.896 -9.919)" fill="#592b5b"/>
        <path id="Path_186707" data-name="Path 186707" d="M217.309,156.357c-.142,1.254,11.137,2.528,11.279,1.273s-2.268-2.556-5.382-2.907-5.755.38-5.9,1.634" transform="translate(-13.572 -9.658)" fill="#592b5b"/>
        <path id="Path_186708" data-name="Path 186708" d="M240.441,181.535l-.084-.934c1.143-.1,1.938-1.51,1.944-1.524l.058-.106.1-.066a3.266,3.266,0,0,1,4.6.888l-.775.529a2.332,2.332,0,0,0-3.227-.681,3.835,3.835,0,0,1-2.616,1.894" transform="translate(-15.011 -11.137)" fill="#ea8c73"/>
        <path id="Path_186709" data-name="Path 186709" d="M237.966,181.242a3.839,3.839,0,0,1-2.128-2.429,2.314,2.314,0,0,0-3.3-.055l-.638-.689a3.264,3.264,0,0,1,4.679.159l.084.085.033.116c0,.016.456,1.563,1.557,1.921Z" transform="translate(-14.483 -11.063)" fill="#ea8c73"/>
        <rect id="Rectangle_45950" data-name="Rectangle 45950" width="4.354" height="0.938" transform="translate(221.539 191.979) rotate(-83.629)" fill="#ea8c73"/>
        <path id="Path_186710" data-name="Path 186710" d="M246.647,186.858a8.368,8.368,0,0,1-16.563-1.869Z" transform="translate(-14.37 -11.553)" fill="#fff"/>
        <path id="Path_186711" data-name="Path 186711" d="M261.575,150.25a16.243,16.243,0,0,0-17.267,11.157,8.632,8.632,0,0,0-10.335-1.126,16.223,16.223,0,1,0-17.982,17.436,16.667,16.667,0,0,0,1.854.1,16.071,16.071,0,0,0,16.16-16.753c3.594-2.081,7.414-1.657,10.091,1.122a16.216,16.216,0,1,0,17.479-11.941m-28.343,13.107a15.524,15.524,0,1,1-15.458-17.243,15.7,15.7,0,0,1,1.774.1,15.528,15.528,0,0,1,13.684,17.143m41.95,4.735A15.521,15.521,0,1,1,261.5,150.948a15.525,15.525,0,0,1,13.685,17.143" transform="translate(-12.59 -9.081)" fill="#fff"/>
        <rect id="Rectangle_45951" data-name="Rectangle 45951" width="43.23" height="0.704" transform="translate(316.282 300.668) rotate(-83.728)" fill="#f7e5dc"/>
        <rect id="Rectangle_45952" data-name="Rectangle 45952" width="0.704" height="43.23" transform="translate(140.441 257.776) rotate(-6.319)" fill="#f7e5dc"/>
        <path id="Path_186712" data-name="Path 186712" d="M243.748,243.422a49.212,49.212,0,0,1-32.9-12.155l.471-.521c9.235,8.321,22.165,12.662,35.449,11.886,11.522-.666,21.744-5.15,28.047-12.305l.527.465c-6.424,7.3-16.824,11.867-28.533,12.542q-1.531.089-3.056.088" transform="translate(-13.168 -14.385)" fill="#f7e5dc"/>
        <path id="Path_186713" data-name="Path 186713" d="M258.03,295.335A12.335,12.335,0,1,1,245.7,283a12.334,12.334,0,0,1,12.334,12.334" transform="translate(-14.574 -17.675)" fill="#7cc46c"/>
        <path id="Path_186714" data-name="Path 186714" d="M247.913,291.157h-8.232a1.351,1.351,0,0,0-1.218,1.446v6.484a1.351,1.351,0,0,0,1.218,1.446h8.232a1.35,1.35,0,0,0,1.218-1.446V292.6a1.35,1.35,0,0,0-1.218-1.446" transform="translate(-14.893 -18.184)" fill="#fff"/>
        <path id="Path_186715" data-name="Path 186715" d="M253.076,292.649l-1.528,1.529a.958.958,0,0,0-.282.68v2.125a.958.958,0,0,0,.282.68l1.528,1.529a.959.959,0,0,0,1.638-.679v-5.186a.959.959,0,0,0-1.638-.679" transform="translate(-15.693 -18.26)" fill="#fff"/>
        <path id="Path_186716" data-name="Path 186716" d="M210.3,295.335A12.335,12.335,0,1,1,197.97,283,12.334,12.334,0,0,1,210.3,295.335" transform="translate(-11.594 -17.675)" fill="#7cc46c"/>
        <path id="Path_186717" data-name="Path 186717" d="M203.153,296.543h-.966a3.708,3.708,0,1,1-7.415,0h-.966a4.662,4.662,0,0,0,4.19,4.624v1.305h-1.92v.966h4.806v-.966h-1.92v-1.305a4.663,4.663,0,0,0,4.191-4.624" transform="translate(-12.104 -18.521)" fill="#fff"/>
        <path id="Path_186718" data-name="Path 186718" d="M198.624,298.828h0a3,3,0,0,1-2.989-2.989v-5.215a2.989,2.989,0,1,1,5.978,0v5.215a3,3,0,0,1-2.989,2.989" transform="translate(-12.218 -17.964)" fill="#fff"/>
        <path id="Path_186719" data-name="Path 186719" d="M305.754,295.335A12.335,12.335,0,1,1,293.419,283a12.334,12.334,0,0,1,12.334,12.334" transform="translate(-17.555 -17.675)" fill="#ea5770"/>
        <path id="Path_186720" data-name="Path 186720" d="M291.629,289l.5,4.562-1.765.615A8.085,8.085,0,0,0,295,299.217l.853-1.746,4.582.814s-.157,3.608-2.717,4.2c-3.412.456-6.268-1.765-7.736-3.611s-3.848-5.85-2.479-8.27c1.153-1.647,4.125-1.607,4.125-1.607" transform="translate(-17.93 -18.05)" fill="#fff"/>
        <path id="Path_186721" data-name="Path 186721" d="M64.047,260.7a16.266,16.266,0,0,0-18.92-.075S1.915,291.8,1.228,292.891A7.939,7.939,0,0,0,0,297.138v56.189a8.054,8.054,0,0,0,8.03,8.03h93.152a8.054,8.054,0,0,0,8.03-8.03V297.138a7.979,7.979,0,0,0-1.94-5.215c-.782-.91-43.225-31.224-43.225-31.224" transform="translate(0 -16.09)" fill="#ffb74d"/>
        <rect id="Rectangle_45953" data-name="Rectangle 45953" width="48.192" height="0.938" transform="matrix(0.547, -0.837, 0.837, 0.547, 5.566, 339.328)" fill="#f49d2a"/>
        <rect id="Rectangle_45954" data-name="Rectangle 45954" width="0.938" height="48.192" transform="translate(75.647 299.491) rotate(-33.161)" fill="#f49d2a"/>
        <path id="Path_186722" data-name="Path 186722" d="M54.8,329.984a16.886,16.886,0,0,1-9.491-2.9L4.354,299.274l.528-.776,40.955,27.813a16.051,16.051,0,0,0,18.028-.067L104.04,298.5l.533.771L64.4,327.014a16.884,16.884,0,0,1-9.6,2.969" transform="translate(-0.272 -18.643)" fill="#f49d2a"/>
        <path id="Path_186723" data-name="Path 186723" d="M107.267,224.818a7.259,7.259,0,0,1,7.258,7.217v30.412H100.009V232.035a7.259,7.259,0,0,1,7.258-7.217" transform="translate(-6.246 -14.041)" fill="#e0bdaf"/>
        <path id="Path_186724" data-name="Path 186724" d="M102.052,224.818H23.771a7.264,7.264,0,0,0-7.256,6.893v70.137L46.333,322.1a16.529,16.529,0,0,0,18.558-.07L94.762,301.4v-45.37h.032v-24a7.334,7.334,0,0,1,7.258-7.217" transform="translate(-1.031 -14.041)" fill="#fff"/>
        <rect id="Rectangle_45955" data-name="Rectangle 45955" width="7.371" height="0.703" transform="translate(76.04 220.667)" fill="#dbb3a7"/>
        <rect id="Rectangle_45956" data-name="Rectangle 45956" width="42.561" height="0.703" transform="translate(25.802 220.667)" fill="#dbb3a7"/>
        <rect id="Rectangle_45957" data-name="Rectangle 45957" width="28.805" height="0.703" transform="translate(54.605 229.781)" fill="#dbb3a7"/>
        <rect id="Rectangle_45958" data-name="Rectangle 45958" width="16.569" height="0.703" transform="translate(25.801 229.781)" fill="#dbb3a7"/>
        <rect id="Rectangle_45959" data-name="Rectangle 45959" width="57.609" height="0.703" transform="translate(25.801 238.895)" fill="#dbb3a7"/>
        <rect id="Rectangle_45960" data-name="Rectangle 45960" width="17.103" height="0.703" transform="translate(66.308 248.01)" fill="#dbb3a7"/>
        <rect id="Rectangle_45961" data-name="Rectangle 45961" width="31.091" height="0.703" transform="translate(25.801 248.01)" fill="#dbb3a7"/>
        <rect id="Rectangle_45962" data-name="Rectangle 45962" width="4.336" height="0.703" transform="translate(79.074 257.123)" fill="#dbb3a7"/>
        <rect id="Rectangle_45963" data-name="Rectangle 45963" width="48.326" height="0.703" transform="translate(25.801 257.123)" fill="#dbb3a7"/>
        <rect id="Rectangle_45964" data-name="Rectangle 45964" width="16.146" height="0.703" transform="translate(67.264 266.237)" fill="#dbb3a7"/>
        <rect id="Rectangle_45965" data-name="Rectangle 45965" width="34.282" height="0.703" transform="translate(25.801 266.237)" fill="#dbb3a7"/>
        <rect id="Rectangle_45966" data-name="Rectangle 45966" width="6.411" height="0.703" transform="translate(77 275.351)" fill="#dbb3a7"/>
        <rect id="Rectangle_45967" data-name="Rectangle 45967" width="44.496" height="0.703" transform="translate(25.801 275.351)" fill="#dbb3a7"/>
        <rect id="Rectangle_45968" data-name="Rectangle 45968" width="27.794" height="0.703" transform="translate(55.616 284.464)" fill="#dbb3a7"/>
        <rect id="Rectangle_45969" data-name="Rectangle 45969" width="45.186" height="0.703" transform="translate(28.462 293.578)" fill="#dbb3a7"/>
        <rect id="Rectangle_45970" data-name="Rectangle 45970" width="16.042" height="0.703" transform="translate(40.85 302.693)" fill="#dbb3a7"/>
        <path id="Path_186725" data-name="Path 186725" d="M121.706,366.236H82.722a3.37,3.37,0,0,1-3.361-3.36V339.36A3.371,3.371,0,0,1,82.722,336h38.984a3.371,3.371,0,0,1,3.36,3.36v23.515a3.37,3.37,0,0,1-3.36,3.36" transform="translate(-4.956 -20.985)" fill="#fff"/>
        <path id="Path_186726" data-name="Path 186726" d="M102.289,351.774a7.018,7.018,0,0,1-4.064-1.3L81.085,338.326l.406-.573,17.14,12.152a6.324,6.324,0,0,0,7.357-.029L122.8,337.755l.412.569L106.4,350.445a7.025,7.025,0,0,1-4.112,1.329" transform="translate(-5.064 -21.094)" fill="#dbb3a7"/>
        <rect id="Rectangle_45971" data-name="Rectangle 45971" width="20.795" height="0.704" transform="matrix(0.53, -0.848, 0.848, 0.53, 76.603, 342.689)" fill="#dbb3a7"/>
        <rect id="Rectangle_45972" data-name="Rectangle 45972" width="0.704" height="20.795" transform="translate(105.929 325.43) rotate(-32.04)" fill="#dbb3a7"/>
        <path id="Path_186727" data-name="Path 186727" d="M130.516,338.23a5.347,5.347,0,1,1-5.347-5.347,5.346,5.346,0,0,1,5.347,5.347" transform="translate(-7.483 -20.79)" fill="#ea5770"/>
        <path id="Path_186728" data-name="Path 186728" d="M126.237,341.544h-.7V339.22h-3.28l3.984-4.771v4.068h.742v.7h-.742Zm-2.48-3.027h1.777v-2.128Z" transform="translate(-7.635 -20.888)" fill="#fff"/>
        <path id="Path_186729" data-name="Path 186729" d="M378.561,89.128H254.992l-6.432,6.956-.186-6.956h-4.5a6.166,6.166,0,0,1-6.165-6.165V52.727a6.166,6.166,0,0,1,6.165-6.165h134.69a6.165,6.165,0,0,1,6.165,6.165V82.963a6.165,6.165,0,0,1-6.165,6.165" transform="translate(-14.846 -2.908)" fill="#fff"/>
        <rect id="Rectangle_45973" data-name="Rectangle 45973" width="24.339" height="0.661" transform="translate(332.844 52.644)" fill="#dbb3a7"/>
        <rect id="Rectangle_45974" data-name="Rectangle 45974" width="31.651" height="0.661" transform="translate(284.534 52.644)" fill="#dbb3a7"/>
        <rect id="Rectangle_45975" data-name="Rectangle 45975" width="15.964" height="0.661" transform="translate(262.924 52.644)" fill="#dbb3a7"/>
        <rect id="Rectangle_45976" data-name="Rectangle 45976" width="57.934" height="0.661" transform="translate(299.249 60.432)" fill="#dbb3a7"/>
        <rect id="Rectangle_45977" data-name="Rectangle 45977" width="27.718" height="0.661" transform="translate(262.924 60.432)" fill="#dbb3a7"/>
        <rect id="Rectangle_45978" data-name="Rectangle 45978" width="22.674" height="0.661" transform="translate(334.509 68.222)" fill="#dbb3a7"/>
        <rect id="Rectangle_45979" data-name="Rectangle 45979" width="61.033" height="0.661" transform="translate(262.925 68.222)" fill="#dbb3a7"/>
        <rect id="Rectangle_45980" data-name="Rectangle 45980" width="20.545" height="0.661" transform="translate(301.378 76.011)" fill="#dbb3a7"/>
        <rect id="Rectangle_45981" data-name="Rectangle 45981" width="31.882" height="0.661" transform="translate(262.924 76.011)" fill="#dbb3a7"/>
        <path id="Path_186730" data-name="Path 186730" d="M258.339,80.179a12.014,12.014,0,1,1,12.015-12.015,12.028,12.028,0,0,1-12.015,12.015m0-23.367a11.353,11.353,0,1,0,11.354,11.353,11.366,11.366,0,0,0-11.354-11.353" transform="translate(-15.384 -3.507)" fill="#dbb3a7"/>
        <path id="Path_186731" data-name="Path 186731" d="M266.975,77.121h-.661a7.033,7.033,0,0,0-7.025-7.025h-1.417a7.033,7.033,0,0,0-7.026,7.025h-.661a7.7,7.7,0,0,1,7.687-7.686h1.417a7.7,7.7,0,0,1,7.686,7.686" transform="translate(-15.625 -4.337)" fill="#dbb3a7"/>
        <path id="Path_186732" data-name="Path 186732" d="M258.864,67.463a4.125,4.125,0,1,1,4.125-4.125,4.13,4.13,0,0,1-4.125,4.125m0-7.589a3.464,3.464,0,1,0,3.464,3.464,3.468,3.468,0,0,0-3.464-3.464" transform="translate(-15.91 -3.698)" fill="#dbb3a7"/>
        <path id="Path_186733" data-name="Path 186733" d="M183.5,42.566H59.936L53.5,49.522l-.186-6.956h-4.5A6.165,6.165,0,0,1,42.65,36.4V6.165A6.165,6.165,0,0,1,48.814,0H183.5a6.165,6.165,0,0,1,6.165,6.165V36.4a6.165,6.165,0,0,1-6.165,6.165" transform="translate(-2.664)" fill="#fff"/>
        <rect id="Rectangle_45982" data-name="Rectangle 45982" width="24.339" height="0.661" transform="translate(151.135 9.18)" fill="#dbb3a7"/>
        <rect id="Rectangle_45983" data-name="Rectangle 45983" width="31.651" height="0.661" transform="translate(102.826 9.18)" fill="#dbb3a7"/>
        <rect id="Rectangle_45984" data-name="Rectangle 45984" width="15.965" height="0.661" transform="translate(81.217 9.18)" fill="#dbb3a7"/>
        <rect id="Rectangle_45985" data-name="Rectangle 45985" width="57.933" height="0.661" transform="translate(117.541 16.969)" fill="#dbb3a7"/>
        <rect id="Rectangle_45986" data-name="Rectangle 45986" width="27.718" height="0.661" transform="translate(81.217 16.969)" fill="#dbb3a7"/>
        <rect id="Rectangle_45987" data-name="Rectangle 45987" width="22.674" height="0.661" transform="translate(152.8 24.758)" fill="#dbb3a7"/>
        <rect id="Rectangle_45988" data-name="Rectangle 45988" width="61.034" height="0.661" transform="translate(81.217 24.758)" fill="#dbb3a7"/>
        <rect id="Rectangle_45989" data-name="Rectangle 45989" width="20.545" height="0.661" transform="translate(119.669 32.547)" fill="#dbb3a7"/>
        <rect id="Rectangle_45990" data-name="Rectangle 45990" width="31.882" height="0.661" transform="translate(81.217 32.547)" fill="#dbb3a7"/>
        <path id="Path_186734" data-name="Path 186734" d="M64.971,33.023A12.014,12.014,0,1,1,76.984,21.01,12.028,12.028,0,0,1,64.971,33.023m0-23.367A11.353,11.353,0,1,0,76.323,21.01,11.366,11.366,0,0,0,64.971,9.656" transform="translate(-3.307 -0.562)" fill="#dbb3a7"/>
        <path id="Path_186735" data-name="Path 186735" d="M73.607,29.966h-.661a7.033,7.033,0,0,0-7.026-7.025H64.5a7.033,7.033,0,0,0-7.025,7.025h-.661A7.7,7.7,0,0,1,64.5,22.28H65.92a7.7,7.7,0,0,1,7.687,7.686" transform="translate(-3.548 -1.391)" fill="#dbb3a7"/>
        <path id="Path_186736" data-name="Path 186736" d="M65.5,20.307a4.125,4.125,0,1,1,4.124-4.124A4.13,4.13,0,0,1,65.5,20.307m0-7.588a3.464,3.464,0,1,0,3.463,3.464A3.469,3.469,0,0,0,65.5,12.719" transform="translate(-3.833 -0.753)" fill="#dbb3a7"/>
      </g>
    </g>
  </g>
</svg>
