<svg xmlns="http://www.w3.org/2000/svg" xmlns:xlink="http://www.w3.org/1999/xlink" width="214" height="141" viewBox="0 0 214 141">
  <defs>
    <clipPath id="clip-path">
      <rect id="Rectangle_47389" data-name="Rectangle 47389" width="132.44" height="129.254" fill="none"/>
    </clipPath>
  </defs>
  <g id="_43" data-name="43" transform="translate(-749 -10408)">
    <rect id="Rectangle_47329" data-name="Rectangle 47329" width="214" height="141" rx="12" transform="translate(749 10408)" fill="#fc5f65"/>
    <g id="Group_176431" data-name="Group 176431" transform="translate(790 10414)">
      <g id="Group_176430" data-name="Group 176430" clip-path="url(#clip-path)">
        <path id="Path_189522" data-name="Path 189522" d="M130.818,89.294c0,6.215-.014,12.43.039,18.645.009,1.014-.372,1.152-1.249,1.147-6.574-.032-13.148-.017-19.722-.017q-53.56,0-107.119.036c-1.391,0-1.7-.363-1.671-1.7.09-4.322.036-8.646.03-12.97A3.332,3.332,0,0,0,1,92.969c.05-.326.322-.409.572-.5A79.465,79.465,0,0,1,22.5,88.079c12.139-.9,23.567,1.76,34.766,6.155a66.466,66.466,0,0,0,23.079,4.457,104.811,104.811,0,0,0,10.494-.3,2.746,2.746,0,0,0,2.054-.843c.674-1.109,1.763-1.174,2.887-1.149a1.831,1.831,0,0,1,.661.44c.951.742,1.36.645,1.956-.461a1.666,1.666,0,0,1,.3-.446c.921-.412,1.833-.891,2.862-.318a2.259,2.259,0,0,0,2.167.309c6.825-1.77,13.641-3.573,20.459-5.364q2.607-.684,5.223-1.326c.467-.116.959-.317,1.412.064" transform="translate(0.229 20.149)" fill="#efbf20"/>
        <path id="Path_189523" data-name="Path 189523" d="M93.556,114.107c-.364.825-1.1.975-1.887,1.055a75.127,75.127,0,0,1-36.1-4.8,74.16,74.16,0,0,0-29.97-5.62,72.7,72.7,0,0,0-22.56,4.141c-.588.21-1.207.337-1.811.5a1.365,1.365,0,0,1-1.2-1.251c-.085-.972.693-1.249,1.351-1.614a3.19,3.19,0,0,1,1.635-.881A75.138,75.138,0,0,1,17.3,102.32c2.054-.267,2.052-.294,2.054-2.306,0-2.741.006-5.482,0-8.225,0-1.691-.042-1.72-1.717-2.194-4.928-1.4-9.893-2.66-14.824-4.043a2.3,2.3,0,0,1-1.423-.687C.735,84.558.02,84.3.017,83.406s.611-1.234,1.341-1.46c.533-.366,1.045-.061,1.549.07C7.862,83.308,12.8,84.681,17.743,86c1.533.411,1.612.358,1.615-1.227.009-3.775-.021-7.549.017-11.324A2.858,2.858,0,0,0,18.14,70.94c-4.584-3.508-9.606-3.532-14.288-.074-.751.554-1.308,1.561-2.492,1.35-1.6-.685-1.78-1.53-.574-2.737.216-.218.417-.451.624-.676,1.336-1.959,3.454-2.7,5.541-3.347a13.808,13.808,0,0,1,11.435,1.419,1.168,1.168,0,0,0,.766.291c.35-.36.163-.831.178-1.251.1-2.741-.187-5.49.2-8.223.176-1.237-.634-1.285-1.509-1.285q-7.355,0-14.71,0a3.118,3.118,0,0,1-1.959-.326c-.862-.166-1.45-.639-1.31-1.56.151-.988.924-1.2,1.824-1.195,5.538.014,11.075-.043,16.612.044,1.277.02,1.637-.345,1.761-1.572a54.916,54.916,0,0,1,11.406-28.37,50.738,50.738,0,0,1,5.236-5.815,3.983,3.983,0,0,1,5.989.02A55.268,55.268,0,0,1,59.209,49.411a25.823,25.823,0,0,1,.344,2.81c.041.923.42,1.133,1.321,1.13,8.734-.039,17.467-.016,26.2-.034,1.04,0,1.892.155,2.144,1.344.322,1.035-.38,1.377-1.143,1.614a6.333,6.333,0,0,1-1.881.116q-12.086,0-24.173,0c-1.926,0-1.9.063-1.75,2,.258,3.414.069,6.839.1,10.259.023,2.359.128,2.564,2.371,3.214a11.563,11.563,0,0,0,11.815-2.989A14.545,14.545,0,0,1,92.742,67.3a22.377,22.377,0,0,1,2.833,2.289,11.315,11.315,0,0,0,15.343-.336,14.632,14.632,0,0,1,19.248-1.485,2.687,2.687,0,0,1,.844,1.036c.178.193.348.395.536.578,1.316,1.287,1.195,2.006-.486,2.828-.682.237-1.094-.25-1.545-.6a17.466,17.466,0,0,0-3.366-2.236,11.243,11.243,0,0,0-12.737,2.267c-4.289,4.04-9.265,5.09-14.865,3.568a16.116,16.116,0,0,1-6.274-3.856,11.1,11.1,0,0,0-15.507.163,14.835,14.835,0,0,1-15.231,3.61c-.948-.283-1.184-.053-1.178.883.029,4.547.007,9.094.017,13.641,0,1.462.122,1.553,1.57,1.316a76.822,76.822,0,0,0,15.917-4.629A76.117,76.117,0,0,1,129.3,84.712a2.889,2.889,0,0,1,1.742.943c.734.283,1.431.629,1.352,1.573a1.364,1.364,0,0,1-1.323,1.265c-.736.433-1.409.029-2.066-.2a68.9,68.9,0,0,0-18.889-3.721,72.48,72.48,0,0,0-23.919,2.6c-4.3,1.208-8.391,3-12.614,4.419A78.319,78.319,0,0,1,62.2,94.473c-1.725.3-1.8.4-1.809,2.2-.03,3.782.091,7.566-.069,11.346-.043,1.013.574,1.207,1.285,1.4a104.105,104.105,0,0,0,11.5,2.367,71.8,71.8,0,0,0,9.947.746,47.083,47.083,0,0,0,6.6-.3,11.416,11.416,0,0,1,2.289-.1c1.421.106,1.75.52,1.616,1.982" transform="translate(0 3.727)"/>
        <path id="Path_189524" data-name="Path 189524" d="M82.4,101.471c-.141-1.5-.438-1.8-1.954-1.648a75.947,75.947,0,0,1-15.625.052,97.444,97.444,0,0,1-15.2-2.908c-.695-.189-.934-.457-.928-1.185.039-4.321.027-8.641.032-12.962,0-.537-.1-1.039.73-1.142,7.921-.991,15.2-4.15,22.7-6.618a71.621,71.621,0,0,1,46.09.284c.552.184,1.114.343,1.671.514q-.013,7.163-.025,14.328c-.285.564-.863.606-1.372.74q-12.593,3.33-25.2,6.621c-1.269.331-2.4.7-2.9,2.043-.937-.49-1.737.345-2.631.272-1.648-.734-1.648-.734-2.778.54-.868.361-2.1-.168-2.61,1.072" transform="translate(11.16 16.364)" fill="#e7a51e"/>
        <path id="Path_189525" data-name="Path 189525" d="M119.877,76.026a78.225,78.225,0,0,0-24.061-4.272,77.336,77.336,0,0,0-30.383,5.828A68.244,68.244,0,0,1,49.75,81.89c-.568.084-1.055.29-1.049-.631.027-5.449.023-10.9.034-16.346a1.093,1.093,0,0,1,.125-.315,18.376,18.376,0,0,0,4.774,1.24,14.972,14.972,0,0,0,11.889-4.367A11.47,11.47,0,0,1,80.6,60.759c.568.44,1.088.945,1.625,1.422a14.328,14.328,0,0,0,19.505-.16c5.373-4.932,11.359-5,16.909-.186a4.29,4.29,0,0,0,1.262.751q-.011,6.719-.022,13.439" transform="translate(11.163 13.357)" fill="#efbf20"/>
        <path id="Path_189526" data-name="Path 189526" d="M119.857,61.649a16.789,16.789,0,0,0-7.522-3.4,13.826,13.826,0,0,0-11.791,3.68c-4.283,3.91-9.086,4.827-13.745,2.592a14.515,14.515,0,0,1-3.377-2.433c-6.037-5.423-13.984-5.393-19.972.063-4.043,3.682-9.064,4.522-13.577,2.342a1.856,1.856,0,0,1-1.181-1.977c.047-4.14.045-8.281-.031-12.42-.018-1.037.27-1.261,1.269-1.256,8.684.041,17.369.015,26.055.036,1.052,0,1.892-.157,2.08-1.38h2.621c1.394,1.264,1.394,1.264,2.785,0h2.621a4.862,4.862,0,0,0,3.4.928q14.07-.031,28.141,0c.779,0,1.636-.209,2.279.488q-.028,6.367-.058,12.735" transform="translate(11.154 10.888)" fill="#72c1e8"/>
        <path id="Path_189527" data-name="Path 189527" d="M1.126,72.073q6.964,1.84,13.93,3.683c1.171.31,2.327.692,3.511.948.736.16,1.057.443,1.049,1.248-.039,3.556-.02,7.114-.015,10.67,0,.565.018,1.015-.789,1.1A73.947,73.947,0,0,0,1.386,93.713a.956.956,0,0,1-.267.018l.007-21.659" transform="translate(0.256 16.521)" fill="#e7a51e"/>
        <path id="Path_189528" data-name="Path 189528" d="M1.107,62.583a4.5,4.5,0,0,0,1.656-1.121,11.573,11.573,0,0,1,16.024.093,2,2,0,0,1,.835,1.587q-.052,6.553,0,13.106c.007.9-.251,1.072-1.1.836-5.8-1.612-11.61-3.185-17.417-4.771q0-4.866,0-9.731" transform="translate(0.253 13.361)" fill="#efbf20"/>
        <path id="Path_189529" data-name="Path 189529" d="M102.918,20.785A12.986,12.986,0,1,1,90,7.776a13.007,13.007,0,0,1,12.914,13.009" transform="translate(17.638 1.782)"/>
        <path id="Path_189530" data-name="Path 189530" d="M1.1,48.659q8.841-.022,17.684-.049c.488,0,.873,0,.868.68-.021,3.775-.01,7.551-.01,11.592a15.621,15.621,0,0,0-6.262-2.827A14.387,14.387,0,0,0,2.049,60.79c-.29.208-.594.4-.891.6Q1.13,55.023,1.1,48.659" transform="translate(0.252 11.142)" fill="#71c1e8"/>
        <path id="Path_189531" data-name="Path 189531" d="M59.033,45.25A1.345,1.345,0,0,1,57.7,44.02c-.472-2.753-1.856-4.718-4.653-5.522a1.281,1.281,0,0,1-.939-1.334,1.34,1.34,0,0,1,1.071-1.382c2.667-.672,3.844-2.592,4.382-5.09.178-.828.511-1.6,1.519-1.616s1.388.708,1.568,1.551c.546,2.546,1.738,4.5,4.468,5.176a1.419,1.419,0,0,1,0,2.718c-2.784.7-3.942,2.752-4.512,5.315-.183.825-.58,1.409-1.571,1.414" transform="translate(11.945 6.665)"/>
        <path id="Path_189532" data-name="Path 189532" d="M112.935,49.164q-15.872-.022-31.742-.033c-1.052,0-1.894-.155-2.082-1.382a1.63,1.63,0,0,1,1.87-1.342q15.72.022,31.441,0c.9,0,1.671.209,1.822,1.194.141.919-.449,1.393-1.308,1.561" transform="translate(18.134 10.637)" fill="#010101"/>
        <path id="Path_189533" data-name="Path 189533" d="M82.644,96.083c-.3-1.458.621-1.846,1.774-2.146q13.855-3.608,27.7-7.257c.675.229,1.326.483,1.362,1.352.039.944-.718,1.194-1.358,1.544q-8.139,2.089-16.277,4.179c-3.69.953-7.38,1.907-11.057,2.91a1.742,1.742,0,0,1-2.14-.581" transform="translate(18.93 19.869)"/>
        <path id="Path_189534" data-name="Path 189534" d="M57.725,21.54c-.719,0-1.443.048-2.157-.014a1.293,1.293,0,0,1-.266-2.471c.638-.2,1.332-.221,1.1-1.233a1.707,1.707,0,0,0-1.345-1.491,1.64,1.64,0,0,0-1.938.854,2.78,2.78,0,0,0-.259.9c-.139.929-.685,1.39-1.586,1.223-.917-.17-1.175-.883-1.085-1.741a4.461,4.461,0,0,1,6.789-3.328,1.217,1.217,0,0,0,1.6.014,4.413,4.413,0,0,1,6.751,3.169c.113.892-.006,1.685-1.026,1.883s-1.479-.406-1.62-1.351A1.694,1.694,0,0,0,60.777,16.3a1.65,1.65,0,0,0-1.614,1.53c-.107.574-.133,1.036.695,1.112a1.223,1.223,0,0,1,1.184,1.5c-.117.865-.74,1.167-1.561,1.149-.585-.011-1.17,0-1.755,0V21.54" transform="translate(11.501 3.108)"/>
        <path id="Path_189535" data-name="Path 189535" d="M14.06,21.54c-.719,0-1.443.048-2.156-.014a1.148,1.148,0,0,1-1.066-1.195,1.177,1.177,0,0,1,.783-1.285c.594-.211,1.412-.124,1.13-1.192-.229-.867-.655-1.482-1.608-1.557A1.635,1.635,0,0,0,9.3,17.528a6.547,6.547,0,0,0-.138.66,1.258,1.258,0,0,1-1.548,1.133c-.875-.141-1.112-.789-1.087-1.6a4.417,4.417,0,0,1,6.639-3.549A1.469,1.469,0,0,0,15,14.193a4.457,4.457,0,0,1,6.7,3.347c.095.857-.144,1.587-1.053,1.764-.97.189-1.5-.327-1.631-1.319A1.691,1.691,0,0,0,17.126,16.3a1.613,1.613,0,0,0-1.639,1.632c-.053.529-.058.94.68,1.012a1.234,1.234,0,0,1,1.206,1.487c-.113.846-.731,1.175-1.557,1.158-.585-.012-1.17,0-1.755,0V21.54" transform="translate(1.496 3.107)"/>
        <path id="Path_189536" data-name="Path 189536" d="M45.87,11.881c-.719,0-1.441.038-2.156-.011a1.163,1.163,0,0,1-1.142-1.12,1.158,1.158,0,0,1,.811-1.382c.659-.187,1.319-.232,1.087-1.208a1.737,1.737,0,0,0-1.479-1.527,1.648,1.648,0,0,0-1.879.975,3.415,3.415,0,0,0-.176.778c-.178.868-.661,1.406-1.592,1.256-.857-.14-1.12-.762-1.1-1.587a4.418,4.418,0,0,1,6.621-3.564,1.594,1.594,0,0,0,1.969-.021A4.415,4.415,0,0,1,53.385,7.7c.108.921,0,1.791-1.125,1.941-1.013.134-1.443-.513-1.556-1.443a1.635,1.635,0,0,0-1.555-1.58,1.539,1.539,0,0,0-1.752.962c-.274.712-.713,1.551.671,1.717a1.162,1.162,0,0,1,1.02,1.366,1.231,1.231,0,0,1-1.33,1.229c-.628.028-1.259.006-1.888.006v-.021" transform="translate(8.766 0.89)"/>
        <path id="Path_189537" data-name="Path 189537" d="M89.117,2.725c0,.449.02.9,0,1.347a1.249,1.249,0,0,1-1.348,1.35,1.273,1.273,0,0,1-1.336-1.378,26.625,26.625,0,0,1,0-2.694,1.342,1.342,0,1,1,2.683.028c.017.449,0,.9,0,1.347" transform="translate(19.804 0)" fill="#020202"/>
        <path id="Path_189538" data-name="Path 189538" d="M89.116,35.077c0,.449.017.9-.006,1.347a1.336,1.336,0,0,1-2.67.037,21.5,21.5,0,0,1,0-2.828,1.342,1.342,0,1,1,2.681.1c.01.449,0,.9,0,1.347" transform="translate(19.803 7.408)" fill="#020202"/>
        <path id="Path_189539" data-name="Path 189539" d="M104.1,20.007c-.493-.023-.99-.01-1.476-.079a1.238,1.238,0,0,1-1.16-1.4,1.186,1.186,0,0,1,1.195-1.223c.986-.043,1.975-.043,2.962-.014a1.319,1.319,0,0,1,.092,2.634,14.373,14.373,0,0,1-1.612.012v.065" transform="translate(23.257 3.96)" fill="#050505"/>
        <path id="Path_189540" data-name="Path 189540" d="M72.015,17.28c.359,0,.719,0,1.078,0,.9,0,1.506.433,1.517,1.337a1.3,1.3,0,0,1-1.39,1.346c-.895.044-1.8.042-2.692,0a1.284,1.284,0,0,1-1.378-1.351,1.261,1.261,0,0,1,1.384-1.326c.493-.014.987,0,1.481,0" transform="translate(15.851 3.96)" fill="#050505"/>
        <path id="Path_189541" data-name="Path 189541" d="M100.314,32.553a1.143,1.143,0,0,1-.872-.365c-.676-.656-1.363-1.307-1.993-2.006a1.256,1.256,0,0,1,.052-1.915,1.238,1.238,0,0,1,1.818.011,29.26,29.26,0,0,1,2.085,2.1,1.16,1.16,0,0,1,.179,1.38,1.37,1.37,0,0,1-1.27.792" transform="translate(22.242 6.39)" fill="#020202"/>
        <path id="Path_189542" data-name="Path 189542" d="M101.74,6.441c-.162.967-1,1.443-1.6,2.077-.729.76-1.537,1.891-2.658.751s.036-1.914.773-2.667c.439-.449.883-.9,1.362-1.3A1.186,1.186,0,0,1,101,5.214a1.419,1.419,0,0,1,.738,1.227" transform="translate(22.238 1.154)" fill="#020202"/>
        <path id="Path_189543" data-name="Path 189543" d="M75.6,5.055a1.049,1.049,0,0,1,.816.321c.736.724,1.5,1.43,2.171,2.206a1.174,1.174,0,0,1-.12,1.7,1.181,1.181,0,0,1-1.7.154A25.585,25.585,0,0,1,74.475,7.17a1.208,1.208,0,0,1-.108-1.4A1.247,1.247,0,0,1,75.6,5.055" transform="translate(17.008 1.158)" fill="#020202"/>
        <path id="Path_189544" data-name="Path 189544" d="M75.61,32.547a1.331,1.331,0,0,1-1.09-2.173c.7-.755,1.425-1.495,2.194-2.179a1.174,1.174,0,0,1,1.6,0,1.123,1.123,0,0,1,.422,1.535,11.626,11.626,0,0,1-2.6,2.688,1.134,1.134,0,0,1-.525.133" transform="translate(17.008 6.39)" fill="#020202"/>
        <path id="Path_189545" data-name="Path 189545" d="M77.5,47.744c-.15.777-.515,1.355-1.394,1.355s-1.246-.577-1.391-1.356a1.417,1.417,0,0,1,1.325-1.3c.848-.037,1.28.526,1.46,1.305" transform="translate(17.126 10.644)" fill="#040405"/>
        <path id="Path_189546" data-name="Path 189546" d="M15.5,95.919a6.712,6.712,0,0,1-1.067-.01,1.165,1.165,0,0,1-1.042-1.443c.167-1.318,1.2-1.219,2.143-1.226.922,0,1.859.021,1.978,1.257a1.172,1.172,0,0,1-1.077,1.419,6.4,6.4,0,0,1-.934.007v0" transform="translate(3.066 21.373)" fill="#f7e4ae"/>
        <path id="Path_189547" data-name="Path 189547" d="M97.707,96.98a6.15,6.15,0,0,1,.94.007,1.364,1.364,0,0,1,1.2,1.406c.026.889-1.058,1.379-2.6,1.278-1-.066-1.657-.572-1.586-1.593.093-1.32,1.173-1.089,2.05-1.1" transform="translate(21.925 22.226)" fill="#e8a71e"/>
        <path id="Path_189548" data-name="Path 189548" d="M78.233,95.27A1.475,1.475,0,0,1,79.387,93.8c.8-.165,1.248.334,1.624.933-.016.761-.181,1.447-1.05,1.641-.922.207-1.412-.325-1.728-1.1" transform="translate(17.933 21.493)" fill="#040301"/>
        <path id="Path_189549" data-name="Path 189549" d="M47.681,59.406q-14.1,5.9-28.187,11.819c-.757.32-1.149.371-1.132-.643.124-7.192-.461-14.411.674-21.565a52.438,52.438,0,0,1,15.351-29.8c1.045-1.033,1.535-1.028,2.6.041A52.538,52.538,0,0,1,52.912,56.2c.05,1.892-1.551,1.562-2.61,1.967a2.22,2.22,0,0,1-.531-1.878c-.119-12.525-4.681-23.3-12.817-32.68a2.764,2.764,0,0,0-.7-.626.87.87,0,0,0-1.013-.021.885.885,0,0,0-.3.971,3.364,3.364,0,0,0,.9,1.485A47.723,47.723,0,0,1,47.71,52.806a34.521,34.521,0,0,1-.028,6.6" transform="translate(4.199 4.229)" fill="#fb5d3d"/>
        <path id="Path_189550" data-name="Path 189550" d="M35.629,70.787c.488,1.12,1.292,1.18,2.308.75,2.712-1.149,5.434-2.272,8.157-3.394.45-.186.919-.32,1.38-.478a2.9,2.9,0,0,1,.349,1.948c.015,3.418,0,6.837.01,10.257a4.094,4.094,0,0,0,.35,2.106c.414.723,1.049.715,1.422-.027a5.144,5.144,0,0,0,.363-2.38q.011-5.668,0-11.336a6.716,6.716,0,0,1,.157-1.739l2.4-.99c.522-.029.417.37.418.653.007,9.091,0,18.183.017,27.274,0,1-.51,1.013-1.211.788q-1.927-.62-3.841-1.283a73.75,73.75,0,0,0-20.442-4.075,47.752,47.752,0,0,0-7.674-.036c-.978.106-1.5-.193-1.443-1.332.122-2.558-.1-5.123.111-7.681,2.733-1.442,5.656-2.446,8.485-3.663.955-.411,1.5-.942,1.334-2.017.553-.863,1.491-.959,2.361-1.192,1.717.831,1.9.765,2.594-.971a4.493,4.493,0,0,1,2.393-1.18" transform="translate(4.206 15.015)" fill="#fb5d3d"/>
        <path id="Path_189551" data-name="Path 189551" d="M30.66,75.687,28.28,76.71c-.613-.94-1.4-.923-2.343-.514-2.179.944-4.39,1.814-6.568,2.76-.692.3-1.03.39-1.02-.584.038-3.731.02-7.464.009-11.2a.922.922,0,0,1,.626-1.028q14.345-5.926,28.673-11.9a1.963,1.963,0,0,1,.458,1.62c.021,3.171.016,6.343,0,9.514a2.311,2.311,0,0,1-.433,1.643C44.106,68.559,40.533,70.1,36.942,71.6c-.826.345-1.417.771-1.314,1.764-.584.778-1.589.777-2.333,1.26-1.739-.526-1.739-.526-2.635,1.061" transform="translate(4.206 12.436)" fill="#fff"/>
        <path id="Path_189552" data-name="Path 189552" d="M44.693,58.689A2.951,2.951,0,0,1,44.51,57.1,47.3,47.3,0,0,0,33.875,26.4c-.585-.74-1.232-1.431-1.852-2.143-.656-.751-1.035-1.584-.13-2.342.88-.739,1.581-.122,2.187.549a50.207,50.207,0,0,1,9.222,14.5A48.1,48.1,0,0,1,47.2,55.7c0,.581.073,1.165.112,1.748a8.383,8.383,0,0,1-2.621,1.243" transform="translate(7.188 4.947)" fill="#fecac2"/>
        <path id="Path_189553" data-name="Path 189553" d="M18.479,79.83c.022,2.521.076,5.042.047,7.562-.01.887.258,1.245,1.158,1.108,3.723-.572,7.421-.054,11.129.246a63.305,63.305,0,0,1,13.031,2.488c2.708.81,5.383,1.731,8.05,2.665.733.256.931.167.929-.623q-.028-13.445-.012-26.89c0-.312.031-.639-.267-.862.117-.036.272-.136.345-.095.232.133.167.392.165.608-.071,9.851.146,19.7-.1,29.554-.022.919-.2,1.181-1.16.8A79,79,0,0,0,32.71,91.342,58.5,58.5,0,0,0,19.8,90.887c-.906.089-1.443-.021-1.443-1.116a86.245,86.245,0,0,1,.12-9.941" transform="translate(4.188 14.995)" fill="#b15035"/>
        <path id="Path_189554" data-name="Path 189554" d="M44.695,66.309a2.117,2.117,0,0,1,.191,1.181q0,6.413-.006,12.827a10.848,10.848,0,0,1-.14,1.475,1.173,1.173,0,0,1-1.278,1.119,1.194,1.194,0,0,1-1.281-1.128,11.014,11.014,0,0,1-.122-1.609q-.02-6.346-.016-12.692a12.116,12.116,0,0,1,2.653-1.173" transform="translate(9.637 15.199)" fill="#fec8c0"/>
        <path id="Path_189555" data-name="Path 189555" d="M44.273,53.615c2.842-1.522,2.842-1.522,2.842,1.57,0,2.871-.066,5.744.032,8.612.041,1.191-.322,1.839-1.462,2.107a14.014,14.014,0,0,0-1.388.477,1.985,1.985,0,0,1-.452-1.621c-.021-3.166-.016-6.334,0-9.5a2.33,2.33,0,0,1,.431-1.643" transform="translate(10.047 12.061)" fill="#ececec"/>
        <path id="Path_189556" data-name="Path 189556" d="M44.65,53.429q.013,6.383.025,12.765a9.307,9.307,0,0,1-2.454,1.025q-.017-6.389-.031-12.778a9.578,9.578,0,0,1,2.46-1.013" transform="translate(9.671 12.247)" fill="#fefefe"/>
        <path id="Path_189557" data-name="Path 189557" d="M89.458,81.879c-.906.009-1.791.146-2.125-.875a1.181,1.181,0,0,1,.417-1.454,3.313,3.313,0,0,1,3.091-.12,1.14,1.14,0,0,1,.675,1.347c-.293,1.117-1.206,1.186-2.058,1.1" transform="translate(19.999 18.133)" fill="#f7e3ae"/>
        <path id="Path_189558" data-name="Path 189558" d="M70.48,87.585a3.217,3.217,0,0,1-.868-.076,1.225,1.225,0,0,1-.514-2.184,3.265,3.265,0,0,1,3.152-.135,1.219,1.219,0,0,1,.559,1.506,1.179,1.179,0,0,1-1.32.894c-.222-.023-.45,0-1.009,0" transform="translate(15.728 19.449)" fill="#cf941c"/>
        <path id="Path_189559" data-name="Path 189559" d="M56.6,86.041c-1.037.063-1.86.06-2.211-.917a1.135,1.135,0,0,1,.6-1.482,3.257,3.257,0,0,1,2.966,0A1.143,1.143,0,0,1,58.587,85a1.259,1.259,0,0,1-1.11,1.029,5.854,5.854,0,0,1-.874.009" transform="translate(12.448 19.09)" fill="#f7e3ae"/>
        <path id="Path_189560" data-name="Path 189560" d="M67.782,68.463a2.569,2.569,0,0,1-.756-.061,1.591,1.591,0,0,1-.76-.492,1.081,1.081,0,0,1-.045-1.464,3.178,3.178,0,0,1,3.089-.578c.547.288,1.128.719.915,1.46a1.454,1.454,0,0,1-1.468,1.135c-.224,0-.446,0-.975,0" transform="translate(15.119 15.056)" fill="#cf941c"/>
        <path id="Path_189561" data-name="Path 189561" d="M84.791,57.7a7.408,7.408,0,0,1-1.328-.095A1.192,1.192,0,0,1,82.432,56.4a1.16,1.16,0,0,1,1.025-1.337,10.208,10.208,0,0,1,2.661-.03,1.267,1.267,0,0,1,1.139,1.294,1.361,1.361,0,0,1-1.264,1.329,7.4,7.4,0,0,1-1.2.012V57.7" transform="translate(18.895 12.598)" fill="#c3e4fd"/>
        <path id="Path_189562" data-name="Path 189562" d="M100.982,53.94c-.817.045-1.964.145-2.208-1.244-.166-.95.822-1.464,2.573-1.459,1.824,0,2.554.624,2.177,1.844-.22.708-.626.859-2.542.859" transform="translate(22.637 11.745)" fill="#c4e4fd"/>
        <path id="Path_189563" data-name="Path 189563" d="M57.215,54.161c-.918.06-2.167.059-2.192-1.321s1.216-1.4,2.3-1.388c1.624.022,2.513.508,2.477,1.407-.033.864-.851,1.3-2.585,1.3" transform="translate(12.612 11.793)" fill="#c4e4fd"/>
        <path id="Path_189564" data-name="Path 189564" d="M9.6,64.653c.359,0,.717,0,1.076,0,.613,0,.836.446,1.029.911a1.074,1.074,0,0,1-.28,1.223,3.014,3.014,0,0,1-3.452.117,1.3,1.3,0,0,1-.431-1.45A1.151,1.151,0,0,1,8.8,64.645c.268.012.537,0,.806,0v0" transform="translate(1.713 14.818)" fill="#cf941c"/>
        <path id="Path_189565" data-name="Path 189565" d="M99.708,20.333A10.281,10.281,0,1,1,89.486,9.973a10.3,10.3,0,0,1,10.222,10.36" transform="translate(18.142 2.286)" fill="#fed947"/>
        <path id="Path_189566" data-name="Path 189566" d="M8.947,54.157c-1.237.007-2.515.161-2.516-1.308,0-1.383,1.189-1.411,2.272-1.4s2.436-.1,2.452,1.348-1.3,1.431-2.208,1.361" transform="translate(1.474 11.793)" fill="#c4e4fd"/>
        <path id="Path_189567" data-name="Path 189567" d="M58.309,38.482A11.866,11.866,0,0,0,56.09,36.2a11.826,11.826,0,0,0,2.156-2.5,11.513,11.513,0,0,0,2.088,2.468,8.473,8.473,0,0,0-2.026,2.306" transform="translate(12.857 7.727)" fill="#ebbc1f"/>
        <path id="Path_189568" data-name="Path 189568" d="M44.839,84.25c-.127.8.038,1.672-.891,2a1.149,1.149,0,0,1-1.454-.365,3.476,3.476,0,0,1-.1-3.219,1.1,1.1,0,0,1,1.378-.565c1.171.337.951,1.36,1.068,2.145" transform="translate(9.638 18.808)" fill="#fec9c1"/>
        <path id="Path_189569" data-name="Path 189569" d="M28.368,72.044c-.077-.756.011-1.452.817-1.787.824-.343,1.341.16,1.818.726a1.459,1.459,0,0,1-.831,1.753c-.8.358-1.328-.133-1.8-.692" transform="translate(6.497 16.079)" fill="#050303"/>
      </g>
    </g>
  </g>
</svg>
