<svg xmlns="http://www.w3.org/2000/svg" xmlns:xlink="http://www.w3.org/1999/xlink" width="73" height="73" viewBox="0 0 73 73">
  <defs>
    <clipPath id="clip-path">
      <rect id="Rectangle_45769" data-name="Rectangle 45769" width="50.683" height="51.852" fill="none"/>
    </clipPath>
  </defs>
  <g id="_6" data-name="6" transform="translate(-945 -925)">
    <rect id="Rectangle_45764" data-name="Rectangle 45764" width="73" height="73" transform="translate(945 925)" fill="none"/>
    <g id="Group_175773" data-name="Group 175773" transform="translate(956.389 935.306)">
      <g id="Group_175772" data-name="Group 175772" clip-path="url(#clip-path)">
        <path id="Path_185968" data-name="Path 185968" d="M10.9,0c.423.1.847.18,1.267.286a10.02,10.02,0,0,1,7.55,9.829,10.037,10.037,0,0,1-7.562,9.772A9.876,9.876,0,0,1,.093,11.3,10,10,0,0,1,8.664.088C8.73.079,8.794.076,8.822,0Z" transform="translate(-0.01)"/>
        <path id="Path_185969" data-name="Path 185969" d="M81.682,73.217c-.124.514-.234,1.032-.374,1.541a9.882,9.882,0,0,1-10.078,7.357,10.064,10.064,0,1,1,10.283-11.93c.044.233-.024.5.169.7Z" transform="translate(-30.998 -30.28)"/>
        <path id="Path_185970" data-name="Path 185970" d="M82.465,10.126a6.356,6.356,0,0,1-1.408,1.709c-.614.635-1.243,1.255-1.848,1.9a.829.829,0,0,1-1.184.19.725.725,0,0,1-.212-1,2.12,2.12,0,0,1,.41-.5c.769-.788,1.534-1.58,2.311-2.359.258-.258.321-.462.032-.756q-3.611-3.675-7.2-7.369c-.255-.262-.443-.264-.7,0q-3.595,3.693-7.2,7.371c-.251.256-.271.448-.009.715q3.611,3.677,7.2,7.371c.282.29.482.248.738-.023.608-.642,1.232-1.268,1.851-1.9a1.918,1.918,0,0,1,.457-.384.7.7,0,0,1,.979.216.884.884,0,0,1-.189,1.214c-.746.74-1.468,1.5-2.209,2.249a1.652,1.652,0,0,1-2.572-.019q-3.783-3.86-7.557-7.73a1.742,1.742,0,0,1-.009-2.666q3.774-3.87,7.551-7.737A4.993,4.993,0,0,1,72.566,0h.792a2.078,2.078,0,0,1,1.21.7q3.592,3.7,7.209,7.375a2.15,2.15,0,0,1,.688,1.238Z" transform="translate(-31.782)"/>
        <path id="Path_185971" data-name="Path 185971" d="M11.593,82.716H9.672a1.675,1.675,0,0,0-1.612-.63c-1.483.029-2.968.015-4.452.007-.808-.005-.953-.152-.954-.979q-.007-7.742,0-15.485c0-.832.14-.972.954-.973q7.568-.005,15.137,0c.815,0,.953.14.953.975q.007,7.742,0,15.485c0,.828-.144.974-.955.978-1.846.008-3.693.019-5.54-.007a1.682,1.682,0,0,0-1.611.631" transform="translate(-1.326 -31.602)" fill="#feb44e"/>
        <path id="Path_185972" data-name="Path 185972" d="M10.267,81.413c.124-.611.326-.784.946-.785,2.16,0,4.319-.01,6.479.007.4,0,.541-.1.54-.534q-.019-8.045,0-16.09c0-.4-.115-.515-.506-.514Q9.861,63.516,2,63.5c-.427,0-.519.149-.518.554q.016,8.02,0,16.039c0,.419.117.551.531.546,1.8-.021,3.594-.011,5.391-.008.62,0,.822.174.946.785a.8.8,0,0,1-.9.736c-1.9-.007-3.793,0-5.69-.005A1.689,1.689,0,0,1,0,80.369q-.009-8.3,0-16.6A1.676,1.676,0,0,1,1.75,61.989q8.114-.008,16.229,0A1.663,1.663,0,0,1,19.7,63.73q.01,8.326,0,16.653a1.675,1.675,0,0,1-1.712,1.76c-2.276.011-4.552,0-6.828.007a.8.8,0,0,1-.9-.736" transform="translate(0 -30.298)"/>
        <path id="Path_185973" data-name="Path 185973" d="M78.216,16.8c-.516-.346-.783-.327-1.215.11-.715.724-1.432,1.448-2.131,2.187-.232.245-.391.276-.644.015q-3.716-3.824-7.453-7.626c-.228-.233-.23-.386,0-.621q3.737-3.8,7.453-7.626c.252-.26.406-.23.641.012q3.7,3.8,7.42,7.588c.276.281.227.445-.023.695-.875.871-1.733,1.759-2.593,2.645a.814.814,0,0,0-.107,1.241,10.028,10.028,0,0,0-1.348,1.38" transform="translate(-33.321 -1.493)" fill="#fe3b81"/>
        <path id="Path_185974" data-name="Path 185974" d="M49.682,15.211c-.342-.4-.62-.71-.878-1.035a.758.758,0,0,1,.057-1.121.7.7,0,0,1,1.051.123c.659.753,1.3,1.519,1.945,2.289a.735.735,0,0,1,0,1.012q-.973,1.177-1.98,2.325a.715.715,0,0,1-1.022.09.757.757,0,0,1-.084-1.082c.264-.344.556-.664.91-1.082h-2.17c-.247,0-.5.009-.742,0a.755.755,0,1,1,0-1.51c.856-.016,1.713-.005,2.57-.005h.336" transform="translate(-23.016 -6.292)"/>
        <path id="Path_185975" data-name="Path 185975" d="M15.947,46.5c-.392.347-.694.631-1.013.894a.732.732,0,0,1-1.1-.063.746.746,0,0,1,.125-1.075c.724-.663,1.46-1.311,2.2-1.96a.735.735,0,0,1,1.07,0c.738.647,1.474,1.3,2.2,1.959a.76.76,0,0,1,.122,1.079.739.739,0,0,1-1.1.058c-.168-.135-.323-.287-.485-.43s-.3-.261-.533-.464c0,.753,0,1.43,0,2.107,0,.286.009.573,0,.859a.739.739,0,1,1-1.476.008c-.016-.876-.005-1.752-.006-2.628V46.5" transform="translate(-6.836 -21.538)"/>
        <path id="Path_185976" data-name="Path 185976" d="M78.722,47.829c0-1.016,0-1.921,0-2.825,0-.591.277-.932.738-.932s.742.351.745.934c0,.9,0,1.81,0,2.814.368-.326.667-.6.976-.861a.741.741,0,0,1,1.1,0,.761.761,0,0,1-.132,1.148Q81.1,49.061,80.029,50a.749.749,0,0,1-1.143-.006q-1.069-.938-2.123-1.891a.776.776,0,0,1-.156-1.112.749.749,0,0,1,1.136-.021c.3.256.6.526.979.864" transform="translate(-38.241 -21.542)"/>
        <path id="Path_185977" data-name="Path 185977" d="M11.324,20.093a8.474,8.474,0,0,1-8.35-8.58,8.482,8.482,0,0,1,8.391-8.542,8.47,8.47,0,0,1,8.345,8.584,8.459,8.459,0,0,1-8.386,8.537" transform="translate(-1.488 -1.453)" fill="#7eacdd"/>
        <path id="Path_185978" data-name="Path 185978" d="M73.327,64.96a8.563,8.563,0,1,1-8.363,8.559,8.469,8.469,0,0,1,8.363-8.559" transform="translate(-32.501 -31.752)" fill="#00f1a8"/>
        <path id="Path_185979" data-name="Path 185979" d="M13.368,68.936h3.414a2.741,2.741,0,0,1,2.908,2.958c0,2.4.005,4.793,0,7.189a2.809,2.809,0,0,1-1.353,2.531,3.077,3.077,0,0,1-1.662.373c-2.243.027-4.487.033-6.73,0a2.622,2.622,0,0,1-2.83-1.881,5.9,5.9,0,0,1-.182-1.74c-.02-1.974-.044-3.95.012-5.922a4.176,4.176,0,0,1,.319-2.066,2.73,2.73,0,0,1,2.494-1.442c1.2-.009,2.408,0,3.612,0" transform="translate(-3.456 -33.694)" fill="#fea630"/>
        <path id="Path_185980" data-name="Path 185980" d="M77.592,19.175a2.957,2.957,0,0,1-2-.875q-1.11-1.119-2.2-2.254a2.687,2.687,0,0,1,0-3.9c.821-.781,1.59-1.618,2.385-2.428a2.419,2.419,0,0,1,3.458-.035c.874.871,1.724,1.768,2.592,2.645a2.684,2.684,0,0,1-.04,3.517c-.884.834-1.718,1.725-2.558,2.608a2.842,2.842,0,0,1-1.638.725" transform="translate(-36.297 -4.385)" fill="#fe1567"/>
        <path id="Path_185981" data-name="Path 185981" d="M19.719,13.386a6.478,6.478,0,1,1-12.954-.007,6.479,6.479,0,1,1,12.954.007" transform="translate(-3.384 -3.303)" fill="#609bd5"/>
        <path id="Path_185982" data-name="Path 185982" d="M75.281,68.737a6.633,6.633,0,1,1-6.561,6.47,6.553,6.553,0,0,1,6.561-6.47" transform="translate(-34.38 -33.598)" fill="#09d591"/>
        <path id="Path_185983" data-name="Path 185983" d="M19.713,76.33c0,1.249.005,2.5,0,3.747a1.741,1.741,0,0,1-1.826,1.872q-3.662.009-7.324,0a1.753,1.753,0,0,1-1.842-1.912q-.006-3.721,0-7.442A1.74,1.74,0,0,1,10.575,70.7q3.638-.007,7.275,0a1.74,1.74,0,0,1,1.862,1.931c0,1.231,0,2.463,0,3.7" transform="translate(-4.36 -34.558)"/>
        <path id="Path_185984" data-name="Path 185984" d="M78.35,19.1a1.634,1.634,0,0,1-1.272-.547c-.772-.784-1.549-1.562-2.3-2.362a1.769,1.769,0,0,1,.017-2.609q1.124-1.174,2.272-2.324a1.683,1.683,0,0,1,2.582.015q1.127,1.135,2.237,2.288A1.776,1.776,0,0,1,81.9,16.2c-.758.8-1.537,1.574-2.307,2.36a1.622,1.622,0,0,1-1.245.536" transform="translate(-37.125 -5.212)"/>
        <path id="Path_185985" data-name="Path 185985" d="M19.805,18.022c-.3.374-.581.758-.893,1.117a.835.835,0,0,1-.486.316,1.844,1.844,0,0,0-1.377.155,4.069,4.069,0,0,1-4.565-1.115A4.347,4.347,0,0,1,12,13.543a4.1,4.1,0,0,1,5.144-1.811,4.232,4.232,0,0,1,2.433,5.012,1.771,1.771,0,0,0,.233,1.277" transform="translate(-5.722 -5.58)" fill="#b5dbfe"/>
        <path id="Path_185986" data-name="Path 185986" d="M18.431,16.723a.979.979,0,0,1-.383-1.22,3.952,3.952,0,0,0-1.279-4.279,3.693,3.693,0,0,0-4.34-.527A3.926,3.926,0,0,0,10.2,14.554a4,4,0,0,0,5.681,3.531c.42-.2.8-.322,1.171.071.285.6.191.953-.39,1.231a5.165,5.165,0,0,1-5.928-.69A5.344,5.344,0,0,1,8.92,12.889a5.209,5.209,0,0,1,4.35-4.046,5.55,5.55,0,0,1,6.218,7.077c-.189.661-.385.811-1.057.8" transform="translate(-4.348 -4.281)"/>
        <path id="Path_185987" data-name="Path 185987" d="M76.224,70.708a5.624,5.624,0,1,1-5.513,5.611,5.565,5.565,0,0,1,5.513-5.611" transform="translate(-35.376 -34.562)"/>
        <path id="Path_185988" data-name="Path 185988" d="M11.683,77.779c0-1.2.012-2.393-.007-3.59-.006-.391.108-.532.5-.529q3.509.024,7.017,0c.379,0,.521.1.519.512q-.024,3.589,0,7.179c0,.385-.1.536-.5.533q-3.509-.024-7.018,0c-.436,0-.526-.172-.52-.569.018-1.179.006-2.359.006-3.539" transform="translate(-5.841 -36.005)" fill="#fecd8a"/>
        <path id="Path_185989" data-name="Path 185989" d="M79.857,19.056c-.129,0-.2-.1-.283-.186-.712-.726-1.418-1.458-2.136-2.178-.224-.225-.237-.4,0-.631.732-.729,1.452-1.471,2.169-2.216.192-.2.348-.207.54-.007q1.1,1.133,2.2,2.254c.163.166.232.322.042.515q-1.139,1.16-2.273,2.324a.3.3,0,0,1-.258.124" transform="translate(-38.655 -6.693)" fill="#fe78a9"/>
        <path id="Path_185990" data-name="Path 185990" d="M73.681,77.794a4.012,4.012,0,1,1,4.036,4.092,4.047,4.047,0,0,1-4.036-4.092" transform="translate(-36.862 -36.014)" fill="#9ff7d3"/>
      </g>
    </g>
  </g>
</svg>
