<svg xmlns="http://www.w3.org/2000/svg" xmlns:xlink="http://www.w3.org/1999/xlink" width="73" height="73" viewBox="0 0 73 73">
  <defs>
    <clipPath id="clip-path">
      <rect id="Rectangle_45771" data-name="Rectangle 45771" width="54.618" height="44.794" fill="none"/>
    </clipPath>
  </defs>
  <g id="_8" data-name="8" transform="translate(-1294 -925)">
    <rect id="Rectangle_45766" data-name="Rectangle 45766" width="73" height="73" transform="translate(1294 925)" fill="none"/>
    <g id="Group_175778" data-name="Group 175778" transform="translate(1303 939)">
      <g id="Group_175777" data-name="Group 175777" transform="translate(0 0)" clip-path="url(#clip-path)">
        <path id="Path_186016" data-name="Path 186016" d="M31.026,1.068C31.2.28,31.524,0,32.3,0q9.114,0,18.229,0a3.952,3.952,0,0,1,4,3.218,1.187,1.187,0,0,0,.083.193V35.738c-.173.111-.141.313-.193.472A3.955,3.955,0,0,1,50.8,38.955c-.249.01-.5.009-.746.009q-15.356,0-30.712-.005a2.066,2.066,0,0,0-.964.227q-5.325,2.673-10.658,5.33c-.127.063-.252.132-.383.183a1.034,1.034,0,0,1-1.491-.966c-.023-1.1,0-2.2-.012-3.306-.007-.473.208-1.08-.1-1.381-.28-.276-.879-.063-1.337-.081a6.458,6.458,0,0,1-1.376-.116A3.942,3.942,0,0,1,.009,35.057q-.016-15.57,0-31.139A3.932,3.932,0,0,1,3.921.009C10.071-.007,16.22,0,22.37,0,23.1,0,23.419.3,23.593,1.068A.945.945,0,0,1,22.9,2.2a2.825,2.825,0,0,1-1,.1q-8.746,0-17.492,0a2.037,2.037,0,0,0-1.5.428,1.7,1.7,0,0,0-.6,1.207C2.3,4.168,2.3,4.4,2.3,4.63c0,9.866.014,19.733-.015,29.6,0,1.5.379,2.561,2.446,2.415.566-.04,1.137-.014,1.706,0,1.2.024,1.7.527,1.725,1.742.015.853,0,1.707,0,2.56,0,.7.052.738.674.428,2.768-1.381,5.541-2.751,8.3-4.156a5.332,5.332,0,0,1,2.507-.586q15.226.021,30.452.008a4.888,4.888,0,0,0,.851-.031,1.654,1.654,0,0,0,1.326-1.365,4.126,4.126,0,0,0,.039-.744q0-15.039,0-30.079a2.244,2.244,0,0,0-.182-1.146,1.713,1.713,0,0,0-1.39-.953C50.5,2.3,50.247,2.3,50,2.3H32.773a3.2,3.2,0,0,1-1.006-.083.958.958,0,0,1-.741-1.151" transform="translate(0 0)"/>
        <path id="Path_186017" data-name="Path 186017" d="M64.108,1.074c-.16.711-.547,1.082-1.111,1.067s-.9-.369-1.057-1.067c.154-.7.5-1.05,1.057-1.064s.951.351,1.111,1.064" transform="translate(-35.715 -0.006)" fill="#010101"/>
        <path id="Path_186018" data-name="Path 186018" d="M55.392,5.749a1.9,1.9,0,0,0-2.156-2.156H35.264a1.129,1.129,0,0,1-1.329-1.067H31.3c-.155.086-.184.254-.254.392a.919.919,0,0,1-1.658,0c-.072-.138-.1-.307-.255-.392H26.5c-.184.81-.5,1.067-1.331,1.067q-9.066,0-18.132,0a1.85,1.85,0,0,0-1.993,2q0,15.359,0,30.717A1.831,1.831,0,0,0,7,38.283c.871.01,1.742-.005,2.613.005a1.131,1.131,0,0,1,1.273,1.287c.008,1.119,0,2.239.006,3.359,0,.146-.067.316.1.46.156-.072.316-.142.471-.22,2.967-1.483,5.937-2.96,8.9-4.459a3.911,3.911,0,0,1,1.833-.439c10.274.014,20.549-.011,30.823.03a2.13,2.13,0,0,0,2.4-2.427c-.041-10.043-.021-20.087-.021-30.131" transform="translate(-2.908 -1.455)" fill="#fe5d7c"/>
      </g>
    </g>
  </g>
</svg>
