<svg xmlns="http://www.w3.org/2000/svg" width="98.71" height="99.645" viewBox="0 0 98.71 99.645">
  <g id="a5" transform="translate(-1204.107 -477.611) rotate(11)">
    <g id="Group_176308" data-name="Group 176308" transform="translate(1289.072 235.979)">
      <path id="Path_117323" data-name="Path 117323" d="M529.05,765.728c17.174-11.6,42.037-10.357,58.121,2.562a41.349,41.349,0,0,1,6.161,6.313c7.835,10.438,12.332,22.813,6.6,35.328-3.8,8.308-11.792,13.558-20.147,16.49a45.424,45.424,0,0,1-18.069,2.511c-1.146,6.155-5.32,10.309-10.587,13.316-.934.533-3.912,2.142-2.546-2.632,1.287-4.5.6-9.288-.749-13.871a47.941,47.941,0,0,1-19.051-14.11C517.9,798.393,512.449,776.938,529.05,765.728Z" transform="translate(-518.52 -757.761)" fill="#fff"/>
      <g id="Group_83561" data-name="Group 83561" transform="translate(19.143 4.617)">
        <path id="Path_117328" data-name="Path 117328" d="M685.932,788.188c-12.243-5.33-27.472-5.757-40.22-2.131-.217.062-.326-.262-.134-.364,11.444-6.09,29.568-4.283,40.476,2.235.139.082.031.326-.122.26Z" transform="translate(-645.479 -781.963)"/>
      </g>
      <g id="Group_83562" data-name="Group 83562" transform="translate(14.105 9.07)">
        <path id="Path_117329" data-name="Path 117329" d="M869.3,805.514a2.132,2.132,0,0,1-1.228.943,7.172,7.172,0,0,1-2.23.859.182.182,0,0,1-.19-.271,2.627,2.627,0,0,1,1.556-1.162,4.368,4.368,0,0,1,1.953-.569c.088.01.181.1.138.2Z" transform="translate(-865.631 -805.305)"/>
      </g>
      <g id="Group_83563" data-name="Group 83563" transform="translate(44.686 57.552)">
        <path id="Path_117330" data-name="Path 117330" d="M607.449,1059.618c-5.73,7.262-18.518,11.156-27.418,9.026a.257.257,0,0,1,.023-.492c10.017-1.29,18.8-2.613,27.24-8.664.086-.062.234.03.156.13Z" transform="translate(-579.857 -1059.469)"/>
      </g>
    </g>
    <path id="Path_188777" data-name="Path 188777" d="M-20.014-19.976q0-.114.01-.828t.076-1.714q.067-1,.219-2.123a13.872,13.872,0,0,1,.438-2.085,5.524,5.524,0,0,1,.724-1.59,1.29,1.29,0,0,1,1.085-.628q.038,0,.181.01a1.881,1.881,0,0,1,.3.048,1.166,1.166,0,0,1,.324.133.594.594,0,0,1,.238.248,3.01,3.01,0,0,1,.19.866q.076.638.114,1.476t.048,1.8q.01.962.01,1.838t-.01,1.571q-.01.7-.01,1.019a8.106,8.106,0,0,0,.638,3.628,2.207,2.207,0,0,0,2.123,1.228,2.845,2.845,0,0,0,1.714-.524,4.313,4.313,0,0,0,1.219-1.4,8.949,8.949,0,0,0,.809-2,20.624,20.624,0,0,0,.5-2.323q.19-1.2.286-2.38t.143-2.161q.048-.981.086-1.666a3.04,3.04,0,0,1,.133-.9,1.258,1.258,0,0,1,.209-.276,1.768,1.768,0,0,1,.371-.3,2.636,2.636,0,0,1,.486-.229,1.526,1.526,0,0,1,.514-.1,1.126,1.126,0,0,1,.847.371,2.726,2.726,0,0,1,.571,1.028,7.807,7.807,0,0,1,.324,1.533,15.916,15.916,0,0,1,.1,1.885q0,.838-.067,2.39t-.2,3.532q-.133,1.98-.343,4.228t-.476,4.466q-.267,2.219-.609,4.256t-.752,3.6a12.266,12.266,0,0,1-.9,2.495q-.486.933-1.038.933a1.469,1.469,0,0,1-.5-.124,1.776,1.776,0,0,1-.6-.409A1.946,1.946,0,0,1-10.921.1a2.351,2.351,0,0,1-.048-1.152q.038-.229.152-1.076t.276-2.028q.162-1.181.324-2.552t.3-2.618q.143-1.247.238-2.228t.1-1.4a.279.279,0,0,0-.067-.19.191.191,0,0,0-.143-.076q-.133,0-.428.267a6.537,6.537,0,0,1-.809.6,6.374,6.374,0,0,1-1.266.609,5.3,5.3,0,0,1-1.819.276,4.991,4.991,0,0,1-2.695-.7,5.591,5.591,0,0,1-1.828-1.866,8.7,8.7,0,0,1-1.047-2.714A15.3,15.3,0,0,1-20.014-19.976Zm24.68,7.465a2.508,2.508,0,0,0-.057-.5,2.3,2.3,0,0,0-.181-.533,1.193,1.193,0,0,0-.343-.428.884.884,0,0,0-.562-.171,1.613,1.613,0,0,0-1.047.543,5.993,5.993,0,0,0-1.047,1.371,9.956,9.956,0,0,0-.8,1.79A5.707,5.707,0,0,0,.3-8.626,1.652,1.652,0,0,0,.324-8.4,1.054,1.054,0,0,0,.4-8.131a.485.485,0,0,0,.19.219.663.663,0,0,0,.362.086,2.12,2.12,0,0,0,1.3-.514,6.2,6.2,0,0,0,1.19-1.247,7.767,7.767,0,0,0,.876-1.542A3.666,3.666,0,0,0,4.666-12.511Zm3.142.686a5.447,5.447,0,0,1-.229,1.514A7.593,7.593,0,0,1,6.932-8.76a9.133,9.133,0,0,1-.99,1.447A8,8,0,0,1,4.694-6.1a6.566,6.566,0,0,1-1.428.847,4.394,4.394,0,0,1-1.533.362.775.775,0,0,0-.59.209.618.618,0,0,0-.133.448,1.453,1.453,0,0,0,.133.5q.114.248.19.4a2.26,2.26,0,0,0,.781.724,3.2,3.2,0,0,0,1.542.286,4.429,4.429,0,0,0,.99-.1,3.134,3.134,0,0,0,.9-.371,4.738,4.738,0,0,0,.933-.762q.486-.5,1.095-1.257a.773.773,0,0,1,.276-.229.826.826,0,0,1,.39-.1.9.9,0,0,1,.7.428A2.834,2.834,0,0,1,9.274-3.1,3.586,3.586,0,0,1,8.9-1.495,3.814,3.814,0,0,1,7.817-.181,5.247,5.247,0,0,1,6.037.7a8.71,8.71,0,0,1-2.457.314A8.565,8.565,0,0,1,.428.467,6.238,6.238,0,0,1-1.9-1.1,6.813,6.813,0,0,1-3.352-3.618a10.635,10.635,0,0,1-.5-3.371,14.868,14.868,0,0,1,.19-2.352,14.438,14.438,0,0,1,.571-2.323,11.688,11.688,0,0,1,.952-2.123A7.8,7.8,0,0,1-.79-15.52,5.966,5.966,0,0,1,.952-16.691a5.226,5.226,0,0,1,2.133-.428,4.513,4.513,0,0,1,2.257.514,4.339,4.339,0,0,1,1.447,1.295A5.252,5.252,0,0,1,7.57-13.6,7.171,7.171,0,0,1,7.808-11.826Zm2.3,9.541A1.851,1.851,0,0,1,10.436-3.4a.905.905,0,0,1,.724-.448.826.826,0,0,1,.543.219q.257.219.6.476a4.284,4.284,0,0,0,.838.476,3.065,3.065,0,0,0,1.238.219q.114,0,.409-.029a2.139,2.139,0,0,0,.6-.152,1.346,1.346,0,0,0,.533-.4,1.176,1.176,0,0,0,.229-.771,1.691,1.691,0,0,0-.39-1.1,5.109,5.109,0,0,0-.99-.9q-.6-.428-1.295-.876a8.712,8.712,0,0,1-1.295-1.019,5.529,5.529,0,0,1-1.019-1.323,3.789,3.789,0,0,1-.438-1.8,5.469,5.469,0,0,1,.371-2.057,5.617,5.617,0,0,1,1.152-1.847,5.785,5.785,0,0,1,1.876-1.323,6,6,0,0,1,2.5-.5,6.133,6.133,0,0,1,1.009.086,3.28,3.28,0,0,1,.933.3,1.814,1.814,0,0,1,.686.59,1.691,1.691,0,0,1,.267.99,3.7,3.7,0,0,1-.048.543,2.458,2.458,0,0,1-.181.619,1.506,1.506,0,0,1-.362.514.839.839,0,0,1-.59.209,1.146,1.146,0,0,1-.438-.086q-.209-.086-.419-.19t-.428-.19a1.322,1.322,0,0,0-.486-.086,2.062,2.062,0,0,0-.752.162,2.745,2.745,0,0,0-.752.448,2.609,2.609,0,0,0-.571.667,1.531,1.531,0,0,0-.229.8,1.548,1.548,0,0,0,.409,1.028,7.524,7.524,0,0,0,1.019.962q.609.486,1.314,1.019a9.753,9.753,0,0,1,1.314,1.2,6.206,6.206,0,0,1,1.019,1.523,4.544,4.544,0,0,1,.409,1.98A3.99,3.99,0,0,1,19.2-1.314,4.227,4.227,0,0,1,17.843.048a5.506,5.506,0,0,1-1.771.7,8.573,8.573,0,0,1-1.752.2A5.181,5.181,0,0,1,12.378.628a4.045,4.045,0,0,1-1.3-.809,3.058,3.058,0,0,1-.733-1.047A2.812,2.812,0,0,1,10.112-2.285Z" transform="translate(1331.333 285)"/>
  </g>
</svg>
