<svg xmlns="http://www.w3.org/2000/svg" xmlns:xlink="http://www.w3.org/1999/xlink" width="1328" height="1178" viewBox="0 0 1328 1178">
  <defs>
    <clipPath id="clip-path">
      <rect id="Rectangle_38294" data-name="Rectangle 38294" width="1328" height="1178" fill="#ffdfe0"/>
    </clipPath>
  </defs>
  <g id="bg-intro" transform="translate(-136 -400)">
    <rect id="Rectangle_38798" data-name="Rectangle 38798" width="1328" height="1178" transform="translate(136 400)" fill="#f0f4ff"/>
    <g id="Group_161191" data-name="Group 161191" transform="translate(136 400)">
      <g id="Mask_Group_164" data-name="Mask Group 164" transform="translate(0 0)" clip-path="url(#clip-path)">
        <g id="Group_169450" data-name="Group 169450" transform="translate(-486.829 104.746) rotate(-50)">
          <g id="Group_162315" data-name="Group 162315" transform="translate(23.029 22.655)" style="mix-blend-mode: overlay;isolation: isolate">
            <path id="Path_143614" data-name="Path 143614" d="M678.976,345.482c-51.148,51.456-103.85,101.175-157.479,150.1,24.508-50.581,50.717-100.447,74.121-151.5C622.146,286.2,653.5,207.529,625.93,149.266c-62.822-132.8-242.985,8.173-310.152,79.377-7.153,7.591-14.015,15.488-20.954,23.3,25.379-56.227,48.541-113.874,45.77-173.291-3.811-81.7-79.313-98.005-146.781-56.987C121.364,65.7,61.472,139.005,11.236,205.4c-42.671,56.391,47.036,104.329,89.358,48.731a813.219,813.219,0,0,1,75.4-85.729q-6.176,10.556-12.471,21.078c-27.756,46.382-55.206,92.931-78.3,141.484C40.991,423.922-24.036,552.784,22.169,646.471c23.289,47.215,82.754,49.492,128.572,27.841,61.591-29.1,106.045-89.316,148.594-140.493,44.414-53.434,83.953-109.837,125.338-165.374,17.29-23.207,34.584-46.733,54.16-68.235.448-.5.915-.958,1.362-1.447l-.532,1.47c-11.77,32.135-26.438,63.12-41.283,94.193-27.609,57.813-62.625,118.926-74.572,181.028-10.56,54.915,9.138,115.072,75.968,108.172,62.828-6.484,115.709-68.116,159.377-109.642,52.88-50.295,104.9-101.5,156.924-152.656C810.406,367.918,732.7,291.448,678.976,345.482Z" transform="translate(10.275 10.027)" fill="#3c384f"/>
            <path id="Path_143615" data-name="Path 143615" d="M443.642,704.106c-24.591,1.085-45.084-6.494-59.54-22.1-20.093-21.7-27.563-58.154-19.991-97.518,9.872-51.322,34.651-101.156,58.605-149.337,5.738-11.54,11.42-22.968,16.812-34.264,5.113-10.714,10.493-21.969,15.85-33.6q-4.723,6.3-9.351,12.528l-3.063,4.117q-16.13,21.639-31.991,43.386c-29.81,40.635-60.636,82.662-93.723,122.464-4.833,5.812-9.691,11.744-14.6,17.74-37.974,46.364-81.01,98.91-137.909,125.79-50.726,23.943-115.613,20.728-141.5-31.791C-23.3,567.173,37.185,440.467,81.353,347.953l5.013-10.52c12.994-27.329,27.392-54.081,42.586-80.748q-5.156,6.469-10.133,13.021c-26.164,34.367-69.351,35.773-96,17.268-22.042-15.3-33.462-45.059-9.26-77.044C67.184,139.054,126.81,67.384,199.331,23.308,239.577-1.151,282.679-6.735,314.654,8.371c28.154,13.3,44.628,41.343,46.378,78.98,2.057,44.139-9.564,86.986-25.466,128.075,54.407-52.468,154.06-127.869,230.967-120.5,35.328,3.4,61.893,23.427,78.96,59.509,28.078,59.338.4,135.976-30.389,203.11-14.651,31.963-30.619,63.9-46.065,94.8l-5.467,10.93c43.654-40.547,82.771-78.249,118.737-114.426v.01c17.782-17.9,39.679-25.153,61.6-20.461,24.068,5.166,43.97,24.577,49.515,48.323,5.086,21.781-2.085,43.593-20.208,61.408l-5.917,5.81c-49.259,48.439-100.193,98.528-151.145,146.972-6.279,5.975-12.739,12.358-19.4,18.939-39.626,39.122-88.937,87.823-146.53,93.766C448,703.854,445.805,704.011,443.642,704.106Zm47.225-404.875a9.136,9.136,0,0,1,4.858,1.073,8.937,8.937,0,0,1,4.286,11.138l-.543,1.481c-12.336,33.7-27.92,66.33-41.669,95.119-5.448,11.408-11.185,22.938-16.968,34.57-23.309,46.895-47.418,95.382-56.749,143.886-6.331,32.933-.358,64.1,15.587,81.316,11.826,12.771,28.7,18.045,50.218,15.9,49.863-5.153,94.093-48.82,133.116-87.356,6.766-6.676,13.332-13.163,19.707-19.232,50.814-48.318,101.685-98.334,150.88-146.711L759.5,424.6c16.034-15.757,16.5-31.416,14.088-41.778-3.938-16.862-18.6-31.184-35.653-34.843-10.392-2.236-26.044-1.566-41.713,14.2v.01c-46.465,46.729-98.111,95.951-157.9,150.473-3.689,3.366-9.035,3.911-12.822,1.324a9.365,9.365,0,0,1-2.827-12.02c9.26-19.12,18.77-38.132,28.279-57.144,15.357-30.736,31.246-62.514,45.741-94.141,28.84-62.887,54.978-134.227,30.234-186.517-14.38-30.423-35.362-46.553-64.14-49.315-71.7-6.877-176.59,74.115-229.56,130.282-5.651,5.978-11.108,12.166-16.576,18.355l-4.133,4.683c-3.417,3.863-8.95,4.945-13.091,2.563s-5.624-7.506-3.542-12.119c24.165-53.559,47.537-110.7,44.84-168.6C339.27,59,326.771,37.057,304.573,26.57c-25.89-12.231-61.669-7.17-95.715,13.513C139.64,82.166,81.734,151.874,29.473,220.944c-16.508,21.826-7.724,39.8,6.011,49.334,18.6,12.9,48.555,13.2,67.449-11.638A829.137,829.137,0,0,1,179.392,171.7c3.723-3.687,9.41-4.347,13.319-1.545s4.883,8.207,2.27,12.684q-6.208,10.6-12.536,21.171c-28.1,46.966-55.2,93.061-77.8,140.553L99.624,355.1C57.247,443.863-.773,565.431,41.678,651.51,62.3,693.323,115.459,695.15,157.31,675.39c52.228-24.668,91.747-72.917,129.957-119.581,4.943-6.026,9.844-12.011,14.719-17.864,32.638-39.273,63.248-81.011,92.864-121.378q15.969-21.781,32.089-43.52L430,368.94c16.234-21.8,33.017-44.339,51.815-65l.947-1.01A12.255,12.255,0,0,1,490.867,299.231Zm198.4,56.286.091,0Z" transform="translate(-0.008 -0.008)" fill="#3c384f"/>
            <path id="Path_143616" data-name="Path 143616" d="M49.194,5.44C8.456,81.127-16.55,168.854,12.764,246.98c4.328,11.555,24.213,5.539,19.822-6.184-27.511-73.355-4.618-154.851,33.7-226.04C72.608,3.02,55.541-6.356,49.194,5.44Z" transform="translate(43.713 386.045)" fill="#3c384f"/>
            <path id="Path_143617" data-name="Path 143617" d="M29.245,53.224c-.172-.012-.332-.055-.493-.078-.26-.527-.488-1.106-.572-1.262l-.048-.058c-.017-.079.011-.02-.014-.139-1.11-4.412-1.842-8.89-2.634-13.4Q22.75,22.619,20.006,6.947C19.118,1.876,12.9-1.3,7.825.518A11.235,11.235,0,0,0,.173,13.131q3.1,17.722,6.207,35.454c1.719,9.834,4.6,22.71,16.6,24.167,5.182.63,11.254-1.844,12.807-7.541C37.118,60.332,34.811,53.9,29.245,53.224Z" transform="translate(85.053 547.959)" fill="#3c384f"/>
            <path id="Path_143618" data-name="Path 143618" d="M40.077,1.065c-11.257-5.551-22.3,12.161-11.023,17.721,15.572,7.676,19.673,24.521,19.552,41.252-.121,19-3.171,38.652-7.15,57.529a408.143,408.143,0,0,1-40.07,108.97c-6.315,11.745,10.742,21.112,17.09,9.316,21.907-40.726,37.261-83.837,45.1-128.243C69.975,71.36,78,19.76,40.077,1.065Z" transform="translate(540.539 153.834)" fill="#3c384f"/>
          </g>
          <g id="Group_162318" data-name="Group 162318" transform="translate(0.008 0.009)">
            <g id="Group_162317" data-name="Group 162317" transform="translate(0 0)">
              <g id="Group_162316" data-name="Group 162316">
                <path id="Path_143619" data-name="Path 143619" d="M678.985,345.485C627.838,396.941,575.136,446.66,521.5,495.571,546,445,572.224,395.123,595.627,344.082c26.528-57.875,57.87-136.55,30.312-194.814-62.822-132.8-242.985,8.163-310.153,79.377-7.162,7.581-14.014,15.478-20.954,23.3C320.2,195.717,343.363,138.071,340.6,78.654c-3.811-81.7-79.313-98.005-146.78-57C121.363,65.7,61.481,139.008,11.235,205.4-31.436,261.8,58.282,309.733,100.6,254.135A814.255,814.255,0,0,1,175.994,168.4q-6.175,10.557-12.461,21.088c-27.756,46.383-55.206,92.931-78.3,141.474C40.99,423.925-24.026,552.777,22.179,646.474c23.289,47.215,82.744,49.492,128.572,27.841C212.342,645.212,256.8,585,299.345,533.823c44.414-53.435,83.943-109.837,125.328-165.374,17.3-23.208,34.595-46.734,54.161-68.245.448-.489.924-.949,1.373-1.448l-.533,1.48c-11.77,32.135-26.448,63.121-41.283,94.193-27.619,57.8-62.625,118.916-74.572,181.028-10.571,54.916,9.138,115.072,75.969,108.172,62.818-6.483,115.7-68.115,159.366-109.641,52.89-50.3,104.909-101.511,156.935-152.666C810.405,367.921,732.7,291.451,678.985,345.485Z" transform="translate(10.266 10.025)" fill="#6b8dfc"/>
                <path id="Path_143620" data-name="Path 143620" d="M443.632,704.1c-24.591,1.085-45.074-6.484-59.53-22.094-20.094-21.7-27.563-58.154-19.99-97.529,9.862-51.311,34.64-101.145,58.6-149.337,5.728-11.54,11.409-22.958,16.812-34.253,5.113-10.715,10.493-21.969,15.85-33.6-3.148,4.191-6.265,8.38-9.351,12.528l-3.063,4.107c-10.753,14.426-21.378,28.916-32,43.386-29.8,40.645-60.626,82.671-93.713,122.463q-7.249,8.733-14.6,17.75c-37.974,46.354-81.009,98.9-137.909,125.79C114,717.25,49.125,714.024,23.236,661.5-23.3,567.173,37.185,440.467,81.343,347.944l5.023-10.511c12.994-27.329,27.392-54.081,42.576-80.748q-5.141,6.469-10.132,13.011c-26.154,34.376-69.341,35.782-95.995,17.278-22.042-15.3-33.462-45.059-9.26-77.044C67.183,139.054,126.81,67.384,199.321,23.3,239.577-1.151,282.668-6.734,314.654,8.371c28.154,13.3,44.618,41.334,46.378,78.97,2.057,44.139-9.565,87-25.476,128.076,54.416-52.459,154.06-127.86,230.966-120.494,35.329,3.4,61.9,23.426,78.971,59.508,28.068,59.339.385,135.967-30.389,203.111-14.651,31.952-30.619,63.9-46.064,94.793l-5.467,10.929c43.653-40.537,82.77-78.239,118.736-114.416h0c17.782-17.9,39.679-25.142,61.6-20.451,24.068,5.166,43.97,24.577,49.505,48.324,5.1,21.78-2.074,43.583-20.2,61.4l-5.917,5.82c-49.259,48.439-100.193,98.518-151.145,146.972-6.279,5.975-12.739,12.358-19.41,18.939-39.616,39.122-88.927,87.822-146.52,93.766C447.992,703.845,445.806,704,443.632,704.1Zm47.225-404.875a9.118,9.118,0,0,1,4.858,1.083,8.926,8.926,0,0,1,4.3,11.137l-.543,1.481c-12.336,33.687-27.92,66.329-41.669,95.118-5.448,11.4-11.185,22.928-16.968,34.57-23.319,46.9-47.429,95.382-56.759,143.876-6.331,32.933-.358,64.1,15.6,81.325,11.816,12.762,28.7,18.045,50.218,15.9,49.864-5.153,94.093-48.819,133.105-87.356,6.767-6.685,13.343-13.173,19.717-19.232,50.814-48.318,101.685-98.334,150.88-146.71l5.907-5.82c16.023-15.746,16.5-31.406,14.077-41.777-3.938-16.852-18.594-31.185-35.654-34.833-10.382-2.237-26.034-1.566-41.7,14.2h0c-46.465,46.729-98.111,95.951-157.9,150.483-3.7,3.367-9.045,3.912-12.822,1.324a9.354,9.354,0,0,1-2.827-12.02c9.261-19.121,18.77-38.132,28.269-57.154,15.367-30.727,31.246-62.5,45.751-94.131,28.83-62.886,54.978-134.227,30.234-186.527-14.391-30.412-35.372-46.542-64.14-49.315-71.7-6.867-176.6,74.125-229.57,130.282-5.641,5.987-11.1,12.176-16.566,18.355l-4.144,4.694c-3.407,3.863-8.94,4.945-13.081,2.563s-5.635-7.506-3.552-12.128c24.175-53.55,47.547-110.7,44.849-168.59-1.448-31.033-13.947-52.976-36.145-63.463-25.9-12.22-61.67-7.16-95.715,13.523C139.63,82.157,81.734,151.875,29.473,220.944c-16.518,21.826-7.723,39.791,6.011,49.324,18.6,12.912,48.554,13.207,67.448-11.628A827.074,827.074,0,0,1,179.392,171.7c3.713-3.687,9.41-4.347,13.309-1.545,3.919,2.8,4.893,8.207,2.271,12.674q-6.208,10.618-12.526,21.181c-28.107,46.967-55.2,93.061-77.807,140.553L99.614,355.1C57.246,443.864-.773,565.431,41.678,651.5c20.621,41.824,73.781,43.65,115.631,23.891,52.228-24.669,91.747-72.927,129.957-119.581q7.416-9.055,14.709-17.874c32.648-39.263,63.258-81,92.873-121.368q15.969-21.782,32.089-43.53l3.063-4.1c16.234-21.8,33.018-44.349,51.805-65l.958-1.01A12.244,12.244,0,0,1,490.857,299.222Zm198.4,56.3.1,0Z" transform="translate(-0.008 -0.009)"/>
              </g>
              <path id="Path_143621" data-name="Path 143621" d="M49.2,5.442c-40.748,75.687-65.744,163.4-36.44,241.54,4.339,11.545,24.224,5.538,19.832-6.184-27.52-73.365-4.628-154.851,33.7-226.04C72.6,3.013,55.547-6.354,49.2,5.442Z" transform="translate(43.708 386.043)"/>
              <path id="Path_143622" data-name="Path 143622" d="M29.245,53.224c-.172-.012-.332-.055-.493-.078-.26-.538-.5-1.106-.582-1.262l-.038-.058c-.017-.079.012-.03-.014-.149-1.11-4.4-1.852-8.89-2.634-13.387Q22.735,22.619,20.006,6.947C19.118,1.876,12.9-1.3,7.814.518A11.232,11.232,0,0,0,.173,13.131l6.2,35.444c1.728,9.843,4.608,22.72,16.606,24.177,5.183.62,11.254-1.843,12.807-7.54C37.118,60.332,34.8,53.9,29.245,53.224Z" transform="translate(85.053 547.959)"/>
              <path id="Path_143623" data-name="Path 143623" d="M40.08,1.065C28.823-4.486,17.77,13.226,29.057,18.786,44.629,26.462,48.72,43.307,48.609,60.028c-.121,19-3.172,38.662-7.15,57.539A408.146,408.146,0,0,1,1.39,226.537c-6.325,11.746,10.742,21.112,17.09,9.316,21.9-40.735,37.261-83.846,45.1-128.243C69.979,71.35,78.008,19.75,40.08,1.065Z" transform="translate(540.535 153.835)"/>
            </g>
          </g>
        </g>
        <g id="Group_174541" data-name="Group 174541" transform="translate(265.171 1303.593) rotate(-50)">
          <g id="Group_162315-2" data-name="Group 162315" transform="translate(36.745 36.149)" style="mix-blend-mode: overlay;isolation: isolate">
            <path id="Path_143614-2" data-name="Path 143614" d="M1083.527,551.327C1001.9,633.442,917.8,712.784,832.217,790.854c39.11-80.718,80.936-160.3,118.285-241.766,42.334-92.359,92.367-217.912,48.372-310.89C898.621,26.266,611.11,251.241,503.923,364.871c-11.414,12.113-22.365,24.716-33.439,37.181,40.5-89.73,77.464-181.724,73.041-276.543C537.443-4.864,416.954-30.891,309.287,34.567,193.672,104.836,98.094,221.824,17.926,327.78c-68.1,89.991,75.062,166.491,142.6,77.767A1297.762,1297.762,0,0,1,280.854,268.739q-9.855,16.846-19.9,33.638c-44.294,74.018-88.1,148.3-124.961,225.784C65.41,676.5-38.362,882.145,35.374,1031.654c37.165,75.347,132.062,78.98,205.18,44.429,98.289-46.444,169.23-142.533,237.131-224.2C548.562,766.609,611.659,676.6,677.7,587.972c27.592-37.034,55.191-74.579,86.43-108.891.715-.8,1.46-1.529,2.174-2.31l-.849,2.347c-18.783,51.282-42.191,100.73-65.881,150.317-44.06,92.26-99.94,189.786-119,288.891-16.853,87.635,14.582,183.636,121.233,172.625C802.07,1080.6,886.459,982.248,956.145,915.98c84.387-80.262,167.4-161.977,250.425-243.613C1293.267,587.13,1169.265,465.1,1083.527,551.327Z" transform="translate(16.401 16.007)" fill="#3c384f"/>
            <path id="Path_143615-2" data-name="Path 143615" d="M707.973,1123.629c-39.243,1.731-71.947-10.363-95.016-35.273-32.066-34.626-43.986-92.8-31.9-155.623,15.754-81.9,55.3-161.428,93.524-238.317,9.157-18.416,18.224-36.653,26.829-54.679,8.159-17.1,16.746-35.059,25.294-53.624q-7.536,10.056-14.922,19.993l-4.889,6.57q-25.741,34.532-51.053,69.236c-47.572,64.847-96.764,131.915-149.566,195.432-7.712,9.275-15.464,18.742-23.3,28.309-60.6,73.989-129.278,157.843-220.08,200.739-80.95,38.209-184.5,33.078-225.815-50.733C-37.18,905.107,59.336,702.906,129.82,555.269l8-16.789c20.736-43.612,43.712-86.3,67.961-128.861q-8.228,10.324-16.17,20.78C147.858,485.243,78.938,487.487,36.4,457.957,1.227,433.533-17,386.049,21.625,335.007,107.209,221.9,202.362,107.528,318.094,37.19,382.32-1.842,451.1-10.753,502.13,13.354c44.929,21.222,71.218,65.977,74.011,126.038,3.282,70.439-15.263,138.815-40.64,204.387,86.824-83.73,245.854-204.058,368.584-192.3,56.378,5.428,98.772,37.385,126.007,94.966,44.808,94.694.631,217-48.5,324.13-23.381,51.008-48.863,101.98-73.511,151.29L899.361,739.3c69.665-64.707,132.088-124.873,189.485-182.6v.016c28.377-28.565,63.322-40.14,98.3-32.653,38.409,8.244,70.169,39.22,79.018,77.116,8.117,34.759-3.327,69.568-32.249,98l-9.442,9.272c-78.609,77.3-159.891,157.234-241.2,234.542-10.021,9.536-20.329,19.721-30.959,30.223-63.236,62.433-141.929,140.15-233.838,149.635C714.931,1123.227,711.425,1123.477,707.973,1123.629Zm75.364-646.112a14.579,14.579,0,0,1,7.753,1.713c6.346,3.51,9.491,10.586,6.839,17.774l-.866,2.363c-19.687,53.775-44.556,105.851-66.5,151.794-8.694,18.2-17.85,36.6-27.078,55.168-37.2,74.836-75.672,152.213-90.562,229.617-10.1,52.555-.571,102.286,24.874,129.766,18.872,20.381,45.8,28.8,80.14,25.37,79.574-8.224,150.157-77.908,212.43-139.405,10.8-10.653,21.276-21.006,31.449-30.691,81.091-77.107,162.272-156.925,240.779-234.125l9.426-9.271c25.587-25.145,26.335-50.134,22.481-66.67-6.284-26.908-29.689-49.765-56.9-55.6-16.584-3.569-41.562-2.5-66.567,22.669V578c-74.151,74.571-156.569,153.122-251.984,240.13-5.887,5.372-14.419,6.242-20.462,2.113s-7.934-12.136-4.511-19.183c14.778-30.513,29.954-60.853,45.129-91.192,24.507-49.05,49.864-99.762,72.995-150.233,46.025-100.357,87.736-214.2,48.248-297.65-22.948-48.549-56.431-74.29-102.356-78.7C783.681,172.313,616.292,301.563,531.76,391.2c-9.018,9.539-17.727,19.415-26.452,29.292l-6.6,7.474c-5.453,6.165-14.282,7.892-20.891,4.09-6.592-3.786-8.976-11.979-5.653-19.339,38.563-85.472,75.861-176.652,71.557-269.056C541.413,94.149,521.466,59.132,486.043,42.4,444.726,22.877,387.629,30.954,333.3,63.96,222.838,131.119,130.43,242.361,47.029,352.584,20.685,387.414,34.7,416.1,56.622,431.313c29.686,20.588,77.485,21.06,107.637-18.572A1323.164,1323.164,0,0,1,286.275,273.995c5.942-5.884,15.016-6.937,21.255-2.466,6.255,4.47,7.793,13.1,3.623,20.241q-9.907,16.92-20,33.785c-44.838,74.95-88.092,148.509-124.151,224.3l-8.017,16.821C91.351,708.326-1.238,902.327,66.506,1039.694c32.908,66.727,117.743,69.642,184.529,38.109,83.348-39.367,146.412-116.363,207.389-190.832,7.889-9.616,15.71-19.167,23.489-28.508,52.085-62.672,100.933-129.28,148.195-193.7q25.484-34.76,51.208-69.45l4.888-6.554c25.906-34.794,52.69-70.758,82.688-103.726l1.512-1.611A19.556,19.556,0,0,1,783.336,477.518Zm316.616,89.824.146-.007Z" transform="translate(-0.008 -0.008)" fill="#3c384f"/>
            <path id="Path_143616-2" data-name="Path 143616" d="M78.5,8.68C13.492,129.464-26.414,269.461,20.366,394.137c6.907,18.44,38.64,8.839,31.633-9.868C8.1,267.206,44.629,137.152,105.774,23.547,115.867,4.818,88.631-10.145,78.5,8.68Z" transform="translate(69.762 616.063)" fill="#3c384f"/>
            <path id="Path_143617-2" data-name="Path 143617" d="M46.67,84.937c-.274-.019-.53-.088-.787-.124-.415-.841-.778-1.765-.913-2.014l-.077-.092c-.027-.126.018-.033-.022-.222-1.771-7.041-2.94-14.188-4.2-21.378Q36.3,36.1,31.925,11.086C30.508,2.994,20.592-2.079,12.487.827,3.608,4.005-1.244,12.278.276,20.954q4.945,28.281,9.906,56.578c2.743,15.693,7.338,36.242,26.486,38.567,8.27,1,17.96-2.942,20.438-12.034C59.234,96.28,55.552,86.01,46.67,84.937Z" transform="translate(135.731 874.45)" fill="#3c384f"/>
            <path id="Path_143618-2" data-name="Path 143618" d="M63.951,1.7C45.986-7.16,28.364,21.105,46.361,29.979c24.85,12.25,31.394,39.131,31.2,65.831-.194,30.316-5.061,61.681-11.409,91.807a651.327,651.327,0,0,1-63.944,173.9c-10.077,18.743,17.143,33.692,27.273,14.866,34.96-64.991,59.462-133.789,71.971-204.654C111.664,113.879,124.478,31.534,63.951,1.7Z" transform="translate(862.612 245.494)" fill="#3c384f"/>
          </g>
          <g id="Group_162318-2" data-name="Group 162318" transform="translate(0.008 0.009)">
            <g id="Group_162317-2" data-name="Group 162317" transform="translate(0)">
              <g id="Group_162316-2" data-name="Group 162316">
                <path id="Path_143619-2" data-name="Path 143619" d="M1083.541,551.331c-81.623,82.115-165.726,161.458-251.325,239.512,39.11-80.7,80.952-160.3,118.3-241.75,42.334-92.359,92.351-217.911,48.372-310.89C898.635,26.271,611.126,251.229,503.937,364.875c-11.43,12.1-22.364,24.7-33.439,37.181,40.485-89.729,77.447-181.723,73.041-276.543C537.458-4.859,416.968-30.887,309.3,34.556,193.67,104.842,98.109,221.828,17.925,327.785-50.17,417.776,93,494.276,160.541,405.551A1299.413,1299.413,0,0,1,280.853,268.728Q271,285.575,260.967,302.381c-44.295,74.019-88.1,148.3-124.961,225.768-70.6,148.359-174.353,353.984-100.617,503.51,37.165,75.347,132.046,78.981,205.18,44.429,98.289-46.444,169.23-142.533,237.131-224.2,70.877-85.273,133.958-175.282,200-263.909,27.609-37.035,55.208-74.58,86.431-108.908.715-.78,1.475-1.514,2.191-2.31l-.85,2.363c-18.783,51.282-42.207,100.73-65.881,150.317-44.076,92.245-99.939,189.77-119,288.891-16.869,87.636,14.582,183.636,121.233,172.625,100.247-10.346,184.635-108.7,254.321-174.969,84.4-80.263,167.417-161.994,250.442-243.63C1293.266,587.135,1169.264,465.1,1083.541,551.331Z" transform="translate(16.387 16.003)" fill="#6b8dfc"/>
                <path id="Path_143620-2" data-name="Path 143620" d="M707.957,1123.614c-39.244,1.731-71.931-10.348-95-35.258-32.066-34.626-43.987-92.8-31.9-155.639,15.738-81.884,55.28-161.411,93.524-238.316,9.14-18.415,18.208-36.636,26.829-54.662,8.159-17.1,16.745-35.06,25.294-53.624-5.024,6.688-10,13.373-14.922,19.992l-4.888,6.554c-17.16,23.022-34.116,46.146-51.069,69.237-47.557,64.862-96.749,131.93-149.55,195.43q-11.569,13.937-23.3,28.326c-60.6,73.973-129.277,157.827-220.08,200.739-80.966,38.211-184.5,33.062-225.814-50.749C-37.18,905.107,59.336,702.906,129.8,555.254l8.015-16.773c20.737-43.612,43.712-86.3,67.944-128.86q-8.2,10.323-16.17,20.764c-41.737,54.859-110.657,57.1-153.192,27.572C1.227,433.534-17,386.05,21.625,335.008,107.209,221.9,202.362,107.528,318.078,37.176,382.32-1.842,451.086-10.752,502.13,13.354c44.929,21.222,71.2,65.962,74.012,126.022,3.283,70.439-15.264,138.831-40.656,204.388C622.326,260.049,781.34,139.721,904.07,151.476c56.378,5.428,98.788,37.384,126.023,94.965,44.791,94.695.615,216.98-48.5,324.13-23.38,50.991-48.863,101.979-73.511,151.274l-8.724,17.441c69.663-64.69,132.087-124.857,189.483-182.588h0c28.378-28.564,63.321-40.123,98.3-32.636,38.409,8.244,70.169,39.22,79,77.117,8.133,34.758-3.31,69.551-32.232,97.981l-9.443,9.287c-78.609,77.3-159.891,157.218-241.2,234.542-10.021,9.536-20.329,19.721-30.976,30.224-63.221,62.431-141.913,140.15-233.822,149.635C714.915,1123.212,711.426,1123.461,707.957,1123.614ZM783.321,477.5a14.551,14.551,0,0,1,7.752,1.729c6.362,3.51,9.508,10.569,6.855,17.774l-.866,2.363c-19.686,53.758-44.556,105.85-66.5,151.793-8.694,18.189-17.85,36.589-27.078,55.168-37.213,74.837-75.688,152.214-90.577,229.6-10.1,52.556-.571,102.286,24.89,129.782,18.857,20.366,45.8,28.8,80.14,25.37,79.574-8.224,150.157-77.907,212.414-139.4,10.8-10.669,21.293-21.022,31.466-30.692,81.091-77.107,162.271-156.925,240.779-234.125l9.427-9.287c25.57-25.128,26.334-50.118,22.465-66.669-6.285-26.893-29.672-49.766-56.9-55.588-16.567-3.569-41.545-2.5-66.551,22.668h0c-74.15,74.571-156.568,153.122-251.984,240.146-5.9,5.373-14.435,6.242-20.462,2.113-6.06-4.128-7.933-12.136-4.512-19.183,14.778-30.513,29.953-60.853,45.113-91.207,24.522-49.034,49.864-99.746,73.01-150.217,46.008-100.356,87.735-214.2,48.249-297.666-22.965-48.533-56.448-74.273-102.356-78.7C783.681,172.314,616.275,301.564,531.744,391.181c-9,9.554-17.711,19.43-26.436,29.291l-6.613,7.49c-5.437,6.164-14.267,7.891-20.875,4.09-6.593-3.786-8.992-11.978-5.668-19.355,38.579-85.456,75.877-176.653,71.572-269.041-2.31-49.523-22.258-84.541-57.681-101.277C444.71,22.878,387.629,30.954,333.3,63.961,222.822,131.1,130.429,242.361,47.029,352.584c-26.361,34.83-12.325,63.5,9.593,78.713,29.685,20.605,77.485,21.076,107.636-18.556A1319.87,1319.87,0,0,1,286.274,274c5.926-5.883,15.017-6.937,21.239-2.466,6.255,4.47,7.809,13.1,3.623,20.226q-9.908,16.944-19.989,33.8c-44.854,74.951-88.092,148.509-124.167,224.3l-8.017,16.821c-67.612,141.65-160.2,335.651-92.456,473,32.908,66.744,117.742,69.659,184.528,38.126,83.348-39.367,146.413-116.379,207.389-190.831q11.834-14.45,23.474-28.524c52.1-62.658,100.949-129.265,148.21-193.684q25.485-34.76,51.209-69.466l4.887-6.539c25.906-34.794,52.691-70.774,82.672-103.725l1.528-1.612A19.539,19.539,0,0,1,783.321,477.5Zm316.614,89.84.162-.007Z" transform="translate(-0.008 -0.009)"/>
              </g>
              <path id="Path_143621-2" data-name="Path 143621" d="M78.51,8.684C13.484,129.468-26.405,269.448,20.358,394.14c6.924,18.424,38.657,8.838,31.649-9.868C8.089,267.194,44.621,137.156,105.783,23.55,115.86,4.807,88.64-10.142,78.51,8.684Z" transform="translate(69.754 616.06)"/>
              <path id="Path_143622-2" data-name="Path 143622" d="M46.67,84.937c-.274-.02-.53-.088-.787-.124-.414-.858-.794-1.765-.929-2.013l-.06-.093c-.027-.126.018-.048-.022-.238-1.772-7.025-2.955-14.187-4.2-21.363Q36.281,36.1,31.925,11.085C30.508,2.994,20.592-2.079,12.47.827,3.609,3.989-1.244,12.278.276,20.954q4.945,28.282,9.89,56.563c2.758,15.708,7.354,36.257,26.5,38.582,8.271.989,17.96-2.942,20.438-12.033C59.234,96.279,55.536,86.011,46.67,84.937Z" transform="translate(135.731 874.451)"/>
              <path id="Path_143623-2" data-name="Path 143623" d="M63.957,1.7c-17.965-8.859-35.6,19.407-17.59,28.28,24.85,12.25,31.378,39.132,31.2,65.815-.194,30.316-5.062,61.7-11.411,91.823a651.332,651.332,0,0,1-63.944,173.9C-7.88,380.258,19.357,395.205,29.486,376.38c34.944-65.006,59.462-133.8,71.971-204.654C111.67,113.862,124.484,31.518,63.957,1.7Z" transform="translate(862.607 245.495)"/>
            </g>
          </g>
        </g>
      </g>
    </g>
  </g>
</svg>
