<?xml version="1.0" encoding="UTF-8" standalone="no"?><!DOCTYPE svg PUBLIC "-//W3C//DTD SVG 1.1//EN" "http://www.w3.org/Graphics/SVG/1.1/DTD/svg11.dtd"><svg width="100%" height="100%" viewBox="0 0 5536 12904" version="1.1" xmlns="http://www.w3.org/2000/svg" xmlns:xlink="http://www.w3.org/1999/xlink" xml:space="preserve" xmlns:serif="http://www.serif.com/" style="fill-rule:evenodd;clip-rule:evenodd;stroke-linejoin:round;stroke-miterlimit:2;"><g id="bg-t3-1"><g id="Group_175794"><g id="Group_166707"><rect id="Path_170518-2" x="2.05" y="1.387" width="5533.33" height="10313.9" style="fill:#f0f4ff;fill-rule:nonzero;"/></g><g id="Mask_Group_317"><clipPath id="_clip1"><rect x="2.05" y="1.388" width="5533.33" height="10313.9"/></clipPath><g clip-path="url(#_clip1)"><g opacity="0.25"><g id="Group_175739"><g id="Group_162315"><path id="Path_143614" d="M4435.96,2708.6c-29.241,323.039 -48.062,646.408 -61.492,970.659c102.789,-229.301 198.261,-462.351 305.844,-689.213c121.982,-257.171 301.333,-590.623 580.087,-663.65c635.356,-166.492 670.282,855.652 619.446,1290.31c-5.442,46.312 -12.769,92.503 -19.581,138.719c119.635,-248.501 250.5,-493.484 461.95,-654.741c290.739,-221.718 563.567,-10.013 616.974,338.928c57.394,374.657 -21.539,790.439 -104.58,1153.29c-70.504,308.194 -492.472,138.723 -423.683,-165.986c37.431,-166.184 63.136,-334.793 76.926,-504.58c-12.272,34.324 -24.389,68.752 -36.352,103.285c-79.084,228.349 -159.624,456.125 -259.522,674.76c-191.259,418.587 -445.709,1011.61 -899.357,1122.6c-228.623,55.917 -407.3,-141.198 -464.826,-360.329c-77.325,-294.572 1.139,-619.85 54.138,-912.637c55.365,-305.662 134.91,-603.16 206.18,-904.496c29.79,-125.905 60.667,-252.743 78.048,-381.573c0.42,-2.968 0.651,-5.887 1.042,-8.826l-3.508,6.049c-76.231,132.657 -140.197,271.939 -203.943,412.085c-118.655,260.695 -227.3,556.241 -405.679,775.617c-157.726,193.979 -420.345,299.407 -588.777,50.683c-158.362,-233.818 -99.248,-592.035 -82.523,-860.923c20.285,-325.636 46.167,-650.936 71.87,-976.131c26.787,-339.538 511.98,-293.176 481.318,46.106Z" style="fill:#3c384f;fill-rule:nonzero;"/><path id="Path_143615" d="M3947.96,4551.52c66.954,87.338 151.8,135.74 246.8,140.393c132.053,6.463 278.382,-72.726 391.425,-211.774c147.395,-181.296 246.862,-409.365 343.028,-629.862c23.031,-52.815 45.843,-105.113 69.031,-156.042c22.014,-48.311 45.084,-99.07 69.53,-150.847c-5.34,22.854 -10.684,45.53 -16.034,68.026l-5.295,22.321c-18.503,78.284 -37.387,156.365 -56.652,234.243c-53.497,218.868 -108.849,445.21 -150.076,672.905c-6.017,33.252 -12.363,66.942 -18.79,100.989c-49.656,263.286 -105.938,561.689 -34.488,833.787c63.772,242.534 261.26,455.52 515.519,393.257c456.815,-111.773 716.948,-683 906.863,-1100.13l21.617,-47.396c56.254,-123.036 106.499,-249.221 154.164,-377.898c-4.894,24.167 -10.053,48.207 -15.475,72.121c-42.494,188.356 76.789,340.313 216.757,378.416c115.757,31.51 250.47,-14.902 290.469,-189.689c88.618,-387.346 162.723,-797.511 105.264,-1172.54c-31.889,-208.123 -136.63,-371.782 -280.252,-437.882c-126.45,-58.203 -269.838,-34.03 -403.764,68.133c-157.077,119.799 -270.424,282.729 -365.446,455.266c23.351,-337.118 -4.798,-895.073 -251.028,-1137.31c-113.173,-111.214 -258.095,-144.649 -430.716,-99.406c-283.907,74.36 -466.826,389.408 -608.276,687.76c-67.377,142.041 -130.863,288.507 -192.301,430.198l-21.72,50.132c13.414,-266.028 30.127,-508.34 50.67,-735.471l-0.036,0.029c10.204,-112.336 -27.886,-208.174 -106.944,-269.761c-86.856,-67.58 -210.528,-79.962 -307.792,-30.711c-89.209,45.174 -143.308,132.417 -152.235,245.678l-2.896,36.959c-24.335,307.897 -49.521,626.266 -69.007,940c-2.423,38.677 -5.718,79.14 -9.111,120.867c-20.109,248.137 -45.191,556.966 99.974,771.284c5.553,8.297 11.329,16.27 17.223,23.955Zm1250.89,-1325.23c-4.512,-6.062 -10.619,-10.755 -17.639,-13.553c-18.685,-7.91 -40.579,-0.394 -50.466,17.325l-3.513,6.114c-79.952,139.086 -146.931,286.231 -206.014,416.053c-23.414,51.438 -46.419,104.22 -69.635,157.456c-93.621,214.591 -190.392,436.499 -329.693,607.839c-94.594,116.322 -218.485,185.419 -323.284,180.296c-77.713,-3.809 -144.291,-46.452 -198.76,-126.301c-125.641,-185.572 -103.201,-462.539 -83.364,-706.924c3.419,-42.357 6.765,-83.485 9.235,-122.761c19.453,-312.879 44.571,-630.816 68.864,-938.336l2.92,-36.923c7.895,-100.179 60.169,-146.795 102.593,-168.305c69.063,-34.97 160.261,-25.903 221.788,21.974c37.526,29.165 80.205,84.694 71.225,183.677l-0.035,0.03c-26.508,293.419 -46.665,611.747 -61.572,973.196c-0.928,22.307 12.56,42.193 32.312,47.719c19.752,5.525 40.332,-4.83 49.298,-24.869c38.873,-86.662 76.654,-173.866 114.439,-261.067c61.134,-140.919 124.304,-286.658 190.961,-427.186c132.494,-279.491 301.705,-574.019 551.896,-639.543c145.517,-38.176 261.052,-12.674 353.213,77.945c229.606,225.796 253.662,817.766 213.512,1160.6c-4.235,36.531 -9.744,73.006 -15.228,109.519l-4.161,27.614c-3.412,22.803 8.776,44.853 28.842,52.198c20.066,7.346 41.87,-2.308 51.671,-22.688c113.987,-236.674 242.501,-480.914 448.549,-638.068c110.409,-84.192 221.479,-104.44 321.185,-58.558c116.29,53.522 201.775,190.597 228.778,366.638c54.821,357.964 -17.523,756.616 -103.883,1134.08c-27.307,119.258 -114.113,140.827 -186.233,121.185c-97.64,-26.631 -184.735,-128.371 -153.973,-264.441c37.903,-168.542 63.978,-339.527 78.035,-511.705c1.914,-23.363 -12.164,-44.73 -32.983,-50.056c-20.82,-5.326 -42.142,6.86 -49.966,28.676c-12.314,34.486 -24.475,69.077 -36.483,103.771c-80.108,231.194 -160.078,456.485 -257.796,670.348l-21.662,47.499c-182.217,400.224 -431.809,948.268 -848.602,1050.25c-202.462,49.538 -361.484,-127.273 -414.079,-327.388c-65.606,-249.762 -13.931,-523.755 36.077,-788.714c6.444,-34.234 12.843,-68.23 18.884,-101.746c40.704,-224.636 95.686,-449.41 148.826,-666.842c19.137,-78.191 38.086,-156.515 56.847,-234.971l5.263,-22.295c28.02,-118.251 56.969,-240.497 73.69,-364.253l0.736,-6.144c1.396,-13.664 -2.395,-27.366 -10.618,-38.368l0.003,0.003Zm-762.912,-517.737l-0.268,-0.319l0.268,0.319Z" style="fill:#3c384f;fill-rule:nonzero;"/><path id="Path_143616" d="M6026.48,4854.32c-142.143,357.019 -370.728,694.763 -722.528,818.88c-52.014,18.385 -88.551,-67.007 -35.787,-85.652c330.285,-116.588 543.612,-429.177 677.297,-764.985c22.023,-55.384 103.175,-23.882 81.018,31.757Z" style="fill:#3c384f;fill-rule:nonzero;"/><path id="Path_143617" d="M5246.84,5383.68c0.534,0.552 1.142,0.978 1.685,1.463c2.554,-0.625 5.189,-1.51 5.966,-1.667l0.337,0c0.32,-0.17 0.038,-0.097 0.516,-0.351c18.3,-8.877 35.739,-19.241 53.449,-29.477c41.019,-23.784 82.05,-47.556 123.091,-71.315c19.919,-11.53 48.659,0.617 57.029,23.238c9.461,23.091 0.35,49.907 -21.219,62.455c-46.399,26.876 -92.819,53.752 -139.259,80.627c-38.616,22.372 -90.99,49.513 -130.469,12.615c-17.039,-15.944 -26.017,-43.847 -10.981,-65.553c12.89,-18.572 41.556,-29.164 59.855,-12.035Z" style="fill:#3c384f;fill-rule:nonzero;"/><path id="Path_143618" d="M5435.19,2504.15c51.361,22.602 22.436,111.317 -29.014,88.674c-71.037,-31.271 -140.511,3.092 -197.463,51.588c-64.711,55.006 -123.266,121.926 -176.478,189.807c-107.039,137.061 -193.936,288.722 -258.051,450.377c-22.065,55.393 -103.175,23.882 -81.017,-31.757c76.528,-192.068 180.042,-368.532 309.594,-522.988c105.764,-126.087 259.411,-301.876 432.429,-225.701Z" style="fill:#3c384f;fill-rule:nonzero;"/></g><g id="Group_162318"><g id="Group_162317"><g id="Group_162316"><path id="Path_143619" d="M4579.67,2722.36c-29.241,323.039 -48.06,646.39 -61.43,970.667c102.754,-229.271 198.235,-462.389 305.782,-689.215c121.98,-257.175 301.352,-590.6 580.085,-663.653c635.355,-166.492 670.313,855.626 619.442,1290.31c-5.38,46.315 -12.734,92.474 -19.581,138.72c119.662,-248.463 250.527,-493.447 461.95,-654.741c290.739,-221.719 563.567,-10.014 617.006,338.895c57.388,374.721 -21.583,790.476 -104.587,1153.35c-70.505,308.194 -492.502,138.688 -423.711,-166.024c37.434,-166.186 63.156,-334.796 76.977,-504.584c-12.271,34.324 -24.409,68.749 -36.413,103.276c-79.084,228.35 -159.624,456.126 -259.497,674.74c-191.235,418.659 -445.685,1011.61 -899.362,1122.63c-228.618,55.918 -407.271,-141.163 -464.827,-360.329c-77.325,-294.572 1.142,-619.847 54.136,-912.634c55.368,-305.665 134.938,-603.125 206.206,-904.459c29.76,-125.939 60.637,-252.778 78.08,-381.605c0.39,-2.938 0.593,-5.893 1.012,-8.861l-3.54,6.082c-76.231,132.657 -140.17,271.97 -203.943,412.085c-118.591,260.7 -227.294,556.209 -405.679,775.617c-157.703,193.993 -420.363,299.373 -588.784,50.662c-158.314,-233.761 -99.205,-591.985 -82.491,-860.886c20.259,-325.673 46.172,-651 71.86,-976.187c26.807,-339.469 512.001,-293.107 481.309,46.14Z" style="fill:#6b8dfc;fill-rule:nonzero;"/><path id="Path_143620" d="M4091.73,4565.28c66.954,87.338 151.741,135.735 246.738,140.385c132.054,6.463 278.382,-72.726 391.458,-211.807c147.392,-181.228 246.853,-409.298 343.028,-629.862c23.074,-52.763 45.849,-105.053 69.007,-155.999c22.013,-48.311 45.087,-99.073 69.533,-150.85c-5.316,22.835 -10.695,45.542 -16.034,68.026l-5.266,22.291c-18.504,78.285 -37.596,156.311 -56.623,234.278c-53.558,218.859 -108.895,445.194 -150.102,672.873c-6.051,33.282 -12.326,66.954 -18.826,101.018c-49.626,263.262 -105.9,561.663 -34.487,833.793c63.801,242.569 261.291,455.494 515.55,393.23c456.774,-111.738 716.919,-682.975 906.893,-1100.09l21.568,-47.41c56.254,-123.036 106.498,-249.221 154.19,-377.859c-4.921,24.131 -10.069,48.162 -15.444,72.093c-42.573,188.358 76.72,340.301 216.693,378.411c115.757,31.51 250.47,-14.902 290.469,-189.689c88.618,-387.347 162.723,-797.511 105.325,-1172.54c-31.951,-208.131 -136.658,-371.752 -280.311,-437.887c-126.45,-58.203 -269.778,-34.025 -403.731,68.1c-157.077,119.799 -270.453,282.76 -365.42,455.304c23.283,-337.115 -4.83,-895.046 -251.072,-1137.27c-113.176,-111.218 -258.125,-144.685 -430.742,-99.444c-283.881,74.398 -466.765,389.41 -608.276,687.76c-67.327,141.998 -130.86,288.504 -192.27,430.171l-21.72,50.132c13.398,-266.009 30.091,-508.305 50.635,-735.441c10.201,-112.34 -27.922,-208.146 -106.98,-269.732c-86.856,-67.581 -210.528,-79.962 -307.762,-30.676c-89.239,45.138 -143.299,132.349 -152.229,245.614l-2.926,36.988c-24.335,307.897 -49.486,626.237 -69.007,940c-2.417,38.677 -5.715,79.144 -9.081,120.902c-20.138,248.091 -45.217,556.923 99.932,771.248c5.631,8.292 11.378,16.23 17.29,23.937Zm1250.9,-1325.23c-4.521,-6.058 -10.639,-10.741 -17.668,-13.523c-18.682,-7.95 -40.603,-0.441 -50.487,17.294l-3.513,6.113c-79.92,139.054 -146.928,286.235 -206.011,416.051c-23.382,51.412 -46.38,104.188 -69.635,157.456c-93.603,214.631 -190.376,436.551 -329.644,607.852c-94.594,116.322 -218.485,185.419 -323.342,180.291c-77.664,-3.796 -144.292,-46.452 -198.761,-126.3c-125.64,-185.573 -103.203,-462.544 -83.334,-706.89c3.448,-42.387 6.769,-83.552 9.205,-122.796c19.453,-312.879 44.572,-630.816 68.862,-938.333l2.955,-36.953c7.897,-100.137 60.143,-146.773 102.636,-168.254c69.033,-34.94 160.237,-25.937 221.753,22.004c37.494,29.126 80.178,84.656 71.195,183.642c-26.515,293.398 -46.675,611.728 -61.615,973.21c-0.898,22.342 12.587,42.226 32.313,47.719c19.771,5.569 40.331,-4.829 49.298,-24.869c38.872,-86.662 76.656,-173.862 114.499,-261.058c61.073,-140.928 124.27,-286.629 190.903,-427.191c132.514,-279.455 301.711,-574.024 551.922,-639.57c145.508,-38.11 261.046,-12.605 353.213,77.944c229.56,225.819 253.638,817.829 213.536,1160.62c-4.293,36.526 -9.805,72.998 -15.256,109.478l-4.167,27.679c-3.438,22.771 8.754,44.827 28.812,52.163c20.058,7.336 41.897,-2.27 51.746,-22.691c113.922,-236.68 242.471,-480.949 448.496,-638.078c110.448,-84.23 221.512,-104.473 321.215,-58.589c116.284,53.587 201.742,190.631 228.746,366.665c54.84,358.013 -17.533,756.63 -103.903,1134.11c-27.277,119.292 -114.078,140.797 -186.198,121.155c-97.675,-26.601 -184.77,-128.342 -154.005,-264.409c37.933,-168.536 64.008,-339.523 78.034,-511.705c1.957,-23.311 -12.163,-44.729 -32.953,-50.02c-20.857,-5.371 -42.171,6.825 -49.934,28.649c-12.348,34.519 -24.528,69.107 -36.542,103.765c-80.078,231.23 -160.078,456.486 -257.767,670.384l-21.663,47.495c-182.24,400.178 -431.842,948.231 -848.6,1050.18c-202.497,49.567 -361.519,-127.243 -414.111,-327.355c-65.606,-249.763 -13.896,-523.785 36.077,-788.714c6.459,-34.277 12.776,-68.187 18.95,-101.732c40.649,-224.644 95.625,-449.418 148.768,-666.847c19.129,-78.199 38.084,-156.537 56.865,-235.014l5.243,-22.273c28.02,-118.251 57.001,-240.523 73.728,-364.202l0.709,-6.181c1.416,-13.659 -2.359,-27.363 -10.57,-38.371Zm-762.938,-517.71l-0.292,-0.347l0.292,0.347Z" style="fill-rule:nonzero;"/></g><path id="Path_143621" d="M6170.19,4868.08c-142.111,357.058 -370.686,694.729 -722.498,818.915c-52.008,18.321 -88.578,-67.045 -35.801,-85.7c330.331,-116.566 543.609,-429.142 677.287,-764.971c22.065,-55.393 103.175,-23.882 81.012,31.756Z" style="fill-rule:nonzero;"/><path id="Path_143622" d="M5390.55,5397.44c0.534,0.552 1.142,0.978 1.685,1.463c2.589,-0.654 5.216,-1.472 5.996,-1.631l0.311,-0.038c0.319,-0.17 0.073,-0.127 0.55,-0.381c18.265,-8.848 35.769,-19.206 53.414,-29.448c41.048,-23.746 82.078,-47.515 123.091,-71.308c19.916,-11.528 48.659,0.616 57.058,23.272c9.442,23.083 0.328,49.878 -21.23,62.416l-139.2,80.632c-38.696,22.369 -91.07,49.509 -130.539,12.603c-17.017,-15.968 -26.027,-43.839 -10.991,-65.545c12.891,-18.572 41.585,-29.128 59.855,-12.035Z" style="fill-rule:nonzero;"/><path id="Path_143623" d="M5578.9,2517.9c51.361,22.603 22.462,111.356 -29.014,88.675c-71.04,-31.268 -140.493,3.12 -197.434,51.558c-64.711,55.006 -123.301,121.955 -176.511,189.839c-107.034,137.065 -193.926,288.73 -258.036,450.388c-22.06,55.404 -103.178,23.878 -81.02,-31.76c76.57,-192.071 180.077,-368.562 309.594,-522.989c105.799,-126.116 259.44,-301.9 432.421,-225.711Z" style="fill-rule:nonzero;"/></g></g></g><g id="Group_175740"><g id="Group_162315-2"><path id="Path_143614-2" d="M-569.372,3628.91c-16.313,180.21 -26.813,360.6 -34.302,541.487c57.349,-127.909 110.603,-257.924 170.616,-384.479c68.046,-143.461 168.094,-329.489 323.603,-370.219c354.427,-92.886 373.918,477.328 345.559,719.802c-3.035,25.832 -7.124,51.607 -10.923,77.383c66.739,-138.627 139.739,-275.291 257.69,-365.261c162.191,-123.688 314.389,-5.584 344.18,189.07c32.019,209.004 -12.01,440.938 -58.34,643.365c-39.331,171.926 -274.729,77.39 -236.353,-92.597c20.881,-92.709 35.221,-186.771 42.913,-281.491c-6.839,19.156 -13.599,38.363 -20.278,57.619c-44.124,127.387 -89.051,254.451 -144.754,376.42c-106.692,233.518 -248.629,564.348 -501.702,626.248c-127.567,31.198 -227.248,-78.769 -259.334,-201.01c-43.142,-164.321 0.633,-345.789 30.201,-509.114c30.889,-170.515 75.259,-336.475 115.016,-504.575c16.62,-70.236 33.845,-140.991 43.54,-212.862c0.24,-1.659 0.365,-3.287 0.582,-4.921l-1.958,3.372c-42.526,74.003 -78.207,151.699 -113.776,229.872c-66.177,145.417 -126.816,310.3 -226.308,432.679c-87.987,108.211 -234.496,167.019 -328.453,28.274c-88.335,-130.431 -55.357,-330.264 -46.037,-480.27c11.302,-181.645 25.754,-363.127 40.084,-544.533c14.962,-189.405 285.626,-163.542 268.534,25.741Z" style="fill:#3c384f;fill-rule:nonzero;"/><path id="Path_143615-2" d="M-841.625,4656.99c37.35,48.719 84.683,75.725 137.677,78.317c73.667,3.603 155.293,-40.56 218.36,-118.14c82.224,-101.135 137.71,-228.367 191.358,-351.37c12.852,-29.463 25.573,-58.641 38.51,-87.049c12.274,-26.943 25.151,-55.267 38.789,-84.149c-2.979,12.75 -5.959,25.404 -8.94,37.961l-2.953,12.453c-10.321,43.671 -20.856,87.229 -31.603,130.673c-29.847,122.096 -60.721,248.361 -83.711,375.381c-3.356,18.552 -6.905,37.341 -10.483,56.335c-27.707,146.855 -59.104,313.314 -19.238,465.116c35.569,135.293 145.735,254.106 287.594,219.38c254.836,-62.341 399.951,-381.016 505.897,-613.711l12.074,-26.449c31.38,-68.638 59.399,-139.045 85.999,-210.813c-2.729,13.48 -5.607,26.891 -8.633,40.233c-23.742,105.089 42.82,189.867 120.889,211.109c64.575,17.58 139.728,-8.303 162.044,-105.822c49.439,-216.082 90.775,-444.892 58.705,-654.098c-17.791,-116.101 -76.221,-207.399 -156.341,-244.271c-70.541,-32.47 -150.528,-18.984 -225.241,38.008c-87.625,66.831 -150.853,157.72 -203.865,253.973c13.019,-188.058 -2.677,-499.324 -140.042,-634.449c-63.134,-62.042 -143.979,-80.694 -240.275,-55.453c-158.379,41.485 -260.419,217.229 -339.328,383.669c-37.578,79.234 -73.001,160.945 -107.279,239.988l-12.118,27.965c7.483,-148.405 16.807,-283.577 28.265,-410.287l-0.019,0.016c5.69,-62.669 -15.559,-116.131 -59.661,-150.487c-49.28,-37.743 -115.937,-44.393 -171.703,-17.131c-49.765,25.201 -79.942,73.868 -84.916,137.067l-1.617,20.617c-13.564,171.741 -27.612,349.348 -38.476,524.359c-1.349,21.578 -3.197,44.157 -5.082,67.424c-11.236,138.435 -25.214,310.707 55.771,430.259c3.096,4.63 6.318,9.079 9.592,13.376Zm697.813,-739.284c-2.516,-3.383 -5.923,-6.001 -9.838,-7.563c-10.424,-4.411 -22.636,-0.216 -28.15,9.669l-1.957,3.41c-44.604,77.59 -81.957,159.67 -114.926,232.094c-13.06,28.696 -25.88,58.158 -38.845,87.835c-52.225,119.71 -106.212,243.503 -183.92,339.085c-52.767,64.892 -121.882,103.436 -180.342,100.578c-43.358,-2.123 -80.485,-25.911 -110.88,-70.458c-70.07,-103.542 -57.559,-258.032 -46.492,-394.367c1.92,-23.64 3.776,-46.573 5.141,-68.496c10.851,-174.539 24.858,-351.91 38.414,-523.453l1.628,-20.572c4.391,-55.9 33.551,-81.881 57.235,-93.889c40.239,-19.295 88.057,-14.557 123.727,12.259c20.933,16.267 44.742,47.248 39.741,102.459l-0.02,0.016c-14.787,163.684 -26.035,341.264 -34.345,542.9c-0.837,11.926 6.64,22.97 18.025,26.621c11.294,2.918 23.13,-3.052 27.497,-13.869c21.685,-48.346 42.763,-96.993 63.826,-145.626c34.111,-78.62 69.352,-159.906 106.529,-238.308c73.912,-155.917 168.306,-320.219 307.868,-356.782c81.175,-21.299 145.629,-7.071 197.039,43.481c128.078,125.958 141.497,456.193 119.105,647.438c-2.363,20.377 -5.436,40.726 -8.495,61.095l-2.312,15.396c-2.142,12.238 4.59,24.421 16.091,29.12c11.381,3.936 24.029,-1.619 28.832,-12.661c63.589,-132.03 135.278,-268.279 250.23,-355.951c61.591,-46.965 123.542,-58.252 179.174,-32.668c64.881,29.866 112.563,106.326 127.626,204.527c30.561,199.707 -9.784,422.089 -57.962,632.658c-15.235,66.528 -63.658,78.561 -103.898,67.599c-54.467,-14.856 -103.054,-71.606 -85.893,-147.518c21.146,-94.021 35.693,-189.406 43.536,-285.456c1.405,-12.478 -6.378,-24.29 -18.399,-27.922c-11.977,-2.752 -24.205,4.266 -27.872,15.995c-6.869,19.239 -13.656,38.531 -20.36,57.878c-44.686,128.973 -89.293,254.643 -143.814,373.956l-12.081,26.531c-101.63,223.248 -240.877,528.983 -473.383,585.874c-112.944,27.635 -201.642,-70.986 -230.996,-182.634c-36.598,-139.331 -7.772,-292.178 20.128,-439.988c3.588,-19.105 7.165,-38.061 10.534,-56.759c22.708,-125.315 53.379,-250.707 83.025,-371.999c10.676,-43.62 21.244,-87.311 31.703,-131.072l2.936,-12.434c15.629,-65.967 31.781,-134.162 41.112,-203.194l0.397,-3.417c0.79,-7.629 -1.319,-15.282 -5.907,-21.429l-0.012,0.011Zm-425.596,-288.815l-0.148,-0.175l0.148,0.175Z" style="fill:#3c384f;fill-rule:nonzero;"/><path id="Path_143616-2" d="M317.898,4825.89c-79.297,199.167 -206.815,387.576 -403.066,456.814c-29.021,10.264 -49.41,-37.37 -19.959,-47.777c184.248,-65.036 303.249,-239.423 377.837,-426.752c12.273,-30.897 57.545,-13.322 45.188,17.715Z" style="fill:#3c384f;fill-rule:nonzero;"/><path id="Path_143617-2" d="M-117.016,5121.21c0.29,0.301 0.641,0.55 0.953,0.832c1.427,-0.348 2.896,-0.841 3.326,-0.93l0.19,-0.002c0.176,-0.094 0.019,-0.054 0.286,-0.196c10.208,-4.954 19.93,-10.74 29.816,-16.447c22.885,-13.267 45.773,-26.527 68.665,-39.781c11.109,-6.434 27.147,0.343 31.809,12.965c5.266,12.879 0.181,27.827 -11.845,34.824c-25.89,14.987 -51.788,29.976 -77.695,44.966c-21.543,12.48 -50.76,27.624 -72.779,7.036c-9.506,-8.885 -14.53,-24.447 -6.124,-36.559c7.183,-10.367 23.177,-16.276 33.398,-6.708Z" style="fill:#3c384f;fill-rule:nonzero;"/><path id="Path_143618-2" d="M-11.956,3514.85c28.653,12.607 12.516,62.1 -16.18,49.475c-39.63,-17.445 -78.383,1.725 -110.149,28.787c-36.099,30.688 -68.754,68.027 -98.451,105.885c-59.714,76.454 -108.194,161.053 -143.966,251.228c-12.321,30.899 -57.541,13.308 -45.194,-17.715c41.65,-105.836 99.959,-204.333 172.713,-291.755c58.996,-70.335 144.704,-168.394 241.227,-125.905Z" style="fill:#3c384f;fill-rule:nonzero;"/></g><g id="Group_162318-2"><g id="Group_162317-2"><g id="Group_162316-2"><path id="Path_143619-2" d="M-489.21,3636.57c-16.313,180.21 -26.813,360.6 -34.269,541.487c57.326,-127.891 110.586,-257.944 170.583,-384.479c68.044,-143.465 168.11,-329.469 323.603,-370.219c354.427,-92.886 373.937,477.312 345.559,719.802c-3.003,25.837 -7.104,51.585 -10.923,77.383c66.752,-138.606 139.755,-275.271 257.69,-365.261c162.191,-123.688 314.389,-5.584 344.199,189.054c32.027,209.052 -12.028,440.954 -58.332,643.413c-39.332,171.925 -274.742,77.368 -236.37,-92.616c20.878,-92.704 35.223,-186.759 42.93,-281.472c-6.84,19.156 -13.61,38.361 -20.31,57.614c-44.106,127.375 -89.033,254.44 -144.749,376.393c-106.689,233.548 -248.633,564.33 -501.718,626.262c-127.537,31.194 -227.208,-78.748 -259.304,-201.008c-43.155,-164.337 0.646,-345.774 30.198,-509.118c30.889,-170.514 75.275,-336.455 115.032,-504.555c16.604,-70.256 33.826,-141.013 43.559,-212.879c0.218,-1.64 0.332,-3.286 0.566,-4.945l-1.974,3.391c-42.526,74.003 -78.194,151.721 -113.776,229.872c-66.161,145.436 -126.797,310.284 -226.308,432.679c-87.971,108.23 -234.496,167.019 -328.453,28.274c-88.316,-130.408 -55.344,-330.242 -46.01,-480.239c11.302,-181.677 25.757,-363.161 40.087,-544.568c14.948,-189.376 285.612,-163.513 268.49,25.735Z" style="fill:#6b8dfc;fill-rule:nonzero;"/><path id="Path_143620-2" d="M-761.405,4664.66c37.35,48.719 84.648,75.722 137.644,78.317c73.668,3.603 155.294,-40.56 218.377,-118.159c82.229,-101.09 137.709,-228.328 191.358,-351.371c12.865,-29.44 25.573,-58.602 38.482,-87.024c12.274,-26.943 25.15,-55.267 38.789,-84.149c-2.96,12.73 -5.967,25.403 -8.941,37.961l-2.936,12.434c-10.324,43.67 -20.963,87.211 -31.587,130.692c-29.879,122.091 -60.756,248.358 -83.73,375.359c-3.375,18.566 -6.875,37.35 -10.499,56.354c-27.688,146.844 -59.086,313.304 -19.239,465.122c35.586,135.312 145.755,254.089 287.601,219.374c254.817,-62.324 399.921,-380.986 505.912,-613.686l12.029,-26.444c31.381,-68.637 59.4,-139.045 86.015,-210.788c-2.745,13.461 -5.616,26.867 -8.614,40.217c-23.751,105.053 42.808,189.834 120.877,211.076c64.578,17.577 139.731,-8.307 162.051,-105.827c49.438,-216.082 90.775,-444.892 58.756,-654.103c-17.834,-116.12 -76.235,-207.382 -156.374,-244.277c-70.541,-32.47 -150.498,-18.981 -225.221,37.992c-87.626,66.831 -150.873,157.736 -203.85,253.992c12.99,-188.06 -2.696,-499.308 -140.058,-634.43c-63.134,-62.042 -143.995,-80.713 -240.29,-55.478c-158.364,41.504 -260.385,217.232 -339.329,383.67c-37.558,79.217 -73,160.944 -107.26,239.971l-12.117,27.965c7.466,-148.386 16.787,-283.561 28.245,-410.27c5.69,-62.669 -15.575,-116.112 -59.679,-150.472c-49.279,-37.743 -115.941,-44.38 -171.695,-17.094c-49.781,25.181 -79.939,73.832 -84.92,137.016l-1.631,20.634c-13.583,171.756 -27.612,349.347 -38.494,524.374c-1.35,21.579 -3.198,44.157 -5.067,67.444c-11.246,138.411 -25.226,310.685 55.761,430.234c3.126,4.639 6.332,9.069 9.634,13.374Zm697.821,-739.275c-2.522,-3.38 -5.935,-5.994 -9.857,-7.546c-10.421,-4.434 -22.649,-0.246 -28.163,9.647l-1.957,3.41c-44.584,77.574 -81.957,159.67 -114.926,232.094c-13.041,28.679 -25.86,58.142 -38.845,87.835c-52.218,119.731 -106.21,243.518 -183.911,339.095c-52.767,64.891 -121.883,103.435 -180.378,100.574c-43.326,-2.117 -80.485,-25.911 -110.88,-70.457c-70.079,-103.535 -57.556,-258.035 -46.466,-394.356c1.917,-23.644 3.776,-46.612 5.14,-68.497c10.852,-174.538 24.859,-351.91 38.415,-523.452l1.646,-20.615c4.396,-55.856 33.554,-81.878 57.249,-93.868c40.233,-19.3 88.051,-14.555 123.707,12.275c20.917,16.248 44.726,47.229 39.724,102.441c-14.787,163.683 -26.035,341.263 -34.364,542.915c-0.834,11.926 6.644,22.968 18.028,26.619c11.304,2.934 23.157,-3.047 27.513,-13.883c21.685,-48.345 42.763,-96.992 63.874,-145.633c34.064,-78.624 69.33,-159.888 106.494,-238.312c73.925,-155.895 168.306,-320.218 307.887,-356.797c81.162,-21.25 145.625,-7.031 197.039,43.481c128.059,125.974 141.494,456.228 119.121,647.456c-2.395,20.378 -5.471,40.723 -8.511,61.071l-2.324,15.439c-2.149,12.23 4.578,24.409 16.075,29.101c11.389,3.945 24.053,-1.608 28.867,-12.659c63.554,-132.033 135.265,-268.3 250.194,-355.953c61.611,-46.982 123.569,-58.28 179.194,-32.684c64.862,29.882 112.544,106.342 127.606,204.542c30.561,199.752 -9.819,422.13 -58.01,632.711c-15.219,66.547 -63.639,78.545 -103.875,67.58c-54.49,-14.837 -103.071,-71.593 -85.913,-147.502c21.161,-94.017 35.708,-189.402 43.533,-285.453c1.411,-12.47 -6.368,-24.278 -18.383,-27.904c-11.97,-2.767 -24.2,4.25 -27.853,15.98c-6.888,19.254 -13.681,38.552 -20.379,57.894c-44.67,128.992 -89.293,254.643 -143.798,373.975l-12.08,26.493c-101.655,223.231 -240.899,528.963 -473.389,585.841c-112.963,27.651 -201.662,-70.971 -231.016,-182.619c-36.597,-139.331 -7.753,-292.193 20.128,-439.988c3.607,-19.123 7.135,-38.038 10.584,-56.746c22.669,-125.314 53.343,-250.71 82.989,-372.001c10.676,-43.62 21.25,-87.316 31.722,-131.089l2.917,-12.417c15.629,-65.967 31.8,-134.179 41.115,-203.158l0.381,-3.436c0.808,-7.629 -1.286,-15.289 -5.864,-21.444Zm-425.625,-288.79l-0.163,-0.195l0.163,0.195Z" style="fill-rule:nonzero;"/></g><path id="Path_143621-2" d="M398.07,4833.57c-79.28,199.186 -206.792,387.557 -403.049,456.833c-29.02,10.208 -49.416,-37.404 -19.984,-47.801c184.283,-65.032 303.265,-239.403 377.836,-426.751c12.315,-30.893 57.557,-13.322 45.197,17.719Z" style="fill-rule:nonzero;"/><path id="Path_143622-2" d="M-36.847,5128.89c0.29,0.3 0.641,0.55 0.954,0.831c1.442,-0.367 2.916,-0.815 3.341,-0.911l0.174,-0.02c0.177,-0.094 0.038,-0.071 0.305,-0.213c10.192,-4.935 19.954,-10.711 29.8,-16.428c22.899,-13.245 45.787,-26.506 68.665,-39.781c11.112,-6.43 27.146,0.343 31.833,12.995c5.245,12.875 0.152,27.804 -11.869,34.789l-77.651,44.978c-21.59,12.47 -50.804,27.612 -72.823,7.023c-9.487,-8.901 -14.53,-24.446 -6.127,-36.555c7.186,-10.371 23.193,-16.258 33.398,-6.708Z" style="fill-rule:nonzero;"/><path id="Path_143623-2" d="M68.219,3522.53c28.653,12.607 12.532,62.119 -16.179,49.474c-39.631,-17.444 -78.368,1.745 -110.13,28.772c-36.099,30.688 -68.774,68.043 -98.468,105.904c-59.715,76.453 -108.195,161.051 -143.968,251.225c-12.305,30.918 -57.541,13.308 -45.194,-17.715c41.666,-105.826 99.972,-204.32 172.709,-291.752c59.018,-70.354 144.73,-168.416 241.23,-125.908Z" style="fill-rule:nonzero;"/></g></g></g></g></g></g></g><g id="Group_175738"><path id="Path_184292" d="M5535.38,10410.7l0,2493.24l-5535.38,-0l0,-2490.53l5535.38,-2.709Z" style="fill:#6b8dfc;fill-rule:nonzero;"/><path id="Path_185926" d="M2.05,10208.3l5533.33,0l0,512.555c0,834.549 -742.462,1511.09 -1658.33,1511.09l-2216.67,0c-915.871,0 -1658.33,-676.538 -1658.33,-1511.09l-0,-512.555Z" style="fill:#f0f4ff;fill-rule:nonzero;"/></g></g></svg>