<svg xmlns="http://www.w3.org/2000/svg" xmlns:xlink="http://www.w3.org/1999/xlink" width="1328" height="1143" viewBox="0 0 1328 1143">
  <defs>
    <clipPath id="clip-path">
      <rect id="Rectangle_47496" data-name="Rectangle 47496" width="1328" height="1143" transform="translate(136 350)" fill="none" stroke="#707070" stroke-width="1"/>
    </clipPath>
    <clipPath id="clip-path-2">
      <rect id="Rectangle_41289" data-name="Rectangle 41289" width="1328" height="920" fill="#8284d2"/>
    </clipPath>
    <clipPath id="clip-path-3">
      <path id="Path_170518" data-name="Path 170518" d="M0,0H1328V920.53H0Z" transform="translate(136 350.47)" fill="#8284d2"/>
    </clipPath>
  </defs>
  <g id="bg-t2-1" transform="translate(-136 -350)" clip-path="url(#clip-path)">
    <g id="Group_166707" data-name="Group 166707" transform="translate(-44 -4826.863)">
      <path id="Path_170518-2" data-name="Path 170518" d="M0,0H1328V920.53H0Z" transform="translate(180 5177.333)" fill="#8284d2"/>
    </g>
    <g id="Mask_Group_319" data-name="Mask Group 319" clip-path="url(#clip-path-3)">
      <g id="Group_175786" data-name="Group 175786" transform="translate(444.943 800.241) rotate(-174)">
        <g id="Group_162315" data-name="Group 162315" transform="translate(17.121 0)" style="mix-blend-mode: overlay;isolation: isolate">
          <path id="Path_143614" data-name="Path 143614" d="M504.955,254.347c-38.039-38.268-77.234-75.244-117.118-111.627,18.227,37.617,37.719,74.7,55.124,112.671,19.729,43.042,43.046,101.554,22.543,144.885-46.721,98.767-180.71-6.078-230.663-59.033-5.32-5.645-10.423-11.519-15.584-17.328,18.875,41.817,36.1,84.689,34.039,128.878-2.834,60.758-58.986,72.887-109.162,42.382C90.254,462.425,45.712,407.905,8.351,358.526c-31.735-41.939,34.981-77.59,66.456-36.242a604.794,604.794,0,0,0,56.076,63.757q-4.593-7.851-9.275-15.676c-20.643-34.5-41.057-69.114-58.236-105.223C30.48,196.011-17.881,100.175,16.482,30.5,33.8-4.616,78.027-6.309,112.1,9.793c45.806,21.644,78.867,66.425,110.511,104.486,33.031,39.739,62.436,81.687,93.215,122.99,12.859,17.259,25.721,34.756,40.279,50.747.333.371.681.713,1.013,1.076l-.4-1.094c-8.753-23.9-19.662-46.943-30.7-70.052-20.533-43-46.575-88.447-55.46-134.632-7.854-40.841,6.8-85.58,56.5-80.449,46.726,4.822,86.054,50.658,118.53,81.541,39.327,37.4,78.013,75.487,116.706,113.531C602.7,237.661,544.912,294.533,504.955,254.347Z" transform="translate(7.647 7.515)" fill="#3c384f"/>
          <path id="Path_143615" data-name="Path 143615" d="M329.935,2.614c-18.289-.807-33.529,4.83-44.28,16.438-14.944,16.137-20.5,43.249-14.867,72.525,7.342,38.169,25.77,75.231,43.585,111.063,4.267,8.583,8.493,17.082,12.5,25.482,3.8,7.968,7.8,16.339,11.788,24.99q-3.512-4.686-6.954-9.317l-2.278-3.062q-12-16.093-23.792-32.266c-22.17-30.221-45.1-61.477-69.7-91.077-3.594-4.322-7.207-8.734-10.86-13.193-28.242-34.481-60.248-73.56-102.564-93.551C84.787-7.16,36.529-4.769,17.275,34.29c-34.605,70.163,10.374,164.395,43.222,233.2l3.728,7.824c9.664,20.325,20.371,40.22,31.672,60.053q-3.835-4.811-7.536-9.684c-19.458-25.559-51.577-26.6-71.4-12.843-16.393,11.382-24.886,33.511-6.887,57.3C49.959,422.848,94.3,476.15,148.238,508.93c29.932,18.19,61.986,22.343,85.767,11.108,20.938-9.89,33.19-30.747,34.492-58.738,1.53-32.827-7.113-64.692-18.939-95.251,40.463,39.021,114.576,95.1,171.772,89.62,26.274-2.53,46.031-17.423,58.723-44.257,20.882-44.13.294-101.127-22.6-151.055-10.9-23.771-22.772-47.526-34.259-70.506l-4.066-8.128c32.466,30.155,61.557,58.195,88.306,85.1v-.007c13.225,13.312,29.51,18.706,45.812,15.217,17.9-3.842,32.7-18.278,36.825-35.939,3.783-16.2-1.55-32.421-15.029-45.67l-4.4-4.321c-36.634-36.024-74.514-73.276-112.408-109.3-4.67-4.444-9.474-9.191-14.428-14.085C414.334,43.617,377.661,7.4,334.829,2.978,333.177,2.8,331.544,2.685,329.935,2.614Zm35.122,301.109a6.794,6.794,0,0,0,3.613-.8,6.646,6.646,0,0,0,3.187-8.283l-.4-1.1c-9.175-25.061-20.764-49.33-30.99-70.741-4.052-8.484-8.319-17.059-12.619-25.71-17.335-34.876-35.265-70.936-42.2-107.009-4.709-24.492-.266-47.668,11.592-60.475,8.8-9.5,21.346-13.42,37.348-11.823,37.084,3.833,69.978,36.308,99,64.967,5.032,4.965,9.915,9.789,14.656,14.3,37.791,35.934,75.624,73.132,112.21,109.11l4.393,4.32c11.925,11.718,12.273,23.364,10.477,31.071-2.929,12.54-13.836,23.192-26.516,25.913-7.729,1.663-19.369,1.164-31.023-10.564v-.007c-34.557-34.752-72.966-71.36-117.433-111.908a7.766,7.766,0,0,0-9.536-.985,6.965,6.965,0,0,0-2.1,8.94c6.887,14.22,13.959,28.359,21.031,42.5,11.421,22.859,23.238,46.493,34.018,70.013,21.449,46.77,40.888,99.826,22.485,138.714-10.695,22.626-26.3,34.622-47.7,36.676-53.323,5.115-131.331-55.12-170.726-96.892-4.2-4.446-8.261-9.048-12.328-13.651l-3.074-3.483a7.908,7.908,0,0,0-9.736-1.906,6.912,6.912,0,0,0-2.634,9.013c17.972,39.833,35.354,82.326,33.348,125.389-1.077,23.072-10.373,39.391-26.882,47.191-19.255,9.1-45.864,5.332-71.184-10.05-51.478-31.3-94.543-83.14-133.411-134.508-12.277-16.232-5.744-29.6,4.47-36.69,13.834-9.595,36.111-9.815,50.162,8.655a616.641,616.641,0,0,0,56.863,64.66,7.788,7.788,0,0,0,9.905,1.149A7.054,7.054,0,0,0,145,390.287q-4.617-7.885-9.323-15.745c-20.9-34.929-41.054-69.21-57.858-104.531l-3.736-7.839C42.569,196.159-.581,105.748,30.99,41.73c15.336-31.1,54.872-32.456,86-17.76C155.83,42.316,185.22,78.2,213.637,112.9c3.676,4.482,7.321,8.932,10.947,13.286,24.273,29.207,47.038,60.248,69.063,90.27q11.877,16.2,23.865,32.366l2.278,3.055c12.073,16.215,24.555,32.975,38.535,48.34l.7.751A9.114,9.114,0,0,0,365.056,303.723Zm147.553-41.861.068,0Z" transform="translate(0 0)" fill="#3c384f"/>
          <path id="Path_143616" data-name="Path 143616" d="M36.582,184.255C6.285,127.966-12.312,62.723,9.489,4.62,12.708-3.974,27.5.5,24.231,9.219,3.771,63.774,20.8,124.383,49.292,177.327,54,186.055,41.3,193.028,36.582,184.255Z" transform="translate(32.514 50.852)" fill="#3c384f"/>
          <path id="Path_143617" data-name="Path 143617" d="M21.75,14.594c-.128.009-.247.041-.367.058-.194.392-.363.823-.425.939l-.036.043c-.012.059.008.015-.01.1-.825,3.281-1.37,6.612-1.959,9.963q-2.034,11.655-4.075,23.311c-.66,3.771-5.282,6.135-9.059,4.781a8.355,8.355,0,0,1-5.69-9.38q2.3-13.18,4.616-26.367C6.023,10.731,8.165,1.155,17.088.071c3.854-.468,8.37,1.371,9.525,5.608C27.6,9.308,25.889,14.094,21.75,14.594Z" transform="translate(63.255 64.558)" fill="#3c384f"/>
          <path id="Path_143618" data-name="Path 143618" d="M29.8,178.66c-8.372,4.128-16.585-9.044-8.2-13.179,11.581-5.709,14.631-18.236,14.541-30.68-.09-14.128-2.359-28.746-5.317-42.785a303.54,303.54,0,0,0-29.8-81.042c-4.7-8.735,7.989-15.7,12.71-6.928A318.126,318.126,0,0,1,47.277,99.421C52.036,126.38,58.007,164.756,29.8,178.66Z" transform="translate(402.008 232.398)" fill="#3c384f"/>
        </g>
        <g id="Group_162318" data-name="Group 162318" transform="translate(0 16.844)">
          <g id="Group_162317" data-name="Group 162317" transform="translate(0 0)">
            <g id="Group_162316" data-name="Group 162316">
              <path id="Path_143619" data-name="Path 143619" d="M504.962,254.347c-38.039-38.268-77.234-75.244-117.126-111.62,18.226,37.61,37.726,74.7,55.131,112.663,19.729,43.042,43.039,101.554,22.543,144.885C418.79,499.042,284.8,394.2,234.847,341.241c-5.327-5.638-10.423-11.511-15.584-17.328C238.131,365.73,255.357,408.6,253.3,452.792c-2.834,60.758-58.986,72.887-109.162,42.389C90.253,462.425,45.718,407.906,8.35,358.527c-31.735-41.939,34.989-77.59,66.463-36.242a605.573,605.573,0,0,0,56.069,63.764q-4.593-7.851-9.267-15.683c-20.643-34.5-41.057-69.114-58.236-105.215C30.479,196.01-17.874,100.182,16.489,30.5,33.809-4.615,78.027-6.309,112.109,9.793c45.806,21.644,78.867,66.425,110.51,104.485,33.031,39.74,62.429,81.687,93.208,122.99,12.867,17.26,25.729,34.757,40.28,50.755.333.364.687.706,1.021,1.077l-.4-1.1c-8.753-23.9-19.67-46.944-30.7-70.052-20.541-42.989-46.575-88.439-55.46-134.632-7.861-40.841,6.8-85.58,56.5-80.449,46.718,4.822,86.046,50.658,118.522,81.541C484.925,121.811,523.612,159.9,562.3,197.945,602.7,237.661,544.911,294.533,504.962,254.347Z" transform="translate(7.64 7.513)" fill="#3c3fa7"/>
              <path id="Path_143620" data-name="Path 143620" d="M329.927,2.619c-18.289-.807-33.522,4.823-44.273,16.431-14.944,16.137-20.5,43.249-14.867,72.533,7.334,38.161,25.762,75.223,43.585,111.063,4.26,8.582,8.485,17.074,12.5,25.474,3.8,7.969,7.8,16.339,11.788,24.99-2.341-3.117-4.66-6.232-6.954-9.317l-2.278-3.054c-8-10.729-15.9-21.505-23.8-32.267-22.163-30.228-45.088-61.483-69.7-91.077q-5.391-6.495-10.86-13.2c-28.241-34.474-60.247-73.552-102.564-93.551C84.779-7.163,36.529-4.764,17.275,34.295c-34.606,70.155,10.374,164.388,43.215,233.2l3.735,7.817c9.664,20.325,20.371,40.22,31.664,60.053q-3.823-4.811-7.536-9.677C68.9,300.12,36.784,299.075,16.961,312.837c-16.393,11.382-24.886,33.511-6.887,57.3,39.885,52.711,84.229,106.013,138.157,138.8,29.939,18.184,61.986,22.336,85.774,11.1,20.938-9.89,33.183-30.741,34.492-58.73,1.53-32.827-7.113-64.7-18.947-95.251,40.47,39.014,114.576,95.09,171.772,89.612,26.274-2.53,46.038-17.422,58.731-44.257,20.874-44.131.287-101.12-22.6-151.055-10.9-23.763-22.772-47.525-34.258-70.5l-4.066-8.128c32.465,30.148,61.557,58.187,88.305,85.092h0c13.225,13.312,29.51,18.7,45.812,15.21,17.9-3.842,32.7-18.278,36.818-35.939,3.79-16.2-1.543-32.413-15.021-45.662l-4.4-4.328c-36.634-36.024-74.514-73.269-112.408-109.3-4.67-4.444-9.474-9.191-14.436-14.085C414.334,43.615,377.661,7.4,334.829,2.976,333.17,2.806,331.544,2.69,329.927,2.619Zm35.122,301.109a6.781,6.781,0,0,0,3.613-.806,6.639,6.639,0,0,0,3.195-8.283l-.4-1.1c-9.174-25.053-20.764-49.33-30.99-70.74-4.051-8.477-8.319-17.052-12.619-25.71-17.342-34.876-35.273-70.937-42.212-107-4.709-24.493-.266-47.668,11.6-60.482,8.788-9.491,21.346-13.42,37.348-11.823,37.084,3.832,69.978,36.307,98.992,64.967,5.033,4.972,9.923,9.8,14.664,14.3,37.791,35.934,75.624,73.132,112.211,109.11l4.393,4.328c11.917,11.711,12.272,23.357,10.469,31.07-2.929,12.533-13.828,23.193-26.516,25.906-7.721,1.663-19.361,1.165-31.015-10.564h0c-34.556-34.753-72.966-71.36-117.433-111.916a7.767,7.767,0,0,0-9.536-.985,6.957,6.957,0,0,0-2.1,8.94c6.887,14.22,13.959,28.359,21.024,42.506,11.428,22.852,23.238,46.485,34.025,70.006,21.441,46.769,40.888,99.826,22.485,138.722-10.7,22.618-26.307,34.614-47.7,36.676-53.323,5.107-131.339-55.127-170.734-96.892-4.2-4.453-8.254-9.055-12.32-13.651l-3.082-3.491a7.9,7.9,0,0,0-9.728-1.906,6.92,6.92,0,0,0-2.642,9.02c17.979,39.825,35.361,82.326,33.355,125.382-1.077,23.079-10.373,39.4-26.881,47.2-19.263,9.088-45.864,5.325-71.184-10.057-51.485-31.291-94.543-83.14-133.411-134.508-12.285-16.232-5.744-29.593,4.471-36.683,13.834-9.6,36.11-9.822,50.162,8.647a615.109,615.109,0,0,0,56.863,64.66,7.778,7.778,0,0,0,9.9,1.149A7.039,7.039,0,0,0,145,390.292q-4.617-7.9-9.316-15.752c-20.9-34.93-41.054-69.21-57.866-104.531l-3.736-7.839C42.569,196.157-.581,105.746,30.991,41.736c15.336-31.1,54.871-32.463,86-17.768C155.829,42.314,185.22,78.2,213.637,112.9q5.515,6.734,10.94,13.293c24.281,29.2,47.045,60.242,69.071,90.263q11.877,16.2,23.865,32.373l2.278,3.047c12.073,16.215,24.556,32.983,38.528,48.339l.712.751A9.106,9.106,0,0,0,365.049,303.728ZM512.6,261.859l.076,0Z" transform="translate(0 0)"/>
            </g>
            <path id="Path_143621" data-name="Path 143621" d="M36.586,184.252C6.281,127.963-12.308,62.727,9.485,4.617,12.712-3.969,27.5.5,24.234,9.216,3.767,63.778,20.792,124.379,49.3,177.324,53.992,186.059,41.306,193.025,36.586,184.252Z" transform="translate(32.51 50.853)"/>
            <path id="Path_143622" data-name="Path 143622" d="M21.75,14.592c-.128.009-.247.041-.367.058-.193.4-.37.822-.433.938l-.028.043c-.012.059.009.023-.01.111-.826,3.274-1.377,6.612-1.959,9.956q-2.045,11.655-4.075,23.311c-.66,3.771-5.281,6.135-9.067,4.781A8.353,8.353,0,0,1,.129,44.41L4.738,18.05c1.285-7.321,3.427-16.9,12.35-17.98,3.855-.461,8.37,1.371,9.525,5.608C27.6,9.306,25.882,14.091,21.75,14.592Z" transform="translate(63.255 64.558)"/>
            <path id="Path_143623" data-name="Path 143623" d="M29.8,178.66c-8.372,4.128-16.592-9.044-8.2-13.179,11.581-5.709,14.623-18.237,14.541-30.672-.09-14.128-2.359-28.753-5.318-42.792a303.541,303.541,0,0,0-29.8-81.042c-4.7-8.735,7.989-15.7,12.71-6.928A318.457,318.457,0,0,1,47.279,99.421C52.038,126.388,58.01,164.763,29.8,178.66Z" transform="translate(402.006 232.396)"/>
          </g>
        </g>
        <g id="Group_175787" data-name="Group 175787" transform="translate(-1147.724 -395.959)">
          <g id="Group_162317-2" data-name="Group 162317" transform="translate(0 0)">
            <g id="Group_162316-2" data-name="Group 162316">
              <path id="Path_143619-2" data-name="Path 143619" d="M504.962,254.347c-38.039-38.268-77.234-75.244-117.126-111.62,18.226,37.61,37.726,74.7,55.131,112.663,19.729,43.042,43.039,101.554,22.543,144.885C418.79,499.042,284.8,394.2,234.847,341.241c-5.327-5.638-10.423-11.511-15.584-17.328C238.131,365.73,255.357,408.6,253.3,452.792c-2.834,60.758-58.986,72.887-109.162,42.389C90.253,462.425,45.718,407.906,8.35,358.527c-31.735-41.939,34.989-77.59,66.463-36.242a605.573,605.573,0,0,0,56.069,63.764q-4.593-7.851-9.267-15.683c-20.643-34.5-41.057-69.114-58.236-105.215C30.479,196.01-17.874,100.182,16.489,30.5,33.809-4.615,78.027-6.309,112.109,9.793c45.806,21.644,78.867,66.425,110.51,104.485,33.031,39.74,62.429,81.687,93.208,122.99,12.867,17.26,25.729,34.757,40.28,50.755.333.364.687.706,1.021,1.077l-.4-1.1c-8.753-23.9-19.67-46.944-30.7-70.052-20.541-42.989-46.575-88.439-55.46-134.632-7.861-40.841,6.8-85.58,56.5-80.449,46.718,4.822,86.046,50.658,118.522,81.541C484.925,121.811,523.612,159.9,562.3,197.945,602.7,237.661,544.911,294.533,504.962,254.347Z" transform="translate(7.64 7.513)" fill="#3c3fa7"/>
              <path id="Path_143620-2" data-name="Path 143620" d="M329.927,2.619c-18.289-.807-33.522,4.823-44.273,16.431-14.944,16.137-20.5,43.249-14.867,72.533,7.334,38.161,25.762,75.223,43.585,111.063,4.26,8.582,8.485,17.074,12.5,25.474,3.8,7.969,7.8,16.339,11.788,24.99-2.341-3.117-4.66-6.232-6.954-9.317l-2.278-3.054c-8-10.729-15.9-21.505-23.8-32.267-22.163-30.228-45.088-61.483-69.7-91.077q-5.391-6.495-10.86-13.2c-28.241-34.474-60.247-73.552-102.564-93.551C84.779-7.163,36.529-4.764,17.275,34.295c-34.606,70.155,10.374,164.388,43.215,233.2l3.735,7.817c9.664,20.325,20.371,40.22,31.664,60.053q-3.823-4.811-7.536-9.677C68.9,300.12,36.784,299.075,16.961,312.837c-16.393,11.382-24.886,33.511-6.887,57.3,39.885,52.711,84.229,106.013,138.157,138.8,29.939,18.184,61.986,22.336,85.774,11.1,20.938-9.89,33.183-30.741,34.492-58.73,1.53-32.827-7.113-64.7-18.947-95.251,40.47,39.014,114.576,95.09,171.772,89.612,26.274-2.53,46.038-17.422,58.731-44.257,20.874-44.131.287-101.12-22.6-151.055-10.9-23.763-22.772-47.525-34.258-70.5l-4.066-8.128c32.465,30.148,61.557,58.187,88.305,85.092h0c13.225,13.312,29.51,18.7,45.812,15.21,17.9-3.842,32.7-18.278,36.818-35.939,3.79-16.2-1.543-32.413-15.021-45.662l-4.4-4.328c-36.634-36.024-74.514-73.269-112.408-109.3-4.67-4.444-9.474-9.191-14.436-14.085C414.334,43.615,377.661,7.4,334.829,2.976,333.17,2.806,331.544,2.69,329.927,2.619Zm35.122,301.109a6.781,6.781,0,0,0,3.613-.806,6.639,6.639,0,0,0,3.195-8.283l-.4-1.1c-9.174-25.053-20.764-49.33-30.99-70.74-4.051-8.477-8.319-17.052-12.619-25.71-17.342-34.876-35.273-70.937-42.212-107-4.709-24.493-.266-47.668,11.6-60.482,8.788-9.491,21.346-13.42,37.348-11.823,37.084,3.832,69.978,36.307,98.992,64.967,5.033,4.972,9.923,9.8,14.664,14.3,37.791,35.934,75.624,73.132,112.211,109.11l4.393,4.328c11.917,11.711,12.272,23.357,10.469,31.07-2.929,12.533-13.828,23.193-26.516,25.906-7.721,1.663-19.361,1.165-31.015-10.564h0c-34.556-34.753-72.966-71.36-117.433-111.916a7.767,7.767,0,0,0-9.536-.985,6.957,6.957,0,0,0-2.1,8.94c6.887,14.22,13.959,28.359,21.024,42.506,11.428,22.852,23.238,46.485,34.025,70.006,21.441,46.769,40.888,99.826,22.485,138.722-10.7,22.618-26.307,34.614-47.7,36.676-53.323,5.107-131.339-55.127-170.734-96.892-4.2-4.453-8.254-9.055-12.32-13.651l-3.082-3.491a7.9,7.9,0,0,0-9.728-1.906,6.92,6.92,0,0,0-2.642,9.02c17.979,39.825,35.361,82.326,33.355,125.382-1.077,23.079-10.373,39.4-26.881,47.2-19.263,9.088-45.864,5.325-71.184-10.057-51.485-31.291-94.543-83.14-133.411-134.508-12.285-16.232-5.744-29.593,4.471-36.683,13.834-9.6,36.11-9.822,50.162,8.647a615.109,615.109,0,0,0,56.863,64.66,7.778,7.778,0,0,0,9.9,1.149A7.039,7.039,0,0,0,145,390.292q-4.617-7.9-9.316-15.752c-20.9-34.93-41.054-69.21-57.866-104.531l-3.736-7.839C42.569,196.157-.581,105.746,30.991,41.736c15.336-31.1,54.871-32.463,86-17.768C155.829,42.314,185.22,78.2,213.637,112.9q5.515,6.734,10.94,13.293c24.281,29.2,47.045,60.242,69.071,90.263q11.877,16.2,23.865,32.373l2.278,3.047c12.073,16.215,24.556,32.983,38.528,48.339l.712.751A9.106,9.106,0,0,0,365.049,303.728ZM512.6,261.859l.076,0Z" transform="translate(0 0)"/>
            </g>
            <path id="Path_143621-2" data-name="Path 143621" d="M36.586,184.252C6.281,127.963-12.308,62.727,9.485,4.617,12.712-3.969,27.5.5,24.234,9.216,3.767,63.778,20.792,124.379,49.3,177.324,53.992,186.059,41.306,193.025,36.586,184.252Z" transform="translate(32.51 50.853)"/>
            <path id="Path_143622-2" data-name="Path 143622" d="M21.75,14.592c-.128.009-.247.041-.367.058-.193.4-.37.822-.433.938l-.028.043c-.012.059.009.023-.01.111-.826,3.274-1.377,6.612-1.959,9.956q-2.045,11.655-4.075,23.311c-.66,3.771-5.281,6.135-9.067,4.781A8.353,8.353,0,0,1,.129,44.41L4.738,18.05c1.285-7.321,3.427-16.9,12.35-17.98,3.855-.461,8.37,1.371,9.525,5.608C27.6,9.306,25.882,14.091,21.75,14.592Z" transform="translate(63.255 64.558)"/>
            <path id="Path_143623-2" data-name="Path 143623" d="M29.8,178.66c-8.372,4.128-16.592-9.044-8.2-13.179,11.581-5.709,14.623-18.237,14.541-30.672-.09-14.128-2.359-28.753-5.318-42.792a303.541,303.541,0,0,0-29.8-81.042c-4.7-8.735,7.989-15.7,12.71-6.928A318.457,318.457,0,0,1,47.279,99.421C52.038,126.388,58.01,164.763,29.8,178.66Z" transform="translate(402.006 232.396)"/>
          </g>
        </g>
      </g>
    </g>
  </g>
</svg>
